%TF.GenerationSoftware,KiCad,Pcbnew,(6.0.5)*%
%TF.CreationDate,2022-09-08T00:21:15+12:00*%
%TF.ProjectId,OpenEFCS_electronics,4f70656e-4546-4435-935f-656c65637472,rev?*%
%TF.SameCoordinates,Original*%
%TF.FileFunction,Legend,Top*%
%TF.FilePolarity,Positive*%
%FSLAX46Y46*%
G04 Gerber Fmt 4.6, Leading zero omitted, Abs format (unit mm)*
G04 Created by KiCad (PCBNEW (6.0.5)) date 2022-09-08 00:21:15*
%MOMM*%
%LPD*%
G01*
G04 APERTURE LIST*
G04 Aperture macros list*
%AMRoundRect*
0 Rectangle with rounded corners*
0 $1 Rounding radius*
0 $2 $3 $4 $5 $6 $7 $8 $9 X,Y pos of 4 corners*
0 Add a 4 corners polygon primitive as box body*
4,1,4,$2,$3,$4,$5,$6,$7,$8,$9,$2,$3,0*
0 Add four circle primitives for the rounded corners*
1,1,$1+$1,$2,$3*
1,1,$1+$1,$4,$5*
1,1,$1+$1,$6,$7*
1,1,$1+$1,$8,$9*
0 Add four rect primitives between the rounded corners*
20,1,$1+$1,$2,$3,$4,$5,0*
20,1,$1+$1,$4,$5,$6,$7,0*
20,1,$1+$1,$6,$7,$8,$9,0*
20,1,$1+$1,$8,$9,$2,$3,0*%
%AMFreePoly0*
4,1,18,-0.500000,0.250000,-0.250000,0.500000,0.250000,0.500000,0.345671,0.480970,0.426777,0.426777,0.480970,0.345671,0.500000,0.250000,0.500000,-0.250000,0.480970,-0.345671,0.426777,-0.426777,0.345671,-0.480970,0.250000,-0.500000,-0.250000,-0.500000,-0.345671,-0.480970,-0.426777,-0.426777,-0.480970,-0.345671,-0.500000,-0.250000,-0.500000,0.250000,-0.500000,0.250000,$1*%
%AMFreePoly1*
4,1,17,2.675000,1.605000,1.875000,1.605000,1.875000,0.935000,2.675000,0.935000,2.675000,0.335000,1.875000,0.335000,1.875000,-0.335000,2.675000,-0.335000,2.675000,-0.935000,1.875000,-0.935000,1.875000,-1.605000,2.675000,-1.605000,2.675000,-2.205000,-1.875000,-2.205000,-1.875000,2.205000,2.675000,2.205000,2.675000,1.605000,2.675000,1.605000,$1*%
G04 Aperture macros list end*
%ADD10C,0.150000*%
%ADD11C,0.120000*%
%ADD12RoundRect,0.200000X-0.200000X-0.275000X0.200000X-0.275000X0.200000X0.275000X-0.200000X0.275000X0*%
%ADD13FreePoly0,0.000000*%
%ADD14RoundRect,0.150000X-0.512500X-0.150000X0.512500X-0.150000X0.512500X0.150000X-0.512500X0.150000X0*%
%ADD15RoundRect,0.225000X0.225000X0.250000X-0.225000X0.250000X-0.225000X-0.250000X0.225000X-0.250000X0*%
%ADD16RoundRect,0.225000X-0.225000X-0.250000X0.225000X-0.250000X0.225000X0.250000X-0.225000X0.250000X0*%
%ADD17R,1.700000X0.900000*%
%ADD18RoundRect,0.291667X-0.608333X0.408333X-0.608333X-0.408333X0.608333X-0.408333X0.608333X0.408333X0*%
%ADD19O,1.800000X1.400000*%
%ADD20R,0.900000X1.200000*%
%ADD21RoundRect,0.200000X0.200000X0.275000X-0.200000X0.275000X-0.200000X-0.275000X0.200000X-0.275000X0*%
%ADD22R,1.000000X1.000000*%
%ADD23FreePoly1,90.000000*%
%ADD24R,0.500000X0.850000*%
%ADD25RoundRect,0.200000X-0.275000X0.200000X-0.275000X-0.200000X0.275000X-0.200000X0.275000X0.200000X0*%
%ADD26RoundRect,0.250000X-0.475000X0.250000X-0.475000X-0.250000X0.475000X-0.250000X0.475000X0.250000X0*%
%ADD27RoundRect,0.218750X0.218750X0.256250X-0.218750X0.256250X-0.218750X-0.256250X0.218750X-0.256250X0*%
%ADD28FreePoly1,0.000000*%
%ADD29R,0.850000X0.500000*%
%ADD30RoundRect,0.150000X-0.150000X0.512500X-0.150000X-0.512500X0.150000X-0.512500X0.150000X0.512500X0*%
%ADD31O,3.800000X3.000000*%
%ADD32R,3.800000X3.400000*%
%ADD33RoundRect,0.150000X-0.587500X-0.150000X0.587500X-0.150000X0.587500X0.150000X-0.587500X0.150000X0*%
G04 APERTURE END LIST*
D10*
X171044047Y10695238D02*
X170394047Y10695238D01*
X170394047Y10942857D01*
X170425000Y11004761D01*
X170455952Y11035714D01*
X170517857Y11066666D01*
X170610714Y11066666D01*
X170672619Y11035714D01*
X170703571Y11004761D01*
X170734523Y10942857D01*
X170734523Y10695238D01*
X171044047Y11345238D02*
X170394047Y11345238D01*
X170858333Y11561904D01*
X170394047Y11778571D01*
X171044047Y11778571D01*
X171044047Y12397619D02*
X171044047Y12088095D01*
X170394047Y12088095D01*
X167411904Y11455952D02*
X167411904Y12105952D01*
X167690476Y11486904D02*
X167783333Y11455952D01*
X167938095Y11455952D01*
X168000000Y11486904D01*
X168030952Y11517857D01*
X168061904Y11579761D01*
X168061904Y11641666D01*
X168030952Y11703571D01*
X168000000Y11734523D01*
X167938095Y11765476D01*
X167814285Y11796428D01*
X167752380Y11827380D01*
X167721428Y11858333D01*
X167690476Y11920238D01*
X167690476Y11982142D01*
X167721428Y12044047D01*
X167752380Y12075000D01*
X167814285Y12105952D01*
X167969047Y12105952D01*
X168061904Y12075000D01*
X168557142Y11796428D02*
X168340476Y11796428D01*
X168340476Y11455952D02*
X168340476Y12105952D01*
X168650000Y12105952D01*
X168617857Y13955952D02*
X168617857Y14605952D01*
X168865476Y14605952D01*
X168927380Y14575000D01*
X168958333Y14544047D01*
X168989285Y14482142D01*
X168989285Y14389285D01*
X168958333Y14327380D01*
X168927380Y14296428D01*
X168865476Y14265476D01*
X168617857Y14265476D01*
X169267857Y13955952D02*
X169267857Y14605952D01*
X169484523Y14141666D01*
X169701190Y14605952D01*
X169701190Y13955952D01*
X170010714Y13955952D02*
X170010714Y14605952D01*
X170010714Y14296428D02*
X170382142Y14296428D01*
X170382142Y13955952D02*
X170382142Y14605952D01*
X165741666Y13955952D02*
X165741666Y14605952D01*
X166113095Y13955952D01*
X166113095Y14605952D01*
X166329761Y14605952D02*
X166701190Y14605952D01*
X166515476Y13955952D02*
X166515476Y14605952D01*
X167289285Y14017857D02*
X167258333Y13986904D01*
X167165476Y13955952D01*
X167103571Y13955952D01*
X167010714Y13986904D01*
X166948809Y14048809D01*
X166917857Y14110714D01*
X166886904Y14234523D01*
X166886904Y14327380D01*
X166917857Y14451190D01*
X166948809Y14513095D01*
X167010714Y14575000D01*
X167103571Y14605952D01*
X167165476Y14605952D01*
X167258333Y14575000D01*
X167289285Y14544047D01*
X162708333Y13046428D02*
X162801190Y13015476D01*
X162832142Y12984523D01*
X162863095Y12922619D01*
X162863095Y12829761D01*
X162832142Y12767857D01*
X162801190Y12736904D01*
X162739285Y12705952D01*
X162491666Y12705952D01*
X162491666Y13355952D01*
X162708333Y13355952D01*
X162770238Y13325000D01*
X162801190Y13294047D01*
X162832142Y13232142D01*
X162832142Y13170238D01*
X162801190Y13108333D01*
X162770238Y13077380D01*
X162708333Y13046428D01*
X162491666Y13046428D01*
X163048809Y13355952D02*
X163265476Y12705952D01*
X163482142Y13355952D01*
X163667857Y12736904D02*
X163760714Y12705952D01*
X163915476Y12705952D01*
X163977380Y12736904D01*
X164008333Y12767857D01*
X164039285Y12829761D01*
X164039285Y12891666D01*
X164008333Y12953571D01*
X163977380Y12984523D01*
X163915476Y13015476D01*
X163791666Y13046428D01*
X163729761Y13077380D01*
X163698809Y13108333D01*
X163667857Y13170238D01*
X163667857Y13232142D01*
X163698809Y13294047D01*
X163729761Y13325000D01*
X163791666Y13355952D01*
X163946428Y13355952D01*
X164039285Y13325000D01*
X165865476Y17955952D02*
X165865476Y18605952D01*
X166144047Y17986904D02*
X166236904Y17955952D01*
X166391666Y17955952D01*
X166453571Y17986904D01*
X166484523Y18017857D01*
X166515476Y18079761D01*
X166515476Y18141666D01*
X166484523Y18203571D01*
X166453571Y18234523D01*
X166391666Y18265476D01*
X166267857Y18296428D01*
X166205952Y18327380D01*
X166175000Y18358333D01*
X166144047Y18420238D01*
X166144047Y18482142D01*
X166175000Y18544047D01*
X166205952Y18575000D01*
X166267857Y18605952D01*
X166422619Y18605952D01*
X166515476Y18575000D01*
X167165476Y17955952D02*
X166948809Y18265476D01*
X166794047Y17955952D02*
X166794047Y18605952D01*
X167041666Y18605952D01*
X167103571Y18575000D01*
X167134523Y18544047D01*
X167165476Y18482142D01*
X167165476Y18389285D01*
X167134523Y18327380D01*
X167103571Y18296428D01*
X167041666Y18265476D01*
X166794047Y18265476D01*
X169394047Y20205952D02*
X169177380Y20515476D01*
X169022619Y20205952D02*
X169022619Y20855952D01*
X169270238Y20855952D01*
X169332142Y20825000D01*
X169363095Y20794047D01*
X169394047Y20732142D01*
X169394047Y20639285D01*
X169363095Y20577380D01*
X169332142Y20546428D01*
X169270238Y20515476D01*
X169022619Y20515476D01*
X169641666Y20236904D02*
X169734523Y20205952D01*
X169889285Y20205952D01*
X169951190Y20236904D01*
X169982142Y20267857D01*
X170013095Y20329761D01*
X170013095Y20391666D01*
X169982142Y20453571D01*
X169951190Y20484523D01*
X169889285Y20515476D01*
X169765476Y20546428D01*
X169703571Y20577380D01*
X169672619Y20608333D01*
X169641666Y20670238D01*
X169641666Y20732142D01*
X169672619Y20794047D01*
X169703571Y20825000D01*
X169765476Y20855952D01*
X169920238Y20855952D01*
X170013095Y20825000D01*
X170198809Y20855952D02*
X170570238Y20855952D01*
X170384523Y20205952D02*
X170384523Y20855952D01*
X166236904Y19546428D02*
X166329761Y19515476D01*
X166360714Y19484523D01*
X166391666Y19422619D01*
X166391666Y19329761D01*
X166360714Y19267857D01*
X166329761Y19236904D01*
X166267857Y19205952D01*
X166020238Y19205952D01*
X166020238Y19855952D01*
X166236904Y19855952D01*
X166298809Y19825000D01*
X166329761Y19794047D01*
X166360714Y19732142D01*
X166360714Y19670238D01*
X166329761Y19608333D01*
X166298809Y19577380D01*
X166236904Y19546428D01*
X166020238Y19546428D01*
X166794047Y19855952D02*
X166855952Y19855952D01*
X166917857Y19825000D01*
X166948809Y19794047D01*
X166979761Y19732142D01*
X167010714Y19608333D01*
X167010714Y19453571D01*
X166979761Y19329761D01*
X166948809Y19267857D01*
X166917857Y19236904D01*
X166855952Y19205952D01*
X166794047Y19205952D01*
X166732142Y19236904D01*
X166701190Y19267857D01*
X166670238Y19329761D01*
X166639285Y19453571D01*
X166639285Y19608333D01*
X166670238Y19732142D01*
X166701190Y19794047D01*
X166732142Y19825000D01*
X166794047Y19855952D01*
X165513095Y21319047D02*
X165544047Y21411904D01*
X165544047Y21566666D01*
X165513095Y21628571D01*
X165482142Y21659523D01*
X165420238Y21690476D01*
X165358333Y21690476D01*
X165296428Y21659523D01*
X165265476Y21628571D01*
X165234523Y21566666D01*
X165203571Y21442857D01*
X165172619Y21380952D01*
X165141666Y21350000D01*
X165079761Y21319047D01*
X165017857Y21319047D01*
X164955952Y21350000D01*
X164925000Y21380952D01*
X164894047Y21442857D01*
X164894047Y21597619D01*
X164925000Y21690476D01*
X165544047Y21969047D02*
X164894047Y21969047D01*
X164894047Y22402380D02*
X164894047Y22526190D01*
X164925000Y22588095D01*
X164986904Y22650000D01*
X165110714Y22680952D01*
X165327380Y22680952D01*
X165451190Y22650000D01*
X165513095Y22588095D01*
X165544047Y22526190D01*
X165544047Y22402380D01*
X165513095Y22340476D01*
X165451190Y22278571D01*
X165327380Y22247619D01*
X165110714Y22247619D01*
X164986904Y22278571D01*
X164925000Y22340476D01*
X164894047Y22402380D01*
X163644047Y22664285D02*
X163644047Y23035714D01*
X164294047Y22850000D02*
X163644047Y22850000D01*
X164294047Y23623809D02*
X163984523Y23407142D01*
X164294047Y23252380D02*
X163644047Y23252380D01*
X163644047Y23500000D01*
X163675000Y23561904D01*
X163705952Y23592857D01*
X163767857Y23623809D01*
X163860714Y23623809D01*
X163922619Y23592857D01*
X163953571Y23561904D01*
X163984523Y23500000D01*
X163984523Y23252380D01*
X164232142Y24273809D02*
X164263095Y24242857D01*
X164294047Y24150000D01*
X164294047Y24088095D01*
X164263095Y23995238D01*
X164201190Y23933333D01*
X164139285Y23902380D01*
X164015476Y23871428D01*
X163922619Y23871428D01*
X163798809Y23902380D01*
X163736904Y23933333D01*
X163675000Y23995238D01*
X163644047Y24088095D01*
X163644047Y24150000D01*
X163675000Y24242857D01*
X163705952Y24273809D01*
X163263095Y22664285D02*
X163294047Y22757142D01*
X163294047Y22911904D01*
X163263095Y22973809D01*
X163232142Y23004761D01*
X163170238Y23035714D01*
X163108333Y23035714D01*
X163046428Y23004761D01*
X163015476Y22973809D01*
X162984523Y22911904D01*
X162953571Y22788095D01*
X162922619Y22726190D01*
X162891666Y22695238D01*
X162829761Y22664285D01*
X162767857Y22664285D01*
X162705952Y22695238D01*
X162675000Y22726190D01*
X162644047Y22788095D01*
X162644047Y22942857D01*
X162675000Y23035714D01*
X163232142Y23685714D02*
X163263095Y23654761D01*
X163294047Y23561904D01*
X163294047Y23500000D01*
X163263095Y23407142D01*
X163201190Y23345238D01*
X163139285Y23314285D01*
X163015476Y23283333D01*
X162922619Y23283333D01*
X162798809Y23314285D01*
X162736904Y23345238D01*
X162675000Y23407142D01*
X162644047Y23500000D01*
X162644047Y23561904D01*
X162675000Y23654761D01*
X162705952Y23685714D01*
X163294047Y23964285D02*
X162644047Y23964285D01*
X163294047Y24335714D02*
X162922619Y24057142D01*
X162644047Y24335714D02*
X163015476Y23964285D01*
D11*
X145750000Y10000000D02*
X145750000Y11000000D01*
X170500000Y19750000D02*
X170500000Y19500000D01*
X174250000Y17250000D02*
X174250000Y18500000D01*
X164500000Y24250000D02*
X166500000Y24250000D01*
X174000000Y22250000D02*
X174000000Y22750000D01*
X167250000Y23000000D02*
X168500000Y23000000D01*
X174250000Y18500000D02*
X174000000Y18500000D01*
X153750000Y10250000D02*
X153750000Y10750000D01*
X168500000Y23000000D02*
X168500000Y23250000D01*
X163000000Y25500000D02*
X164000000Y25500000D01*
X170000000Y26250000D02*
X168500000Y26250000D01*
X170500000Y19750000D02*
X169000000Y19750000D01*
X161250000Y17750000D02*
X161750000Y17750000D01*
X153500000Y10500000D02*
X154000000Y10500000D01*
X136199999Y14800001D02*
G75*
G03*
X136199999Y19199999I-2199999J2199999D01*
G01*
X181800001Y19199999D02*
G75*
G03*
X181800001Y14800001I2199999J-2199999D01*
G01*
X144477500Y11000000D02*
X144250000Y10750000D01*
X173250000Y22250000D02*
X174000000Y22250000D01*
X148000000Y17500000D02*
X148500000Y17500000D01*
X171250000Y23000000D02*
X171250000Y22750000D01*
X166500000Y24250000D02*
X166500000Y24550000D01*
X170000000Y26250000D02*
X170000000Y25500000D01*
X149000000Y16685000D02*
X149000000Y17000000D01*
X161500000Y18000000D02*
X161500000Y17500000D01*
X147250000Y10000000D02*
X147250000Y11000000D01*
X170750000Y23000000D02*
X171250000Y23000000D01*
D10*
X166500000Y20500000D02*
X166500000Y20000000D01*
D11*
X169000000Y19750000D02*
X169000000Y19510000D01*
D10*
X166500000Y20500000D02*
X167000000Y21000000D01*
D11*
X148000000Y16685000D02*
X149000000Y16685000D01*
X163000000Y26000000D02*
X163500000Y26000000D01*
X163250000Y26250000D02*
X163250000Y25750000D01*
X145750000Y11000000D02*
X145977500Y11000000D01*
X148250000Y17750000D02*
X148250000Y17250000D01*
X147250000Y11000000D02*
X147477500Y11000000D01*
X168500000Y26250000D02*
X168500000Y26022500D01*
X163000000Y24500000D02*
X163000000Y25500000D01*
D10*
X180361904Y9628571D02*
X179561904Y9628571D01*
X179561904Y9933333D01*
X179600000Y10009523D01*
X179638095Y10047619D01*
X179714285Y10085714D01*
X179828571Y10085714D01*
X179904761Y10047619D01*
X179942857Y10009523D01*
X179980952Y9933333D01*
X179980952Y9628571D01*
X180361904Y10885714D02*
X179980952Y10619047D01*
X180361904Y10428571D02*
X179561904Y10428571D01*
X179561904Y10733333D01*
X179600000Y10809523D01*
X179638095Y10847619D01*
X179714285Y10885714D01*
X179828571Y10885714D01*
X179904761Y10847619D01*
X179942857Y10809523D01*
X179980952Y10733333D01*
X179980952Y10428571D01*
X179942857Y11228571D02*
X179942857Y11495238D01*
X180361904Y11609523D02*
X180361904Y11228571D01*
X179561904Y11228571D01*
X179561904Y11609523D01*
X180285714Y12409523D02*
X180323809Y12371428D01*
X180361904Y12257142D01*
X180361904Y12180952D01*
X180323809Y12066666D01*
X180247619Y11990476D01*
X180171428Y11952380D01*
X180019047Y11914285D01*
X179904761Y11914285D01*
X179752380Y11952380D01*
X179676190Y11990476D01*
X179600000Y12066666D01*
X179561904Y12180952D01*
X179561904Y12257142D01*
X179600000Y12371428D01*
X179638095Y12409523D01*
X180285714Y22066666D02*
X180323809Y22028571D01*
X180361904Y21914285D01*
X180361904Y21838095D01*
X180323809Y21723809D01*
X180247619Y21647619D01*
X180171428Y21609523D01*
X180019047Y21571428D01*
X179904761Y21571428D01*
X179752380Y21609523D01*
X179676190Y21647619D01*
X179600000Y21723809D01*
X179561904Y21838095D01*
X179561904Y21914285D01*
X179600000Y22028571D01*
X179638095Y22066666D01*
X179561904Y22561904D02*
X179561904Y22714285D01*
X179600000Y22790476D01*
X179676190Y22866666D01*
X179828571Y22904761D01*
X180095238Y22904761D01*
X180247619Y22866666D01*
X180323809Y22790476D01*
X180361904Y22714285D01*
X180361904Y22561904D01*
X180323809Y22485714D01*
X180247619Y22409523D01*
X180095238Y22371428D01*
X179828571Y22371428D01*
X179676190Y22409523D01*
X179600000Y22485714D01*
X179561904Y22561904D01*
X180361904Y23247619D02*
X179561904Y23247619D01*
X180361904Y23704761D01*
X179561904Y23704761D01*
X179942857Y24352380D02*
X179942857Y24085714D01*
X180361904Y24085714D02*
X179561904Y24085714D01*
X179561904Y24466666D01*
%TO.C,R2*%
X172391666Y20705952D02*
X172175000Y21015476D01*
X172020238Y20705952D02*
X172020238Y21355952D01*
X172267857Y21355952D01*
X172329761Y21325000D01*
X172360714Y21294047D01*
X172391666Y21232142D01*
X172391666Y21139285D01*
X172360714Y21077380D01*
X172329761Y21046428D01*
X172267857Y21015476D01*
X172020238Y21015476D01*
X172639285Y21294047D02*
X172670238Y21325000D01*
X172732142Y21355952D01*
X172886904Y21355952D01*
X172948809Y21325000D01*
X172979761Y21294047D01*
X173010714Y21232142D01*
X173010714Y21170238D01*
X172979761Y21077380D01*
X172608333Y20705952D01*
X173010714Y20705952D01*
%TO.C,U3*%
X161644047Y19254761D02*
X162170238Y19254761D01*
X162232142Y19285714D01*
X162263095Y19316666D01*
X162294047Y19378571D01*
X162294047Y19502380D01*
X162263095Y19564285D01*
X162232142Y19595238D01*
X162170238Y19626190D01*
X161644047Y19626190D01*
X161644047Y19873809D02*
X161644047Y20276190D01*
X161891666Y20059523D01*
X161891666Y20152380D01*
X161922619Y20214285D01*
X161953571Y20245238D01*
X162015476Y20276190D01*
X162170238Y20276190D01*
X162232142Y20245238D01*
X162263095Y20214285D01*
X162294047Y20152380D01*
X162294047Y19966666D01*
X162263095Y19904761D01*
X162232142Y19873809D01*
%TO.C,C6*%
X161391666Y9767857D02*
X161360714Y9736904D01*
X161267857Y9705952D01*
X161205952Y9705952D01*
X161113095Y9736904D01*
X161051190Y9798809D01*
X161020238Y9860714D01*
X160989285Y9984523D01*
X160989285Y10077380D01*
X161020238Y10201190D01*
X161051190Y10263095D01*
X161113095Y10325000D01*
X161205952Y10355952D01*
X161267857Y10355952D01*
X161360714Y10325000D01*
X161391666Y10294047D01*
X161948809Y10355952D02*
X161825000Y10355952D01*
X161763095Y10325000D01*
X161732142Y10294047D01*
X161670238Y10201190D01*
X161639285Y10077380D01*
X161639285Y9829761D01*
X161670238Y9767857D01*
X161701190Y9736904D01*
X161763095Y9705952D01*
X161886904Y9705952D01*
X161948809Y9736904D01*
X161979761Y9767857D01*
X162010714Y9829761D01*
X162010714Y9984523D01*
X161979761Y10046428D01*
X161948809Y10077380D01*
X161886904Y10108333D01*
X161763095Y10108333D01*
X161701190Y10077380D01*
X161670238Y10046428D01*
X161639285Y9984523D01*
%TO.C,C8*%
X157982142Y22891666D02*
X158013095Y22860714D01*
X158044047Y22767857D01*
X158044047Y22705952D01*
X158013095Y22613095D01*
X157951190Y22551190D01*
X157889285Y22520238D01*
X157765476Y22489285D01*
X157672619Y22489285D01*
X157548809Y22520238D01*
X157486904Y22551190D01*
X157425000Y22613095D01*
X157394047Y22705952D01*
X157394047Y22767857D01*
X157425000Y22860714D01*
X157455952Y22891666D01*
X157672619Y23263095D02*
X157641666Y23201190D01*
X157610714Y23170238D01*
X157548809Y23139285D01*
X157517857Y23139285D01*
X157455952Y23170238D01*
X157425000Y23201190D01*
X157394047Y23263095D01*
X157394047Y23386904D01*
X157425000Y23448809D01*
X157455952Y23479761D01*
X157517857Y23510714D01*
X157548809Y23510714D01*
X157610714Y23479761D01*
X157641666Y23448809D01*
X157672619Y23386904D01*
X157672619Y23263095D01*
X157703571Y23201190D01*
X157734523Y23170238D01*
X157796428Y23139285D01*
X157920238Y23139285D01*
X157982142Y23170238D01*
X158013095Y23201190D01*
X158044047Y23263095D01*
X158044047Y23386904D01*
X158013095Y23448809D01*
X157982142Y23479761D01*
X157920238Y23510714D01*
X157796428Y23510714D01*
X157734523Y23479761D01*
X157703571Y23448809D01*
X157672619Y23386904D01*
%TO.C,SW1*%
X181133333Y10736904D02*
X181226190Y10705952D01*
X181380952Y10705952D01*
X181442857Y10736904D01*
X181473809Y10767857D01*
X181504761Y10829761D01*
X181504761Y10891666D01*
X181473809Y10953571D01*
X181442857Y10984523D01*
X181380952Y11015476D01*
X181257142Y11046428D01*
X181195238Y11077380D01*
X181164285Y11108333D01*
X181133333Y11170238D01*
X181133333Y11232142D01*
X181164285Y11294047D01*
X181195238Y11325000D01*
X181257142Y11355952D01*
X181411904Y11355952D01*
X181504761Y11325000D01*
X181721428Y11355952D02*
X181876190Y10705952D01*
X182000000Y11170238D01*
X182123809Y10705952D01*
X182278571Y11355952D01*
X182866666Y10705952D02*
X182495238Y10705952D01*
X182680952Y10705952D02*
X182680952Y11355952D01*
X182619047Y11263095D01*
X182557142Y11201190D01*
X182495238Y11170238D01*
%TO.C,J5*%
X179644047Y16783333D02*
X180108333Y16783333D01*
X180201190Y16752380D01*
X180263095Y16690476D01*
X180294047Y16597619D01*
X180294047Y16535714D01*
X179644047Y17402380D02*
X179644047Y17092857D01*
X179953571Y17061904D01*
X179922619Y17092857D01*
X179891666Y17154761D01*
X179891666Y17309523D01*
X179922619Y17371428D01*
X179953571Y17402380D01*
X180015476Y17433333D01*
X180170238Y17433333D01*
X180232142Y17402380D01*
X180263095Y17371428D01*
X180294047Y17309523D01*
X180294047Y17154761D01*
X180263095Y17092857D01*
X180232142Y17061904D01*
%TO.C,D1*%
X157270238Y23955952D02*
X157270238Y24605952D01*
X157425000Y24605952D01*
X157517857Y24575000D01*
X157579761Y24513095D01*
X157610714Y24451190D01*
X157641666Y24327380D01*
X157641666Y24234523D01*
X157610714Y24110714D01*
X157579761Y24048809D01*
X157517857Y23986904D01*
X157425000Y23955952D01*
X157270238Y23955952D01*
X158260714Y23955952D02*
X157889285Y23955952D01*
X158075000Y23955952D02*
X158075000Y24605952D01*
X158013095Y24513095D01*
X157951190Y24451190D01*
X157889285Y24420238D01*
%TO.C,SW2*%
X181133333Y22736904D02*
X181226190Y22705952D01*
X181380952Y22705952D01*
X181442857Y22736904D01*
X181473809Y22767857D01*
X181504761Y22829761D01*
X181504761Y22891666D01*
X181473809Y22953571D01*
X181442857Y22984523D01*
X181380952Y23015476D01*
X181257142Y23046428D01*
X181195238Y23077380D01*
X181164285Y23108333D01*
X181133333Y23170238D01*
X181133333Y23232142D01*
X181164285Y23294047D01*
X181195238Y23325000D01*
X181257142Y23355952D01*
X181411904Y23355952D01*
X181504761Y23325000D01*
X181721428Y23355952D02*
X181876190Y22705952D01*
X182000000Y23170238D01*
X182123809Y22705952D01*
X182278571Y23355952D01*
X182495238Y23294047D02*
X182526190Y23325000D01*
X182588095Y23355952D01*
X182742857Y23355952D01*
X182804761Y23325000D01*
X182835714Y23294047D01*
X182866666Y23232142D01*
X182866666Y23170238D01*
X182835714Y23077380D01*
X182464285Y22705952D01*
X182866666Y22705952D01*
%TO.C,R20*%
X170832142Y16705952D02*
X170615476Y17015476D01*
X170460714Y16705952D02*
X170460714Y17355952D01*
X170708333Y17355952D01*
X170770238Y17325000D01*
X170801190Y17294047D01*
X170832142Y17232142D01*
X170832142Y17139285D01*
X170801190Y17077380D01*
X170770238Y17046428D01*
X170708333Y17015476D01*
X170460714Y17015476D01*
X171079761Y17294047D02*
X171110714Y17325000D01*
X171172619Y17355952D01*
X171327380Y17355952D01*
X171389285Y17325000D01*
X171420238Y17294047D01*
X171451190Y17232142D01*
X171451190Y17170238D01*
X171420238Y17077380D01*
X171048809Y16705952D01*
X171451190Y16705952D01*
X171853571Y17355952D02*
X171915476Y17355952D01*
X171977380Y17325000D01*
X172008333Y17294047D01*
X172039285Y17232142D01*
X172070238Y17108333D01*
X172070238Y16953571D01*
X172039285Y16829761D01*
X172008333Y16767857D01*
X171977380Y16736904D01*
X171915476Y16705952D01*
X171853571Y16705952D01*
X171791666Y16736904D01*
X171760714Y16767857D01*
X171729761Y16829761D01*
X171698809Y16953571D01*
X171698809Y17108333D01*
X171729761Y17232142D01*
X171760714Y17294047D01*
X171791666Y17325000D01*
X171853571Y17355952D01*
%TO.C,R13*%
X163332142Y20955952D02*
X163115476Y21265476D01*
X162960714Y20955952D02*
X162960714Y21605952D01*
X163208333Y21605952D01*
X163270238Y21575000D01*
X163301190Y21544047D01*
X163332142Y21482142D01*
X163332142Y21389285D01*
X163301190Y21327380D01*
X163270238Y21296428D01*
X163208333Y21265476D01*
X162960714Y21265476D01*
X163951190Y20955952D02*
X163579761Y20955952D01*
X163765476Y20955952D02*
X163765476Y21605952D01*
X163703571Y21513095D01*
X163641666Y21451190D01*
X163579761Y21420238D01*
X164167857Y21605952D02*
X164570238Y21605952D01*
X164353571Y21358333D01*
X164446428Y21358333D01*
X164508333Y21327380D01*
X164539285Y21296428D01*
X164570238Y21234523D01*
X164570238Y21079761D01*
X164539285Y21017857D01*
X164508333Y20986904D01*
X164446428Y20955952D01*
X164260714Y20955952D01*
X164198809Y20986904D01*
X164167857Y21017857D01*
%TO.C,C1*%
X170982142Y18891666D02*
X171013095Y18860714D01*
X171044047Y18767857D01*
X171044047Y18705952D01*
X171013095Y18613095D01*
X170951190Y18551190D01*
X170889285Y18520238D01*
X170765476Y18489285D01*
X170672619Y18489285D01*
X170548809Y18520238D01*
X170486904Y18551190D01*
X170425000Y18613095D01*
X170394047Y18705952D01*
X170394047Y18767857D01*
X170425000Y18860714D01*
X170455952Y18891666D01*
X171044047Y19510714D02*
X171044047Y19139285D01*
X171044047Y19325000D02*
X170394047Y19325000D01*
X170486904Y19263095D01*
X170548809Y19201190D01*
X170579761Y19139285D01*
%TO.C,R5*%
X157794047Y16391666D02*
X157484523Y16175000D01*
X157794047Y16020238D02*
X157144047Y16020238D01*
X157144047Y16267857D01*
X157175000Y16329761D01*
X157205952Y16360714D01*
X157267857Y16391666D01*
X157360714Y16391666D01*
X157422619Y16360714D01*
X157453571Y16329761D01*
X157484523Y16267857D01*
X157484523Y16020238D01*
X157144047Y16979761D02*
X157144047Y16670238D01*
X157453571Y16639285D01*
X157422619Y16670238D01*
X157391666Y16732142D01*
X157391666Y16886904D01*
X157422619Y16948809D01*
X157453571Y16979761D01*
X157515476Y17010714D01*
X157670238Y17010714D01*
X157732142Y16979761D01*
X157763095Y16948809D01*
X157794047Y16886904D01*
X157794047Y16732142D01*
X157763095Y16670238D01*
X157732142Y16639285D01*
%TO.C,C12*%
X172832142Y17017857D02*
X172801190Y16986904D01*
X172708333Y16955952D01*
X172646428Y16955952D01*
X172553571Y16986904D01*
X172491666Y17048809D01*
X172460714Y17110714D01*
X172429761Y17234523D01*
X172429761Y17327380D01*
X172460714Y17451190D01*
X172491666Y17513095D01*
X172553571Y17575000D01*
X172646428Y17605952D01*
X172708333Y17605952D01*
X172801190Y17575000D01*
X172832142Y17544047D01*
X173451190Y16955952D02*
X173079761Y16955952D01*
X173265476Y16955952D02*
X173265476Y17605952D01*
X173203571Y17513095D01*
X173141666Y17451190D01*
X173079761Y17420238D01*
X173698809Y17544047D02*
X173729761Y17575000D01*
X173791666Y17605952D01*
X173946428Y17605952D01*
X174008333Y17575000D01*
X174039285Y17544047D01*
X174070238Y17482142D01*
X174070238Y17420238D01*
X174039285Y17327380D01*
X173667857Y16955952D01*
X174070238Y16955952D01*
%TO.C,R12*%
X170544047Y24082142D02*
X170234523Y23865476D01*
X170544047Y23710714D02*
X169894047Y23710714D01*
X169894047Y23958333D01*
X169925000Y24020238D01*
X169955952Y24051190D01*
X170017857Y24082142D01*
X170110714Y24082142D01*
X170172619Y24051190D01*
X170203571Y24020238D01*
X170234523Y23958333D01*
X170234523Y23710714D01*
X170544047Y24701190D02*
X170544047Y24329761D01*
X170544047Y24515476D02*
X169894047Y24515476D01*
X169986904Y24453571D01*
X170048809Y24391666D01*
X170079761Y24329761D01*
X169955952Y24948809D02*
X169925000Y24979761D01*
X169894047Y25041666D01*
X169894047Y25196428D01*
X169925000Y25258333D01*
X169955952Y25289285D01*
X170017857Y25320238D01*
X170079761Y25320238D01*
X170172619Y25289285D01*
X170544047Y24917857D01*
X170544047Y25320238D01*
%TO.C,R10*%
X165832142Y23205952D02*
X165615476Y23515476D01*
X165460714Y23205952D02*
X165460714Y23855952D01*
X165708333Y23855952D01*
X165770238Y23825000D01*
X165801190Y23794047D01*
X165832142Y23732142D01*
X165832142Y23639285D01*
X165801190Y23577380D01*
X165770238Y23546428D01*
X165708333Y23515476D01*
X165460714Y23515476D01*
X166451190Y23205952D02*
X166079761Y23205952D01*
X166265476Y23205952D02*
X166265476Y23855952D01*
X166203571Y23763095D01*
X166141666Y23701190D01*
X166079761Y23670238D01*
X166853571Y23855952D02*
X166915476Y23855952D01*
X166977380Y23825000D01*
X167008333Y23794047D01*
X167039285Y23732142D01*
X167070238Y23608333D01*
X167070238Y23453571D01*
X167039285Y23329761D01*
X167008333Y23267857D01*
X166977380Y23236904D01*
X166915476Y23205952D01*
X166853571Y23205952D01*
X166791666Y23236904D01*
X166760714Y23267857D01*
X166729761Y23329761D01*
X166698809Y23453571D01*
X166698809Y23608333D01*
X166729761Y23732142D01*
X166760714Y23794047D01*
X166791666Y23825000D01*
X166853571Y23855952D01*
%TO.C,Q3*%
X138105952Y16438095D02*
X138075000Y16376190D01*
X138013095Y16314285D01*
X137920238Y16221428D01*
X137889285Y16159523D01*
X137889285Y16097619D01*
X138044047Y16128571D02*
X138013095Y16066666D01*
X137951190Y16004761D01*
X137827380Y15973809D01*
X137610714Y15973809D01*
X137486904Y16004761D01*
X137425000Y16066666D01*
X137394047Y16128571D01*
X137394047Y16252380D01*
X137425000Y16314285D01*
X137486904Y16376190D01*
X137610714Y16407142D01*
X137827380Y16407142D01*
X137951190Y16376190D01*
X138013095Y16314285D01*
X138044047Y16252380D01*
X138044047Y16128571D01*
X137394047Y16623809D02*
X137394047Y17026190D01*
X137641666Y16809523D01*
X137641666Y16902380D01*
X137672619Y16964285D01*
X137703571Y16995238D01*
X137765476Y17026190D01*
X137920238Y17026190D01*
X137982142Y16995238D01*
X138013095Y16964285D01*
X138044047Y16902380D01*
X138044047Y16716666D01*
X138013095Y16654761D01*
X137982142Y16623809D01*
%TO.C,R15*%
X144044047Y9332142D02*
X143734523Y9115476D01*
X144044047Y8960714D02*
X143394047Y8960714D01*
X143394047Y9208333D01*
X143425000Y9270238D01*
X143455952Y9301190D01*
X143517857Y9332142D01*
X143610714Y9332142D01*
X143672619Y9301190D01*
X143703571Y9270238D01*
X143734523Y9208333D01*
X143734523Y8960714D01*
X144044047Y9951190D02*
X144044047Y9579761D01*
X144044047Y9765476D02*
X143394047Y9765476D01*
X143486904Y9703571D01*
X143548809Y9641666D01*
X143579761Y9579761D01*
X143394047Y10539285D02*
X143394047Y10229761D01*
X143703571Y10198809D01*
X143672619Y10229761D01*
X143641666Y10291666D01*
X143641666Y10446428D01*
X143672619Y10508333D01*
X143703571Y10539285D01*
X143765476Y10570238D01*
X143920238Y10570238D01*
X143982142Y10539285D01*
X144013095Y10508333D01*
X144044047Y10446428D01*
X144044047Y10291666D01*
X144013095Y10229761D01*
X143982142Y10198809D01*
%TO.C,C15*%
X154082142Y9017857D02*
X154051190Y8986904D01*
X153958333Y8955952D01*
X153896428Y8955952D01*
X153803571Y8986904D01*
X153741666Y9048809D01*
X153710714Y9110714D01*
X153679761Y9234523D01*
X153679761Y9327380D01*
X153710714Y9451190D01*
X153741666Y9513095D01*
X153803571Y9575000D01*
X153896428Y9605952D01*
X153958333Y9605952D01*
X154051190Y9575000D01*
X154082142Y9544047D01*
X154701190Y8955952D02*
X154329761Y8955952D01*
X154515476Y8955952D02*
X154515476Y9605952D01*
X154453571Y9513095D01*
X154391666Y9451190D01*
X154329761Y9420238D01*
X155289285Y9605952D02*
X154979761Y9605952D01*
X154948809Y9296428D01*
X154979761Y9327380D01*
X155041666Y9358333D01*
X155196428Y9358333D01*
X155258333Y9327380D01*
X155289285Y9296428D01*
X155320238Y9234523D01*
X155320238Y9079761D01*
X155289285Y9017857D01*
X155258333Y8986904D01*
X155196428Y8955952D01*
X155041666Y8955952D01*
X154979761Y8986904D01*
X154948809Y9017857D01*
%TO.C,C20*%
X170832142Y15267857D02*
X170801190Y15236904D01*
X170708333Y15205952D01*
X170646428Y15205952D01*
X170553571Y15236904D01*
X170491666Y15298809D01*
X170460714Y15360714D01*
X170429761Y15484523D01*
X170429761Y15577380D01*
X170460714Y15701190D01*
X170491666Y15763095D01*
X170553571Y15825000D01*
X170646428Y15855952D01*
X170708333Y15855952D01*
X170801190Y15825000D01*
X170832142Y15794047D01*
X171079761Y15794047D02*
X171110714Y15825000D01*
X171172619Y15855952D01*
X171327380Y15855952D01*
X171389285Y15825000D01*
X171420238Y15794047D01*
X171451190Y15732142D01*
X171451190Y15670238D01*
X171420238Y15577380D01*
X171048809Y15205952D01*
X171451190Y15205952D01*
X171853571Y15855952D02*
X171915476Y15855952D01*
X171977380Y15825000D01*
X172008333Y15794047D01*
X172039285Y15732142D01*
X172070238Y15608333D01*
X172070238Y15453571D01*
X172039285Y15329761D01*
X172008333Y15267857D01*
X171977380Y15236904D01*
X171915476Y15205952D01*
X171853571Y15205952D01*
X171791666Y15236904D01*
X171760714Y15267857D01*
X171729761Y15329761D01*
X171698809Y15453571D01*
X171698809Y15608333D01*
X171729761Y15732142D01*
X171760714Y15794047D01*
X171791666Y15825000D01*
X171853571Y15855952D01*
%TO.C,R11*%
X163582142Y13955952D02*
X163365476Y14265476D01*
X163210714Y13955952D02*
X163210714Y14605952D01*
X163458333Y14605952D01*
X163520238Y14575000D01*
X163551190Y14544047D01*
X163582142Y14482142D01*
X163582142Y14389285D01*
X163551190Y14327380D01*
X163520238Y14296428D01*
X163458333Y14265476D01*
X163210714Y14265476D01*
X164201190Y13955952D02*
X163829761Y13955952D01*
X164015476Y13955952D02*
X164015476Y14605952D01*
X163953571Y14513095D01*
X163891666Y14451190D01*
X163829761Y14420238D01*
X164820238Y13955952D02*
X164448809Y13955952D01*
X164634523Y13955952D02*
X164634523Y14605952D01*
X164572619Y14513095D01*
X164510714Y14451190D01*
X164448809Y14420238D01*
%TO.C,R21*%
X167082142Y8455952D02*
X166865476Y8765476D01*
X166710714Y8455952D02*
X166710714Y9105952D01*
X166958333Y9105952D01*
X167020238Y9075000D01*
X167051190Y9044047D01*
X167082142Y8982142D01*
X167082142Y8889285D01*
X167051190Y8827380D01*
X167020238Y8796428D01*
X166958333Y8765476D01*
X166710714Y8765476D01*
X167329761Y9044047D02*
X167360714Y9075000D01*
X167422619Y9105952D01*
X167577380Y9105952D01*
X167639285Y9075000D01*
X167670238Y9044047D01*
X167701190Y8982142D01*
X167701190Y8920238D01*
X167670238Y8827380D01*
X167298809Y8455952D01*
X167701190Y8455952D01*
X168320238Y8455952D02*
X167948809Y8455952D01*
X168134523Y8455952D02*
X168134523Y9105952D01*
X168072619Y9013095D01*
X168010714Y8951190D01*
X167948809Y8920238D01*
%TO.C,D2*%
X162544047Y16520238D02*
X161894047Y16520238D01*
X161894047Y16675000D01*
X161925000Y16767857D01*
X161986904Y16829761D01*
X162048809Y16860714D01*
X162172619Y16891666D01*
X162265476Y16891666D01*
X162389285Y16860714D01*
X162451190Y16829761D01*
X162513095Y16767857D01*
X162544047Y16675000D01*
X162544047Y16520238D01*
X161955952Y17139285D02*
X161925000Y17170238D01*
X161894047Y17232142D01*
X161894047Y17386904D01*
X161925000Y17448809D01*
X161955952Y17479761D01*
X162017857Y17510714D01*
X162079761Y17510714D01*
X162172619Y17479761D01*
X162544047Y17108333D01*
X162544047Y17510714D01*
%TO.C,Q2*%
X157355952Y13938095D02*
X157325000Y13876190D01*
X157263095Y13814285D01*
X157170238Y13721428D01*
X157139285Y13659523D01*
X157139285Y13597619D01*
X157294047Y13628571D02*
X157263095Y13566666D01*
X157201190Y13504761D01*
X157077380Y13473809D01*
X156860714Y13473809D01*
X156736904Y13504761D01*
X156675000Y13566666D01*
X156644047Y13628571D01*
X156644047Y13752380D01*
X156675000Y13814285D01*
X156736904Y13876190D01*
X156860714Y13907142D01*
X157077380Y13907142D01*
X157201190Y13876190D01*
X157263095Y13814285D01*
X157294047Y13752380D01*
X157294047Y13628571D01*
X156705952Y14154761D02*
X156675000Y14185714D01*
X156644047Y14247619D01*
X156644047Y14402380D01*
X156675000Y14464285D01*
X156705952Y14495238D01*
X156767857Y14526190D01*
X156829761Y14526190D01*
X156922619Y14495238D01*
X157294047Y14123809D01*
X157294047Y14526190D01*
%TO.C,C19*%
X161582142Y11267857D02*
X161551190Y11236904D01*
X161458333Y11205952D01*
X161396428Y11205952D01*
X161303571Y11236904D01*
X161241666Y11298809D01*
X161210714Y11360714D01*
X161179761Y11484523D01*
X161179761Y11577380D01*
X161210714Y11701190D01*
X161241666Y11763095D01*
X161303571Y11825000D01*
X161396428Y11855952D01*
X161458333Y11855952D01*
X161551190Y11825000D01*
X161582142Y11794047D01*
X162201190Y11205952D02*
X161829761Y11205952D01*
X162015476Y11205952D02*
X162015476Y11855952D01*
X161953571Y11763095D01*
X161891666Y11701190D01*
X161829761Y11670238D01*
X162510714Y11205952D02*
X162634523Y11205952D01*
X162696428Y11236904D01*
X162727380Y11267857D01*
X162789285Y11360714D01*
X162820238Y11484523D01*
X162820238Y11732142D01*
X162789285Y11794047D01*
X162758333Y11825000D01*
X162696428Y11855952D01*
X162572619Y11855952D01*
X162510714Y11825000D01*
X162479761Y11794047D01*
X162448809Y11732142D01*
X162448809Y11577380D01*
X162479761Y11515476D01*
X162510714Y11484523D01*
X162572619Y11453571D01*
X162696428Y11453571D01*
X162758333Y11484523D01*
X162789285Y11515476D01*
X162820238Y11577380D01*
%TO.C,R18*%
X147582142Y8955952D02*
X147365476Y9265476D01*
X147210714Y8955952D02*
X147210714Y9605952D01*
X147458333Y9605952D01*
X147520238Y9575000D01*
X147551190Y9544047D01*
X147582142Y9482142D01*
X147582142Y9389285D01*
X147551190Y9327380D01*
X147520238Y9296428D01*
X147458333Y9265476D01*
X147210714Y9265476D01*
X148201190Y8955952D02*
X147829761Y8955952D01*
X148015476Y8955952D02*
X148015476Y9605952D01*
X147953571Y9513095D01*
X147891666Y9451190D01*
X147829761Y9420238D01*
X148572619Y9327380D02*
X148510714Y9358333D01*
X148479761Y9389285D01*
X148448809Y9451190D01*
X148448809Y9482142D01*
X148479761Y9544047D01*
X148510714Y9575000D01*
X148572619Y9605952D01*
X148696428Y9605952D01*
X148758333Y9575000D01*
X148789285Y9544047D01*
X148820238Y9482142D01*
X148820238Y9451190D01*
X148789285Y9389285D01*
X148758333Y9358333D01*
X148696428Y9327380D01*
X148572619Y9327380D01*
X148510714Y9296428D01*
X148479761Y9265476D01*
X148448809Y9203571D01*
X148448809Y9079761D01*
X148479761Y9017857D01*
X148510714Y8986904D01*
X148572619Y8955952D01*
X148696428Y8955952D01*
X148758333Y8986904D01*
X148789285Y9017857D01*
X148820238Y9079761D01*
X148820238Y9203571D01*
X148789285Y9265476D01*
X148758333Y9296428D01*
X148696428Y9327380D01*
%TO.C,R1*%
X164391666Y8455952D02*
X164175000Y8765476D01*
X164020238Y8455952D02*
X164020238Y9105952D01*
X164267857Y9105952D01*
X164329761Y9075000D01*
X164360714Y9044047D01*
X164391666Y8982142D01*
X164391666Y8889285D01*
X164360714Y8827380D01*
X164329761Y8796428D01*
X164267857Y8765476D01*
X164020238Y8765476D01*
X165010714Y8455952D02*
X164639285Y8455952D01*
X164825000Y8455952D02*
X164825000Y9105952D01*
X164763095Y9013095D01*
X164701190Y8951190D01*
X164639285Y8920238D01*
%TO.C,R8*%
X169891666Y22705952D02*
X169675000Y23015476D01*
X169520238Y22705952D02*
X169520238Y23355952D01*
X169767857Y23355952D01*
X169829761Y23325000D01*
X169860714Y23294047D01*
X169891666Y23232142D01*
X169891666Y23139285D01*
X169860714Y23077380D01*
X169829761Y23046428D01*
X169767857Y23015476D01*
X169520238Y23015476D01*
X170263095Y23077380D02*
X170201190Y23108333D01*
X170170238Y23139285D01*
X170139285Y23201190D01*
X170139285Y23232142D01*
X170170238Y23294047D01*
X170201190Y23325000D01*
X170263095Y23355952D01*
X170386904Y23355952D01*
X170448809Y23325000D01*
X170479761Y23294047D01*
X170510714Y23232142D01*
X170510714Y23201190D01*
X170479761Y23139285D01*
X170448809Y23108333D01*
X170386904Y23077380D01*
X170263095Y23077380D01*
X170201190Y23046428D01*
X170170238Y23015476D01*
X170139285Y22953571D01*
X170139285Y22829761D01*
X170170238Y22767857D01*
X170201190Y22736904D01*
X170263095Y22705952D01*
X170386904Y22705952D01*
X170448809Y22736904D01*
X170479761Y22767857D01*
X170510714Y22829761D01*
X170510714Y22953571D01*
X170479761Y23015476D01*
X170448809Y23046428D01*
X170386904Y23077380D01*
%TO.C,U2*%
X161294047Y12504761D02*
X161820238Y12504761D01*
X161882142Y12535714D01*
X161913095Y12566666D01*
X161944047Y12628571D01*
X161944047Y12752380D01*
X161913095Y12814285D01*
X161882142Y12845238D01*
X161820238Y12876190D01*
X161294047Y12876190D01*
X161355952Y13154761D02*
X161325000Y13185714D01*
X161294047Y13247619D01*
X161294047Y13402380D01*
X161325000Y13464285D01*
X161355952Y13495238D01*
X161417857Y13526190D01*
X161479761Y13526190D01*
X161572619Y13495238D01*
X161944047Y13123809D01*
X161944047Y13526190D01*
%TO.C,D5*%
X150770238Y9205952D02*
X150770238Y9855952D01*
X150925000Y9855952D01*
X151017857Y9825000D01*
X151079761Y9763095D01*
X151110714Y9701190D01*
X151141666Y9577380D01*
X151141666Y9484523D01*
X151110714Y9360714D01*
X151079761Y9298809D01*
X151017857Y9236904D01*
X150925000Y9205952D01*
X150770238Y9205952D01*
X151729761Y9855952D02*
X151420238Y9855952D01*
X151389285Y9546428D01*
X151420238Y9577380D01*
X151482142Y9608333D01*
X151636904Y9608333D01*
X151698809Y9577380D01*
X151729761Y9546428D01*
X151760714Y9484523D01*
X151760714Y9329761D01*
X151729761Y9267857D01*
X151698809Y9236904D01*
X151636904Y9205952D01*
X151482142Y9205952D01*
X151420238Y9236904D01*
X151389285Y9267857D01*
%TO.C,F1*%
X136453571Y20283333D02*
X136453571Y20066666D01*
X136794047Y20066666D02*
X136144047Y20066666D01*
X136144047Y20376190D01*
X136794047Y20964285D02*
X136794047Y20592857D01*
X136794047Y20778571D02*
X136144047Y20778571D01*
X136236904Y20716666D01*
X136298809Y20654761D01*
X136329761Y20592857D01*
%TO.C,Q1*%
X172438095Y21894047D02*
X172376190Y21925000D01*
X172314285Y21986904D01*
X172221428Y22079761D01*
X172159523Y22110714D01*
X172097619Y22110714D01*
X172128571Y21955952D02*
X172066666Y21986904D01*
X172004761Y22048809D01*
X171973809Y22172619D01*
X171973809Y22389285D01*
X172004761Y22513095D01*
X172066666Y22575000D01*
X172128571Y22605952D01*
X172252380Y22605952D01*
X172314285Y22575000D01*
X172376190Y22513095D01*
X172407142Y22389285D01*
X172407142Y22172619D01*
X172376190Y22048809D01*
X172314285Y21986904D01*
X172252380Y21955952D01*
X172128571Y21955952D01*
X173026190Y21955952D02*
X172654761Y21955952D01*
X172840476Y21955952D02*
X172840476Y22605952D01*
X172778571Y22513095D01*
X172716666Y22451190D01*
X172654761Y22420238D01*
%TO.C,D4*%
X146770238Y16455952D02*
X146770238Y17105952D01*
X146925000Y17105952D01*
X147017857Y17075000D01*
X147079761Y17013095D01*
X147110714Y16951190D01*
X147141666Y16827380D01*
X147141666Y16734523D01*
X147110714Y16610714D01*
X147079761Y16548809D01*
X147017857Y16486904D01*
X146925000Y16455952D01*
X146770238Y16455952D01*
X147698809Y16889285D02*
X147698809Y16455952D01*
X147544047Y17136904D02*
X147389285Y16672619D01*
X147791666Y16672619D01*
%TO.C,D3*%
X162544047Y18020238D02*
X161894047Y18020238D01*
X161894047Y18175000D01*
X161925000Y18267857D01*
X161986904Y18329761D01*
X162048809Y18360714D01*
X162172619Y18391666D01*
X162265476Y18391666D01*
X162389285Y18360714D01*
X162451190Y18329761D01*
X162513095Y18267857D01*
X162544047Y18175000D01*
X162544047Y18020238D01*
X161894047Y18608333D02*
X161894047Y19010714D01*
X162141666Y18794047D01*
X162141666Y18886904D01*
X162172619Y18948809D01*
X162203571Y18979761D01*
X162265476Y19010714D01*
X162420238Y19010714D01*
X162482142Y18979761D01*
X162513095Y18948809D01*
X162544047Y18886904D01*
X162544047Y18701190D01*
X162513095Y18639285D01*
X162482142Y18608333D01*
%TO.C,R14*%
X145332142Y8955952D02*
X145115476Y9265476D01*
X144960714Y8955952D02*
X144960714Y9605952D01*
X145208333Y9605952D01*
X145270238Y9575000D01*
X145301190Y9544047D01*
X145332142Y9482142D01*
X145332142Y9389285D01*
X145301190Y9327380D01*
X145270238Y9296428D01*
X145208333Y9265476D01*
X144960714Y9265476D01*
X145951190Y8955952D02*
X145579761Y8955952D01*
X145765476Y8955952D02*
X145765476Y9605952D01*
X145703571Y9513095D01*
X145641666Y9451190D01*
X145579761Y9420238D01*
X146508333Y9389285D02*
X146508333Y8955952D01*
X146353571Y9636904D02*
X146198809Y9172619D01*
X146601190Y9172619D01*
%TO.C,R16*%
X143832142Y17705952D02*
X143615476Y18015476D01*
X143460714Y17705952D02*
X143460714Y18355952D01*
X143708333Y18355952D01*
X143770238Y18325000D01*
X143801190Y18294047D01*
X143832142Y18232142D01*
X143832142Y18139285D01*
X143801190Y18077380D01*
X143770238Y18046428D01*
X143708333Y18015476D01*
X143460714Y18015476D01*
X144451190Y17705952D02*
X144079761Y17705952D01*
X144265476Y17705952D02*
X144265476Y18355952D01*
X144203571Y18263095D01*
X144141666Y18201190D01*
X144079761Y18170238D01*
X145008333Y18355952D02*
X144884523Y18355952D01*
X144822619Y18325000D01*
X144791666Y18294047D01*
X144729761Y18201190D01*
X144698809Y18077380D01*
X144698809Y17829761D01*
X144729761Y17767857D01*
X144760714Y17736904D01*
X144822619Y17705952D01*
X144946428Y17705952D01*
X145008333Y17736904D01*
X145039285Y17767857D01*
X145070238Y17829761D01*
X145070238Y17984523D01*
X145039285Y18046428D01*
X145008333Y18077380D01*
X144946428Y18108333D01*
X144822619Y18108333D01*
X144760714Y18077380D01*
X144729761Y18046428D01*
X144698809Y17984523D01*
D11*
%TO.C,R2*%
X172262742Y19477500D02*
X172737258Y19477500D01*
X172262742Y20522500D02*
X172737258Y20522500D01*
%TO.C,TP6*%
X165800000Y22700000D02*
X167200000Y22700000D01*
X165800000Y21300000D02*
X165800000Y22700000D01*
X167200000Y21300000D02*
X165800000Y21300000D01*
X167200000Y22700000D02*
X167200000Y21300000D01*
%TO.C,TP8*%
X167300000Y19800000D02*
X167300000Y21200000D01*
X167300000Y21200000D02*
X168700000Y21200000D01*
X168700000Y21200000D02*
X168700000Y19800000D01*
X168700000Y19800000D02*
X167300000Y19800000D01*
%TO.C,U3*%
X159500000Y18940000D02*
X160300000Y18940000D01*
X159500000Y22060000D02*
X160300000Y22060000D01*
X159500000Y18940000D02*
X158700000Y18940000D01*
X159500000Y22060000D02*
X157700000Y22060000D01*
%TO.C,C6*%
X159340580Y10510000D02*
X159059420Y10510000D01*
X159340580Y9490000D02*
X159059420Y9490000D01*
%TO.C,C8*%
X159359420Y23510000D02*
X159640580Y23510000D01*
X159359420Y22490000D02*
X159640580Y22490000D01*
%TO.C,SW1*%
X180900000Y12650000D02*
X180600000Y12650000D01*
X183100000Y12650000D02*
X183400000Y12650000D01*
X180600000Y9350000D02*
X180900000Y9350000D01*
X183400000Y9350000D02*
X183100000Y9350000D01*
X180600000Y12650000D02*
X180600000Y9350000D01*
X183400000Y12650000D02*
X183400000Y9350000D01*
%TO.C,TP9*%
X164300000Y25950000D02*
X165700000Y25950000D01*
X165700000Y25950000D02*
X165700000Y24550000D01*
X164300000Y24550000D02*
X164300000Y25950000D01*
X165700000Y24550000D02*
X164300000Y24550000D01*
%TO.C,J5*%
X175750000Y15100000D02*
X175750000Y14900000D01*
X179660000Y26360000D02*
X178410000Y26360000D01*
X179560000Y24300000D02*
X179560000Y24600000D01*
X175750000Y16900000D02*
X175250000Y16900000D01*
X175250000Y8550000D02*
X178750000Y8550000D01*
X175750000Y18900000D02*
X175250000Y18900000D01*
X179360000Y7940000D02*
X179360000Y26060000D01*
X175250000Y23000000D02*
X175750000Y23000000D01*
X175750000Y22900000D02*
X175250000Y22900000D01*
X179660000Y25110000D02*
X179660000Y26360000D01*
X175250000Y17100000D02*
X175750000Y17100000D01*
X175250000Y19100000D02*
X175750000Y19100000D01*
X178750000Y10500000D02*
X179360000Y10500000D01*
X175250000Y13000000D02*
X175750000Y13000000D01*
X175750000Y14900000D02*
X175250000Y14900000D01*
X175250000Y17000000D02*
X175750000Y17000000D01*
X175750000Y19100000D02*
X175750000Y18900000D01*
X175750000Y11100000D02*
X175750000Y10900000D01*
X175750000Y13100000D02*
X175750000Y12900000D01*
X176750000Y7940000D02*
X176750000Y8550000D01*
X178050000Y26060000D02*
X178050000Y25450000D01*
X178750000Y8550000D02*
X178750000Y10500000D01*
X178750000Y25450000D02*
X175250000Y25450000D01*
X175250000Y11100000D02*
X175750000Y11100000D01*
X176750000Y26060000D02*
X176750000Y25450000D01*
X175750000Y23100000D02*
X175750000Y22900000D01*
X179460000Y24300000D02*
X179460000Y24600000D01*
X175250000Y25450000D02*
X175250000Y8550000D01*
X174640000Y7940000D02*
X179360000Y7940000D01*
X178750000Y23500000D02*
X178750000Y25450000D01*
X179360000Y23500000D02*
X178750000Y23500000D01*
X175250000Y21000000D02*
X175750000Y21000000D01*
X175250000Y11000000D02*
X175750000Y11000000D01*
X175750000Y10900000D02*
X175250000Y10900000D01*
X175250000Y15100000D02*
X175750000Y15100000D01*
X178050000Y7940000D02*
X178050000Y8550000D01*
X175250000Y21100000D02*
X175750000Y21100000D01*
X179560000Y24600000D02*
X179360000Y24600000D01*
X179360000Y24300000D02*
X179560000Y24300000D01*
X179360000Y26060000D02*
X174640000Y26060000D01*
X175250000Y19000000D02*
X175750000Y19000000D01*
X175750000Y17100000D02*
X175750000Y16900000D01*
X175750000Y21100000D02*
X175750000Y20900000D01*
X175250000Y15000000D02*
X175750000Y15000000D01*
X175750000Y12900000D02*
X175250000Y12900000D01*
X175750000Y20900000D02*
X175250000Y20900000D01*
X175250000Y23100000D02*
X175750000Y23100000D01*
X174640000Y26060000D02*
X174640000Y7940000D01*
X175250000Y13100000D02*
X175750000Y13100000D01*
%TO.C,D1*%
X158250000Y24000000D02*
X162150000Y24000000D01*
X158250000Y26000000D02*
X162150000Y26000000D01*
X158250000Y26000000D02*
X158250000Y24000000D01*
%TO.C,SW2*%
X183400000Y24650000D02*
X183100000Y24650000D01*
X180900000Y21350000D02*
X180600000Y21350000D01*
X183100000Y21350000D02*
X183400000Y21350000D01*
X183400000Y21350000D02*
X183400000Y24650000D01*
X180600000Y24650000D02*
X180900000Y24650000D01*
X180600000Y21350000D02*
X180600000Y24650000D01*
%TO.C,R20*%
X168737258Y16477500D02*
X168262742Y16477500D01*
X168737258Y17522500D02*
X168262742Y17522500D01*
%TO.C,R13*%
X163762742Y19477500D02*
X164237258Y19477500D01*
X163762742Y20522500D02*
X164237258Y20522500D01*
%TO.C,C1*%
X168859420Y19510000D02*
X169140580Y19510000D01*
X168859420Y18490000D02*
X169140580Y18490000D01*
%TO.C,TP4*%
X167200000Y24550000D02*
X165800000Y24550000D01*
X165800000Y24550000D02*
X165800000Y25950000D01*
X165800000Y25950000D02*
X167200000Y25950000D01*
X167200000Y25950000D02*
X167200000Y24550000D01*
%TO.C,TP3*%
X168800000Y12300000D02*
X168800000Y13700000D01*
X170200000Y13700000D02*
X170200000Y12300000D01*
X168800000Y13700000D02*
X170200000Y13700000D01*
X170200000Y12300000D02*
X168800000Y12300000D01*
%TO.C,R5*%
X159012742Y15977500D02*
X159487258Y15977500D01*
X159012742Y17022500D02*
X159487258Y17022500D01*
%TO.C,C12*%
X172640580Y17990000D02*
X172359420Y17990000D01*
X172640580Y19010000D02*
X172359420Y19010000D01*
%TO.C,R12*%
X168737258Y24977500D02*
X168262742Y24977500D01*
X168737258Y26022500D02*
X168262742Y26022500D01*
%TO.C,R10*%
X168737258Y23477500D02*
X168262742Y23477500D01*
X168737258Y24522500D02*
X168262742Y24522500D01*
%TO.C,Q3*%
X138315000Y17060000D02*
X138315000Y10940000D01*
X143335000Y10940000D02*
X143685000Y10940000D01*
X143685000Y17060000D02*
X143685000Y10940000D01*
X138615000Y17060000D02*
X138315000Y17060000D01*
X143385000Y17060000D02*
X143685000Y17060000D01*
%TO.C,R15*%
X145522500Y11237258D02*
X145522500Y10762742D01*
X144477500Y11237258D02*
X144477500Y10762742D01*
%TO.C,C15*%
X155765000Y10011252D02*
X155765000Y9488748D01*
X157235000Y10011252D02*
X157235000Y9488748D01*
%TO.C,TP1*%
X165800000Y13700000D02*
X167200000Y13700000D01*
X167200000Y12300000D02*
X165800000Y12300000D01*
X165800000Y12300000D02*
X165800000Y13700000D01*
X167200000Y13700000D02*
X167200000Y12300000D01*
%TO.C,TP10*%
X165700000Y12300000D02*
X164300000Y12300000D01*
X164300000Y13700000D02*
X165700000Y13700000D01*
X164300000Y12300000D02*
X164300000Y13700000D01*
X165700000Y13700000D02*
X165700000Y12300000D01*
%TO.C,C20*%
X168640580Y16010000D02*
X168359420Y16010000D01*
X168640580Y14990000D02*
X168359420Y14990000D01*
%TO.C,R11*%
X163762742Y16022500D02*
X164237258Y16022500D01*
X163762742Y14977500D02*
X164237258Y14977500D01*
%TO.C,R21*%
X167262742Y10522500D02*
X167737258Y10522500D01*
X167262742Y9477500D02*
X167737258Y9477500D01*
%TO.C,TP7*%
X167300000Y21300000D02*
X167300000Y22700000D01*
X168700000Y21300000D02*
X167300000Y21300000D01*
X167300000Y22700000D02*
X168700000Y22700000D01*
X168700000Y22700000D02*
X168700000Y21300000D01*
%TO.C,D2*%
X165485000Y17735000D02*
X163200000Y17735000D01*
X163200000Y16265000D02*
X165485000Y16265000D01*
X165485000Y16265000D02*
X165485000Y17735000D01*
%TO.C,TP11*%
X167300000Y12300000D02*
X167300000Y13700000D01*
X168700000Y12300000D02*
X167300000Y12300000D01*
X167300000Y13700000D02*
X168700000Y13700000D01*
X168700000Y13700000D02*
X168700000Y12300000D01*
%TO.C,Q2*%
X155560000Y16385000D02*
X155560000Y16685000D01*
X149440000Y11665000D02*
X149440000Y11315000D01*
X155560000Y16685000D02*
X149440000Y16685000D01*
X155560000Y11615000D02*
X155560000Y11315000D01*
X155560000Y11315000D02*
X149440000Y11315000D01*
%TO.C,C19*%
X164640580Y12010000D02*
X164359420Y12010000D01*
X164640580Y10990000D02*
X164359420Y10990000D01*
%TO.C,R18*%
X148522500Y11237258D02*
X148522500Y10762742D01*
X147477500Y11237258D02*
X147477500Y10762742D01*
%TO.C,TP5*%
X167200000Y17700000D02*
X167200000Y16300000D01*
X165800000Y17700000D02*
X167200000Y17700000D01*
X167200000Y16300000D02*
X165800000Y16300000D01*
X165800000Y16300000D02*
X165800000Y17700000D01*
%TO.C,R1*%
X162487258Y9272500D02*
X162012742Y9272500D01*
X162487258Y8227500D02*
X162012742Y8227500D01*
%TO.C,R8*%
X170737258Y22522500D02*
X170262742Y22522500D01*
X170737258Y21477500D02*
X170262742Y21477500D01*
%TO.C,U2*%
X160960000Y13000000D02*
X160960000Y12200000D01*
X157840000Y13000000D02*
X157840000Y12200000D01*
X157840000Y13000000D02*
X157840000Y13800000D01*
X160960000Y13000000D02*
X160960000Y14800000D01*
%TO.C,D5*%
X149000000Y9000000D02*
X152900000Y9000000D01*
X149000000Y11000000D02*
X152900000Y11000000D01*
X149000000Y11000000D02*
X149000000Y9000000D01*
%TO.C,F1*%
X137000000Y25000000D02*
X137000000Y20000000D01*
X142000000Y19000000D02*
X152000000Y19000000D01*
X157000000Y25000000D02*
X157000000Y20000000D01*
X142000000Y26000000D02*
X152000000Y26000000D01*
%TO.C,Q1*%
X172500000Y26060000D02*
X170825000Y26060000D01*
X172500000Y22940000D02*
X173150000Y22940000D01*
X172500000Y22940000D02*
X171850000Y22940000D01*
X172500000Y26060000D02*
X173150000Y26060000D01*
%TO.C,D4*%
X148950000Y17265000D02*
X151235000Y17265000D01*
X151235000Y18735000D02*
X148950000Y18735000D01*
X151235000Y17265000D02*
X151235000Y18735000D01*
%TO.C,TP2*%
X170200000Y12200000D02*
X170200000Y10800000D01*
X168800000Y10800000D02*
X168800000Y12200000D01*
X168800000Y12200000D02*
X170200000Y12200000D01*
X170200000Y10800000D02*
X168800000Y10800000D01*
%TO.C,D3*%
X163200000Y17765000D02*
X165485000Y17765000D01*
X165485000Y17765000D02*
X165485000Y19235000D01*
X165485000Y19235000D02*
X163200000Y19235000D01*
%TO.C,R14*%
X145977500Y11237258D02*
X145977500Y10762742D01*
X147022500Y11237258D02*
X147022500Y10762742D01*
%TO.C,R16*%
X146512742Y17477500D02*
X146987258Y17477500D01*
X146512742Y18522500D02*
X146987258Y18522500D01*
%TD*%
%LPC*%
D12*
%TO.C,R2*%
X171675000Y20000000D03*
X173325000Y20000000D03*
%TD*%
D13*
%TO.C,TP6*%
X166500000Y22000000D03*
%TD*%
%TO.C,TP8*%
X168000000Y20500000D03*
%TD*%
D14*
%TO.C,U3*%
X158362500Y21450000D03*
X158362500Y20500000D03*
X158362500Y19550000D03*
X160637500Y19550000D03*
X160637500Y20500000D03*
X160637500Y21450000D03*
%TD*%
D15*
%TO.C,C6*%
X159975000Y10000000D03*
X158425000Y10000000D03*
%TD*%
D16*
%TO.C,C8*%
X158725000Y23000000D03*
X160275000Y23000000D03*
%TD*%
D17*
%TO.C,SW1*%
X182000000Y12700000D03*
X182000000Y9300000D03*
%TD*%
D13*
%TO.C,TP9*%
X165000000Y25250000D03*
%TD*%
D18*
%TO.C,J5*%
X177550000Y24000000D03*
D19*
X177550000Y22000000D03*
X177550000Y20000000D03*
X177550000Y18000000D03*
X177550000Y16000000D03*
X177550000Y14000000D03*
X177550000Y12000000D03*
X177550000Y10000000D03*
%TD*%
D20*
%TO.C,D1*%
X158850000Y25000000D03*
X162150000Y25000000D03*
%TD*%
D17*
%TO.C,SW2*%
X182000000Y21300000D03*
X182000000Y24700000D03*
%TD*%
D21*
%TO.C,R20*%
X169325000Y17000000D03*
X167675000Y17000000D03*
%TD*%
D12*
%TO.C,R13*%
X163175000Y20000000D03*
X164825000Y20000000D03*
%TD*%
D16*
%TO.C,C1*%
X168225000Y19000000D03*
X169775000Y19000000D03*
%TD*%
D22*
%TO.C,TP4*%
X166500000Y25250000D03*
%TD*%
%TO.C,TP3*%
X169500000Y13000000D03*
%TD*%
D12*
%TO.C,R5*%
X158425000Y16500000D03*
X160075000Y16500000D03*
%TD*%
D15*
%TO.C,C12*%
X173275000Y18500000D03*
X171725000Y18500000D03*
%TD*%
D21*
%TO.C,R12*%
X169325000Y25500000D03*
X167675000Y25500000D03*
%TD*%
%TO.C,R10*%
X169325000Y24000000D03*
X167675000Y24000000D03*
%TD*%
D23*
%TO.C,Q3*%
X141000000Y14650000D03*
D24*
X139095000Y11100000D03*
X140365000Y11100000D03*
X141635000Y11100000D03*
X142905000Y11100000D03*
%TD*%
D25*
%TO.C,R15*%
X145000000Y11825000D03*
X145000000Y10175000D03*
%TD*%
D26*
%TO.C,C15*%
X156500000Y10700000D03*
X156500000Y8800000D03*
%TD*%
D22*
%TO.C,TP1*%
X166500000Y13000000D03*
%TD*%
%TO.C,TP10*%
X165000000Y13000000D03*
%TD*%
D15*
%TO.C,C20*%
X169275000Y15500000D03*
X167725000Y15500000D03*
%TD*%
D12*
%TO.C,R11*%
X163175000Y15500000D03*
X164825000Y15500000D03*
%TD*%
%TO.C,R21*%
X166675000Y10000000D03*
X168325000Y10000000D03*
%TD*%
D13*
%TO.C,TP7*%
X168000000Y22000000D03*
%TD*%
D27*
%TO.C,D2*%
X164787500Y17000000D03*
X163212500Y17000000D03*
%TD*%
D22*
%TO.C,TP11*%
X168000000Y13000000D03*
%TD*%
D28*
%TO.C,Q2*%
X153150000Y14000000D03*
D29*
X149600000Y15905000D03*
X149600000Y14635000D03*
X149600000Y13365000D03*
X149600000Y12095000D03*
%TD*%
D15*
%TO.C,C19*%
X165275000Y11500000D03*
X163725000Y11500000D03*
%TD*%
D25*
%TO.C,R18*%
X148000000Y11825000D03*
X148000000Y10175000D03*
%TD*%
D22*
%TO.C,TP5*%
X166500000Y17000000D03*
%TD*%
D21*
%TO.C,R1*%
X163075000Y8750000D03*
X161425000Y8750000D03*
%TD*%
%TO.C,R8*%
X171325000Y22000000D03*
X169675000Y22000000D03*
%TD*%
D30*
%TO.C,U2*%
X160350000Y14137500D03*
X159400000Y14137500D03*
X158450000Y14137500D03*
X158450000Y11862500D03*
X160350000Y11862500D03*
%TD*%
D20*
%TO.C,D5*%
X149600000Y10000000D03*
X152900000Y10000000D03*
%TD*%
D31*
%TO.C,F1*%
X153850000Y20800000D03*
X153850000Y24200000D03*
D32*
X153850000Y22500000D03*
D31*
X140150000Y24200000D03*
X140150000Y20800000D03*
D32*
X140150000Y22500000D03*
%TD*%
D33*
%TO.C,Q1*%
X171562500Y25450000D03*
X171562500Y23550000D03*
X173437500Y24500000D03*
%TD*%
D27*
%TO.C,D4*%
X150537500Y18000000D03*
X148962500Y18000000D03*
%TD*%
D22*
%TO.C,TP2*%
X169500000Y11500000D03*
%TD*%
D27*
%TO.C,D3*%
X164787500Y18500000D03*
X163212500Y18500000D03*
%TD*%
D25*
%TO.C,R14*%
X146500000Y11825000D03*
X146500000Y10175000D03*
%TD*%
D12*
%TO.C,R16*%
X145925000Y18000000D03*
X147575000Y18000000D03*
%TD*%
G36*
X141765677Y11480315D02*
G01*
X141786319Y11463681D01*
X141963681Y11286319D01*
X141997166Y11224996D01*
X142000000Y11198638D01*
X142000000Y9017830D01*
X142007412Y8992588D01*
X142237393Y8762607D01*
X142260481Y8750000D01*
X156876000Y8750000D01*
X156943039Y8730315D01*
X156988794Y8677511D01*
X157000000Y8626000D01*
X157000000Y8301362D01*
X156980315Y8234323D01*
X156963681Y8213681D01*
X156786319Y8036319D01*
X156724996Y8002834D01*
X156698638Y8000000D01*
X142051362Y8000000D01*
X141984323Y8019685D01*
X141963681Y8036319D01*
X141512607Y8487393D01*
X141489519Y8500000D01*
X135051362Y8500000D01*
X134984323Y8519685D01*
X134963681Y8536319D01*
X134536319Y8963681D01*
X134502834Y9025004D01*
X134500000Y9051362D01*
X134500000Y10948638D01*
X134519685Y11015677D01*
X134536319Y11036319D01*
X134963681Y11463681D01*
X135025004Y11497166D01*
X135051362Y11500000D01*
X141698638Y11500000D01*
X141765677Y11480315D01*
G37*
G36*
X155765677Y18730315D02*
G01*
X155786319Y18713681D01*
X156213681Y18286319D01*
X156247166Y18224996D01*
X156250000Y18198638D01*
X156250000Y17051362D01*
X156230315Y16984323D01*
X156213681Y16963681D01*
X156036319Y16786319D01*
X155974996Y16752834D01*
X155948638Y16750000D01*
X151801362Y16750000D01*
X151734323Y16769685D01*
X151713681Y16786319D01*
X151536319Y16963681D01*
X151502834Y17025004D01*
X151500000Y17051362D01*
X151500000Y18198638D01*
X151519685Y18265677D01*
X151536319Y18286319D01*
X151963681Y18713681D01*
X152025004Y18747166D01*
X152051362Y18750000D01*
X155698638Y18750000D01*
X155765677Y18730315D01*
G37*
G36*
X156015677Y16230315D02*
G01*
X156036319Y16213681D01*
X156213681Y16036319D01*
X156247166Y15974996D01*
X156250000Y15948638D01*
X156250000Y13267830D01*
X156257412Y13242588D01*
X157213681Y12286319D01*
X157247166Y12224996D01*
X157250000Y12198638D01*
X157250000Y10624000D01*
X157230315Y10556961D01*
X157177511Y10511206D01*
X157126000Y10500000D01*
X155874000Y10500000D01*
X155806961Y10519685D01*
X155761206Y10572489D01*
X155750000Y10624000D01*
X155750000Y11482170D01*
X155742588Y11507412D01*
X155262607Y11987393D01*
X155239519Y12000000D01*
X154017830Y12000000D01*
X153992588Y11992588D01*
X153786319Y11786319D01*
X153724996Y11752834D01*
X153698638Y11750000D01*
X151551362Y11750000D01*
X151484323Y11769685D01*
X151463681Y11786319D01*
X151286319Y11963681D01*
X151252834Y12025004D01*
X151250000Y12051362D01*
X151250000Y15948638D01*
X151269685Y16015677D01*
X151286319Y16036319D01*
X151463681Y16213681D01*
X151525004Y16247166D01*
X151551362Y16250000D01*
X155948638Y16250000D01*
X156015677Y16230315D01*
G37*
G36*
X149765677Y16230315D02*
G01*
X149786319Y16213681D01*
X149963681Y16036319D01*
X149997166Y15974996D01*
X150000000Y15948638D01*
X150000000Y13301362D01*
X149980315Y13234323D01*
X149963681Y13213681D01*
X149786319Y13036319D01*
X149724996Y13002834D01*
X149698638Y13000000D01*
X144051362Y13000000D01*
X143984323Y13019685D01*
X143963681Y13036319D01*
X143786319Y13213681D01*
X143752834Y13275004D01*
X143750000Y13301362D01*
X143750000Y15948638D01*
X143769685Y16015677D01*
X143786319Y16036319D01*
X143963681Y16213681D01*
X144025004Y16247166D01*
X144051362Y16250000D01*
X149698638Y16250000D01*
X149765677Y16230315D01*
G37*
G36*
X143015677Y17730315D02*
G01*
X143036319Y17713681D01*
X143213681Y17536319D01*
X143247166Y17474996D01*
X143250000Y17448638D01*
X143250000Y13051362D01*
X143230315Y12984323D01*
X143213681Y12963681D01*
X143036319Y12786319D01*
X142974996Y12752834D01*
X142948638Y12750000D01*
X138801362Y12750000D01*
X138734323Y12769685D01*
X138713681Y12786319D01*
X138536319Y12963681D01*
X138502834Y13025004D01*
X138500000Y13051362D01*
X138500000Y17448638D01*
X138519685Y17515677D01*
X138536319Y17536319D01*
X138713681Y17713681D01*
X138775004Y17747166D01*
X138801362Y17750000D01*
X142948638Y17750000D01*
X143015677Y17730315D01*
G37*
M02*
