%TF.GenerationSoftware,KiCad,Pcbnew,(6.0.5)*%
%TF.CreationDate,2022-06-29T17:31:44+12:00*%
%TF.ProjectId,OpenEFCS_electronics,4f70656e-4546-4435-935f-656c65637472,rev?*%
%TF.SameCoordinates,Original*%
%TF.FileFunction,Soldermask,Bot*%
%TF.FilePolarity,Negative*%
%FSLAX46Y46*%
G04 Gerber Fmt 4.6, Leading zero omitted, Abs format (unit mm)*
G04 Created by KiCad (PCBNEW (6.0.5)) date 2022-06-29 17:31:44*
%MOMM*%
%LPD*%
G01*
G04 APERTURE LIST*
G04 Aperture macros list*
%AMRoundRect*
0 Rectangle with rounded corners*
0 $1 Rounding radius*
0 $2 $3 $4 $5 $6 $7 $8 $9 X,Y pos of 4 corners*
0 Add a 4 corners polygon primitive as box body*
4,1,4,$2,$3,$4,$5,$6,$7,$8,$9,$2,$3,0*
0 Add four circle primitives for the rounded corners*
1,1,$1+$1,$2,$3*
1,1,$1+$1,$4,$5*
1,1,$1+$1,$6,$7*
1,1,$1+$1,$8,$9*
0 Add four rect primitives between the rounded corners*
20,1,$1+$1,$2,$3,$4,$5,0*
20,1,$1+$1,$4,$5,$6,$7,0*
20,1,$1+$1,$6,$7,$8,$9,0*
20,1,$1+$1,$8,$9,$2,$3,0*%
%AMFreePoly0*
4,1,17,2.675000,1.605000,1.875000,1.605000,1.875000,0.935000,2.675000,0.935000,2.675000,0.335000,1.875000,0.335000,1.875000,-0.335000,2.675000,-0.335000,2.675000,-0.935000,1.875000,-0.935000,1.875000,-1.605000,2.675000,-1.605000,2.675000,-2.205000,-1.875000,-2.205000,-1.875000,2.205000,2.675000,2.205000,2.675000,1.605000,2.675000,1.605000,$1*%
G04 Aperture macros list end*
%ADD10RoundRect,0.062500X0.300000X0.062500X-0.300000X0.062500X-0.300000X-0.062500X0.300000X-0.062500X0*%
%ADD11R,0.900000X1.600000*%
%ADD12R,1.700000X1.700000*%
%ADD13O,1.700000X1.700000*%
%ADD14RoundRect,0.140000X-0.170000X0.140000X-0.170000X-0.140000X0.170000X-0.140000X0.170000X0.140000X0*%
%ADD15RoundRect,0.135000X0.135000X0.185000X-0.135000X0.185000X-0.135000X-0.185000X0.135000X-0.185000X0*%
%ADD16RoundRect,0.250000X0.625000X-0.312500X0.625000X0.312500X-0.625000X0.312500X-0.625000X-0.312500X0*%
%ADD17RoundRect,0.225000X0.250000X-0.225000X0.250000X0.225000X-0.250000X0.225000X-0.250000X-0.225000X0*%
%ADD18RoundRect,0.135000X0.185000X-0.135000X0.185000X0.135000X-0.185000X0.135000X-0.185000X-0.135000X0*%
%ADD19RoundRect,0.200000X-0.200000X-0.275000X0.200000X-0.275000X0.200000X0.275000X-0.200000X0.275000X0*%
%ADD20RoundRect,0.200000X0.200000X0.275000X-0.200000X0.275000X-0.200000X-0.275000X0.200000X-0.275000X0*%
%ADD21R,0.900000X1.200000*%
%ADD22RoundRect,0.225000X-0.250000X0.225000X-0.250000X-0.225000X0.250000X-0.225000X0.250000X0.225000X0*%
%ADD23RoundRect,0.140000X0.170000X-0.140000X0.170000X0.140000X-0.170000X0.140000X-0.170000X-0.140000X0*%
%ADD24RoundRect,0.150000X-0.825000X-0.150000X0.825000X-0.150000X0.825000X0.150000X-0.825000X0.150000X0*%
%ADD25RoundRect,0.150000X-0.512500X-0.150000X0.512500X-0.150000X0.512500X0.150000X-0.512500X0.150000X0*%
%ADD26RoundRect,0.218750X0.256250X-0.218750X0.256250X0.218750X-0.256250X0.218750X-0.256250X-0.218750X0*%
%ADD27FreePoly0,90.000000*%
%ADD28R,0.500000X0.850000*%
%ADD29RoundRect,0.135000X-0.135000X-0.185000X0.135000X-0.185000X0.135000X0.185000X-0.135000X0.185000X0*%
%ADD30RoundRect,0.140000X-0.140000X-0.170000X0.140000X-0.170000X0.140000X0.170000X-0.140000X0.170000X0*%
%ADD31RoundRect,0.218750X0.218750X0.381250X-0.218750X0.381250X-0.218750X-0.381250X0.218750X-0.381250X0*%
%ADD32RoundRect,0.125000X-0.625000X-0.125000X0.625000X-0.125000X0.625000X0.125000X-0.625000X0.125000X0*%
%ADD33RoundRect,0.125000X-0.125000X-0.625000X0.125000X-0.625000X0.125000X0.625000X-0.125000X0.625000X0*%
%ADD34R,1.200000X0.900000*%
%ADD35R,1.200000X1.400000*%
%ADD36RoundRect,0.135000X-0.185000X0.135000X-0.185000X-0.135000X0.185000X-0.135000X0.185000X0.135000X0*%
%ADD37FreePoly0,0.000000*%
%ADD38R,0.850000X0.500000*%
%ADD39RoundRect,0.150000X0.587500X0.150000X-0.587500X0.150000X-0.587500X-0.150000X0.587500X-0.150000X0*%
%ADD40R,2.000000X1.500000*%
%ADD41R,2.000000X3.800000*%
%ADD42RoundRect,0.375000X-0.625000X-0.375000X0.625000X-0.375000X0.625000X0.375000X-0.625000X0.375000X0*%
G04 APERTURE END LIST*
D10*
%TO.C,U5*%
X92512500Y-103750000D03*
X92512500Y-104250000D03*
X92512500Y-104750000D03*
X92512500Y-105250000D03*
X90487500Y-105250000D03*
X90487500Y-104750000D03*
X90487500Y-104250000D03*
X90487500Y-103750000D03*
D11*
X91500000Y-104500000D03*
%TD*%
D12*
%TO.C,J6*%
X73500000Y-103500000D03*
D13*
X73500000Y-106040000D03*
X70960000Y-103500000D03*
X70960000Y-106040000D03*
X68420000Y-103500000D03*
X68420000Y-106040000D03*
X65880000Y-103500000D03*
X65880000Y-106040000D03*
X63340000Y-103500000D03*
X63340000Y-106040000D03*
%TD*%
D14*
%TO.C,C8*%
X51500000Y-97520000D03*
X51500000Y-98480000D03*
%TD*%
D15*
%TO.C,R12*%
X67010000Y-93000000D03*
X65990000Y-93000000D03*
%TD*%
D16*
%TO.C,Ris2*%
X97000000Y-105462500D03*
X97000000Y-102537500D03*
%TD*%
D17*
%TO.C,C4*%
X81000000Y-95775000D03*
X81000000Y-94225000D03*
%TD*%
D18*
%TO.C,R20*%
X63500000Y-93510000D03*
X63500000Y-92490000D03*
%TD*%
D19*
%TO.C,R4*%
X69675000Y-92250000D03*
X71325000Y-92250000D03*
%TD*%
D20*
%TO.C,R15*%
X89325000Y-100500000D03*
X87675000Y-100500000D03*
%TD*%
D21*
%TO.C,D4*%
X86150000Y-101000000D03*
X82850000Y-101000000D03*
%TD*%
D19*
%TO.C,R1*%
X85175000Y-106500000D03*
X86825000Y-106500000D03*
%TD*%
D22*
%TO.C,C5*%
X69000000Y-93725000D03*
X69000000Y-95275000D03*
%TD*%
D23*
%TO.C,C10*%
X69000000Y-97480000D03*
X69000000Y-96520000D03*
%TD*%
D24*
%TO.C,U4*%
X86025000Y-98905000D03*
X86025000Y-97635000D03*
X86025000Y-96365000D03*
X86025000Y-95095000D03*
X90975000Y-95095000D03*
X90975000Y-96365000D03*
X90975000Y-97635000D03*
X90975000Y-98905000D03*
%TD*%
D25*
%TO.C,U3*%
X77862500Y-100950000D03*
X77862500Y-100000000D03*
X77862500Y-99050000D03*
X80137500Y-99050000D03*
X80137500Y-100000000D03*
X80137500Y-100950000D03*
%TD*%
D26*
%TO.C,D3*%
X67500000Y-96787500D03*
X67500000Y-95212500D03*
%TD*%
D27*
%TO.C,Q2*%
X108500000Y-94100000D03*
D28*
X110405000Y-97650000D03*
X109135000Y-97650000D03*
X107865000Y-97650000D03*
X106595000Y-97650000D03*
%TD*%
D29*
%TO.C,R18*%
X87990000Y-104000000D03*
X89010000Y-104000000D03*
%TD*%
D30*
%TO.C,C7*%
X78520000Y-102000000D03*
X79480000Y-102000000D03*
%TD*%
D18*
%TO.C,R9*%
X54500000Y-107010000D03*
X54500000Y-105990000D03*
%TD*%
D23*
%TO.C,C11*%
X63000000Y-95480000D03*
X63000000Y-94520000D03*
%TD*%
D17*
%TO.C,C14*%
X83500000Y-97775000D03*
X83500000Y-96225000D03*
%TD*%
D19*
%TO.C,R8*%
X80675000Y-97500000D03*
X82325000Y-97500000D03*
%TD*%
D14*
%TO.C,C17*%
X62500000Y-92520000D03*
X62500000Y-93480000D03*
%TD*%
D31*
%TO.C,L2*%
X78062500Y-103500000D03*
X75937500Y-103500000D03*
%TD*%
D14*
%TO.C,C13*%
X100000000Y-99020000D03*
X100000000Y-99980000D03*
%TD*%
D32*
%TO.C,U1*%
X54325000Y-101800000D03*
X54325000Y-101000000D03*
X54325000Y-100200000D03*
X54325000Y-99400000D03*
X54325000Y-98600000D03*
X54325000Y-97800000D03*
X54325000Y-97000000D03*
X54325000Y-96200000D03*
D33*
X55700000Y-94825000D03*
X56500000Y-94825000D03*
X57300000Y-94825000D03*
X58100000Y-94825000D03*
X58900000Y-94825000D03*
X59700000Y-94825000D03*
X60500000Y-94825000D03*
X61300000Y-94825000D03*
D32*
X62675000Y-96200000D03*
X62675000Y-97000000D03*
X62675000Y-97800000D03*
X62675000Y-98600000D03*
X62675000Y-99400000D03*
X62675000Y-100200000D03*
X62675000Y-101000000D03*
X62675000Y-101800000D03*
D33*
X61300000Y-103175000D03*
X60500000Y-103175000D03*
X59700000Y-103175000D03*
X58900000Y-103175000D03*
X58100000Y-103175000D03*
X57300000Y-103175000D03*
X56500000Y-103175000D03*
X55700000Y-103175000D03*
%TD*%
D15*
%TO.C,R10*%
X66010000Y-94000000D03*
X64990000Y-94000000D03*
%TD*%
D18*
%TO.C,R2*%
X52500000Y-99510000D03*
X52500000Y-98490000D03*
%TD*%
D34*
%TO.C,D1*%
X80000000Y-103350000D03*
X80000000Y-106650000D03*
%TD*%
D23*
%TO.C,C12*%
X64000000Y-95480000D03*
X64000000Y-94520000D03*
%TD*%
D18*
%TO.C,R19*%
X61000000Y-93010000D03*
X61000000Y-91990000D03*
%TD*%
D23*
%TO.C,C1*%
X50500000Y-99480000D03*
X50500000Y-98520000D03*
%TD*%
D22*
%TO.C,C2*%
X85500000Y-102725000D03*
X85500000Y-104275000D03*
%TD*%
D35*
%TO.C,Y1*%
X49650000Y-103100000D03*
X49650000Y-100900000D03*
X51350000Y-100900000D03*
X51350000Y-103100000D03*
%TD*%
D29*
%TO.C,R11*%
X52990000Y-105000000D03*
X54010000Y-105000000D03*
%TD*%
D14*
%TO.C,C16*%
X90000000Y-101520000D03*
X90000000Y-102480000D03*
%TD*%
D31*
%TO.C,L1*%
X84062500Y-103000000D03*
X81937500Y-103000000D03*
%TD*%
D22*
%TO.C,C9*%
X72750000Y-99225000D03*
X72750000Y-100775000D03*
%TD*%
D36*
%TO.C,R7*%
X71000000Y-97740000D03*
X71000000Y-98760000D03*
%TD*%
D18*
%TO.C,R5*%
X75000000Y-100010000D03*
X75000000Y-98990000D03*
%TD*%
D37*
%TO.C,Q3*%
X108650000Y-105000000D03*
D38*
X105100000Y-106905000D03*
X105100000Y-105635000D03*
X105100000Y-104365000D03*
X105100000Y-103095000D03*
%TD*%
D14*
%TO.C,C19*%
X88000000Y-105020000D03*
X88000000Y-105980000D03*
%TD*%
D16*
%TO.C,Ris1*%
X99500000Y-105462500D03*
X99500000Y-102537500D03*
%TD*%
D17*
%TO.C,C15*%
X92500000Y-100775000D03*
X92500000Y-99225000D03*
%TD*%
D39*
%TO.C,Q1*%
X51437500Y-105050000D03*
X51437500Y-106950000D03*
X49562500Y-106000000D03*
%TD*%
D40*
%TO.C,U2*%
X78650000Y-92700000D03*
X78650000Y-95000000D03*
D41*
X72350000Y-95000000D03*
D40*
X78650000Y-97300000D03*
%TD*%
D29*
%TO.C,R16*%
X91490000Y-102500000D03*
X92510000Y-102500000D03*
%TD*%
D18*
%TO.C,R6*%
X76500000Y-100010000D03*
X76500000Y-98990000D03*
%TD*%
D36*
%TO.C,R3*%
X81500000Y-98990000D03*
X81500000Y-100010000D03*
%TD*%
D26*
%TO.C,D2*%
X66000000Y-96787500D03*
X66000000Y-95212500D03*
%TD*%
D14*
%TO.C,C6*%
X54000000Y-103020000D03*
X54000000Y-103980000D03*
%TD*%
D42*
%TO.C,J5*%
X47000000Y-106500000D03*
X47000000Y-104500000D03*
X47000000Y-102500000D03*
X47000000Y-100500000D03*
X47000000Y-98500000D03*
X47000000Y-96500000D03*
X47000000Y-94500000D03*
X47000000Y-92500000D03*
%TD*%
D22*
%TO.C,C3*%
X83500000Y-104725000D03*
X83500000Y-106275000D03*
%TD*%
G36*
X105017183Y-95768907D02*
G01*
X105028996Y-95778996D01*
X105471004Y-96221004D01*
X105498781Y-96275521D01*
X105500000Y-96291008D01*
X105500000Y-98734320D01*
X105507547Y-98757547D01*
X105988914Y-99238914D01*
X106010672Y-99250000D01*
X106984320Y-99250000D01*
X107007547Y-99242453D01*
X107488914Y-98761086D01*
X107500000Y-98739328D01*
X107500000Y-97291008D01*
X107518907Y-97232817D01*
X107528996Y-97221004D01*
X107721004Y-97028996D01*
X107775521Y-97001219D01*
X107791008Y-97000000D01*
X110708992Y-97000000D01*
X110767183Y-97018907D01*
X110778996Y-97028996D01*
X110971004Y-97221004D01*
X110998781Y-97275521D01*
X111000000Y-97291008D01*
X111000000Y-100484320D01*
X111007547Y-100507547D01*
X111471004Y-100971004D01*
X111498781Y-101025521D01*
X111500000Y-101041008D01*
X111500000Y-106958992D01*
X111481093Y-107017183D01*
X111471004Y-107028996D01*
X111278996Y-107221004D01*
X111224479Y-107248781D01*
X111208992Y-107250000D01*
X107041008Y-107250000D01*
X106982817Y-107231093D01*
X106971004Y-107221004D01*
X106778996Y-107028996D01*
X106751219Y-106974479D01*
X106750000Y-106958992D01*
X106750000Y-102515680D01*
X106742453Y-102492453D01*
X106511086Y-102261086D01*
X106489328Y-102250000D01*
X104041008Y-102250000D01*
X103982817Y-102231093D01*
X103971004Y-102221004D01*
X102528996Y-100778996D01*
X102501219Y-100724479D01*
X102500000Y-100708992D01*
X102500000Y-99265680D01*
X102492453Y-99242453D01*
X102011086Y-98761086D01*
X101989328Y-98750000D01*
X100515680Y-98750000D01*
X100492453Y-98757547D01*
X100070004Y-99179996D01*
X100015487Y-99207773D01*
X99955055Y-99198202D01*
X99929996Y-99179996D01*
X99511086Y-98761086D01*
X99489328Y-98750000D01*
X95541008Y-98750000D01*
X95482817Y-98731093D01*
X95471004Y-98721004D01*
X95278996Y-98528996D01*
X95251219Y-98474479D01*
X95250000Y-98458992D01*
X95250000Y-96041008D01*
X95268907Y-95982817D01*
X95278996Y-95971004D01*
X95471004Y-95778996D01*
X95525521Y-95751219D01*
X95541008Y-95750000D01*
X104958992Y-95750000D01*
X105017183Y-95768907D01*
G37*
G36*
X110517183Y-91268907D02*
G01*
X110528996Y-91278996D01*
X110721004Y-91471004D01*
X110748781Y-91525521D01*
X110750000Y-91541008D01*
X110750000Y-95708992D01*
X110731093Y-95767183D01*
X110721004Y-95778996D01*
X110528996Y-95971004D01*
X110474479Y-95998781D01*
X110458992Y-96000000D01*
X106541008Y-96000000D01*
X106482817Y-95981093D01*
X106471004Y-95971004D01*
X106278996Y-95778996D01*
X106251219Y-95724479D01*
X106250000Y-95708992D01*
X106250000Y-94765680D01*
X106242453Y-94742453D01*
X105761086Y-94261086D01*
X105739328Y-94250000D01*
X95541008Y-94250000D01*
X95482817Y-94231093D01*
X95471004Y-94221004D01*
X95278996Y-94028996D01*
X95251219Y-93974479D01*
X95250000Y-93958992D01*
X95250000Y-91541008D01*
X95268907Y-91482817D01*
X95278996Y-91471004D01*
X95471004Y-91278996D01*
X95525521Y-91251219D01*
X95541008Y-91250000D01*
X110458992Y-91250000D01*
X110517183Y-91268907D01*
G37*
G36*
X100044945Y-99801798D02*
G01*
X100070004Y-99820004D01*
X100488914Y-100238914D01*
X100510672Y-100250000D01*
X100958992Y-100250000D01*
X101017183Y-100268907D01*
X101028996Y-100278996D01*
X101221004Y-100471004D01*
X101248781Y-100525521D01*
X101250000Y-100541008D01*
X101250000Y-102958992D01*
X101231093Y-103017183D01*
X101221004Y-103028996D01*
X101028996Y-103221004D01*
X100974479Y-103248781D01*
X100958992Y-103250000D01*
X95541008Y-103250000D01*
X95482817Y-103231093D01*
X95471004Y-103221004D01*
X95278996Y-103028996D01*
X95251219Y-102974479D01*
X95250000Y-102958992D01*
X95250000Y-100541008D01*
X95268907Y-100482817D01*
X95278996Y-100471004D01*
X95471004Y-100278996D01*
X95525521Y-100251219D01*
X95541008Y-100250000D01*
X99484320Y-100250000D01*
X99507547Y-100242453D01*
X99929996Y-99820004D01*
X99984513Y-99792227D01*
X100044945Y-99801798D01*
G37*
G36*
X105517183Y-104018907D02*
G01*
X105528996Y-104028996D01*
X105721004Y-104221004D01*
X105748781Y-104275521D01*
X105750000Y-104291008D01*
X105750000Y-107208992D01*
X105731093Y-107267183D01*
X105721004Y-107278996D01*
X105278996Y-107721004D01*
X105224479Y-107748781D01*
X105208992Y-107750000D01*
X95541008Y-107750000D01*
X95482817Y-107731093D01*
X95471004Y-107721004D01*
X95278996Y-107528996D01*
X95251219Y-107474479D01*
X95250000Y-107458992D01*
X95250000Y-105041008D01*
X95268907Y-104982817D01*
X95278996Y-104971004D01*
X95471004Y-104778996D01*
X95525521Y-104751219D01*
X95541008Y-104750000D01*
X103484320Y-104750000D01*
X103507547Y-104742453D01*
X104221004Y-104028996D01*
X104275521Y-104001219D01*
X104291008Y-104000000D01*
X105458992Y-104000000D01*
X105517183Y-104018907D01*
G37*
M02*
