%TF.GenerationSoftware,KiCad,Pcbnew,(6.0.5)*%
%TF.CreationDate,2022-09-08T00:21:15+12:00*%
%TF.ProjectId,OpenEFCS_electronics,4f70656e-4546-4435-935f-656c65637472,rev?*%
%TF.SameCoordinates,Original*%
%TF.FileFunction,Copper,L4,Bot*%
%TF.FilePolarity,Positive*%
%FSLAX46Y46*%
G04 Gerber Fmt 4.6, Leading zero omitted, Abs format (unit mm)*
G04 Created by KiCad (PCBNEW (6.0.5)) date 2022-09-08 00:21:15*
%MOMM*%
%LPD*%
G01*
G04 APERTURE LIST*
G04 Aperture macros list*
%AMRoundRect*
0 Rectangle with rounded corners*
0 $1 Rounding radius*
0 $2 $3 $4 $5 $6 $7 $8 $9 X,Y pos of 4 corners*
0 Add a 4 corners polygon primitive as box body*
4,1,4,$2,$3,$4,$5,$6,$7,$8,$9,$2,$3,0*
0 Add four circle primitives for the rounded corners*
1,1,$1+$1,$2,$3*
1,1,$1+$1,$4,$5*
1,1,$1+$1,$6,$7*
1,1,$1+$1,$8,$9*
0 Add four rect primitives between the rounded corners*
20,1,$1+$1,$2,$3,$4,$5,0*
20,1,$1+$1,$4,$5,$6,$7,0*
20,1,$1+$1,$6,$7,$8,$9,0*
20,1,$1+$1,$8,$9,$2,$3,0*%
%AMFreePoly0*
4,1,6,1.000000,0.000000,0.500000,-0.750000,-0.500000,-0.750000,-0.500000,0.750000,0.500000,0.750000,1.000000,0.000000,1.000000,0.000000,$1*%
%AMFreePoly1*
4,1,6,0.500000,-0.750000,-0.650000,-0.750000,-0.150000,0.000000,-0.650000,0.750000,0.500000,0.750000,0.500000,-0.750000,0.500000,-0.750000,$1*%
G04 Aperture macros list end*
%TA.AperFunction,ComponentPad*%
%ADD10RoundRect,0.291667X-0.608333X0.408333X-0.608333X-0.408333X0.608333X-0.408333X0.608333X0.408333X0*%
%TD*%
%TA.AperFunction,ComponentPad*%
%ADD11O,1.800000X1.400000*%
%TD*%
%TA.AperFunction,ComponentPad*%
%ADD12O,3.800000X3.000000*%
%TD*%
%TA.AperFunction,SMDPad,CuDef*%
%ADD13R,3.800000X3.400000*%
%TD*%
%TA.AperFunction,SMDPad,CuDef*%
%ADD14RoundRect,0.625000X1.875000X-0.625000X1.875000X0.625000X-1.875000X0.625000X-1.875000X-0.625000X0*%
%TD*%
%TA.AperFunction,SMDPad,CuDef*%
%ADD15RoundRect,0.225000X-0.250000X0.225000X-0.250000X-0.225000X0.250000X-0.225000X0.250000X0.225000X0*%
%TD*%
%TA.AperFunction,SMDPad,CuDef*%
%ADD16RoundRect,0.200000X0.275000X-0.200000X0.275000X0.200000X-0.275000X0.200000X-0.275000X-0.200000X0*%
%TD*%
%TA.AperFunction,SMDPad,CuDef*%
%ADD17RoundRect,0.250000X-0.475000X0.250000X-0.475000X-0.250000X0.475000X-0.250000X0.475000X0.250000X0*%
%TD*%
%TA.AperFunction,SMDPad,CuDef*%
%ADD18RoundRect,0.200000X-0.275000X0.200000X-0.275000X-0.200000X0.275000X-0.200000X0.275000X0.200000X0*%
%TD*%
%TA.AperFunction,SMDPad,CuDef*%
%ADD19RoundRect,0.250000X0.475000X-0.250000X0.475000X0.250000X-0.475000X0.250000X-0.475000X-0.250000X0*%
%TD*%
%TA.AperFunction,SMDPad,CuDef*%
%ADD20FreePoly0,0.000000*%
%TD*%
%TA.AperFunction,SMDPad,CuDef*%
%ADD21FreePoly1,0.000000*%
%TD*%
%TA.AperFunction,SMDPad,CuDef*%
%ADD22RoundRect,0.218750X-0.381250X0.218750X-0.381250X-0.218750X0.381250X-0.218750X0.381250X0.218750X0*%
%TD*%
%TA.AperFunction,SMDPad,CuDef*%
%ADD23RoundRect,0.150000X0.825000X0.150000X-0.825000X0.150000X-0.825000X-0.150000X0.825000X-0.150000X0*%
%TD*%
%TA.AperFunction,SMDPad,CuDef*%
%ADD24RoundRect,0.225000X0.250000X-0.225000X0.250000X0.225000X-0.250000X0.225000X-0.250000X-0.225000X0*%
%TD*%
%TA.AperFunction,SMDPad,CuDef*%
%ADD25RoundRect,0.200000X0.200000X0.275000X-0.200000X0.275000X-0.200000X-0.275000X0.200000X-0.275000X0*%
%TD*%
%TA.AperFunction,SMDPad,CuDef*%
%ADD26RoundRect,0.125000X0.625000X0.125000X-0.625000X0.125000X-0.625000X-0.125000X0.625000X-0.125000X0*%
%TD*%
%TA.AperFunction,SMDPad,CuDef*%
%ADD27RoundRect,0.125000X0.125000X0.625000X-0.125000X0.625000X-0.125000X-0.625000X0.125000X-0.625000X0*%
%TD*%
%TA.AperFunction,SMDPad,CuDef*%
%ADD28RoundRect,0.250000X-0.925000X0.412500X-0.925000X-0.412500X0.925000X-0.412500X0.925000X0.412500X0*%
%TD*%
%TA.AperFunction,SMDPad,CuDef*%
%ADD29RoundRect,0.250000X-0.312500X-0.625000X0.312500X-0.625000X0.312500X0.625000X-0.312500X0.625000X0*%
%TD*%
%TA.AperFunction,SMDPad,CuDef*%
%ADD30RoundRect,0.625000X-0.625000X-1.875000X0.625000X-1.875000X0.625000X1.875000X-0.625000X1.875000X0*%
%TD*%
%TA.AperFunction,SMDPad,CuDef*%
%ADD31RoundRect,0.150000X0.512500X0.150000X-0.512500X0.150000X-0.512500X-0.150000X0.512500X-0.150000X0*%
%TD*%
%TA.AperFunction,SMDPad,CuDef*%
%ADD32RoundRect,0.200000X-0.200000X-0.275000X0.200000X-0.275000X0.200000X0.275000X-0.200000X0.275000X0*%
%TD*%
%TA.AperFunction,ViaPad*%
%ADD33C,3.000000*%
%TD*%
%TA.AperFunction,ViaPad*%
%ADD34C,0.800000*%
%TD*%
%TA.AperFunction,Conductor*%
%ADD35C,0.350000*%
%TD*%
%TA.AperFunction,Conductor*%
%ADD36C,0.400000*%
%TD*%
%TA.AperFunction,Conductor*%
%ADD37C,0.250000*%
%TD*%
%TA.AperFunction,Conductor*%
%ADD38C,0.500000*%
%TD*%
G04 APERTURE END LIST*
D10*
%TO.P,J5,1,Pin_1*%
%TO.N,/Tracer-*%
X177550000Y24000000D03*
D11*
%TO.P,J5,2,Pin_2*%
%TO.N,+3V3*%
X177550000Y22000000D03*
%TO.P,J5,3,Pin_3*%
%TO.N,GNDREF*%
X177550000Y20000000D03*
%TO.P,J5,4,Pin_4*%
%TO.N,/AIN1*%
X177550000Y18000000D03*
%TO.P,J5,5,Pin_5*%
%TO.N,/AIN2*%
X177550000Y16000000D03*
%TO.P,J5,6,Pin_6*%
%TO.N,/D1{slash}Tx2*%
X177550000Y14000000D03*
%TO.P,J5,7,Pin_7*%
%TO.N,/D2{slash}Rx2*%
X177550000Y12000000D03*
%TO.P,J5,8,Pin_8*%
%TO.N,+15V*%
X177550000Y10000000D03*
%TD*%
D12*
%TO.P,F1,1*%
%TO.N,+15V*%
X153850000Y20800000D03*
D13*
X153850000Y22500000D03*
D12*
X153850000Y24200000D03*
%TO.P,F1,2*%
%TO.N,+BATT*%
X140150000Y24200000D03*
X140150000Y20800000D03*
D13*
X140150000Y22500000D03*
%TD*%
D14*
%TO.P,J4,1,Pin_1*%
%TO.N,GNDPWR*%
X137500000Y10000000D03*
%TD*%
D15*
%TO.P,C14,1*%
%TO.N,/M+*%
X144000000Y13275000D03*
%TO.P,C14,2*%
%TO.N,GNDPWR*%
X144000000Y11725000D03*
%TD*%
%TO.P,C11,1*%
%TO.N,/CONF*%
X182000000Y23775000D03*
%TO.P,C11,2*%
%TO.N,GNDREF*%
X182000000Y22225000D03*
%TD*%
D16*
%TO.P,R22,1*%
%TO.N,GNDREF*%
X164500000Y9675000D03*
%TO.P,R22,2*%
%TO.N,/BATT_SENSE*%
X164500000Y11325000D03*
%TD*%
D17*
%TO.P,C13,1*%
%TO.N,+3V3*%
X163500000Y14950000D03*
%TO.P,C13,2*%
%TO.N,GNDREF*%
X163500000Y13050000D03*
%TD*%
D14*
%TO.P,J3,1,Pin_1*%
%TO.N,/M+*%
X146000000Y15000000D03*
%TD*%
D15*
%TO.P,C18,1*%
%TO.N,GNDREF*%
X148000000Y22275000D03*
%TO.P,C18,2*%
%TO.N,+3V3*%
X148000000Y20725000D03*
%TD*%
D18*
%TO.P,R4,1*%
%TO.N,Net-(R4-Pad1)*%
X157500000Y22075000D03*
%TO.P,R4,2*%
%TO.N,Net-(C4-Pad1)*%
X157500000Y20425000D03*
%TD*%
D19*
%TO.P,C17,1*%
%TO.N,/M+*%
X148500000Y10050000D03*
%TO.P,C17,2*%
%TO.N,Net-(C17-Pad2)*%
X148500000Y11950000D03*
%TD*%
D20*
%TO.P,JP1,1,A*%
%TO.N,+15V*%
X160275000Y25000000D03*
D21*
%TO.P,JP1,2,B*%
%TO.N,+5V*%
X161725000Y25000000D03*
%TD*%
D22*
%TO.P,L2,1,1*%
%TO.N,Net-(C8-Pad2)*%
X161500000Y23062500D03*
%TO.P,L2,2,2*%
%TO.N,+5V*%
X161500000Y20937500D03*
%TD*%
D23*
%TO.P,U4,1,VCC*%
%TO.N,+15V*%
X155975000Y12905000D03*
%TO.P,U4,2,HIN*%
%TO.N,/PWMH*%
X155975000Y11635000D03*
%TO.P,U4,3,~{LIN}*%
%TO.N,/PWML*%
X155975000Y10365000D03*
%TO.P,U4,4,COM*%
%TO.N,GNDPWR*%
X155975000Y9095000D03*
%TO.P,U4,5,LO*%
%TO.N,/HB_LOW*%
X151025000Y9095000D03*
%TO.P,U4,6,VS*%
%TO.N,/M+*%
X151025000Y10365000D03*
%TO.P,U4,7,HO*%
%TO.N,/HB_HIGH*%
X151025000Y11635000D03*
%TO.P,U4,8,VB*%
%TO.N,Net-(C17-Pad2)*%
X151025000Y12905000D03*
%TD*%
D17*
%TO.P,C16,1*%
%TO.N,+15V*%
X161000000Y11450000D03*
%TO.P,C16,2*%
%TO.N,GNDPWR*%
X161000000Y9550000D03*
%TD*%
D18*
%TO.P,R6,1*%
%TO.N,GNDREF*%
X159750000Y17825000D03*
%TO.P,R6,2*%
%TO.N,Net-(R5-Pad1)*%
X159750000Y16175000D03*
%TD*%
D24*
%TO.P,C9,1*%
%TO.N,+3V3*%
X172500000Y23725000D03*
%TO.P,C9,2*%
%TO.N,GNDREF*%
X172500000Y25275000D03*
%TD*%
D25*
%TO.P,TH1,1*%
%TO.N,/NTC*%
X158825000Y14500000D03*
%TO.P,TH1,2*%
%TO.N,GNDREF*%
X157175000Y14500000D03*
%TD*%
D26*
%TO.P,U1,1,VDD*%
%TO.N,+3V3*%
X172175000Y22300000D03*
%TO.P,U1,2,PF0*%
%TO.N,/CONF*%
X172175000Y21500000D03*
%TO.P,U1,3,PF1*%
%TO.N,unconnected-(U1-Pad3)*%
X172175000Y20700000D03*
%TO.P,U1,4,NRST*%
%TO.N,/RESET*%
X172175000Y19900000D03*
%TO.P,U1,5,VDDA*%
%TO.N,+3V3*%
X172175000Y19100000D03*
%TO.P,U1,6,PA0*%
%TO.N,/AIN1*%
X172175000Y18300000D03*
%TO.P,U1,7,PA1*%
%TO.N,/AIN2*%
X172175000Y17500000D03*
%TO.P,U1,8,PA2*%
%TO.N,/D1{slash}Tx2*%
X172175000Y16700000D03*
D27*
%TO.P,U1,9,PA3*%
%TO.N,/D2{slash}Rx2*%
X170800000Y15325000D03*
%TO.P,U1,10,PA4*%
%TO.N,/PREC*%
X170000000Y15325000D03*
%TO.P,U1,11,PA5*%
%TO.N,/PWMH*%
X169200000Y15325000D03*
%TO.P,U1,12,PA6*%
%TO.N,/PWML*%
X168400000Y15325000D03*
%TO.P,U1,13,PA7*%
%TO.N,/ISENSE_RUN_LP*%
X167600000Y15325000D03*
%TO.P,U1,14,PB0*%
%TO.N,/NTC*%
X166800000Y15325000D03*
%TO.P,U1,15,PB1*%
%TO.N,/BATT_SENSE*%
X166000000Y15325000D03*
%TO.P,U1,16,VSS*%
%TO.N,GNDREF*%
X165200000Y15325000D03*
D26*
%TO.P,U1,17,VDDIO2*%
%TO.N,+3V3*%
X163825000Y16700000D03*
%TO.P,U1,18,PA8*%
%TO.N,/LED0*%
X163825000Y17500000D03*
%TO.P,U1,19,PA9*%
%TO.N,/LED1*%
X163825000Y18300000D03*
%TO.P,U1,20,PA10*%
%TO.N,unconnected-(U1-Pad20)*%
X163825000Y19100000D03*
%TO.P,U1,21,PA11*%
%TO.N,unconnected-(U1-Pad21)*%
X163825000Y19900000D03*
%TO.P,U1,22,PA12*%
%TO.N,unconnected-(U1-Pad22)*%
X163825000Y20700000D03*
%TO.P,U1,23,PA13*%
%TO.N,/SWDIO*%
X163825000Y21500000D03*
%TO.P,U1,24,PA14*%
%TO.N,/SWCLK*%
X163825000Y22300000D03*
D27*
%TO.P,U1,25,PA15*%
%TO.N,unconnected-(U1-Pad25)*%
X165200000Y23675000D03*
%TO.P,U1,26,PB3*%
%TO.N,unconnected-(U1-Pad26)*%
X166000000Y23675000D03*
%TO.P,U1,27,PB4*%
%TO.N,unconnected-(U1-Pad27)*%
X166800000Y23675000D03*
%TO.P,U1,28,PB5*%
%TO.N,unconnected-(U1-Pad28)*%
X167600000Y23675000D03*
%TO.P,U1,29,PB6*%
%TO.N,/Tracer*%
X168400000Y23675000D03*
%TO.P,U1,30,PB7*%
%TO.N,unconnected-(U1-Pad30)*%
X169200000Y23675000D03*
%TO.P,U1,31,PB8*%
%TO.N,/BOOT0*%
X170000000Y23675000D03*
%TO.P,U1,32,VSSA*%
%TO.N,GNDREF*%
X170800000Y23675000D03*
%TD*%
D24*
%TO.P,C3,1*%
%TO.N,/AIN1*%
X179750000Y18225000D03*
%TO.P,C3,2*%
%TO.N,GNDREF*%
X179750000Y19775000D03*
%TD*%
D19*
%TO.P,C2,1*%
%TO.N,+15V*%
X157500000Y23550000D03*
%TO.P,C2,2*%
%TO.N,GNDREF*%
X157500000Y25450000D03*
%TD*%
D28*
%TO.P,CIN1,1*%
%TO.N,+BATT*%
X135750000Y24287500D03*
%TO.P,CIN1,2*%
%TO.N,GNDPWR*%
X135750000Y21212500D03*
%TD*%
D29*
%TO.P,TJ1,1*%
%TO.N,+15V*%
X152537500Y15000000D03*
%TO.P,TJ1,2*%
%TO.N,GNDREF*%
X155462500Y15000000D03*
%TD*%
D16*
%TO.P,R3,1*%
%TO.N,/AIN1*%
X175000000Y18425000D03*
%TO.P,R3,2*%
%TO.N,+3V3*%
X175000000Y20075000D03*
%TD*%
D30*
%TO.P,J1,1,Pin_1*%
%TO.N,+BATT*%
X143500000Y22500000D03*
%TD*%
D18*
%TO.P,R9,1*%
%TO.N,/CONF*%
X180500000Y23825000D03*
%TO.P,R9,2*%
%TO.N,+3V3*%
X180500000Y22175000D03*
%TD*%
D14*
%TO.P,J2,1,Pin_1*%
%TO.N,GNDPWR*%
X141250000Y10000000D03*
%TD*%
D22*
%TO.P,L1,1,1*%
%TO.N,+15V*%
X159500000Y23062500D03*
%TO.P,L1,2,2*%
%TO.N,Net-(C4-Pad1)*%
X159500000Y20937500D03*
%TD*%
D18*
%TO.P,R17,1*%
%TO.N,GNDREF*%
X150000000Y22325000D03*
%TO.P,R17,2*%
%TO.N,+15V*%
X150000000Y20675000D03*
%TD*%
D31*
%TO.P,U5,1*%
%TO.N,/ISENSE_RUN*%
X150637500Y18450000D03*
%TO.P,U5,2,GND*%
%TO.N,GNDREF*%
X150637500Y17500000D03*
%TO.P,U5,3,+*%
%TO.N,+15V*%
X150637500Y16550000D03*
%TO.P,U5,4,-*%
%TO.N,/M+*%
X148362500Y16550000D03*
%TO.P,U5,5,V+*%
%TO.N,+3V3*%
X148362500Y18450000D03*
%TD*%
D24*
%TO.P,C7,1*%
%TO.N,/PREC*%
X182000000Y10225000D03*
%TO.P,C7,2*%
%TO.N,GNDREF*%
X182000000Y11775000D03*
%TD*%
D32*
%TO.P,R19,1*%
%TO.N,/NTC*%
X160175000Y14500000D03*
%TO.P,R19,2*%
%TO.N,+3V3*%
X161825000Y14500000D03*
%TD*%
D17*
%TO.P,C4,1*%
%TO.N,Net-(C4-Pad1)*%
X157500000Y17950000D03*
%TO.P,C4,2*%
%TO.N,GNDREF*%
X157500000Y16050000D03*
%TD*%
%TO.P,C10,1*%
%TO.N,+5V*%
X161500000Y17950000D03*
%TO.P,C10,2*%
%TO.N,GNDREF*%
X161500000Y16050000D03*
%TD*%
D16*
%TO.P,R7,1*%
%TO.N,/PREC*%
X180500000Y10175000D03*
%TO.P,R7,2*%
%TO.N,+3V3*%
X180500000Y11825000D03*
%TD*%
D33*
%TO.N,*%
X173000000Y10500000D03*
D34*
%TO.N,+15V*%
X153000000Y15250000D03*
X152000000Y14250000D03*
X153000000Y17250000D03*
X153000000Y18250000D03*
X153000000Y13250000D03*
X155000000Y17250000D03*
X155000000Y18250000D03*
X154000000Y13250000D03*
X168500000Y8500000D03*
X154000000Y17250000D03*
X152000000Y15250000D03*
X154000000Y18250000D03*
X153000000Y14250000D03*
%TO.N,/M+*%
X147000000Y15500000D03*
X144000000Y15500000D03*
X145000000Y15500000D03*
X146000000Y14500000D03*
X151025000Y10500000D03*
X146000000Y15500000D03*
X147000000Y14500000D03*
X145000000Y14500000D03*
X144000000Y14500000D03*
X148000000Y15500000D03*
X148000000Y14500000D03*
%TO.N,+3V3*%
X165500000Y20000000D03*
X176000000Y22000000D03*
X147000000Y20000000D03*
X162500000Y14500000D03*
X174000000Y20000000D03*
%TO.N,/LED0*%
X165250000Y17000000D03*
%TO.N,/LED1*%
X165250000Y18500000D03*
%TO.N,/Tracer-*%
X176000000Y24000000D03*
%TO.N,/BOOT0*%
X168000000Y22000000D03*
%TO.N,/RESET*%
X168000000Y20500000D03*
X171000000Y20000000D03*
%TO.N,+5V*%
X161500000Y18500000D03*
X162000000Y21500000D03*
%TO.N,/CONF*%
X182000000Y25500000D03*
%TO.N,/HB_HIGH*%
X146750000Y9750000D03*
%TO.N,/HB_LOW*%
X145250000Y9750000D03*
%TO.N,/Tracer*%
X166500000Y25250000D03*
%TO.N,/ISENSE_RUN_LP*%
X170000000Y17000000D03*
X168000000Y13000000D03*
%TO.N,/BATT_SENSE*%
X166000000Y10500000D03*
X165000000Y13000000D03*
%TO.N,/SWDIO*%
X166500000Y22000000D03*
%TO.N,/SWCLK*%
X164997817Y25250000D03*
%TO.N,GNDPWR*%
X136500000Y9500000D03*
X139500000Y10750000D03*
X137500000Y9500000D03*
X141500000Y9500000D03*
X135250000Y10750000D03*
X135250000Y9500000D03*
X138500000Y9500000D03*
X141500000Y10750000D03*
X138500000Y10750000D03*
X140500000Y9500000D03*
X140500000Y10750000D03*
X137500000Y10750000D03*
X139500000Y9500000D03*
X161000000Y8500000D03*
X136250000Y10750000D03*
%TO.N,GNDREF*%
X173500000Y23000000D03*
X179500000Y24500000D03*
X170500000Y18250000D03*
X175500000Y13000000D03*
X182000000Y20500000D03*
X179500000Y9000000D03*
X163750000Y10250000D03*
X182000000Y13500000D03*
X175500000Y23000000D03*
X169750000Y9750000D03*
X163750000Y12500000D03*
X171000000Y24000000D03*
X179500000Y15000000D03*
X159000000Y9250000D03*
X173500000Y25500000D03*
X161500000Y16500000D03*
X173500000Y16000000D03*
X179500000Y21000000D03*
X166500000Y11500000D03*
X157500000Y15000000D03*
X163487701Y25012299D03*
X159400000Y13200000D03*
X176500000Y19500000D03*
X159250000Y18500000D03*
X149000000Y22000000D03*
X157500000Y25250000D03*
%TO.N,Net-(Q1-Pad1)*%
X170500000Y25500000D03*
%TO.N,Net-(R4-Pad1)*%
X160500000Y19503361D03*
%TO.N,/NTC*%
X161400000Y13200000D03*
X166500000Y13000000D03*
%TO.N,/ISENSE_RUN*%
X150250000Y19500000D03*
X166500000Y17000000D03*
%TO.N,/PWMH*%
X169500000Y13000000D03*
X154250000Y11000000D03*
%TO.N,/PWML*%
X169500000Y11500000D03*
X154250000Y10000000D03*
%TO.N,/PREC*%
X182000000Y8500000D03*
X171000000Y13000000D03*
%TO.N,Net-(R5-Pad1)*%
X159000000Y16500000D03*
%TO.N,Net-(C4-Pad1)*%
X159750000Y20500000D03*
%TO.N,Net-(C8-Pad2)*%
X161500000Y23000000D03*
%TO.N,Net-(C17-Pad2)*%
X148250000Y12000000D03*
%TD*%
D35*
%TO.N,+15V*%
X150075000Y20750000D02*
X153800000Y20750000D01*
X159500000Y24225000D02*
X160275000Y25000000D01*
D36*
X177550000Y10000000D02*
X177500000Y10000000D01*
D35*
X159050000Y11450000D02*
X157595000Y12905000D01*
X157500000Y23550000D02*
X154900000Y23550000D01*
D36*
X176000000Y8500000D02*
X163500000Y8500000D01*
D35*
X154900000Y23550000D02*
X153850000Y22500000D01*
D36*
X177500000Y10000000D02*
X176000000Y8500000D01*
D35*
X162725489Y9250000D02*
X162725489Y11024511D01*
X159500000Y23500000D02*
X159500000Y24225000D01*
X150000000Y20675000D02*
X150075000Y20750000D01*
X153800000Y20750000D02*
X153850000Y20800000D01*
D36*
X163500000Y8500000D02*
X162750000Y9250000D01*
D35*
X159500000Y23062500D02*
X159500000Y23500000D01*
X161000000Y11450000D02*
X159050000Y11450000D01*
X162725489Y11024511D02*
X162300000Y11450000D01*
X157500000Y23550000D02*
X158700000Y23550000D01*
X157595000Y12905000D02*
X155975000Y12905000D01*
X158750000Y23500000D02*
X159500000Y23500000D01*
X162300000Y11450000D02*
X161000000Y11450000D01*
X158700000Y23550000D02*
X158750000Y23500000D01*
%TO.N,/M+*%
X148000000Y15500000D02*
X148000000Y16187500D01*
X151025000Y10365000D02*
X150710000Y10050000D01*
X148000000Y16187500D02*
X148362500Y16550000D01*
X151025000Y10500000D02*
X151025000Y10365000D01*
X148050000Y16550000D02*
X147000000Y15500000D01*
X150710000Y10050000D02*
X148500000Y10050000D01*
X148362500Y16550000D02*
X148050000Y16550000D01*
D37*
%TO.N,+3V3*%
X172175000Y22300000D02*
X172300000Y22300000D01*
D35*
X147225000Y20225000D02*
X147000000Y20000000D01*
D37*
X174000000Y19500000D02*
X173600000Y19100000D01*
D35*
X172175000Y19100000D02*
X172174989Y19100011D01*
X175000000Y20075000D02*
X174075000Y20075000D01*
X180500000Y22175000D02*
X180500000Y20750000D01*
X163825000Y16700000D02*
X163825000Y15275000D01*
X162500000Y14500000D02*
X162950000Y14950000D01*
X162950000Y14950000D02*
X163500000Y14950000D01*
D37*
X174000000Y20000000D02*
X174000000Y19500000D01*
D35*
X169900000Y19100000D02*
X169500000Y19500000D01*
X169500000Y21000000D02*
X169500000Y19500000D01*
X177550000Y22000000D02*
X180325000Y22000000D01*
X163825000Y15275000D02*
X163500000Y14950000D01*
X174075000Y20075000D02*
X174000000Y20000000D01*
D37*
X173600000Y19100000D02*
X172175000Y19100000D01*
D35*
X180325000Y22000000D02*
X180500000Y22175000D01*
X148000000Y20225000D02*
X148000000Y19500000D01*
X172175000Y19100000D02*
X169900000Y19100000D01*
D37*
X172300000Y22300000D02*
X172500000Y22500000D01*
D35*
X180750000Y20500000D02*
X180750000Y17500000D01*
X162500000Y14500000D02*
X161825000Y14500000D01*
X148000000Y19500000D02*
X148362500Y19137500D01*
D37*
X172500000Y23725000D02*
X172500000Y22500000D01*
D35*
X148362500Y19137500D02*
X148362500Y18450000D01*
X170800000Y22300000D02*
X169500000Y21000000D01*
X148000000Y20225000D02*
X147225000Y20225000D01*
X180500000Y20750000D02*
X180750000Y20500000D01*
X180500000Y17250000D02*
X180500000Y11825000D01*
X180750000Y17500000D02*
X180500000Y17250000D01*
X172175000Y22300000D02*
X170800000Y22300000D01*
%TO.N,/LED0*%
X163825000Y17500000D02*
X164750000Y17500000D01*
X164750000Y17500000D02*
X165250000Y17000000D01*
%TO.N,/LED1*%
X165250000Y18500000D02*
X165050000Y18300000D01*
X165050000Y18300000D02*
X163825000Y18300000D01*
D37*
%TO.N,/AIN1*%
X179525000Y18000000D02*
X179750000Y18225000D01*
X172175000Y18300000D02*
X174875000Y18300000D01*
X175000000Y18425000D02*
X175787500Y18425000D01*
X175787500Y18425000D02*
X176212500Y18000000D01*
X174875000Y18300000D02*
X175000000Y18425000D01*
X177550000Y18000000D02*
X179525000Y18000000D01*
X176212500Y18000000D02*
X177550000Y18000000D01*
%TO.N,/AIN2*%
X173500000Y17500000D02*
X172175000Y17500000D01*
X175000000Y16000000D02*
X173500000Y17500000D01*
X177550000Y16000000D02*
X175000000Y16000000D01*
%TO.N,/Tracer-*%
X177550000Y24000000D02*
X176000000Y24000000D01*
%TO.N,/BOOT0*%
X168000000Y22000000D02*
X169500000Y22000000D01*
X169500000Y22000000D02*
X170000000Y22500000D01*
X170000000Y22500000D02*
X170000000Y23675000D01*
%TO.N,/RESET*%
X171100000Y19900000D02*
X172175000Y19900000D01*
X171000000Y20000000D02*
X171100000Y19900000D01*
D35*
%TO.N,+5V*%
X162500000Y22000000D02*
X162000000Y21500000D01*
X161500000Y18500000D02*
X161500000Y20937500D01*
X162000000Y25000000D02*
X162500000Y24500000D01*
X162000000Y21500000D02*
X162000000Y21437500D01*
X162000000Y21437500D02*
X161500000Y20937500D01*
X161725000Y25000000D02*
X162000000Y25000000D01*
X162500000Y24500000D02*
X162500000Y22000000D01*
D37*
%TO.N,/CONF*%
X182000000Y23775000D02*
X180550000Y23775000D01*
X175000000Y25500000D02*
X182000000Y25500000D01*
X174000000Y21500000D02*
X174500000Y22000000D01*
X174500000Y22000000D02*
X174500000Y25000000D01*
X180550000Y23775000D02*
X180500000Y23825000D01*
X174500000Y25000000D02*
X175000000Y25500000D01*
X182000000Y23775000D02*
X182000000Y25500000D01*
X172175000Y21500000D02*
X174000000Y21500000D01*
D35*
%TO.N,/HB_HIGH*%
X149885000Y11635000D02*
X151025000Y11635000D01*
X147500000Y11000000D02*
X146750000Y10250000D01*
X146750000Y9750000D02*
X146750000Y10250000D01*
X149250000Y11000000D02*
X149885000Y11635000D01*
X147500000Y11000000D02*
X149250000Y11000000D01*
%TO.N,/HB_LOW*%
X150905489Y8975489D02*
X151025000Y9095000D01*
X146024511Y8975489D02*
X150905489Y8975489D01*
X145250000Y9750000D02*
X146024511Y8975489D01*
D37*
%TO.N,/Tracer*%
X166500000Y25250000D02*
X168000000Y25250000D01*
X168400000Y24850000D02*
X168400000Y23675000D01*
X168000000Y25250000D02*
X168400000Y24850000D01*
%TO.N,/ISENSE_RUN_LP*%
X168000000Y13000000D02*
X167600000Y13400000D01*
X167600000Y13400000D02*
X167600000Y15325000D01*
X168000000Y17000000D02*
X170000000Y17000000D01*
X167600000Y15325000D02*
X167600000Y16600000D01*
X167600000Y16600000D02*
X168000000Y17000000D01*
%TO.N,/BATT_SENSE*%
X165000000Y13000000D02*
X166000000Y14000000D01*
X166000000Y14000000D02*
X166000000Y15325000D01*
D35*
X166000000Y10500000D02*
X165825000Y10500000D01*
X165175000Y11325000D02*
X166000000Y10500000D01*
X164500000Y11325000D02*
X165175000Y11325000D01*
D37*
%TO.N,/D1{slash}Tx2*%
X177550000Y14000000D02*
X173000000Y14000000D01*
X172500000Y14500000D02*
X172500000Y15250000D01*
X172175000Y15575000D02*
X172175000Y16700000D01*
X172500000Y15250000D02*
X172175000Y15575000D01*
X173000000Y14000000D02*
X172500000Y14500000D01*
%TO.N,/D2{slash}Rx2*%
X175000000Y12000000D02*
X174000000Y13000000D01*
X172500000Y13000000D02*
X170800000Y14700000D01*
X177550000Y12000000D02*
X175000000Y12000000D01*
X170800000Y14700000D02*
X170800000Y15325000D01*
X174000000Y13000000D02*
X172500000Y13000000D01*
%TO.N,/SWDIO*%
X163825000Y21500000D02*
X166000000Y21500000D01*
X166000000Y21500000D02*
X166500000Y22000000D01*
%TO.N,/SWCLK*%
X163825000Y24077183D02*
X163825000Y22300000D01*
X164997817Y25250000D02*
X163825000Y24077183D01*
D38*
%TO.N,GNDPWR*%
X136537500Y21212500D02*
X135750000Y21212500D01*
D35*
X153750000Y8250000D02*
X144250000Y8250000D01*
X155975000Y9095000D02*
X154595000Y9095000D01*
X144250000Y8250000D02*
X142500000Y10000000D01*
X154595000Y9095000D02*
X153750000Y8250000D01*
X142500000Y10000000D02*
X141250000Y10000000D01*
D38*
X135750000Y21000000D02*
X135750000Y21212500D01*
D35*
X161000000Y8500000D02*
X161000000Y9550000D01*
%TO.N,GNDREF*%
X157500000Y15037507D02*
X157500000Y16050000D01*
X164500000Y9675000D02*
X164325000Y9675000D01*
X149000000Y22000000D02*
X149000000Y19750000D01*
X165200000Y15325000D02*
X165200000Y14475000D01*
X149000000Y22000000D02*
X149000000Y22250000D01*
X148050000Y22325000D02*
X148000000Y22275000D01*
X177775000Y19775000D02*
X177550000Y20000000D01*
D37*
X171000000Y24000000D02*
X171000000Y23875000D01*
X163500000Y12750000D02*
X163750000Y12500000D01*
D35*
X164325000Y9675000D02*
X163750000Y10250000D01*
X157500000Y25250000D02*
X157500000Y25450000D01*
X149075000Y22325000D02*
X148050000Y22325000D01*
X179750000Y19775000D02*
X177775000Y19775000D01*
X149500000Y18000000D02*
X150000000Y17500000D01*
D37*
X163500000Y13050000D02*
X163500000Y12750000D01*
D35*
X157500000Y15000000D02*
X155462500Y15000000D01*
X182000000Y11775000D02*
X182000000Y13500000D01*
X182000000Y22225000D02*
X182000000Y20500000D01*
X159250000Y18325000D02*
X159250000Y18500000D01*
X179525000Y20000000D02*
X179750000Y19775000D01*
X177550000Y20000000D02*
X179525000Y20000000D01*
X149000000Y22250000D02*
X149075000Y22325000D01*
X149500000Y19250000D02*
X149500000Y18000000D01*
X150000000Y17500000D02*
X150637500Y17500000D01*
X149000000Y19750000D02*
X149500000Y19250000D01*
D37*
X157175000Y15000000D02*
X157500000Y15000000D01*
D35*
X163775000Y13050000D02*
X163500000Y13050000D01*
X150000000Y22325000D02*
X149075000Y22325000D01*
D37*
X171000000Y23875000D02*
X170800000Y23675000D01*
D35*
X165200000Y14475000D02*
X163775000Y13050000D01*
%TO.N,Net-(R4-Pad1)*%
X160524511Y21475489D02*
X159925000Y22075000D01*
X159925000Y22075000D02*
X157500000Y22075000D01*
X160524511Y19527872D02*
X160524511Y21475489D01*
X160500000Y19503361D02*
X160524511Y19527872D01*
D37*
%TO.N,/NTC*%
X161400000Y13275000D02*
X160175000Y14500000D01*
X166800000Y13300000D02*
X166800000Y15325000D01*
X161400000Y13200000D02*
X161400000Y13275000D01*
D35*
X160175000Y14500000D02*
X158825000Y14500000D01*
D37*
X166500000Y13000000D02*
X166800000Y13300000D01*
D35*
%TO.N,/ISENSE_RUN*%
X150250000Y19500000D02*
X150637500Y19112500D01*
X150637500Y19112500D02*
X150637500Y18450000D01*
%TO.N,/PWMH*%
X154885000Y11635000D02*
X154250000Y11000000D01*
X155975000Y11635000D02*
X154885000Y11635000D01*
D37*
X169500000Y14000000D02*
X169200000Y14300000D01*
X169200000Y14300000D02*
X169200000Y15325000D01*
X169500000Y13000000D02*
X169500000Y14000000D01*
%TO.N,/PWML*%
X168724511Y12275489D02*
X169500000Y11500000D01*
D35*
X155115000Y10365000D02*
X154750000Y10000000D01*
X155365000Y10365000D02*
X155115000Y10365000D01*
X154750000Y10000000D02*
X154250000Y10000000D01*
D37*
X168724511Y13775489D02*
X168724511Y12275489D01*
X168400000Y15325000D02*
X168400000Y14100000D01*
D35*
X155975000Y10365000D02*
X155365000Y10365000D01*
D37*
X168400000Y14100000D02*
X168724511Y13775489D01*
%TO.N,/PREC*%
X170000000Y15325000D02*
X170000000Y14500000D01*
X170000000Y14500000D02*
X171000000Y13500000D01*
X182000000Y10225000D02*
X182000000Y8500000D01*
X180500000Y10175000D02*
X181950000Y10175000D01*
X171000000Y13500000D02*
X171000000Y13000000D01*
X181950000Y10175000D02*
X182000000Y10225000D01*
D35*
%TO.N,Net-(R5-Pad1)*%
X159325000Y16175000D02*
X159000000Y16500000D01*
X159750000Y16175000D02*
X159325000Y16175000D01*
%TO.N,Net-(C4-Pad1)*%
X157500000Y18450000D02*
X157500000Y20425000D01*
X159500000Y20750000D02*
X159750000Y20500000D01*
X158012500Y20937500D02*
X159500000Y20937500D01*
X157500000Y20425000D02*
X158012500Y20937500D01*
X159500000Y20750000D02*
X159500000Y20937500D01*
%TO.N,Net-(C17-Pad2)*%
X148700000Y11950000D02*
X149655000Y12905000D01*
X148250000Y12000000D02*
X148300000Y11950000D01*
X148300000Y11950000D02*
X148500000Y11950000D01*
X148500000Y11950000D02*
X148700000Y11950000D01*
X149655000Y12905000D02*
X151025000Y12905000D01*
%TD*%
%TA.AperFunction,Conductor*%
%TO.N,/M+*%
G36*
X146015677Y18230315D02*
G01*
X146036319Y18213681D01*
X147250000Y17000000D01*
X148448638Y17000000D01*
X148515677Y16980315D01*
X148536319Y16963681D01*
X148963681Y16536319D01*
X148997166Y16474996D01*
X149000000Y16448638D01*
X149000000Y13801362D01*
X148980315Y13734323D01*
X148963681Y13713681D01*
X148536319Y13286319D01*
X148474996Y13252834D01*
X148448638Y13250000D01*
X145250000Y13250000D01*
X145036319Y13036319D01*
X144974996Y13002834D01*
X144948638Y13000000D01*
X142500000Y13000000D01*
X142036319Y12536319D01*
X141974996Y12502834D01*
X141948638Y12500000D01*
X139051362Y12500000D01*
X138984323Y12519685D01*
X138963681Y12536319D01*
X138536319Y12963681D01*
X138502834Y13025004D01*
X138500000Y13051362D01*
X138500000Y17698638D01*
X138519685Y17765677D01*
X138536319Y17786319D01*
X138963681Y18213681D01*
X139025004Y18247166D01*
X139051362Y18250000D01*
X145948638Y18250000D01*
X146015677Y18230315D01*
G37*
%TD.AperFunction*%
%TD*%
%TA.AperFunction,Conductor*%
%TO.N,+BATT*%
G36*
X144866431Y25879498D02*
G01*
X144887405Y25862595D01*
X145213095Y25536905D01*
X145247121Y25474593D01*
X145250000Y25447810D01*
X145250000Y19552190D01*
X145229998Y19484069D01*
X145213095Y19463095D01*
X144786905Y19036905D01*
X144724593Y19002879D01*
X144697810Y19000000D01*
X139052190Y19000000D01*
X138984069Y19020002D01*
X138963095Y19036905D01*
X138036905Y19963095D01*
X138002879Y20025407D01*
X138000000Y20052190D01*
X138000000Y23250000D01*
X137500000Y23750000D01*
X134876000Y23750000D01*
X134807879Y23770002D01*
X134761386Y23823658D01*
X134750000Y23876000D01*
X134750000Y24624000D01*
X134770002Y24692121D01*
X134823658Y24738614D01*
X134876000Y24750000D01*
X137500000Y24750000D01*
X138612595Y25862595D01*
X138674907Y25896621D01*
X138701690Y25899500D01*
X144798310Y25899500D01*
X144866431Y25879498D01*
G37*
%TD.AperFunction*%
%TD*%
%TA.AperFunction,Conductor*%
%TO.N,GNDREF*%
G36*
X157705701Y11767840D02*
G01*
X157712180Y11761808D01*
X158491449Y10982539D01*
X158503637Y10968357D01*
X158515791Y10951842D01*
X158521281Y10947178D01*
X158554207Y10919205D01*
X158561603Y10912385D01*
X158566949Y10907039D01*
X158588251Y10890185D01*
X158591549Y10887481D01*
X158644720Y10842308D01*
X158651139Y10839030D01*
X158655776Y10835938D01*
X158660520Y10833008D01*
X158666175Y10828534D01*
X158672707Y10825481D01*
X158672709Y10825480D01*
X158729376Y10798995D01*
X158733263Y10797095D01*
X158788971Y10768650D01*
X158795389Y10765373D01*
X158802386Y10763661D01*
X158807623Y10761713D01*
X158812914Y10759953D01*
X158819438Y10756904D01*
X158826489Y10755437D01*
X158826490Y10755437D01*
X158887755Y10742694D01*
X158891965Y10741741D01*
X158959717Y10725162D01*
X158965225Y10724820D01*
X158965227Y10724820D01*
X158970388Y10724500D01*
X158970387Y10724476D01*
X158974691Y10724217D01*
X158978015Y10723920D01*
X158985069Y10722453D01*
X159059056Y10724455D01*
X159062410Y10724500D01*
X159820567Y10724500D01*
X159887606Y10704815D01*
X159917475Y10677862D01*
X159940991Y10648405D01*
X159955380Y10630380D01*
X159997311Y10596907D01*
X160037421Y10539699D01*
X160040236Y10469886D01*
X160004860Y10409634D01*
X159997318Y10403099D01*
X159955380Y10369620D01*
X159843336Y10229266D01*
X159765173Y10067577D01*
X159763613Y10060820D01*
X159730692Y9918221D01*
X159724774Y9892589D01*
X159724500Y9887837D01*
X159724501Y9212164D01*
X159724774Y9207411D01*
X159765173Y9032423D01*
X159843336Y8870734D01*
X159955380Y8730380D01*
X160006480Y8689587D01*
X160046590Y8632381D01*
X160052344Y8578859D01*
X160044994Y8513335D01*
X160060592Y8327586D01*
X160062261Y8321765D01*
X160062263Y8321755D01*
X160094687Y8208679D01*
X160094244Y8138811D01*
X160056097Y8080274D01*
X159992359Y8051653D01*
X159975491Y8050500D01*
X157098595Y8050500D01*
X157031556Y8070185D01*
X156985801Y8122989D01*
X156975857Y8192147D01*
X157004882Y8255703D01*
X157061514Y8292826D01*
X157066578Y8294413D01*
X157090383Y8301873D01*
X157096775Y8305744D01*
X157096779Y8305746D01*
X157229013Y8385830D01*
X157235408Y8389703D01*
X157355297Y8509592D01*
X157398165Y8580376D01*
X157439254Y8648221D01*
X157439256Y8648225D01*
X157443127Y8654617D01*
X157493829Y8816406D01*
X157500500Y8889007D01*
X157500499Y9300992D01*
X157493829Y9373594D01*
X157485968Y9398680D01*
X157468761Y9453584D01*
X157443127Y9535383D01*
X157439256Y9541775D01*
X157439254Y9541779D01*
X157364165Y9665765D01*
X157346274Y9733305D01*
X157364165Y9794235D01*
X157439254Y9918221D01*
X157439256Y9918225D01*
X157443127Y9924617D01*
X157493829Y10086406D01*
X157500500Y10159007D01*
X157500499Y10570992D01*
X157494870Y10632262D01*
X157494431Y10637042D01*
X157494431Y10637043D01*
X157493829Y10643594D01*
X157491514Y10650983D01*
X157474643Y10704815D01*
X157443127Y10805383D01*
X157439256Y10811775D01*
X157439254Y10811779D01*
X157364165Y10935765D01*
X157346274Y11003305D01*
X157364165Y11064235D01*
X157439254Y11188221D01*
X157439256Y11188225D01*
X157443127Y11194617D01*
X157493829Y11356406D01*
X157500500Y11429007D01*
X157500499Y11674127D01*
X157520183Y11741166D01*
X157572987Y11786921D01*
X157642146Y11796865D01*
X157705701Y11767840D01*
G37*
%TD.AperFunction*%
%TA.AperFunction,Conductor*%
G36*
X179140997Y17312139D02*
G01*
X179240779Y17263902D01*
X179247533Y17262343D01*
X179247535Y17262342D01*
X179405186Y17225946D01*
X179410302Y17224765D01*
X179414898Y17224500D01*
X179650500Y17224500D01*
X179717539Y17204815D01*
X179763294Y17152011D01*
X179774500Y17100500D01*
X179774500Y12687344D01*
X179754815Y12620305D01*
X179738258Y12599739D01*
X179638919Y12500226D01*
X179632016Y12493311D01*
X179628237Y12487180D01*
X179628236Y12487179D01*
X179611376Y12459827D01*
X179540186Y12344334D01*
X179485090Y12178228D01*
X179480044Y12128980D01*
X179475370Y12083353D01*
X179474500Y12074866D01*
X179474500Y11575134D01*
X179485359Y11470481D01*
X179487507Y11464044D01*
X179487507Y11464042D01*
X179531374Y11332555D01*
X179540744Y11304471D01*
X179544534Y11298347D01*
X179629043Y11161780D01*
X179629046Y11161776D01*
X179632834Y11155655D01*
X179637931Y11150567D01*
X179637934Y11150563D01*
X179700837Y11087770D01*
X179734376Y11026476D01*
X179729453Y10956780D01*
X179700991Y10912408D01*
X179637109Y10848413D01*
X179632016Y10843311D01*
X179628237Y10837180D01*
X179628236Y10837179D01*
X179608075Y10804471D01*
X179540186Y10694334D01*
X179485090Y10528228D01*
X179480990Y10488210D01*
X179476070Y10440186D01*
X179474500Y10424866D01*
X179474500Y9925134D01*
X179485359Y9820481D01*
X179487507Y9814044D01*
X179487507Y9814042D01*
X179526770Y9696355D01*
X179540744Y9654471D01*
X179560276Y9622908D01*
X179629043Y9511780D01*
X179629046Y9511776D01*
X179632834Y9505655D01*
X179756689Y9382016D01*
X179762820Y9378237D01*
X179762821Y9378236D01*
X179801032Y9354683D01*
X179905666Y9290186D01*
X180071772Y9235090D01*
X180126316Y9229502D01*
X180171987Y9224822D01*
X180171995Y9224822D01*
X180175134Y9224500D01*
X180824866Y9224500D01*
X180929519Y9235359D01*
X180935956Y9237507D01*
X180935958Y9237507D01*
X181088695Y9288464D01*
X181095529Y9290744D01*
X181109183Y9299193D01*
X181119538Y9305601D01*
X181186904Y9324139D01*
X181253598Y9303313D01*
X181298445Y9249736D01*
X181307207Y9180418D01*
X181279777Y9120451D01*
X181215836Y9044249D01*
X181215832Y9044244D01*
X181211935Y9039599D01*
X181122135Y8876254D01*
X181120303Y8870479D01*
X181075460Y8729115D01*
X181065772Y8698576D01*
X181065096Y8692548D01*
X181048457Y8544206D01*
X181044994Y8513335D01*
X181060592Y8327586D01*
X181062261Y8321765D01*
X181062263Y8321755D01*
X181094687Y8208679D01*
X181094244Y8138811D01*
X181056097Y8080274D01*
X180992359Y8051653D01*
X180975491Y8050500D01*
X176911229Y8050500D01*
X176844190Y8070185D01*
X176798435Y8122989D01*
X176788491Y8192147D01*
X176817516Y8255703D01*
X176823548Y8262181D01*
X177274548Y8713181D01*
X177335871Y8746666D01*
X177362229Y8749500D01*
X177806630Y8749500D01*
X177809373Y8749745D01*
X177809377Y8749745D01*
X177966839Y8763798D01*
X177966841Y8763798D01*
X177972339Y8764289D01*
X178187651Y8823192D01*
X178192630Y8825567D01*
X178192633Y8825568D01*
X178384148Y8916916D01*
X178384150Y8916917D01*
X178389129Y8919292D01*
X178471295Y8978334D01*
X178565920Y9046329D01*
X178565921Y9046330D01*
X178570405Y9049552D01*
X178725749Y9209854D01*
X178735807Y9224822D01*
X178847173Y9390552D01*
X178847176Y9390557D01*
X178850250Y9395132D01*
X178939974Y9599529D01*
X178992085Y9816585D01*
X178997010Y9902012D01*
X179004616Y10033921D01*
X179004616Y10033922D01*
X179004934Y10039438D01*
X178990121Y10161847D01*
X178978781Y10255560D01*
X178978780Y10255564D01*
X178978117Y10261044D01*
X178939873Y10385359D01*
X178914106Y10469119D01*
X178914104Y10469123D01*
X178912481Y10474400D01*
X178900202Y10498191D01*
X178812633Y10667850D01*
X178812632Y10667852D01*
X178810099Y10672759D01*
X178736520Y10768650D01*
X178677570Y10845476D01*
X178677566Y10845480D01*
X178674210Y10849854D01*
X178610850Y10907507D01*
X178574513Y10967184D01*
X178576209Y11037033D01*
X178605255Y11085514D01*
X178663027Y11145130D01*
X178725749Y11209854D01*
X178736263Y11225500D01*
X178847173Y11390552D01*
X178847176Y11390557D01*
X178850250Y11395132D01*
X178939974Y11599529D01*
X178992085Y11816585D01*
X178994739Y11862615D01*
X179004616Y12033921D01*
X179004616Y12033922D01*
X179004934Y12039438D01*
X178987005Y12187597D01*
X178978781Y12255560D01*
X178978780Y12255564D01*
X178978117Y12261044D01*
X178959796Y12320599D01*
X178914106Y12469119D01*
X178914104Y12469123D01*
X178912481Y12474400D01*
X178902187Y12494345D01*
X178812633Y12667850D01*
X178812632Y12667852D01*
X178810099Y12672759D01*
X178723545Y12785559D01*
X178677570Y12845476D01*
X178677566Y12845480D01*
X178674210Y12849854D01*
X178610850Y12907507D01*
X178574513Y12967184D01*
X178576209Y13037033D01*
X178605255Y13085514D01*
X178640373Y13121753D01*
X178725749Y13209854D01*
X178733172Y13220900D01*
X178847173Y13390552D01*
X178847176Y13390557D01*
X178850250Y13395132D01*
X178939974Y13599529D01*
X178992085Y13816585D01*
X179000030Y13954386D01*
X179004616Y14033921D01*
X179004616Y14033922D01*
X179004934Y14039438D01*
X178978117Y14261044D01*
X178962138Y14312986D01*
X178914106Y14469119D01*
X178914104Y14469123D01*
X178912481Y14474400D01*
X178841376Y14612163D01*
X178812633Y14667850D01*
X178812632Y14667852D01*
X178810099Y14672759D01*
X178723545Y14785559D01*
X178677570Y14845476D01*
X178677566Y14845480D01*
X178674210Y14849854D01*
X178610850Y14907507D01*
X178574513Y14967184D01*
X178576209Y15037033D01*
X178605255Y15085514D01*
X178643522Y15125003D01*
X178725749Y15209854D01*
X178730525Y15216961D01*
X178847173Y15390552D01*
X178847176Y15390557D01*
X178850250Y15395132D01*
X178939974Y15599529D01*
X178992085Y15816585D01*
X178994276Y15854580D01*
X179004616Y16033921D01*
X179004616Y16033922D01*
X179004934Y16039438D01*
X178978117Y16261044D01*
X178957646Y16327586D01*
X178914106Y16469119D01*
X178914104Y16469123D01*
X178912481Y16474400D01*
X178810099Y16672759D01*
X178745722Y16756657D01*
X178677570Y16845476D01*
X178677566Y16845480D01*
X178674210Y16849854D01*
X178610850Y16907507D01*
X178574513Y16967184D01*
X178576209Y17037033D01*
X178605255Y17085514D01*
X178648733Y17130380D01*
X178725749Y17209854D01*
X178765937Y17269660D01*
X178819666Y17314325D01*
X178868858Y17324500D01*
X179087028Y17324500D01*
X179140997Y17312139D01*
G37*
%TD.AperFunction*%
%TA.AperFunction,Conductor*%
G36*
X183015677Y13480315D02*
G01*
X183036319Y13463681D01*
X183413181Y13086819D01*
X183446666Y13025496D01*
X183449500Y12999138D01*
X183449500Y8544206D01*
X183448439Y8528020D01*
X183444750Y8500000D01*
X183445335Y8495553D01*
X183426126Y8430134D01*
X183409492Y8409492D01*
X183124308Y8124308D01*
X183062985Y8090823D01*
X182993293Y8095807D01*
X182937360Y8137679D01*
X182912943Y8203143D01*
X182918967Y8251130D01*
X182929449Y8282641D01*
X182929450Y8282645D01*
X182931364Y8288399D01*
X182933556Y8305746D01*
X182947841Y8418825D01*
X182954727Y8473332D01*
X182955099Y8500000D01*
X182954309Y8508059D01*
X182937501Y8679477D01*
X182937501Y8679479D01*
X182936909Y8685513D01*
X182883033Y8863960D01*
X182871219Y8886180D01*
X182798371Y9023186D01*
X182798371Y9023187D01*
X182795522Y9028544D01*
X182720564Y9120451D01*
X182703407Y9141488D01*
X182676290Y9205881D01*
X182675500Y9219860D01*
X182675500Y9287644D01*
X182695185Y9354683D01*
X182722134Y9384548D01*
X182801831Y9448169D01*
X182809318Y9457547D01*
X182906054Y9578727D01*
X182906054Y9578728D01*
X182910375Y9584140D01*
X182915372Y9594475D01*
X182968097Y9703543D01*
X182986098Y9740779D01*
X182988036Y9749171D01*
X183024054Y9905186D01*
X183024054Y9905187D01*
X183025235Y9910302D01*
X183025500Y9914898D01*
X183025500Y10535102D01*
X183025235Y10539698D01*
X183018890Y10567181D01*
X182987658Y10702465D01*
X182987657Y10702467D01*
X182986098Y10709221D01*
X182928419Y10828534D01*
X182913391Y10859622D01*
X182913389Y10859625D01*
X182910375Y10865860D01*
X182871558Y10914486D01*
X182806153Y10996417D01*
X182801831Y11001831D01*
X182796417Y11006153D01*
X182796412Y11006158D01*
X182743300Y11048557D01*
X182703188Y11105765D01*
X182700373Y11175578D01*
X182722285Y11220951D01*
X182747313Y11253568D01*
X182755373Y11267530D01*
X182807088Y11392382D01*
X182811146Y11407527D01*
X182809001Y11421282D01*
X182796053Y11425000D01*
X181774000Y11425000D01*
X181706961Y11444685D01*
X181661206Y11497489D01*
X181650000Y11549000D01*
X181650000Y12142830D01*
X182350000Y12142830D01*
X182354404Y12127831D01*
X182355774Y12126644D01*
X182363332Y12125000D01*
X182795675Y12125000D01*
X182809230Y12128980D01*
X182811214Y12142220D01*
X182807088Y12157618D01*
X182755373Y12282470D01*
X182747315Y12296428D01*
X182665039Y12403652D01*
X182653652Y12415039D01*
X182546428Y12497315D01*
X182532470Y12505373D01*
X182407614Y12557090D01*
X182392049Y12561261D01*
X182367675Y12564470D01*
X182353719Y12562294D01*
X182350000Y12549343D01*
X182350000Y12142830D01*
X181650000Y12142830D01*
X181650000Y12548967D01*
X181646020Y12562522D01*
X181632695Y12564519D01*
X181607951Y12561261D01*
X181592386Y12557090D01*
X181465265Y12504435D01*
X181395796Y12496966D01*
X181330209Y12531237D01*
X181261895Y12599433D01*
X181228357Y12660726D01*
X181225500Y12687190D01*
X181225500Y13376000D01*
X181245185Y13443039D01*
X181297989Y13488794D01*
X181349500Y13500000D01*
X182948638Y13500000D01*
X183015677Y13480315D01*
G37*
%TD.AperFunction*%
%TA.AperFunction,Conductor*%
G36*
X167297474Y12341256D02*
G01*
X167331680Y12320599D01*
X167395451Y12266326D01*
X167454912Y12215721D01*
X167460210Y12212760D01*
X167586427Y12142220D01*
X167617627Y12124783D01*
X167656132Y12112272D01*
X167780984Y12071705D01*
X167794907Y12067181D01*
X167800928Y12066463D01*
X167973976Y12045828D01*
X167973977Y12045828D01*
X167979998Y12045110D01*
X167993666Y12046162D01*
X168062016Y12031677D01*
X168111686Y11982538D01*
X168118199Y11968456D01*
X168118841Y11967227D01*
X168121484Y11960234D01*
X168125721Y11954070D01*
X168127904Y11949894D01*
X168133410Y11940000D01*
X168135807Y11935947D01*
X168138810Y11929106D01*
X168143361Y11923175D01*
X168175828Y11880863D01*
X168179643Y11875612D01*
X168209856Y11831652D01*
X168214090Y11825492D01*
X168251163Y11792461D01*
X168258361Y11786048D01*
X168263553Y11781146D01*
X168514156Y11530543D01*
X168547641Y11469220D01*
X168550040Y11453239D01*
X168552724Y11421282D01*
X168560592Y11327586D01*
X168591169Y11220951D01*
X168609596Y11156689D01*
X168611971Y11148405D01*
X168614743Y11143011D01*
X168614744Y11143009D01*
X168690083Y10996417D01*
X168697176Y10982615D01*
X168812959Y10836532D01*
X168862804Y10794111D01*
X168944650Y10724455D01*
X168954912Y10715721D01*
X168960210Y10712760D01*
X169085008Y10643013D01*
X169117627Y10624783D01*
X169123399Y10622908D01*
X169123398Y10622908D01*
X169284311Y10570624D01*
X169294907Y10567181D01*
X169479998Y10545110D01*
X169486041Y10545575D01*
X169486043Y10545575D01*
X169543482Y10549995D01*
X169665851Y10559411D01*
X169792426Y10594751D01*
X169839547Y10607907D01*
X169839551Y10607909D01*
X169845387Y10609538D01*
X170011768Y10693583D01*
X170016547Y10697317D01*
X170016552Y10697320D01*
X170098970Y10761713D01*
X170158655Y10808344D01*
X170280454Y10949450D01*
X170285109Y10957643D01*
X170369530Y11106252D01*
X170372526Y11111526D01*
X170431364Y11288399D01*
X170433395Y11304471D01*
X170451467Y11447528D01*
X170454727Y11473332D01*
X170455099Y11500000D01*
X170450561Y11546283D01*
X170437501Y11679477D01*
X170437501Y11679479D01*
X170436909Y11685513D01*
X170383033Y11863960D01*
X170348969Y11928026D01*
X170298371Y12023186D01*
X170298371Y12023187D01*
X170295522Y12028544D01*
X170290794Y12034341D01*
X170290507Y12035022D01*
X170288332Y12038296D01*
X170288954Y12038710D01*
X170263678Y12098735D01*
X170275681Y12167566D01*
X170322991Y12218981D01*
X170390588Y12236657D01*
X170454780Y12215485D01*
X170454912Y12215721D01*
X170526373Y12175783D01*
X170573507Y12149441D01*
X170617627Y12124783D01*
X170656132Y12112272D01*
X170780984Y12071705D01*
X170794907Y12067181D01*
X170979998Y12045110D01*
X170986041Y12045575D01*
X170986043Y12045575D01*
X171063106Y12051505D01*
X171165851Y12059411D01*
X171263221Y12086597D01*
X171339547Y12107907D01*
X171339551Y12107909D01*
X171345387Y12109538D01*
X171350794Y12112269D01*
X171350801Y12112272D01*
X171390062Y12132105D01*
X171458776Y12144762D01*
X171523424Y12118261D01*
X171563482Y12061014D01*
X171566232Y11991199D01*
X171535919Y11936070D01*
X171416371Y11810092D01*
X171413909Y11806666D01*
X171413905Y11806661D01*
X171336875Y11699462D01*
X171253223Y11583048D01*
X171244133Y11565879D01*
X171133223Y11356406D01*
X171122398Y11335962D01*
X171083209Y11228873D01*
X171031573Y11087770D01*
X171026317Y11073408D01*
X171025420Y11069294D01*
X170967878Y10805383D01*
X170966757Y10800243D01*
X170944822Y10521523D01*
X170960916Y10242404D01*
X170961729Y10238262D01*
X170961729Y10238259D01*
X171011884Y9982615D01*
X171014741Y9968052D01*
X171016107Y9964061D01*
X171016109Y9964055D01*
X171089681Y9749171D01*
X171105303Y9703543D01*
X171136906Y9640707D01*
X171207390Y9500567D01*
X171230925Y9453772D01*
X171234776Y9448169D01*
X171237135Y9444737D01*
X171258886Y9378339D01*
X171241286Y9310722D01*
X171189924Y9263355D01*
X171134945Y9250500D01*
X169128666Y9250500D01*
X169061627Y9270185D01*
X169049625Y9278957D01*
X169038760Y9287946D01*
X169038756Y9287948D01*
X169034085Y9291813D01*
X168942585Y9341287D01*
X168875447Y9377589D01*
X168875443Y9377591D01*
X168870116Y9380471D01*
X168692049Y9435591D01*
X168506668Y9455076D01*
X168500635Y9454527D01*
X168500631Y9454527D01*
X168327074Y9438732D01*
X168327073Y9438732D01*
X168321032Y9438182D01*
X168315213Y9436469D01*
X168315211Y9436469D01*
X168258565Y9419797D01*
X168142214Y9385552D01*
X167977023Y9299193D01*
X167951855Y9278957D01*
X167950494Y9277863D01*
X167885913Y9251196D01*
X167872794Y9250500D01*
X165442914Y9250500D01*
X165375875Y9270185D01*
X165330120Y9322989D01*
X165319812Y9389397D01*
X165324552Y9428567D01*
X165325000Y9435996D01*
X165325000Y9576974D01*
X165344685Y9644013D01*
X165397489Y9689768D01*
X165466647Y9699712D01*
X165509491Y9685218D01*
X165617627Y9624783D01*
X165794907Y9567181D01*
X165979998Y9545110D01*
X165986041Y9545575D01*
X165986043Y9545575D01*
X166043482Y9549995D01*
X166165851Y9559411D01*
X166254421Y9584140D01*
X166339547Y9607907D01*
X166339551Y9607909D01*
X166345387Y9609538D01*
X166511768Y9693583D01*
X166516547Y9697317D01*
X166516552Y9697320D01*
X166640596Y9794235D01*
X166658655Y9808344D01*
X166780454Y9949450D01*
X166783652Y9955078D01*
X166869530Y10106252D01*
X166872526Y10111526D01*
X166931364Y10288399D01*
X166954727Y10473332D01*
X166955099Y10500000D01*
X166951378Y10537950D01*
X166937501Y10679477D01*
X166937501Y10679479D01*
X166936909Y10685513D01*
X166883033Y10863960D01*
X166875914Y10877350D01*
X166798371Y11023186D01*
X166798371Y11023187D01*
X166795522Y11028544D01*
X166677710Y11172995D01*
X166583962Y11250551D01*
X166538760Y11287946D01*
X166538757Y11287948D01*
X166534085Y11291813D01*
X166473632Y11324500D01*
X166375447Y11377589D01*
X166375443Y11377591D01*
X166370116Y11380471D01*
X166192049Y11435591D01*
X166122152Y11442938D01*
X166057538Y11469523D01*
X166047434Y11478578D01*
X165733551Y11792461D01*
X165721360Y11806646D01*
X165713478Y11817357D01*
X165709209Y11823158D01*
X165670793Y11855795D01*
X165663397Y11862615D01*
X165658051Y11867961D01*
X165636749Y11884815D01*
X165633443Y11887526D01*
X165602760Y11913594D01*
X165580280Y11932692D01*
X165573861Y11935970D01*
X165569224Y11939062D01*
X165564479Y11941993D01*
X165558825Y11946466D01*
X165551490Y11949894D01*
X165511372Y11968644D01*
X165458972Y12014862D01*
X165439879Y12082073D01*
X165460153Y12148936D01*
X165502022Y12186350D01*
X165501231Y12187597D01*
X165506354Y12190848D01*
X165511768Y12193583D01*
X165516547Y12197317D01*
X165516552Y12197320D01*
X165653875Y12304609D01*
X165653878Y12304611D01*
X165658655Y12308344D01*
X165662616Y12312933D01*
X165665802Y12315967D01*
X165727925Y12347942D01*
X165797474Y12341256D01*
X165831680Y12320599D01*
X165895451Y12266326D01*
X165954912Y12215721D01*
X165960210Y12212760D01*
X166086427Y12142220D01*
X166117627Y12124783D01*
X166156132Y12112272D01*
X166280984Y12071705D01*
X166294907Y12067181D01*
X166479998Y12045110D01*
X166486041Y12045575D01*
X166486043Y12045575D01*
X166563106Y12051505D01*
X166665851Y12059411D01*
X166763221Y12086597D01*
X166839547Y12107907D01*
X166839551Y12107909D01*
X166845387Y12109538D01*
X167011768Y12193583D01*
X167016547Y12197317D01*
X167016552Y12197320D01*
X167153875Y12304609D01*
X167153878Y12304611D01*
X167158655Y12308344D01*
X167162616Y12312933D01*
X167165802Y12315967D01*
X167227925Y12347942D01*
X167297474Y12341256D01*
G37*
%TD.AperFunction*%
%TA.AperFunction,Conductor*%
G36*
X163656192Y10631902D02*
G01*
X163662593Y10625948D01*
X163756689Y10532016D01*
X163762820Y10528237D01*
X163762821Y10528236D01*
X163773712Y10521523D01*
X163814246Y10496538D01*
X163836736Y10482675D01*
X163883476Y10430741D01*
X163894718Y10361781D01*
X163866893Y10297691D01*
X163846641Y10278347D01*
X163839162Y10272670D01*
X163827325Y10260833D01*
X163746439Y10154270D01*
X163738214Y10139674D01*
X163690281Y10018608D01*
X163647300Y9963522D01*
X163581361Y9940419D01*
X163513399Y9956632D01*
X163464991Y10007015D01*
X163450989Y10064255D01*
X163450989Y10538189D01*
X163470674Y10605228D01*
X163523478Y10650983D01*
X163592636Y10660927D01*
X163656192Y10631902D01*
G37*
%TD.AperFunction*%
%TA.AperFunction,Conductor*%
G36*
X163793039Y13380315D02*
G01*
X163838794Y13327511D01*
X163850000Y13276000D01*
X163850000Y12244637D01*
X163830315Y12177598D01*
X163791251Y12139194D01*
X163779796Y12132105D01*
X163755655Y12117166D01*
X163737328Y12098807D01*
X163648304Y12009627D01*
X163632016Y11993311D01*
X163628237Y11987180D01*
X163628236Y11987179D01*
X163602538Y11945488D01*
X163540186Y11844334D01*
X163485090Y11678228D01*
X163484400Y11671490D01*
X163475854Y11588084D01*
X163449439Y11523400D01*
X163392247Y11483266D01*
X163322435Y11480423D01*
X163267223Y11510702D01*
X163232133Y11543943D01*
X163229729Y11546283D01*
X162858551Y11917461D01*
X162846360Y11931646D01*
X162845591Y11932692D01*
X162834209Y11948158D01*
X162795793Y11980795D01*
X162788397Y11987615D01*
X162783051Y11992961D01*
X162780224Y11995197D01*
X162777541Y11997586D01*
X162778317Y11998457D01*
X162740766Y12051505D01*
X162737638Y12121304D01*
X162772743Y12181715D01*
X162834936Y12213556D01*
X162874245Y12214670D01*
X162981657Y12200529D01*
X162989730Y12200000D01*
X163132170Y12200000D01*
X163147169Y12204404D01*
X163148356Y12205774D01*
X163150000Y12213332D01*
X163150000Y13276000D01*
X163169685Y13343039D01*
X163222489Y13388794D01*
X163274000Y13400000D01*
X163726000Y13400000D01*
X163793039Y13380315D01*
G37*
%TD.AperFunction*%
%TA.AperFunction,Conductor*%
G36*
X159565036Y13596050D02*
G01*
X159649533Y13543966D01*
X159649536Y13543965D01*
X159655666Y13540186D01*
X159821772Y13485090D01*
X159868378Y13480315D01*
X159921987Y13474822D01*
X159921995Y13474822D01*
X159925134Y13474500D01*
X160193837Y13474500D01*
X160260876Y13454815D01*
X160281518Y13438181D01*
X160409385Y13310314D01*
X160442870Y13248991D01*
X160445692Y13220900D01*
X160445671Y13219368D01*
X160444994Y13213335D01*
X160460592Y13027586D01*
X160462261Y13021766D01*
X160462261Y13021765D01*
X160471829Y12988399D01*
X160511971Y12848405D01*
X160514743Y12843011D01*
X160514744Y12843009D01*
X160597176Y12682615D01*
X160595045Y12681520D01*
X160611814Y12624630D01*
X160592200Y12557569D01*
X160539444Y12511759D01*
X160487814Y12500499D01*
X160437164Y12500499D01*
X160432411Y12500226D01*
X160257423Y12459827D01*
X160095734Y12381664D01*
X159955380Y12269620D01*
X159951058Y12264206D01*
X159951057Y12264205D01*
X159917475Y12222138D01*
X159860266Y12182027D01*
X159820567Y12175500D01*
X159401874Y12175500D01*
X159334835Y12195185D01*
X159314193Y12211819D01*
X158197284Y13328728D01*
X158163799Y13390051D01*
X158168783Y13459743D01*
X158210655Y13515676D01*
X158276119Y13540093D01*
X158324002Y13534104D01*
X158471772Y13485090D01*
X158518378Y13480315D01*
X158571987Y13474822D01*
X158571995Y13474822D01*
X158575134Y13474500D01*
X159074866Y13474500D01*
X159179519Y13485359D01*
X159185956Y13487507D01*
X159185958Y13487507D01*
X159338695Y13538464D01*
X159345529Y13540744D01*
X159434720Y13595937D01*
X159502085Y13614475D01*
X159565036Y13596050D01*
G37*
%TD.AperFunction*%
%TA.AperFunction,Conductor*%
G36*
X176297893Y13304815D02*
G01*
X176329230Y13275986D01*
X176422430Y13154524D01*
X176422434Y13154520D01*
X176425790Y13150146D01*
X176429874Y13146430D01*
X176489150Y13092493D01*
X176525487Y13032816D01*
X176523791Y12962967D01*
X176494745Y12914486D01*
X176374251Y12790146D01*
X176345346Y12747131D01*
X176334063Y12730340D01*
X176280334Y12685675D01*
X176231142Y12675500D01*
X175331163Y12675500D01*
X175264124Y12695185D01*
X175243482Y12711819D01*
X174842482Y13112819D01*
X174808997Y13174142D01*
X174813981Y13243834D01*
X174855853Y13299767D01*
X174921317Y13324184D01*
X174930163Y13324500D01*
X176230854Y13324500D01*
X176297893Y13304815D01*
G37*
%TD.AperFunction*%
%TA.AperFunction,Conductor*%
G36*
X156391423Y16432603D02*
G01*
X156430718Y16405664D01*
X156450442Y16400000D01*
X157726000Y16400000D01*
X157793039Y16380315D01*
X157838794Y16327511D01*
X157850000Y16276000D01*
X157850000Y15284000D01*
X157830315Y15216961D01*
X157777511Y15171206D01*
X157726000Y15160000D01*
X157542830Y15160000D01*
X157527831Y15155596D01*
X157526644Y15154226D01*
X157525000Y15146668D01*
X157525000Y14274000D01*
X157505315Y14206961D01*
X157452511Y14161206D01*
X157401000Y14150000D01*
X156949000Y14150000D01*
X156881961Y14169685D01*
X156836206Y14222489D01*
X156825000Y14274000D01*
X156825000Y15241000D01*
X156844685Y15308039D01*
X156897489Y15353794D01*
X156949000Y15365000D01*
X157132170Y15365000D01*
X157147169Y15369404D01*
X157148356Y15370774D01*
X157150000Y15378332D01*
X157150000Y15682170D01*
X157145596Y15697169D01*
X157144226Y15698356D01*
X157136668Y15700000D01*
X156475479Y15700000D01*
X156408440Y15719685D01*
X156362685Y15772489D01*
X156358360Y15784517D01*
X156302210Y15920078D01*
X156294152Y15934036D01*
X156207869Y16046481D01*
X156196479Y16057871D01*
X156136971Y16103533D01*
X156095768Y16159961D01*
X156091613Y16229707D01*
X156125825Y16290627D01*
X156138141Y16301172D01*
X156215058Y16358752D01*
X156260408Y16404102D01*
X156321731Y16437587D01*
X156391423Y16432603D01*
G37*
%TD.AperFunction*%
%TA.AperFunction,Conductor*%
G36*
X173609448Y16425277D02*
G01*
X173643585Y16401114D01*
X174502754Y15541945D01*
X174508515Y15535779D01*
X174544683Y15494319D01*
X174593778Y15459814D01*
X174594437Y15459351D01*
X174599646Y15455482D01*
X174647503Y15417958D01*
X174654320Y15414880D01*
X174658336Y15412448D01*
X174668191Y15406826D01*
X174672331Y15404606D01*
X174678448Y15400307D01*
X174685418Y15397590D01*
X174685417Y15397590D01*
X174735111Y15378215D01*
X174741085Y15375704D01*
X174796514Y15350677D01*
X174803861Y15349315D01*
X174808355Y15347907D01*
X174819256Y15344802D01*
X174823812Y15343632D01*
X174830776Y15340917D01*
X174891080Y15332977D01*
X174897470Y15331966D01*
X174957274Y15320882D01*
X175016445Y15324294D01*
X175023584Y15324500D01*
X176230854Y15324500D01*
X176297893Y15304815D01*
X176329230Y15275986D01*
X176422430Y15154524D01*
X176422434Y15154520D01*
X176425790Y15150146D01*
X176429874Y15146430D01*
X176489150Y15092493D01*
X176525487Y15032816D01*
X176523791Y14962967D01*
X176494745Y14914486D01*
X176374251Y14790146D01*
X176342894Y14743482D01*
X176334063Y14730340D01*
X176280334Y14685675D01*
X176231142Y14675500D01*
X173331163Y14675500D01*
X173264124Y14695185D01*
X173243482Y14711819D01*
X173211819Y14743482D01*
X173178334Y14804805D01*
X173175500Y14831163D01*
X173175500Y15222303D01*
X173175787Y15230737D01*
X173179020Y15278158D01*
X173179020Y15278160D01*
X173179528Y15285613D01*
X173169072Y15345527D01*
X173168125Y15351939D01*
X173167906Y15353753D01*
X173160819Y15412313D01*
X173158177Y15419304D01*
X173157063Y15423841D01*
X173154058Y15434823D01*
X173152704Y15439308D01*
X173151418Y15446676D01*
X173147553Y15455482D01*
X173126977Y15502354D01*
X173124524Y15508365D01*
X173105670Y15558261D01*
X173105669Y15558262D01*
X173103027Y15565255D01*
X173098790Y15571419D01*
X173096607Y15575595D01*
X173091097Y15585495D01*
X173088705Y15589541D01*
X173085701Y15596383D01*
X173048671Y15644641D01*
X173044856Y15649893D01*
X173014653Y15693839D01*
X173010421Y15699997D01*
X173004728Y15705070D01*
X172980249Y15726879D01*
X172943289Y15786173D01*
X172944253Y15856036D01*
X172982835Y15914288D01*
X173025655Y15937789D01*
X173030799Y15939401D01*
X173080019Y15954826D01*
X173086407Y15958695D01*
X173086410Y15958696D01*
X173138360Y15990158D01*
X173219869Y16039521D01*
X173335479Y16155131D01*
X173396300Y16255560D01*
X173416304Y16288590D01*
X173416305Y16288593D01*
X173420174Y16294981D01*
X173422408Y16302108D01*
X173422412Y16302118D01*
X173437579Y16350515D01*
X173476411Y16408600D01*
X173540481Y16436470D01*
X173609448Y16425277D01*
G37*
%TD.AperFunction*%
%TA.AperFunction,Conductor*%
G36*
X149543334Y17875115D02*
G01*
X149587681Y17846614D01*
X149689592Y17744703D01*
X149695987Y17740830D01*
X149828221Y17660746D01*
X149828225Y17660744D01*
X149834617Y17656873D01*
X149934179Y17625672D01*
X149957620Y17618326D01*
X150015705Y17579494D01*
X150043576Y17515424D01*
X150032383Y17446457D01*
X149985681Y17394489D01*
X149957621Y17381674D01*
X149834617Y17343127D01*
X149828225Y17339256D01*
X149828221Y17339254D01*
X149702012Y17262819D01*
X149689592Y17255297D01*
X149587681Y17153386D01*
X149526358Y17119901D01*
X149456666Y17124885D01*
X149412319Y17153386D01*
X149310408Y17255297D01*
X149297988Y17262819D01*
X149171779Y17339254D01*
X149171775Y17339256D01*
X149165383Y17343127D01*
X149042380Y17381674D01*
X148984295Y17420506D01*
X148956424Y17484576D01*
X148967617Y17553543D01*
X149014319Y17605511D01*
X149042380Y17618326D01*
X149065821Y17625672D01*
X149165383Y17656873D01*
X149171775Y17660744D01*
X149171779Y17660746D01*
X149304013Y17740830D01*
X149310408Y17744703D01*
X149412319Y17846614D01*
X149473642Y17880099D01*
X149543334Y17875115D01*
G37*
%TD.AperFunction*%
%TA.AperFunction,Conductor*%
G36*
X167172781Y21227392D02*
G01*
X167223195Y21179016D01*
X167239452Y21111064D01*
X167217925Y21047299D01*
X167215836Y21044248D01*
X167211935Y21039599D01*
X167162130Y20949004D01*
X167127247Y20885552D01*
X167122135Y20876254D01*
X167120303Y20870479D01*
X167072645Y20720241D01*
X167065772Y20698576D01*
X167063106Y20674811D01*
X167048461Y20544242D01*
X167044994Y20513335D01*
X167060592Y20327586D01*
X167062261Y20321766D01*
X167062261Y20321765D01*
X167110232Y20154471D01*
X167111971Y20148405D01*
X167114743Y20143011D01*
X167114744Y20143009D01*
X167194108Y19988585D01*
X167197176Y19982615D01*
X167312959Y19836532D01*
X167454912Y19715721D01*
X167460210Y19712760D01*
X167603221Y19632834D01*
X167617627Y19624783D01*
X167794907Y19567181D01*
X167979998Y19545110D01*
X167986041Y19545575D01*
X167986043Y19545575D01*
X168043482Y19549995D01*
X168165851Y19559411D01*
X168261792Y19586198D01*
X168339547Y19607907D01*
X168339551Y19607909D01*
X168345387Y19609538D01*
X168511768Y19693583D01*
X168574160Y19742329D01*
X168639104Y19768090D01*
X168707669Y19754650D01*
X168758083Y19706275D01*
X168774500Y19644615D01*
X168774500Y19564407D01*
X168773089Y19545757D01*
X168770006Y19525492D01*
X168772309Y19497184D01*
X168774092Y19475257D01*
X168774500Y19465204D01*
X168774500Y19457637D01*
X168774916Y19454072D01*
X168777641Y19430696D01*
X168778067Y19426388D01*
X168782056Y19377349D01*
X168783721Y19356873D01*
X168785939Y19350025D01*
X168787031Y19344561D01*
X168788318Y19339119D01*
X168789152Y19331963D01*
X168791609Y19325194D01*
X168791610Y19325190D01*
X168812950Y19266399D01*
X168814355Y19262306D01*
X168833637Y19202785D01*
X168833641Y19202775D01*
X168835858Y19195933D01*
X168839589Y19189784D01*
X168841906Y19184723D01*
X168844418Y19179708D01*
X168846875Y19172939D01*
X168865472Y19144575D01*
X168885127Y19114596D01*
X168887409Y19110980D01*
X168923622Y19051302D01*
X168927274Y19047167D01*
X168927277Y19047163D01*
X168930700Y19043288D01*
X168930681Y19043272D01*
X168933539Y19040049D01*
X168935682Y19037486D01*
X168939633Y19031460D01*
X168957638Y19014404D01*
X168993356Y18980568D01*
X168995760Y18978228D01*
X169341449Y18632539D01*
X169353637Y18618357D01*
X169365791Y18601842D01*
X169383972Y18586396D01*
X169404207Y18569205D01*
X169411603Y18562385D01*
X169416949Y18557039D01*
X169419764Y18554812D01*
X169419765Y18554811D01*
X169438226Y18540205D01*
X169441550Y18537480D01*
X169494720Y18492308D01*
X169501137Y18489031D01*
X169505781Y18485934D01*
X169510526Y18483003D01*
X169516174Y18478535D01*
X169522697Y18475487D01*
X169522704Y18475482D01*
X169579379Y18448994D01*
X169583263Y18447096D01*
X169645389Y18415373D01*
X169652387Y18413660D01*
X169657634Y18411709D01*
X169662916Y18409952D01*
X169669438Y18406904D01*
X169718451Y18396710D01*
X169737746Y18392696D01*
X169741967Y18391740D01*
X169804351Y18376475D01*
X169809717Y18375162D01*
X169815225Y18374820D01*
X169815227Y18374820D01*
X169820388Y18374500D01*
X169820387Y18374477D01*
X169824688Y18374217D01*
X169828015Y18373920D01*
X169835068Y18372453D01*
X169909039Y18374455D01*
X169912393Y18374500D01*
X170750500Y18374500D01*
X170817539Y18354815D01*
X170863294Y18302011D01*
X170874500Y18250500D01*
X170874500Y18121008D01*
X170880933Y18050996D01*
X170882900Y18044720D01*
X170882900Y18044719D01*
X170916632Y17937082D01*
X170916632Y17862918D01*
X170880933Y17749004D01*
X170880331Y17742453D01*
X170880286Y17742228D01*
X170847821Y17680358D01*
X170787061Y17645863D01*
X170717296Y17649693D01*
X170678671Y17674156D01*
X170677710Y17672995D01*
X170538760Y17787946D01*
X170538757Y17787948D01*
X170534085Y17791813D01*
X170432733Y17846614D01*
X170375447Y17877589D01*
X170375443Y17877591D01*
X170370116Y17880471D01*
X170192049Y17935591D01*
X170006668Y17955076D01*
X170000635Y17954527D01*
X170000631Y17954527D01*
X169827074Y17938732D01*
X169827073Y17938732D01*
X169821032Y17938182D01*
X169815213Y17936469D01*
X169815211Y17936469D01*
X169758855Y17919882D01*
X169642214Y17885552D01*
X169477023Y17799193D01*
X169472295Y17795392D01*
X169472294Y17795391D01*
X169357212Y17702862D01*
X169292631Y17676196D01*
X169279513Y17675500D01*
X168027697Y17675500D01*
X168019263Y17675787D01*
X167971842Y17679020D01*
X167971840Y17679020D01*
X167964387Y17679528D01*
X167904473Y17669072D01*
X167898070Y17668126D01*
X167837687Y17660819D01*
X167830696Y17658177D01*
X167826159Y17657063D01*
X167815177Y17654058D01*
X167810692Y17652704D01*
X167803324Y17651418D01*
X167796479Y17648413D01*
X167796478Y17648413D01*
X167747646Y17626977D01*
X167741635Y17624524D01*
X167696347Y17607411D01*
X167684745Y17603027D01*
X167678581Y17598790D01*
X167674405Y17596607D01*
X167664505Y17591097D01*
X167660459Y17588705D01*
X167653617Y17585701D01*
X167639345Y17574750D01*
X167605360Y17548672D01*
X167600108Y17544857D01*
X167550003Y17510421D01*
X167515131Y17471281D01*
X167455838Y17434322D01*
X167385975Y17435286D01*
X167327724Y17473868D01*
X167313063Y17495554D01*
X167305009Y17510701D01*
X167295522Y17528544D01*
X167215242Y17626977D01*
X167181545Y17668293D01*
X167181544Y17668294D01*
X167177710Y17672995D01*
X167098065Y17738884D01*
X167038760Y17787946D01*
X167038757Y17787948D01*
X167034085Y17791813D01*
X166932733Y17846614D01*
X166875447Y17877589D01*
X166875443Y17877591D01*
X166870116Y17880471D01*
X166692049Y17935591D01*
X166506668Y17955076D01*
X166500635Y17954527D01*
X166500631Y17954527D01*
X166327074Y17938732D01*
X166327073Y17938732D01*
X166321032Y17938182D01*
X166315213Y17936469D01*
X166315211Y17936469D01*
X166258855Y17919882D01*
X166188985Y17919838D01*
X166130183Y17957574D01*
X166101117Y18021111D01*
X166111017Y18090276D01*
X166116020Y18100074D01*
X166122526Y18111526D01*
X166181364Y18288399D01*
X166182519Y18297536D01*
X166204292Y18469891D01*
X166204727Y18473332D01*
X166205099Y18500000D01*
X166198982Y18562385D01*
X166187501Y18679477D01*
X166187501Y18679479D01*
X166186909Y18685513D01*
X166133033Y18863960D01*
X166124003Y18880944D01*
X166048371Y19023186D01*
X166048371Y19023187D01*
X166045522Y19028544D01*
X166030201Y19047330D01*
X166003084Y19111721D01*
X166015084Y19180553D01*
X166049951Y19223415D01*
X166050882Y19224142D01*
X166158655Y19308344D01*
X166280454Y19449450D01*
X166287145Y19461227D01*
X166369530Y19606252D01*
X166372526Y19611526D01*
X166431364Y19788399D01*
X166438046Y19841287D01*
X166443850Y19887235D01*
X166454727Y19973332D01*
X166455099Y20000000D01*
X166453944Y20011780D01*
X166437501Y20179477D01*
X166437501Y20179479D01*
X166436909Y20185513D01*
X166383033Y20363960D01*
X166361929Y20403652D01*
X166298371Y20523186D01*
X166298371Y20523187D01*
X166295522Y20528544D01*
X166180322Y20669793D01*
X166153205Y20734185D01*
X166165207Y20803016D01*
X166212516Y20854432D01*
X166226571Y20861704D01*
X166252356Y20873023D01*
X166258363Y20875475D01*
X166284618Y20885396D01*
X166315255Y20896973D01*
X166321419Y20901210D01*
X166325595Y20903393D01*
X166335489Y20908899D01*
X166339542Y20911296D01*
X166346383Y20914299D01*
X166377508Y20938182D01*
X166394626Y20951317D01*
X166399877Y20955132D01*
X166443837Y20985345D01*
X166443839Y20985347D01*
X166449997Y20989579D01*
X166454968Y20995158D01*
X166454971Y20995161D01*
X166467663Y21009406D01*
X166526956Y21046366D01*
X166550733Y21050553D01*
X166589252Y21053517D01*
X166665851Y21059411D01*
X166785037Y21092688D01*
X166839547Y21107907D01*
X166839551Y21107909D01*
X166845387Y21109538D01*
X167011768Y21193583D01*
X167016547Y21197317D01*
X167016552Y21197320D01*
X167039270Y21215070D01*
X167104217Y21240832D01*
X167172781Y21227392D01*
G37*
%TD.AperFunction*%
%TA.AperFunction,Conductor*%
G36*
X158669922Y20089184D02*
G01*
X158691893Y20075151D01*
X158700821Y20068023D01*
X158700826Y20068020D01*
X158706241Y20063697D01*
X158754903Y20040173D01*
X158855382Y19991599D01*
X158855387Y19991597D01*
X158861618Y19988585D01*
X158904881Y19978597D01*
X158918235Y19975514D01*
X158979128Y19941253D01*
X158987519Y19931714D01*
X159027171Y19881686D01*
X159062959Y19836532D01*
X159204912Y19715721D01*
X159210210Y19712760D01*
X159353221Y19632834D01*
X159367627Y19624783D01*
X159462286Y19594026D01*
X159519960Y19554590D01*
X159547532Y19486472D01*
X159560592Y19330947D01*
X159562261Y19325127D01*
X159562261Y19325126D01*
X159610025Y19158554D01*
X159611971Y19151766D01*
X159614743Y19146372D01*
X159614744Y19146370D01*
X159689028Y19001831D01*
X159697176Y18985976D01*
X159737597Y18934977D01*
X159786893Y18872781D01*
X159812959Y18839893D01*
X159817578Y18835962D01*
X159934941Y18736079D01*
X159954912Y18719082D01*
X160036497Y18673486D01*
X160085411Y18623600D01*
X160100000Y18565246D01*
X160100000Y17599000D01*
X160080315Y17531961D01*
X160027511Y17486206D01*
X159976000Y17475000D01*
X159524000Y17475000D01*
X159456961Y17494685D01*
X159411206Y17547489D01*
X159400000Y17599000D01*
X159400000Y18553265D01*
X159395959Y18567027D01*
X159383001Y18569038D01*
X159350478Y18565103D01*
X159335168Y18561214D01*
X159210326Y18511786D01*
X159195730Y18503561D01*
X159089167Y18422675D01*
X159077325Y18410833D01*
X158996439Y18304271D01*
X158994546Y18300911D01*
X158992027Y18298458D01*
X158991327Y18297536D01*
X158991188Y18297641D01*
X158944488Y18252167D01*
X158876023Y18238225D01*
X158810890Y18263510D01*
X158769766Y18319996D01*
X158765692Y18333886D01*
X158736387Y18460820D01*
X158734827Y18467577D01*
X158656664Y18629266D01*
X158553116Y18758977D01*
X158548946Y18764201D01*
X158544620Y18769620D01*
X158404266Y18881664D01*
X158295531Y18934228D01*
X158243742Y18981128D01*
X158225500Y19045868D01*
X158225500Y19562656D01*
X158245185Y19629695D01*
X158261742Y19650261D01*
X158362895Y19751591D01*
X158362895Y19751592D01*
X158367984Y19756689D01*
X158378231Y19773312D01*
X158414776Y19832601D01*
X158459814Y19905666D01*
X158475572Y19953174D01*
X158496837Y20017282D01*
X158536626Y20074715D01*
X158601150Y20101519D01*
X158669922Y20089184D01*
G37*
%TD.AperFunction*%
%TA.AperFunction,Conductor*%
G36*
X176482936Y21097808D02*
G01*
X176488929Y21092694D01*
X176590893Y20999914D01*
X176595573Y20996978D01*
X176595576Y20996976D01*
X176627430Y20976994D01*
X176673760Y20924695D01*
X176684461Y20855649D01*
X176656134Y20791780D01*
X176639909Y20775858D01*
X176611255Y20752488D01*
X176602687Y20743981D01*
X176479159Y20594661D01*
X176472416Y20584664D01*
X176380246Y20414197D01*
X176375566Y20403064D01*
X176364412Y20367031D01*
X176364210Y20353154D01*
X176370858Y20350000D01*
X177776000Y20350000D01*
X177843039Y20330315D01*
X177888794Y20277511D01*
X177900000Y20226000D01*
X177900000Y19774000D01*
X177880315Y19706961D01*
X177827511Y19661206D01*
X177776000Y19650000D01*
X176376261Y19650000D01*
X176362944Y19646090D01*
X176361840Y19638416D01*
X176370034Y19610575D01*
X176374555Y19599386D01*
X176464338Y19427648D01*
X176470944Y19417553D01*
X176592373Y19266525D01*
X176600820Y19257900D01*
X176643103Y19222420D01*
X176681805Y19164249D01*
X176682913Y19094388D01*
X176646076Y19035018D01*
X176635756Y19026733D01*
X176586545Y18991371D01*
X176529595Y18950448D01*
X176464287Y18883055D01*
X176463585Y18882331D01*
X176402795Y18847888D01*
X176333034Y18851777D01*
X176286857Y18880944D01*
X176284746Y18883055D01*
X176278985Y18889221D01*
X176247730Y18925049D01*
X176242817Y18930681D01*
X176193055Y18965655D01*
X176187854Y18969518D01*
X176159983Y18991371D01*
X176139997Y19007042D01*
X176133180Y19010120D01*
X176129164Y19012552D01*
X176119309Y19018174D01*
X176115169Y19020394D01*
X176109052Y19024693D01*
X176052389Y19046785D01*
X176046415Y19049296D01*
X175990986Y19074323D01*
X175983639Y19075685D01*
X175979145Y19077093D01*
X175968244Y19080198D01*
X175963688Y19081368D01*
X175956724Y19084083D01*
X175932009Y19087337D01*
X175907074Y19090620D01*
X175843177Y19118887D01*
X175835655Y19125802D01*
X175799162Y19162232D01*
X175765624Y19223526D01*
X175770548Y19293222D01*
X175799010Y19337594D01*
X175862892Y19401587D01*
X175862896Y19401592D01*
X175867984Y19406689D01*
X175873314Y19415335D01*
X175914785Y19482615D01*
X175959814Y19555666D01*
X176014910Y19721772D01*
X176021736Y19788399D01*
X176025178Y19821987D01*
X176025178Y19821995D01*
X176025500Y19825134D01*
X176025500Y20324866D01*
X176014641Y20429519D01*
X175984560Y20519685D01*
X175961536Y20588695D01*
X175959256Y20595529D01*
X175910195Y20674811D01*
X175870957Y20738220D01*
X175870954Y20738224D01*
X175867166Y20744345D01*
X175862073Y20749429D01*
X175862070Y20749433D01*
X175763485Y20847845D01*
X175729947Y20909139D01*
X175734870Y20978835D01*
X175776693Y21034805D01*
X175842136Y21059279D01*
X175865770Y21058731D01*
X175979998Y21045110D01*
X175986041Y21045575D01*
X175986043Y21045575D01*
X176050734Y21050553D01*
X176165851Y21059411D01*
X176345387Y21109538D01*
X176350800Y21112272D01*
X176356453Y21114465D01*
X176357012Y21113024D01*
X176418288Y21124310D01*
X176482936Y21097808D01*
G37*
%TD.AperFunction*%
%TA.AperFunction,Conductor*%
G36*
X149085838Y20076895D02*
G01*
X149100915Y20057236D01*
X149132834Y20005655D01*
X149256689Y19882016D01*
X149262820Y19878237D01*
X149262821Y19878236D01*
X149272385Y19872341D01*
X149319125Y19820407D01*
X149330367Y19751447D01*
X149325514Y19729288D01*
X149321091Y19715345D01*
X149315772Y19698576D01*
X149315096Y19692548D01*
X149296358Y19525492D01*
X149294994Y19513335D01*
X149302113Y19428555D01*
X149306359Y19377993D01*
X149292353Y19309542D01*
X149243563Y19259529D01*
X149175479Y19243833D01*
X149145061Y19249497D01*
X149144989Y19249520D01*
X149087119Y19288671D01*
X149066163Y19325330D01*
X149064124Y19330947D01*
X149049536Y19371135D01*
X149048136Y19375215D01*
X149028861Y19434717D01*
X149028859Y19434722D01*
X149026641Y19441568D01*
X149022904Y19447727D01*
X149020580Y19452801D01*
X149018085Y19457784D01*
X149015625Y19464561D01*
X148977356Y19522931D01*
X148975069Y19526556D01*
X148969635Y19535510D01*
X148938877Y19586198D01*
X148931800Y19594212D01*
X148931819Y19594228D01*
X148928970Y19597439D01*
X148926821Y19600009D01*
X148922867Y19606040D01*
X148869144Y19656932D01*
X148866740Y19659272D01*
X148775341Y19750671D01*
X148741856Y19811994D01*
X148746840Y19881686D01*
X148785661Y19935261D01*
X148801831Y19948169D01*
X148806153Y19953583D01*
X148806158Y19953588D01*
X148898565Y20069344D01*
X148955773Y20109456D01*
X149025586Y20112271D01*
X149085838Y20076895D01*
G37*
%TD.AperFunction*%
%TA.AperFunction,Conductor*%
G36*
X179717539Y21254815D02*
G01*
X179763294Y21202011D01*
X179774500Y21150500D01*
X179774500Y20814407D01*
X179773089Y20795757D01*
X179770006Y20775492D01*
X179772569Y20743981D01*
X179774092Y20725257D01*
X179774500Y20715204D01*
X179774500Y20707637D01*
X179774710Y20705836D01*
X179759032Y20638126D01*
X179708971Y20589385D01*
X179651002Y20575000D01*
X179466363Y20575000D01*
X179458291Y20574471D01*
X179357958Y20561261D01*
X179342381Y20557088D01*
X179217530Y20505373D01*
X179203572Y20497315D01*
X179096348Y20415039D01*
X179084961Y20403652D01*
X179002685Y20296428D01*
X178994627Y20282471D01*
X178992680Y20277770D01*
X178948838Y20223367D01*
X178882543Y20201304D01*
X178814844Y20218584D01*
X178767235Y20269723D01*
X178759165Y20290214D01*
X178729966Y20389425D01*
X178725445Y20400614D01*
X178635662Y20572352D01*
X178629056Y20582447D01*
X178507627Y20733475D01*
X178499180Y20742100D01*
X178456897Y20777580D01*
X178418195Y20835751D01*
X178417087Y20905612D01*
X178453924Y20964982D01*
X178464244Y20973267D01*
X178565920Y21046329D01*
X178565921Y21046330D01*
X178570405Y21049552D01*
X178725749Y21209854D01*
X178732337Y21219658D01*
X178786065Y21264324D01*
X178835260Y21274500D01*
X179650500Y21274500D01*
X179717539Y21254815D01*
G37*
%TD.AperFunction*%
%TA.AperFunction,Conductor*%
G36*
X146062364Y22834119D02*
G01*
X146083148Y22815449D01*
X146104122Y22798546D01*
X146105762Y22797393D01*
X146105767Y22797389D01*
X146137941Y22774765D01*
X146168927Y22752976D01*
X146313481Y22689029D01*
X146381602Y22669027D01*
X146385980Y22668398D01*
X146385987Y22668396D01*
X146476970Y22655315D01*
X146552190Y22644500D01*
X147120164Y22644500D01*
X147153661Y22634664D01*
X147154928Y22639076D01*
X147203946Y22625000D01*
X148795675Y22625000D01*
X148844978Y22639477D01*
X148879914Y22644500D01*
X149356522Y22644500D01*
X149359997Y22644893D01*
X149359999Y22644893D01*
X149488229Y22659390D01*
X149488235Y22659391D01*
X149491702Y22659783D01*
X149544476Y22671870D01*
X149572159Y22675000D01*
X150226000Y22675000D01*
X150293039Y22655315D01*
X150338794Y22602511D01*
X150350000Y22551000D01*
X150350000Y22099000D01*
X150330315Y22031961D01*
X150277511Y21986206D01*
X150226000Y21975000D01*
X149210642Y21975000D01*
X149197325Y21971090D01*
X149196535Y21965597D01*
X149238214Y21860326D01*
X149246439Y21845730D01*
X149327325Y21739167D01*
X149339168Y21727324D01*
X149346631Y21721659D01*
X149388128Y21665447D01*
X149392646Y21595724D01*
X149358752Y21534626D01*
X149336912Y21517449D01*
X149255655Y21467166D01*
X149250566Y21462069D01*
X149250567Y21462069D01*
X149148299Y21359622D01*
X149132016Y21343311D01*
X149128239Y21337184D01*
X149124446Y21332381D01*
X149067448Y21291971D01*
X148997651Y21288791D01*
X148937215Y21323851D01*
X148915497Y21355264D01*
X148910375Y21365860D01*
X148854798Y21435481D01*
X148806153Y21496417D01*
X148801831Y21501831D01*
X148796417Y21506153D01*
X148796412Y21506158D01*
X148743300Y21548557D01*
X148703188Y21605765D01*
X148700373Y21675578D01*
X148722285Y21720951D01*
X148747313Y21753568D01*
X148755373Y21767530D01*
X148807088Y21892382D01*
X148811146Y21907527D01*
X148809001Y21921282D01*
X148796053Y21925000D01*
X147204325Y21925000D01*
X147190770Y21921020D01*
X147188786Y21907780D01*
X147192912Y21892382D01*
X147244627Y21767530D01*
X147252687Y21753568D01*
X147277715Y21720951D01*
X147302909Y21655782D01*
X147288870Y21587337D01*
X147256700Y21548557D01*
X147203588Y21506158D01*
X147203583Y21506153D01*
X147198169Y21501831D01*
X147193847Y21496417D01*
X147145203Y21435481D01*
X147089625Y21365860D01*
X147086612Y21359627D01*
X147086609Y21359622D01*
X147069317Y21323851D01*
X147013902Y21209221D01*
X147012343Y21202467D01*
X147012342Y21202465D01*
X146977955Y21053517D01*
X146974765Y21039698D01*
X146972797Y21040152D01*
X146947424Y20984513D01*
X146888666Y20946707D01*
X146864906Y20942175D01*
X146845387Y20940398D01*
X146821032Y20938182D01*
X146642214Y20885552D01*
X146477023Y20799193D01*
X146472295Y20795392D01*
X146472294Y20795391D01*
X146336478Y20686192D01*
X146331752Y20682392D01*
X146211935Y20539599D01*
X146122135Y20376254D01*
X146120303Y20370479D01*
X146097696Y20299213D01*
X146058662Y20241264D01*
X145994494Y20213617D01*
X145925567Y20225050D01*
X145873762Y20271934D01*
X145855500Y20336707D01*
X145855500Y22741872D01*
X145875185Y22808911D01*
X145927989Y22854666D01*
X145997147Y22864610D01*
X146062364Y22834119D01*
G37*
%TD.AperFunction*%
%TA.AperFunction,Conductor*%
G36*
X183085652Y25902820D02*
G01*
X183122682Y25877318D01*
X183409492Y25590508D01*
X183442977Y25529185D01*
X183445501Y25505707D01*
X183444750Y25500000D01*
X183445811Y25491941D01*
X183448439Y25471980D01*
X183449500Y25455794D01*
X183449500Y21000862D01*
X183429815Y20933823D01*
X183413181Y20913181D01*
X183036319Y20536319D01*
X182974996Y20502834D01*
X182948638Y20500000D01*
X181592244Y20500000D01*
X181525205Y20519685D01*
X181479450Y20572489D01*
X181468652Y20613949D01*
X181466863Y20635950D01*
X181466863Y20635952D01*
X181466279Y20643127D01*
X181464061Y20649974D01*
X181462968Y20655445D01*
X181461682Y20660885D01*
X181460848Y20668037D01*
X181458392Y20674804D01*
X181458390Y20674811D01*
X181437043Y20733619D01*
X181435636Y20737715D01*
X181416361Y20797217D01*
X181416359Y20797222D01*
X181414141Y20804068D01*
X181410404Y20810227D01*
X181408080Y20815301D01*
X181405585Y20820284D01*
X181403125Y20827061D01*
X181364856Y20885431D01*
X181362569Y20889056D01*
X181352522Y20905612D01*
X181326377Y20948698D01*
X181319300Y20956712D01*
X181319319Y20956728D01*
X181316470Y20959939D01*
X181314321Y20962509D01*
X181310367Y20968540D01*
X181264223Y21012253D01*
X181229091Y21072646D01*
X181225500Y21102273D01*
X181225500Y21312656D01*
X181245185Y21379695D01*
X181261742Y21400260D01*
X181329995Y21468633D01*
X181391288Y21502172D01*
X181465205Y21495590D01*
X181592386Y21442910D01*
X181607951Y21438739D01*
X181632325Y21435530D01*
X181646281Y21437706D01*
X181650000Y21450657D01*
X181650000Y21451033D01*
X182350000Y21451033D01*
X182353980Y21437478D01*
X182367305Y21435481D01*
X182392049Y21438739D01*
X182407614Y21442910D01*
X182532470Y21494627D01*
X182546428Y21502685D01*
X182653652Y21584961D01*
X182665039Y21596348D01*
X182747315Y21703572D01*
X182755373Y21717530D01*
X182807088Y21842382D01*
X182811146Y21857527D01*
X182809001Y21871282D01*
X182796053Y21875000D01*
X182367830Y21875000D01*
X182352831Y21870596D01*
X182351644Y21869226D01*
X182350000Y21861668D01*
X182350000Y21451033D01*
X181650000Y21451033D01*
X181650000Y22451000D01*
X181669685Y22518039D01*
X181722489Y22563794D01*
X181774000Y22575000D01*
X182795675Y22575000D01*
X182809230Y22578980D01*
X182811214Y22592220D01*
X182807088Y22607618D01*
X182755373Y22732470D01*
X182747313Y22746432D01*
X182722285Y22779049D01*
X182697091Y22844218D01*
X182711130Y22912663D01*
X182743300Y22951443D01*
X182796412Y22993842D01*
X182796417Y22993847D01*
X182801831Y22998169D01*
X182828851Y23032016D01*
X182906054Y23128727D01*
X182906054Y23128728D01*
X182910375Y23134140D01*
X182915384Y23144500D01*
X182949813Y23215721D01*
X182986098Y23290779D01*
X182988032Y23299154D01*
X183024054Y23455186D01*
X183024054Y23455187D01*
X183025235Y23460302D01*
X183025500Y23464898D01*
X183025500Y24085102D01*
X183025235Y24089698D01*
X183006352Y24171489D01*
X182987658Y24252465D01*
X182987657Y24252467D01*
X182986098Y24259221D01*
X182941990Y24350461D01*
X182913391Y24409622D01*
X182913389Y24409625D01*
X182910375Y24415860D01*
X182899343Y24429680D01*
X182806154Y24546416D01*
X182806153Y24546417D01*
X182801831Y24551831D01*
X182722137Y24615450D01*
X182682027Y24672656D01*
X182675500Y24712356D01*
X182675500Y24781743D01*
X182695185Y24848782D01*
X182705632Y24862767D01*
X182776492Y24944860D01*
X182780454Y24949450D01*
X182784580Y24956712D01*
X182869530Y25106252D01*
X182872526Y25111526D01*
X182931364Y25288399D01*
X182932413Y25296698D01*
X182943146Y25381664D01*
X182954727Y25473332D01*
X182955099Y25500000D01*
X182954384Y25507289D01*
X182937501Y25679477D01*
X182937501Y25679479D01*
X182936909Y25685513D01*
X182916293Y25753797D01*
X182915761Y25823665D01*
X182953087Y25882729D01*
X183016420Y25912237D01*
X183085652Y25902820D01*
G37*
%TD.AperFunction*%
%TA.AperFunction,Conductor*%
G36*
X171695273Y25929815D02*
G01*
X171741028Y25877011D01*
X171750972Y25807853D01*
X171742795Y25778048D01*
X171692912Y25657618D01*
X171688740Y25642050D01*
X171687971Y25636204D01*
X171689952Y25629019D01*
X171703947Y25625000D01*
X173295675Y25625000D01*
X173309230Y25628980D01*
X173311214Y25642220D01*
X173307088Y25657618D01*
X173257205Y25778048D01*
X173249736Y25847517D01*
X173281011Y25909996D01*
X173341101Y25945648D01*
X173371766Y25949500D01*
X174194837Y25949500D01*
X174261876Y25929815D01*
X174307631Y25877011D01*
X174317575Y25807853D01*
X174288550Y25744297D01*
X174282518Y25737819D01*
X174041945Y25497246D01*
X174035779Y25491485D01*
X173994319Y25455317D01*
X173959351Y25405563D01*
X173955482Y25400354D01*
X173917958Y25352497D01*
X173914880Y25345680D01*
X173912448Y25341664D01*
X173906826Y25331809D01*
X173904606Y25327669D01*
X173900307Y25321552D01*
X173897590Y25314583D01*
X173878215Y25264889D01*
X173875704Y25258915D01*
X173850677Y25203486D01*
X173849315Y25196139D01*
X173847907Y25191645D01*
X173844802Y25180744D01*
X173843632Y25176188D01*
X173840917Y25169224D01*
X173839941Y25161811D01*
X173832979Y25108930D01*
X173831966Y25102530D01*
X173820882Y25042726D01*
X173823623Y24995185D01*
X173824294Y24983554D01*
X173824500Y24976416D01*
X173824500Y22331163D01*
X173804815Y22264124D01*
X173788181Y22243482D01*
X173756518Y22211819D01*
X173695195Y22178334D01*
X173668837Y22175500D01*
X173599500Y22175500D01*
X173532461Y22195185D01*
X173486706Y22247989D01*
X173475500Y22299500D01*
X173475500Y22478992D01*
X173469067Y22549004D01*
X173420174Y22705019D01*
X173411749Y22718932D01*
X173365444Y22795391D01*
X173337272Y22841908D01*
X173337271Y22841911D01*
X173335479Y22844869D01*
X173335972Y22845168D01*
X173312028Y22905223D01*
X173325348Y22973811D01*
X173338574Y22994196D01*
X173406054Y23078727D01*
X173406054Y23078728D01*
X173410375Y23084140D01*
X173431930Y23128727D01*
X173473984Y23215721D01*
X173486098Y23240779D01*
X173499389Y23298347D01*
X173524054Y23405186D01*
X173524054Y23405187D01*
X173525235Y23410302D01*
X173525500Y23414898D01*
X173525500Y24035102D01*
X173525235Y24039698D01*
X173517116Y24074866D01*
X173487658Y24202465D01*
X173487657Y24202467D01*
X173486098Y24209221D01*
X173420781Y24344334D01*
X173413391Y24359622D01*
X173413389Y24359625D01*
X173410375Y24365860D01*
X173366140Y24421273D01*
X173306153Y24496417D01*
X173301831Y24501831D01*
X173296417Y24506153D01*
X173296412Y24506158D01*
X173243300Y24548557D01*
X173203188Y24605765D01*
X173200373Y24675578D01*
X173222285Y24720951D01*
X173247313Y24753568D01*
X173255373Y24767530D01*
X173307088Y24892382D01*
X173311146Y24907527D01*
X173309001Y24921282D01*
X173296053Y24925000D01*
X171704325Y24925000D01*
X171690770Y24921020D01*
X171688786Y24907780D01*
X171692912Y24892382D01*
X171744627Y24767530D01*
X171752687Y24753568D01*
X171777715Y24720951D01*
X171802909Y24655782D01*
X171788870Y24587337D01*
X171756700Y24548557D01*
X171703588Y24506158D01*
X171703583Y24506153D01*
X171698169Y24501831D01*
X171603333Y24383031D01*
X171602105Y24381493D01*
X171544896Y24341381D01*
X171475084Y24338566D01*
X171414831Y24373941D01*
X171389087Y24415327D01*
X171349032Y24522175D01*
X171340628Y24537525D01*
X171269628Y24632261D01*
X171257263Y24644626D01*
X171217896Y24674129D01*
X171176055Y24730085D01*
X171171108Y24799780D01*
X171198393Y24854380D01*
X171276487Y24944854D01*
X171276488Y24944855D01*
X171280454Y24949450D01*
X171284580Y24956712D01*
X171369530Y25106252D01*
X171372526Y25111526D01*
X171431364Y25288399D01*
X171432413Y25296698D01*
X171443146Y25381664D01*
X171454727Y25473332D01*
X171455099Y25500000D01*
X171453813Y25513121D01*
X171446327Y25589463D01*
X171451423Y25616270D01*
X171441463Y25639071D01*
X171437501Y25679477D01*
X171437501Y25679479D01*
X171436909Y25685513D01*
X171405465Y25789661D01*
X171404933Y25859528D01*
X171442259Y25918592D01*
X171505592Y25948100D01*
X171524173Y25949500D01*
X171628234Y25949500D01*
X171695273Y25929815D01*
G37*
%TD.AperFunction*%
%TA.AperFunction,Conductor*%
G36*
X175379867Y23279589D02*
G01*
X175432806Y23234535D01*
X175454912Y23215721D01*
X175460210Y23212760D01*
X175608255Y23130021D01*
X175617627Y23124783D01*
X175636307Y23118714D01*
X175693981Y23079276D01*
X175721179Y23014917D01*
X175709264Y22946071D01*
X175662020Y22894595D01*
X175646363Y22886773D01*
X175642214Y22885552D01*
X175477023Y22799193D01*
X175472295Y22795392D01*
X175472294Y22795391D01*
X175451969Y22779049D01*
X175385368Y22725500D01*
X175377199Y22718932D01*
X175312618Y22692266D01*
X175243873Y22704748D01*
X175192788Y22752415D01*
X175175500Y22815570D01*
X175175500Y23185158D01*
X175195185Y23252197D01*
X175247989Y23297952D01*
X175317147Y23307896D01*
X175379867Y23279589D01*
G37*
%TD.AperFunction*%
%TA.AperFunction,Conductor*%
G36*
X179730672Y24804815D02*
G01*
X179776427Y24752011D01*
X179786371Y24682853D01*
X179757346Y24619297D01*
X179751391Y24612895D01*
X179640521Y24501831D01*
X179632016Y24493311D01*
X179628237Y24487180D01*
X179628236Y24487179D01*
X179623571Y24479611D01*
X179540186Y24344334D01*
X179485090Y24178228D01*
X179484400Y24171489D01*
X179475367Y24083327D01*
X179474500Y24074866D01*
X179474500Y23575134D01*
X179485359Y23470481D01*
X179487507Y23464044D01*
X179487507Y23464042D01*
X179503903Y23414898D01*
X179540744Y23304471D01*
X179572145Y23253727D01*
X179629043Y23161780D01*
X179629046Y23161776D01*
X179632834Y23155655D01*
X179637931Y23150567D01*
X179637934Y23150563D01*
X179700837Y23087770D01*
X179734376Y23026476D01*
X179729453Y22956780D01*
X179700991Y22912408D01*
X179637109Y22848413D01*
X179632016Y22843311D01*
X179628237Y22837180D01*
X179628236Y22837179D01*
X179595724Y22784434D01*
X179543789Y22737694D01*
X179490166Y22725500D01*
X178830780Y22725500D01*
X178763741Y22745185D01*
X178732407Y22774011D01*
X178711956Y22800662D01*
X178686763Y22865830D01*
X178700801Y22934274D01*
X178732634Y22972785D01*
X178752116Y22988449D01*
X178757346Y22992654D01*
X178807678Y23055253D01*
X178867793Y23130021D01*
X178867793Y23130022D01*
X178872002Y23135256D01*
X178874988Y23141271D01*
X178874991Y23141276D01*
X178950375Y23293139D01*
X178953361Y23299154D01*
X178981074Y23410302D01*
X178996308Y23471402D01*
X178996309Y23471407D01*
X178997628Y23476698D01*
X179000500Y23518825D01*
X179000499Y24481174D01*
X178999325Y24498409D01*
X178998000Y24517845D01*
X178998000Y24517846D01*
X178997628Y24523302D01*
X178992551Y24543664D01*
X178960927Y24670502D01*
X178963809Y24740312D01*
X179003975Y24797482D01*
X179068674Y24823861D01*
X179081244Y24824500D01*
X179663633Y24824500D01*
X179730672Y24804815D01*
G37*
%TD.AperFunction*%
%TA.AperFunction,Conductor*%
G36*
X159171574Y25929815D02*
G01*
X159217329Y25877011D01*
X159227380Y25808616D01*
X159220105Y25755681D01*
X159219324Y25750000D01*
X159219324Y25021698D01*
X159199639Y24954659D01*
X159183005Y24934017D01*
X159032539Y24783551D01*
X159018357Y24771363D01*
X159001842Y24759209D01*
X158997178Y24753719D01*
X158969205Y24720793D01*
X158962385Y24713397D01*
X158957039Y24708051D01*
X158940185Y24686749D01*
X158937481Y24683451D01*
X158892308Y24630280D01*
X158889030Y24623861D01*
X158885938Y24619224D01*
X158883008Y24614480D01*
X158878534Y24608825D01*
X158875481Y24602293D01*
X158875480Y24602291D01*
X158848995Y24545624D01*
X158847095Y24541737D01*
X158819237Y24487179D01*
X158815373Y24479611D01*
X158813661Y24472614D01*
X158811713Y24467377D01*
X158809953Y24462086D01*
X158806904Y24455562D01*
X158805437Y24448511D01*
X158805437Y24448510D01*
X158792694Y24387245D01*
X158791743Y24383046D01*
X158791364Y24381493D01*
X158791216Y24380889D01*
X158756165Y24320447D01*
X158694001Y24288550D01*
X158624461Y24295325D01*
X158573860Y24332993D01*
X158548947Y24364201D01*
X158548942Y24364206D01*
X158544620Y24369620D01*
X158404266Y24481664D01*
X158398025Y24484681D01*
X158398017Y24484686D01*
X158352366Y24506754D01*
X158300577Y24553654D01*
X158282365Y24621108D01*
X158303512Y24687700D01*
X158330849Y24716769D01*
X158396478Y24767128D01*
X158407871Y24778521D01*
X158494150Y24890962D01*
X158502211Y24904925D01*
X158556444Y25035855D01*
X158560618Y25051432D01*
X158564685Y25082325D01*
X158562509Y25096281D01*
X158549558Y25100000D01*
X157274000Y25100000D01*
X157206961Y25119685D01*
X157161206Y25172489D01*
X157150000Y25224000D01*
X157150000Y25676000D01*
X157169685Y25743039D01*
X157222489Y25788794D01*
X157274000Y25800000D01*
X158549181Y25800000D01*
X158562736Y25803980D01*
X158567319Y25834562D01*
X158569667Y25834210D01*
X158576553Y25878356D01*
X158622936Y25930609D01*
X158688724Y25949500D01*
X159104535Y25949500D01*
X159171574Y25929815D01*
G37*
%TD.AperFunction*%
%TA.AperFunction,Conductor*%
G36*
X164155024Y25929815D02*
G01*
X164200779Y25877011D01*
X164210723Y25807853D01*
X164196647Y25765763D01*
X164122873Y25631569D01*
X164122870Y25631561D01*
X164119952Y25626254D01*
X164118120Y25620479D01*
X164065879Y25455794D01*
X164063589Y25448576D01*
X164058180Y25400354D01*
X164046004Y25291801D01*
X164018970Y25227373D01*
X164010458Y25217942D01*
X163415106Y24622590D01*
X163353783Y24589105D01*
X163284091Y24594089D01*
X163228158Y24635961D01*
X163212766Y24668733D01*
X163210848Y24668037D01*
X163197346Y24705235D01*
X163187042Y24733622D01*
X163185639Y24737709D01*
X163180502Y24753568D01*
X163174738Y24771360D01*
X163166363Y24797212D01*
X163166362Y24797214D01*
X163164142Y24804067D01*
X163160408Y24810222D01*
X163158086Y24815293D01*
X163155582Y24820293D01*
X163153125Y24827061D01*
X163114869Y24885410D01*
X163112591Y24889020D01*
X163076378Y24948698D01*
X163072726Y24952833D01*
X163072723Y24952837D01*
X163069300Y24956712D01*
X163069319Y24956728D01*
X163066461Y24959951D01*
X163064318Y24962514D01*
X163060367Y24968540D01*
X163006644Y25019432D01*
X163004240Y25021772D01*
X162816995Y25209017D01*
X162783510Y25270340D01*
X162780676Y25296698D01*
X162780676Y25750000D01*
X162774218Y25812820D01*
X162786944Y25881520D01*
X162834792Y25932435D01*
X162897568Y25949500D01*
X164087985Y25949500D01*
X164155024Y25929815D01*
G37*
%TD.AperFunction*%
%TD*%
%TA.AperFunction,Conductor*%
%TO.N,GNDPWR*%
G36*
X136794032Y21189866D02*
G01*
X136839095Y21160905D01*
X136963095Y21036905D01*
X136997121Y20974593D01*
X137000000Y20947810D01*
X137000000Y20000000D01*
X137713095Y19286905D01*
X137747121Y19224593D01*
X137750000Y19197810D01*
X137750000Y11000000D01*
X137250000Y11000000D01*
X137250000Y19000000D01*
X136536905Y19713095D01*
X136502879Y19775407D01*
X136500000Y19802190D01*
X136500000Y20947810D01*
X136520002Y21015931D01*
X136536905Y21036905D01*
X136660905Y21160905D01*
X136723217Y21194931D01*
X136794032Y21189866D01*
G37*
%TD.AperFunction*%
%TD*%
%TA.AperFunction,Conductor*%
%TO.N,+15V*%
G36*
X155866431Y25879498D02*
G01*
X155887405Y25862595D01*
X156137595Y25612405D01*
X156171621Y25550093D01*
X156174500Y25523310D01*
X156174500Y25126434D01*
X156177400Y25083893D01*
X156222105Y24904592D01*
X156225136Y24898485D01*
X156225138Y24898481D01*
X156236860Y24874868D01*
X156250000Y24818844D01*
X156250000Y18581156D01*
X156236860Y18525132D01*
X156225138Y18501519D01*
X156225136Y18501515D01*
X156222105Y18495408D01*
X156177400Y18316107D01*
X156174500Y18273566D01*
X156174500Y17626434D01*
X156177400Y17583893D01*
X156178744Y17578501D01*
X156178745Y17578497D01*
X156185975Y17549500D01*
X156222105Y17404592D01*
X156225136Y17398485D01*
X156225138Y17398481D01*
X156236860Y17374868D01*
X156250000Y17318844D01*
X156250000Y17302190D01*
X156229998Y17234069D01*
X156213095Y17213095D01*
X155786905Y16786905D01*
X155724593Y16752879D01*
X155697810Y16750000D01*
X154750000Y16750000D01*
X153750000Y15750000D01*
X153750000Y13750000D01*
X154000000Y13500000D01*
X156606522Y13500000D01*
X156661361Y13487440D01*
X156707423Y13465173D01*
X156714284Y13463589D01*
X156772859Y13450066D01*
X156833610Y13416390D01*
X156963095Y13286905D01*
X156997121Y13224593D01*
X157000000Y13197810D01*
X157000000Y12802190D01*
X156979998Y12734069D01*
X156963095Y12713095D01*
X156822405Y12572405D01*
X156760093Y12538379D01*
X156733310Y12535500D01*
X155100134Y12535500D01*
X155096888Y12535163D01*
X155096884Y12535163D01*
X155002339Y12525353D01*
X155002335Y12525352D01*
X154995481Y12524641D01*
X154988945Y12522460D01*
X154988943Y12522460D01*
X154941034Y12506476D01*
X154901158Y12500000D01*
X154750000Y12500000D01*
X154631108Y12381108D01*
X154583450Y12351212D01*
X154554454Y12341115D01*
X154554448Y12341112D01*
X154547797Y12338796D01*
X154541823Y12335063D01*
X154541821Y12335062D01*
X154520788Y12321919D01*
X154507268Y12314578D01*
X154478401Y12301117D01*
X154472837Y12296801D01*
X154472835Y12296800D01*
X154445754Y12275794D01*
X154435300Y12268500D01*
X154400252Y12246600D01*
X154372611Y12219151D01*
X154372033Y12218610D01*
X154371384Y12218107D01*
X154346363Y12193086D01*
X154276799Y12124006D01*
X154276165Y12123007D01*
X154275123Y12121846D01*
X154180992Y12027715D01*
X154118680Y11993689D01*
X154103317Y11991329D01*
X154067759Y11988093D01*
X154067758Y11988093D01*
X154061618Y11987534D01*
X154055704Y11985793D01*
X154055702Y11985793D01*
X153978582Y11963095D01*
X153873393Y11932136D01*
X153867928Y11929279D01*
X153704972Y11844088D01*
X153704968Y11844085D01*
X153699512Y11841233D01*
X153631942Y11786905D01*
X153620621Y11777803D01*
X153554999Y11750707D01*
X153541669Y11750000D01*
X153052190Y11750000D01*
X152984069Y11770002D01*
X152963095Y11786905D01*
X152786905Y11963095D01*
X152752879Y12025407D01*
X152750000Y12052190D01*
X152750000Y13500000D01*
X152500000Y13750000D01*
X152158977Y13750000D01*
X152119309Y13756407D01*
X152009759Y13792744D01*
X152009757Y13792745D01*
X152003228Y13794910D01*
X151899866Y13805500D01*
X150246690Y13805500D01*
X150178569Y13825502D01*
X150157595Y13842405D01*
X150036905Y13963095D01*
X150002879Y14025407D01*
X150000000Y14052190D01*
X150000000Y16473500D01*
X150020002Y16541621D01*
X150073658Y16588114D01*
X150126000Y16599500D01*
X151199866Y16599500D01*
X151203112Y16599837D01*
X151203116Y16599837D01*
X151297661Y16609647D01*
X151297665Y16609648D01*
X151304519Y16610359D01*
X151311055Y16612540D01*
X151311057Y16612540D01*
X151463581Y16663426D01*
X151470529Y16665744D01*
X151619345Y16757834D01*
X151742984Y16881689D01*
X151778999Y16940117D01*
X151831770Y16987609D01*
X151886258Y17000000D01*
X152250000Y17000000D01*
X152500000Y17250000D01*
X152500000Y18750000D01*
X151536905Y19713095D01*
X151502879Y19775407D01*
X151500000Y19802190D01*
X151500000Y22750000D01*
X151000000Y23250000D01*
X150643478Y23250000D01*
X150588639Y23262560D01*
X150573244Y23270002D01*
X150542577Y23284827D01*
X150533576Y23286905D01*
X150372788Y23324026D01*
X150372785Y23324026D01*
X150367589Y23325226D01*
X150362837Y23325500D01*
X150361013Y23325500D01*
X149996891Y23325499D01*
X149637164Y23325499D01*
X149632411Y23325226D01*
X149457423Y23284827D01*
X149426756Y23270002D01*
X149411361Y23262560D01*
X149356522Y23250000D01*
X148625293Y23250000D01*
X148569269Y23263140D01*
X148542836Y23276262D01*
X148542832Y23276264D01*
X148536725Y23279295D01*
X148362694Y23322685D01*
X148341922Y23324101D01*
X148323551Y23325354D01*
X148323540Y23325354D01*
X148321404Y23325500D01*
X147678596Y23325500D01*
X147676460Y23325354D01*
X147676449Y23325354D01*
X147658078Y23324101D01*
X147637306Y23322685D01*
X147463275Y23279295D01*
X147457168Y23276264D01*
X147457164Y23276262D01*
X147430731Y23263140D01*
X147374707Y23250000D01*
X146552190Y23250000D01*
X146484069Y23270002D01*
X146463095Y23286905D01*
X146036905Y23713095D01*
X146002879Y23775407D01*
X146000000Y23802190D01*
X146000000Y25447810D01*
X146020002Y25515931D01*
X146036905Y25536905D01*
X146362595Y25862595D01*
X146424907Y25896621D01*
X146451690Y25899500D01*
X155798310Y25899500D01*
X155866431Y25879498D01*
G37*
%TD.AperFunction*%
%TD*%
%TA.AperFunction,Conductor*%
%TO.N,GNDPWR*%
G36*
X144265931Y11979998D02*
G01*
X144286905Y11963095D01*
X144463095Y11786905D01*
X144497121Y11724593D01*
X144500000Y11697810D01*
X144500000Y11052190D01*
X144479998Y10984069D01*
X144463095Y10963095D01*
X144250000Y10750000D01*
X144250000Y9817826D01*
X144249215Y9803781D01*
X144244757Y9764037D01*
X144245273Y9757893D01*
X144249558Y9706863D01*
X144250000Y9696320D01*
X144250000Y9052190D01*
X144229998Y8984069D01*
X144213095Y8963095D01*
X143786905Y8536905D01*
X143724593Y8502879D01*
X143697810Y8500000D01*
X135052190Y8500000D01*
X134984069Y8520002D01*
X134963095Y8536905D01*
X134637405Y8862595D01*
X134603379Y8924907D01*
X134600500Y8951690D01*
X134600500Y11048310D01*
X134620502Y11116431D01*
X134637405Y11137405D01*
X134963095Y11463095D01*
X135025407Y11497121D01*
X135052190Y11500000D01*
X142750000Y11500000D01*
X143213095Y11963095D01*
X143275407Y11997121D01*
X143302190Y12000000D01*
X144197810Y12000000D01*
X144265931Y11979998D01*
G37*
%TD.AperFunction*%
%TD*%
M02*
