%FSLAX45Y45*%
G04 Gerber Fmt 4.5, Leading zero omitted, Abs format (unit mm)*
G04 Created by KiCad (PCBNEW (6.0.5)) date 2022-06-23 16:38:44*
%MOMM*%
%LPD*%
G01*
G04 APERTURE LIST*
%TA.AperFunction,Profile*%
%ADD10C,0.050000*%
%TD*%
%ADD11C,0.200000*%
%ADD12C,0.040000*%
%ADD13C,0.100000*%
G04 APERTURE END LIST*
D10*
X4600000Y-10800000D02*
X11450000Y-10800000D01*
X3200000Y-9150000D02*
G75*
G03*
X3250000Y-9200000I50000J0D01*
G01*
X4550000Y-10750000D02*
G75*
G03*
X4500000Y-10700000I-50000J0D01*
G01*
X3800000Y-10500000D02*
X3800000Y-9400000D01*
X2750000Y-9100000D02*
G75*
G03*
X2700000Y-9150000I0J-50000D01*
G01*
X11405902Y-9950000D02*
G75*
G03*
X11405902Y-9950000I-55902J0D01*
G01*
X4500000Y-9200000D02*
G75*
G03*
X4550000Y-9150000I0J50000D01*
G01*
X3061803Y-9400000D02*
G75*
G03*
X3061803Y-9400000I-111803J0D01*
G01*
X4550000Y-10750000D02*
G75*
G03*
X4600000Y-10800000I50000J0D01*
G01*
X10380902Y-9500000D02*
G75*
G03*
X10380902Y-9500000I-55902J0D01*
G01*
X3061803Y-10500000D02*
G75*
G03*
X3061803Y-10500000I-111803J0D01*
G01*
X3250000Y-10700000D02*
X4500000Y-10700000D01*
X3150000Y-10800000D02*
G75*
G03*
X3200000Y-10750000I0J50000D01*
G01*
X2750000Y-10800000D02*
X3150000Y-10800000D01*
X11500000Y-9150000D02*
X11500000Y-10750000D01*
X3250000Y-10700000D02*
G75*
G03*
X3200000Y-10750000I0J-50000D01*
G01*
X11450000Y-10800000D02*
G75*
G03*
X11500000Y-10750000I0J50000D01*
G01*
X3800000Y-9400000D02*
G75*
G03*
X3700000Y-9400000I-50000J0D01*
G01*
X2700000Y-10750000D02*
X2700000Y-9150000D01*
X3700000Y-9400000D02*
X3700000Y-10500000D01*
X3250000Y-9200000D02*
X4500000Y-9200000D01*
X3700000Y-10500000D02*
G75*
G03*
X3800000Y-10500000I50000J0D01*
G01*
X11450000Y-9100000D02*
X4600000Y-9100000D01*
X3200000Y-9150000D02*
G75*
G03*
X3150000Y-9100000I-50000J0D01*
G01*
X11405902Y-9500000D02*
G75*
G03*
X11405902Y-9500000I-55902J0D01*
G01*
X2750000Y-9100000D02*
X3150000Y-9100000D01*
X4600000Y-9100000D02*
G75*
G03*
X4550000Y-9150000I0J-50000D01*
G01*
X11500000Y-9150000D02*
G75*
G03*
X11450000Y-9100000I-50000J0D01*
G01*
X2700000Y-10750000D02*
G75*
G03*
X2750000Y-10800000I50000J0D01*
G01*
X10380902Y-10400000D02*
G75*
G03*
X10380902Y-10400000I-55902J0D01*
G01*
D11*
D12*
X4580000Y-9230000D02*
X4620000Y-9270000D01*
X4620000Y-9230000D02*
X4580000Y-9270000D01*
X4580000Y-9430000D02*
X4620000Y-9470000D01*
X4620000Y-9430000D02*
X4580000Y-9470000D01*
X4580000Y-9630000D02*
X4620000Y-9670000D01*
X4620000Y-9630000D02*
X4580000Y-9670000D01*
X4580000Y-9830000D02*
X4620000Y-9870000D01*
X4620000Y-9830000D02*
X4580000Y-9870000D01*
X4580000Y-10030000D02*
X4620000Y-10070000D01*
X4620000Y-10030000D02*
X4580000Y-10070000D01*
X4580000Y-10230000D02*
X4620000Y-10270000D01*
X4620000Y-10230000D02*
X4580000Y-10270000D01*
X4580000Y-10430000D02*
X4620000Y-10470000D01*
X4620000Y-10430000D02*
X4580000Y-10470000D01*
X4580000Y-10630000D02*
X4620000Y-10670000D01*
X4620000Y-10630000D02*
X4580000Y-10670000D01*
X4830000Y-9230000D02*
X4870000Y-9270000D01*
X4870000Y-9230000D02*
X4830000Y-9270000D01*
X4830000Y-10130000D02*
X4870000Y-10170000D01*
X4870000Y-10130000D02*
X4830000Y-10170000D01*
X4880000Y-10430000D02*
X4920000Y-10470000D01*
X4920000Y-10430000D02*
X4880000Y-10470000D01*
X4955000Y-9830000D02*
X4995000Y-9870000D01*
X4995000Y-9830000D02*
X4955000Y-9870000D01*
X4955000Y-9930000D02*
X4995000Y-9970000D01*
X4995000Y-9930000D02*
X4955000Y-9970000D01*
X4980000Y-9330000D02*
X5020000Y-9370000D01*
X5020000Y-9330000D02*
X4980000Y-9370000D01*
X5180000Y-9330000D02*
X5220000Y-9370000D01*
X5220000Y-9330000D02*
X5180000Y-9370000D01*
X5228770Y-10331230D02*
X5268770Y-10371230D01*
X5268770Y-10331230D02*
X5228770Y-10371230D01*
X5285000Y-10675000D02*
X5325000Y-10715000D01*
X5325000Y-10675000D02*
X5285000Y-10715000D01*
X5356206Y-10203746D02*
X5396206Y-10243746D01*
X5396206Y-10203746D02*
X5356206Y-10243746D01*
X5380000Y-9330000D02*
X5420000Y-9370000D01*
X5420000Y-9330000D02*
X5380000Y-9370000D01*
X5530000Y-10380000D02*
X5570000Y-10420000D01*
X5570000Y-10380000D02*
X5530000Y-10420000D01*
X5530000Y-10480000D02*
X5570000Y-10520000D01*
X5570000Y-10480000D02*
X5530000Y-10520000D01*
X5605000Y-9330000D02*
X5645000Y-9370000D01*
X5645000Y-9330000D02*
X5605000Y-9370000D01*
X5628770Y-10681230D02*
X5668770Y-10721230D01*
X5668770Y-10681230D02*
X5628770Y-10721230D01*
X5705000Y-9330000D02*
X5745000Y-9370000D01*
X5745000Y-9330000D02*
X5705000Y-9370000D01*
X5780000Y-10480000D02*
X5820000Y-10520000D01*
X5820000Y-10480000D02*
X5780000Y-10520000D01*
X5805000Y-9330000D02*
X5845000Y-9370000D01*
X5845000Y-9330000D02*
X5805000Y-9370000D01*
X5905000Y-9330000D02*
X5945000Y-9370000D01*
X5945000Y-9330000D02*
X5905000Y-9370000D01*
X5980000Y-9180000D02*
X6020000Y-9220000D01*
X6020000Y-9180000D02*
X5980000Y-9220000D01*
X6080000Y-10630000D02*
X6120000Y-10670000D01*
X6120000Y-10630000D02*
X6080000Y-10670000D01*
X6280000Y-9380000D02*
X6320000Y-9420000D01*
X6320000Y-9380000D02*
X6280000Y-9420000D01*
X6480000Y-9281000D02*
X6520000Y-9321000D01*
X6520000Y-9281000D02*
X6480000Y-9321000D01*
X6530000Y-9930000D02*
X6570000Y-9970000D01*
X6570000Y-9930000D02*
X6530000Y-9970000D01*
X6530000Y-10030000D02*
X6570000Y-10070000D01*
X6570000Y-10030000D02*
X6530000Y-10070000D01*
X6780000Y-9930000D02*
X6820000Y-9970000D01*
X6820000Y-9930000D02*
X6780000Y-9970000D01*
X6830000Y-9730000D02*
X6870000Y-9770000D01*
X6870000Y-9730000D02*
X6830000Y-9770000D01*
X6880000Y-10030000D02*
X6920000Y-10070000D01*
X6920000Y-10030000D02*
X6880000Y-10070000D01*
X6980000Y-9507550D02*
X7020000Y-9547550D01*
X7020000Y-9507550D02*
X6980000Y-9547550D01*
X7030000Y-9380000D02*
X7070000Y-9420000D01*
X7070000Y-9380000D02*
X7030000Y-9420000D01*
X7030000Y-10130000D02*
X7070000Y-10170000D01*
X7070000Y-10130000D02*
X7030000Y-10170000D01*
X7072609Y-9712391D02*
X7112609Y-9752391D01*
X7112609Y-9712391D02*
X7072609Y-9752391D01*
X7180000Y-9280000D02*
X7220000Y-9320000D01*
X7220000Y-9280000D02*
X7180000Y-9320000D01*
X7330000Y-10130000D02*
X7370000Y-10170000D01*
X7370000Y-10130000D02*
X7330000Y-10170000D01*
X7632505Y-10055045D02*
X7672505Y-10095045D01*
X7672505Y-10055045D02*
X7632505Y-10095045D01*
X7730000Y-10530000D02*
X7770000Y-10570000D01*
X7770000Y-10530000D02*
X7730000Y-10570000D01*
X7955000Y-9530000D02*
X7995000Y-9570000D01*
X7995000Y-9530000D02*
X7955000Y-9570000D01*
X8080000Y-9280000D02*
X8120000Y-9320000D01*
X8120000Y-9280000D02*
X8080000Y-9320000D01*
X8230000Y-9180000D02*
X8270000Y-9220000D01*
X8270000Y-9180000D02*
X8230000Y-9220000D01*
X8430000Y-10680000D02*
X8470000Y-10720000D01*
X8470000Y-10680000D02*
X8430000Y-10720000D01*
X8480000Y-9680000D02*
X8520000Y-9720000D01*
X8520000Y-9680000D02*
X8480000Y-9720000D01*
X8780000Y-10530000D02*
X8820000Y-10570000D01*
X8820000Y-10530000D02*
X8780000Y-10570000D01*
X8880000Y-10280000D02*
X8920000Y-10320000D01*
X8920000Y-10280000D02*
X8880000Y-10320000D01*
X8905000Y-9255000D02*
X8945000Y-9295000D01*
X8945000Y-9255000D02*
X8905000Y-9295000D01*
X8905000Y-9880000D02*
X8945000Y-9920000D01*
X8945000Y-9880000D02*
X8905000Y-9920000D01*
X8980000Y-10330000D02*
X9020000Y-10370000D01*
X9020000Y-10330000D02*
X8980000Y-10370000D01*
X8980000Y-10630000D02*
X9020000Y-10670000D01*
X9020000Y-10630000D02*
X8980000Y-10670000D01*
X9080000Y-10180000D02*
X9120000Y-10220000D01*
X9120000Y-10180000D02*
X9080000Y-10220000D01*
X9180000Y-10580000D02*
X9220000Y-10620000D01*
X9220000Y-10580000D02*
X9180000Y-10620000D01*
X9328770Y-10378770D02*
X9368770Y-10418770D01*
X9368770Y-10378770D02*
X9328770Y-10418770D01*
X9330000Y-10530000D02*
X9370000Y-10570000D01*
X9370000Y-10530000D02*
X9330000Y-10570000D01*
X9380000Y-10055000D02*
X9420000Y-10095000D01*
X9420000Y-10055000D02*
X9380000Y-10095000D01*
X9555000Y-9155000D02*
X9595000Y-9195000D01*
X9595000Y-9155000D02*
X9555000Y-9195000D01*
X9555000Y-9255000D02*
X9595000Y-9295000D01*
X9595000Y-9255000D02*
X9555000Y-9295000D01*
X9555000Y-9355000D02*
X9595000Y-9395000D01*
X9595000Y-9355000D02*
X9555000Y-9395000D01*
X9555000Y-9605000D02*
X9595000Y-9645000D01*
X9595000Y-9605000D02*
X9555000Y-9645000D01*
X9555000Y-9705000D02*
X9595000Y-9745000D01*
X9595000Y-9705000D02*
X9555000Y-9745000D01*
X9555000Y-9805000D02*
X9595000Y-9845000D01*
X9595000Y-9805000D02*
X9555000Y-9845000D01*
X9555000Y-10055000D02*
X9595000Y-10095000D01*
X9595000Y-10055000D02*
X9555000Y-10095000D01*
X9555000Y-10155000D02*
X9595000Y-10195000D01*
X9595000Y-10155000D02*
X9555000Y-10195000D01*
X9555000Y-10255000D02*
X9595000Y-10295000D01*
X9595000Y-10255000D02*
X9555000Y-10295000D01*
X9555000Y-10505000D02*
X9595000Y-10545000D01*
X9595000Y-10505000D02*
X9555000Y-10545000D01*
X9555000Y-10605000D02*
X9595000Y-10645000D01*
X9595000Y-10605000D02*
X9555000Y-10645000D01*
X9555000Y-10705000D02*
X9595000Y-10745000D01*
X9595000Y-10705000D02*
X9555000Y-10745000D01*
X9655000Y-9155000D02*
X9695000Y-9195000D01*
X9695000Y-9155000D02*
X9655000Y-9195000D01*
X9655000Y-9255000D02*
X9695000Y-9295000D01*
X9695000Y-9255000D02*
X9655000Y-9295000D01*
X9655000Y-9355000D02*
X9695000Y-9395000D01*
X9695000Y-9355000D02*
X9655000Y-9395000D01*
X9655000Y-9605000D02*
X9695000Y-9645000D01*
X9695000Y-9605000D02*
X9655000Y-9645000D01*
X9655000Y-9705000D02*
X9695000Y-9745000D01*
X9695000Y-9705000D02*
X9655000Y-9745000D01*
X9655000Y-9805000D02*
X9695000Y-9845000D01*
X9695000Y-9805000D02*
X9655000Y-9845000D01*
X9655000Y-10055000D02*
X9695000Y-10095000D01*
X9695000Y-10055000D02*
X9655000Y-10095000D01*
X9655000Y-10155000D02*
X9695000Y-10195000D01*
X9695000Y-10155000D02*
X9655000Y-10195000D01*
X9655000Y-10255000D02*
X9695000Y-10295000D01*
X9695000Y-10255000D02*
X9655000Y-10295000D01*
X9655000Y-10505000D02*
X9695000Y-10545000D01*
X9695000Y-10505000D02*
X9655000Y-10545000D01*
X9655000Y-10605000D02*
X9695000Y-10645000D01*
X9695000Y-10605000D02*
X9655000Y-10645000D01*
X9655000Y-10705000D02*
X9695000Y-10745000D01*
X9695000Y-10705000D02*
X9655000Y-10745000D01*
X9730000Y-9930000D02*
X9770000Y-9970000D01*
X9770000Y-9930000D02*
X9730000Y-9970000D01*
X9755000Y-9155000D02*
X9795000Y-9195000D01*
X9795000Y-9155000D02*
X9755000Y-9195000D01*
X9755000Y-9255000D02*
X9795000Y-9295000D01*
X9795000Y-9255000D02*
X9755000Y-9295000D01*
X9755000Y-9355000D02*
X9795000Y-9395000D01*
X9795000Y-9355000D02*
X9755000Y-9395000D01*
X9755000Y-9605000D02*
X9795000Y-9645000D01*
X9795000Y-9605000D02*
X9755000Y-9645000D01*
X9755000Y-9705000D02*
X9795000Y-9745000D01*
X9795000Y-9705000D02*
X9755000Y-9745000D01*
X9755000Y-9805000D02*
X9795000Y-9845000D01*
X9795000Y-9805000D02*
X9755000Y-9845000D01*
X9755000Y-10055000D02*
X9795000Y-10095000D01*
X9795000Y-10055000D02*
X9755000Y-10095000D01*
X9755000Y-10155000D02*
X9795000Y-10195000D01*
X9795000Y-10155000D02*
X9755000Y-10195000D01*
X9755000Y-10255000D02*
X9795000Y-10295000D01*
X9795000Y-10255000D02*
X9755000Y-10295000D01*
X9755000Y-10505000D02*
X9795000Y-10545000D01*
X9795000Y-10505000D02*
X9755000Y-10545000D01*
X9755000Y-10605000D02*
X9795000Y-10645000D01*
X9795000Y-10605000D02*
X9755000Y-10645000D01*
X9755000Y-10705000D02*
X9795000Y-10745000D01*
X9795000Y-10705000D02*
X9755000Y-10745000D01*
X9855000Y-9155000D02*
X9895000Y-9195000D01*
X9895000Y-9155000D02*
X9855000Y-9195000D01*
X9855000Y-9255000D02*
X9895000Y-9295000D01*
X9895000Y-9255000D02*
X9855000Y-9295000D01*
X9855000Y-9355000D02*
X9895000Y-9395000D01*
X9895000Y-9355000D02*
X9855000Y-9395000D01*
X9855000Y-9605000D02*
X9895000Y-9645000D01*
X9895000Y-9605000D02*
X9855000Y-9645000D01*
X9855000Y-9705000D02*
X9895000Y-9745000D01*
X9895000Y-9705000D02*
X9855000Y-9745000D01*
X9855000Y-9805000D02*
X9895000Y-9845000D01*
X9895000Y-9805000D02*
X9855000Y-9845000D01*
X9855000Y-10055000D02*
X9895000Y-10095000D01*
X9895000Y-10055000D02*
X9855000Y-10095000D01*
X9855000Y-10155000D02*
X9895000Y-10195000D01*
X9895000Y-10155000D02*
X9855000Y-10195000D01*
X9855000Y-10255000D02*
X9895000Y-10295000D01*
X9895000Y-10255000D02*
X9855000Y-10295000D01*
X9855000Y-10505000D02*
X9895000Y-10545000D01*
X9895000Y-10505000D02*
X9855000Y-10545000D01*
X9855000Y-10605000D02*
X9895000Y-10645000D01*
X9895000Y-10605000D02*
X9855000Y-10645000D01*
X9855000Y-10705000D02*
X9895000Y-10745000D01*
X9895000Y-10705000D02*
X9855000Y-10745000D01*
X9955000Y-9155000D02*
X9995000Y-9195000D01*
X9995000Y-9155000D02*
X9955000Y-9195000D01*
X9955000Y-9255000D02*
X9995000Y-9295000D01*
X9995000Y-9255000D02*
X9955000Y-9295000D01*
X9955000Y-9355000D02*
X9995000Y-9395000D01*
X9995000Y-9355000D02*
X9955000Y-9395000D01*
X9955000Y-9605000D02*
X9995000Y-9645000D01*
X9995000Y-9605000D02*
X9955000Y-9645000D01*
X9955000Y-9705000D02*
X9995000Y-9745000D01*
X9995000Y-9705000D02*
X9955000Y-9745000D01*
X9955000Y-9805000D02*
X9995000Y-9845000D01*
X9995000Y-9805000D02*
X9955000Y-9845000D01*
X9955000Y-10055000D02*
X9995000Y-10095000D01*
X9995000Y-10055000D02*
X9955000Y-10095000D01*
X9955000Y-10155000D02*
X9995000Y-10195000D01*
X9995000Y-10155000D02*
X9955000Y-10195000D01*
X9955000Y-10255000D02*
X9995000Y-10295000D01*
X9995000Y-10255000D02*
X9955000Y-10295000D01*
X9955000Y-10505000D02*
X9995000Y-10545000D01*
X9995000Y-10505000D02*
X9955000Y-10545000D01*
X9955000Y-10605000D02*
X9995000Y-10645000D01*
X9995000Y-10605000D02*
X9955000Y-10645000D01*
X9955000Y-10705000D02*
X9995000Y-10745000D01*
X9995000Y-10705000D02*
X9955000Y-10745000D01*
X10055000Y-9155000D02*
X10095000Y-9195000D01*
X10095000Y-9155000D02*
X10055000Y-9195000D01*
X10055000Y-9255000D02*
X10095000Y-9295000D01*
X10095000Y-9255000D02*
X10055000Y-9295000D01*
X10055000Y-9355000D02*
X10095000Y-9395000D01*
X10095000Y-9355000D02*
X10055000Y-9395000D01*
X10055000Y-9605000D02*
X10095000Y-9645000D01*
X10095000Y-9605000D02*
X10055000Y-9645000D01*
X10055000Y-9705000D02*
X10095000Y-9745000D01*
X10095000Y-9705000D02*
X10055000Y-9745000D01*
X10055000Y-9805000D02*
X10095000Y-9845000D01*
X10095000Y-9805000D02*
X10055000Y-9845000D01*
X10055000Y-10055000D02*
X10095000Y-10095000D01*
X10095000Y-10055000D02*
X10055000Y-10095000D01*
X10055000Y-10155000D02*
X10095000Y-10195000D01*
X10095000Y-10155000D02*
X10055000Y-10195000D01*
X10055000Y-10255000D02*
X10095000Y-10295000D01*
X10095000Y-10255000D02*
X10055000Y-10295000D01*
X10055000Y-10505000D02*
X10095000Y-10545000D01*
X10095000Y-10505000D02*
X10055000Y-10545000D01*
X10055000Y-10605000D02*
X10095000Y-10645000D01*
X10095000Y-10605000D02*
X10055000Y-10645000D01*
X10055000Y-10705000D02*
X10095000Y-10745000D01*
X10095000Y-10705000D02*
X10055000Y-10745000D01*
X10178770Y-10178770D02*
X10218770Y-10218770D01*
X10218770Y-10178770D02*
X10178770Y-10218770D01*
X10180000Y-9480000D02*
X10220000Y-9520000D01*
X10220000Y-9480000D02*
X10180000Y-9520000D01*
X10630000Y-9830000D02*
X10670000Y-9870000D01*
X10670000Y-9830000D02*
X10630000Y-9870000D01*
D13*
X6384000Y-10350000D02*
G75*
G03*
X6384000Y-10350000I-50000J0D01*
G01*
X6384000Y-10604000D02*
G75*
G03*
X6384000Y-10604000I-50000J0D01*
G01*
X6638000Y-10350000D02*
G75*
G03*
X6638000Y-10350000I-50000J0D01*
G01*
X6638000Y-10604000D02*
G75*
G03*
X6638000Y-10604000I-50000J0D01*
G01*
X6892000Y-10350000D02*
G75*
G03*
X6892000Y-10350000I-50000J0D01*
G01*
X6892000Y-10604000D02*
G75*
G03*
X6892000Y-10604000I-50000J0D01*
G01*
X7146000Y-10350000D02*
G75*
G03*
X7146000Y-10350000I-50000J0D01*
G01*
X7146000Y-10604000D02*
G75*
G03*
X7146000Y-10604000I-50000J0D01*
G01*
X7400000Y-10350000D02*
G75*
G03*
X7400000Y-10350000I-50000J0D01*
G01*
X7400000Y-10604000D02*
G75*
G03*
X7400000Y-10604000I-50000J0D01*
G01*
D11*
X2955119Y-11112976D02*
X2955119Y-10912976D01*
X3002738Y-10912976D01*
X3031309Y-10922500D01*
X3050357Y-10941548D01*
X3059881Y-10960595D01*
X3069405Y-10998690D01*
X3069405Y-11027262D01*
X3059881Y-11065357D01*
X3050357Y-11084405D01*
X3031309Y-11103452D01*
X3002738Y-11112976D01*
X2955119Y-11112976D01*
X3155119Y-11112976D02*
X3155119Y-10979643D01*
X3155119Y-11017738D02*
X3164643Y-10998690D01*
X3174167Y-10989167D01*
X3193214Y-10979643D01*
X3212262Y-10979643D01*
X3278928Y-11112976D02*
X3278928Y-10979643D01*
X3278928Y-10912976D02*
X3269405Y-10922500D01*
X3278928Y-10932024D01*
X3288452Y-10922500D01*
X3278928Y-10912976D01*
X3278928Y-10932024D01*
X3402738Y-11112976D02*
X3383690Y-11103452D01*
X3374167Y-11084405D01*
X3374167Y-10912976D01*
X3507500Y-11112976D02*
X3488452Y-11103452D01*
X3478928Y-11084405D01*
X3478928Y-10912976D01*
X3736071Y-11112976D02*
X3736071Y-10912976D01*
X3802738Y-11055833D01*
X3869405Y-10912976D01*
X3869405Y-11112976D01*
X4050357Y-11112976D02*
X4050357Y-11008214D01*
X4040833Y-10989167D01*
X4021786Y-10979643D01*
X3983690Y-10979643D01*
X3964643Y-10989167D01*
X4050357Y-11103452D02*
X4031309Y-11112976D01*
X3983690Y-11112976D01*
X3964643Y-11103452D01*
X3955119Y-11084405D01*
X3955119Y-11065357D01*
X3964643Y-11046310D01*
X3983690Y-11036786D01*
X4031309Y-11036786D01*
X4050357Y-11027262D01*
X4145595Y-10979643D02*
X4145595Y-11179643D01*
X4145595Y-10989167D02*
X4164643Y-10979643D01*
X4202738Y-10979643D01*
X4221786Y-10989167D01*
X4231310Y-10998690D01*
X4240833Y-11017738D01*
X4240833Y-11074881D01*
X4231310Y-11093929D01*
X4221786Y-11103452D01*
X4202738Y-11112976D01*
X4164643Y-11112976D01*
X4145595Y-11103452D01*
X4326548Y-11093929D02*
X4336071Y-11103452D01*
X4326548Y-11112976D01*
X4317024Y-11103452D01*
X4326548Y-11093929D01*
X4326548Y-11112976D01*
X4326548Y-10989167D02*
X4336071Y-10998690D01*
X4326548Y-11008214D01*
X4317024Y-10998690D01*
X4326548Y-10989167D01*
X4326548Y-11008214D01*
D12*
X2657500Y-11422500D02*
X2697500Y-11462500D01*
X2697500Y-11422500D02*
X2657500Y-11462500D01*
D11*
X2993214Y-11332976D02*
X3012262Y-11332976D01*
X3031309Y-11342500D01*
X3040833Y-11352024D01*
X3050357Y-11371071D01*
X3059881Y-11409167D01*
X3059881Y-11456786D01*
X3050357Y-11494881D01*
X3040833Y-11513928D01*
X3031309Y-11523452D01*
X3012262Y-11532976D01*
X2993214Y-11532976D01*
X2974167Y-11523452D01*
X2964643Y-11513928D01*
X2955119Y-11494881D01*
X2945595Y-11456786D01*
X2945595Y-11409167D01*
X2955119Y-11371071D01*
X2964643Y-11352024D01*
X2974167Y-11342500D01*
X2993214Y-11332976D01*
X3145595Y-11513928D02*
X3155119Y-11523452D01*
X3145595Y-11532976D01*
X3136071Y-11523452D01*
X3145595Y-11513928D01*
X3145595Y-11532976D01*
X3326548Y-11399643D02*
X3326548Y-11532976D01*
X3278928Y-11323452D02*
X3231309Y-11466309D01*
X3355119Y-11466309D01*
X3469405Y-11332976D02*
X3488452Y-11332976D01*
X3507500Y-11342500D01*
X3517024Y-11352024D01*
X3526548Y-11371071D01*
X3536071Y-11409167D01*
X3536071Y-11456786D01*
X3526548Y-11494881D01*
X3517024Y-11513928D01*
X3507500Y-11523452D01*
X3488452Y-11532976D01*
X3469405Y-11532976D01*
X3450357Y-11523452D01*
X3440833Y-11513928D01*
X3431309Y-11494881D01*
X3421786Y-11456786D01*
X3421786Y-11409167D01*
X3431309Y-11371071D01*
X3440833Y-11352024D01*
X3450357Y-11342500D01*
X3469405Y-11332976D01*
X3659881Y-11332976D02*
X3678928Y-11332976D01*
X3697976Y-11342500D01*
X3707500Y-11352024D01*
X3717024Y-11371071D01*
X3726548Y-11409167D01*
X3726548Y-11456786D01*
X3717024Y-11494881D01*
X3707500Y-11513928D01*
X3697976Y-11523452D01*
X3678928Y-11532976D01*
X3659881Y-11532976D01*
X3640833Y-11523452D01*
X3631309Y-11513928D01*
X3621786Y-11494881D01*
X3612262Y-11456786D01*
X3612262Y-11409167D01*
X3621786Y-11371071D01*
X3631309Y-11352024D01*
X3640833Y-11342500D01*
X3659881Y-11332976D01*
X3812262Y-11532976D02*
X3812262Y-11399643D01*
X3812262Y-11418690D02*
X3821786Y-11409167D01*
X3840833Y-11399643D01*
X3869405Y-11399643D01*
X3888452Y-11409167D01*
X3897976Y-11428214D01*
X3897976Y-11532976D01*
X3897976Y-11428214D02*
X3907500Y-11409167D01*
X3926548Y-11399643D01*
X3955119Y-11399643D01*
X3974167Y-11409167D01*
X3983690Y-11428214D01*
X3983690Y-11532976D01*
X4078928Y-11532976D02*
X4078928Y-11399643D01*
X4078928Y-11418690D02*
X4088452Y-11409167D01*
X4107500Y-11399643D01*
X4136071Y-11399643D01*
X4155119Y-11409167D01*
X4164643Y-11428214D01*
X4164643Y-11532976D01*
X4164643Y-11428214D02*
X4174167Y-11409167D01*
X4193214Y-11399643D01*
X4221786Y-11399643D01*
X4240833Y-11409167D01*
X4250357Y-11428214D01*
X4250357Y-11532976D01*
X4640833Y-11323452D02*
X4469405Y-11580595D01*
X4897976Y-11332976D02*
X4917024Y-11332976D01*
X4936071Y-11342500D01*
X4945595Y-11352024D01*
X4955119Y-11371071D01*
X4964643Y-11409167D01*
X4964643Y-11456786D01*
X4955119Y-11494881D01*
X4945595Y-11513928D01*
X4936071Y-11523452D01*
X4917024Y-11532976D01*
X4897976Y-11532976D01*
X4878929Y-11523452D01*
X4869405Y-11513928D01*
X4859881Y-11494881D01*
X4850357Y-11456786D01*
X4850357Y-11409167D01*
X4859881Y-11371071D01*
X4869405Y-11352024D01*
X4878929Y-11342500D01*
X4897976Y-11332976D01*
X5050357Y-11513928D02*
X5059881Y-11523452D01*
X5050357Y-11532976D01*
X5040833Y-11523452D01*
X5050357Y-11513928D01*
X5050357Y-11532976D01*
X5183690Y-11332976D02*
X5202738Y-11332976D01*
X5221786Y-11342500D01*
X5231310Y-11352024D01*
X5240833Y-11371071D01*
X5250357Y-11409167D01*
X5250357Y-11456786D01*
X5240833Y-11494881D01*
X5231310Y-11513928D01*
X5221786Y-11523452D01*
X5202738Y-11532976D01*
X5183690Y-11532976D01*
X5164643Y-11523452D01*
X5155119Y-11513928D01*
X5145595Y-11494881D01*
X5136071Y-11456786D01*
X5136071Y-11409167D01*
X5145595Y-11371071D01*
X5155119Y-11352024D01*
X5164643Y-11342500D01*
X5183690Y-11332976D01*
X5440833Y-11532976D02*
X5326548Y-11532976D01*
X5383690Y-11532976D02*
X5383690Y-11332976D01*
X5364643Y-11361548D01*
X5345595Y-11380595D01*
X5326548Y-11390119D01*
X5621786Y-11332976D02*
X5526548Y-11332976D01*
X5517024Y-11428214D01*
X5526548Y-11418690D01*
X5545595Y-11409167D01*
X5593214Y-11409167D01*
X5612262Y-11418690D01*
X5621786Y-11428214D01*
X5631309Y-11447262D01*
X5631309Y-11494881D01*
X5621786Y-11513928D01*
X5612262Y-11523452D01*
X5593214Y-11532976D01*
X5545595Y-11532976D01*
X5526548Y-11523452D01*
X5517024Y-11513928D01*
X5697976Y-11332976D02*
X5831309Y-11332976D01*
X5745595Y-11532976D01*
X5897976Y-11332976D02*
X5897976Y-11371071D01*
X5974167Y-11332976D02*
X5974167Y-11371071D01*
X6269405Y-11609167D02*
X6259881Y-11599643D01*
X6240833Y-11571071D01*
X6231309Y-11552024D01*
X6221786Y-11523452D01*
X6212262Y-11475833D01*
X6212262Y-11437738D01*
X6221786Y-11390119D01*
X6231309Y-11361548D01*
X6240833Y-11342500D01*
X6259881Y-11313928D01*
X6269405Y-11304405D01*
X6450357Y-11532976D02*
X6336071Y-11532976D01*
X6393214Y-11532976D02*
X6393214Y-11332976D01*
X6374167Y-11361548D01*
X6355119Y-11380595D01*
X6336071Y-11390119D01*
X6517024Y-11332976D02*
X6640833Y-11332976D01*
X6574167Y-11409167D01*
X6602738Y-11409167D01*
X6621786Y-11418690D01*
X6631309Y-11428214D01*
X6640833Y-11447262D01*
X6640833Y-11494881D01*
X6631309Y-11513928D01*
X6621786Y-11523452D01*
X6602738Y-11532976D01*
X6545595Y-11532976D01*
X6526548Y-11523452D01*
X6517024Y-11513928D01*
X6812262Y-11332976D02*
X6774167Y-11332976D01*
X6755119Y-11342500D01*
X6745595Y-11352024D01*
X6726548Y-11380595D01*
X6717024Y-11418690D01*
X6717024Y-11494881D01*
X6726548Y-11513928D01*
X6736071Y-11523452D01*
X6755119Y-11532976D01*
X6793214Y-11532976D01*
X6812262Y-11523452D01*
X6821786Y-11513928D01*
X6831309Y-11494881D01*
X6831309Y-11447262D01*
X6821786Y-11428214D01*
X6812262Y-11418690D01*
X6793214Y-11409167D01*
X6755119Y-11409167D01*
X6736071Y-11418690D01*
X6726548Y-11428214D01*
X6717024Y-11447262D01*
X7069405Y-11532976D02*
X7069405Y-11332976D01*
X7155119Y-11532976D02*
X7155119Y-11428214D01*
X7145595Y-11409167D01*
X7126548Y-11399643D01*
X7097976Y-11399643D01*
X7078928Y-11409167D01*
X7069405Y-11418690D01*
X7278928Y-11532976D02*
X7259881Y-11523452D01*
X7250357Y-11513928D01*
X7240833Y-11494881D01*
X7240833Y-11437738D01*
X7250357Y-11418690D01*
X7259881Y-11409167D01*
X7278928Y-11399643D01*
X7307500Y-11399643D01*
X7326548Y-11409167D01*
X7336071Y-11418690D01*
X7345595Y-11437738D01*
X7345595Y-11494881D01*
X7336071Y-11513928D01*
X7326548Y-11523452D01*
X7307500Y-11532976D01*
X7278928Y-11532976D01*
X7459881Y-11532976D02*
X7440833Y-11523452D01*
X7431309Y-11504405D01*
X7431309Y-11332976D01*
X7612262Y-11523452D02*
X7593214Y-11532976D01*
X7555119Y-11532976D01*
X7536071Y-11523452D01*
X7526548Y-11504405D01*
X7526548Y-11428214D01*
X7536071Y-11409167D01*
X7555119Y-11399643D01*
X7593214Y-11399643D01*
X7612262Y-11409167D01*
X7621786Y-11428214D01*
X7621786Y-11447262D01*
X7526548Y-11466309D01*
X7697976Y-11523452D02*
X7717024Y-11532976D01*
X7755119Y-11532976D01*
X7774167Y-11523452D01*
X7783690Y-11504405D01*
X7783690Y-11494881D01*
X7774167Y-11475833D01*
X7755119Y-11466309D01*
X7726548Y-11466309D01*
X7707500Y-11456786D01*
X7697976Y-11437738D01*
X7697976Y-11428214D01*
X7707500Y-11409167D01*
X7726548Y-11399643D01*
X7755119Y-11399643D01*
X7774167Y-11409167D01*
X7850357Y-11609167D02*
X7859881Y-11599643D01*
X7878928Y-11571071D01*
X7888452Y-11552024D01*
X7897976Y-11523452D01*
X7907500Y-11475833D01*
X7907500Y-11437738D01*
X7897976Y-11390119D01*
X7888452Y-11361548D01*
X7878928Y-11342500D01*
X7859881Y-11313928D01*
X7850357Y-11304405D01*
D13*
X2697500Y-11706500D02*
G75*
G03*
X2697500Y-11706500I-50000J0D01*
G01*
D11*
X3059881Y-11796976D02*
X2945595Y-11796976D01*
X3002738Y-11796976D02*
X3002738Y-11596976D01*
X2983690Y-11625548D01*
X2964643Y-11644595D01*
X2945595Y-11654119D01*
X3145595Y-11777928D02*
X3155119Y-11787452D01*
X3145595Y-11796976D01*
X3136071Y-11787452D01*
X3145595Y-11777928D01*
X3145595Y-11796976D01*
X3278928Y-11596976D02*
X3297976Y-11596976D01*
X3317024Y-11606500D01*
X3326548Y-11616024D01*
X3336071Y-11635071D01*
X3345595Y-11673167D01*
X3345595Y-11720786D01*
X3336071Y-11758881D01*
X3326548Y-11777928D01*
X3317024Y-11787452D01*
X3297976Y-11796976D01*
X3278928Y-11796976D01*
X3259881Y-11787452D01*
X3250357Y-11777928D01*
X3240833Y-11758881D01*
X3231309Y-11720786D01*
X3231309Y-11673167D01*
X3240833Y-11635071D01*
X3250357Y-11616024D01*
X3259881Y-11606500D01*
X3278928Y-11596976D01*
X3469405Y-11596976D02*
X3488452Y-11596976D01*
X3507500Y-11606500D01*
X3517024Y-11616024D01*
X3526548Y-11635071D01*
X3536071Y-11673167D01*
X3536071Y-11720786D01*
X3526548Y-11758881D01*
X3517024Y-11777928D01*
X3507500Y-11787452D01*
X3488452Y-11796976D01*
X3469405Y-11796976D01*
X3450357Y-11787452D01*
X3440833Y-11777928D01*
X3431309Y-11758881D01*
X3421786Y-11720786D01*
X3421786Y-11673167D01*
X3431309Y-11635071D01*
X3440833Y-11616024D01*
X3450357Y-11606500D01*
X3469405Y-11596976D01*
X3659881Y-11596976D02*
X3678928Y-11596976D01*
X3697976Y-11606500D01*
X3707500Y-11616024D01*
X3717024Y-11635071D01*
X3726548Y-11673167D01*
X3726548Y-11720786D01*
X3717024Y-11758881D01*
X3707500Y-11777928D01*
X3697976Y-11787452D01*
X3678928Y-11796976D01*
X3659881Y-11796976D01*
X3640833Y-11787452D01*
X3631309Y-11777928D01*
X3621786Y-11758881D01*
X3612262Y-11720786D01*
X3612262Y-11673167D01*
X3621786Y-11635071D01*
X3631309Y-11616024D01*
X3640833Y-11606500D01*
X3659881Y-11596976D01*
X3812262Y-11796976D02*
X3812262Y-11663643D01*
X3812262Y-11682690D02*
X3821786Y-11673167D01*
X3840833Y-11663643D01*
X3869405Y-11663643D01*
X3888452Y-11673167D01*
X3897976Y-11692214D01*
X3897976Y-11796976D01*
X3897976Y-11692214D02*
X3907500Y-11673167D01*
X3926548Y-11663643D01*
X3955119Y-11663643D01*
X3974167Y-11673167D01*
X3983690Y-11692214D01*
X3983690Y-11796976D01*
X4078928Y-11796976D02*
X4078928Y-11663643D01*
X4078928Y-11682690D02*
X4088452Y-11673167D01*
X4107500Y-11663643D01*
X4136071Y-11663643D01*
X4155119Y-11673167D01*
X4164643Y-11692214D01*
X4164643Y-11796976D01*
X4164643Y-11692214D02*
X4174167Y-11673167D01*
X4193214Y-11663643D01*
X4221786Y-11663643D01*
X4240833Y-11673167D01*
X4250357Y-11692214D01*
X4250357Y-11796976D01*
X4640833Y-11587452D02*
X4469405Y-11844595D01*
X4897976Y-11596976D02*
X4917024Y-11596976D01*
X4936071Y-11606500D01*
X4945595Y-11616024D01*
X4955119Y-11635071D01*
X4964643Y-11673167D01*
X4964643Y-11720786D01*
X4955119Y-11758881D01*
X4945595Y-11777928D01*
X4936071Y-11787452D01*
X4917024Y-11796976D01*
X4897976Y-11796976D01*
X4878929Y-11787452D01*
X4869405Y-11777928D01*
X4859881Y-11758881D01*
X4850357Y-11720786D01*
X4850357Y-11673167D01*
X4859881Y-11635071D01*
X4869405Y-11616024D01*
X4878929Y-11606500D01*
X4897976Y-11596976D01*
X5050357Y-11777928D02*
X5059881Y-11787452D01*
X5050357Y-11796976D01*
X5040833Y-11787452D01*
X5050357Y-11777928D01*
X5050357Y-11796976D01*
X5183690Y-11596976D02*
X5202738Y-11596976D01*
X5221786Y-11606500D01*
X5231310Y-11616024D01*
X5240833Y-11635071D01*
X5250357Y-11673167D01*
X5250357Y-11720786D01*
X5240833Y-11758881D01*
X5231310Y-11777928D01*
X5221786Y-11787452D01*
X5202738Y-11796976D01*
X5183690Y-11796976D01*
X5164643Y-11787452D01*
X5155119Y-11777928D01*
X5145595Y-11758881D01*
X5136071Y-11720786D01*
X5136071Y-11673167D01*
X5145595Y-11635071D01*
X5155119Y-11616024D01*
X5164643Y-11606500D01*
X5183690Y-11596976D01*
X5317024Y-11596976D02*
X5440833Y-11596976D01*
X5374167Y-11673167D01*
X5402738Y-11673167D01*
X5421786Y-11682690D01*
X5431310Y-11692214D01*
X5440833Y-11711262D01*
X5440833Y-11758881D01*
X5431310Y-11777928D01*
X5421786Y-11787452D01*
X5402738Y-11796976D01*
X5345595Y-11796976D01*
X5326548Y-11787452D01*
X5317024Y-11777928D01*
X5536071Y-11796976D02*
X5574167Y-11796976D01*
X5593214Y-11787452D01*
X5602738Y-11777928D01*
X5621786Y-11749357D01*
X5631309Y-11711262D01*
X5631309Y-11635071D01*
X5621786Y-11616024D01*
X5612262Y-11606500D01*
X5593214Y-11596976D01*
X5555119Y-11596976D01*
X5536071Y-11606500D01*
X5526548Y-11616024D01*
X5517024Y-11635071D01*
X5517024Y-11682690D01*
X5526548Y-11701738D01*
X5536071Y-11711262D01*
X5555119Y-11720786D01*
X5593214Y-11720786D01*
X5612262Y-11711262D01*
X5621786Y-11701738D01*
X5631309Y-11682690D01*
X5802738Y-11663643D02*
X5802738Y-11796976D01*
X5755119Y-11587452D02*
X5707500Y-11730309D01*
X5831309Y-11730309D01*
X5897976Y-11596976D02*
X5897976Y-11635071D01*
X5974167Y-11596976D02*
X5974167Y-11635071D01*
X6269405Y-11873167D02*
X6259881Y-11863643D01*
X6240833Y-11835071D01*
X6231309Y-11816024D01*
X6221786Y-11787452D01*
X6212262Y-11739833D01*
X6212262Y-11701738D01*
X6221786Y-11654119D01*
X6231309Y-11625548D01*
X6240833Y-11606500D01*
X6259881Y-11577928D01*
X6269405Y-11568405D01*
X6450357Y-11796976D02*
X6336071Y-11796976D01*
X6393214Y-11796976D02*
X6393214Y-11596976D01*
X6374167Y-11625548D01*
X6355119Y-11644595D01*
X6336071Y-11654119D01*
X6574167Y-11596976D02*
X6593214Y-11596976D01*
X6612262Y-11606500D01*
X6621786Y-11616024D01*
X6631309Y-11635071D01*
X6640833Y-11673167D01*
X6640833Y-11720786D01*
X6631309Y-11758881D01*
X6621786Y-11777928D01*
X6612262Y-11787452D01*
X6593214Y-11796976D01*
X6574167Y-11796976D01*
X6555119Y-11787452D01*
X6545595Y-11777928D01*
X6536071Y-11758881D01*
X6526548Y-11720786D01*
X6526548Y-11673167D01*
X6536071Y-11635071D01*
X6545595Y-11616024D01*
X6555119Y-11606500D01*
X6574167Y-11596976D01*
X6878928Y-11796976D02*
X6878928Y-11596976D01*
X6964643Y-11796976D02*
X6964643Y-11692214D01*
X6955119Y-11673167D01*
X6936071Y-11663643D01*
X6907500Y-11663643D01*
X6888452Y-11673167D01*
X6878928Y-11682690D01*
X7088452Y-11796976D02*
X7069405Y-11787452D01*
X7059881Y-11777928D01*
X7050357Y-11758881D01*
X7050357Y-11701738D01*
X7059881Y-11682690D01*
X7069405Y-11673167D01*
X7088452Y-11663643D01*
X7117024Y-11663643D01*
X7136071Y-11673167D01*
X7145595Y-11682690D01*
X7155119Y-11701738D01*
X7155119Y-11758881D01*
X7145595Y-11777928D01*
X7136071Y-11787452D01*
X7117024Y-11796976D01*
X7088452Y-11796976D01*
X7269405Y-11796976D02*
X7250357Y-11787452D01*
X7240833Y-11768405D01*
X7240833Y-11596976D01*
X7421786Y-11787452D02*
X7402738Y-11796976D01*
X7364643Y-11796976D01*
X7345595Y-11787452D01*
X7336071Y-11768405D01*
X7336071Y-11692214D01*
X7345595Y-11673167D01*
X7364643Y-11663643D01*
X7402738Y-11663643D01*
X7421786Y-11673167D01*
X7431309Y-11692214D01*
X7431309Y-11711262D01*
X7336071Y-11730309D01*
X7507500Y-11787452D02*
X7526548Y-11796976D01*
X7564643Y-11796976D01*
X7583690Y-11787452D01*
X7593214Y-11768405D01*
X7593214Y-11758881D01*
X7583690Y-11739833D01*
X7564643Y-11730309D01*
X7536071Y-11730309D01*
X7517024Y-11720786D01*
X7507500Y-11701738D01*
X7507500Y-11692214D01*
X7517024Y-11673167D01*
X7536071Y-11663643D01*
X7564643Y-11663643D01*
X7583690Y-11673167D01*
X7659881Y-11873167D02*
X7669405Y-11863643D01*
X7688452Y-11835071D01*
X7697976Y-11816024D01*
X7707500Y-11787452D01*
X7717024Y-11739833D01*
X7717024Y-11701738D01*
X7707500Y-11654119D01*
X7697976Y-11625548D01*
X7688452Y-11606500D01*
X7669405Y-11577928D01*
X7659881Y-11568405D01*
M02*
