%TF.GenerationSoftware,KiCad,Pcbnew,(6.0.5)*%
%TF.CreationDate,2022-09-08T00:21:15+12:00*%
%TF.ProjectId,OpenEFCS_electronics,4f70656e-4546-4435-935f-656c65637472,rev?*%
%TF.SameCoordinates,Original*%
%TF.FileFunction,Paste,Bot*%
%TF.FilePolarity,Positive*%
%FSLAX46Y46*%
G04 Gerber Fmt 4.6, Leading zero omitted, Abs format (unit mm)*
G04 Created by KiCad (PCBNEW (6.0.5)) date 2022-09-08 00:21:15*
%MOMM*%
%LPD*%
G01*
G04 APERTURE LIST*
G04 Aperture macros list*
%AMRoundRect*
0 Rectangle with rounded corners*
0 $1 Rounding radius*
0 $2 $3 $4 $5 $6 $7 $8 $9 X,Y pos of 4 corners*
0 Add a 4 corners polygon primitive as box body*
4,1,4,$2,$3,$4,$5,$6,$7,$8,$9,$2,$3,0*
0 Add four circle primitives for the rounded corners*
1,1,$1+$1,$2,$3*
1,1,$1+$1,$4,$5*
1,1,$1+$1,$6,$7*
1,1,$1+$1,$8,$9*
0 Add four rect primitives between the rounded corners*
20,1,$1+$1,$2,$3,$4,$5,0*
20,1,$1+$1,$4,$5,$6,$7,0*
20,1,$1+$1,$6,$7,$8,$9,0*
20,1,$1+$1,$8,$9,$2,$3,0*%
G04 Aperture macros list end*
%ADD10RoundRect,0.225000X-0.250000X0.225000X-0.250000X-0.225000X0.250000X-0.225000X0.250000X0.225000X0*%
%ADD11RoundRect,0.200000X0.275000X-0.200000X0.275000X0.200000X-0.275000X0.200000X-0.275000X-0.200000X0*%
%ADD12RoundRect,0.250000X-0.475000X0.250000X-0.475000X-0.250000X0.475000X-0.250000X0.475000X0.250000X0*%
%ADD13RoundRect,0.200000X-0.275000X0.200000X-0.275000X-0.200000X0.275000X-0.200000X0.275000X0.200000X0*%
%ADD14RoundRect,0.250000X0.475000X-0.250000X0.475000X0.250000X-0.475000X0.250000X-0.475000X-0.250000X0*%
%ADD15RoundRect,0.218750X-0.381250X0.218750X-0.381250X-0.218750X0.381250X-0.218750X0.381250X0.218750X0*%
%ADD16RoundRect,0.150000X0.825000X0.150000X-0.825000X0.150000X-0.825000X-0.150000X0.825000X-0.150000X0*%
%ADD17RoundRect,0.225000X0.250000X-0.225000X0.250000X0.225000X-0.250000X0.225000X-0.250000X-0.225000X0*%
%ADD18RoundRect,0.200000X0.200000X0.275000X-0.200000X0.275000X-0.200000X-0.275000X0.200000X-0.275000X0*%
%ADD19RoundRect,0.125000X0.625000X0.125000X-0.625000X0.125000X-0.625000X-0.125000X0.625000X-0.125000X0*%
%ADD20RoundRect,0.125000X0.125000X0.625000X-0.125000X0.625000X-0.125000X-0.625000X0.125000X-0.625000X0*%
%ADD21RoundRect,0.250000X-0.925000X0.412500X-0.925000X-0.412500X0.925000X-0.412500X0.925000X0.412500X0*%
%ADD22RoundRect,0.250000X-0.312500X-0.625000X0.312500X-0.625000X0.312500X0.625000X-0.312500X0.625000X0*%
%ADD23RoundRect,0.150000X0.512500X0.150000X-0.512500X0.150000X-0.512500X-0.150000X0.512500X-0.150000X0*%
%ADD24RoundRect,0.200000X-0.200000X-0.275000X0.200000X-0.275000X0.200000X0.275000X-0.200000X0.275000X0*%
G04 APERTURE END LIST*
D10*
%TO.C,C14*%
X144000000Y13275000D03*
X144000000Y11725000D03*
%TD*%
%TO.C,C11*%
X182000000Y23775000D03*
X182000000Y22225000D03*
%TD*%
D11*
%TO.C,R22*%
X164500000Y9675000D03*
X164500000Y11325000D03*
%TD*%
D12*
%TO.C,C13*%
X163500000Y14950000D03*
X163500000Y13050000D03*
%TD*%
D10*
%TO.C,C18*%
X148000000Y22275000D03*
X148000000Y20725000D03*
%TD*%
D13*
%TO.C,R4*%
X157500000Y22075000D03*
X157500000Y20425000D03*
%TD*%
D14*
%TO.C,C17*%
X148500000Y10050000D03*
X148500000Y11950000D03*
%TD*%
D15*
%TO.C,L2*%
X161500000Y23062500D03*
X161500000Y20937500D03*
%TD*%
D16*
%TO.C,U4*%
X155975000Y12905000D03*
X155975000Y11635000D03*
X155975000Y10365000D03*
X155975000Y9095000D03*
X151025000Y9095000D03*
X151025000Y10365000D03*
X151025000Y11635000D03*
X151025000Y12905000D03*
%TD*%
D12*
%TO.C,C16*%
X161000000Y11450000D03*
X161000000Y9550000D03*
%TD*%
D13*
%TO.C,R6*%
X159750000Y17825000D03*
X159750000Y16175000D03*
%TD*%
D17*
%TO.C,C9*%
X172500000Y23725000D03*
X172500000Y25275000D03*
%TD*%
D18*
%TO.C,TH1*%
X158825000Y14500000D03*
X157175000Y14500000D03*
%TD*%
D19*
%TO.C,U1*%
X172175000Y22300000D03*
X172175000Y21500000D03*
X172175000Y20700000D03*
X172175000Y19900000D03*
X172175000Y19100000D03*
X172175000Y18300000D03*
X172175000Y17500000D03*
X172175000Y16700000D03*
D20*
X170800000Y15325000D03*
X170000000Y15325000D03*
X169200000Y15325000D03*
X168400000Y15325000D03*
X167600000Y15325000D03*
X166800000Y15325000D03*
X166000000Y15325000D03*
X165200000Y15325000D03*
D19*
X163825000Y16700000D03*
X163825000Y17500000D03*
X163825000Y18300000D03*
X163825000Y19100000D03*
X163825000Y19900000D03*
X163825000Y20700000D03*
X163825000Y21500000D03*
X163825000Y22300000D03*
D20*
X165200000Y23675000D03*
X166000000Y23675000D03*
X166800000Y23675000D03*
X167600000Y23675000D03*
X168400000Y23675000D03*
X169200000Y23675000D03*
X170000000Y23675000D03*
X170800000Y23675000D03*
%TD*%
D17*
%TO.C,C3*%
X179750000Y18225000D03*
X179750000Y19775000D03*
%TD*%
D14*
%TO.C,C2*%
X157500000Y23550000D03*
X157500000Y25450000D03*
%TD*%
D21*
%TO.C,CIN1*%
X135750000Y24287500D03*
X135750000Y21212500D03*
%TD*%
D22*
%TO.C,TJ1*%
X152537500Y15000000D03*
X155462500Y15000000D03*
%TD*%
D11*
%TO.C,R3*%
X175000000Y18425000D03*
X175000000Y20075000D03*
%TD*%
D13*
%TO.C,R9*%
X180500000Y23825000D03*
X180500000Y22175000D03*
%TD*%
D15*
%TO.C,L1*%
X159500000Y23062500D03*
X159500000Y20937500D03*
%TD*%
D13*
%TO.C,R17*%
X150000000Y22325000D03*
X150000000Y20675000D03*
%TD*%
D23*
%TO.C,U5*%
X150637500Y18450000D03*
X150637500Y17500000D03*
X150637500Y16550000D03*
X148362500Y16550000D03*
X148362500Y18450000D03*
%TD*%
D17*
%TO.C,C7*%
X182000000Y10225000D03*
X182000000Y11775000D03*
%TD*%
D24*
%TO.C,R19*%
X160175000Y14500000D03*
X161825000Y14500000D03*
%TD*%
D12*
%TO.C,C4*%
X157500000Y17950000D03*
X157500000Y16050000D03*
%TD*%
%TO.C,C10*%
X161500000Y17950000D03*
X161500000Y16050000D03*
%TD*%
D11*
%TO.C,R7*%
X180500000Y10175000D03*
X180500000Y11825000D03*
%TD*%
M02*
