%FSLAX45Y45*%
G04 Gerber Fmt 4.5, Leading zero omitted, Abs format (unit mm)*
G04 Created by KiCad (PCBNEW (6.0.5)) date 2022-09-08 00:21:16*
%MOMM*%
%LPD*%
G01*
G04 APERTURE LIST*
%TA.AperFunction,Profile*%
%ADD10C,0.050000*%
%TD*%
%ADD11C,0.200000*%
%ADD12C,0.040000*%
%ADD13C,0.075000*%
%ADD14C,0.150000*%
%ADD15C,0.270000*%
G04 APERTURE END LIST*
D10*
X13400000Y1530000D02*
G75*
G03*
X13400000Y1870000I0J170000D01*
G01*
X13400000Y850000D02*
G75*
G03*
X13500000Y750000I100000J0D01*
G01*
X18400000Y850000D02*
X18400000Y1530000D01*
X13500000Y2650000D02*
G75*
G03*
X13400000Y2550000I0J-100000D01*
G01*
X13500000Y750000D02*
X18300000Y750000D01*
X18400000Y1870000D02*
X18400000Y2550000D01*
X13400000Y1870000D02*
X13400000Y2550000D01*
X18400000Y1870000D02*
G75*
G03*
X18400000Y1530000I0J-170000D01*
G01*
X18300000Y2650000D02*
X13500000Y2650000D01*
X18400000Y2550000D02*
G75*
G03*
X18300000Y2650000I-100000J0D01*
G01*
X18300000Y750000D02*
G75*
G03*
X18400000Y850000I0J100000D01*
G01*
X13400000Y1530000D02*
X13400000Y850000D01*
D11*
D12*
X13505000Y1095000D02*
X13545000Y1055000D01*
X13545000Y1095000D02*
X13505000Y1055000D01*
X13505000Y970000D02*
X13545000Y930000D01*
X13545000Y970000D02*
X13505000Y930000D01*
X13605000Y1095000D02*
X13645000Y1055000D01*
X13645000Y1095000D02*
X13605000Y1055000D01*
X13630000Y970000D02*
X13670000Y930000D01*
X13670000Y970000D02*
X13630000Y930000D01*
X13730000Y1095000D02*
X13770000Y1055000D01*
X13770000Y1095000D02*
X13730000Y1055000D01*
X13730000Y970000D02*
X13770000Y930000D01*
X13770000Y970000D02*
X13730000Y930000D01*
X13830000Y1095000D02*
X13870000Y1055000D01*
X13870000Y1095000D02*
X13830000Y1055000D01*
X13830000Y970000D02*
X13870000Y930000D01*
X13870000Y970000D02*
X13830000Y930000D01*
X13930000Y1095000D02*
X13970000Y1055000D01*
X13970000Y1095000D02*
X13930000Y1055000D01*
X13930000Y970000D02*
X13970000Y930000D01*
X13970000Y970000D02*
X13930000Y930000D01*
X14030000Y1095000D02*
X14070000Y1055000D01*
X14070000Y1095000D02*
X14030000Y1055000D01*
X14030000Y970000D02*
X14070000Y930000D01*
X14070000Y970000D02*
X14030000Y930000D01*
X14130000Y1095000D02*
X14170000Y1055000D01*
X14170000Y1095000D02*
X14130000Y1055000D01*
X14130000Y970000D02*
X14170000Y930000D01*
X14170000Y970000D02*
X14130000Y930000D01*
X14380000Y1570000D02*
X14420000Y1530000D01*
X14420000Y1570000D02*
X14380000Y1530000D01*
X14380000Y1470000D02*
X14420000Y1430000D01*
X14420000Y1470000D02*
X14380000Y1430000D01*
X14480000Y1570000D02*
X14520000Y1530000D01*
X14520000Y1570000D02*
X14480000Y1530000D01*
X14480000Y1470000D02*
X14520000Y1430000D01*
X14520000Y1470000D02*
X14480000Y1430000D01*
X14505000Y995000D02*
X14545000Y955000D01*
X14545000Y995000D02*
X14505000Y955000D01*
X14580000Y1570000D02*
X14620000Y1530000D01*
X14620000Y1570000D02*
X14580000Y1530000D01*
X14580000Y1470000D02*
X14620000Y1430000D01*
X14620000Y1470000D02*
X14580000Y1430000D01*
X14655000Y995000D02*
X14695000Y955000D01*
X14695000Y995000D02*
X14655000Y955000D01*
X14680000Y2020000D02*
X14720000Y1980000D01*
X14720000Y2020000D02*
X14680000Y1980000D01*
X14680000Y1570000D02*
X14720000Y1530000D01*
X14720000Y1570000D02*
X14680000Y1530000D01*
X14680000Y1470000D02*
X14720000Y1430000D01*
X14720000Y1470000D02*
X14680000Y1430000D01*
X14780000Y1570000D02*
X14820000Y1530000D01*
X14820000Y1570000D02*
X14780000Y1530000D01*
X14780000Y1470000D02*
X14820000Y1430000D01*
X14820000Y1470000D02*
X14780000Y1430000D01*
X14805000Y1220000D02*
X14845000Y1180000D01*
X14845000Y1220000D02*
X14805000Y1180000D01*
X14880000Y2220000D02*
X14920000Y2180000D01*
X14920000Y2220000D02*
X14880000Y2180000D01*
X15005000Y1970000D02*
X15045000Y1930000D01*
X15045000Y1970000D02*
X15005000Y1930000D01*
X15082500Y1070000D02*
X15122500Y1030000D01*
X15122500Y1070000D02*
X15082500Y1030000D01*
X15180000Y1545000D02*
X15220000Y1505000D01*
X15220000Y1545000D02*
X15180000Y1505000D01*
X15180000Y1445000D02*
X15220000Y1405000D01*
X15220000Y1445000D02*
X15180000Y1405000D01*
X15280000Y1845000D02*
X15320000Y1805000D01*
X15320000Y1845000D02*
X15280000Y1805000D01*
X15280000Y1745000D02*
X15320000Y1705000D01*
X15320000Y1745000D02*
X15280000Y1705000D01*
X15280000Y1545000D02*
X15320000Y1505000D01*
X15320000Y1545000D02*
X15280000Y1505000D01*
X15280000Y1445000D02*
X15320000Y1405000D01*
X15320000Y1445000D02*
X15280000Y1405000D01*
X15280000Y1345000D02*
X15320000Y1305000D01*
X15320000Y1345000D02*
X15280000Y1305000D01*
X15380000Y1845000D02*
X15420000Y1805000D01*
X15420000Y1845000D02*
X15380000Y1805000D01*
X15380000Y1745000D02*
X15420000Y1705000D01*
X15420000Y1745000D02*
X15380000Y1705000D01*
X15380000Y1345000D02*
X15420000Y1305000D01*
X15420000Y1345000D02*
X15380000Y1305000D01*
X15405000Y1120000D02*
X15445000Y1080000D01*
X15445000Y1120000D02*
X15405000Y1080000D01*
X15405000Y1020000D02*
X15445000Y980000D01*
X15445000Y1020000D02*
X15405000Y980000D01*
X15480000Y1845000D02*
X15520000Y1805000D01*
X15520000Y1845000D02*
X15480000Y1805000D01*
X15480000Y1745000D02*
X15520000Y1705000D01*
X15520000Y1745000D02*
X15480000Y1705000D01*
X15730000Y2545000D02*
X15770000Y2505000D01*
X15770000Y2545000D02*
X15730000Y2505000D01*
X15730000Y1520000D02*
X15770000Y1480000D01*
X15770000Y1520000D02*
X15730000Y1480000D01*
X15880000Y1670000D02*
X15920000Y1630000D01*
X15920000Y1670000D02*
X15880000Y1630000D01*
X15880000Y945000D02*
X15920000Y905000D01*
X15920000Y945000D02*
X15880000Y905000D01*
X15905000Y1870000D02*
X15945000Y1830000D01*
X15945000Y1870000D02*
X15905000Y1830000D01*
X15920000Y1340000D02*
X15960000Y1300000D01*
X15960000Y1340000D02*
X15920000Y1300000D01*
X15955000Y2070000D02*
X15995000Y2030000D01*
X15995000Y2070000D02*
X15955000Y2030000D01*
X16030000Y1970336D02*
X16070000Y1930336D01*
X16070000Y1970336D02*
X16030000Y1930336D01*
X16080000Y870000D02*
X16120000Y830000D01*
X16120000Y870000D02*
X16080000Y830000D01*
X16120000Y1340000D02*
X16160000Y1300000D01*
X16160000Y1340000D02*
X16120000Y1300000D01*
X16130000Y2320000D02*
X16170000Y2280000D01*
X16170000Y2320000D02*
X16130000Y2280000D01*
X16130000Y1870000D02*
X16170000Y1830000D01*
X16170000Y1870000D02*
X16130000Y1830000D01*
X16130000Y1670000D02*
X16170000Y1630000D01*
X16170000Y1670000D02*
X16130000Y1630000D01*
X16180000Y2170000D02*
X16220000Y2130000D01*
X16220000Y2170000D02*
X16180000Y2130000D01*
X16230000Y1470000D02*
X16270000Y1430000D01*
X16270000Y1470000D02*
X16230000Y1430000D01*
X16328770Y2521230D02*
X16368770Y2481230D01*
X16368770Y2521230D02*
X16328770Y2481230D01*
X16355000Y1270000D02*
X16395000Y1230000D01*
X16395000Y1270000D02*
X16355000Y1230000D01*
X16355000Y1045000D02*
X16395000Y1005000D01*
X16395000Y1045000D02*
X16355000Y1005000D01*
X16479782Y2545000D02*
X16519782Y2505000D01*
X16519782Y2545000D02*
X16479782Y2505000D01*
X16480000Y1320000D02*
X16520000Y1280000D01*
X16520000Y1320000D02*
X16480000Y1280000D01*
X16505000Y1870000D02*
X16545000Y1830000D01*
X16545000Y1870000D02*
X16505000Y1830000D01*
X16505000Y1720000D02*
X16545000Y1680000D01*
X16545000Y1720000D02*
X16505000Y1680000D01*
X16530000Y2020000D02*
X16570000Y1980000D01*
X16570000Y2020000D02*
X16530000Y1980000D01*
X16580000Y1070000D02*
X16620000Y1030000D01*
X16620000Y1070000D02*
X16580000Y1030000D01*
X16630000Y2545000D02*
X16670000Y2505000D01*
X16670000Y2545000D02*
X16630000Y2505000D01*
X16630000Y2220000D02*
X16670000Y2180000D01*
X16670000Y2220000D02*
X16630000Y2180000D01*
X16630000Y1720000D02*
X16670000Y1680000D01*
X16670000Y1720000D02*
X16630000Y1680000D01*
X16630000Y1320000D02*
X16670000Y1280000D01*
X16670000Y1320000D02*
X16630000Y1280000D01*
X16630000Y1170000D02*
X16670000Y1130000D01*
X16670000Y1170000D02*
X16630000Y1130000D01*
X16780000Y2220000D02*
X16820000Y2180000D01*
X16820000Y2220000D02*
X16780000Y2180000D01*
X16780000Y2070000D02*
X16820000Y2030000D01*
X16820000Y2070000D02*
X16780000Y2030000D01*
X16780000Y1320000D02*
X16820000Y1280000D01*
X16820000Y1320000D02*
X16780000Y1280000D01*
X16830000Y870000D02*
X16870000Y830000D01*
X16870000Y870000D02*
X16830000Y830000D01*
X16930000Y1320000D02*
X16970000Y1280000D01*
X16970000Y1320000D02*
X16930000Y1280000D01*
X16930000Y1170000D02*
X16970000Y1130000D01*
X16970000Y1170000D02*
X16930000Y1130000D01*
X16955000Y995000D02*
X16995000Y955000D01*
X16995000Y995000D02*
X16955000Y955000D01*
X16980000Y1720000D02*
X17020000Y1680000D01*
X17020000Y1720000D02*
X16980000Y1680000D01*
X17030000Y2570000D02*
X17070000Y2530000D01*
X17070000Y2570000D02*
X17030000Y2530000D01*
X17030000Y1845000D02*
X17070000Y1805000D01*
X17070000Y1845000D02*
X17030000Y1805000D01*
X17080000Y2420000D02*
X17120000Y2380000D01*
X17120000Y2420000D02*
X17080000Y2380000D01*
X17080000Y2020000D02*
X17120000Y1980000D01*
X17120000Y2020000D02*
X17080000Y1980000D01*
X17080000Y1320000D02*
X17120000Y1280000D01*
X17120000Y1320000D02*
X17080000Y1280000D01*
X17330000Y2570000D02*
X17370000Y2530000D01*
X17370000Y2570000D02*
X17330000Y2530000D01*
X17330000Y2320000D02*
X17370000Y2280000D01*
X17370000Y2320000D02*
X17330000Y2280000D01*
X17330000Y1620000D02*
X17370000Y1580000D01*
X17370000Y1620000D02*
X17330000Y1580000D01*
X17380000Y2020000D02*
X17420000Y1980000D01*
X17420000Y2020000D02*
X17380000Y1980000D01*
X17530000Y2320000D02*
X17570000Y2280000D01*
X17570000Y2320000D02*
X17530000Y2280000D01*
X17530000Y1320000D02*
X17570000Y1280000D01*
X17570000Y1320000D02*
X17530000Y1280000D01*
X17580000Y2420000D02*
X17620000Y2380000D01*
X17620000Y2420000D02*
X17580000Y2380000D01*
X17580000Y2220000D02*
X17620000Y2180000D01*
X17620000Y2220000D02*
X17580000Y2180000D01*
X17630000Y1970000D02*
X17670000Y1930000D01*
X17670000Y1970000D02*
X17630000Y1930000D01*
X17930000Y2470000D02*
X17970000Y2430000D01*
X17970000Y2470000D02*
X17930000Y2430000D01*
X17930000Y2120000D02*
X17970000Y2080000D01*
X17970000Y2120000D02*
X17930000Y2080000D01*
X17930000Y1520000D02*
X17970000Y1480000D01*
X17970000Y1520000D02*
X17930000Y1480000D01*
X17930000Y920000D02*
X17970000Y880000D01*
X17970000Y920000D02*
X17930000Y880000D01*
X18180000Y2570000D02*
X18220000Y2530000D01*
X18220000Y2570000D02*
X18180000Y2530000D01*
X18180000Y2070000D02*
X18220000Y2030000D01*
X18220000Y2070000D02*
X18180000Y2030000D01*
X18180000Y1370000D02*
X18220000Y1330000D01*
X18220000Y1370000D02*
X18180000Y1330000D01*
X18180000Y870000D02*
X18220000Y830000D01*
X18220000Y870000D02*
X18180000Y830000D01*
D13*
X17792500Y2400000D02*
G75*
G03*
X17792500Y2400000I-37500J0D01*
G01*
X17792500Y2200000D02*
G75*
G03*
X17792500Y2200000I-37500J0D01*
G01*
X17792500Y2000000D02*
G75*
G03*
X17792500Y2000000I-37500J0D01*
G01*
X17792500Y1800000D02*
G75*
G03*
X17792500Y1800000I-37500J0D01*
G01*
X17792500Y1600000D02*
G75*
G03*
X17792500Y1600000I-37500J0D01*
G01*
X17792500Y1400000D02*
G75*
G03*
X17792500Y1400000I-37500J0D01*
G01*
X17792500Y1200000D02*
G75*
G03*
X17792500Y1200000I-37500J0D01*
G01*
X17792500Y1000000D02*
G75*
G03*
X17792500Y1000000I-37500J0D01*
G01*
D14*
X14015000Y2495000D02*
X14015000Y2345000D01*
X13940000Y2420000D02*
X14090000Y2420000D01*
D11*
X13975000Y2355000D02*
X14055000Y2355000D01*
X13975000Y2485000D02*
X14055000Y2485000D01*
X14055000Y2355000D02*
G75*
G03*
X14055000Y2485000I0J65000D01*
G01*
X13975000Y2485000D02*
G75*
G03*
X13975000Y2355000I0J-65000D01*
G01*
D14*
X14015000Y2155000D02*
X14015000Y2005000D01*
X13940000Y2080000D02*
X14090000Y2080000D01*
D11*
X13975000Y2015000D02*
X14055000Y2015000D01*
X13975000Y2145000D02*
X14055000Y2145000D01*
X14055000Y2015000D02*
G75*
G03*
X14055000Y2145000I0J65000D01*
G01*
X13975000Y2145000D02*
G75*
G03*
X13975000Y2015000I0J-65000D01*
G01*
D14*
X15385000Y2495000D02*
X15385000Y2345000D01*
X15310000Y2420000D02*
X15460000Y2420000D01*
D11*
X15345000Y2355000D02*
X15425000Y2355000D01*
X15345000Y2485000D02*
X15425000Y2485000D01*
X15425000Y2355000D02*
G75*
G03*
X15425000Y2485000I0J65000D01*
G01*
X15345000Y2485000D02*
G75*
G03*
X15345000Y2355000I0J-65000D01*
G01*
D14*
X15385000Y2155000D02*
X15385000Y2005000D01*
X15310000Y2080000D02*
X15460000Y2080000D01*
D11*
X15345000Y2015000D02*
X15425000Y2015000D01*
X15345000Y2145000D02*
X15425000Y2145000D01*
X15425000Y2015000D02*
G75*
G03*
X15425000Y2145000I0J65000D01*
G01*
X15345000Y2145000D02*
G75*
G03*
X15345000Y2015000I0J-65000D01*
G01*
D15*
X17395460Y954540D02*
X17395460Y1145460D01*
X17204540Y1145460D01*
X17204540Y954540D01*
X17395460Y954540D01*
D11*
X13655119Y437024D02*
X13655119Y637024D01*
X13702738Y637024D01*
X13731309Y627500D01*
X13750357Y608452D01*
X13759881Y589405D01*
X13769405Y551310D01*
X13769405Y522738D01*
X13759881Y484643D01*
X13750357Y465595D01*
X13731309Y446548D01*
X13702738Y437024D01*
X13655119Y437024D01*
X13855119Y437024D02*
X13855119Y570357D01*
X13855119Y532262D02*
X13864643Y551310D01*
X13874167Y560833D01*
X13893214Y570357D01*
X13912262Y570357D01*
X13978928Y437024D02*
X13978928Y570357D01*
X13978928Y637024D02*
X13969405Y627500D01*
X13978928Y617976D01*
X13988452Y627500D01*
X13978928Y637024D01*
X13978928Y617976D01*
X14102738Y437024D02*
X14083690Y446548D01*
X14074167Y465595D01*
X14074167Y637024D01*
X14207500Y437024D02*
X14188452Y446548D01*
X14178928Y465595D01*
X14178928Y637024D01*
X14436071Y437024D02*
X14436071Y637024D01*
X14502738Y494167D01*
X14569405Y637024D01*
X14569405Y437024D01*
X14750357Y437024D02*
X14750357Y541786D01*
X14740833Y560833D01*
X14721786Y570357D01*
X14683690Y570357D01*
X14664643Y560833D01*
X14750357Y446548D02*
X14731309Y437024D01*
X14683690Y437024D01*
X14664643Y446548D01*
X14655119Y465595D01*
X14655119Y484643D01*
X14664643Y503690D01*
X14683690Y513214D01*
X14731309Y513214D01*
X14750357Y522738D01*
X14845595Y570357D02*
X14845595Y370357D01*
X14845595Y560833D02*
X14864643Y570357D01*
X14902738Y570357D01*
X14921786Y560833D01*
X14931309Y551310D01*
X14940833Y532262D01*
X14940833Y475119D01*
X14931309Y456071D01*
X14921786Y446548D01*
X14902738Y437024D01*
X14864643Y437024D01*
X14845595Y446548D01*
X15026548Y456071D02*
X15036071Y446548D01*
X15026548Y437024D01*
X15017024Y446548D01*
X15026548Y456071D01*
X15026548Y437024D01*
X15026548Y560833D02*
X15036071Y551310D01*
X15026548Y541786D01*
X15017024Y551310D01*
X15026548Y560833D01*
X15026548Y541786D01*
D12*
X13357500Y127500D02*
X13397500Y87500D01*
X13397500Y127500D02*
X13357500Y87500D01*
D11*
X13693214Y217024D02*
X13712262Y217024D01*
X13731309Y207500D01*
X13740833Y197976D01*
X13750357Y178928D01*
X13759881Y140833D01*
X13759881Y93214D01*
X13750357Y55119D01*
X13740833Y36071D01*
X13731309Y26548D01*
X13712262Y17024D01*
X13693214Y17024D01*
X13674167Y26548D01*
X13664643Y36071D01*
X13655119Y55119D01*
X13645595Y93214D01*
X13645595Y140833D01*
X13655119Y178928D01*
X13664643Y197976D01*
X13674167Y207500D01*
X13693214Y217024D01*
X13845595Y36071D02*
X13855119Y26548D01*
X13845595Y17024D01*
X13836071Y26548D01*
X13845595Y36071D01*
X13845595Y17024D01*
X14026548Y150357D02*
X14026548Y17024D01*
X13978928Y226548D02*
X13931309Y83690D01*
X14055119Y83690D01*
X14169405Y217024D02*
X14188452Y217024D01*
X14207500Y207500D01*
X14217024Y197976D01*
X14226548Y178928D01*
X14236071Y140833D01*
X14236071Y93214D01*
X14226548Y55119D01*
X14217024Y36071D01*
X14207500Y26548D01*
X14188452Y17024D01*
X14169405Y17024D01*
X14150357Y26548D01*
X14140833Y36071D01*
X14131309Y55119D01*
X14121786Y93214D01*
X14121786Y140833D01*
X14131309Y178928D01*
X14140833Y197976D01*
X14150357Y207500D01*
X14169405Y217024D01*
X14359881Y217024D02*
X14378928Y217024D01*
X14397976Y207500D01*
X14407500Y197976D01*
X14417024Y178928D01*
X14426548Y140833D01*
X14426548Y93214D01*
X14417024Y55119D01*
X14407500Y36071D01*
X14397976Y26548D01*
X14378928Y17024D01*
X14359881Y17024D01*
X14340833Y26548D01*
X14331309Y36071D01*
X14321786Y55119D01*
X14312262Y93214D01*
X14312262Y140833D01*
X14321786Y178928D01*
X14331309Y197976D01*
X14340833Y207500D01*
X14359881Y217024D01*
X14512262Y17024D02*
X14512262Y150357D01*
X14512262Y131310D02*
X14521786Y140833D01*
X14540833Y150357D01*
X14569405Y150357D01*
X14588452Y140833D01*
X14597976Y121786D01*
X14597976Y17024D01*
X14597976Y121786D02*
X14607500Y140833D01*
X14626548Y150357D01*
X14655119Y150357D01*
X14674167Y140833D01*
X14683690Y121786D01*
X14683690Y17024D01*
X14778928Y17024D02*
X14778928Y150357D01*
X14778928Y131310D02*
X14788452Y140833D01*
X14807500Y150357D01*
X14836071Y150357D01*
X14855119Y140833D01*
X14864643Y121786D01*
X14864643Y17024D01*
X14864643Y121786D02*
X14874167Y140833D01*
X14893214Y150357D01*
X14921786Y150357D01*
X14940833Y140833D01*
X14950357Y121786D01*
X14950357Y17024D01*
X15340833Y226548D02*
X15169405Y-30595D01*
X15597976Y217024D02*
X15617024Y217024D01*
X15636071Y207500D01*
X15645595Y197976D01*
X15655119Y178928D01*
X15664643Y140833D01*
X15664643Y93214D01*
X15655119Y55119D01*
X15645595Y36071D01*
X15636071Y26548D01*
X15617024Y17024D01*
X15597976Y17024D01*
X15578928Y26548D01*
X15569405Y36071D01*
X15559881Y55119D01*
X15550357Y93214D01*
X15550357Y140833D01*
X15559881Y178928D01*
X15569405Y197976D01*
X15578928Y207500D01*
X15597976Y217024D01*
X15750357Y36071D02*
X15759881Y26548D01*
X15750357Y17024D01*
X15740833Y26548D01*
X15750357Y36071D01*
X15750357Y17024D01*
X15883690Y217024D02*
X15902738Y217024D01*
X15921786Y207500D01*
X15931309Y197976D01*
X15940833Y178928D01*
X15950357Y140833D01*
X15950357Y93214D01*
X15940833Y55119D01*
X15931309Y36071D01*
X15921786Y26548D01*
X15902738Y17024D01*
X15883690Y17024D01*
X15864643Y26548D01*
X15855119Y36071D01*
X15845595Y55119D01*
X15836071Y93214D01*
X15836071Y140833D01*
X15845595Y178928D01*
X15855119Y197976D01*
X15864643Y207500D01*
X15883690Y217024D01*
X16140833Y17024D02*
X16026548Y17024D01*
X16083690Y17024D02*
X16083690Y217024D01*
X16064643Y188452D01*
X16045595Y169405D01*
X16026548Y159881D01*
X16321786Y217024D02*
X16226548Y217024D01*
X16217024Y121786D01*
X16226548Y131310D01*
X16245595Y140833D01*
X16293214Y140833D01*
X16312262Y131310D01*
X16321786Y121786D01*
X16331309Y102738D01*
X16331309Y55119D01*
X16321786Y36071D01*
X16312262Y26548D01*
X16293214Y17024D01*
X16245595Y17024D01*
X16226548Y26548D01*
X16217024Y36071D01*
X16397976Y217024D02*
X16531309Y217024D01*
X16445595Y17024D01*
X16597976Y217024D02*
X16597976Y178928D01*
X16674167Y217024D02*
X16674167Y178928D01*
X16969405Y-59167D02*
X16959881Y-49643D01*
X16940833Y-21071D01*
X16931310Y-2024D01*
X16921786Y26548D01*
X16912262Y74167D01*
X16912262Y112262D01*
X16921786Y159881D01*
X16931310Y188452D01*
X16940833Y207500D01*
X16959881Y236071D01*
X16969405Y245595D01*
X17150357Y17024D02*
X17036071Y17024D01*
X17093214Y17024D02*
X17093214Y217024D01*
X17074167Y188452D01*
X17055119Y169405D01*
X17036071Y159881D01*
X17274167Y217024D02*
X17293214Y217024D01*
X17312262Y207500D01*
X17321786Y197976D01*
X17331310Y178928D01*
X17340833Y140833D01*
X17340833Y93214D01*
X17331310Y55119D01*
X17321786Y36071D01*
X17312262Y26548D01*
X17293214Y17024D01*
X17274167Y17024D01*
X17255119Y26548D01*
X17245595Y36071D01*
X17236071Y55119D01*
X17226548Y93214D01*
X17226548Y140833D01*
X17236071Y178928D01*
X17245595Y197976D01*
X17255119Y207500D01*
X17274167Y217024D01*
X17512262Y150357D02*
X17512262Y17024D01*
X17464643Y226548D02*
X17417024Y83690D01*
X17540833Y83690D01*
X17769405Y17024D02*
X17769405Y217024D01*
X17855119Y17024D02*
X17855119Y121786D01*
X17845595Y140833D01*
X17826548Y150357D01*
X17797976Y150357D01*
X17778929Y140833D01*
X17769405Y131310D01*
X17978929Y17024D02*
X17959881Y26548D01*
X17950357Y36071D01*
X17940833Y55119D01*
X17940833Y112262D01*
X17950357Y131310D01*
X17959881Y140833D01*
X17978929Y150357D01*
X18007500Y150357D01*
X18026548Y140833D01*
X18036071Y131310D01*
X18045595Y112262D01*
X18045595Y55119D01*
X18036071Y36071D01*
X18026548Y26548D01*
X18007500Y17024D01*
X17978929Y17024D01*
X18159881Y17024D02*
X18140833Y26548D01*
X18131310Y45595D01*
X18131310Y217024D01*
X18312262Y26548D02*
X18293214Y17024D01*
X18255119Y17024D01*
X18236071Y26548D01*
X18226548Y45595D01*
X18226548Y121786D01*
X18236071Y140833D01*
X18255119Y150357D01*
X18293214Y150357D01*
X18312262Y140833D01*
X18321786Y121786D01*
X18321786Y102738D01*
X18226548Y83690D01*
X18397976Y26548D02*
X18417024Y17024D01*
X18455119Y17024D01*
X18474167Y26548D01*
X18483690Y45595D01*
X18483690Y55119D01*
X18474167Y74167D01*
X18455119Y83690D01*
X18426548Y83690D01*
X18407500Y93214D01*
X18397976Y112262D01*
X18397976Y121786D01*
X18407500Y140833D01*
X18426548Y150357D01*
X18455119Y150357D01*
X18474167Y140833D01*
X18550357Y-59167D02*
X18559881Y-49643D01*
X18578929Y-21071D01*
X18588452Y-2024D01*
X18597976Y26548D01*
X18607500Y74167D01*
X18607500Y112262D01*
X18597976Y159881D01*
X18588452Y188452D01*
X18578929Y207500D01*
X18559881Y236071D01*
X18550357Y245595D01*
D13*
X13397500Y-156500D02*
G75*
G03*
X13397500Y-156500I-37500J0D01*
G01*
D11*
X13693214Y-46976D02*
X13712262Y-46976D01*
X13731309Y-56500D01*
X13740833Y-66024D01*
X13750357Y-85071D01*
X13759881Y-123167D01*
X13759881Y-170786D01*
X13750357Y-208881D01*
X13740833Y-227928D01*
X13731309Y-237452D01*
X13712262Y-246976D01*
X13693214Y-246976D01*
X13674167Y-237452D01*
X13664643Y-227928D01*
X13655119Y-208881D01*
X13645595Y-170786D01*
X13645595Y-123167D01*
X13655119Y-85071D01*
X13664643Y-66024D01*
X13674167Y-56500D01*
X13693214Y-46976D01*
X13845595Y-227928D02*
X13855119Y-237452D01*
X13845595Y-246976D01*
X13836071Y-237452D01*
X13845595Y-227928D01*
X13845595Y-246976D01*
X13921786Y-46976D02*
X14055119Y-46976D01*
X13969405Y-246976D01*
X14226548Y-46976D02*
X14131309Y-46976D01*
X14121786Y-142214D01*
X14131309Y-132690D01*
X14150357Y-123167D01*
X14197976Y-123167D01*
X14217024Y-132690D01*
X14226548Y-142214D01*
X14236071Y-161262D01*
X14236071Y-208881D01*
X14226548Y-227928D01*
X14217024Y-237452D01*
X14197976Y-246976D01*
X14150357Y-246976D01*
X14131309Y-237452D01*
X14121786Y-227928D01*
X14359881Y-46976D02*
X14378928Y-46976D01*
X14397976Y-56500D01*
X14407500Y-66024D01*
X14417024Y-85071D01*
X14426548Y-123167D01*
X14426548Y-170786D01*
X14417024Y-208881D01*
X14407500Y-227928D01*
X14397976Y-237452D01*
X14378928Y-246976D01*
X14359881Y-246976D01*
X14340833Y-237452D01*
X14331309Y-227928D01*
X14321786Y-208881D01*
X14312262Y-170786D01*
X14312262Y-123167D01*
X14321786Y-85071D01*
X14331309Y-66024D01*
X14340833Y-56500D01*
X14359881Y-46976D01*
X14512262Y-246976D02*
X14512262Y-113643D01*
X14512262Y-132690D02*
X14521786Y-123167D01*
X14540833Y-113643D01*
X14569405Y-113643D01*
X14588452Y-123167D01*
X14597976Y-142214D01*
X14597976Y-246976D01*
X14597976Y-142214D02*
X14607500Y-123167D01*
X14626548Y-113643D01*
X14655119Y-113643D01*
X14674167Y-123167D01*
X14683690Y-142214D01*
X14683690Y-246976D01*
X14778928Y-246976D02*
X14778928Y-113643D01*
X14778928Y-132690D02*
X14788452Y-123167D01*
X14807500Y-113643D01*
X14836071Y-113643D01*
X14855119Y-123167D01*
X14864643Y-142214D01*
X14864643Y-246976D01*
X14864643Y-142214D02*
X14874167Y-123167D01*
X14893214Y-113643D01*
X14921786Y-113643D01*
X14940833Y-123167D01*
X14950357Y-142214D01*
X14950357Y-246976D01*
X15340833Y-37452D02*
X15169405Y-294595D01*
X15597976Y-46976D02*
X15617024Y-46976D01*
X15636071Y-56500D01*
X15645595Y-66024D01*
X15655119Y-85071D01*
X15664643Y-123167D01*
X15664643Y-170786D01*
X15655119Y-208881D01*
X15645595Y-227928D01*
X15636071Y-237452D01*
X15617024Y-246976D01*
X15597976Y-246976D01*
X15578928Y-237452D01*
X15569405Y-227928D01*
X15559881Y-208881D01*
X15550357Y-170786D01*
X15550357Y-123167D01*
X15559881Y-85071D01*
X15569405Y-66024D01*
X15578928Y-56500D01*
X15597976Y-46976D01*
X15750357Y-227928D02*
X15759881Y-237452D01*
X15750357Y-246976D01*
X15740833Y-237452D01*
X15750357Y-227928D01*
X15750357Y-246976D01*
X15883690Y-46976D02*
X15902738Y-46976D01*
X15921786Y-56500D01*
X15931309Y-66024D01*
X15940833Y-85071D01*
X15950357Y-123167D01*
X15950357Y-170786D01*
X15940833Y-208881D01*
X15931309Y-227928D01*
X15921786Y-237452D01*
X15902738Y-246976D01*
X15883690Y-246976D01*
X15864643Y-237452D01*
X15855119Y-227928D01*
X15845595Y-208881D01*
X15836071Y-170786D01*
X15836071Y-123167D01*
X15845595Y-85071D01*
X15855119Y-66024D01*
X15864643Y-56500D01*
X15883690Y-46976D01*
X16026548Y-66024D02*
X16036071Y-56500D01*
X16055119Y-46976D01*
X16102738Y-46976D01*
X16121786Y-56500D01*
X16131309Y-66024D01*
X16140833Y-85071D01*
X16140833Y-104119D01*
X16131309Y-132690D01*
X16017024Y-246976D01*
X16140833Y-246976D01*
X16236071Y-246976D02*
X16274167Y-246976D01*
X16293214Y-237452D01*
X16302738Y-227928D01*
X16321786Y-199357D01*
X16331309Y-161262D01*
X16331309Y-85071D01*
X16321786Y-66024D01*
X16312262Y-56500D01*
X16293214Y-46976D01*
X16255119Y-46976D01*
X16236071Y-56500D01*
X16226548Y-66024D01*
X16217024Y-85071D01*
X16217024Y-132690D01*
X16226548Y-151738D01*
X16236071Y-161262D01*
X16255119Y-170786D01*
X16293214Y-170786D01*
X16312262Y-161262D01*
X16321786Y-151738D01*
X16331309Y-132690D01*
X16512262Y-46976D02*
X16417024Y-46976D01*
X16407500Y-142214D01*
X16417024Y-132690D01*
X16436071Y-123167D01*
X16483690Y-123167D01*
X16502738Y-132690D01*
X16512262Y-142214D01*
X16521786Y-161262D01*
X16521786Y-208881D01*
X16512262Y-227928D01*
X16502738Y-237452D01*
X16483690Y-246976D01*
X16436071Y-246976D01*
X16417024Y-237452D01*
X16407500Y-227928D01*
X16597976Y-46976D02*
X16597976Y-85071D01*
X16674167Y-46976D02*
X16674167Y-85071D01*
X16969405Y-323167D02*
X16959881Y-313643D01*
X16940833Y-285071D01*
X16931310Y-266024D01*
X16921786Y-237452D01*
X16912262Y-189833D01*
X16912262Y-151738D01*
X16921786Y-104119D01*
X16931310Y-75548D01*
X16940833Y-56500D01*
X16959881Y-27928D01*
X16969405Y-18405D01*
X17074167Y-132690D02*
X17055119Y-123167D01*
X17045595Y-113643D01*
X17036071Y-94595D01*
X17036071Y-85071D01*
X17045595Y-66024D01*
X17055119Y-56500D01*
X17074167Y-46976D01*
X17112262Y-46976D01*
X17131310Y-56500D01*
X17140833Y-66024D01*
X17150357Y-85071D01*
X17150357Y-94595D01*
X17140833Y-113643D01*
X17131310Y-123167D01*
X17112262Y-132690D01*
X17074167Y-132690D01*
X17055119Y-142214D01*
X17045595Y-151738D01*
X17036071Y-170786D01*
X17036071Y-208881D01*
X17045595Y-227928D01*
X17055119Y-237452D01*
X17074167Y-246976D01*
X17112262Y-246976D01*
X17131310Y-237452D01*
X17140833Y-227928D01*
X17150357Y-208881D01*
X17150357Y-170786D01*
X17140833Y-151738D01*
X17131310Y-142214D01*
X17112262Y-132690D01*
X17388452Y-246976D02*
X17388452Y-46976D01*
X17474167Y-246976D02*
X17474167Y-142214D01*
X17464643Y-123167D01*
X17445595Y-113643D01*
X17417024Y-113643D01*
X17397976Y-123167D01*
X17388452Y-132690D01*
X17597976Y-246976D02*
X17578929Y-237452D01*
X17569405Y-227928D01*
X17559881Y-208881D01*
X17559881Y-151738D01*
X17569405Y-132690D01*
X17578929Y-123167D01*
X17597976Y-113643D01*
X17626548Y-113643D01*
X17645595Y-123167D01*
X17655119Y-132690D01*
X17664643Y-151738D01*
X17664643Y-208881D01*
X17655119Y-227928D01*
X17645595Y-237452D01*
X17626548Y-246976D01*
X17597976Y-246976D01*
X17778929Y-246976D02*
X17759881Y-237452D01*
X17750357Y-218405D01*
X17750357Y-46976D01*
X17931310Y-237452D02*
X17912262Y-246976D01*
X17874167Y-246976D01*
X17855119Y-237452D01*
X17845595Y-218405D01*
X17845595Y-142214D01*
X17855119Y-123167D01*
X17874167Y-113643D01*
X17912262Y-113643D01*
X17931310Y-123167D01*
X17940833Y-142214D01*
X17940833Y-161262D01*
X17845595Y-180309D01*
X18017024Y-237452D02*
X18036071Y-246976D01*
X18074167Y-246976D01*
X18093214Y-237452D01*
X18102738Y-218405D01*
X18102738Y-208881D01*
X18093214Y-189833D01*
X18074167Y-180309D01*
X18045595Y-180309D01*
X18026548Y-170786D01*
X18017024Y-151738D01*
X18017024Y-142214D01*
X18026548Y-123167D01*
X18045595Y-113643D01*
X18074167Y-113643D01*
X18093214Y-123167D01*
X18169405Y-323167D02*
X18178929Y-313643D01*
X18197976Y-285071D01*
X18207500Y-266024D01*
X18217024Y-237452D01*
X18226548Y-189833D01*
X18226548Y-151738D01*
X18217024Y-104119D01*
X18207500Y-75548D01*
X18197976Y-56500D01*
X18178929Y-27928D01*
X18169405Y-18405D01*
D14*
X13322500Y-345500D02*
X13322500Y-495500D01*
X13247500Y-420500D02*
X13397500Y-420500D01*
D11*
X13759881Y-510976D02*
X13645595Y-510976D01*
X13702738Y-510976D02*
X13702738Y-310976D01*
X13683690Y-339548D01*
X13664643Y-358595D01*
X13645595Y-368119D01*
X13845595Y-491928D02*
X13855119Y-501452D01*
X13845595Y-510976D01*
X13836071Y-501452D01*
X13845595Y-491928D01*
X13845595Y-510976D01*
X14036071Y-310976D02*
X13940833Y-310976D01*
X13931309Y-406214D01*
X13940833Y-396690D01*
X13959881Y-387167D01*
X14007500Y-387167D01*
X14026548Y-396690D01*
X14036071Y-406214D01*
X14045595Y-425262D01*
X14045595Y-472881D01*
X14036071Y-491928D01*
X14026548Y-501452D01*
X14007500Y-510976D01*
X13959881Y-510976D01*
X13940833Y-501452D01*
X13931309Y-491928D01*
X14169405Y-310976D02*
X14188452Y-310976D01*
X14207500Y-320500D01*
X14217024Y-330024D01*
X14226548Y-349071D01*
X14236071Y-387167D01*
X14236071Y-434786D01*
X14226548Y-472881D01*
X14217024Y-491928D01*
X14207500Y-501452D01*
X14188452Y-510976D01*
X14169405Y-510976D01*
X14150357Y-501452D01*
X14140833Y-491928D01*
X14131309Y-472881D01*
X14121786Y-434786D01*
X14121786Y-387167D01*
X14131309Y-349071D01*
X14140833Y-330024D01*
X14150357Y-320500D01*
X14169405Y-310976D01*
X14359881Y-310976D02*
X14378928Y-310976D01*
X14397976Y-320500D01*
X14407500Y-330024D01*
X14417024Y-349071D01*
X14426548Y-387167D01*
X14426548Y-434786D01*
X14417024Y-472881D01*
X14407500Y-491928D01*
X14397976Y-501452D01*
X14378928Y-510976D01*
X14359881Y-510976D01*
X14340833Y-501452D01*
X14331309Y-491928D01*
X14321786Y-472881D01*
X14312262Y-434786D01*
X14312262Y-387167D01*
X14321786Y-349071D01*
X14331309Y-330024D01*
X14340833Y-320500D01*
X14359881Y-310976D01*
X14512262Y-510976D02*
X14512262Y-377643D01*
X14512262Y-396690D02*
X14521786Y-387167D01*
X14540833Y-377643D01*
X14569405Y-377643D01*
X14588452Y-387167D01*
X14597976Y-406214D01*
X14597976Y-510976D01*
X14597976Y-406214D02*
X14607500Y-387167D01*
X14626548Y-377643D01*
X14655119Y-377643D01*
X14674167Y-387167D01*
X14683690Y-406214D01*
X14683690Y-510976D01*
X14778928Y-510976D02*
X14778928Y-377643D01*
X14778928Y-396690D02*
X14788452Y-387167D01*
X14807500Y-377643D01*
X14836071Y-377643D01*
X14855119Y-387167D01*
X14864643Y-406214D01*
X14864643Y-510976D01*
X14864643Y-406214D02*
X14874167Y-387167D01*
X14893214Y-377643D01*
X14921786Y-377643D01*
X14940833Y-387167D01*
X14950357Y-406214D01*
X14950357Y-510976D01*
X15340833Y-301452D02*
X15169405Y-558595D01*
X15597976Y-310976D02*
X15617024Y-310976D01*
X15636071Y-320500D01*
X15645595Y-330024D01*
X15655119Y-349071D01*
X15664643Y-387167D01*
X15664643Y-434786D01*
X15655119Y-472881D01*
X15645595Y-491928D01*
X15636071Y-501452D01*
X15617024Y-510976D01*
X15597976Y-510976D01*
X15578928Y-501452D01*
X15569405Y-491928D01*
X15559881Y-472881D01*
X15550357Y-434786D01*
X15550357Y-387167D01*
X15559881Y-349071D01*
X15569405Y-330024D01*
X15578928Y-320500D01*
X15597976Y-310976D01*
X15750357Y-491928D02*
X15759881Y-501452D01*
X15750357Y-510976D01*
X15740833Y-501452D01*
X15750357Y-491928D01*
X15750357Y-510976D01*
X15883690Y-310976D02*
X15902738Y-310976D01*
X15921786Y-320500D01*
X15931309Y-330024D01*
X15940833Y-349071D01*
X15950357Y-387167D01*
X15950357Y-434786D01*
X15940833Y-472881D01*
X15931309Y-491928D01*
X15921786Y-501452D01*
X15902738Y-510976D01*
X15883690Y-510976D01*
X15864643Y-501452D01*
X15855119Y-491928D01*
X15845595Y-472881D01*
X15836071Y-434786D01*
X15836071Y-387167D01*
X15845595Y-349071D01*
X15855119Y-330024D01*
X15864643Y-320500D01*
X15883690Y-310976D01*
X16131309Y-310976D02*
X16036071Y-310976D01*
X16026548Y-406214D01*
X16036071Y-396690D01*
X16055119Y-387167D01*
X16102738Y-387167D01*
X16121786Y-396690D01*
X16131309Y-406214D01*
X16140833Y-425262D01*
X16140833Y-472881D01*
X16131309Y-491928D01*
X16121786Y-501452D01*
X16102738Y-510976D01*
X16055119Y-510976D01*
X16036071Y-501452D01*
X16026548Y-491928D01*
X16236071Y-510976D02*
X16274167Y-510976D01*
X16293214Y-501452D01*
X16302738Y-491928D01*
X16321786Y-463357D01*
X16331309Y-425262D01*
X16331309Y-349071D01*
X16321786Y-330024D01*
X16312262Y-320500D01*
X16293214Y-310976D01*
X16255119Y-310976D01*
X16236071Y-320500D01*
X16226548Y-330024D01*
X16217024Y-349071D01*
X16217024Y-396690D01*
X16226548Y-415738D01*
X16236071Y-425262D01*
X16255119Y-434786D01*
X16293214Y-434786D01*
X16312262Y-425262D01*
X16321786Y-415738D01*
X16331309Y-396690D01*
X16521786Y-510976D02*
X16407500Y-510976D01*
X16464643Y-510976D02*
X16464643Y-310976D01*
X16445595Y-339548D01*
X16426548Y-358595D01*
X16407500Y-368119D01*
X16597976Y-310976D02*
X16597976Y-349071D01*
X16674167Y-310976D02*
X16674167Y-349071D01*
X16969405Y-587167D02*
X16959881Y-577643D01*
X16940833Y-549071D01*
X16931310Y-530024D01*
X16921786Y-501452D01*
X16912262Y-453833D01*
X16912262Y-415738D01*
X16921786Y-368119D01*
X16931310Y-339548D01*
X16940833Y-320500D01*
X16959881Y-291929D01*
X16969405Y-282405D01*
X17083690Y-310976D02*
X17102738Y-310976D01*
X17121786Y-320500D01*
X17131310Y-330024D01*
X17140833Y-349071D01*
X17150357Y-387167D01*
X17150357Y-434786D01*
X17140833Y-472881D01*
X17131310Y-491928D01*
X17121786Y-501452D01*
X17102738Y-510976D01*
X17083690Y-510976D01*
X17064643Y-501452D01*
X17055119Y-491928D01*
X17045595Y-472881D01*
X17036071Y-434786D01*
X17036071Y-387167D01*
X17045595Y-349071D01*
X17055119Y-330024D01*
X17064643Y-320500D01*
X17083690Y-310976D01*
X17388452Y-510976D02*
X17388452Y-310976D01*
X17474167Y-510976D02*
X17474167Y-406214D01*
X17464643Y-387167D01*
X17445595Y-377643D01*
X17417024Y-377643D01*
X17397976Y-387167D01*
X17388452Y-396690D01*
X17597976Y-510976D02*
X17578929Y-501452D01*
X17569405Y-491928D01*
X17559881Y-472881D01*
X17559881Y-415738D01*
X17569405Y-396690D01*
X17578929Y-387167D01*
X17597976Y-377643D01*
X17626548Y-377643D01*
X17645595Y-387167D01*
X17655119Y-396690D01*
X17664643Y-415738D01*
X17664643Y-472881D01*
X17655119Y-491928D01*
X17645595Y-501452D01*
X17626548Y-510976D01*
X17597976Y-510976D01*
X17778929Y-510976D02*
X17759881Y-501452D01*
X17750357Y-482405D01*
X17750357Y-310976D01*
X17931310Y-501452D02*
X17912262Y-510976D01*
X17874167Y-510976D01*
X17855119Y-501452D01*
X17845595Y-482405D01*
X17845595Y-406214D01*
X17855119Y-387167D01*
X17874167Y-377643D01*
X17912262Y-377643D01*
X17931310Y-387167D01*
X17940833Y-406214D01*
X17940833Y-425262D01*
X17845595Y-444309D01*
X18017024Y-501452D02*
X18036071Y-510976D01*
X18074167Y-510976D01*
X18093214Y-501452D01*
X18102738Y-482405D01*
X18102738Y-472881D01*
X18093214Y-453833D01*
X18074167Y-444309D01*
X18045595Y-444309D01*
X18026548Y-434786D01*
X18017024Y-415738D01*
X18017024Y-406214D01*
X18026548Y-387167D01*
X18045595Y-377643D01*
X18074167Y-377643D01*
X18093214Y-387167D01*
X18340833Y-434786D02*
X18493214Y-434786D01*
X18417024Y-510976D02*
X18417024Y-358595D01*
X18826548Y-377643D02*
X18826548Y-510976D01*
X18778929Y-301452D02*
X18731310Y-444309D01*
X18855119Y-444309D01*
X19074167Y-501452D02*
X19093214Y-510976D01*
X19131310Y-510976D01*
X19150357Y-501452D01*
X19159881Y-482405D01*
X19159881Y-472881D01*
X19150357Y-453833D01*
X19131310Y-444309D01*
X19102738Y-444309D01*
X19083690Y-434786D01*
X19074167Y-415738D01*
X19074167Y-406214D01*
X19083690Y-387167D01*
X19102738Y-377643D01*
X19131310Y-377643D01*
X19150357Y-387167D01*
X19274167Y-510976D02*
X19255119Y-501452D01*
X19245595Y-482405D01*
X19245595Y-310976D01*
X19378929Y-510976D02*
X19359881Y-501452D01*
X19350357Y-491928D01*
X19340833Y-472881D01*
X19340833Y-415738D01*
X19350357Y-396690D01*
X19359881Y-387167D01*
X19378929Y-377643D01*
X19407500Y-377643D01*
X19426548Y-387167D01*
X19436071Y-396690D01*
X19445595Y-415738D01*
X19445595Y-472881D01*
X19436071Y-491928D01*
X19426548Y-501452D01*
X19407500Y-510976D01*
X19378929Y-510976D01*
X19502738Y-377643D02*
X19578929Y-377643D01*
X19531310Y-310976D02*
X19531310Y-482405D01*
X19540833Y-501452D01*
X19559881Y-510976D01*
X19578929Y-510976D01*
X19636071Y-501452D02*
X19655119Y-510976D01*
X19693214Y-510976D01*
X19712262Y-501452D01*
X19721786Y-482405D01*
X19721786Y-472881D01*
X19712262Y-453833D01*
X19693214Y-444309D01*
X19664643Y-444309D01*
X19645595Y-434786D01*
X19636071Y-415738D01*
X19636071Y-406214D01*
X19645595Y-387167D01*
X19664643Y-377643D01*
X19693214Y-377643D01*
X19712262Y-387167D01*
X19788452Y-587167D02*
X19797976Y-577643D01*
X19817024Y-549071D01*
X19826548Y-530024D01*
X19836071Y-501452D01*
X19845595Y-453833D01*
X19845595Y-415738D01*
X19836071Y-368119D01*
X19826548Y-339548D01*
X19817024Y-320500D01*
X19797976Y-291929D01*
X19788452Y-282405D01*
X13368211Y-761211D02*
X13368211Y-619789D01*
X13226789Y-619789D01*
X13226789Y-761211D01*
X13368211Y-761211D01*
X13645595Y-600024D02*
X13655119Y-590500D01*
X13674167Y-580976D01*
X13721786Y-580976D01*
X13740833Y-590500D01*
X13750357Y-600024D01*
X13759881Y-619071D01*
X13759881Y-638119D01*
X13750357Y-666690D01*
X13636071Y-780976D01*
X13759881Y-780976D01*
X13845595Y-761928D02*
X13855119Y-771452D01*
X13845595Y-780976D01*
X13836071Y-771452D01*
X13845595Y-761928D01*
X13845595Y-780976D01*
X13921786Y-580976D02*
X14055119Y-580976D01*
X13969405Y-780976D01*
X14169405Y-580976D02*
X14188452Y-580976D01*
X14207500Y-590500D01*
X14217024Y-600024D01*
X14226548Y-619071D01*
X14236071Y-657167D01*
X14236071Y-704786D01*
X14226548Y-742881D01*
X14217024Y-761928D01*
X14207500Y-771452D01*
X14188452Y-780976D01*
X14169405Y-780976D01*
X14150357Y-771452D01*
X14140833Y-761928D01*
X14131309Y-742881D01*
X14121786Y-704786D01*
X14121786Y-657167D01*
X14131309Y-619071D01*
X14140833Y-600024D01*
X14150357Y-590500D01*
X14169405Y-580976D01*
X14359881Y-580976D02*
X14378928Y-580976D01*
X14397976Y-590500D01*
X14407500Y-600024D01*
X14417024Y-619071D01*
X14426548Y-657167D01*
X14426548Y-704786D01*
X14417024Y-742881D01*
X14407500Y-761928D01*
X14397976Y-771452D01*
X14378928Y-780976D01*
X14359881Y-780976D01*
X14340833Y-771452D01*
X14331309Y-761928D01*
X14321786Y-742881D01*
X14312262Y-704786D01*
X14312262Y-657167D01*
X14321786Y-619071D01*
X14331309Y-600024D01*
X14340833Y-590500D01*
X14359881Y-580976D01*
X14512262Y-780976D02*
X14512262Y-647643D01*
X14512262Y-666690D02*
X14521786Y-657167D01*
X14540833Y-647643D01*
X14569405Y-647643D01*
X14588452Y-657167D01*
X14597976Y-676214D01*
X14597976Y-780976D01*
X14597976Y-676214D02*
X14607500Y-657167D01*
X14626548Y-647643D01*
X14655119Y-647643D01*
X14674167Y-657167D01*
X14683690Y-676214D01*
X14683690Y-780976D01*
X14778928Y-780976D02*
X14778928Y-647643D01*
X14778928Y-666690D02*
X14788452Y-657167D01*
X14807500Y-647643D01*
X14836071Y-647643D01*
X14855119Y-657167D01*
X14864643Y-676214D01*
X14864643Y-780976D01*
X14864643Y-676214D02*
X14874167Y-657167D01*
X14893214Y-647643D01*
X14921786Y-647643D01*
X14940833Y-657167D01*
X14950357Y-676214D01*
X14950357Y-780976D01*
X15340833Y-571452D02*
X15169405Y-828595D01*
X15597976Y-580976D02*
X15617024Y-580976D01*
X15636071Y-590500D01*
X15645595Y-600024D01*
X15655119Y-619071D01*
X15664643Y-657167D01*
X15664643Y-704786D01*
X15655119Y-742881D01*
X15645595Y-761928D01*
X15636071Y-771452D01*
X15617024Y-780976D01*
X15597976Y-780976D01*
X15578928Y-771452D01*
X15569405Y-761928D01*
X15559881Y-742881D01*
X15550357Y-704786D01*
X15550357Y-657167D01*
X15559881Y-619071D01*
X15569405Y-600024D01*
X15578928Y-590500D01*
X15597976Y-580976D01*
X15750357Y-761928D02*
X15759881Y-771452D01*
X15750357Y-780976D01*
X15740833Y-771452D01*
X15750357Y-761928D01*
X15750357Y-780976D01*
X15950357Y-780976D02*
X15836071Y-780976D01*
X15893214Y-780976D02*
X15893214Y-580976D01*
X15874167Y-609548D01*
X15855119Y-628595D01*
X15836071Y-638119D01*
X16074167Y-580976D02*
X16093214Y-580976D01*
X16112262Y-590500D01*
X16121786Y-600024D01*
X16131309Y-619071D01*
X16140833Y-657167D01*
X16140833Y-704786D01*
X16131309Y-742881D01*
X16121786Y-761928D01*
X16112262Y-771452D01*
X16093214Y-780976D01*
X16074167Y-780976D01*
X16055119Y-771452D01*
X16045595Y-761928D01*
X16036071Y-742881D01*
X16026548Y-704786D01*
X16026548Y-657167D01*
X16036071Y-619071D01*
X16045595Y-600024D01*
X16055119Y-590500D01*
X16074167Y-580976D01*
X16312262Y-580976D02*
X16274167Y-580976D01*
X16255119Y-590500D01*
X16245595Y-600024D01*
X16226548Y-628595D01*
X16217024Y-666690D01*
X16217024Y-742881D01*
X16226548Y-761928D01*
X16236071Y-771452D01*
X16255119Y-780976D01*
X16293214Y-780976D01*
X16312262Y-771452D01*
X16321786Y-761928D01*
X16331309Y-742881D01*
X16331309Y-695262D01*
X16321786Y-676214D01*
X16312262Y-666690D01*
X16293214Y-657167D01*
X16255119Y-657167D01*
X16236071Y-666690D01*
X16226548Y-676214D01*
X16217024Y-695262D01*
X16397976Y-580976D02*
X16521786Y-580976D01*
X16455119Y-657167D01*
X16483690Y-657167D01*
X16502738Y-666690D01*
X16512262Y-676214D01*
X16521786Y-695262D01*
X16521786Y-742881D01*
X16512262Y-761928D01*
X16502738Y-771452D01*
X16483690Y-780976D01*
X16426548Y-780976D01*
X16407500Y-771452D01*
X16397976Y-761928D01*
X16597976Y-580976D02*
X16597976Y-619071D01*
X16674167Y-580976D02*
X16674167Y-619071D01*
X16969405Y-857167D02*
X16959881Y-847643D01*
X16940833Y-819071D01*
X16931310Y-800024D01*
X16921786Y-771452D01*
X16912262Y-723833D01*
X16912262Y-685738D01*
X16921786Y-638119D01*
X16931310Y-609548D01*
X16940833Y-590500D01*
X16959881Y-561929D01*
X16969405Y-552405D01*
X17150357Y-780976D02*
X17036071Y-780976D01*
X17093214Y-780976D02*
X17093214Y-580976D01*
X17074167Y-609548D01*
X17055119Y-628595D01*
X17036071Y-638119D01*
X17388452Y-780976D02*
X17388452Y-580976D01*
X17474167Y-780976D02*
X17474167Y-676214D01*
X17464643Y-657167D01*
X17445595Y-647643D01*
X17417024Y-647643D01*
X17397976Y-657167D01*
X17388452Y-666690D01*
X17597976Y-780976D02*
X17578929Y-771452D01*
X17569405Y-761928D01*
X17559881Y-742881D01*
X17559881Y-685738D01*
X17569405Y-666690D01*
X17578929Y-657167D01*
X17597976Y-647643D01*
X17626548Y-647643D01*
X17645595Y-657167D01*
X17655119Y-666690D01*
X17664643Y-685738D01*
X17664643Y-742881D01*
X17655119Y-761928D01*
X17645595Y-771452D01*
X17626548Y-780976D01*
X17597976Y-780976D01*
X17778929Y-780976D02*
X17759881Y-771452D01*
X17750357Y-752405D01*
X17750357Y-580976D01*
X17931310Y-771452D02*
X17912262Y-780976D01*
X17874167Y-780976D01*
X17855119Y-771452D01*
X17845595Y-752405D01*
X17845595Y-676214D01*
X17855119Y-657167D01*
X17874167Y-647643D01*
X17912262Y-647643D01*
X17931310Y-657167D01*
X17940833Y-676214D01*
X17940833Y-695262D01*
X17845595Y-714309D01*
X18007500Y-857167D02*
X18017024Y-847643D01*
X18036071Y-819071D01*
X18045595Y-800024D01*
X18055119Y-771452D01*
X18064643Y-723833D01*
X18064643Y-685738D01*
X18055119Y-638119D01*
X18045595Y-609548D01*
X18036071Y-590500D01*
X18017024Y-561929D01*
X18007500Y-552405D01*
M02*
