%FSLAX45Y45*%
G04 Gerber Fmt 4.5, Leading zero omitted, Abs format (unit mm)*
G04 Created by KiCad (PCBNEW (6.0.5)) date 2022-06-23 16:38:44*
%MOMM*%
%LPD*%
G01*
G04 APERTURE LIST*
%TA.AperFunction,Profile*%
%ADD10C,0.050000*%
%TD*%
%ADD11C,0.200000*%
G04 APERTURE END LIST*
D10*
X4600000Y-10800000D02*
X11450000Y-10800000D01*
X3200000Y-9150000D02*
G75*
G03*
X3250000Y-9200000I50000J0D01*
G01*
X4550000Y-10750000D02*
G75*
G03*
X4500000Y-10700000I-50000J0D01*
G01*
X3800000Y-10500000D02*
X3800000Y-9400000D01*
X2750000Y-9100000D02*
G75*
G03*
X2700000Y-9150000I0J-50000D01*
G01*
X11405902Y-9950000D02*
G75*
G03*
X11405902Y-9950000I-55902J0D01*
G01*
X4500000Y-9200000D02*
G75*
G03*
X4550000Y-9150000I0J50000D01*
G01*
X3061803Y-9400000D02*
G75*
G03*
X3061803Y-9400000I-111803J0D01*
G01*
X4550000Y-10750000D02*
G75*
G03*
X4600000Y-10800000I50000J0D01*
G01*
X10380902Y-9500000D02*
G75*
G03*
X10380902Y-9500000I-55902J0D01*
G01*
X3061803Y-10500000D02*
G75*
G03*
X3061803Y-10500000I-111803J0D01*
G01*
X3250000Y-10700000D02*
X4500000Y-10700000D01*
X3150000Y-10800000D02*
G75*
G03*
X3200000Y-10750000I0J50000D01*
G01*
X2750000Y-10800000D02*
X3150000Y-10800000D01*
X11500000Y-9150000D02*
X11500000Y-10750000D01*
X3250000Y-10700000D02*
G75*
G03*
X3200000Y-10750000I0J-50000D01*
G01*
X11450000Y-10800000D02*
G75*
G03*
X11500000Y-10750000I0J50000D01*
G01*
X3800000Y-9400000D02*
G75*
G03*
X3700000Y-9400000I-50000J0D01*
G01*
X2700000Y-10750000D02*
X2700000Y-9150000D01*
X3700000Y-9400000D02*
X3700000Y-10500000D01*
X3250000Y-9200000D02*
X4500000Y-9200000D01*
X3700000Y-10500000D02*
G75*
G03*
X3800000Y-10500000I50000J0D01*
G01*
X11450000Y-9100000D02*
X4600000Y-9100000D01*
X3200000Y-9150000D02*
G75*
G03*
X3150000Y-9100000I-50000J0D01*
G01*
X11405902Y-9500000D02*
G75*
G03*
X11405902Y-9500000I-55902J0D01*
G01*
X2750000Y-9100000D02*
X3150000Y-9100000D01*
X4600000Y-9100000D02*
G75*
G03*
X4550000Y-9150000I0J-50000D01*
G01*
X11500000Y-9150000D02*
G75*
G03*
X11450000Y-9100000I-50000J0D01*
G01*
X2700000Y-10750000D02*
G75*
G03*
X2750000Y-10800000I50000J0D01*
G01*
X10380902Y-10400000D02*
G75*
G03*
X10380902Y-10400000I-55902J0D01*
G01*
D11*
X2955119Y-11112976D02*
X2955119Y-10912976D01*
X3002738Y-10912976D01*
X3031309Y-10922500D01*
X3050357Y-10941548D01*
X3059881Y-10960595D01*
X3069405Y-10998690D01*
X3069405Y-11027262D01*
X3059881Y-11065357D01*
X3050357Y-11084405D01*
X3031309Y-11103452D01*
X3002738Y-11112976D01*
X2955119Y-11112976D01*
X3155119Y-11112976D02*
X3155119Y-10979643D01*
X3155119Y-11017738D02*
X3164643Y-10998690D01*
X3174167Y-10989167D01*
X3193214Y-10979643D01*
X3212262Y-10979643D01*
X3278928Y-11112976D02*
X3278928Y-10979643D01*
X3278928Y-10912976D02*
X3269405Y-10922500D01*
X3278928Y-10932024D01*
X3288452Y-10922500D01*
X3278928Y-10912976D01*
X3278928Y-10932024D01*
X3402738Y-11112976D02*
X3383690Y-11103452D01*
X3374167Y-11084405D01*
X3374167Y-10912976D01*
X3507500Y-11112976D02*
X3488452Y-11103452D01*
X3478928Y-11084405D01*
X3478928Y-10912976D01*
X3736071Y-11112976D02*
X3736071Y-10912976D01*
X3802738Y-11055833D01*
X3869405Y-10912976D01*
X3869405Y-11112976D01*
X4050357Y-11112976D02*
X4050357Y-11008214D01*
X4040833Y-10989167D01*
X4021786Y-10979643D01*
X3983690Y-10979643D01*
X3964643Y-10989167D01*
X4050357Y-11103452D02*
X4031309Y-11112976D01*
X3983690Y-11112976D01*
X3964643Y-11103452D01*
X3955119Y-11084405D01*
X3955119Y-11065357D01*
X3964643Y-11046310D01*
X3983690Y-11036786D01*
X4031309Y-11036786D01*
X4050357Y-11027262D01*
X4145595Y-10979643D02*
X4145595Y-11179643D01*
X4145595Y-10989167D02*
X4164643Y-10979643D01*
X4202738Y-10979643D01*
X4221786Y-10989167D01*
X4231310Y-10998690D01*
X4240833Y-11017738D01*
X4240833Y-11074881D01*
X4231310Y-11093929D01*
X4221786Y-11103452D01*
X4202738Y-11112976D01*
X4164643Y-11112976D01*
X4145595Y-11103452D01*
X4326548Y-11093929D02*
X4336071Y-11103452D01*
X4326548Y-11112976D01*
X4317024Y-11103452D01*
X4326548Y-11093929D01*
X4326548Y-11112976D01*
X4326548Y-10989167D02*
X4336071Y-10998690D01*
X4326548Y-11008214D01*
X4317024Y-10998690D01*
X4326548Y-10989167D01*
X4326548Y-11008214D01*
M02*
