%TF.GenerationSoftware,KiCad,Pcbnew,(6.0.5)*%
%TF.CreationDate,2022-09-08T00:21:15+12:00*%
%TF.ProjectId,OpenEFCS_electronics,4f70656e-4546-4435-935f-656c65637472,rev?*%
%TF.SameCoordinates,Original*%
%TF.FileFunction,Copper,L2,Inr*%
%TF.FilePolarity,Positive*%
%FSLAX46Y46*%
G04 Gerber Fmt 4.6, Leading zero omitted, Abs format (unit mm)*
G04 Created by KiCad (PCBNEW (6.0.5)) date 2022-09-08 00:21:15*
%MOMM*%
%LPD*%
G01*
G04 APERTURE LIST*
G04 Aperture macros list*
%AMRoundRect*
0 Rectangle with rounded corners*
0 $1 Rounding radius*
0 $2 $3 $4 $5 $6 $7 $8 $9 X,Y pos of 4 corners*
0 Add a 4 corners polygon primitive as box body*
4,1,4,$2,$3,$4,$5,$6,$7,$8,$9,$2,$3,0*
0 Add four circle primitives for the rounded corners*
1,1,$1+$1,$2,$3*
1,1,$1+$1,$4,$5*
1,1,$1+$1,$6,$7*
1,1,$1+$1,$8,$9*
0 Add four rect primitives between the rounded corners*
20,1,$1+$1,$2,$3,$4,$5,0*
20,1,$1+$1,$4,$5,$6,$7,0*
20,1,$1+$1,$6,$7,$8,$9,0*
20,1,$1+$1,$8,$9,$2,$3,0*%
G04 Aperture macros list end*
%TA.AperFunction,ComponentPad*%
%ADD10RoundRect,0.291667X-0.608333X0.408333X-0.608333X-0.408333X0.608333X-0.408333X0.608333X0.408333X0*%
%TD*%
%TA.AperFunction,ComponentPad*%
%ADD11O,1.800000X1.400000*%
%TD*%
%TA.AperFunction,ComponentPad*%
%ADD12O,3.800000X3.000000*%
%TD*%
%TA.AperFunction,ViaPad*%
%ADD13C,3.000000*%
%TD*%
%TA.AperFunction,ViaPad*%
%ADD14C,0.800000*%
%TD*%
%TA.AperFunction,Conductor*%
%ADD15C,0.350000*%
%TD*%
G04 APERTURE END LIST*
D10*
%TO.N,/Tracer-*%
%TO.C,J5*%
X177550000Y24000000D03*
D11*
%TO.N,+3V3*%
X177550000Y22000000D03*
%TO.N,GNDREF*%
X177550000Y20000000D03*
%TO.N,/AIN1*%
X177550000Y18000000D03*
%TO.N,/AIN2*%
X177550000Y16000000D03*
%TO.N,/D1{slash}Tx2*%
X177550000Y14000000D03*
%TO.N,/D2{slash}Rx2*%
X177550000Y12000000D03*
%TO.N,+15V*%
X177550000Y10000000D03*
%TD*%
D12*
%TO.N,+15V*%
%TO.C,F1*%
X153850000Y20800000D03*
X153850000Y24200000D03*
%TO.N,+BATT*%
X140150000Y24200000D03*
X140150000Y20800000D03*
%TD*%
D13*
%TO.N,*%
X173000000Y10500000D03*
D14*
%TO.N,+15V*%
X153000000Y15250000D03*
X152000000Y14250000D03*
X153000000Y17250000D03*
X153000000Y18250000D03*
X153000000Y13250000D03*
X155000000Y17250000D03*
X155000000Y18250000D03*
X154000000Y13250000D03*
X168500000Y8500000D03*
X154000000Y17250000D03*
X152000000Y15250000D03*
X154000000Y18250000D03*
X153000000Y14250000D03*
%TO.N,/M+*%
X147000000Y15500000D03*
X144000000Y15500000D03*
X145000000Y15500000D03*
X146000000Y14500000D03*
X151025000Y10500000D03*
X146000000Y15500000D03*
X147000000Y14500000D03*
X145000000Y14500000D03*
X144000000Y14500000D03*
X148000000Y15500000D03*
X148000000Y14500000D03*
%TO.N,+3V3*%
X165500000Y20000000D03*
X176000000Y22000000D03*
X147000000Y20000000D03*
X162500000Y14500000D03*
X174000000Y20000000D03*
%TO.N,/LED0*%
X165250000Y17000000D03*
%TO.N,/LED1*%
X165250000Y18500000D03*
%TO.N,/Tracer-*%
X176000000Y24000000D03*
%TO.N,/BOOT0*%
X168000000Y22000000D03*
%TO.N,/RESET*%
X168000000Y20500000D03*
X171000000Y20000000D03*
%TO.N,+5V*%
X161500000Y18500000D03*
X162000000Y21500000D03*
%TO.N,/CONF*%
X182000000Y25500000D03*
%TO.N,/HB_HIGH*%
X146750000Y9750000D03*
%TO.N,/HB_LOW*%
X145250000Y9750000D03*
%TO.N,/Tracer*%
X166500000Y25250000D03*
%TO.N,/ISENSE_RUN_LP*%
X170000000Y17000000D03*
X168000000Y13000000D03*
%TO.N,/BATT_SENSE*%
X166000000Y10500000D03*
X165000000Y13000000D03*
%TO.N,/SWDIO*%
X166500000Y22000000D03*
%TO.N,/SWCLK*%
X164997817Y25250000D03*
%TO.N,GNDPWR*%
X136500000Y9500000D03*
X139500000Y10750000D03*
X137500000Y9500000D03*
X141500000Y9500000D03*
X135250000Y10750000D03*
X135250000Y9500000D03*
X138500000Y9500000D03*
X141500000Y10750000D03*
X138500000Y10750000D03*
X140500000Y9500000D03*
X140500000Y10750000D03*
X137500000Y10750000D03*
X139500000Y9500000D03*
X161000000Y8500000D03*
X136250000Y10750000D03*
%TO.N,GNDREF*%
X173500000Y23000000D03*
X179500000Y24500000D03*
X170500000Y18250000D03*
X175500000Y13000000D03*
X182000000Y20500000D03*
X179500000Y9000000D03*
X163750000Y10250000D03*
X182000000Y13500000D03*
X175500000Y23000000D03*
X169750000Y9750000D03*
X163750000Y12500000D03*
X171000000Y24000000D03*
X179500000Y15000000D03*
X159000000Y9250000D03*
X173500000Y25500000D03*
X161500000Y16500000D03*
X173500000Y16000000D03*
X179500000Y21000000D03*
X166500000Y11500000D03*
X157500000Y15000000D03*
X163487701Y25012299D03*
X159400000Y13200000D03*
X176500000Y19500000D03*
X159250000Y18500000D03*
X149000000Y22000000D03*
X157500000Y25250000D03*
%TO.N,Net-(Q1-Pad1)*%
X170500000Y25500000D03*
%TO.N,Net-(R4-Pad1)*%
X160500000Y19503361D03*
%TO.N,/NTC*%
X161400000Y13200000D03*
X166500000Y13000000D03*
%TO.N,/ISENSE_RUN*%
X150250000Y19500000D03*
X166500000Y17000000D03*
%TO.N,/PWMH*%
X169500000Y13000000D03*
X154250000Y11000000D03*
%TO.N,/PWML*%
X169500000Y11500000D03*
X154250000Y10000000D03*
%TO.N,/PREC*%
X182000000Y8500000D03*
X171000000Y13000000D03*
%TO.N,Net-(R5-Pad1)*%
X159000000Y16500000D03*
%TO.N,Net-(C4-Pad1)*%
X159750000Y20500000D03*
%TO.N,Net-(C8-Pad2)*%
X161500000Y23000000D03*
%TO.N,Net-(C17-Pad2)*%
X148250000Y12000000D03*
%TD*%
D15*
%TO.N,/M+*%
X151025000Y10500000D02*
X150000000Y11525000D01*
X150000000Y11525000D02*
X150000000Y12500000D01*
X150000000Y12500000D02*
X148000000Y14500000D01*
%TO.N,GNDREF*%
X160000000Y10250000D02*
X163750000Y10250000D01*
X159000000Y9250000D02*
X160000000Y10250000D01*
%TD*%
%TA.AperFunction,Conductor*%
%TO.N,/M+*%
G36*
X147765677Y18230315D02*
G01*
X147786319Y18213681D01*
X149463681Y16536319D01*
X149497166Y16474996D01*
X149500000Y16448638D01*
X149500000Y13551362D01*
X149480315Y13484323D01*
X149463681Y13463681D01*
X149036319Y13036319D01*
X148974996Y13002834D01*
X148948638Y13000000D01*
X138551362Y13000000D01*
X138484323Y13019685D01*
X138463681Y13036319D01*
X138036319Y13463681D01*
X138002834Y13525004D01*
X138000000Y13551362D01*
X138000000Y16198638D01*
X138019685Y16265677D01*
X138036319Y16286319D01*
X138963681Y17213681D01*
X139025004Y17247166D01*
X139051362Y17250000D01*
X142500000Y17250000D01*
X143463681Y18213681D01*
X143525004Y18247166D01*
X143551362Y18250000D01*
X147698638Y18250000D01*
X147765677Y18230315D01*
G37*
%TD.AperFunction*%
%TD*%
%TA.AperFunction,Conductor*%
%TO.N,+15V*%
G36*
X155816431Y25929498D02*
G01*
X155837405Y25912595D01*
X156213095Y25536905D01*
X156247121Y25474593D01*
X156250000Y25447810D01*
X156250000Y24500000D01*
X157213095Y23536905D01*
X157247121Y23474593D01*
X157250000Y23447810D01*
X157250000Y17552190D01*
X157229998Y17484069D01*
X157213095Y17463095D01*
X156786905Y17036905D01*
X156724593Y17002879D01*
X156697810Y17000000D01*
X152052190Y17000000D01*
X151984069Y17020002D01*
X151963095Y17036905D01*
X151536905Y17463095D01*
X151502879Y17525407D01*
X151500000Y17552190D01*
X151500000Y20250000D01*
X151000000Y20750000D01*
X150552190Y20750000D01*
X150484069Y20770002D01*
X150463095Y20786905D01*
X150036905Y21213095D01*
X150002879Y21275407D01*
X150000000Y21302190D01*
X150000000Y22750000D01*
X149500000Y23250000D01*
X148500000Y23250000D01*
X148000000Y22750000D01*
X148000000Y21802190D01*
X147979998Y21734069D01*
X147963095Y21713095D01*
X147536905Y21286905D01*
X147474593Y21252879D01*
X147447810Y21250000D01*
X144802190Y21250000D01*
X144734069Y21270002D01*
X144713095Y21286905D01*
X144286905Y21713095D01*
X144252879Y21775407D01*
X144250000Y21802190D01*
X144250000Y25447810D01*
X144270002Y25515931D01*
X144286905Y25536905D01*
X144662595Y25912595D01*
X144724907Y25946621D01*
X144751690Y25949500D01*
X155748310Y25949500D01*
X155816431Y25929498D01*
G37*
%TD.AperFunction*%
%TD*%
%TA.AperFunction,Conductor*%
%TO.N,+3V3*%
G36*
X138369978Y25929815D02*
G01*
X138415733Y25877011D01*
X138425677Y25807853D01*
X138396652Y25744297D01*
X138389078Y25736303D01*
X138222461Y25575403D01*
X138045907Y25349425D01*
X138043742Y25345674D01*
X138043740Y25345672D01*
X138014146Y25294413D01*
X137902523Y25101075D01*
X137795097Y24835187D01*
X137794049Y24830985D01*
X137794049Y24830984D01*
X137728097Y24566463D01*
X137725721Y24556935D01*
X137695745Y24271736D01*
X137695896Y24267406D01*
X137695896Y24267400D01*
X137698098Y24204355D01*
X137705753Y23985141D01*
X137755550Y23702728D01*
X137756887Y23698614D01*
X137756888Y23698609D01*
X137774954Y23643009D01*
X137844167Y23429994D01*
X137969879Y23172247D01*
X137972298Y23168660D01*
X137972299Y23168659D01*
X138086061Y23000000D01*
X138130238Y22934504D01*
X138133135Y22931287D01*
X138133137Y22931284D01*
X138216058Y22839191D01*
X138322125Y22721392D01*
X138325444Y22718607D01*
X138325445Y22718606D01*
X138471517Y22596037D01*
X138510219Y22537866D01*
X138511327Y22468005D01*
X138474490Y22408635D01*
X138464696Y22400730D01*
X138432258Y22377162D01*
X138432255Y22377159D01*
X138428746Y22374610D01*
X138222461Y22175403D01*
X138045907Y21949425D01*
X137902523Y21701075D01*
X137795097Y21435187D01*
X137794049Y21430985D01*
X137794049Y21430984D01*
X137728553Y21168293D01*
X137725721Y21156935D01*
X137695745Y20871736D01*
X137695896Y20867406D01*
X137695896Y20867400D01*
X137698372Y20796496D01*
X137705753Y20585141D01*
X137755550Y20302728D01*
X137756887Y20298614D01*
X137756888Y20298609D01*
X137841046Y20039599D01*
X137844167Y20029994D01*
X137846068Y20026096D01*
X137846069Y20026094D01*
X137871803Y19973332D01*
X137969879Y19772247D01*
X137972298Y19768660D01*
X137972299Y19768659D01*
X138122771Y19545575D01*
X138130238Y19534504D01*
X138133135Y19531287D01*
X138133137Y19531284D01*
X138216967Y19438182D01*
X138322125Y19321392D01*
X138325444Y19318607D01*
X138325445Y19318606D01*
X138497522Y19174216D01*
X138541803Y19137060D01*
X138784998Y18985095D01*
X139046975Y18868455D01*
X139051121Y18867266D01*
X139051127Y18867264D01*
X139184806Y18828933D01*
X139322636Y18789411D01*
X139326915Y18788810D01*
X139326918Y18788809D01*
X139602323Y18750103D01*
X139602326Y18750103D01*
X139606615Y18749500D01*
X140621604Y18749500D01*
X140836071Y18764497D01*
X140840308Y18765398D01*
X140840311Y18765398D01*
X141112332Y18823218D01*
X141112334Y18823218D01*
X141116575Y18824120D01*
X141120642Y18825600D01*
X141120648Y18825602D01*
X141274401Y18881564D01*
X141386050Y18922201D01*
X141639253Y19056831D01*
X141747603Y19135552D01*
X141867746Y19222841D01*
X141867749Y19222843D01*
X141871254Y19225390D01*
X142077539Y19424597D01*
X142254093Y19650575D01*
X142277345Y19690848D01*
X142337137Y19794413D01*
X142397477Y19898925D01*
X142504903Y20164813D01*
X142534283Y20282650D01*
X142573233Y20438868D01*
X142573234Y20438874D01*
X142574279Y20443065D01*
X142604255Y20728264D01*
X142603890Y20738741D01*
X142596984Y20936469D01*
X142594247Y21014859D01*
X142544450Y21297272D01*
X142540853Y21308344D01*
X142457173Y21565882D01*
X142455833Y21570006D01*
X142330121Y21827753D01*
X142296506Y21877589D01*
X142172183Y22061907D01*
X142172182Y22061909D01*
X142169762Y22065496D01*
X142166558Y22069055D01*
X142000032Y22254000D01*
X141977875Y22278608D01*
X141966747Y22287946D01*
X141828483Y22403963D01*
X141789781Y22462134D01*
X141788673Y22531995D01*
X141825510Y22591365D01*
X141835304Y22599270D01*
X141867742Y22622838D01*
X141867745Y22622841D01*
X141871254Y22625390D01*
X142077539Y22824597D01*
X142254093Y23050575D01*
X142259195Y23059411D01*
X142335349Y23191316D01*
X142397477Y23298925D01*
X142504903Y23564813D01*
X142516054Y23609538D01*
X142573233Y23838868D01*
X142573234Y23838874D01*
X142574279Y23843065D01*
X142604255Y24128264D01*
X142600772Y24228020D01*
X142597946Y24308944D01*
X142594247Y24414859D01*
X142544450Y24697272D01*
X142542029Y24704725D01*
X142457173Y24965882D01*
X142455833Y24970006D01*
X142445616Y24990955D01*
X142381699Y25122002D01*
X142330121Y25227753D01*
X142317606Y25246308D01*
X142172183Y25461907D01*
X142172182Y25461909D01*
X142169762Y25465496D01*
X142162707Y25473332D01*
X142031268Y25619309D01*
X141977875Y25678608D01*
X141961262Y25692548D01*
X141916020Y25730511D01*
X141877318Y25788682D01*
X141876210Y25858543D01*
X141913047Y25917913D01*
X141976134Y25947943D01*
X141995726Y25949500D01*
X143669826Y25949500D01*
X143736865Y25929815D01*
X143782620Y25877011D01*
X143792564Y25807853D01*
X143782940Y25774695D01*
X143737003Y25672432D01*
X143717001Y25604311D01*
X143694500Y25447810D01*
X143694500Y21802190D01*
X143694588Y21800557D01*
X143694588Y21800539D01*
X143697593Y21744475D01*
X143697682Y21742819D01*
X143697857Y21741187D01*
X143697858Y21741180D01*
X143698549Y21734758D01*
X143700561Y21716036D01*
X143711584Y21650589D01*
X143765332Y21509178D01*
X143799358Y21446866D01*
X143802011Y21443322D01*
X143802013Y21443319D01*
X143807798Y21435591D01*
X143894107Y21320297D01*
X144320297Y20894107D01*
X144364522Y20854381D01*
X144365815Y20853339D01*
X144380770Y20841287D01*
X144385496Y20837478D01*
X144439570Y20798992D01*
X144469465Y20785563D01*
X144573698Y20738741D01*
X144573703Y20738739D01*
X144577568Y20737003D01*
X144645689Y20717001D01*
X144802190Y20694500D01*
X147447810Y20694500D01*
X147449443Y20694588D01*
X147449461Y20694588D01*
X147505525Y20697593D01*
X147505534Y20697594D01*
X147507181Y20697682D01*
X147508813Y20697857D01*
X147508820Y20697858D01*
X147532115Y20700362D01*
X147532123Y20700363D01*
X147533964Y20700561D01*
X147566271Y20706002D01*
X147593403Y20710572D01*
X147593404Y20710572D01*
X147599411Y20711584D01*
X147605105Y20713748D01*
X147605108Y20713749D01*
X147736862Y20763827D01*
X147740822Y20765332D01*
X147803134Y20799358D01*
X147929703Y20894107D01*
X148264014Y21228418D01*
X148325337Y21261903D01*
X148395029Y21256919D01*
X148432062Y21235167D01*
X148450287Y21219656D01*
X148450293Y21219652D01*
X148454912Y21215721D01*
X148460210Y21212760D01*
X148564934Y21154232D01*
X148617627Y21124783D01*
X148794907Y21067181D01*
X148979998Y21045110D01*
X148986041Y21045575D01*
X148986043Y21045575D01*
X149043482Y21049995D01*
X149165851Y21059411D01*
X149345387Y21109538D01*
X149345640Y21109666D01*
X149413264Y21115390D01*
X149475019Y21082707D01*
X149504397Y21037947D01*
X149515332Y21009178D01*
X149549358Y20946866D01*
X149644107Y20820297D01*
X149895414Y20568990D01*
X149928899Y20507667D01*
X149923915Y20437975D01*
X149882043Y20382042D01*
X149865183Y20371421D01*
X149727023Y20299193D01*
X149722295Y20295392D01*
X149722294Y20295391D01*
X149592851Y20191316D01*
X149581752Y20182392D01*
X149461935Y20039599D01*
X149459016Y20034289D01*
X149384599Y19898925D01*
X149372135Y19876254D01*
X149370303Y19870479D01*
X149350593Y19808344D01*
X149315772Y19698576D01*
X149314007Y19682839D01*
X149298639Y19545828D01*
X149294994Y19513335D01*
X149310592Y19327586D01*
X149312261Y19321766D01*
X149312261Y19321765D01*
X149353811Y19176864D01*
X149361971Y19148405D01*
X149364743Y19143011D01*
X149364744Y19143009D01*
X149423572Y19028544D01*
X149447176Y18982615D01*
X149562959Y18836532D01*
X149704912Y18715721D01*
X149710210Y18712760D01*
X149799507Y18662854D01*
X149867627Y18624783D01*
X149882092Y18620083D01*
X149985770Y18586396D01*
X150044907Y18567181D01*
X150050928Y18566463D01*
X150096381Y18561043D01*
X150229998Y18545110D01*
X150236041Y18545575D01*
X150236043Y18545575D01*
X150300929Y18550568D01*
X150415851Y18559411D01*
X150512501Y18586396D01*
X150589547Y18607907D01*
X150589551Y18607909D01*
X150595387Y18609538D01*
X150761768Y18693583D01*
X150762641Y18691855D01*
X150821194Y18708692D01*
X150888122Y18688633D01*
X150933581Y18635574D01*
X150944500Y18584694D01*
X150944500Y17552190D01*
X150944588Y17550557D01*
X150944588Y17550539D01*
X150947593Y17494475D01*
X150947682Y17492819D01*
X150947857Y17491187D01*
X150947858Y17491180D01*
X150949929Y17471920D01*
X150950561Y17466036D01*
X150961584Y17400589D01*
X150963748Y17394895D01*
X150963749Y17394892D01*
X150987791Y17331638D01*
X151015332Y17259178D01*
X151049358Y17196866D01*
X151144107Y17070297D01*
X151570297Y16644107D01*
X151614522Y16604381D01*
X151635496Y16587478D01*
X151689570Y16548992D01*
X151724623Y16533246D01*
X151823698Y16488741D01*
X151823703Y16488739D01*
X151827568Y16487003D01*
X151895689Y16467001D01*
X151900067Y16466372D01*
X151900074Y16466370D01*
X152008049Y16450846D01*
X152050539Y16431441D01*
X152072455Y16442477D01*
X152094762Y16444500D01*
X152460584Y16444500D01*
X152521078Y16428742D01*
X152617627Y16374783D01*
X152636307Y16368714D01*
X152693981Y16329276D01*
X152721179Y16264917D01*
X152709264Y16196071D01*
X152662020Y16144595D01*
X152646363Y16136773D01*
X152642214Y16135552D01*
X152557522Y16091277D01*
X152488993Y16077663D01*
X152441098Y16092091D01*
X152375447Y16127589D01*
X152375443Y16127591D01*
X152370116Y16130471D01*
X152192049Y16185591D01*
X152081800Y16197179D01*
X152032155Y16217605D01*
X152001641Y16204619D01*
X151880380Y16193583D01*
X151827074Y16188732D01*
X151827073Y16188732D01*
X151821032Y16188182D01*
X151815213Y16186469D01*
X151815211Y16186469D01*
X151786097Y16177900D01*
X151642214Y16135552D01*
X151477023Y16049193D01*
X151472295Y16045392D01*
X151472294Y16045391D01*
X151352968Y15949450D01*
X151331752Y15932392D01*
X151211935Y15789599D01*
X151205019Y15777018D01*
X151134313Y15648405D01*
X151122135Y15626254D01*
X151120303Y15620479D01*
X151067723Y15454725D01*
X151065772Y15448576D01*
X151065096Y15442548D01*
X151049107Y15300000D01*
X151044994Y15263335D01*
X151060592Y15077586D01*
X151062261Y15071766D01*
X151062261Y15071765D01*
X151082815Y15000086D01*
X151111971Y14898405D01*
X151159033Y14806832D01*
X151172169Y14738210D01*
X151157408Y14690415D01*
X151122135Y14626254D01*
X151120303Y14620479D01*
X151067723Y14454725D01*
X151065772Y14448576D01*
X151065096Y14442548D01*
X151049624Y14304610D01*
X151044994Y14263335D01*
X151060592Y14077586D01*
X151062261Y14071766D01*
X151062261Y14071765D01*
X151103811Y13926864D01*
X151111971Y13898405D01*
X151114743Y13893011D01*
X151114744Y13893009D01*
X151193587Y13739599D01*
X151197176Y13732615D01*
X151244430Y13672995D01*
X151306664Y13594475D01*
X151312959Y13586532D01*
X151454912Y13465721D01*
X151460210Y13462760D01*
X151612327Y13377745D01*
X151617627Y13374783D01*
X151794907Y13317181D01*
X151800928Y13316463D01*
X151942536Y13299577D01*
X152006773Y13272093D01*
X152045954Y13214243D01*
X152051419Y13186827D01*
X152060592Y13077586D01*
X152062261Y13071766D01*
X152062261Y13071765D01*
X152095822Y12954725D01*
X152111971Y12898405D01*
X152114743Y12893011D01*
X152114744Y12893009D01*
X152168507Y12788399D01*
X152197176Y12732615D01*
X152268103Y12643127D01*
X152299289Y12603780D01*
X152312959Y12586532D01*
X152360369Y12546183D01*
X152435062Y12482615D01*
X152454912Y12465721D01*
X152460210Y12462760D01*
X152537343Y12419652D01*
X152617627Y12374783D01*
X152656135Y12362271D01*
X152781904Y12321406D01*
X152794907Y12317181D01*
X152800928Y12316463D01*
X152872680Y12307907D01*
X152979998Y12295110D01*
X152986041Y12295575D01*
X152986043Y12295575D01*
X153043482Y12299995D01*
X153165851Y12309411D01*
X153252573Y12333624D01*
X153339547Y12357907D01*
X153339551Y12357909D01*
X153345387Y12359538D01*
X153420182Y12397320D01*
X153443861Y12409281D01*
X153512575Y12421937D01*
X153560263Y12406843D01*
X153617627Y12374783D01*
X153720717Y12341287D01*
X153781904Y12321406D01*
X153794907Y12317181D01*
X153800928Y12316463D01*
X153872680Y12307907D01*
X153979998Y12295110D01*
X153986041Y12295575D01*
X153986043Y12295575D01*
X154043482Y12299995D01*
X154165851Y12309411D01*
X154252573Y12333624D01*
X154339547Y12357907D01*
X154339551Y12357909D01*
X154345387Y12359538D01*
X154511768Y12443583D01*
X154516547Y12447317D01*
X154516552Y12447320D01*
X154622068Y12529759D01*
X154658655Y12558344D01*
X154780454Y12699450D01*
X154789698Y12715721D01*
X154869530Y12856252D01*
X154872526Y12861526D01*
X154931364Y13038399D01*
X154935072Y13067746D01*
X154951458Y13197458D01*
X154953464Y13213335D01*
X158444994Y13213335D01*
X158460592Y13027586D01*
X158462261Y13021766D01*
X158462261Y13021765D01*
X158508209Y12861526D01*
X158511971Y12848405D01*
X158514742Y12843014D01*
X158514744Y12843009D01*
X158592945Y12690848D01*
X158597176Y12682615D01*
X158657700Y12606252D01*
X158705792Y12545575D01*
X158712959Y12536532D01*
X158740688Y12512933D01*
X158844227Y12424815D01*
X158854912Y12415721D01*
X158860210Y12412760D01*
X159006492Y12331006D01*
X159017627Y12324783D01*
X159085120Y12302853D01*
X159129627Y12288392D01*
X159194907Y12267181D01*
X159379998Y12245110D01*
X159386041Y12245575D01*
X159386043Y12245575D01*
X159446939Y12250261D01*
X159565851Y12259411D01*
X159643235Y12281017D01*
X159739547Y12307907D01*
X159739551Y12307909D01*
X159745387Y12309538D01*
X159911768Y12393583D01*
X159916547Y12397317D01*
X159916552Y12397320D01*
X160008449Y12469119D01*
X160058655Y12508344D01*
X160180454Y12649450D01*
X160193696Y12672759D01*
X160269530Y12806252D01*
X160272526Y12811526D01*
X160279877Y12833624D01*
X160281271Y12837814D01*
X160321110Y12895213D01*
X160385657Y12921961D01*
X160454418Y12909567D01*
X160505563Y12861965D01*
X160511621Y12849624D01*
X160511971Y12848405D01*
X160514739Y12843019D01*
X160514741Y12843014D01*
X160594403Y12688010D01*
X160597176Y12682615D01*
X160657700Y12606252D01*
X160705792Y12545575D01*
X160712959Y12536532D01*
X160740688Y12512933D01*
X160844227Y12424815D01*
X160854912Y12415721D01*
X160860210Y12412760D01*
X161006492Y12331006D01*
X161017627Y12324783D01*
X161085120Y12302853D01*
X161129627Y12288392D01*
X161194907Y12267181D01*
X161379998Y12245110D01*
X161386041Y12245575D01*
X161386043Y12245575D01*
X161446939Y12250261D01*
X161565851Y12259411D01*
X161643235Y12281017D01*
X161739547Y12307907D01*
X161739551Y12307909D01*
X161745387Y12309538D01*
X161911768Y12393583D01*
X161916547Y12397317D01*
X161916552Y12397320D01*
X162008449Y12469119D01*
X162058655Y12508344D01*
X162180454Y12649450D01*
X162193696Y12672759D01*
X162269530Y12806252D01*
X162272526Y12811526D01*
X162331364Y12988399D01*
X162332841Y13000086D01*
X162354292Y13169891D01*
X162354727Y13173332D01*
X162355099Y13200000D01*
X162354133Y13209854D01*
X162337501Y13379477D01*
X162337501Y13379479D01*
X162336909Y13385513D01*
X162283033Y13563960D01*
X162273122Y13582601D01*
X162198371Y13723186D01*
X162198371Y13723187D01*
X162195522Y13728544D01*
X162119219Y13822100D01*
X162081545Y13868293D01*
X162081544Y13868294D01*
X162077710Y13872995D01*
X161998913Y13938182D01*
X161938760Y13987946D01*
X161938757Y13987948D01*
X161934085Y13991813D01*
X161845707Y14039599D01*
X161775447Y14077589D01*
X161775443Y14077591D01*
X161770116Y14080471D01*
X161592049Y14135591D01*
X161406668Y14155076D01*
X161400635Y14154527D01*
X161400631Y14154527D01*
X161227074Y14138732D01*
X161227073Y14138732D01*
X161221032Y14138182D01*
X161215213Y14136469D01*
X161215211Y14136469D01*
X161175507Y14124783D01*
X161042214Y14085552D01*
X160877023Y13999193D01*
X160872295Y13995392D01*
X160872294Y13995391D01*
X160799010Y13936469D01*
X160731752Y13882392D01*
X160611935Y13739599D01*
X160605483Y13727863D01*
X160526760Y13584666D01*
X160522135Y13576254D01*
X160520304Y13570481D01*
X160520302Y13570477D01*
X160518679Y13565360D01*
X160479646Y13507410D01*
X160415479Y13479763D01*
X160346551Y13491196D01*
X160294746Y13538079D01*
X160285841Y13555595D01*
X160284784Y13558160D01*
X160283033Y13563960D01*
X160221860Y13679009D01*
X160198371Y13723186D01*
X160198371Y13723187D01*
X160195522Y13728544D01*
X160119219Y13822100D01*
X160081545Y13868293D01*
X160081544Y13868294D01*
X160077710Y13872995D01*
X159998913Y13938182D01*
X159938760Y13987946D01*
X159938757Y13987948D01*
X159934085Y13991813D01*
X159845707Y14039599D01*
X159775447Y14077589D01*
X159775443Y14077591D01*
X159770116Y14080471D01*
X159592049Y14135591D01*
X159406668Y14155076D01*
X159400635Y14154527D01*
X159400631Y14154527D01*
X159227074Y14138732D01*
X159227073Y14138732D01*
X159221032Y14138182D01*
X159215213Y14136469D01*
X159215211Y14136469D01*
X159175507Y14124783D01*
X159042214Y14085552D01*
X158877023Y13999193D01*
X158872295Y13995392D01*
X158872294Y13995391D01*
X158799010Y13936469D01*
X158731752Y13882392D01*
X158611935Y13739599D01*
X158605483Y13727863D01*
X158526760Y13584666D01*
X158522135Y13576254D01*
X158520303Y13570479D01*
X158477893Y13436785D01*
X158465772Y13398576D01*
X158462490Y13369313D01*
X158449107Y13250000D01*
X158444994Y13213335D01*
X154953464Y13213335D01*
X154954727Y13223332D01*
X154955099Y13250000D01*
X154953849Y13262747D01*
X154937501Y13429477D01*
X154937501Y13429479D01*
X154936909Y13435513D01*
X154883033Y13613960D01*
X154866456Y13645138D01*
X154798371Y13773186D01*
X154798371Y13773187D01*
X154795522Y13778544D01*
X154707726Y13886192D01*
X154681545Y13918293D01*
X154681544Y13918294D01*
X154677710Y13922995D01*
X154632132Y13960701D01*
X154538760Y14037946D01*
X154538757Y14037948D01*
X154534085Y14041813D01*
X154478690Y14071765D01*
X154375447Y14127589D01*
X154375443Y14127591D01*
X154370116Y14130471D01*
X154192049Y14185591D01*
X154059588Y14199514D01*
X153994976Y14226098D01*
X153954991Y14283395D01*
X153949144Y14310733D01*
X153937501Y14429478D01*
X153937500Y14429481D01*
X153936909Y14435513D01*
X153883033Y14613960D01*
X153841964Y14691200D01*
X153827871Y14759633D01*
X153843631Y14810662D01*
X153846603Y14815893D01*
X153872526Y14861526D01*
X153923026Y15013335D01*
X156544994Y15013335D01*
X156560592Y14827586D01*
X156562261Y14821766D01*
X156562261Y14821765D01*
X156571829Y14788399D01*
X156611971Y14648405D01*
X156697176Y14482615D01*
X156812959Y14336532D01*
X156954912Y14215721D01*
X156960210Y14212760D01*
X156987837Y14197320D01*
X157117627Y14124783D01*
X157123399Y14122908D01*
X157123398Y14122908D01*
X157262875Y14077589D01*
X157294907Y14067181D01*
X157479998Y14045110D01*
X157486041Y14045575D01*
X157486043Y14045575D01*
X157543482Y14049995D01*
X157665851Y14059411D01*
X157759478Y14085552D01*
X157839547Y14107907D01*
X157839551Y14107909D01*
X157845387Y14109538D01*
X158011768Y14193583D01*
X158016547Y14197317D01*
X158016552Y14197320D01*
X158108764Y14269365D01*
X158158655Y14308344D01*
X158280454Y14449450D01*
X158299295Y14482615D01*
X158369530Y14606252D01*
X158372526Y14611526D01*
X158431364Y14788399D01*
X158434838Y14815893D01*
X158451836Y14950448D01*
X158454727Y14973332D01*
X158455099Y15000000D01*
X158454384Y15007289D01*
X158437501Y15179477D01*
X158437501Y15179479D01*
X158436909Y15185513D01*
X158383033Y15363960D01*
X158374549Y15379917D01*
X158298371Y15523186D01*
X158298371Y15523187D01*
X158295522Y15528544D01*
X158290794Y15534341D01*
X158290507Y15535022D01*
X158288332Y15538296D01*
X158288954Y15538710D01*
X158263678Y15598735D01*
X158275681Y15667566D01*
X158322991Y15718981D01*
X158390588Y15736657D01*
X158454780Y15715485D01*
X158454912Y15715721D01*
X158617627Y15624783D01*
X158634462Y15619313D01*
X158762764Y15577625D01*
X158794907Y15567181D01*
X158979998Y15545110D01*
X158986041Y15545575D01*
X158986043Y15545575D01*
X159043482Y15549995D01*
X159165851Y15559411D01*
X159267727Y15587855D01*
X159339547Y15607907D01*
X159339551Y15607909D01*
X159345387Y15609538D01*
X159511768Y15693583D01*
X159516547Y15697317D01*
X159516552Y15697320D01*
X159613655Y15773186D01*
X159658655Y15808344D01*
X159780454Y15949450D01*
X159783652Y15955078D01*
X159869530Y16106252D01*
X159872526Y16111526D01*
X159931364Y16288399D01*
X159934019Y16309411D01*
X159950969Y16443583D01*
X159954727Y16473332D01*
X159955099Y16500000D01*
X159954149Y16509691D01*
X159937501Y16679477D01*
X159937501Y16679479D01*
X159936909Y16685513D01*
X159883033Y16863960D01*
X159875787Y16877589D01*
X159798371Y17023186D01*
X159798371Y17023187D01*
X159795522Y17028544D01*
X159677710Y17172995D01*
X159627616Y17214437D01*
X159538760Y17287946D01*
X159538757Y17287948D01*
X159534085Y17291813D01*
X159467958Y17327568D01*
X159437418Y17344081D01*
X159387810Y17393282D01*
X159372677Y17461493D01*
X159396823Y17527058D01*
X159452584Y17569159D01*
X159463050Y17572589D01*
X159589547Y17607907D01*
X159589551Y17607909D01*
X159595387Y17609538D01*
X159761768Y17693583D01*
X159766547Y17697317D01*
X159766552Y17697320D01*
X159842171Y17756401D01*
X159908655Y17808344D01*
X160030454Y17949450D01*
X160033652Y17955078D01*
X160119530Y18106252D01*
X160119533Y18106258D01*
X160122526Y18111526D01*
X160181364Y18288399D01*
X160202730Y18457527D01*
X160230661Y18521570D01*
X160288784Y18560346D01*
X160340434Y18565113D01*
X160442251Y18552972D01*
X160506488Y18525488D01*
X160545669Y18467638D01*
X160551134Y18440222D01*
X160560592Y18327586D01*
X160562261Y18321766D01*
X160562261Y18321765D01*
X160609586Y18156724D01*
X160611971Y18148405D01*
X160614743Y18143011D01*
X160614744Y18143009D01*
X160677392Y18021111D01*
X160697176Y17982615D01*
X160774107Y17885552D01*
X160809189Y17841289D01*
X160812959Y17836532D01*
X160954912Y17715721D01*
X160960210Y17712760D01*
X160994523Y17693583D01*
X161117627Y17624783D01*
X161136307Y17618714D01*
X161193981Y17579276D01*
X161221179Y17514917D01*
X161209264Y17446071D01*
X161162020Y17394595D01*
X161146363Y17386773D01*
X161142214Y17385552D01*
X161136834Y17382739D01*
X161136833Y17382739D01*
X161132495Y17380471D01*
X160977023Y17299193D01*
X160972295Y17295392D01*
X160972294Y17295391D01*
X160836478Y17186192D01*
X160831752Y17182392D01*
X160711935Y17039599D01*
X160690165Y17000000D01*
X160627247Y16885552D01*
X160622135Y16876254D01*
X160620303Y16870479D01*
X160596078Y16794111D01*
X160565772Y16698576D01*
X160563368Y16677141D01*
X160547147Y16532528D01*
X160544994Y16513335D01*
X160560592Y16327586D01*
X160562261Y16321766D01*
X160562261Y16321765D01*
X160601331Y16185513D01*
X160611971Y16148405D01*
X160614743Y16143011D01*
X160614744Y16143009D01*
X160690021Y15996538D01*
X160697176Y15982615D01*
X160812959Y15836532D01*
X160823257Y15827768D01*
X160922325Y15743455D01*
X160954912Y15715721D01*
X160960210Y15712760D01*
X161064934Y15654232D01*
X161117627Y15624783D01*
X161134462Y15619313D01*
X161262764Y15577625D01*
X161294907Y15567181D01*
X161479998Y15545110D01*
X161486041Y15545575D01*
X161486043Y15545575D01*
X161543482Y15549995D01*
X161665851Y15559411D01*
X161767727Y15587855D01*
X161839547Y15607907D01*
X161839551Y15607909D01*
X161845387Y15609538D01*
X162011768Y15693583D01*
X162016547Y15697317D01*
X162016552Y15697320D01*
X162113655Y15773186D01*
X162158655Y15808344D01*
X162280454Y15949450D01*
X162283652Y15955078D01*
X162316746Y16013335D01*
X172544994Y16013335D01*
X172560592Y15827586D01*
X172562261Y15821766D01*
X172562261Y15821765D01*
X172603811Y15676864D01*
X172611971Y15648405D01*
X172614743Y15643011D01*
X172614744Y15643009D01*
X172675085Y15525600D01*
X172697176Y15482615D01*
X172812959Y15336532D01*
X172817578Y15332601D01*
X172941897Y15226798D01*
X172954912Y15215721D01*
X172960210Y15212760D01*
X173072245Y15150146D01*
X173117627Y15124783D01*
X173294907Y15067181D01*
X173479998Y15045110D01*
X173486041Y15045575D01*
X173486043Y15045575D01*
X173543482Y15049995D01*
X173665851Y15059411D01*
X173752573Y15083624D01*
X173839547Y15107907D01*
X173839551Y15107909D01*
X173845387Y15109538D01*
X174011768Y15193583D01*
X174016547Y15197317D01*
X174016552Y15197320D01*
X174147975Y15300000D01*
X174158655Y15308344D01*
X174280454Y15449450D01*
X174299295Y15482615D01*
X174369530Y15606252D01*
X174372526Y15611526D01*
X174431364Y15788399D01*
X174432248Y15795391D01*
X174448368Y15922995D01*
X174454727Y15973332D01*
X174455099Y16000000D01*
X174454384Y16007289D01*
X174437501Y16179477D01*
X174437501Y16179479D01*
X174436909Y16185513D01*
X174383033Y16363960D01*
X174377279Y16374783D01*
X174298371Y16523186D01*
X174298371Y16523187D01*
X174295522Y16528544D01*
X174177710Y16672995D01*
X174090742Y16744942D01*
X174038760Y16787946D01*
X174038757Y16787948D01*
X174034085Y16791813D01*
X173970651Y16826112D01*
X173875447Y16877589D01*
X173875443Y16877591D01*
X173870116Y16880471D01*
X173692049Y16935591D01*
X173506668Y16955076D01*
X173500635Y16954527D01*
X173500631Y16954527D01*
X173327074Y16938732D01*
X173327073Y16938732D01*
X173321032Y16938182D01*
X173315213Y16936469D01*
X173315211Y16936469D01*
X173290232Y16929117D01*
X173142214Y16885552D01*
X172977023Y16799193D01*
X172972295Y16795392D01*
X172972294Y16795391D01*
X172842851Y16691316D01*
X172831752Y16682392D01*
X172711935Y16539599D01*
X172683574Y16488010D01*
X172647250Y16421937D01*
X172622135Y16376254D01*
X172607233Y16329276D01*
X172567689Y16204618D01*
X172565772Y16198576D01*
X172563630Y16179477D01*
X172547755Y16037946D01*
X172544994Y16013335D01*
X162316746Y16013335D01*
X162369530Y16106252D01*
X162372526Y16111526D01*
X162431364Y16288399D01*
X162434019Y16309411D01*
X162450969Y16443583D01*
X162454727Y16473332D01*
X162455099Y16500000D01*
X162454149Y16509691D01*
X162437501Y16679477D01*
X162437501Y16679479D01*
X162436909Y16685513D01*
X162383033Y16863960D01*
X162375787Y16877589D01*
X162303609Y17013335D01*
X164294994Y17013335D01*
X164310592Y16827586D01*
X164312261Y16821766D01*
X164312261Y16821765D01*
X164353811Y16676864D01*
X164361971Y16648405D01*
X164364743Y16643011D01*
X164364744Y16643009D01*
X164444028Y16488741D01*
X164447176Y16482615D01*
X164508276Y16405525D01*
X164548207Y16355145D01*
X164562959Y16336532D01*
X164704912Y16215721D01*
X164710210Y16212760D01*
X164846907Y16136363D01*
X164867627Y16124783D01*
X165044907Y16067181D01*
X165229998Y16045110D01*
X165236041Y16045575D01*
X165236043Y16045575D01*
X165293482Y16049995D01*
X165415851Y16059411D01*
X165493235Y16081017D01*
X165589547Y16107907D01*
X165589551Y16107909D01*
X165595387Y16109538D01*
X165761768Y16193583D01*
X165796338Y16220593D01*
X165861284Y16246353D01*
X165929849Y16232912D01*
X165945025Y16222704D01*
X165945310Y16223115D01*
X165950294Y16219652D01*
X165954912Y16215721D01*
X165960210Y16212760D01*
X166096907Y16136363D01*
X166117627Y16124783D01*
X166294907Y16067181D01*
X166479998Y16045110D01*
X166486041Y16045575D01*
X166486043Y16045575D01*
X166543482Y16049995D01*
X166665851Y16059411D01*
X166743235Y16081017D01*
X166839547Y16107907D01*
X166839551Y16107909D01*
X166845387Y16109538D01*
X167011768Y16193583D01*
X167016547Y16197317D01*
X167016552Y16197320D01*
X167103071Y16264917D01*
X167158655Y16308344D01*
X167280454Y16449450D01*
X167286773Y16460572D01*
X167369530Y16606252D01*
X167372526Y16611526D01*
X167431364Y16788399D01*
X167432248Y16795391D01*
X167449141Y16929117D01*
X167454727Y16973332D01*
X167455099Y17000000D01*
X167454384Y17007289D01*
X167453791Y17013335D01*
X169044994Y17013335D01*
X169060592Y16827586D01*
X169062261Y16821766D01*
X169062261Y16821765D01*
X169103811Y16676864D01*
X169111971Y16648405D01*
X169114743Y16643011D01*
X169114744Y16643009D01*
X169194028Y16488741D01*
X169197176Y16482615D01*
X169258276Y16405525D01*
X169298207Y16355145D01*
X169312959Y16336532D01*
X169454912Y16215721D01*
X169460210Y16212760D01*
X169596907Y16136363D01*
X169617627Y16124783D01*
X169794907Y16067181D01*
X169979998Y16045110D01*
X169986041Y16045575D01*
X169986043Y16045575D01*
X170043482Y16049995D01*
X170165851Y16059411D01*
X170243235Y16081017D01*
X170339547Y16107907D01*
X170339551Y16107909D01*
X170345387Y16109538D01*
X170511768Y16193583D01*
X170516547Y16197317D01*
X170516552Y16197320D01*
X170603071Y16264917D01*
X170658655Y16308344D01*
X170780454Y16449450D01*
X170786773Y16460572D01*
X170869530Y16606252D01*
X170872526Y16611526D01*
X170931364Y16788399D01*
X170932248Y16795391D01*
X170949141Y16929117D01*
X170954727Y16973332D01*
X170955099Y17000000D01*
X170954384Y17007289D01*
X170937501Y17179477D01*
X170937501Y17179479D01*
X170936909Y17185513D01*
X170909283Y17277015D01*
X170908751Y17346883D01*
X170946077Y17405947D01*
X170972082Y17423535D01*
X171006345Y17440843D01*
X171006350Y17440846D01*
X171011768Y17443583D01*
X171016547Y17447317D01*
X171016552Y17447320D01*
X171113655Y17523186D01*
X171158655Y17558344D01*
X171280454Y17699450D01*
X171289698Y17715721D01*
X171369530Y17856252D01*
X171372526Y17861526D01*
X171431364Y18038399D01*
X171454727Y18223332D01*
X171455099Y18250000D01*
X171454016Y18261044D01*
X171437501Y18429477D01*
X171437501Y18429479D01*
X171436909Y18435513D01*
X171383033Y18613960D01*
X171379778Y18620083D01*
X171298371Y18773186D01*
X171298371Y18773187D01*
X171295522Y18778544D01*
X171234332Y18853570D01*
X171204653Y18889960D01*
X171177536Y18954353D01*
X171189538Y19023184D01*
X171236847Y19074600D01*
X171267399Y19087763D01*
X171290122Y19094108D01*
X171339547Y19107907D01*
X171339551Y19107909D01*
X171345387Y19109538D01*
X171511768Y19193583D01*
X171516547Y19197317D01*
X171516552Y19197320D01*
X171592171Y19256401D01*
X171658655Y19308344D01*
X171780454Y19449450D01*
X171795573Y19476063D01*
X171869530Y19606252D01*
X171872526Y19611526D01*
X171931364Y19788399D01*
X171934464Y19812933D01*
X171954292Y19969891D01*
X171954727Y19973332D01*
X171955099Y20000000D01*
X171954384Y20007289D01*
X171937501Y20179477D01*
X171937501Y20179479D01*
X171936909Y20185513D01*
X171883033Y20363960D01*
X171879067Y20371420D01*
X171798371Y20523186D01*
X171798371Y20523187D01*
X171795522Y20528544D01*
X171677710Y20672995D01*
X171601783Y20735808D01*
X171538760Y20787946D01*
X171538757Y20787948D01*
X171534085Y20791813D01*
X171481405Y20820297D01*
X171375447Y20877589D01*
X171375443Y20877591D01*
X171370116Y20880471D01*
X171192049Y20935591D01*
X171006668Y20955076D01*
X171000635Y20954527D01*
X171000631Y20954527D01*
X170827074Y20938732D01*
X170827073Y20938732D01*
X170821032Y20938182D01*
X170815213Y20936469D01*
X170815211Y20936469D01*
X170767020Y20922285D01*
X170642214Y20885552D01*
X170477023Y20799193D01*
X170472295Y20795392D01*
X170472294Y20795391D01*
X170342851Y20691316D01*
X170331752Y20682392D01*
X170211935Y20539599D01*
X170202912Y20523186D01*
X170127247Y20385552D01*
X170122135Y20376254D01*
X170120303Y20370479D01*
X170100593Y20308344D01*
X170065772Y20198576D01*
X170063280Y20176356D01*
X170046863Y20029994D01*
X170044994Y20013335D01*
X170060592Y19827586D01*
X170062261Y19821766D01*
X170062261Y19821765D01*
X170110273Y19654328D01*
X170111971Y19648405D01*
X170114743Y19643011D01*
X170114744Y19643009D01*
X170179661Y19516696D01*
X170197176Y19482615D01*
X170200940Y19477865D01*
X170200942Y19477863D01*
X170219003Y19455076D01*
X170295638Y19358386D01*
X170321852Y19293623D01*
X170308890Y19224966D01*
X170260867Y19174216D01*
X170233470Y19162411D01*
X170205682Y19154232D01*
X170142214Y19135552D01*
X169977023Y19049193D01*
X169972295Y19045392D01*
X169972294Y19045391D01*
X169888306Y18977863D01*
X169831752Y18932392D01*
X169711935Y18789599D01*
X169702912Y18773186D01*
X169632501Y18645109D01*
X169622135Y18626254D01*
X169620303Y18620479D01*
X169572289Y18469119D01*
X169565772Y18448576D01*
X169565096Y18442548D01*
X169547161Y18282650D01*
X169544994Y18263335D01*
X169560592Y18077586D01*
X169562261Y18071765D01*
X169562263Y18071755D01*
X169591242Y17970693D01*
X169590799Y17900825D01*
X169552652Y17842288D01*
X169529495Y17826625D01*
X169482395Y17802002D01*
X169482390Y17801999D01*
X169477023Y17799193D01*
X169378094Y17719652D01*
X169351875Y17698571D01*
X169331752Y17682392D01*
X169211935Y17539599D01*
X169205041Y17527058D01*
X169127247Y17385552D01*
X169122135Y17376254D01*
X169120303Y17370479D01*
X169069350Y17209854D01*
X169065772Y17198576D01*
X169063337Y17176864D01*
X169048461Y17044242D01*
X169044994Y17013335D01*
X167453791Y17013335D01*
X167437501Y17179477D01*
X167437501Y17179479D01*
X167436909Y17185513D01*
X167383033Y17363960D01*
X167375787Y17377589D01*
X167298371Y17523186D01*
X167298371Y17523187D01*
X167295522Y17528544D01*
X167177710Y17672995D01*
X167105560Y17732683D01*
X167038760Y17787946D01*
X167038757Y17787948D01*
X167034085Y17791813D01*
X166969702Y17826625D01*
X166875447Y17877589D01*
X166875443Y17877591D01*
X166870116Y17880471D01*
X166692049Y17935591D01*
X166506668Y17955076D01*
X166500635Y17954527D01*
X166500631Y17954527D01*
X166327074Y17938732D01*
X166327073Y17938732D01*
X166321032Y17938182D01*
X166315213Y17936469D01*
X166315211Y17936469D01*
X166258855Y17919882D01*
X166188985Y17919838D01*
X166130183Y17957574D01*
X166101117Y18021111D01*
X166111017Y18090276D01*
X166116020Y18100074D01*
X166122526Y18111526D01*
X166181364Y18288399D01*
X166183211Y18303014D01*
X166201497Y18447767D01*
X166204727Y18473332D01*
X166205099Y18500000D01*
X166203939Y18511829D01*
X166187501Y18679477D01*
X166187501Y18679479D01*
X166186909Y18685513D01*
X166133033Y18863960D01*
X166101644Y18922995D01*
X166048371Y19023186D01*
X166048371Y19023187D01*
X166045522Y19028544D01*
X165957018Y19137060D01*
X165931545Y19168293D01*
X165931544Y19168294D01*
X165927710Y19172995D01*
X165867457Y19222841D01*
X165788760Y19287946D01*
X165788757Y19287948D01*
X165784085Y19291813D01*
X165723423Y19324613D01*
X165625447Y19377589D01*
X165625443Y19377591D01*
X165620116Y19380471D01*
X165442049Y19435591D01*
X165256668Y19455076D01*
X165250635Y19454527D01*
X165250631Y19454527D01*
X165077074Y19438732D01*
X165077073Y19438732D01*
X165071032Y19438182D01*
X165065213Y19436469D01*
X165065211Y19436469D01*
X165036478Y19428012D01*
X164892214Y19385552D01*
X164727023Y19299193D01*
X164722295Y19295392D01*
X164722294Y19295391D01*
X164595671Y19193583D01*
X164581752Y19182392D01*
X164461935Y19039599D01*
X164433574Y18988010D01*
X164389317Y18907507D01*
X164372135Y18876254D01*
X164370303Y18870479D01*
X164336308Y18763312D01*
X164315772Y18698576D01*
X164311634Y18661687D01*
X164295918Y18521570D01*
X164294994Y18513335D01*
X164310592Y18327586D01*
X164312261Y18321766D01*
X164312261Y18321765D01*
X164359586Y18156724D01*
X164361971Y18148405D01*
X164364743Y18143011D01*
X164364744Y18143009D01*
X164427392Y18021111D01*
X164447176Y17982615D01*
X164562959Y17836532D01*
X164565485Y17834382D01*
X164597453Y17773331D01*
X164591255Y17703737D01*
X164570836Y17669383D01*
X164520285Y17609138D01*
X164461935Y17539599D01*
X164455041Y17527058D01*
X164377247Y17385552D01*
X164372135Y17376254D01*
X164370303Y17370479D01*
X164319350Y17209854D01*
X164315772Y17198576D01*
X164313337Y17176864D01*
X164298461Y17044242D01*
X164294994Y17013335D01*
X162303609Y17013335D01*
X162298371Y17023186D01*
X162298371Y17023187D01*
X162295522Y17028544D01*
X162177710Y17172995D01*
X162127616Y17214437D01*
X162038760Y17287946D01*
X162038757Y17287948D01*
X162034085Y17291813D01*
X161967958Y17327568D01*
X161875447Y17377589D01*
X161875443Y17377591D01*
X161870116Y17380471D01*
X161864330Y17382262D01*
X161858730Y17384616D01*
X161859464Y17386363D01*
X161808573Y17420132D01*
X161780483Y17484107D01*
X161791439Y17553112D01*
X161837963Y17605240D01*
X161847557Y17610634D01*
X161898048Y17636139D01*
X162011768Y17693583D01*
X162016547Y17697317D01*
X162016552Y17697320D01*
X162092171Y17756401D01*
X162158655Y17808344D01*
X162280454Y17949450D01*
X162283652Y17955078D01*
X162369530Y18106252D01*
X162369533Y18106258D01*
X162372526Y18111526D01*
X162431364Y18288399D01*
X162433211Y18303014D01*
X162451497Y18447767D01*
X162454727Y18473332D01*
X162455099Y18500000D01*
X162453939Y18511829D01*
X162437501Y18679477D01*
X162437501Y18679479D01*
X162436909Y18685513D01*
X162383033Y18863960D01*
X162351644Y18922995D01*
X162298371Y19023186D01*
X162298371Y19023187D01*
X162295522Y19028544D01*
X162207018Y19137060D01*
X162181545Y19168293D01*
X162181544Y19168294D01*
X162177710Y19172995D01*
X162117457Y19222841D01*
X162038760Y19287946D01*
X162038757Y19287948D01*
X162034085Y19291813D01*
X161973423Y19324613D01*
X161875447Y19377589D01*
X161875443Y19377591D01*
X161870116Y19380471D01*
X161692049Y19435591D01*
X161559921Y19449479D01*
X161495309Y19476063D01*
X161455324Y19533360D01*
X161449477Y19560698D01*
X161437501Y19682839D01*
X161437500Y19682842D01*
X161436909Y19688874D01*
X161383033Y19867321D01*
X161336560Y19954725D01*
X161298371Y20026547D01*
X161298371Y20026548D01*
X161295522Y20031905D01*
X161187124Y20164813D01*
X161181545Y20171654D01*
X161181544Y20171655D01*
X161177710Y20176356D01*
X161049224Y20282650D01*
X161038760Y20291307D01*
X161038757Y20291309D01*
X161034085Y20295174D01*
X160984906Y20321765D01*
X160875447Y20380950D01*
X160875443Y20380952D01*
X160870116Y20383832D01*
X160790381Y20408514D01*
X160732161Y20447141D01*
X160703641Y20514868D01*
X160702826Y20523186D01*
X160689956Y20654437D01*
X160687501Y20679477D01*
X160687501Y20679479D01*
X160686909Y20685513D01*
X160633033Y20863960D01*
X160628899Y20871736D01*
X160548371Y21023186D01*
X160548371Y21023187D01*
X160545522Y21028544D01*
X160468560Y21122908D01*
X160431545Y21168293D01*
X160431544Y21168294D01*
X160427710Y21172995D01*
X160345710Y21240832D01*
X160288760Y21287946D01*
X160288757Y21287948D01*
X160284085Y21291813D01*
X160228690Y21321765D01*
X160125447Y21377589D01*
X160125443Y21377591D01*
X160120116Y21380471D01*
X159942049Y21435591D01*
X159756668Y21455076D01*
X159750635Y21454527D01*
X159750631Y21454527D01*
X159577074Y21438732D01*
X159577073Y21438732D01*
X159571032Y21438182D01*
X159565213Y21436469D01*
X159565211Y21436469D01*
X159508565Y21419797D01*
X159392214Y21385552D01*
X159227023Y21299193D01*
X159222295Y21295392D01*
X159222294Y21295391D01*
X159095671Y21193583D01*
X159081752Y21182392D01*
X158961935Y21039599D01*
X158940165Y21000000D01*
X158877247Y20885552D01*
X158872135Y20876254D01*
X158870303Y20870479D01*
X158825190Y20728264D01*
X158815772Y20698576D01*
X158813337Y20676864D01*
X158797597Y20536539D01*
X158794994Y20513335D01*
X158810592Y20327586D01*
X158812261Y20321766D01*
X158812261Y20321765D01*
X158851331Y20185513D01*
X158861971Y20148405D01*
X158864743Y20143011D01*
X158864744Y20143009D01*
X158940021Y19996538D01*
X158947176Y19982615D01*
X159062959Y19836532D01*
X159204912Y19715721D01*
X159263549Y19682950D01*
X159312465Y19633062D01*
X159326644Y19564647D01*
X159301584Y19499426D01*
X159245242Y19458107D01*
X159214294Y19451220D01*
X159110656Y19441788D01*
X159077074Y19438732D01*
X159077073Y19438732D01*
X159071032Y19438182D01*
X159065213Y19436469D01*
X159065211Y19436469D01*
X159036478Y19428012D01*
X158892214Y19385552D01*
X158727023Y19299193D01*
X158722295Y19295392D01*
X158722294Y19295391D01*
X158595671Y19193583D01*
X158581752Y19182392D01*
X158461935Y19039599D01*
X158433574Y18988010D01*
X158389317Y18907507D01*
X158372135Y18876254D01*
X158370303Y18870479D01*
X158336308Y18763312D01*
X158315772Y18698576D01*
X158311634Y18661687D01*
X158295918Y18521570D01*
X158294994Y18513335D01*
X158310592Y18327586D01*
X158312261Y18321766D01*
X158312261Y18321765D01*
X158359586Y18156724D01*
X158361971Y18148405D01*
X158364743Y18143011D01*
X158364744Y18143009D01*
X158427392Y18021111D01*
X158447176Y17982615D01*
X158524107Y17885552D01*
X158559189Y17841289D01*
X158562959Y17836532D01*
X158704912Y17715721D01*
X158789775Y17668293D01*
X158812764Y17655445D01*
X158861681Y17605556D01*
X158875860Y17537141D01*
X158850800Y17471920D01*
X158794457Y17430601D01*
X158787282Y17428249D01*
X158642214Y17385552D01*
X158477023Y17299193D01*
X158472295Y17295392D01*
X158472294Y17295391D01*
X158336478Y17186192D01*
X158331752Y17182392D01*
X158211935Y17039599D01*
X158190165Y17000000D01*
X158127247Y16885552D01*
X158122135Y16876254D01*
X158120303Y16870479D01*
X158096078Y16794111D01*
X158065772Y16698576D01*
X158063368Y16677141D01*
X158047147Y16532528D01*
X158044994Y16513335D01*
X158060592Y16327586D01*
X158062261Y16321766D01*
X158062261Y16321765D01*
X158101331Y16185513D01*
X158111971Y16148405D01*
X158114743Y16143011D01*
X158114744Y16143009D01*
X158190021Y15996538D01*
X158197176Y15982615D01*
X158204534Y15973332D01*
X158214157Y15961190D01*
X158240371Y15896424D01*
X158227408Y15827768D01*
X158179385Y15777018D01*
X158111548Y15760288D01*
X158045435Y15782889D01*
X158039322Y15787566D01*
X158038759Y15787946D01*
X158034085Y15791813D01*
X157973138Y15824767D01*
X157875447Y15877589D01*
X157875443Y15877591D01*
X157870116Y15880471D01*
X157692049Y15935591D01*
X157506668Y15955076D01*
X157500635Y15954527D01*
X157500631Y15954527D01*
X157327074Y15938732D01*
X157327073Y15938732D01*
X157321032Y15938182D01*
X157315213Y15936469D01*
X157315211Y15936469D01*
X157282577Y15926864D01*
X157142214Y15885552D01*
X156977023Y15799193D01*
X156972295Y15795392D01*
X156972294Y15795391D01*
X156849903Y15696986D01*
X156831752Y15682392D01*
X156711935Y15539599D01*
X156691993Y15503324D01*
X156661895Y15448576D01*
X156622135Y15376254D01*
X156620303Y15370479D01*
X156572534Y15219891D01*
X156565772Y15198576D01*
X156565096Y15192548D01*
X156547161Y15032650D01*
X156544994Y15013335D01*
X153923026Y15013335D01*
X153931364Y15038399D01*
X153934019Y15059411D01*
X153951441Y15197320D01*
X153954727Y15223332D01*
X153955099Y15250000D01*
X153954384Y15257289D01*
X153937501Y15429477D01*
X153937501Y15429479D01*
X153936909Y15435513D01*
X153934435Y15443709D01*
X153924123Y15477863D01*
X153883033Y15613960D01*
X153877279Y15624783D01*
X153798371Y15773186D01*
X153798371Y15773187D01*
X153795522Y15778544D01*
X153708248Y15885552D01*
X153681545Y15918293D01*
X153681544Y15918294D01*
X153677710Y15922995D01*
X153611387Y15977863D01*
X153538760Y16037946D01*
X153538757Y16037948D01*
X153534085Y16041813D01*
X153441098Y16092091D01*
X153375447Y16127589D01*
X153375443Y16127591D01*
X153370116Y16130471D01*
X153364330Y16132262D01*
X153358730Y16134616D01*
X153359464Y16136363D01*
X153308573Y16170132D01*
X153280483Y16234107D01*
X153291439Y16303112D01*
X153337963Y16355240D01*
X153347557Y16360633D01*
X153443861Y16409280D01*
X153512575Y16421937D01*
X153560263Y16406843D01*
X153617627Y16374783D01*
X153720717Y16341287D01*
X153757683Y16329276D01*
X153794907Y16317181D01*
X153800928Y16316463D01*
X153887452Y16306146D01*
X153979998Y16295110D01*
X153986041Y16295575D01*
X153986043Y16295575D01*
X154043482Y16299995D01*
X154165851Y16309411D01*
X154252573Y16333624D01*
X154339547Y16357907D01*
X154339551Y16357909D01*
X154345387Y16359538D01*
X154436425Y16405525D01*
X154443861Y16409281D01*
X154512575Y16421937D01*
X154560263Y16406843D01*
X154617627Y16374783D01*
X154720717Y16341287D01*
X154757683Y16329276D01*
X154794907Y16317181D01*
X154800928Y16316463D01*
X154887452Y16306146D01*
X154979998Y16295110D01*
X154986041Y16295575D01*
X154986043Y16295575D01*
X155043482Y16299995D01*
X155165851Y16309411D01*
X155252573Y16333624D01*
X155339547Y16357907D01*
X155339551Y16357909D01*
X155345387Y16359538D01*
X155487216Y16431181D01*
X155543125Y16444500D01*
X156697810Y16444500D01*
X156699443Y16444588D01*
X156699461Y16444588D01*
X156755525Y16447593D01*
X156755534Y16447594D01*
X156757181Y16447682D01*
X156758813Y16447857D01*
X156758820Y16447858D01*
X156782115Y16450362D01*
X156782123Y16450363D01*
X156783964Y16450561D01*
X156816271Y16456002D01*
X156843403Y16460572D01*
X156843404Y16460572D01*
X156849411Y16461584D01*
X156855105Y16463748D01*
X156855108Y16463749D01*
X156949918Y16499785D01*
X156990822Y16515332D01*
X157053134Y16549358D01*
X157179703Y16644107D01*
X157605893Y17070297D01*
X157645619Y17114522D01*
X157662522Y17135496D01*
X157701008Y17189570D01*
X157734055Y17263138D01*
X157761259Y17323698D01*
X157761261Y17323703D01*
X157762997Y17327568D01*
X157782999Y17395689D01*
X157805500Y17552190D01*
X157805500Y23013335D01*
X160544994Y23013335D01*
X160560592Y22827586D01*
X160562261Y22821766D01*
X160562261Y22821765D01*
X160608983Y22658827D01*
X160611971Y22648405D01*
X160614742Y22643014D01*
X160614744Y22643009D01*
X160692890Y22490955D01*
X160697176Y22482615D01*
X160812959Y22336532D01*
X160954912Y22215721D01*
X160960210Y22212760D01*
X161117627Y22124783D01*
X161116287Y22122385D01*
X161160793Y22085129D01*
X161181617Y22018434D01*
X161166297Y21956584D01*
X161127247Y21885552D01*
X161122135Y21876254D01*
X161120303Y21870479D01*
X161067755Y21704826D01*
X161065772Y21698576D01*
X161065096Y21692548D01*
X161048771Y21547004D01*
X161044994Y21513335D01*
X161060592Y21327586D01*
X161062261Y21321766D01*
X161062261Y21321765D01*
X161108322Y21161132D01*
X161111971Y21148405D01*
X161114743Y21143011D01*
X161114744Y21143009D01*
X161191581Y20993502D01*
X161197176Y20982615D01*
X161235867Y20933799D01*
X161288494Y20867400D01*
X161312959Y20836532D01*
X161454912Y20715721D01*
X161460210Y20712760D01*
X161496375Y20692548D01*
X161617627Y20624783D01*
X161623399Y20622908D01*
X161623398Y20622908D01*
X161752771Y20580872D01*
X161794907Y20567181D01*
X161979998Y20545110D01*
X161986041Y20545575D01*
X161986043Y20545575D01*
X162043482Y20549995D01*
X162165851Y20559411D01*
X162273529Y20589475D01*
X162339547Y20607907D01*
X162339551Y20607909D01*
X162345387Y20609538D01*
X162511768Y20693583D01*
X162516547Y20697317D01*
X162516552Y20697320D01*
X162625768Y20782650D01*
X162658655Y20808344D01*
X162780454Y20949450D01*
X162799295Y20982615D01*
X162869530Y21106252D01*
X162872526Y21111526D01*
X162931364Y21288399D01*
X162932248Y21295391D01*
X162943854Y21387263D01*
X162954727Y21473332D01*
X162955099Y21500000D01*
X162953811Y21513138D01*
X162937501Y21679477D01*
X162937501Y21679479D01*
X162936909Y21685513D01*
X162883033Y21863960D01*
X162875787Y21877589D01*
X162803609Y22013335D01*
X165544994Y22013335D01*
X165560592Y21827586D01*
X165562261Y21821766D01*
X165562261Y21821765D01*
X165603811Y21676864D01*
X165611971Y21648405D01*
X165614743Y21643011D01*
X165614744Y21643009D01*
X165690021Y21496538D01*
X165697176Y21482615D01*
X165812959Y21336532D01*
X165954912Y21215721D01*
X165960210Y21212760D01*
X166064934Y21154232D01*
X166117627Y21124783D01*
X166294907Y21067181D01*
X166479998Y21045110D01*
X166486041Y21045575D01*
X166486043Y21045575D01*
X166543482Y21049995D01*
X166665851Y21059411D01*
X166743235Y21081017D01*
X166839547Y21107907D01*
X166839551Y21107909D01*
X166845387Y21109538D01*
X167011768Y21193583D01*
X167016547Y21197317D01*
X167016552Y21197320D01*
X167039270Y21215070D01*
X167104217Y21240832D01*
X167172781Y21227392D01*
X167223195Y21179016D01*
X167239452Y21111064D01*
X167217925Y21047299D01*
X167215836Y21044248D01*
X167211935Y21039599D01*
X167159941Y20945022D01*
X167127247Y20885552D01*
X167122135Y20876254D01*
X167120303Y20870479D01*
X167075190Y20728264D01*
X167065772Y20698576D01*
X167063337Y20676864D01*
X167047597Y20536539D01*
X167044994Y20513335D01*
X167060592Y20327586D01*
X167062261Y20321766D01*
X167062261Y20321765D01*
X167101331Y20185513D01*
X167111971Y20148405D01*
X167114743Y20143011D01*
X167114744Y20143009D01*
X167190021Y19996538D01*
X167197176Y19982615D01*
X167312959Y19836532D01*
X167454912Y19715721D01*
X167617627Y19624783D01*
X167794907Y19567181D01*
X167800928Y19566463D01*
X167846381Y19561043D01*
X167979998Y19545110D01*
X167986041Y19545575D01*
X167986043Y19545575D01*
X168043482Y19549995D01*
X168165851Y19559411D01*
X168243235Y19581017D01*
X168339547Y19607907D01*
X168339551Y19607909D01*
X168345387Y19609538D01*
X168511768Y19693583D01*
X168516547Y19697317D01*
X168516552Y19697320D01*
X168592171Y19756401D01*
X168658655Y19808344D01*
X168780454Y19949450D01*
X168799295Y19982615D01*
X168869530Y20106252D01*
X168872526Y20111526D01*
X168931364Y20288399D01*
X168932248Y20295391D01*
X168943638Y20385552D01*
X168954727Y20473332D01*
X168955099Y20500000D01*
X168954347Y20507667D01*
X168937501Y20679477D01*
X168937501Y20679479D01*
X168936909Y20685513D01*
X168883033Y20863960D01*
X168878899Y20871736D01*
X168798371Y21023186D01*
X168798371Y21023187D01*
X168795522Y21028544D01*
X168677710Y21172995D01*
X168679861Y21174750D01*
X168652264Y21225722D01*
X168657496Y21295396D01*
X168679656Y21332673D01*
X168776487Y21444854D01*
X168776488Y21444855D01*
X168780454Y21449450D01*
X168799295Y21482615D01*
X168869530Y21606252D01*
X168872526Y21611526D01*
X168931364Y21788399D01*
X168932248Y21795391D01*
X168950356Y21938732D01*
X168954727Y21973332D01*
X168955099Y22000000D01*
X168954384Y22007289D01*
X168937501Y22179477D01*
X168937501Y22179479D01*
X168936909Y22185513D01*
X168883033Y22363960D01*
X168878972Y22371599D01*
X168798371Y22523186D01*
X168798371Y22523187D01*
X168795522Y22528544D01*
X168677710Y22672995D01*
X168615315Y22724613D01*
X168538760Y22787946D01*
X168538757Y22787948D01*
X168534085Y22791813D01*
X168478690Y22821765D01*
X168375447Y22877589D01*
X168375443Y22877591D01*
X168370116Y22880471D01*
X168192049Y22935591D01*
X168006668Y22955076D01*
X168000635Y22954527D01*
X168000631Y22954527D01*
X167827074Y22938732D01*
X167827073Y22938732D01*
X167821032Y22938182D01*
X167815213Y22936469D01*
X167815211Y22936469D01*
X167758565Y22919797D01*
X167642214Y22885552D01*
X167477023Y22799193D01*
X167472295Y22795392D01*
X167472294Y22795391D01*
X167418789Y22752372D01*
X167331752Y22682392D01*
X167331088Y22683217D01*
X167274579Y22653119D01*
X167204943Y22658827D01*
X167170440Y22679009D01*
X167165354Y22683217D01*
X167081761Y22752372D01*
X167038760Y22787946D01*
X167038757Y22787948D01*
X167034085Y22791813D01*
X166978690Y22821765D01*
X166875447Y22877589D01*
X166875443Y22877591D01*
X166870116Y22880471D01*
X166692049Y22935591D01*
X166506668Y22955076D01*
X166500635Y22954527D01*
X166500631Y22954527D01*
X166327074Y22938732D01*
X166327073Y22938732D01*
X166321032Y22938182D01*
X166315213Y22936469D01*
X166315211Y22936469D01*
X166258565Y22919797D01*
X166142214Y22885552D01*
X165977023Y22799193D01*
X165972295Y22795392D01*
X165972294Y22795391D01*
X165836478Y22686192D01*
X165831752Y22682392D01*
X165711935Y22539599D01*
X165622135Y22376254D01*
X165620303Y22370479D01*
X165583354Y22254000D01*
X165565772Y22198576D01*
X165565096Y22192548D01*
X165548639Y22045828D01*
X165544994Y22013335D01*
X162803609Y22013335D01*
X162798371Y22023186D01*
X162798371Y22023187D01*
X162795522Y22028544D01*
X162677710Y22172995D01*
X162579793Y22254000D01*
X162538760Y22287946D01*
X162538757Y22287948D01*
X162534085Y22291813D01*
X162492552Y22314270D01*
X162382930Y22373543D01*
X162333322Y22422744D01*
X162318189Y22490955D01*
X162334091Y22543868D01*
X162369530Y22606252D01*
X162372526Y22611526D01*
X162431364Y22788399D01*
X162432248Y22795391D01*
X162450356Y22938732D01*
X162454727Y22973332D01*
X162455099Y23000000D01*
X162454384Y23007289D01*
X162453791Y23013335D01*
X172544994Y23013335D01*
X172560592Y22827586D01*
X172562261Y22821766D01*
X172562261Y22821765D01*
X172608983Y22658827D01*
X172611971Y22648405D01*
X172614742Y22643014D01*
X172614744Y22643009D01*
X172692890Y22490955D01*
X172697176Y22482615D01*
X172812959Y22336532D01*
X172954912Y22215721D01*
X173117627Y22124783D01*
X173156135Y22112271D01*
X173247896Y22082456D01*
X173294907Y22067181D01*
X173300928Y22066463D01*
X173346381Y22061043D01*
X173479998Y22045110D01*
X173486041Y22045575D01*
X173486043Y22045575D01*
X173543482Y22049995D01*
X173665851Y22059411D01*
X173743235Y22081017D01*
X173839547Y22107907D01*
X173839551Y22107909D01*
X173845387Y22109538D01*
X174011768Y22193583D01*
X174016547Y22197317D01*
X174016552Y22197320D01*
X174116472Y22275387D01*
X174158655Y22308344D01*
X174280454Y22449450D01*
X174288118Y22462940D01*
X174369530Y22606252D01*
X174372526Y22611526D01*
X174381271Y22637814D01*
X174421110Y22695213D01*
X174485657Y22721961D01*
X174554418Y22709567D01*
X174605563Y22661965D01*
X174611621Y22649624D01*
X174611971Y22648405D01*
X174614739Y22643019D01*
X174614741Y22643014D01*
X174694403Y22488010D01*
X174697176Y22482615D01*
X174812959Y22336532D01*
X174954912Y22215721D01*
X175117627Y22124783D01*
X175156135Y22112271D01*
X175247896Y22082456D01*
X175294907Y22067181D01*
X175300928Y22066463D01*
X175346381Y22061043D01*
X175479998Y22045110D01*
X175486041Y22045575D01*
X175486043Y22045575D01*
X175543482Y22049995D01*
X175665851Y22059411D01*
X175743235Y22081017D01*
X175839547Y22107907D01*
X175839551Y22107909D01*
X175845387Y22109538D01*
X176011768Y22193583D01*
X176064433Y22234729D01*
X176129378Y22260491D01*
X176174399Y22254000D01*
X178917987Y22254000D01*
X178931304Y22257910D01*
X178932358Y22265242D01*
X178874598Y22452996D01*
X178870439Y22463187D01*
X178776605Y22644986D01*
X178770708Y22654277D01*
X178678825Y22774022D01*
X178653631Y22839191D01*
X178667669Y22907636D01*
X178699502Y22946146D01*
X178752116Y22988449D01*
X178757346Y22992654D01*
X178810647Y23058946D01*
X178867793Y23130021D01*
X178867793Y23130022D01*
X178872002Y23135256D01*
X178874988Y23141271D01*
X178874991Y23141276D01*
X178950375Y23293139D01*
X178953361Y23299154D01*
X178985011Y23426094D01*
X178996308Y23471402D01*
X178996309Y23471407D01*
X178997628Y23476698D01*
X178999291Y23501090D01*
X179023490Y23566635D01*
X179079284Y23608692D01*
X179148959Y23613908D01*
X179161310Y23610590D01*
X179294907Y23567181D01*
X179479998Y23545110D01*
X179486041Y23545575D01*
X179486043Y23545575D01*
X179543482Y23549995D01*
X179665851Y23559411D01*
X179787598Y23593403D01*
X179839547Y23607907D01*
X179839551Y23607909D01*
X179845387Y23609538D01*
X180011768Y23693583D01*
X180016547Y23697317D01*
X180016552Y23697320D01*
X180125768Y23782650D01*
X180158655Y23808344D01*
X180280454Y23949450D01*
X180298305Y23980872D01*
X180369530Y24106252D01*
X180372526Y24111526D01*
X180431364Y24288399D01*
X180433960Y24308944D01*
X180453217Y24461382D01*
X180454727Y24473332D01*
X180455099Y24500000D01*
X180450630Y24545575D01*
X180437501Y24679477D01*
X180437501Y24679479D01*
X180436909Y24685513D01*
X180383033Y24863960D01*
X180373047Y24882742D01*
X180298371Y25023186D01*
X180298371Y25023187D01*
X180295522Y25028544D01*
X180227843Y25111526D01*
X180181545Y25168293D01*
X180181544Y25168294D01*
X180177710Y25172995D01*
X180111520Y25227753D01*
X180038760Y25287946D01*
X180038757Y25287948D01*
X180034085Y25291813D01*
X179978690Y25321765D01*
X179875447Y25377589D01*
X179875443Y25377591D01*
X179870116Y25380471D01*
X179692049Y25435591D01*
X179506668Y25455076D01*
X179500635Y25454527D01*
X179500631Y25454527D01*
X179327074Y25438732D01*
X179327073Y25438732D01*
X179321032Y25438182D01*
X179315213Y25436469D01*
X179315211Y25436469D01*
X179258565Y25419797D01*
X179142214Y25385552D01*
X178977023Y25299193D01*
X178972295Y25295392D01*
X178972294Y25295391D01*
X178859851Y25204984D01*
X178831752Y25182392D01*
X178792122Y25135162D01*
X178733951Y25096461D01*
X178664090Y25095353D01*
X178626062Y25114836D01*
X178625638Y25114174D01*
X178619978Y25117794D01*
X178614744Y25122002D01*
X178608729Y25124988D01*
X178608724Y25124991D01*
X178456861Y25200375D01*
X178456862Y25200375D01*
X178450846Y25203361D01*
X178353016Y25227753D01*
X178278598Y25246308D01*
X178278593Y25246309D01*
X178273302Y25247628D01*
X178231175Y25250500D01*
X177550486Y25250500D01*
X176868826Y25250499D01*
X176866729Y25250356D01*
X176866726Y25250356D01*
X176832155Y25248000D01*
X176832154Y25248000D01*
X176826698Y25247628D01*
X176649154Y25203361D01*
X176643138Y25200375D01*
X176643139Y25200375D01*
X176491276Y25124991D01*
X176491271Y25124988D01*
X176485256Y25122002D01*
X176480022Y25117793D01*
X176480021Y25117793D01*
X176459228Y25101075D01*
X176342654Y25007346D01*
X176338449Y25002116D01*
X176318810Y24977690D01*
X176261462Y24937778D01*
X176197408Y24933932D01*
X176192049Y24935591D01*
X176186019Y24936225D01*
X176186018Y24936225D01*
X176153540Y24939639D01*
X176006668Y24955076D01*
X176000635Y24954527D01*
X176000631Y24954527D01*
X175827074Y24938732D01*
X175827073Y24938732D01*
X175821032Y24938182D01*
X175815213Y24936469D01*
X175815211Y24936469D01*
X175768579Y24922744D01*
X175642214Y24885552D01*
X175477023Y24799193D01*
X175472295Y24795392D01*
X175472294Y24795391D01*
X175350259Y24697272D01*
X175331752Y24682392D01*
X175211935Y24539599D01*
X175122135Y24376254D01*
X175120303Y24370479D01*
X175068090Y24205882D01*
X175065772Y24198576D01*
X175065096Y24192548D01*
X175049938Y24057409D01*
X175044994Y24013335D01*
X175051523Y23935591D01*
X175052468Y23924336D01*
X175038463Y23855884D01*
X174986348Y23804068D01*
X174977023Y23799193D01*
X174963598Y23788399D01*
X174841517Y23690243D01*
X174831752Y23682392D01*
X174711935Y23539599D01*
X174622135Y23376254D01*
X174620304Y23370481D01*
X174620302Y23370477D01*
X174618679Y23365360D01*
X174579646Y23307410D01*
X174515479Y23279763D01*
X174446551Y23291196D01*
X174394746Y23338079D01*
X174385841Y23355595D01*
X174384784Y23358160D01*
X174383033Y23363960D01*
X174310120Y23501090D01*
X174298371Y23523186D01*
X174298371Y23523187D01*
X174295522Y23528544D01*
X174177710Y23672995D01*
X174095722Y23740822D01*
X174038760Y23787946D01*
X174038757Y23787948D01*
X174034085Y23791813D01*
X173978690Y23821765D01*
X173875447Y23877589D01*
X173875443Y23877591D01*
X173870116Y23880471D01*
X173692049Y23935591D01*
X173506668Y23955076D01*
X173500635Y23954527D01*
X173500631Y23954527D01*
X173327074Y23938732D01*
X173327073Y23938732D01*
X173321032Y23938182D01*
X173315213Y23936469D01*
X173315211Y23936469D01*
X173273988Y23924336D01*
X173142214Y23885552D01*
X172977023Y23799193D01*
X172972295Y23795392D01*
X172972294Y23795391D01*
X172836478Y23686192D01*
X172831752Y23682392D01*
X172711935Y23539599D01*
X172622135Y23376254D01*
X172620303Y23370479D01*
X172600593Y23308344D01*
X172565772Y23198576D01*
X172565096Y23192548D01*
X172548639Y23045828D01*
X172544994Y23013335D01*
X162453791Y23013335D01*
X162437501Y23179477D01*
X162437501Y23179479D01*
X162436909Y23185513D01*
X162383033Y23363960D01*
X162307762Y23505525D01*
X162298371Y23523186D01*
X162298371Y23523187D01*
X162295522Y23528544D01*
X162177710Y23672995D01*
X162095722Y23740822D01*
X162038760Y23787946D01*
X162038757Y23787948D01*
X162034085Y23791813D01*
X161978690Y23821765D01*
X161875447Y23877589D01*
X161875443Y23877591D01*
X161870116Y23880471D01*
X161692049Y23935591D01*
X161506668Y23955076D01*
X161500635Y23954527D01*
X161500631Y23954527D01*
X161327074Y23938732D01*
X161327073Y23938732D01*
X161321032Y23938182D01*
X161315213Y23936469D01*
X161315211Y23936469D01*
X161273988Y23924336D01*
X161142214Y23885552D01*
X160977023Y23799193D01*
X160972295Y23795392D01*
X160972294Y23795391D01*
X160836478Y23686192D01*
X160831752Y23682392D01*
X160711935Y23539599D01*
X160622135Y23376254D01*
X160620303Y23370479D01*
X160600593Y23308344D01*
X160565772Y23198576D01*
X160565096Y23192548D01*
X160548639Y23045828D01*
X160544994Y23013335D01*
X157805500Y23013335D01*
X157805500Y23447810D01*
X157805130Y23454725D01*
X157802407Y23505525D01*
X157802406Y23505534D01*
X157802318Y23507181D01*
X157802142Y23508820D01*
X157799638Y23532115D01*
X157799637Y23532123D01*
X157799439Y23533964D01*
X157788416Y23599411D01*
X157784889Y23608692D01*
X157736173Y23736862D01*
X157734668Y23740822D01*
X157700642Y23803134D01*
X157605893Y23929703D01*
X157448232Y24087364D01*
X157414747Y24148687D01*
X157419731Y24218379D01*
X157461603Y24274312D01*
X157526399Y24298679D01*
X157659794Y24308944D01*
X157659803Y24308946D01*
X157665851Y24309411D01*
X157743235Y24331017D01*
X157839547Y24357907D01*
X157839551Y24357909D01*
X157845387Y24359538D01*
X158011768Y24443583D01*
X158016547Y24447317D01*
X158016552Y24447320D01*
X158092171Y24506401D01*
X158158655Y24558344D01*
X158280454Y24699450D01*
X158289698Y24715721D01*
X158369530Y24856252D01*
X158372526Y24861526D01*
X158431364Y25038399D01*
X158454727Y25223332D01*
X158454925Y25237527D01*
X158455051Y25246538D01*
X158455051Y25246543D01*
X158455099Y25250000D01*
X158447492Y25327586D01*
X158437501Y25429477D01*
X158437501Y25429479D01*
X158436909Y25435513D01*
X158383033Y25613960D01*
X158340108Y25694691D01*
X158301508Y25767286D01*
X158287416Y25835719D01*
X158312558Y25900909D01*
X158368954Y25942156D01*
X158410994Y25949500D01*
X162784254Y25949500D01*
X162851293Y25929815D01*
X162897048Y25877011D01*
X162906992Y25807853D01*
X162877967Y25744297D01*
X162861953Y25728862D01*
X162831473Y25704355D01*
X162819453Y25694691D01*
X162699636Y25551898D01*
X162666674Y25491941D01*
X162635653Y25435513D01*
X162609836Y25388553D01*
X162608004Y25382778D01*
X162557425Y25223332D01*
X162553473Y25210875D01*
X162549658Y25176864D01*
X162533549Y25033246D01*
X162532695Y25025634D01*
X162548293Y24839885D01*
X162549962Y24834065D01*
X162549962Y24834064D01*
X162596148Y24672995D01*
X162599672Y24660704D01*
X162602444Y24655310D01*
X162602445Y24655308D01*
X162659526Y24544242D01*
X162684877Y24494914D01*
X162725561Y24443583D01*
X162796566Y24353997D01*
X162800660Y24348831D01*
X162942613Y24228020D01*
X162947911Y24225059D01*
X163029471Y24179477D01*
X163105328Y24137082D01*
X163111100Y24135207D01*
X163111099Y24135207D01*
X163258344Y24087364D01*
X163282608Y24079480D01*
X163467699Y24057409D01*
X163473742Y24057874D01*
X163473744Y24057874D01*
X163531183Y24062294D01*
X163653552Y24071710D01*
X163730936Y24093316D01*
X163827248Y24120206D01*
X163827252Y24120208D01*
X163833088Y24121837D01*
X163999469Y24205882D01*
X164004248Y24209616D01*
X164004253Y24209619D01*
X164087055Y24274312D01*
X164146356Y24320643D01*
X164150319Y24325234D01*
X164150323Y24325238D01*
X164267840Y24461382D01*
X164326546Y24499268D01*
X164396415Y24499401D01*
X164442073Y24474789D01*
X164447829Y24469891D01*
X164452729Y24465721D01*
X164615444Y24374783D01*
X164792724Y24317181D01*
X164977815Y24295110D01*
X164983858Y24295575D01*
X164983860Y24295575D01*
X165041299Y24299995D01*
X165163668Y24309411D01*
X165241052Y24331017D01*
X165337364Y24357907D01*
X165337368Y24357909D01*
X165343204Y24359538D01*
X165509585Y24443583D01*
X165514364Y24447317D01*
X165514369Y24447320D01*
X165651693Y24554610D01*
X165651694Y24554611D01*
X165656472Y24558344D01*
X165660433Y24562933D01*
X165664652Y24566950D01*
X165726776Y24598924D01*
X165796325Y24592236D01*
X165830527Y24571581D01*
X165874345Y24534289D01*
X165941897Y24476798D01*
X165954912Y24465721D01*
X166117627Y24374783D01*
X166294907Y24317181D01*
X166479998Y24295110D01*
X166486041Y24295575D01*
X166486043Y24295575D01*
X166543482Y24299995D01*
X166665851Y24309411D01*
X166743235Y24331017D01*
X166839547Y24357907D01*
X166839551Y24357909D01*
X166845387Y24359538D01*
X167011768Y24443583D01*
X167016547Y24447317D01*
X167016552Y24447320D01*
X167092171Y24506401D01*
X167158655Y24558344D01*
X167280454Y24699450D01*
X167289698Y24715721D01*
X167369530Y24856252D01*
X167372526Y24861526D01*
X167431364Y25038399D01*
X167454727Y25223332D01*
X167454925Y25237527D01*
X167455051Y25246538D01*
X167455051Y25246543D01*
X167455099Y25250000D01*
X167447492Y25327586D01*
X167437501Y25429477D01*
X167437501Y25429479D01*
X167436909Y25435513D01*
X167383033Y25613960D01*
X167340108Y25694691D01*
X167301508Y25767286D01*
X167287416Y25835719D01*
X167312558Y25900909D01*
X167368954Y25942156D01*
X167410994Y25949500D01*
X169475945Y25949500D01*
X169542984Y25929815D01*
X169588739Y25877011D01*
X169598683Y25807853D01*
X169594141Y25788006D01*
X169565772Y25698576D01*
X169562383Y25668362D01*
X169549320Y25551898D01*
X169544994Y25513335D01*
X169560592Y25327586D01*
X169562261Y25321766D01*
X169562261Y25321765D01*
X169603811Y25176864D01*
X169611971Y25148405D01*
X169614743Y25143011D01*
X169614744Y25143009D01*
X169692890Y24990955D01*
X169697176Y24982615D01*
X169812959Y24836532D01*
X169954912Y24715721D01*
X169960210Y24712760D01*
X170117627Y24624783D01*
X170116287Y24622385D01*
X170160793Y24585129D01*
X170181617Y24518434D01*
X170166297Y24456584D01*
X170122135Y24376254D01*
X170120303Y24370479D01*
X170068090Y24205882D01*
X170065772Y24198576D01*
X170065096Y24192548D01*
X170049938Y24057409D01*
X170044994Y24013335D01*
X170060592Y23827586D01*
X170062261Y23821766D01*
X170062261Y23821765D01*
X170103811Y23676864D01*
X170111971Y23648405D01*
X170114743Y23643011D01*
X170114744Y23643009D01*
X170185402Y23505525D01*
X170197176Y23482615D01*
X170312959Y23336532D01*
X170454912Y23215721D01*
X170617627Y23124783D01*
X170794907Y23067181D01*
X170979998Y23045110D01*
X170986041Y23045575D01*
X170986043Y23045575D01*
X171051020Y23050575D01*
X171165851Y23059411D01*
X171243235Y23081017D01*
X171339547Y23107907D01*
X171339551Y23107909D01*
X171345387Y23109538D01*
X171511768Y23193583D01*
X171516547Y23197317D01*
X171516552Y23197320D01*
X171622073Y23279763D01*
X171658655Y23308344D01*
X171780454Y23449450D01*
X171792925Y23471402D01*
X171869530Y23606252D01*
X171872526Y23611526D01*
X171931364Y23788399D01*
X171932248Y23795391D01*
X171948537Y23924336D01*
X171954727Y23973332D01*
X171955099Y24000000D01*
X171954384Y24007290D01*
X171937501Y24179477D01*
X171937501Y24179479D01*
X171936909Y24185513D01*
X171883033Y24363960D01*
X171877279Y24374783D01*
X171798371Y24523186D01*
X171798371Y24523187D01*
X171795522Y24528544D01*
X171677710Y24672995D01*
X171621312Y24719652D01*
X171538760Y24787946D01*
X171538757Y24787948D01*
X171534085Y24791813D01*
X171461640Y24830984D01*
X171382930Y24873543D01*
X171333322Y24922744D01*
X171318189Y24990955D01*
X171334091Y25043868D01*
X171369530Y25106252D01*
X171372526Y25111526D01*
X171431364Y25288399D01*
X171432248Y25295391D01*
X171444017Y25388553D01*
X171454727Y25473332D01*
X171455099Y25500000D01*
X171454384Y25507289D01*
X171437501Y25679477D01*
X171437501Y25679479D01*
X171436909Y25685513D01*
X171405465Y25789661D01*
X171404933Y25859528D01*
X171442259Y25918592D01*
X171505592Y25948100D01*
X171524173Y25949500D01*
X172475945Y25949500D01*
X172542984Y25929815D01*
X172588739Y25877011D01*
X172598683Y25807853D01*
X172594141Y25788006D01*
X172565772Y25698576D01*
X172562383Y25668362D01*
X172549320Y25551898D01*
X172544994Y25513335D01*
X172560592Y25327586D01*
X172562261Y25321766D01*
X172562261Y25321765D01*
X172603811Y25176864D01*
X172611971Y25148405D01*
X172614743Y25143011D01*
X172614744Y25143009D01*
X172692890Y24990955D01*
X172697176Y24982615D01*
X172812959Y24836532D01*
X172954912Y24715721D01*
X172960210Y24712760D01*
X172994523Y24693583D01*
X173117627Y24624783D01*
X173156135Y24612271D01*
X173285259Y24570316D01*
X173294907Y24567181D01*
X173300928Y24566463D01*
X173380832Y24556935D01*
X173479998Y24545110D01*
X173486041Y24545575D01*
X173486043Y24545575D01*
X173543482Y24549995D01*
X173665851Y24559411D01*
X173743235Y24581017D01*
X173839547Y24607907D01*
X173839551Y24607909D01*
X173845387Y24609538D01*
X174011768Y24693583D01*
X174016547Y24697317D01*
X174016552Y24697320D01*
X174092171Y24756401D01*
X174158655Y24808344D01*
X174280454Y24949450D01*
X174292132Y24970006D01*
X174369530Y25106252D01*
X174372526Y25111526D01*
X174431364Y25288399D01*
X174432248Y25295391D01*
X174444017Y25388553D01*
X174454727Y25473332D01*
X174455099Y25500000D01*
X174454384Y25507289D01*
X174437501Y25679477D01*
X174437501Y25679479D01*
X174436909Y25685513D01*
X174405465Y25789661D01*
X174404933Y25859528D01*
X174442259Y25918592D01*
X174505592Y25948100D01*
X174524173Y25949500D01*
X180975945Y25949500D01*
X181042984Y25929815D01*
X181088739Y25877011D01*
X181098683Y25807853D01*
X181094141Y25788006D01*
X181065772Y25698576D01*
X181062383Y25668362D01*
X181049320Y25551898D01*
X181044994Y25513335D01*
X181060592Y25327586D01*
X181062261Y25321766D01*
X181062261Y25321765D01*
X181103811Y25176864D01*
X181111971Y25148405D01*
X181114743Y25143011D01*
X181114744Y25143009D01*
X181192890Y24990955D01*
X181197176Y24982615D01*
X181312959Y24836532D01*
X181454912Y24715721D01*
X181460210Y24712760D01*
X181494523Y24693583D01*
X181617627Y24624783D01*
X181656135Y24612271D01*
X181785259Y24570316D01*
X181794907Y24567181D01*
X181800928Y24566463D01*
X181880832Y24556935D01*
X181979998Y24545110D01*
X181986041Y24545575D01*
X181986043Y24545575D01*
X182043482Y24549995D01*
X182165851Y24559411D01*
X182243235Y24581017D01*
X182339547Y24607907D01*
X182339551Y24607909D01*
X182345387Y24609538D01*
X182511768Y24693583D01*
X182516547Y24697317D01*
X182516552Y24697320D01*
X182592171Y24756401D01*
X182658655Y24808344D01*
X182780454Y24949450D01*
X182792132Y24970006D01*
X182869530Y25106252D01*
X182872526Y25111526D01*
X182931364Y25288399D01*
X182932248Y25295391D01*
X182944017Y25388553D01*
X182954727Y25473332D01*
X182955099Y25500000D01*
X182954384Y25507289D01*
X182937501Y25679477D01*
X182937501Y25679479D01*
X182936909Y25685513D01*
X182916293Y25753797D01*
X182915761Y25823665D01*
X182953087Y25882729D01*
X183016420Y25912237D01*
X183085652Y25902820D01*
X183122682Y25877318D01*
X183403495Y25596505D01*
X183418916Y25577715D01*
X183424913Y25568740D01*
X183445057Y25502334D01*
X183444750Y25500000D01*
X183445811Y25491941D01*
X183448439Y25471980D01*
X183449500Y25455794D01*
X183449500Y21005672D01*
X183428602Y20936781D01*
X183418916Y20922285D01*
X183403495Y20903495D01*
X183141066Y20641066D01*
X183079743Y20607581D01*
X183010051Y20612565D01*
X182954118Y20654437D01*
X182934677Y20692907D01*
X182884784Y20858160D01*
X182883033Y20863960D01*
X182878899Y20871736D01*
X182798371Y21023186D01*
X182798371Y21023187D01*
X182795522Y21028544D01*
X182718560Y21122908D01*
X182681545Y21168293D01*
X182681544Y21168294D01*
X182677710Y21172995D01*
X182595710Y21240832D01*
X182538760Y21287946D01*
X182538757Y21287948D01*
X182534085Y21291813D01*
X182478690Y21321765D01*
X182375447Y21377589D01*
X182375443Y21377591D01*
X182370116Y21380471D01*
X182192049Y21435591D01*
X182006668Y21455076D01*
X182000635Y21454527D01*
X182000631Y21454527D01*
X181827074Y21438732D01*
X181827073Y21438732D01*
X181821032Y21438182D01*
X181815213Y21436469D01*
X181815211Y21436469D01*
X181758565Y21419797D01*
X181642214Y21385552D01*
X181477023Y21299193D01*
X181472295Y21295392D01*
X181472294Y21295391D01*
X181345671Y21193583D01*
X181331752Y21182392D01*
X181211935Y21039599D01*
X181190165Y21000000D01*
X181127247Y20885552D01*
X181122135Y20876254D01*
X181120303Y20870479D01*
X181075190Y20728264D01*
X181065772Y20698576D01*
X181065096Y20692549D01*
X181049910Y20557166D01*
X181025922Y20500000D01*
X181000000Y20500000D01*
X180500000Y20000000D01*
X180500000Y15626062D01*
X180480315Y15559023D01*
X180427511Y15513268D01*
X180358353Y15503324D01*
X180294797Y15532349D01*
X180279907Y15547690D01*
X180181545Y15668293D01*
X180181544Y15668294D01*
X180177710Y15672995D01*
X180118986Y15721576D01*
X180038760Y15787946D01*
X180038757Y15787948D01*
X180034085Y15791813D01*
X179973138Y15824767D01*
X179875447Y15877589D01*
X179875443Y15877591D01*
X179870116Y15880471D01*
X179692049Y15935591D01*
X179506668Y15955076D01*
X179500635Y15954527D01*
X179500631Y15954527D01*
X179327074Y15938732D01*
X179327073Y15938732D01*
X179321032Y15938182D01*
X179315213Y15936469D01*
X179315211Y15936469D01*
X179162480Y15891517D01*
X179092610Y15891473D01*
X179033808Y15929209D01*
X179004742Y15992747D01*
X179003675Y16017606D01*
X179004934Y16039438D01*
X178991043Y16154232D01*
X178978781Y16255560D01*
X178978780Y16255564D01*
X178978117Y16261044D01*
X178957126Y16329276D01*
X178914106Y16469119D01*
X178914104Y16469123D01*
X178912481Y16474400D01*
X178905457Y16488010D01*
X178812633Y16667850D01*
X178812632Y16667852D01*
X178810099Y16672759D01*
X178723542Y16785563D01*
X178677570Y16845476D01*
X178677566Y16845480D01*
X178674210Y16849854D01*
X178610850Y16907507D01*
X178574513Y16967184D01*
X178576209Y17037033D01*
X178605255Y17085514D01*
X178659595Y17141589D01*
X178725749Y17209854D01*
X178728829Y17214437D01*
X178847173Y17390552D01*
X178847176Y17390557D01*
X178850250Y17395132D01*
X178939974Y17599529D01*
X178992085Y17816585D01*
X178995602Y17877589D01*
X179004616Y18033921D01*
X179004616Y18033922D01*
X179004934Y18039438D01*
X178988501Y18175233D01*
X178978781Y18255560D01*
X178978780Y18255564D01*
X178978117Y18261044D01*
X178952043Y18345799D01*
X178914106Y18469119D01*
X178914104Y18469123D01*
X178912481Y18474400D01*
X178890175Y18517618D01*
X178812633Y18667850D01*
X178812632Y18667852D01*
X178810099Y18672759D01*
X178739706Y18764497D01*
X178677570Y18845476D01*
X178677566Y18845480D01*
X178674210Y18849854D01*
X178610850Y18907507D01*
X178574513Y18967184D01*
X178576209Y19037033D01*
X178605255Y19085514D01*
X178660971Y19143009D01*
X178725749Y19209854D01*
X178728829Y19214437D01*
X178847173Y19390552D01*
X178847176Y19390557D01*
X178850250Y19395132D01*
X178939974Y19599529D01*
X178992085Y19816585D01*
X178995525Y19876254D01*
X179002585Y19998696D01*
X179026095Y20064491D01*
X179081446Y20107130D01*
X179151062Y20113077D01*
X179164696Y20109489D01*
X179294907Y20067181D01*
X179479998Y20045110D01*
X179486041Y20045575D01*
X179486043Y20045575D01*
X179543482Y20049995D01*
X179665851Y20059411D01*
X179743235Y20081017D01*
X179839547Y20107907D01*
X179839551Y20107909D01*
X179845387Y20109538D01*
X180011768Y20193583D01*
X180016547Y20197317D01*
X180016552Y20197320D01*
X180125768Y20282650D01*
X180158655Y20308344D01*
X180280454Y20449450D01*
X180309171Y20500000D01*
X180369530Y20606252D01*
X180372526Y20611526D01*
X180431364Y20788399D01*
X180432248Y20795391D01*
X180451130Y20944860D01*
X180454727Y20973332D01*
X180454932Y20988010D01*
X180455051Y20996538D01*
X180455051Y20996543D01*
X180455099Y21000000D01*
X180453811Y21013133D01*
X180437501Y21179477D01*
X180437501Y21179479D01*
X180436909Y21185513D01*
X180383033Y21363960D01*
X180375787Y21377589D01*
X180298371Y21523186D01*
X180298371Y21523187D01*
X180295522Y21528544D01*
X180177710Y21672995D01*
X180103052Y21734758D01*
X180038760Y21787946D01*
X180038757Y21787948D01*
X180034085Y21791813D01*
X179974817Y21823859D01*
X179875447Y21877589D01*
X179875443Y21877591D01*
X179870116Y21880471D01*
X179692049Y21935591D01*
X179506668Y21955076D01*
X179500635Y21954527D01*
X179500631Y21954527D01*
X179327074Y21938732D01*
X179327073Y21938732D01*
X179321032Y21938182D01*
X179315213Y21936469D01*
X179315211Y21936469D01*
X179258565Y21919797D01*
X179142214Y21885552D01*
X178977023Y21799193D01*
X178972295Y21795392D01*
X178972294Y21795391D01*
X178944896Y21773362D01*
X178880316Y21746696D01*
X178867197Y21746000D01*
X176182013Y21746000D01*
X176168696Y21742090D01*
X176167642Y21734758D01*
X176225402Y21547004D01*
X176229561Y21536813D01*
X176323395Y21355014D01*
X176329292Y21345723D01*
X176453840Y21183407D01*
X176461281Y21175316D01*
X176518743Y21123029D01*
X176555079Y21063351D01*
X176553383Y20993502D01*
X176524336Y20945022D01*
X176378099Y20794118D01*
X176378093Y20794111D01*
X176374251Y20790146D01*
X176371173Y20785566D01*
X176371171Y20785563D01*
X176252827Y20609448D01*
X176252824Y20609443D01*
X176249750Y20604868D01*
X176234029Y20569055D01*
X176174334Y20433066D01*
X176129363Y20379593D01*
X176118240Y20373019D01*
X176111151Y20369313D01*
X175977023Y20299193D01*
X175972295Y20295392D01*
X175972294Y20295391D01*
X175842851Y20191316D01*
X175831752Y20182392D01*
X175711935Y20039599D01*
X175709016Y20034289D01*
X175634599Y19898925D01*
X175622135Y19876254D01*
X175620303Y19870479D01*
X175600593Y19808344D01*
X175565772Y19698576D01*
X175564007Y19682839D01*
X175548639Y19545828D01*
X175544994Y19513335D01*
X175560592Y19327586D01*
X175562261Y19321766D01*
X175562261Y19321765D01*
X175603811Y19176864D01*
X175611971Y19148405D01*
X175614743Y19143011D01*
X175614744Y19143009D01*
X175673572Y19028544D01*
X175697176Y18982615D01*
X175812959Y18836532D01*
X175954912Y18715721D01*
X176117627Y18624783D01*
X176122490Y18623203D01*
X176175788Y18578535D01*
X176196574Y18511829D01*
X176186134Y18459947D01*
X176160026Y18400471D01*
X176107915Y18183415D01*
X176107597Y18177900D01*
X176096064Y17977863D01*
X176095066Y17960562D01*
X176097982Y17936469D01*
X176120607Y17749502D01*
X176121883Y17738956D01*
X176123508Y17733674D01*
X176185167Y17533246D01*
X176187519Y17525600D01*
X176190052Y17520693D01*
X176190053Y17520690D01*
X176273942Y17358160D01*
X176289901Y17327241D01*
X176314872Y17294698D01*
X176422430Y17154524D01*
X176422434Y17154520D01*
X176425790Y17150146D01*
X176489150Y17092493D01*
X176525487Y17032816D01*
X176523791Y16962967D01*
X176494745Y16914486D01*
X176461782Y16880471D01*
X176374251Y16790146D01*
X176371173Y16785566D01*
X176371171Y16785563D01*
X176252827Y16609448D01*
X176252824Y16609443D01*
X176249750Y16604868D01*
X176160026Y16400471D01*
X176107915Y16183415D01*
X176107597Y16177900D01*
X176096064Y15977863D01*
X176095066Y15960562D01*
X176103421Y15891517D01*
X176119302Y15760288D01*
X176121883Y15738956D01*
X176123508Y15733674D01*
X176185443Y15532349D01*
X176187519Y15525600D01*
X176190052Y15520693D01*
X176190053Y15520690D01*
X176273942Y15358160D01*
X176289901Y15327241D01*
X176310804Y15300000D01*
X176422430Y15154524D01*
X176422434Y15154520D01*
X176425790Y15150146D01*
X176453664Y15124783D01*
X176489150Y15092493D01*
X176525487Y15032816D01*
X176523791Y14962967D01*
X176494745Y14914486D01*
X176473936Y14893013D01*
X176374251Y14790146D01*
X176371173Y14785566D01*
X176371171Y14785563D01*
X176252827Y14609448D01*
X176252824Y14609443D01*
X176249750Y14604868D01*
X176160026Y14400471D01*
X176107915Y14183415D01*
X176107597Y14177900D01*
X176105339Y14138732D01*
X176095066Y13960562D01*
X176092655Y13960701D01*
X176077696Y13903034D01*
X176026373Y13855625D01*
X175957565Y13843488D01*
X175912326Y13857648D01*
X175900652Y13863960D01*
X175870116Y13880471D01*
X175692049Y13935591D01*
X175506668Y13955076D01*
X175500635Y13954527D01*
X175500631Y13954527D01*
X175327074Y13938732D01*
X175327073Y13938732D01*
X175321032Y13938182D01*
X175315213Y13936469D01*
X175315211Y13936469D01*
X175282577Y13926864D01*
X175142214Y13885552D01*
X174977023Y13799193D01*
X174972295Y13795392D01*
X174972294Y13795391D01*
X174836478Y13686192D01*
X174831752Y13682392D01*
X174711935Y13539599D01*
X174680256Y13481976D01*
X174627247Y13385552D01*
X174622135Y13376254D01*
X174620303Y13370479D01*
X174569350Y13209854D01*
X174565772Y13198576D01*
X174560798Y13154232D01*
X174545940Y13021765D01*
X174544994Y13013335D01*
X174560592Y12827586D01*
X174562261Y12821766D01*
X174562261Y12821765D01*
X174602162Y12682615D01*
X174611971Y12648405D01*
X174614743Y12643011D01*
X174614744Y12643009D01*
X174694191Y12488424D01*
X174697176Y12482615D01*
X174767741Y12393583D01*
X174796018Y12357907D01*
X174812959Y12336532D01*
X174835696Y12317181D01*
X174919834Y12245575D01*
X174954912Y12215721D01*
X174960210Y12212760D01*
X175104526Y12132105D01*
X175117627Y12124783D01*
X175123399Y12122908D01*
X175123398Y12122908D01*
X175268421Y12075787D01*
X175294907Y12067181D01*
X175479998Y12045110D01*
X175486041Y12045575D01*
X175486043Y12045575D01*
X175543482Y12049995D01*
X175665851Y12059411D01*
X175746781Y12082007D01*
X175839547Y12107907D01*
X175839551Y12107909D01*
X175845387Y12109538D01*
X175891901Y12133034D01*
X175919312Y12146880D01*
X175988026Y12159536D01*
X176052675Y12133034D01*
X176092732Y12075787D01*
X176099015Y12029062D01*
X176095802Y11973332D01*
X176095066Y11960562D01*
X176097982Y11936469D01*
X176115955Y11787946D01*
X176121883Y11738956D01*
X176123508Y11733674D01*
X176185167Y11533246D01*
X176187519Y11525600D01*
X176190052Y11520693D01*
X176190053Y11520690D01*
X176286606Y11333624D01*
X176289901Y11327241D01*
X176331379Y11273186D01*
X176422430Y11154524D01*
X176422434Y11154520D01*
X176425790Y11150146D01*
X176450580Y11127589D01*
X176489150Y11092493D01*
X176525487Y11032816D01*
X176523791Y10962967D01*
X176494745Y10914486D01*
X176459627Y10878247D01*
X176374251Y10790146D01*
X176371173Y10785566D01*
X176371171Y10785563D01*
X176252827Y10609448D01*
X176252824Y10609443D01*
X176249750Y10604868D01*
X176160026Y10400471D01*
X176107915Y10183415D01*
X176107597Y10177900D01*
X176096064Y9977863D01*
X176095066Y9960562D01*
X176101674Y9905956D01*
X176120547Y9750000D01*
X176121883Y9738956D01*
X176123508Y9733674D01*
X176185167Y9533246D01*
X176187519Y9525600D01*
X176190052Y9520693D01*
X176190053Y9520690D01*
X176271820Y9362271D01*
X176289901Y9327241D01*
X176320053Y9287946D01*
X176422430Y9154524D01*
X176422434Y9154520D01*
X176425790Y9150146D01*
X176590893Y8999914D01*
X176779990Y8881293D01*
X176785107Y8879236D01*
X176785111Y8879234D01*
X176975463Y8802714D01*
X176987105Y8798034D01*
X177205690Y8752767D01*
X177262349Y8749500D01*
X177806630Y8749500D01*
X177809373Y8749745D01*
X177809377Y8749745D01*
X177966839Y8763798D01*
X177966841Y8763798D01*
X177972339Y8764289D01*
X178187651Y8823192D01*
X178334026Y8893009D01*
X178385746Y8917678D01*
X178454729Y8928772D01*
X178518759Y8900810D01*
X178557508Y8842669D01*
X178560264Y8831498D01*
X178560592Y8827586D01*
X178582046Y8752767D01*
X178601331Y8685513D01*
X178611971Y8648405D01*
X178614743Y8643011D01*
X178614744Y8643009D01*
X178690021Y8496538D01*
X178697176Y8482615D01*
X178744993Y8422285D01*
X178796018Y8357907D01*
X178812959Y8336532D01*
X178817578Y8332601D01*
X178892390Y8268931D01*
X178930685Y8210491D01*
X178931306Y8140624D01*
X178894055Y8081512D01*
X178830760Y8051924D01*
X178812023Y8050500D01*
X169524156Y8050500D01*
X169457117Y8070185D01*
X169411362Y8122989D01*
X169401418Y8192147D01*
X169406496Y8213641D01*
X169429449Y8282640D01*
X169429451Y8282647D01*
X169431364Y8288399D01*
X169433413Y8304614D01*
X169448278Y8422285D01*
X169454727Y8473332D01*
X169455099Y8500000D01*
X169437618Y8678280D01*
X169450666Y8746920D01*
X169498753Y8797609D01*
X169566611Y8814254D01*
X169575708Y8813508D01*
X169688210Y8800093D01*
X169729998Y8795110D01*
X169736041Y8795575D01*
X169736043Y8795575D01*
X169794964Y8800109D01*
X169915851Y8809411D01*
X170007469Y8834991D01*
X170089547Y8857907D01*
X170089551Y8857909D01*
X170095387Y8859538D01*
X170261768Y8943583D01*
X170266547Y8947317D01*
X170266552Y8947320D01*
X170377866Y9034289D01*
X170408655Y9058344D01*
X170530454Y9199450D01*
X170539698Y9215721D01*
X170619530Y9356252D01*
X170622526Y9361526D01*
X170681364Y9538399D01*
X170684019Y9559411D01*
X170694758Y9644422D01*
X170704727Y9723332D01*
X170704945Y9738956D01*
X170705051Y9746538D01*
X170705051Y9746543D01*
X170705099Y9750000D01*
X170704384Y9757289D01*
X170687501Y9929477D01*
X170687501Y9929479D01*
X170686909Y9935513D01*
X170633033Y10113960D01*
X170623047Y10132742D01*
X170548371Y10273186D01*
X170548371Y10273187D01*
X170545522Y10278544D01*
X170465831Y10376254D01*
X170431545Y10418293D01*
X170431544Y10418294D01*
X170427710Y10422995D01*
X170386657Y10456957D01*
X170288760Y10537946D01*
X170288757Y10537948D01*
X170284085Y10541813D01*
X170278750Y10544698D01*
X170278745Y10544701D01*
X170175029Y10600780D01*
X170125420Y10649981D01*
X170110287Y10718192D01*
X170134433Y10783756D01*
X170150081Y10799805D01*
X170149486Y10800430D01*
X170153875Y10804610D01*
X170158655Y10808344D01*
X170280454Y10949450D01*
X170285534Y10958391D01*
X170369530Y11106252D01*
X170372526Y11111526D01*
X170431364Y11288399D01*
X170432248Y11295392D01*
X170448537Y11424336D01*
X170454727Y11473332D01*
X170455099Y11500000D01*
X170454384Y11507290D01*
X170437501Y11679477D01*
X170437501Y11679479D01*
X170436909Y11685513D01*
X170383033Y11863960D01*
X170376167Y11876874D01*
X170298371Y12023186D01*
X170298371Y12023187D01*
X170295522Y12028544D01*
X170290794Y12034341D01*
X170290507Y12035022D01*
X170288332Y12038296D01*
X170288954Y12038710D01*
X170263678Y12098735D01*
X170275681Y12167566D01*
X170322991Y12218981D01*
X170390588Y12236657D01*
X170454780Y12215485D01*
X170454912Y12215721D01*
X170487837Y12197320D01*
X170602864Y12133034D01*
X170617627Y12124783D01*
X170623399Y12122908D01*
X170623398Y12122908D01*
X170768421Y12075787D01*
X170794907Y12067181D01*
X170979998Y12045110D01*
X170986041Y12045575D01*
X170986043Y12045575D01*
X171043482Y12049995D01*
X171165851Y12059411D01*
X171246781Y12082007D01*
X171339547Y12107907D01*
X171339551Y12107909D01*
X171345387Y12109538D01*
X171350794Y12112269D01*
X171350801Y12112272D01*
X171390062Y12132105D01*
X171458776Y12144762D01*
X171523424Y12118261D01*
X171563482Y12061014D01*
X171566232Y11991199D01*
X171535919Y11936070D01*
X171416371Y11810092D01*
X171413909Y11806666D01*
X171413905Y11806661D01*
X171400457Y11787946D01*
X171253223Y11583048D01*
X171226854Y11533246D01*
X171140188Y11369561D01*
X171122398Y11335962D01*
X171103107Y11283246D01*
X171029103Y11081020D01*
X171026317Y11073408D01*
X171025420Y11069294D01*
X170967824Y10805135D01*
X170966757Y10800243D01*
X170944822Y10521523D01*
X170960916Y10242404D01*
X170961729Y10238262D01*
X170961729Y10238259D01*
X171011884Y9982615D01*
X171014741Y9968052D01*
X171016107Y9964061D01*
X171016109Y9964055D01*
X171086902Y9757289D01*
X171105303Y9703543D01*
X171151208Y9612271D01*
X171215840Y9483766D01*
X171230925Y9453772D01*
X171272686Y9393009D01*
X171361809Y9263335D01*
X171389282Y9223361D01*
X171577444Y9016573D01*
X171791930Y8837235D01*
X172028771Y8688665D01*
X172170254Y8624783D01*
X172263677Y8582601D01*
X172283583Y8573613D01*
X172287624Y8572416D01*
X172547603Y8495406D01*
X172547608Y8495405D01*
X172551652Y8494207D01*
X172688071Y8473332D01*
X172823840Y8452556D01*
X172823845Y8452556D01*
X172828018Y8451917D01*
X172985077Y8449450D01*
X173103348Y8447592D01*
X173103352Y8447592D01*
X173107566Y8447526D01*
X173163935Y8454347D01*
X173380936Y8480607D01*
X173380941Y8480608D01*
X173385123Y8481114D01*
X173655554Y8552060D01*
X173913855Y8659052D01*
X174006869Y8713405D01*
X174151599Y8797978D01*
X174151604Y8797981D01*
X174155245Y8800109D01*
X174158563Y8802710D01*
X174158568Y8802714D01*
X174371933Y8970014D01*
X174375258Y8972621D01*
X174569823Y9173397D01*
X174735340Y9398720D01*
X174850884Y9611526D01*
X174866728Y9640707D01*
X174866728Y9640708D01*
X174868745Y9644422D01*
X174886465Y9691316D01*
X174966080Y9902012D01*
X174966081Y9902016D01*
X174967570Y9905956D01*
X174968512Y9910068D01*
X175029044Y10174363D01*
X175029045Y10174368D01*
X175029987Y10178482D01*
X175047638Y10376254D01*
X175054623Y10454521D01*
X175054624Y10454531D01*
X175054840Y10456957D01*
X175054968Y10469119D01*
X175055167Y10488210D01*
X175055291Y10500000D01*
X175042462Y10688182D01*
X175036562Y10774726D01*
X175036562Y10774727D01*
X175036275Y10778935D01*
X174979579Y11052708D01*
X174977206Y11059411D01*
X174895778Y11289357D01*
X174886253Y11316254D01*
X174878122Y11332007D01*
X174759960Y11560942D01*
X174759957Y11560947D01*
X174758022Y11564696D01*
X174754959Y11569055D01*
X174685213Y11668293D01*
X174597261Y11793437D01*
X174464720Y11936069D01*
X174409822Y11995146D01*
X174409821Y11995147D01*
X174406944Y11998243D01*
X174216362Y12154232D01*
X174193863Y12172647D01*
X174193862Y12172648D01*
X174190591Y12175325D01*
X173952208Y12321406D01*
X173948347Y12323101D01*
X173948343Y12323103D01*
X173752024Y12409281D01*
X173696205Y12433784D01*
X173438163Y12507289D01*
X173431374Y12509223D01*
X173431373Y12509223D01*
X173427319Y12510378D01*
X173150526Y12549771D01*
X173003846Y12550539D01*
X172875167Y12551213D01*
X172875166Y12551213D01*
X172870947Y12551235D01*
X172675000Y12525439D01*
X172597949Y12515295D01*
X172597947Y12515295D01*
X172593757Y12514743D01*
X172324083Y12440968D01*
X172320200Y12439312D01*
X172320195Y12439310D01*
X172166210Y12373630D01*
X172066917Y12331278D01*
X172063292Y12329109D01*
X172063291Y12329108D01*
X171923889Y12245678D01*
X171856256Y12228141D01*
X171789878Y12249953D01*
X171745830Y12304190D01*
X171738097Y12373630D01*
X171766345Y12433105D01*
X171766932Y12433784D01*
X171780454Y12449450D01*
X171789698Y12465721D01*
X171869530Y12606252D01*
X171872526Y12611526D01*
X171931364Y12788399D01*
X171933344Y12804067D01*
X171953035Y12959939D01*
X171954727Y12973332D01*
X171955099Y13000000D01*
X171954384Y13007289D01*
X171937501Y13179477D01*
X171937501Y13179479D01*
X171936909Y13185513D01*
X171883033Y13363960D01*
X171877279Y13374783D01*
X171798371Y13523186D01*
X171798371Y13523187D01*
X171795522Y13528544D01*
X171677710Y13672995D01*
X171630044Y13712428D01*
X171538760Y13787946D01*
X171538757Y13787948D01*
X171534085Y13791813D01*
X171478071Y13822100D01*
X171375447Y13877589D01*
X171375443Y13877591D01*
X171370116Y13880471D01*
X171192049Y13935591D01*
X171006668Y13955076D01*
X171000635Y13954527D01*
X171000631Y13954527D01*
X170827074Y13938732D01*
X170827073Y13938732D01*
X170821032Y13938182D01*
X170815213Y13936469D01*
X170815211Y13936469D01*
X170782577Y13926864D01*
X170642214Y13885552D01*
X170477023Y13799193D01*
X170472295Y13795392D01*
X170472294Y13795391D01*
X170408678Y13744242D01*
X170331752Y13682392D01*
X170331088Y13683217D01*
X170274579Y13653119D01*
X170204943Y13658827D01*
X170170440Y13679009D01*
X170165354Y13683217D01*
X170110563Y13728544D01*
X170038760Y13787946D01*
X170038757Y13787948D01*
X170034085Y13791813D01*
X169978071Y13822100D01*
X169875447Y13877589D01*
X169875443Y13877591D01*
X169870116Y13880471D01*
X169692049Y13935591D01*
X169506668Y13955076D01*
X169500635Y13954527D01*
X169500631Y13954527D01*
X169327074Y13938732D01*
X169327073Y13938732D01*
X169321032Y13938182D01*
X169315213Y13936469D01*
X169315211Y13936469D01*
X169282577Y13926864D01*
X169142214Y13885552D01*
X168977023Y13799193D01*
X168972295Y13795392D01*
X168972294Y13795391D01*
X168908678Y13744242D01*
X168831752Y13682392D01*
X168831088Y13683217D01*
X168774579Y13653119D01*
X168704943Y13658827D01*
X168670440Y13679009D01*
X168665354Y13683217D01*
X168610563Y13728544D01*
X168538760Y13787946D01*
X168538757Y13787948D01*
X168534085Y13791813D01*
X168478071Y13822100D01*
X168375447Y13877589D01*
X168375443Y13877591D01*
X168370116Y13880471D01*
X168192049Y13935591D01*
X168006668Y13955076D01*
X168000635Y13954527D01*
X168000631Y13954527D01*
X167827074Y13938732D01*
X167827073Y13938732D01*
X167821032Y13938182D01*
X167815213Y13936469D01*
X167815211Y13936469D01*
X167782577Y13926864D01*
X167642214Y13885552D01*
X167477023Y13799193D01*
X167472295Y13795392D01*
X167472294Y13795391D01*
X167408678Y13744242D01*
X167331752Y13682392D01*
X167331088Y13683217D01*
X167274579Y13653119D01*
X167204943Y13658827D01*
X167170440Y13679009D01*
X167165354Y13683217D01*
X167110563Y13728544D01*
X167038760Y13787946D01*
X167038757Y13787948D01*
X167034085Y13791813D01*
X166978071Y13822100D01*
X166875447Y13877589D01*
X166875443Y13877591D01*
X166870116Y13880471D01*
X166692049Y13935591D01*
X166506668Y13955076D01*
X166500635Y13954527D01*
X166500631Y13954527D01*
X166327074Y13938732D01*
X166327073Y13938732D01*
X166321032Y13938182D01*
X166315213Y13936469D01*
X166315211Y13936469D01*
X166282577Y13926864D01*
X166142214Y13885552D01*
X165977023Y13799193D01*
X165972295Y13795392D01*
X165972294Y13795391D01*
X165908678Y13744242D01*
X165831752Y13682392D01*
X165831088Y13683217D01*
X165774579Y13653119D01*
X165704943Y13658827D01*
X165670440Y13679009D01*
X165665354Y13683217D01*
X165610563Y13728544D01*
X165538760Y13787946D01*
X165538757Y13787948D01*
X165534085Y13791813D01*
X165478071Y13822100D01*
X165375447Y13877589D01*
X165375443Y13877591D01*
X165370116Y13880471D01*
X165192049Y13935591D01*
X165006668Y13955076D01*
X165000635Y13954527D01*
X165000631Y13954527D01*
X164827074Y13938732D01*
X164827073Y13938732D01*
X164821032Y13938182D01*
X164815213Y13936469D01*
X164815211Y13936469D01*
X164782577Y13926864D01*
X164642214Y13885552D01*
X164477023Y13799193D01*
X164472295Y13795392D01*
X164472294Y13795391D01*
X164336478Y13686192D01*
X164331752Y13682392D01*
X164211935Y13539599D01*
X164202912Y13523186D01*
X164172543Y13467946D01*
X164122996Y13418682D01*
X164054681Y13404026D01*
X164027214Y13409229D01*
X163961800Y13429477D01*
X163942049Y13435591D01*
X163756668Y13455076D01*
X163750635Y13454527D01*
X163750631Y13454527D01*
X163577074Y13438732D01*
X163577073Y13438732D01*
X163571032Y13438182D01*
X163565213Y13436469D01*
X163565211Y13436469D01*
X163508565Y13419797D01*
X163392214Y13385552D01*
X163227023Y13299193D01*
X163222295Y13295392D01*
X163222294Y13295391D01*
X163086478Y13186192D01*
X163081752Y13182392D01*
X162961935Y13039599D01*
X162933574Y12988010D01*
X162877175Y12885421D01*
X162872135Y12876254D01*
X162870303Y12870479D01*
X162817723Y12704725D01*
X162815772Y12698576D01*
X162815096Y12692548D01*
X162796274Y12524743D01*
X162794994Y12513335D01*
X162810592Y12327586D01*
X162812261Y12321766D01*
X162812261Y12321765D01*
X162851331Y12185513D01*
X162861971Y12148405D01*
X162864743Y12143011D01*
X162864744Y12143009D01*
X162931615Y12012894D01*
X162947176Y11982615D01*
X162985867Y11933799D01*
X163051876Y11850516D01*
X163062959Y11836532D01*
X163204912Y11715721D01*
X163210210Y11712760D01*
X163348358Y11635552D01*
X163367627Y11624783D01*
X163373399Y11622908D01*
X163373398Y11622908D01*
X163507572Y11579312D01*
X163544907Y11567181D01*
X163550928Y11566463D01*
X163596381Y11561043D01*
X163729998Y11545110D01*
X163736041Y11545575D01*
X163736043Y11545575D01*
X163799941Y11550492D01*
X163915851Y11559411D01*
X164012809Y11586482D01*
X164089547Y11607907D01*
X164089551Y11607909D01*
X164095387Y11609538D01*
X164261768Y11693583D01*
X164266547Y11697317D01*
X164266552Y11697320D01*
X164342171Y11756401D01*
X164408655Y11808344D01*
X164530454Y11949450D01*
X164533652Y11955078D01*
X164578167Y12033440D01*
X164628396Y12082007D01*
X164696909Y12095709D01*
X164724301Y12090122D01*
X164794907Y12067181D01*
X164979998Y12045110D01*
X164986041Y12045575D01*
X164986043Y12045575D01*
X165043482Y12049995D01*
X165165851Y12059411D01*
X165246781Y12082007D01*
X165339547Y12107907D01*
X165339551Y12107909D01*
X165345387Y12109538D01*
X165511768Y12193583D01*
X165516547Y12197317D01*
X165516552Y12197320D01*
X165539270Y12215070D01*
X165604217Y12240832D01*
X165672781Y12227392D01*
X165723195Y12179016D01*
X165739452Y12111064D01*
X165717925Y12047299D01*
X165715836Y12044248D01*
X165711935Y12039599D01*
X165662375Y11949450D01*
X165627247Y11885552D01*
X165622135Y11876254D01*
X165620303Y11870479D01*
X165594518Y11789193D01*
X165565772Y11698576D01*
X165563337Y11676864D01*
X165546370Y11525600D01*
X165544994Y11513335D01*
X165552468Y11424336D01*
X165538463Y11355884D01*
X165486348Y11304068D01*
X165477023Y11299193D01*
X165463598Y11288399D01*
X165344384Y11192548D01*
X165331752Y11182392D01*
X165211935Y11039599D01*
X165174833Y10972111D01*
X165136908Y10903125D01*
X165122135Y10876254D01*
X165120303Y10870479D01*
X165071995Y10718192D01*
X165065772Y10698576D01*
X165065096Y10692548D01*
X165047161Y10532650D01*
X165044994Y10513335D01*
X165060592Y10327586D01*
X165062261Y10321766D01*
X165062261Y10321765D01*
X165103349Y10178475D01*
X165111971Y10148405D01*
X165114743Y10143011D01*
X165114744Y10143009D01*
X165190021Y9996538D01*
X165197176Y9982615D01*
X165312959Y9836532D01*
X165317578Y9832601D01*
X165441897Y9726798D01*
X165454912Y9715721D01*
X165460210Y9712760D01*
X165494523Y9693583D01*
X165617627Y9624783D01*
X165640728Y9617277D01*
X165746985Y9582752D01*
X165794907Y9567181D01*
X165800928Y9566463D01*
X165887453Y9556145D01*
X165979998Y9545110D01*
X165986041Y9545575D01*
X165986043Y9545575D01*
X166043482Y9549995D01*
X166165851Y9559411D01*
X166252609Y9583634D01*
X166339547Y9607907D01*
X166339551Y9607909D01*
X166345387Y9609538D01*
X166511768Y9693583D01*
X166516547Y9697317D01*
X166516552Y9697320D01*
X166627866Y9784289D01*
X166658655Y9808344D01*
X166780454Y9949450D01*
X166783652Y9955078D01*
X166869530Y10106252D01*
X166872526Y10111526D01*
X166931364Y10288399D01*
X166954727Y10473332D01*
X166955099Y10500000D01*
X166954155Y10509633D01*
X166947929Y10573125D01*
X166960977Y10641765D01*
X167004892Y10689920D01*
X167006357Y10690850D01*
X167011768Y10693583D01*
X167016544Y10697315D01*
X167016548Y10697317D01*
X167085211Y10750963D01*
X167158655Y10808344D01*
X167280454Y10949450D01*
X167285534Y10958391D01*
X167369530Y11106252D01*
X167372526Y11111526D01*
X167431364Y11288399D01*
X167432248Y11295392D01*
X167448537Y11424336D01*
X167454727Y11473332D01*
X167455099Y11500000D01*
X167454384Y11507290D01*
X167437501Y11679477D01*
X167437501Y11679479D01*
X167436909Y11685513D01*
X167383033Y11863960D01*
X167376167Y11876874D01*
X167298371Y12023186D01*
X167298371Y12023187D01*
X167295522Y12028544D01*
X167290794Y12034341D01*
X167290507Y12035022D01*
X167288332Y12038296D01*
X167288954Y12038710D01*
X167263678Y12098735D01*
X167275681Y12167566D01*
X167322991Y12218981D01*
X167390588Y12236657D01*
X167454780Y12215485D01*
X167454912Y12215721D01*
X167487837Y12197320D01*
X167602864Y12133034D01*
X167617627Y12124783D01*
X167623399Y12122908D01*
X167623398Y12122908D01*
X167768421Y12075787D01*
X167794907Y12067181D01*
X167979998Y12045110D01*
X167986041Y12045575D01*
X167986043Y12045575D01*
X168043482Y12049995D01*
X168165851Y12059411D01*
X168246781Y12082007D01*
X168339547Y12107907D01*
X168339551Y12107909D01*
X168345387Y12109538D01*
X168511768Y12193583D01*
X168516547Y12197317D01*
X168516552Y12197320D01*
X168539270Y12215070D01*
X168604217Y12240832D01*
X168672781Y12227392D01*
X168723195Y12179016D01*
X168739452Y12111064D01*
X168717925Y12047299D01*
X168715836Y12044248D01*
X168711935Y12039599D01*
X168662375Y11949450D01*
X168627247Y11885552D01*
X168622135Y11876254D01*
X168620303Y11870479D01*
X168594518Y11789193D01*
X168565772Y11698576D01*
X168563337Y11676864D01*
X168546370Y11525600D01*
X168544994Y11513335D01*
X168560592Y11327586D01*
X168562261Y11321766D01*
X168562261Y11321765D01*
X168603811Y11176864D01*
X168611971Y11148405D01*
X168614743Y11143011D01*
X168614744Y11143009D01*
X168690021Y10996538D01*
X168697176Y10982615D01*
X168812959Y10836532D01*
X168862449Y10794413D01*
X168941897Y10726798D01*
X168954912Y10715721D01*
X169077153Y10647403D01*
X169126067Y10597517D01*
X169140247Y10529101D01*
X169115188Y10463880D01*
X169094355Y10442525D01*
X169086481Y10436194D01*
X169081752Y10432392D01*
X168961935Y10289599D01*
X168928647Y10229048D01*
X168877247Y10135552D01*
X168872135Y10126254D01*
X168870303Y10120479D01*
X168817723Y9954725D01*
X168815772Y9948576D01*
X168811453Y9910068D01*
X168797161Y9782650D01*
X168794994Y9763335D01*
X168810158Y9582753D01*
X168810158Y9582752D01*
X168810592Y9577586D01*
X168809610Y9577504D01*
X168802928Y9513565D01*
X168759250Y9459031D01*
X168693021Y9436769D01*
X168675267Y9437355D01*
X168506668Y9455076D01*
X168500635Y9454527D01*
X168500631Y9454527D01*
X168327074Y9438732D01*
X168327073Y9438732D01*
X168321032Y9438182D01*
X168315213Y9436469D01*
X168315211Y9436469D01*
X168262215Y9420871D01*
X168142214Y9385552D01*
X167977023Y9299193D01*
X167972295Y9295392D01*
X167972294Y9295391D01*
X167847259Y9194860D01*
X167831752Y9182392D01*
X167711935Y9039599D01*
X167697496Y9013335D01*
X167626518Y8884226D01*
X167622135Y8876254D01*
X167620303Y8870479D01*
X167567722Y8704722D01*
X167565772Y8698576D01*
X167565096Y8692548D01*
X167548457Y8544206D01*
X167544994Y8513335D01*
X167560592Y8327586D01*
X167562261Y8321765D01*
X167562263Y8321755D01*
X167594687Y8208679D01*
X167594244Y8138811D01*
X167556097Y8080274D01*
X167492359Y8051653D01*
X167475491Y8050500D01*
X162024156Y8050500D01*
X161957117Y8070185D01*
X161911362Y8122989D01*
X161901418Y8192147D01*
X161906496Y8213641D01*
X161929449Y8282640D01*
X161929451Y8282647D01*
X161931364Y8288399D01*
X161933413Y8304614D01*
X161948278Y8422285D01*
X161954727Y8473332D01*
X161955099Y8500000D01*
X161954309Y8508059D01*
X161937501Y8679477D01*
X161937501Y8679479D01*
X161936909Y8685513D01*
X161931110Y8704722D01*
X161916326Y8753689D01*
X161883033Y8863960D01*
X161877279Y8874783D01*
X161798371Y9023186D01*
X161798371Y9023187D01*
X161795522Y9028544D01*
X161677710Y9172995D01*
X161534085Y9291813D01*
X161528753Y9294696D01*
X161524298Y9297701D01*
X161479728Y9351509D01*
X161471325Y9420871D01*
X161501755Y9483766D01*
X161561359Y9520224D01*
X161593640Y9524500D01*
X163090223Y9524500D01*
X163157262Y9504815D01*
X163170589Y9494931D01*
X163195969Y9473332D01*
X163204912Y9465721D01*
X163210210Y9462760D01*
X163348358Y9385552D01*
X163367627Y9374783D01*
X163373399Y9372908D01*
X163373398Y9372908D01*
X163538395Y9319297D01*
X163544907Y9317181D01*
X163550928Y9316463D01*
X163637452Y9306146D01*
X163729998Y9295110D01*
X163736041Y9295575D01*
X163736043Y9295575D01*
X163793482Y9299995D01*
X163915851Y9309411D01*
X163998909Y9332601D01*
X164089547Y9357907D01*
X164089551Y9357909D01*
X164095387Y9359538D01*
X164261768Y9443583D01*
X164266547Y9447317D01*
X164266552Y9447320D01*
X164365337Y9524500D01*
X164408655Y9558344D01*
X164530454Y9699450D01*
X164539698Y9715721D01*
X164619530Y9856252D01*
X164622526Y9861526D01*
X164681364Y10038399D01*
X164682248Y10045391D01*
X164695997Y10154232D01*
X164704727Y10223332D01*
X164705099Y10250000D01*
X164697492Y10327586D01*
X164687501Y10429477D01*
X164687501Y10429479D01*
X164686909Y10435513D01*
X164633033Y10613960D01*
X164627279Y10624783D01*
X164548371Y10773186D01*
X164548371Y10773187D01*
X164545522Y10778544D01*
X164465831Y10876254D01*
X164431545Y10918293D01*
X164431544Y10918294D01*
X164427710Y10922995D01*
X164368552Y10971935D01*
X164288760Y11037946D01*
X164288757Y11037948D01*
X164284085Y11041813D01*
X164227954Y11072163D01*
X164125447Y11127589D01*
X164125443Y11127591D01*
X164120116Y11130471D01*
X163942049Y11185591D01*
X163756668Y11205076D01*
X163750635Y11204527D01*
X163750631Y11204527D01*
X163577074Y11188732D01*
X163577073Y11188732D01*
X163571032Y11188182D01*
X163565213Y11186469D01*
X163565211Y11186469D01*
X163532577Y11176864D01*
X163392214Y11135552D01*
X163227023Y11049193D01*
X163170128Y11003448D01*
X163169399Y11002862D01*
X163104818Y10976196D01*
X163091700Y10975500D01*
X160064407Y10975500D01*
X160045757Y10976911D01*
X160032614Y10978911D01*
X160032610Y10978911D01*
X160025492Y10979994D01*
X159982261Y10976478D01*
X159975253Y10975908D01*
X159965201Y10975500D01*
X159957637Y10975500D01*
X159951559Y10974791D01*
X159930710Y10972361D01*
X159926403Y10971935D01*
X159864479Y10966899D01*
X159856873Y10966280D01*
X159850019Y10964060D01*
X159844551Y10962967D01*
X159839114Y10961682D01*
X159831963Y10960848D01*
X159825196Y10958392D01*
X159825193Y10958391D01*
X159766385Y10937044D01*
X159762291Y10935639D01*
X159702788Y10916363D01*
X159702786Y10916362D01*
X159695933Y10914142D01*
X159689778Y10910408D01*
X159684707Y10908086D01*
X159679707Y10905582D01*
X159672939Y10903125D01*
X159631955Y10876254D01*
X159614596Y10864873D01*
X159610980Y10862591D01*
X159551302Y10826378D01*
X159547165Y10822723D01*
X159547160Y10822720D01*
X159543289Y10819300D01*
X159543272Y10819319D01*
X159540068Y10816477D01*
X159537485Y10814317D01*
X159531460Y10810367D01*
X159526506Y10805138D01*
X159526503Y10805135D01*
X159480552Y10756627D01*
X159478212Y10754223D01*
X158953036Y10229048D01*
X158891713Y10195563D01*
X158876594Y10193239D01*
X158837033Y10189638D01*
X158821032Y10188182D01*
X158642214Y10135552D01*
X158477023Y10049193D01*
X158472295Y10045392D01*
X158472294Y10045391D01*
X158342851Y9941316D01*
X158331752Y9932392D01*
X158211935Y9789599D01*
X158209016Y9784289D01*
X158130081Y9640707D01*
X158122135Y9626254D01*
X158120303Y9620479D01*
X158067723Y9454725D01*
X158065772Y9448576D01*
X158065096Y9442548D01*
X158047161Y9282650D01*
X158044994Y9263335D01*
X158060592Y9077586D01*
X158062261Y9071766D01*
X158062261Y9071765D01*
X158106445Y8917678D01*
X158111971Y8898405D01*
X158114743Y8893011D01*
X158114744Y8893009D01*
X158190116Y8746353D01*
X158197176Y8732615D01*
X158268196Y8643009D01*
X158296018Y8607907D01*
X158312959Y8586532D01*
X158353464Y8552060D01*
X158441897Y8476798D01*
X158454912Y8465721D01*
X158460210Y8462760D01*
X158492680Y8444613D01*
X158617627Y8374783D01*
X158623399Y8372908D01*
X158623398Y8372908D01*
X158780830Y8321755D01*
X158794907Y8317181D01*
X158800928Y8316463D01*
X158958882Y8297628D01*
X158983775Y8286978D01*
X158993888Y8293477D01*
X159019310Y8298135D01*
X159165851Y8309411D01*
X159252573Y8333624D01*
X159339547Y8357907D01*
X159339551Y8357909D01*
X159345387Y8359538D01*
X159511768Y8443583D01*
X159516547Y8447317D01*
X159516552Y8447320D01*
X159649238Y8550987D01*
X159658655Y8558344D01*
X159780454Y8699450D01*
X159844448Y8812100D01*
X159894675Y8860666D01*
X159963188Y8874368D01*
X160028233Y8848854D01*
X160069158Y8792224D01*
X160072970Y8722458D01*
X160070461Y8713360D01*
X160067606Y8704359D01*
X160065772Y8698576D01*
X160065096Y8692548D01*
X160048457Y8544206D01*
X160044994Y8513335D01*
X160060592Y8327586D01*
X160062261Y8321765D01*
X160062263Y8321755D01*
X160094687Y8208679D01*
X160094244Y8138811D01*
X160056097Y8080274D01*
X159992359Y8051653D01*
X159975491Y8050500D01*
X159028823Y8050500D01*
X158986700Y8062869D01*
X158964802Y8052223D01*
X158944200Y8050500D01*
X135044206Y8050500D01*
X135028020Y8051561D01*
X135008059Y8054189D01*
X135000000Y8055250D01*
X134997666Y8054943D01*
X134931260Y8075087D01*
X134922285Y8081084D01*
X134903495Y8096505D01*
X134596505Y8403495D01*
X134581084Y8422285D01*
X134575087Y8431260D01*
X134554943Y8497666D01*
X134555250Y8500000D01*
X134551561Y8528020D01*
X134550500Y8544206D01*
X134550500Y8590667D01*
X134570185Y8657706D01*
X134622989Y8703461D01*
X134692147Y8713405D01*
X134734992Y8698910D01*
X134867627Y8624783D01*
X134873399Y8622908D01*
X134873398Y8622908D01*
X135019772Y8575348D01*
X135044907Y8567181D01*
X135050928Y8566463D01*
X135137453Y8556145D01*
X135229998Y8545110D01*
X135236041Y8545575D01*
X135236043Y8545575D01*
X135306374Y8550987D01*
X135415851Y8559411D01*
X135498909Y8582601D01*
X135589547Y8607907D01*
X135589551Y8607909D01*
X135595387Y8609538D01*
X135761768Y8693583D01*
X135796338Y8720593D01*
X135861284Y8746353D01*
X135929849Y8732912D01*
X135945025Y8722704D01*
X135945310Y8723115D01*
X135950294Y8719652D01*
X135954912Y8715721D01*
X135960210Y8712760D01*
X136052498Y8661182D01*
X136117627Y8624783D01*
X136123399Y8622908D01*
X136123398Y8622908D01*
X136269772Y8575348D01*
X136294907Y8567181D01*
X136300928Y8566463D01*
X136387453Y8556145D01*
X136479998Y8545110D01*
X136486041Y8545575D01*
X136486043Y8545575D01*
X136556374Y8550987D01*
X136665851Y8559411D01*
X136748909Y8582601D01*
X136839547Y8607907D01*
X136839551Y8607909D01*
X136845387Y8609538D01*
X136933866Y8654232D01*
X136943861Y8659281D01*
X137012575Y8671937D01*
X137060263Y8656843D01*
X137117627Y8624783D01*
X137220717Y8591287D01*
X137269772Y8575348D01*
X137294907Y8567181D01*
X137300928Y8566463D01*
X137387453Y8556145D01*
X137479998Y8545110D01*
X137486041Y8545575D01*
X137486043Y8545575D01*
X137556374Y8550987D01*
X137665851Y8559411D01*
X137748909Y8582601D01*
X137839547Y8607907D01*
X137839551Y8607909D01*
X137845387Y8609538D01*
X137933866Y8654232D01*
X137943861Y8659281D01*
X138012575Y8671937D01*
X138060263Y8656843D01*
X138117627Y8624783D01*
X138220717Y8591287D01*
X138269772Y8575348D01*
X138294907Y8567181D01*
X138300928Y8566463D01*
X138387453Y8556145D01*
X138479998Y8545110D01*
X138486041Y8545575D01*
X138486043Y8545575D01*
X138556374Y8550987D01*
X138665851Y8559411D01*
X138748909Y8582601D01*
X138839547Y8607907D01*
X138839551Y8607909D01*
X138845387Y8609538D01*
X138933866Y8654232D01*
X138943861Y8659281D01*
X139012575Y8671937D01*
X139060263Y8656843D01*
X139117627Y8624783D01*
X139220717Y8591287D01*
X139269772Y8575348D01*
X139294907Y8567181D01*
X139300928Y8566463D01*
X139387453Y8556145D01*
X139479998Y8545110D01*
X139486041Y8545575D01*
X139486043Y8545575D01*
X139556374Y8550987D01*
X139665851Y8559411D01*
X139748909Y8582601D01*
X139839547Y8607907D01*
X139839551Y8607909D01*
X139845387Y8609538D01*
X139933866Y8654232D01*
X139943861Y8659281D01*
X140012575Y8671937D01*
X140060263Y8656843D01*
X140117627Y8624783D01*
X140220717Y8591287D01*
X140269772Y8575348D01*
X140294907Y8567181D01*
X140300928Y8566463D01*
X140387453Y8556145D01*
X140479998Y8545110D01*
X140486041Y8545575D01*
X140486043Y8545575D01*
X140556374Y8550987D01*
X140665851Y8559411D01*
X140748909Y8582601D01*
X140839547Y8607907D01*
X140839551Y8607909D01*
X140845387Y8609538D01*
X140933866Y8654232D01*
X140943861Y8659281D01*
X141012575Y8671937D01*
X141060263Y8656843D01*
X141117627Y8624783D01*
X141220717Y8591287D01*
X141269772Y8575348D01*
X141294907Y8567181D01*
X141300928Y8566463D01*
X141387453Y8556145D01*
X141479998Y8545110D01*
X141486041Y8545575D01*
X141486043Y8545575D01*
X141556374Y8550987D01*
X141665851Y8559411D01*
X141748909Y8582601D01*
X141839547Y8607907D01*
X141839551Y8607909D01*
X141845387Y8609538D01*
X142011768Y8693583D01*
X142016547Y8697317D01*
X142016552Y8697320D01*
X142125768Y8782650D01*
X142158655Y8808344D01*
X142280454Y8949450D01*
X142289698Y8965721D01*
X142369530Y9106252D01*
X142372526Y9111526D01*
X142431364Y9288399D01*
X142432248Y9295391D01*
X142451441Y9447320D01*
X142454727Y9473332D01*
X142454934Y9488181D01*
X142455051Y9496538D01*
X142455051Y9496543D01*
X142455099Y9500000D01*
X142450630Y9545575D01*
X142437501Y9679477D01*
X142437501Y9679479D01*
X142436909Y9685513D01*
X142413413Y9763335D01*
X144294994Y9763335D01*
X144310592Y9577586D01*
X144312261Y9571766D01*
X144312261Y9571765D01*
X144347094Y9450289D01*
X144361971Y9398405D01*
X144364743Y9393011D01*
X144364744Y9393009D01*
X144418740Y9287946D01*
X144447176Y9232615D01*
X144494430Y9172995D01*
X144553916Y9097942D01*
X144562959Y9086532D01*
X144585696Y9067181D01*
X144691897Y8976798D01*
X144704912Y8965721D01*
X144710210Y8962760D01*
X144744523Y8943583D01*
X144867627Y8874783D01*
X144914546Y8859538D01*
X144990094Y8834991D01*
X145044907Y8817181D01*
X145050928Y8816463D01*
X145137453Y8806145D01*
X145229998Y8795110D01*
X145236041Y8795575D01*
X145236043Y8795575D01*
X145294964Y8800109D01*
X145415851Y8809411D01*
X145507469Y8834991D01*
X145589547Y8857907D01*
X145589551Y8857909D01*
X145595387Y8859538D01*
X145761768Y8943583D01*
X145766547Y8947317D01*
X145766552Y8947320D01*
X145903875Y9054609D01*
X145903878Y9054611D01*
X145908655Y9058344D01*
X145912616Y9062933D01*
X145915802Y9065967D01*
X145977925Y9097942D01*
X146047474Y9091256D01*
X146081680Y9070599D01*
X146193242Y8975653D01*
X146204912Y8965721D01*
X146210210Y8962760D01*
X146244523Y8943583D01*
X146367627Y8874783D01*
X146414546Y8859538D01*
X146490094Y8834991D01*
X146544907Y8817181D01*
X146550928Y8816463D01*
X146637453Y8806145D01*
X146729998Y8795110D01*
X146736041Y8795575D01*
X146736043Y8795575D01*
X146794964Y8800109D01*
X146915851Y8809411D01*
X147007469Y8834991D01*
X147089547Y8857907D01*
X147089551Y8857909D01*
X147095387Y8859538D01*
X147261768Y8943583D01*
X147266547Y8947317D01*
X147266552Y8947320D01*
X147377866Y9034289D01*
X147408655Y9058344D01*
X147530454Y9199450D01*
X147539698Y9215721D01*
X147619530Y9356252D01*
X147622526Y9361526D01*
X147681364Y9538399D01*
X147684019Y9559411D01*
X147694758Y9644422D01*
X147704727Y9723332D01*
X147704945Y9738956D01*
X147705051Y9746538D01*
X147705051Y9746543D01*
X147705099Y9750000D01*
X147704384Y9757289D01*
X147687501Y9929477D01*
X147687501Y9929479D01*
X147686909Y9935513D01*
X147633033Y10113960D01*
X147623047Y10132742D01*
X147548371Y10273186D01*
X147548371Y10273187D01*
X147545522Y10278544D01*
X147465831Y10376254D01*
X147431545Y10418293D01*
X147431544Y10418294D01*
X147427710Y10422995D01*
X147386657Y10456957D01*
X147288760Y10537946D01*
X147288757Y10537948D01*
X147284085Y10541813D01*
X147176813Y10599815D01*
X147125447Y10627589D01*
X147125443Y10627591D01*
X147120116Y10630471D01*
X146942049Y10685591D01*
X146756668Y10705076D01*
X146750635Y10704527D01*
X146750631Y10704527D01*
X146577074Y10688732D01*
X146577073Y10688732D01*
X146571032Y10688182D01*
X146565213Y10686469D01*
X146565211Y10686469D01*
X146527080Y10675246D01*
X146392214Y10635552D01*
X146227023Y10549193D01*
X146222295Y10545392D01*
X146222294Y10545391D01*
X146197837Y10525727D01*
X146081752Y10432392D01*
X146081088Y10433217D01*
X146024579Y10403119D01*
X145954943Y10408827D01*
X145920440Y10429009D01*
X145919875Y10429477D01*
X145862674Y10476798D01*
X145788760Y10537946D01*
X145788757Y10537948D01*
X145784085Y10541813D01*
X145676813Y10599815D01*
X145625447Y10627589D01*
X145625443Y10627591D01*
X145620116Y10630471D01*
X145442049Y10685591D01*
X145256668Y10705076D01*
X145250635Y10704527D01*
X145250631Y10704527D01*
X145077074Y10688732D01*
X145077073Y10688732D01*
X145071032Y10688182D01*
X145065213Y10686469D01*
X145065211Y10686469D01*
X145027080Y10675246D01*
X144892214Y10635552D01*
X144727023Y10549193D01*
X144722295Y10545392D01*
X144722294Y10545391D01*
X144586478Y10436192D01*
X144581752Y10432392D01*
X144461935Y10289599D01*
X144428647Y10229048D01*
X144377247Y10135552D01*
X144372135Y10126254D01*
X144370303Y10120479D01*
X144317723Y9954725D01*
X144315772Y9948576D01*
X144311453Y9910068D01*
X144297161Y9782650D01*
X144294994Y9763335D01*
X142413413Y9763335D01*
X142383033Y9863960D01*
X142375787Y9877589D01*
X142298371Y10023186D01*
X142298371Y10023187D01*
X142295522Y10028544D01*
X142291690Y10033242D01*
X142291687Y10033247D01*
X142281896Y10045251D01*
X142254779Y10109644D01*
X142266780Y10178475D01*
X142276576Y10194957D01*
X142280454Y10199450D01*
X142309171Y10250000D01*
X142369530Y10356252D01*
X142372526Y10361526D01*
X142431364Y10538399D01*
X142432248Y10545391D01*
X142448652Y10675246D01*
X142454727Y10723332D01*
X142455099Y10750000D01*
X142450585Y10796038D01*
X142437501Y10929477D01*
X142437501Y10929479D01*
X142436909Y10935513D01*
X142383033Y11113960D01*
X142377279Y11124783D01*
X142298371Y11273186D01*
X142298371Y11273187D01*
X142295522Y11278544D01*
X142212392Y11380471D01*
X142181545Y11418293D01*
X142181544Y11418294D01*
X142177710Y11422995D01*
X142107527Y11481056D01*
X142038760Y11537946D01*
X142038757Y11537948D01*
X142034085Y11541813D01*
X141917416Y11604896D01*
X141875447Y11627589D01*
X141875443Y11627591D01*
X141870116Y11630471D01*
X141692049Y11685591D01*
X141506668Y11705076D01*
X141500635Y11704527D01*
X141500631Y11704527D01*
X141327074Y11688732D01*
X141327073Y11688732D01*
X141321032Y11688182D01*
X141315213Y11686469D01*
X141315211Y11686469D01*
X141282577Y11676864D01*
X141142214Y11635552D01*
X141057522Y11591277D01*
X140988993Y11577663D01*
X140941098Y11592091D01*
X140875447Y11627589D01*
X140875443Y11627591D01*
X140870116Y11630471D01*
X140692049Y11685591D01*
X140506668Y11705076D01*
X140500635Y11704527D01*
X140500631Y11704527D01*
X140327074Y11688732D01*
X140327073Y11688732D01*
X140321032Y11688182D01*
X140315213Y11686469D01*
X140315211Y11686469D01*
X140282577Y11676864D01*
X140142214Y11635552D01*
X140057522Y11591277D01*
X139988993Y11577663D01*
X139941098Y11592091D01*
X139875447Y11627589D01*
X139875443Y11627591D01*
X139870116Y11630471D01*
X139692049Y11685591D01*
X139506668Y11705076D01*
X139500635Y11704527D01*
X139500631Y11704527D01*
X139327074Y11688732D01*
X139327073Y11688732D01*
X139321032Y11688182D01*
X139315213Y11686469D01*
X139315211Y11686469D01*
X139282577Y11676864D01*
X139142214Y11635552D01*
X139057522Y11591277D01*
X138988993Y11577663D01*
X138941098Y11592091D01*
X138875447Y11627589D01*
X138875443Y11627591D01*
X138870116Y11630471D01*
X138692049Y11685591D01*
X138506668Y11705076D01*
X138500635Y11704527D01*
X138500631Y11704527D01*
X138327074Y11688732D01*
X138327073Y11688732D01*
X138321032Y11688182D01*
X138315213Y11686469D01*
X138315211Y11686469D01*
X138282577Y11676864D01*
X138142214Y11635552D01*
X138057522Y11591277D01*
X137988993Y11577663D01*
X137941098Y11592091D01*
X137875447Y11627589D01*
X137875443Y11627591D01*
X137870116Y11630471D01*
X137692049Y11685591D01*
X137506668Y11705076D01*
X137500635Y11704527D01*
X137500631Y11704527D01*
X137327074Y11688732D01*
X137327073Y11688732D01*
X137321032Y11688182D01*
X137315213Y11686469D01*
X137315211Y11686469D01*
X137282577Y11676864D01*
X137142214Y11635552D01*
X136977023Y11549193D01*
X136972295Y11545392D01*
X136972288Y11545387D01*
X136953470Y11530257D01*
X136888889Y11503591D01*
X136820144Y11516073D01*
X136796730Y11531353D01*
X136788762Y11537945D01*
X136788754Y11537950D01*
X136784085Y11541813D01*
X136717782Y11577663D01*
X136625447Y11627589D01*
X136625443Y11627591D01*
X136620116Y11630471D01*
X136442049Y11685591D01*
X136256668Y11705076D01*
X136250635Y11704527D01*
X136250631Y11704527D01*
X136077074Y11688732D01*
X136077073Y11688732D01*
X136071032Y11688182D01*
X136065213Y11686469D01*
X136065211Y11686469D01*
X136032577Y11676864D01*
X135892214Y11635552D01*
X135807522Y11591277D01*
X135738993Y11577663D01*
X135691098Y11592091D01*
X135625447Y11627589D01*
X135625443Y11627591D01*
X135620116Y11630471D01*
X135442049Y11685591D01*
X135256668Y11705076D01*
X135250635Y11704527D01*
X135250631Y11704527D01*
X135077074Y11688732D01*
X135077073Y11688732D01*
X135071032Y11688182D01*
X135065213Y11686469D01*
X135065211Y11686469D01*
X135032577Y11676864D01*
X134892214Y11635552D01*
X134731946Y11551767D01*
X134663418Y11538153D01*
X134598406Y11563751D01*
X134557553Y11620433D01*
X134550500Y11661657D01*
X134550500Y12994328D01*
X134571398Y13063219D01*
X134581084Y13077715D01*
X134596505Y13096505D01*
X134903495Y13403495D01*
X134922285Y13418916D01*
X134988951Y13463461D01*
X135033651Y13481976D01*
X135112284Y13497617D01*
X135136475Y13500000D01*
X137000000Y13500000D01*
X137232819Y13732819D01*
X137294142Y13766304D01*
X137363834Y13761320D01*
X137419767Y13719448D01*
X137444184Y13653984D01*
X137444500Y13645138D01*
X137444500Y13551362D01*
X137444588Y13549727D01*
X137444588Y13549713D01*
X137447593Y13493649D01*
X137447683Y13491977D01*
X137450517Y13465619D01*
X137461537Y13400192D01*
X137463701Y13394498D01*
X137463702Y13394495D01*
X137470635Y13376254D01*
X137515284Y13258781D01*
X137548769Y13197458D01*
X137551426Y13193908D01*
X137551429Y13193904D01*
X137595095Y13135573D01*
X137643521Y13070883D01*
X138070883Y12643521D01*
X138072119Y12642411D01*
X138072123Y12642407D01*
X138110532Y12607907D01*
X138115127Y12603780D01*
X138116418Y12602740D01*
X138116427Y12602732D01*
X138129495Y12592202D01*
X138135769Y12587146D01*
X138189819Y12548678D01*
X138195368Y12546185D01*
X138195372Y12546183D01*
X138323951Y12488424D01*
X138327816Y12486688D01*
X138394855Y12467003D01*
X138551362Y12444500D01*
X147224359Y12444500D01*
X147291398Y12424815D01*
X147337153Y12372011D01*
X147347097Y12302853D01*
X147342555Y12283006D01*
X147325151Y12228141D01*
X147315772Y12198576D01*
X147313957Y12182392D01*
X147297344Y12034283D01*
X147294994Y12013335D01*
X147310592Y11827586D01*
X147312261Y11821766D01*
X147312261Y11821765D01*
X147353811Y11676864D01*
X147361971Y11648405D01*
X147364743Y11643011D01*
X147364744Y11643009D01*
X147440021Y11496538D01*
X147447176Y11482615D01*
X147493367Y11424336D01*
X147558437Y11342238D01*
X147562959Y11336532D01*
X147704912Y11215721D01*
X147710210Y11212760D01*
X147848358Y11135552D01*
X147867627Y11124783D01*
X147873399Y11122908D01*
X147873398Y11122908D01*
X148038404Y11069294D01*
X148044907Y11067181D01*
X148050928Y11066463D01*
X148096381Y11061043D01*
X148229998Y11045110D01*
X148236041Y11045575D01*
X148236043Y11045575D01*
X148313080Y11051503D01*
X148415851Y11059411D01*
X148509342Y11085514D01*
X148589547Y11107907D01*
X148589551Y11107909D01*
X148595387Y11109538D01*
X148761768Y11193583D01*
X148766547Y11197317D01*
X148766552Y11197320D01*
X148876531Y11283246D01*
X148908655Y11308344D01*
X149030454Y11449450D01*
X149048410Y11481058D01*
X149098637Y11529624D01*
X149167150Y11543326D01*
X149232195Y11517812D01*
X149273120Y11461182D01*
X149279818Y11429860D01*
X149282643Y11395132D01*
X149283721Y11381873D01*
X149285939Y11375025D01*
X149287031Y11369561D01*
X149288318Y11364119D01*
X149289152Y11356963D01*
X149291609Y11350194D01*
X149291610Y11350190D01*
X149312950Y11291399D01*
X149314355Y11287306D01*
X149333637Y11227785D01*
X149333641Y11227775D01*
X149335858Y11220933D01*
X149339589Y11214784D01*
X149341906Y11209723D01*
X149344418Y11204708D01*
X149346875Y11197939D01*
X149375340Y11154524D01*
X149385127Y11139596D01*
X149387409Y11135980D01*
X149423622Y11076302D01*
X149427274Y11072167D01*
X149427277Y11072163D01*
X149430700Y11068288D01*
X149430681Y11068272D01*
X149433539Y11065049D01*
X149435682Y11062486D01*
X149439633Y11056460D01*
X149452531Y11044242D01*
X149493356Y11005568D01*
X149495760Y11003228D01*
X150045639Y10453349D01*
X150079124Y10392026D01*
X150081523Y10376044D01*
X150085592Y10327586D01*
X150087261Y10321766D01*
X150087261Y10321765D01*
X150128349Y10178475D01*
X150136971Y10148405D01*
X150139743Y10143011D01*
X150139744Y10143009D01*
X150215021Y9996538D01*
X150222176Y9982615D01*
X150337959Y9836532D01*
X150342578Y9832601D01*
X150466897Y9726798D01*
X150479912Y9715721D01*
X150485210Y9712760D01*
X150519523Y9693583D01*
X150642627Y9624783D01*
X150665728Y9617277D01*
X150771985Y9582752D01*
X150819907Y9567181D01*
X150825928Y9566463D01*
X150912453Y9556145D01*
X151004998Y9545110D01*
X151011041Y9545575D01*
X151011043Y9545575D01*
X151068482Y9549995D01*
X151190851Y9559411D01*
X151277609Y9583634D01*
X151364547Y9607907D01*
X151364551Y9607909D01*
X151370387Y9609538D01*
X151536768Y9693583D01*
X151541547Y9697317D01*
X151541552Y9697320D01*
X151652866Y9784289D01*
X151683655Y9808344D01*
X151805454Y9949450D01*
X151808652Y9955078D01*
X151841746Y10013335D01*
X153294994Y10013335D01*
X153310592Y9827586D01*
X153312261Y9821766D01*
X153312261Y9821765D01*
X153353811Y9676864D01*
X153361971Y9648405D01*
X153364743Y9643011D01*
X153364744Y9643009D01*
X153440021Y9496538D01*
X153447176Y9482615D01*
X153516361Y9395325D01*
X153546018Y9357907D01*
X153562959Y9336532D01*
X153585696Y9317181D01*
X153685062Y9232615D01*
X153704912Y9215721D01*
X153710210Y9212760D01*
X153862327Y9127745D01*
X153867627Y9124783D01*
X153873399Y9122908D01*
X153873398Y9122908D01*
X154034388Y9070599D01*
X154044907Y9067181D01*
X154050928Y9066463D01*
X154137452Y9056146D01*
X154229998Y9045110D01*
X154236041Y9045575D01*
X154236043Y9045575D01*
X154293482Y9049995D01*
X154415851Y9059411D01*
X154502573Y9083624D01*
X154589547Y9107907D01*
X154589551Y9107909D01*
X154595387Y9109538D01*
X154761768Y9193583D01*
X154766547Y9197317D01*
X154766552Y9197320D01*
X154875768Y9282650D01*
X154908655Y9308344D01*
X155030454Y9449450D01*
X155039698Y9465721D01*
X155119530Y9606252D01*
X155122526Y9611526D01*
X155181364Y9788399D01*
X155184464Y9812933D01*
X155201130Y9944860D01*
X155204727Y9973332D01*
X155205099Y10000000D01*
X155204384Y10007289D01*
X155187501Y10179477D01*
X155187501Y10179479D01*
X155186909Y10185513D01*
X155133033Y10363960D01*
X155091964Y10441200D01*
X155077871Y10509633D01*
X155093631Y10560662D01*
X155119532Y10606256D01*
X155122526Y10611526D01*
X155181364Y10788399D01*
X155183479Y10805135D01*
X155198368Y10922995D01*
X155204727Y10973332D01*
X155205099Y11000000D01*
X155204384Y11007289D01*
X155187501Y11179477D01*
X155187501Y11179479D01*
X155186909Y11185513D01*
X155133033Y11363960D01*
X155129988Y11369688D01*
X155048371Y11523186D01*
X155048371Y11523187D01*
X155045522Y11528544D01*
X154958248Y11635552D01*
X154931545Y11668293D01*
X154931544Y11668294D01*
X154927710Y11672995D01*
X154871312Y11719652D01*
X154788760Y11787946D01*
X154788757Y11787948D01*
X154784085Y11791813D01*
X154721760Y11825512D01*
X154625447Y11877589D01*
X154625443Y11877591D01*
X154620116Y11880471D01*
X154442049Y11935591D01*
X154256668Y11955076D01*
X154250635Y11954527D01*
X154250631Y11954527D01*
X154077074Y11938732D01*
X154077073Y11938732D01*
X154071032Y11938182D01*
X154065213Y11936469D01*
X154065211Y11936469D01*
X154008565Y11919797D01*
X153892214Y11885552D01*
X153727023Y11799193D01*
X153722295Y11795392D01*
X153722294Y11795391D01*
X153592851Y11691316D01*
X153581752Y11682392D01*
X153461935Y11539599D01*
X153447496Y11513335D01*
X153379170Y11389050D01*
X153372135Y11376254D01*
X153370303Y11370479D01*
X153319350Y11209854D01*
X153315772Y11198576D01*
X153313337Y11176864D01*
X153297755Y11037946D01*
X153294994Y11013335D01*
X153310592Y10827586D01*
X153312261Y10821766D01*
X153312261Y10821765D01*
X153354275Y10675246D01*
X153361971Y10648405D01*
X153409033Y10556832D01*
X153422169Y10488210D01*
X153407408Y10440415D01*
X153385449Y10400471D01*
X153372135Y10376254D01*
X153370303Y10370479D01*
X153322534Y10219891D01*
X153315772Y10198576D01*
X153313990Y10182689D01*
X153297161Y10032650D01*
X153294994Y10013335D01*
X151841746Y10013335D01*
X151894530Y10106252D01*
X151897526Y10111526D01*
X151956364Y10288399D01*
X151979727Y10473332D01*
X151980099Y10500000D01*
X151979384Y10507289D01*
X151962501Y10679477D01*
X151962501Y10679479D01*
X151961909Y10685513D01*
X151908033Y10863960D01*
X151889310Y10899174D01*
X151823371Y11023186D01*
X151823371Y11023187D01*
X151820522Y11028544D01*
X151732936Y11135934D01*
X151706545Y11168293D01*
X151706544Y11168294D01*
X151702710Y11172995D01*
X151646312Y11219652D01*
X151563760Y11287946D01*
X151563757Y11287948D01*
X151559085Y11291813D01*
X151493563Y11327241D01*
X151400447Y11377589D01*
X151400443Y11377591D01*
X151395116Y11380471D01*
X151217049Y11435591D01*
X151147152Y11442938D01*
X151082538Y11469523D01*
X151072434Y11478578D01*
X150761819Y11789193D01*
X150728334Y11850516D01*
X150725500Y11876874D01*
X150725500Y12435593D01*
X150726911Y12454243D01*
X150728911Y12467386D01*
X150728911Y12467390D01*
X150729994Y12474508D01*
X150725908Y12524743D01*
X150725500Y12534796D01*
X150725500Y12542363D01*
X150722359Y12569304D01*
X150721933Y12573612D01*
X150716863Y12635950D01*
X150716863Y12635952D01*
X150716279Y12643127D01*
X150714060Y12649976D01*
X150712969Y12655438D01*
X150711683Y12660880D01*
X150710848Y12668037D01*
X150687029Y12733657D01*
X150685636Y12737716D01*
X150667269Y12794413D01*
X150664141Y12804067D01*
X150660405Y12810223D01*
X150658077Y12815308D01*
X150655583Y12820289D01*
X150653125Y12827061D01*
X150630241Y12861965D01*
X150614863Y12885421D01*
X150612554Y12889080D01*
X150610170Y12893009D01*
X150576377Y12948698D01*
X150569300Y12956712D01*
X150569319Y12956728D01*
X150566470Y12959939D01*
X150564321Y12962509D01*
X150560367Y12968540D01*
X150506644Y13019432D01*
X150504240Y13021772D01*
X150089227Y13436785D01*
X150055742Y13498108D01*
X150054171Y13542116D01*
X150054870Y13546975D01*
X150054871Y13546985D01*
X150055500Y13551362D01*
X150055500Y16448638D01*
X150055381Y16450870D01*
X150052407Y16506351D01*
X150052406Y16506365D01*
X150052317Y16508023D01*
X150049483Y16534381D01*
X150038463Y16599808D01*
X150035788Y16606848D01*
X150009176Y16676864D01*
X149984716Y16741219D01*
X149958000Y16790146D01*
X149953358Y16798647D01*
X149953357Y16798649D01*
X149951231Y16802542D01*
X149932484Y16827586D01*
X149859138Y16925565D01*
X149856479Y16929117D01*
X148179117Y18606479D01*
X148175712Y18609538D01*
X148136110Y18645109D01*
X148136108Y18645111D01*
X148134873Y18646220D01*
X148133582Y18647260D01*
X148133573Y18647268D01*
X148115679Y18661687D01*
X148114231Y18662854D01*
X148060181Y18701322D01*
X148054632Y18703815D01*
X148054628Y18703817D01*
X147926049Y18761576D01*
X147926046Y18761577D01*
X147922184Y18763312D01*
X147855145Y18782997D01*
X147698638Y18805500D01*
X143551362Y18805500D01*
X143549727Y18805412D01*
X143549713Y18805412D01*
X143493649Y18802407D01*
X143493635Y18802406D01*
X143491977Y18802317D01*
X143490322Y18802139D01*
X143490309Y18802138D01*
X143476733Y18800678D01*
X143465619Y18799483D01*
X143413127Y18790642D01*
X143406937Y18789599D01*
X143400192Y18788463D01*
X143394498Y18786299D01*
X143394495Y18786298D01*
X143359997Y18773186D01*
X143258781Y18734716D01*
X143197458Y18701231D01*
X143193908Y18698574D01*
X143193904Y18698571D01*
X143078620Y18612271D01*
X143070883Y18606479D01*
X142306223Y17841819D01*
X142244900Y17808334D01*
X142218542Y17805500D01*
X139051362Y17805500D01*
X139049727Y17805412D01*
X139049713Y17805412D01*
X138993649Y17802407D01*
X138993635Y17802406D01*
X138991977Y17802317D01*
X138990322Y17802139D01*
X138990309Y17802138D01*
X138976733Y17800678D01*
X138965619Y17799483D01*
X138900192Y17788463D01*
X138894498Y17786299D01*
X138894495Y17786298D01*
X138860379Y17773331D01*
X138758781Y17734716D01*
X138755057Y17732683D01*
X138755058Y17732683D01*
X138703857Y17704725D01*
X138697458Y17701231D01*
X138693908Y17698574D01*
X138693904Y17698571D01*
X138592831Y17622909D01*
X138570883Y17606479D01*
X137711681Y16747277D01*
X137650358Y16713792D01*
X137580666Y16718776D01*
X137524733Y16760648D01*
X137500316Y16826112D01*
X137500000Y16834958D01*
X137500000Y20000000D01*
X137000000Y20500000D01*
X135136475Y20500000D01*
X135112284Y20502383D01*
X135033651Y20518024D01*
X134988951Y20536539D01*
X134922285Y20581084D01*
X134903495Y20596505D01*
X134596505Y20903495D01*
X134581084Y20922285D01*
X134571398Y20936781D01*
X134550500Y21005672D01*
X134550500Y25455794D01*
X134551561Y25471980D01*
X134554189Y25491941D01*
X134555250Y25500000D01*
X134554943Y25502334D01*
X134575087Y25568740D01*
X134581084Y25577715D01*
X134596505Y25596505D01*
X134903495Y25903495D01*
X134922285Y25918916D01*
X134931260Y25924913D01*
X134997666Y25945057D01*
X135000000Y25944750D01*
X135028020Y25948439D01*
X135044206Y25949500D01*
X138302939Y25949500D01*
X138369978Y25929815D01*
G37*
%TD.AperFunction*%
%TD*%
M02*
