%TF.GenerationSoftware,KiCad,Pcbnew,(6.0.5)*%
%TF.CreationDate,2022-06-29T17:31:44+12:00*%
%TF.ProjectId,OpenEFCS_electronics,4f70656e-4546-4435-935f-656c65637472,rev?*%
%TF.SameCoordinates,Original*%
%TF.FileFunction,Legend,Bot*%
%TF.FilePolarity,Positive*%
%FSLAX46Y46*%
G04 Gerber Fmt 4.6, Leading zero omitted, Abs format (unit mm)*
G04 Created by KiCad (PCBNEW (6.0.5)) date 2022-06-29 17:31:44*
%MOMM*%
%LPD*%
G01*
G04 APERTURE LIST*
G04 Aperture macros list*
%AMRoundRect*
0 Rectangle with rounded corners*
0 $1 Rounding radius*
0 $2 $3 $4 $5 $6 $7 $8 $9 X,Y pos of 4 corners*
0 Add a 4 corners polygon primitive as box body*
4,1,4,$2,$3,$4,$5,$6,$7,$8,$9,$2,$3,0*
0 Add four circle primitives for the rounded corners*
1,1,$1+$1,$2,$3*
1,1,$1+$1,$4,$5*
1,1,$1+$1,$6,$7*
1,1,$1+$1,$8,$9*
0 Add four rect primitives between the rounded corners*
20,1,$1+$1,$2,$3,$4,$5,0*
20,1,$1+$1,$4,$5,$6,$7,0*
20,1,$1+$1,$6,$7,$8,$9,0*
20,1,$1+$1,$8,$9,$2,$3,0*%
%AMFreePoly0*
4,1,17,2.675000,1.605000,1.875000,1.605000,1.875000,0.935000,2.675000,0.935000,2.675000,0.335000,1.875000,0.335000,1.875000,-0.335000,2.675000,-0.335000,2.675000,-0.935000,1.875000,-0.935000,1.875000,-1.605000,2.675000,-1.605000,2.675000,-2.205000,-1.875000,-2.205000,-1.875000,2.205000,2.675000,2.205000,2.675000,1.605000,2.675000,1.605000,$1*%
G04 Aperture macros list end*
%ADD10C,0.150000*%
%ADD11C,0.120000*%
%ADD12RoundRect,0.062500X0.300000X0.062500X-0.300000X0.062500X-0.300000X-0.062500X0.300000X-0.062500X0*%
%ADD13R,0.900000X1.600000*%
%ADD14R,1.700000X1.700000*%
%ADD15O,1.700000X1.700000*%
%ADD16RoundRect,0.140000X-0.170000X0.140000X-0.170000X-0.140000X0.170000X-0.140000X0.170000X0.140000X0*%
%ADD17RoundRect,0.135000X0.135000X0.185000X-0.135000X0.185000X-0.135000X-0.185000X0.135000X-0.185000X0*%
%ADD18RoundRect,0.250000X0.625000X-0.312500X0.625000X0.312500X-0.625000X0.312500X-0.625000X-0.312500X0*%
%ADD19RoundRect,0.225000X0.250000X-0.225000X0.250000X0.225000X-0.250000X0.225000X-0.250000X-0.225000X0*%
%ADD20RoundRect,0.135000X0.185000X-0.135000X0.185000X0.135000X-0.185000X0.135000X-0.185000X-0.135000X0*%
%ADD21RoundRect,0.200000X-0.200000X-0.275000X0.200000X-0.275000X0.200000X0.275000X-0.200000X0.275000X0*%
%ADD22RoundRect,0.200000X0.200000X0.275000X-0.200000X0.275000X-0.200000X-0.275000X0.200000X-0.275000X0*%
%ADD23R,0.900000X1.200000*%
%ADD24RoundRect,0.225000X-0.250000X0.225000X-0.250000X-0.225000X0.250000X-0.225000X0.250000X0.225000X0*%
%ADD25RoundRect,0.140000X0.170000X-0.140000X0.170000X0.140000X-0.170000X0.140000X-0.170000X-0.140000X0*%
%ADD26RoundRect,0.150000X-0.825000X-0.150000X0.825000X-0.150000X0.825000X0.150000X-0.825000X0.150000X0*%
%ADD27RoundRect,0.150000X-0.512500X-0.150000X0.512500X-0.150000X0.512500X0.150000X-0.512500X0.150000X0*%
%ADD28RoundRect,0.218750X0.256250X-0.218750X0.256250X0.218750X-0.256250X0.218750X-0.256250X-0.218750X0*%
%ADD29FreePoly0,90.000000*%
%ADD30R,0.500000X0.850000*%
%ADD31RoundRect,0.135000X-0.135000X-0.185000X0.135000X-0.185000X0.135000X0.185000X-0.135000X0.185000X0*%
%ADD32RoundRect,0.140000X-0.140000X-0.170000X0.140000X-0.170000X0.140000X0.170000X-0.140000X0.170000X0*%
%ADD33RoundRect,0.218750X0.218750X0.381250X-0.218750X0.381250X-0.218750X-0.381250X0.218750X-0.381250X0*%
%ADD34RoundRect,0.125000X-0.625000X-0.125000X0.625000X-0.125000X0.625000X0.125000X-0.625000X0.125000X0*%
%ADD35RoundRect,0.125000X-0.125000X-0.625000X0.125000X-0.625000X0.125000X0.625000X-0.125000X0.625000X0*%
%ADD36R,1.200000X0.900000*%
%ADD37R,1.200000X1.400000*%
%ADD38RoundRect,0.135000X-0.185000X0.135000X-0.185000X-0.135000X0.185000X-0.135000X0.185000X0.135000X0*%
%ADD39FreePoly0,0.000000*%
%ADD40R,0.850000X0.500000*%
%ADD41RoundRect,0.150000X0.587500X0.150000X-0.587500X0.150000X-0.587500X-0.150000X0.587500X-0.150000X0*%
%ADD42R,2.000000X1.500000*%
%ADD43R,2.000000X3.800000*%
%ADD44RoundRect,0.375000X-0.625000X-0.375000X0.625000X-0.375000X0.625000X0.375000X-0.625000X0.375000X0*%
G04 APERTURE END LIST*
D10*
%TO.C,U5*%
X92261904Y-102002380D02*
X92261904Y-102811904D01*
X92214285Y-102907142D01*
X92166666Y-102954761D01*
X92071428Y-103002380D01*
X91880952Y-103002380D01*
X91785714Y-102954761D01*
X91738095Y-102907142D01*
X91690476Y-102811904D01*
X91690476Y-102002380D01*
X90738095Y-102002380D02*
X91214285Y-102002380D01*
X91261904Y-102478571D01*
X91214285Y-102430952D01*
X91119047Y-102383333D01*
X90880952Y-102383333D01*
X90785714Y-102430952D01*
X90738095Y-102478571D01*
X90690476Y-102573809D01*
X90690476Y-102811904D01*
X90738095Y-102907142D01*
X90785714Y-102954761D01*
X90880952Y-103002380D01*
X91119047Y-103002380D01*
X91214285Y-102954761D01*
X91261904Y-102907142D01*
D11*
%TO.C,C8*%
X51714285Y-96400000D02*
X51742857Y-96371428D01*
X51771428Y-96285714D01*
X51771428Y-96228571D01*
X51742857Y-96142857D01*
X51685714Y-96085714D01*
X51628571Y-96057142D01*
X51514285Y-96028571D01*
X51428571Y-96028571D01*
X51314285Y-96057142D01*
X51257142Y-96085714D01*
X51200000Y-96142857D01*
X51171428Y-96228571D01*
X51171428Y-96285714D01*
X51200000Y-96371428D01*
X51228571Y-96400000D01*
X51428571Y-96742857D02*
X51400000Y-96685714D01*
X51371428Y-96657142D01*
X51314285Y-96628571D01*
X51285714Y-96628571D01*
X51228571Y-96657142D01*
X51200000Y-96685714D01*
X51171428Y-96742857D01*
X51171428Y-96857142D01*
X51200000Y-96914285D01*
X51228571Y-96942857D01*
X51285714Y-96971428D01*
X51314285Y-96971428D01*
X51371428Y-96942857D01*
X51400000Y-96914285D01*
X51428571Y-96857142D01*
X51428571Y-96742857D01*
X51457142Y-96685714D01*
X51485714Y-96657142D01*
X51542857Y-96628571D01*
X51657142Y-96628571D01*
X51714285Y-96657142D01*
X51742857Y-96685714D01*
X51771428Y-96742857D01*
X51771428Y-96857142D01*
X51742857Y-96914285D01*
X51714285Y-96942857D01*
X51657142Y-96971428D01*
X51542857Y-96971428D01*
X51485714Y-96942857D01*
X51457142Y-96914285D01*
X51428571Y-96857142D01*
%TO.C,R12*%
X66885714Y-92271428D02*
X67085714Y-91985714D01*
X67228571Y-92271428D02*
X67228571Y-91671428D01*
X67000000Y-91671428D01*
X66942857Y-91700000D01*
X66914285Y-91728571D01*
X66885714Y-91785714D01*
X66885714Y-91871428D01*
X66914285Y-91928571D01*
X66942857Y-91957142D01*
X67000000Y-91985714D01*
X67228571Y-91985714D01*
X66314285Y-92271428D02*
X66657142Y-92271428D01*
X66485714Y-92271428D02*
X66485714Y-91671428D01*
X66542857Y-91757142D01*
X66600000Y-91814285D01*
X66657142Y-91842857D01*
X66085714Y-91728571D02*
X66057142Y-91700000D01*
X66000000Y-91671428D01*
X65857142Y-91671428D01*
X65800000Y-91700000D01*
X65771428Y-91728571D01*
X65742857Y-91785714D01*
X65742857Y-91842857D01*
X65771428Y-91928571D01*
X66114285Y-92271428D01*
X65742857Y-92271428D01*
%TO.C,Ris2*%
X95485714Y-104271428D02*
X95685714Y-103985714D01*
X95828571Y-104271428D02*
X95828571Y-103671428D01*
X95600000Y-103671428D01*
X95542857Y-103700000D01*
X95514285Y-103728571D01*
X95485714Y-103785714D01*
X95485714Y-103871428D01*
X95514285Y-103928571D01*
X95542857Y-103957142D01*
X95600000Y-103985714D01*
X95828571Y-103985714D01*
X95228571Y-104271428D02*
X95228571Y-103871428D01*
X95228571Y-103671428D02*
X95257142Y-103700000D01*
X95228571Y-103728571D01*
X95200000Y-103700000D01*
X95228571Y-103671428D01*
X95228571Y-103728571D01*
X94971428Y-104242857D02*
X94914285Y-104271428D01*
X94800000Y-104271428D01*
X94742857Y-104242857D01*
X94714285Y-104185714D01*
X94714285Y-104157142D01*
X94742857Y-104100000D01*
X94800000Y-104071428D01*
X94885714Y-104071428D01*
X94942857Y-104042857D01*
X94971428Y-103985714D01*
X94971428Y-103957142D01*
X94942857Y-103900000D01*
X94885714Y-103871428D01*
X94800000Y-103871428D01*
X94742857Y-103900000D01*
X94485714Y-103728571D02*
X94457142Y-103700000D01*
X94400000Y-103671428D01*
X94257142Y-103671428D01*
X94200000Y-103700000D01*
X94171428Y-103728571D01*
X94142857Y-103785714D01*
X94142857Y-103842857D01*
X94171428Y-103928571D01*
X94514285Y-104271428D01*
X94142857Y-104271428D01*
%TO.C,C4*%
X82214285Y-93900000D02*
X82242857Y-93871428D01*
X82271428Y-93785714D01*
X82271428Y-93728571D01*
X82242857Y-93642857D01*
X82185714Y-93585714D01*
X82128571Y-93557142D01*
X82014285Y-93528571D01*
X81928571Y-93528571D01*
X81814285Y-93557142D01*
X81757142Y-93585714D01*
X81700000Y-93642857D01*
X81671428Y-93728571D01*
X81671428Y-93785714D01*
X81700000Y-93871428D01*
X81728571Y-93900000D01*
X81871428Y-94414285D02*
X82271428Y-94414285D01*
X81642857Y-94271428D02*
X82071428Y-94128571D01*
X82071428Y-94500000D01*
%TO.C,R20*%
X64521428Y-92614285D02*
X64235714Y-92414285D01*
X64521428Y-92271428D02*
X63921428Y-92271428D01*
X63921428Y-92500000D01*
X63950000Y-92557142D01*
X63978571Y-92585714D01*
X64035714Y-92614285D01*
X64121428Y-92614285D01*
X64178571Y-92585714D01*
X64207142Y-92557142D01*
X64235714Y-92500000D01*
X64235714Y-92271428D01*
X63978571Y-92842857D02*
X63950000Y-92871428D01*
X63921428Y-92928571D01*
X63921428Y-93071428D01*
X63950000Y-93128571D01*
X63978571Y-93157142D01*
X64035714Y-93185714D01*
X64092857Y-93185714D01*
X64178571Y-93157142D01*
X64521428Y-92814285D01*
X64521428Y-93185714D01*
X63921428Y-93557142D02*
X63921428Y-93614285D01*
X63950000Y-93671428D01*
X63978571Y-93700000D01*
X64035714Y-93728571D01*
X64150000Y-93757142D01*
X64292857Y-93757142D01*
X64407142Y-93728571D01*
X64464285Y-93700000D01*
X64492857Y-93671428D01*
X64521428Y-93614285D01*
X64521428Y-93557142D01*
X64492857Y-93500000D01*
X64464285Y-93471428D01*
X64407142Y-93442857D01*
X64292857Y-93414285D01*
X64150000Y-93414285D01*
X64035714Y-93442857D01*
X63978571Y-93471428D01*
X63950000Y-93500000D01*
X63921428Y-93557142D01*
%TO.C,R4*%
X70600000Y-91521428D02*
X70800000Y-91235714D01*
X70942857Y-91521428D02*
X70942857Y-90921428D01*
X70714285Y-90921428D01*
X70657142Y-90950000D01*
X70628571Y-90978571D01*
X70600000Y-91035714D01*
X70600000Y-91121428D01*
X70628571Y-91178571D01*
X70657142Y-91207142D01*
X70714285Y-91235714D01*
X70942857Y-91235714D01*
X70085714Y-91121428D02*
X70085714Y-91521428D01*
X70228571Y-90892857D02*
X70371428Y-91321428D01*
X70000000Y-91321428D01*
%TO.C,R15*%
X88385714Y-101771428D02*
X88585714Y-101485714D01*
X88728571Y-101771428D02*
X88728571Y-101171428D01*
X88500000Y-101171428D01*
X88442857Y-101200000D01*
X88414285Y-101228571D01*
X88385714Y-101285714D01*
X88385714Y-101371428D01*
X88414285Y-101428571D01*
X88442857Y-101457142D01*
X88500000Y-101485714D01*
X88728571Y-101485714D01*
X87814285Y-101771428D02*
X88157142Y-101771428D01*
X87985714Y-101771428D02*
X87985714Y-101171428D01*
X88042857Y-101257142D01*
X88100000Y-101314285D01*
X88157142Y-101342857D01*
X87271428Y-101171428D02*
X87557142Y-101171428D01*
X87585714Y-101457142D01*
X87557142Y-101428571D01*
X87500000Y-101400000D01*
X87357142Y-101400000D01*
X87300000Y-101428571D01*
X87271428Y-101457142D01*
X87242857Y-101514285D01*
X87242857Y-101657142D01*
X87271428Y-101714285D01*
X87300000Y-101742857D01*
X87357142Y-101771428D01*
X87500000Y-101771428D01*
X87557142Y-101742857D01*
X87585714Y-101714285D01*
%TO.C,D4*%
X84692857Y-99771428D02*
X84692857Y-99171428D01*
X84550000Y-99171428D01*
X84464285Y-99200000D01*
X84407142Y-99257142D01*
X84378571Y-99314285D01*
X84350000Y-99428571D01*
X84350000Y-99514285D01*
X84378571Y-99628571D01*
X84407142Y-99685714D01*
X84464285Y-99742857D01*
X84550000Y-99771428D01*
X84692857Y-99771428D01*
X83835714Y-99371428D02*
X83835714Y-99771428D01*
X83978571Y-99142857D02*
X84121428Y-99571428D01*
X83750000Y-99571428D01*
%TO.C,R1*%
X86100000Y-105771428D02*
X86300000Y-105485714D01*
X86442857Y-105771428D02*
X86442857Y-105171428D01*
X86214285Y-105171428D01*
X86157142Y-105200000D01*
X86128571Y-105228571D01*
X86100000Y-105285714D01*
X86100000Y-105371428D01*
X86128571Y-105428571D01*
X86157142Y-105457142D01*
X86214285Y-105485714D01*
X86442857Y-105485714D01*
X85528571Y-105771428D02*
X85871428Y-105771428D01*
X85700000Y-105771428D02*
X85700000Y-105171428D01*
X85757142Y-105257142D01*
X85814285Y-105314285D01*
X85871428Y-105342857D01*
%TO.C,C5*%
X70214285Y-94400000D02*
X70242857Y-94371428D01*
X70271428Y-94285714D01*
X70271428Y-94228571D01*
X70242857Y-94142857D01*
X70185714Y-94085714D01*
X70128571Y-94057142D01*
X70014285Y-94028571D01*
X69928571Y-94028571D01*
X69814285Y-94057142D01*
X69757142Y-94085714D01*
X69700000Y-94142857D01*
X69671428Y-94228571D01*
X69671428Y-94285714D01*
X69700000Y-94371428D01*
X69728571Y-94400000D01*
X69671428Y-94942857D02*
X69671428Y-94657142D01*
X69957142Y-94628571D01*
X69928571Y-94657142D01*
X69900000Y-94714285D01*
X69900000Y-94857142D01*
X69928571Y-94914285D01*
X69957142Y-94942857D01*
X70014285Y-94971428D01*
X70157142Y-94971428D01*
X70214285Y-94942857D01*
X70242857Y-94914285D01*
X70271428Y-94857142D01*
X70271428Y-94714285D01*
X70242857Y-94657142D01*
X70214285Y-94628571D01*
%TO.C,C10*%
X69214285Y-98364285D02*
X69242857Y-98335714D01*
X69271428Y-98250000D01*
X69271428Y-98192857D01*
X69242857Y-98107142D01*
X69185714Y-98050000D01*
X69128571Y-98021428D01*
X69014285Y-97992857D01*
X68928571Y-97992857D01*
X68814285Y-98021428D01*
X68757142Y-98050000D01*
X68700000Y-98107142D01*
X68671428Y-98192857D01*
X68671428Y-98250000D01*
X68700000Y-98335714D01*
X68728571Y-98364285D01*
X69271428Y-98935714D02*
X69271428Y-98592857D01*
X69271428Y-98764285D02*
X68671428Y-98764285D01*
X68757142Y-98707142D01*
X68814285Y-98650000D01*
X68842857Y-98592857D01*
X68671428Y-99307142D02*
X68671428Y-99364285D01*
X68700000Y-99421428D01*
X68728571Y-99450000D01*
X68785714Y-99478571D01*
X68900000Y-99507142D01*
X69042857Y-99507142D01*
X69157142Y-99478571D01*
X69214285Y-99450000D01*
X69242857Y-99421428D01*
X69271428Y-99364285D01*
X69271428Y-99307142D01*
X69242857Y-99250000D01*
X69214285Y-99221428D01*
X69157142Y-99192857D01*
X69042857Y-99164285D01*
X68900000Y-99164285D01*
X68785714Y-99192857D01*
X68728571Y-99221428D01*
X68700000Y-99250000D01*
X68671428Y-99307142D01*
%TO.C,U4*%
X87457142Y-93671428D02*
X87457142Y-94157142D01*
X87428571Y-94214285D01*
X87400000Y-94242857D01*
X87342857Y-94271428D01*
X87228571Y-94271428D01*
X87171428Y-94242857D01*
X87142857Y-94214285D01*
X87114285Y-94157142D01*
X87114285Y-93671428D01*
X86571428Y-93871428D02*
X86571428Y-94271428D01*
X86714285Y-93642857D02*
X86857142Y-94071428D01*
X86485714Y-94071428D01*
%TO.C,U3*%
X77957142Y-101671428D02*
X77957142Y-102157142D01*
X77928571Y-102214285D01*
X77900000Y-102242857D01*
X77842857Y-102271428D01*
X77728571Y-102271428D01*
X77671428Y-102242857D01*
X77642857Y-102214285D01*
X77614285Y-102157142D01*
X77614285Y-101671428D01*
X77385714Y-101671428D02*
X77014285Y-101671428D01*
X77214285Y-101900000D01*
X77128571Y-101900000D01*
X77071428Y-101928571D01*
X77042857Y-101957142D01*
X77014285Y-102014285D01*
X77014285Y-102157142D01*
X77042857Y-102214285D01*
X77071428Y-102242857D01*
X77128571Y-102271428D01*
X77300000Y-102271428D01*
X77357142Y-102242857D01*
X77385714Y-102214285D01*
%TO.C,D3*%
X67942857Y-98271428D02*
X67942857Y-97671428D01*
X67800000Y-97671428D01*
X67714285Y-97700000D01*
X67657142Y-97757142D01*
X67628571Y-97814285D01*
X67600000Y-97928571D01*
X67600000Y-98014285D01*
X67628571Y-98128571D01*
X67657142Y-98185714D01*
X67714285Y-98242857D01*
X67800000Y-98271428D01*
X67942857Y-98271428D01*
X67400000Y-97671428D02*
X67028571Y-97671428D01*
X67228571Y-97900000D01*
X67142857Y-97900000D01*
X67085714Y-97928571D01*
X67057142Y-97957142D01*
X67028571Y-98014285D01*
X67028571Y-98157142D01*
X67057142Y-98214285D01*
X67085714Y-98242857D01*
X67142857Y-98271428D01*
X67314285Y-98271428D01*
X67371428Y-98242857D01*
X67400000Y-98214285D01*
D10*
%TO.C,Q2*%
X112547619Y-92154761D02*
X112500000Y-92059523D01*
X112404761Y-91964285D01*
X112261904Y-91821428D01*
X112214285Y-91726190D01*
X112214285Y-91630952D01*
X112452380Y-91678571D02*
X112404761Y-91583333D01*
X112309523Y-91488095D01*
X112119047Y-91440476D01*
X111785714Y-91440476D01*
X111595238Y-91488095D01*
X111500000Y-91583333D01*
X111452380Y-91678571D01*
X111452380Y-91869047D01*
X111500000Y-91964285D01*
X111595238Y-92059523D01*
X111785714Y-92107142D01*
X112119047Y-92107142D01*
X112309523Y-92059523D01*
X112404761Y-91964285D01*
X112452380Y-91869047D01*
X112452380Y-91678571D01*
X111547619Y-92488095D02*
X111500000Y-92535714D01*
X111452380Y-92630952D01*
X111452380Y-92869047D01*
X111500000Y-92964285D01*
X111547619Y-93011904D01*
X111642857Y-93059523D01*
X111738095Y-93059523D01*
X111880952Y-93011904D01*
X112452380Y-92440476D01*
X112452380Y-93059523D01*
D11*
%TO.C,R18*%
X88885714Y-103271428D02*
X89085714Y-102985714D01*
X89228571Y-103271428D02*
X89228571Y-102671428D01*
X89000000Y-102671428D01*
X88942857Y-102700000D01*
X88914285Y-102728571D01*
X88885714Y-102785714D01*
X88885714Y-102871428D01*
X88914285Y-102928571D01*
X88942857Y-102957142D01*
X89000000Y-102985714D01*
X89228571Y-102985714D01*
X88314285Y-103271428D02*
X88657142Y-103271428D01*
X88485714Y-103271428D02*
X88485714Y-102671428D01*
X88542857Y-102757142D01*
X88600000Y-102814285D01*
X88657142Y-102842857D01*
X87971428Y-102928571D02*
X88028571Y-102900000D01*
X88057142Y-102871428D01*
X88085714Y-102814285D01*
X88085714Y-102785714D01*
X88057142Y-102728571D01*
X88028571Y-102700000D01*
X87971428Y-102671428D01*
X87857142Y-102671428D01*
X87800000Y-102700000D01*
X87771428Y-102728571D01*
X87742857Y-102785714D01*
X87742857Y-102814285D01*
X87771428Y-102871428D01*
X87800000Y-102900000D01*
X87857142Y-102928571D01*
X87971428Y-102928571D01*
X88028571Y-102957142D01*
X88057142Y-102985714D01*
X88085714Y-103042857D01*
X88085714Y-103157142D01*
X88057142Y-103214285D01*
X88028571Y-103242857D01*
X87971428Y-103271428D01*
X87857142Y-103271428D01*
X87800000Y-103242857D01*
X87771428Y-103214285D01*
X87742857Y-103157142D01*
X87742857Y-103042857D01*
X87771428Y-102985714D01*
X87800000Y-102957142D01*
X87857142Y-102928571D01*
%TO.C,C7*%
X80600000Y-102214285D02*
X80628571Y-102242857D01*
X80714285Y-102271428D01*
X80771428Y-102271428D01*
X80857142Y-102242857D01*
X80914285Y-102185714D01*
X80942857Y-102128571D01*
X80971428Y-102014285D01*
X80971428Y-101928571D01*
X80942857Y-101814285D01*
X80914285Y-101757142D01*
X80857142Y-101700000D01*
X80771428Y-101671428D01*
X80714285Y-101671428D01*
X80628571Y-101700000D01*
X80600000Y-101728571D01*
X80400000Y-101671428D02*
X80000000Y-101671428D01*
X80257142Y-102271428D01*
%TO.C,R9*%
X55521428Y-106400000D02*
X55235714Y-106200000D01*
X55521428Y-106057142D02*
X54921428Y-106057142D01*
X54921428Y-106285714D01*
X54950000Y-106342857D01*
X54978571Y-106371428D01*
X55035714Y-106400000D01*
X55121428Y-106400000D01*
X55178571Y-106371428D01*
X55207142Y-106342857D01*
X55235714Y-106285714D01*
X55235714Y-106057142D01*
X55521428Y-106685714D02*
X55521428Y-106800000D01*
X55492857Y-106857142D01*
X55464285Y-106885714D01*
X55378571Y-106942857D01*
X55264285Y-106971428D01*
X55035714Y-106971428D01*
X54978571Y-106942857D01*
X54950000Y-106914285D01*
X54921428Y-106857142D01*
X54921428Y-106742857D01*
X54950000Y-106685714D01*
X54978571Y-106657142D01*
X55035714Y-106628571D01*
X55178571Y-106628571D01*
X55235714Y-106657142D01*
X55264285Y-106685714D01*
X55292857Y-106742857D01*
X55292857Y-106857142D01*
X55264285Y-106914285D01*
X55235714Y-106942857D01*
X55178571Y-106971428D01*
%TO.C,C11*%
X62464285Y-94614285D02*
X62492857Y-94585714D01*
X62521428Y-94500000D01*
X62521428Y-94442857D01*
X62492857Y-94357142D01*
X62435714Y-94300000D01*
X62378571Y-94271428D01*
X62264285Y-94242857D01*
X62178571Y-94242857D01*
X62064285Y-94271428D01*
X62007142Y-94300000D01*
X61950000Y-94357142D01*
X61921428Y-94442857D01*
X61921428Y-94500000D01*
X61950000Y-94585714D01*
X61978571Y-94614285D01*
X62521428Y-95185714D02*
X62521428Y-94842857D01*
X62521428Y-95014285D02*
X61921428Y-95014285D01*
X62007142Y-94957142D01*
X62064285Y-94900000D01*
X62092857Y-94842857D01*
X62521428Y-95757142D02*
X62521428Y-95414285D01*
X62521428Y-95585714D02*
X61921428Y-95585714D01*
X62007142Y-95528571D01*
X62064285Y-95471428D01*
X62092857Y-95414285D01*
%TO.C,C14*%
X83714285Y-94364285D02*
X83742857Y-94335714D01*
X83771428Y-94250000D01*
X83771428Y-94192857D01*
X83742857Y-94107142D01*
X83685714Y-94050000D01*
X83628571Y-94021428D01*
X83514285Y-93992857D01*
X83428571Y-93992857D01*
X83314285Y-94021428D01*
X83257142Y-94050000D01*
X83200000Y-94107142D01*
X83171428Y-94192857D01*
X83171428Y-94250000D01*
X83200000Y-94335714D01*
X83228571Y-94364285D01*
X83771428Y-94935714D02*
X83771428Y-94592857D01*
X83771428Y-94764285D02*
X83171428Y-94764285D01*
X83257142Y-94707142D01*
X83314285Y-94650000D01*
X83342857Y-94592857D01*
X83371428Y-95450000D02*
X83771428Y-95450000D01*
X83142857Y-95307142D02*
X83571428Y-95164285D01*
X83571428Y-95535714D01*
%TO.C,R8*%
X82521428Y-96150000D02*
X82235714Y-95950000D01*
X82521428Y-95807142D02*
X81921428Y-95807142D01*
X81921428Y-96035714D01*
X81950000Y-96092857D01*
X81978571Y-96121428D01*
X82035714Y-96150000D01*
X82121428Y-96150000D01*
X82178571Y-96121428D01*
X82207142Y-96092857D01*
X82235714Y-96035714D01*
X82235714Y-95807142D01*
X82178571Y-96492857D02*
X82150000Y-96435714D01*
X82121428Y-96407142D01*
X82064285Y-96378571D01*
X82035714Y-96378571D01*
X81978571Y-96407142D01*
X81950000Y-96435714D01*
X81921428Y-96492857D01*
X81921428Y-96607142D01*
X81950000Y-96664285D01*
X81978571Y-96692857D01*
X82035714Y-96721428D01*
X82064285Y-96721428D01*
X82121428Y-96692857D01*
X82150000Y-96664285D01*
X82178571Y-96607142D01*
X82178571Y-96492857D01*
X82207142Y-96435714D01*
X82235714Y-96407142D01*
X82292857Y-96378571D01*
X82407142Y-96378571D01*
X82464285Y-96407142D01*
X82492857Y-96435714D01*
X82521428Y-96492857D01*
X82521428Y-96607142D01*
X82492857Y-96664285D01*
X82464285Y-96692857D01*
X82407142Y-96721428D01*
X82292857Y-96721428D01*
X82235714Y-96692857D01*
X82207142Y-96664285D01*
X82178571Y-96607142D01*
%TO.C,C17*%
X62885714Y-91964285D02*
X62914285Y-91992857D01*
X63000000Y-92021428D01*
X63057142Y-92021428D01*
X63142857Y-91992857D01*
X63200000Y-91935714D01*
X63228571Y-91878571D01*
X63257142Y-91764285D01*
X63257142Y-91678571D01*
X63228571Y-91564285D01*
X63200000Y-91507142D01*
X63142857Y-91450000D01*
X63057142Y-91421428D01*
X63000000Y-91421428D01*
X62914285Y-91450000D01*
X62885714Y-91478571D01*
X62314285Y-92021428D02*
X62657142Y-92021428D01*
X62485714Y-92021428D02*
X62485714Y-91421428D01*
X62542857Y-91507142D01*
X62600000Y-91564285D01*
X62657142Y-91592857D01*
X62114285Y-91421428D02*
X61714285Y-91421428D01*
X61971428Y-92021428D01*
%TO.C,L2*%
X76100000Y-105021428D02*
X76385714Y-105021428D01*
X76385714Y-104421428D01*
X75928571Y-104478571D02*
X75900000Y-104450000D01*
X75842857Y-104421428D01*
X75700000Y-104421428D01*
X75642857Y-104450000D01*
X75614285Y-104478571D01*
X75585714Y-104535714D01*
X75585714Y-104592857D01*
X75614285Y-104678571D01*
X75957142Y-105021428D01*
X75585714Y-105021428D01*
%TO.C,C13*%
X99214285Y-99114285D02*
X99242857Y-99085714D01*
X99271428Y-99000000D01*
X99271428Y-98942857D01*
X99242857Y-98857142D01*
X99185714Y-98800000D01*
X99128571Y-98771428D01*
X99014285Y-98742857D01*
X98928571Y-98742857D01*
X98814285Y-98771428D01*
X98757142Y-98800000D01*
X98700000Y-98857142D01*
X98671428Y-98942857D01*
X98671428Y-99000000D01*
X98700000Y-99085714D01*
X98728571Y-99114285D01*
X99271428Y-99685714D02*
X99271428Y-99342857D01*
X99271428Y-99514285D02*
X98671428Y-99514285D01*
X98757142Y-99457142D01*
X98814285Y-99400000D01*
X98842857Y-99342857D01*
X98671428Y-99885714D02*
X98671428Y-100257142D01*
X98900000Y-100057142D01*
X98900000Y-100142857D01*
X98928571Y-100200000D01*
X98957142Y-100228571D01*
X99014285Y-100257142D01*
X99157142Y-100257142D01*
X99214285Y-100228571D01*
X99242857Y-100200000D01*
X99271428Y-100142857D01*
X99271428Y-99971428D01*
X99242857Y-99914285D01*
X99214285Y-99885714D01*
%TO.C,U1*%
X54707142Y-94921428D02*
X54707142Y-95407142D01*
X54678571Y-95464285D01*
X54650000Y-95492857D01*
X54592857Y-95521428D01*
X54478571Y-95521428D01*
X54421428Y-95492857D01*
X54392857Y-95464285D01*
X54364285Y-95407142D01*
X54364285Y-94921428D01*
X53764285Y-95521428D02*
X54107142Y-95521428D01*
X53935714Y-95521428D02*
X53935714Y-94921428D01*
X53992857Y-95007142D01*
X54050000Y-95064285D01*
X54107142Y-95092857D01*
%TO.C,R10*%
X67635714Y-94271428D02*
X67835714Y-93985714D01*
X67978571Y-94271428D02*
X67978571Y-93671428D01*
X67750000Y-93671428D01*
X67692857Y-93700000D01*
X67664285Y-93728571D01*
X67635714Y-93785714D01*
X67635714Y-93871428D01*
X67664285Y-93928571D01*
X67692857Y-93957142D01*
X67750000Y-93985714D01*
X67978571Y-93985714D01*
X67064285Y-94271428D02*
X67407142Y-94271428D01*
X67235714Y-94271428D02*
X67235714Y-93671428D01*
X67292857Y-93757142D01*
X67350000Y-93814285D01*
X67407142Y-93842857D01*
X66692857Y-93671428D02*
X66635714Y-93671428D01*
X66578571Y-93700000D01*
X66550000Y-93728571D01*
X66521428Y-93785714D01*
X66492857Y-93900000D01*
X66492857Y-94042857D01*
X66521428Y-94157142D01*
X66550000Y-94214285D01*
X66578571Y-94242857D01*
X66635714Y-94271428D01*
X66692857Y-94271428D01*
X66750000Y-94242857D01*
X66778571Y-94214285D01*
X66807142Y-94157142D01*
X66835714Y-94042857D01*
X66835714Y-93900000D01*
X66807142Y-93785714D01*
X66778571Y-93728571D01*
X66750000Y-93700000D01*
X66692857Y-93671428D01*
%TO.C,R2*%
X52771428Y-97400000D02*
X52485714Y-97200000D01*
X52771428Y-97057142D02*
X52171428Y-97057142D01*
X52171428Y-97285714D01*
X52200000Y-97342857D01*
X52228571Y-97371428D01*
X52285714Y-97400000D01*
X52371428Y-97400000D01*
X52428571Y-97371428D01*
X52457142Y-97342857D01*
X52485714Y-97285714D01*
X52485714Y-97057142D01*
X52228571Y-97628571D02*
X52200000Y-97657142D01*
X52171428Y-97714285D01*
X52171428Y-97857142D01*
X52200000Y-97914285D01*
X52228571Y-97942857D01*
X52285714Y-97971428D01*
X52342857Y-97971428D01*
X52428571Y-97942857D01*
X52771428Y-97600000D01*
X52771428Y-97971428D01*
%TO.C,D1*%
X78771428Y-106057142D02*
X78171428Y-106057142D01*
X78171428Y-106200000D01*
X78200000Y-106285714D01*
X78257142Y-106342857D01*
X78314285Y-106371428D01*
X78428571Y-106400000D01*
X78514285Y-106400000D01*
X78628571Y-106371428D01*
X78685714Y-106342857D01*
X78742857Y-106285714D01*
X78771428Y-106200000D01*
X78771428Y-106057142D01*
X78771428Y-106971428D02*
X78771428Y-106628571D01*
X78771428Y-106800000D02*
X78171428Y-106800000D01*
X78257142Y-106742857D01*
X78314285Y-106685714D01*
X78342857Y-106628571D01*
%TO.C,C12*%
X64464285Y-96364285D02*
X64492857Y-96335714D01*
X64521428Y-96250000D01*
X64521428Y-96192857D01*
X64492857Y-96107142D01*
X64435714Y-96050000D01*
X64378571Y-96021428D01*
X64264285Y-95992857D01*
X64178571Y-95992857D01*
X64064285Y-96021428D01*
X64007142Y-96050000D01*
X63950000Y-96107142D01*
X63921428Y-96192857D01*
X63921428Y-96250000D01*
X63950000Y-96335714D01*
X63978571Y-96364285D01*
X64521428Y-96935714D02*
X64521428Y-96592857D01*
X64521428Y-96764285D02*
X63921428Y-96764285D01*
X64007142Y-96707142D01*
X64064285Y-96650000D01*
X64092857Y-96592857D01*
X63978571Y-97164285D02*
X63950000Y-97192857D01*
X63921428Y-97250000D01*
X63921428Y-97392857D01*
X63950000Y-97450000D01*
X63978571Y-97478571D01*
X64035714Y-97507142D01*
X64092857Y-97507142D01*
X64178571Y-97478571D01*
X64521428Y-97135714D01*
X64521428Y-97507142D01*
%TO.C,R19*%
X60271428Y-92114285D02*
X59985714Y-91914285D01*
X60271428Y-91771428D02*
X59671428Y-91771428D01*
X59671428Y-92000000D01*
X59700000Y-92057142D01*
X59728571Y-92085714D01*
X59785714Y-92114285D01*
X59871428Y-92114285D01*
X59928571Y-92085714D01*
X59957142Y-92057142D01*
X59985714Y-92000000D01*
X59985714Y-91771428D01*
X60271428Y-92685714D02*
X60271428Y-92342857D01*
X60271428Y-92514285D02*
X59671428Y-92514285D01*
X59757142Y-92457142D01*
X59814285Y-92400000D01*
X59842857Y-92342857D01*
X60271428Y-92971428D02*
X60271428Y-93085714D01*
X60242857Y-93142857D01*
X60214285Y-93171428D01*
X60128571Y-93228571D01*
X60014285Y-93257142D01*
X59785714Y-93257142D01*
X59728571Y-93228571D01*
X59700000Y-93200000D01*
X59671428Y-93142857D01*
X59671428Y-93028571D01*
X59700000Y-92971428D01*
X59728571Y-92942857D01*
X59785714Y-92914285D01*
X59928571Y-92914285D01*
X59985714Y-92942857D01*
X60014285Y-92971428D01*
X60042857Y-93028571D01*
X60042857Y-93142857D01*
X60014285Y-93200000D01*
X59985714Y-93228571D01*
X59928571Y-93257142D01*
%TO.C,C1*%
X50714285Y-97400000D02*
X50742857Y-97371428D01*
X50771428Y-97285714D01*
X50771428Y-97228571D01*
X50742857Y-97142857D01*
X50685714Y-97085714D01*
X50628571Y-97057142D01*
X50514285Y-97028571D01*
X50428571Y-97028571D01*
X50314285Y-97057142D01*
X50257142Y-97085714D01*
X50200000Y-97142857D01*
X50171428Y-97228571D01*
X50171428Y-97285714D01*
X50200000Y-97371428D01*
X50228571Y-97400000D01*
X50771428Y-97971428D02*
X50771428Y-97628571D01*
X50771428Y-97800000D02*
X50171428Y-97800000D01*
X50257142Y-97742857D01*
X50314285Y-97685714D01*
X50342857Y-97628571D01*
%TO.C,C2*%
X86714285Y-103400000D02*
X86742857Y-103371428D01*
X86771428Y-103285714D01*
X86771428Y-103228571D01*
X86742857Y-103142857D01*
X86685714Y-103085714D01*
X86628571Y-103057142D01*
X86514285Y-103028571D01*
X86428571Y-103028571D01*
X86314285Y-103057142D01*
X86257142Y-103085714D01*
X86200000Y-103142857D01*
X86171428Y-103228571D01*
X86171428Y-103285714D01*
X86200000Y-103371428D01*
X86228571Y-103400000D01*
X86228571Y-103628571D02*
X86200000Y-103657142D01*
X86171428Y-103714285D01*
X86171428Y-103857142D01*
X86200000Y-103914285D01*
X86228571Y-103942857D01*
X86285714Y-103971428D01*
X86342857Y-103971428D01*
X86428571Y-103942857D01*
X86771428Y-103600000D01*
X86771428Y-103971428D01*
%TO.C,Y1*%
X52485714Y-101714285D02*
X52771428Y-101714285D01*
X52171428Y-101514285D02*
X52485714Y-101714285D01*
X52171428Y-101914285D01*
X52771428Y-102428571D02*
X52771428Y-102085714D01*
X52771428Y-102257142D02*
X52171428Y-102257142D01*
X52257142Y-102200000D01*
X52314285Y-102142857D01*
X52342857Y-102085714D01*
%TO.C,R11*%
X53271428Y-103364285D02*
X52985714Y-103164285D01*
X53271428Y-103021428D02*
X52671428Y-103021428D01*
X52671428Y-103250000D01*
X52700000Y-103307142D01*
X52728571Y-103335714D01*
X52785714Y-103364285D01*
X52871428Y-103364285D01*
X52928571Y-103335714D01*
X52957142Y-103307142D01*
X52985714Y-103250000D01*
X52985714Y-103021428D01*
X53271428Y-103935714D02*
X53271428Y-103592857D01*
X53271428Y-103764285D02*
X52671428Y-103764285D01*
X52757142Y-103707142D01*
X52814285Y-103650000D01*
X52842857Y-103592857D01*
X53271428Y-104507142D02*
X53271428Y-104164285D01*
X53271428Y-104335714D02*
X52671428Y-104335714D01*
X52757142Y-104278571D01*
X52814285Y-104221428D01*
X52842857Y-104164285D01*
%TO.C,C16*%
X90964285Y-101614285D02*
X90992857Y-101585714D01*
X91021428Y-101500000D01*
X91021428Y-101442857D01*
X90992857Y-101357142D01*
X90935714Y-101300000D01*
X90878571Y-101271428D01*
X90764285Y-101242857D01*
X90678571Y-101242857D01*
X90564285Y-101271428D01*
X90507142Y-101300000D01*
X90450000Y-101357142D01*
X90421428Y-101442857D01*
X90421428Y-101500000D01*
X90450000Y-101585714D01*
X90478571Y-101614285D01*
X91021428Y-102185714D02*
X91021428Y-101842857D01*
X91021428Y-102014285D02*
X90421428Y-102014285D01*
X90507142Y-101957142D01*
X90564285Y-101900000D01*
X90592857Y-101842857D01*
X90421428Y-102700000D02*
X90421428Y-102585714D01*
X90450000Y-102528571D01*
X90478571Y-102500000D01*
X90564285Y-102442857D01*
X90678571Y-102414285D01*
X90907142Y-102414285D01*
X90964285Y-102442857D01*
X90992857Y-102471428D01*
X91021428Y-102528571D01*
X91021428Y-102642857D01*
X90992857Y-102700000D01*
X90964285Y-102728571D01*
X90907142Y-102757142D01*
X90764285Y-102757142D01*
X90707142Y-102728571D01*
X90678571Y-102700000D01*
X90650000Y-102642857D01*
X90650000Y-102528571D01*
X90678571Y-102471428D01*
X90707142Y-102442857D01*
X90764285Y-102414285D01*
%TO.C,L1*%
X81850000Y-104521428D02*
X82135714Y-104521428D01*
X82135714Y-103921428D01*
X81335714Y-104521428D02*
X81678571Y-104521428D01*
X81507142Y-104521428D02*
X81507142Y-103921428D01*
X81564285Y-104007142D01*
X81621428Y-104064285D01*
X81678571Y-104092857D01*
%TO.C,C9*%
X73964285Y-99900000D02*
X73992857Y-99871428D01*
X74021428Y-99785714D01*
X74021428Y-99728571D01*
X73992857Y-99642857D01*
X73935714Y-99585714D01*
X73878571Y-99557142D01*
X73764285Y-99528571D01*
X73678571Y-99528571D01*
X73564285Y-99557142D01*
X73507142Y-99585714D01*
X73450000Y-99642857D01*
X73421428Y-99728571D01*
X73421428Y-99785714D01*
X73450000Y-99871428D01*
X73478571Y-99900000D01*
X74021428Y-100185714D02*
X74021428Y-100300000D01*
X73992857Y-100357142D01*
X73964285Y-100385714D01*
X73878571Y-100442857D01*
X73764285Y-100471428D01*
X73535714Y-100471428D01*
X73478571Y-100442857D01*
X73450000Y-100414285D01*
X73421428Y-100357142D01*
X73421428Y-100242857D01*
X73450000Y-100185714D01*
X73478571Y-100157142D01*
X73535714Y-100128571D01*
X73678571Y-100128571D01*
X73735714Y-100157142D01*
X73764285Y-100185714D01*
X73792857Y-100242857D01*
X73792857Y-100357142D01*
X73764285Y-100414285D01*
X73735714Y-100442857D01*
X73678571Y-100471428D01*
%TO.C,R7*%
X71271428Y-99650000D02*
X70985714Y-99450000D01*
X71271428Y-99307142D02*
X70671428Y-99307142D01*
X70671428Y-99535714D01*
X70700000Y-99592857D01*
X70728571Y-99621428D01*
X70785714Y-99650000D01*
X70871428Y-99650000D01*
X70928571Y-99621428D01*
X70957142Y-99592857D01*
X70985714Y-99535714D01*
X70985714Y-99307142D01*
X70671428Y-99850000D02*
X70671428Y-100250000D01*
X71271428Y-99992857D01*
%TO.C,R5*%
X75271428Y-100900000D02*
X74985714Y-100700000D01*
X75271428Y-100557142D02*
X74671428Y-100557142D01*
X74671428Y-100785714D01*
X74700000Y-100842857D01*
X74728571Y-100871428D01*
X74785714Y-100900000D01*
X74871428Y-100900000D01*
X74928571Y-100871428D01*
X74957142Y-100842857D01*
X74985714Y-100785714D01*
X74985714Y-100557142D01*
X74671428Y-101442857D02*
X74671428Y-101157142D01*
X74957142Y-101128571D01*
X74928571Y-101157142D01*
X74900000Y-101214285D01*
X74900000Y-101357142D01*
X74928571Y-101414285D01*
X74957142Y-101442857D01*
X75014285Y-101471428D01*
X75157142Y-101471428D01*
X75214285Y-101442857D01*
X75242857Y-101414285D01*
X75271428Y-101357142D01*
X75271428Y-101214285D01*
X75242857Y-101157142D01*
X75214285Y-101128571D01*
D10*
%TO.C,Q3*%
X113047619Y-104904761D02*
X113000000Y-104809523D01*
X112904761Y-104714285D01*
X112761904Y-104571428D01*
X112714285Y-104476190D01*
X112714285Y-104380952D01*
X112952380Y-104428571D02*
X112904761Y-104333333D01*
X112809523Y-104238095D01*
X112619047Y-104190476D01*
X112285714Y-104190476D01*
X112095238Y-104238095D01*
X112000000Y-104333333D01*
X111952380Y-104428571D01*
X111952380Y-104619047D01*
X112000000Y-104714285D01*
X112095238Y-104809523D01*
X112285714Y-104857142D01*
X112619047Y-104857142D01*
X112809523Y-104809523D01*
X112904761Y-104714285D01*
X112952380Y-104619047D01*
X112952380Y-104428571D01*
X111952380Y-105190476D02*
X111952380Y-105809523D01*
X112333333Y-105476190D01*
X112333333Y-105619047D01*
X112380952Y-105714285D01*
X112428571Y-105761904D01*
X112523809Y-105809523D01*
X112761904Y-105809523D01*
X112857142Y-105761904D01*
X112904761Y-105714285D01*
X112952380Y-105619047D01*
X112952380Y-105333333D01*
X112904761Y-105238095D01*
X112857142Y-105190476D01*
D11*
%TO.C,C19*%
X88385714Y-106964285D02*
X88414285Y-106992857D01*
X88500000Y-107021428D01*
X88557142Y-107021428D01*
X88642857Y-106992857D01*
X88700000Y-106935714D01*
X88728571Y-106878571D01*
X88757142Y-106764285D01*
X88757142Y-106678571D01*
X88728571Y-106564285D01*
X88700000Y-106507142D01*
X88642857Y-106450000D01*
X88557142Y-106421428D01*
X88500000Y-106421428D01*
X88414285Y-106450000D01*
X88385714Y-106478571D01*
X87814285Y-107021428D02*
X88157142Y-107021428D01*
X87985714Y-107021428D02*
X87985714Y-106421428D01*
X88042857Y-106507142D01*
X88100000Y-106564285D01*
X88157142Y-106592857D01*
X87528571Y-107021428D02*
X87414285Y-107021428D01*
X87357142Y-106992857D01*
X87328571Y-106964285D01*
X87271428Y-106878571D01*
X87242857Y-106764285D01*
X87242857Y-106535714D01*
X87271428Y-106478571D01*
X87300000Y-106450000D01*
X87357142Y-106421428D01*
X87471428Y-106421428D01*
X87528571Y-106450000D01*
X87557142Y-106478571D01*
X87585714Y-106535714D01*
X87585714Y-106678571D01*
X87557142Y-106735714D01*
X87528571Y-106764285D01*
X87471428Y-106792857D01*
X87357142Y-106792857D01*
X87300000Y-106764285D01*
X87271428Y-106735714D01*
X87242857Y-106678571D01*
%TO.C,Ris1*%
X101985714Y-104271428D02*
X102185714Y-103985714D01*
X102328571Y-104271428D02*
X102328571Y-103671428D01*
X102100000Y-103671428D01*
X102042857Y-103700000D01*
X102014285Y-103728571D01*
X101985714Y-103785714D01*
X101985714Y-103871428D01*
X102014285Y-103928571D01*
X102042857Y-103957142D01*
X102100000Y-103985714D01*
X102328571Y-103985714D01*
X101728571Y-104271428D02*
X101728571Y-103871428D01*
X101728571Y-103671428D02*
X101757142Y-103700000D01*
X101728571Y-103728571D01*
X101700000Y-103700000D01*
X101728571Y-103671428D01*
X101728571Y-103728571D01*
X101471428Y-104242857D02*
X101414285Y-104271428D01*
X101300000Y-104271428D01*
X101242857Y-104242857D01*
X101214285Y-104185714D01*
X101214285Y-104157142D01*
X101242857Y-104100000D01*
X101300000Y-104071428D01*
X101385714Y-104071428D01*
X101442857Y-104042857D01*
X101471428Y-103985714D01*
X101471428Y-103957142D01*
X101442857Y-103900000D01*
X101385714Y-103871428D01*
X101300000Y-103871428D01*
X101242857Y-103900000D01*
X100642857Y-104271428D02*
X100985714Y-104271428D01*
X100814285Y-104271428D02*
X100814285Y-103671428D01*
X100871428Y-103757142D01*
X100928571Y-103814285D01*
X100985714Y-103842857D01*
%TO.C,C15*%
X91714285Y-99614285D02*
X91742857Y-99585714D01*
X91771428Y-99500000D01*
X91771428Y-99442857D01*
X91742857Y-99357142D01*
X91685714Y-99300000D01*
X91628571Y-99271428D01*
X91514285Y-99242857D01*
X91428571Y-99242857D01*
X91314285Y-99271428D01*
X91257142Y-99300000D01*
X91200000Y-99357142D01*
X91171428Y-99442857D01*
X91171428Y-99500000D01*
X91200000Y-99585714D01*
X91228571Y-99614285D01*
X91771428Y-100185714D02*
X91771428Y-99842857D01*
X91771428Y-100014285D02*
X91171428Y-100014285D01*
X91257142Y-99957142D01*
X91314285Y-99900000D01*
X91342857Y-99842857D01*
X91171428Y-100728571D02*
X91171428Y-100442857D01*
X91457142Y-100414285D01*
X91428571Y-100442857D01*
X91400000Y-100500000D01*
X91400000Y-100642857D01*
X91428571Y-100700000D01*
X91457142Y-100728571D01*
X91514285Y-100757142D01*
X91657142Y-100757142D01*
X91714285Y-100728571D01*
X91742857Y-100700000D01*
X91771428Y-100642857D01*
X91771428Y-100500000D01*
X91742857Y-100442857D01*
X91714285Y-100414285D01*
%TO.C,Q1*%
X49057142Y-107328571D02*
X49114285Y-107300000D01*
X49171428Y-107242857D01*
X49257142Y-107157142D01*
X49314285Y-107128571D01*
X49371428Y-107128571D01*
X49342857Y-107271428D02*
X49400000Y-107242857D01*
X49457142Y-107185714D01*
X49485714Y-107071428D01*
X49485714Y-106871428D01*
X49457142Y-106757142D01*
X49400000Y-106700000D01*
X49342857Y-106671428D01*
X49228571Y-106671428D01*
X49171428Y-106700000D01*
X49114285Y-106757142D01*
X49085714Y-106871428D01*
X49085714Y-107071428D01*
X49114285Y-107185714D01*
X49171428Y-107242857D01*
X49228571Y-107271428D01*
X49342857Y-107271428D01*
X48514285Y-107271428D02*
X48857142Y-107271428D01*
X48685714Y-107271428D02*
X48685714Y-106671428D01*
X48742857Y-106757142D01*
X48800000Y-106814285D01*
X48857142Y-106842857D01*
%TO.C,U2*%
X73207142Y-91671428D02*
X73207142Y-92157142D01*
X73178571Y-92214285D01*
X73150000Y-92242857D01*
X73092857Y-92271428D01*
X72978571Y-92271428D01*
X72921428Y-92242857D01*
X72892857Y-92214285D01*
X72864285Y-92157142D01*
X72864285Y-91671428D01*
X72607142Y-91728571D02*
X72578571Y-91700000D01*
X72521428Y-91671428D01*
X72378571Y-91671428D01*
X72321428Y-91700000D01*
X72292857Y-91728571D01*
X72264285Y-91785714D01*
X72264285Y-91842857D01*
X72292857Y-91928571D01*
X72635714Y-92271428D01*
X72264285Y-92271428D01*
%TO.C,R16*%
X94135714Y-102771428D02*
X94335714Y-102485714D01*
X94478571Y-102771428D02*
X94478571Y-102171428D01*
X94250000Y-102171428D01*
X94192857Y-102200000D01*
X94164285Y-102228571D01*
X94135714Y-102285714D01*
X94135714Y-102371428D01*
X94164285Y-102428571D01*
X94192857Y-102457142D01*
X94250000Y-102485714D01*
X94478571Y-102485714D01*
X93564285Y-102771428D02*
X93907142Y-102771428D01*
X93735714Y-102771428D02*
X93735714Y-102171428D01*
X93792857Y-102257142D01*
X93850000Y-102314285D01*
X93907142Y-102342857D01*
X93050000Y-102171428D02*
X93164285Y-102171428D01*
X93221428Y-102200000D01*
X93250000Y-102228571D01*
X93307142Y-102314285D01*
X93335714Y-102428571D01*
X93335714Y-102657142D01*
X93307142Y-102714285D01*
X93278571Y-102742857D01*
X93221428Y-102771428D01*
X93107142Y-102771428D01*
X93050000Y-102742857D01*
X93021428Y-102714285D01*
X92992857Y-102657142D01*
X92992857Y-102514285D01*
X93021428Y-102457142D01*
X93050000Y-102428571D01*
X93107142Y-102400000D01*
X93221428Y-102400000D01*
X93278571Y-102428571D01*
X93307142Y-102457142D01*
X93335714Y-102514285D01*
%TO.C,R6*%
X76771428Y-100900000D02*
X76485714Y-100700000D01*
X76771428Y-100557142D02*
X76171428Y-100557142D01*
X76171428Y-100785714D01*
X76200000Y-100842857D01*
X76228571Y-100871428D01*
X76285714Y-100900000D01*
X76371428Y-100900000D01*
X76428571Y-100871428D01*
X76457142Y-100842857D01*
X76485714Y-100785714D01*
X76485714Y-100557142D01*
X76171428Y-101414285D02*
X76171428Y-101300000D01*
X76200000Y-101242857D01*
X76228571Y-101214285D01*
X76314285Y-101157142D01*
X76428571Y-101128571D01*
X76657142Y-101128571D01*
X76714285Y-101157142D01*
X76742857Y-101185714D01*
X76771428Y-101242857D01*
X76771428Y-101357142D01*
X76742857Y-101414285D01*
X76714285Y-101442857D01*
X76657142Y-101471428D01*
X76514285Y-101471428D01*
X76457142Y-101442857D01*
X76428571Y-101414285D01*
X76400000Y-101357142D01*
X76400000Y-101242857D01*
X76428571Y-101185714D01*
X76457142Y-101157142D01*
X76514285Y-101128571D01*
%TO.C,R3*%
X81771428Y-100900000D02*
X81485714Y-100700000D01*
X81771428Y-100557142D02*
X81171428Y-100557142D01*
X81171428Y-100785714D01*
X81200000Y-100842857D01*
X81228571Y-100871428D01*
X81285714Y-100900000D01*
X81371428Y-100900000D01*
X81428571Y-100871428D01*
X81457142Y-100842857D01*
X81485714Y-100785714D01*
X81485714Y-100557142D01*
X81171428Y-101100000D02*
X81171428Y-101471428D01*
X81400000Y-101271428D01*
X81400000Y-101357142D01*
X81428571Y-101414285D01*
X81457142Y-101442857D01*
X81514285Y-101471428D01*
X81657142Y-101471428D01*
X81714285Y-101442857D01*
X81742857Y-101414285D01*
X81771428Y-101357142D01*
X81771428Y-101185714D01*
X81742857Y-101128571D01*
X81714285Y-101100000D01*
%TO.C,D2*%
X66442857Y-98271428D02*
X66442857Y-97671428D01*
X66300000Y-97671428D01*
X66214285Y-97700000D01*
X66157142Y-97757142D01*
X66128571Y-97814285D01*
X66100000Y-97928571D01*
X66100000Y-98014285D01*
X66128571Y-98128571D01*
X66157142Y-98185714D01*
X66214285Y-98242857D01*
X66300000Y-98271428D01*
X66442857Y-98271428D01*
X65871428Y-97728571D02*
X65842857Y-97700000D01*
X65785714Y-97671428D01*
X65642857Y-97671428D01*
X65585714Y-97700000D01*
X65557142Y-97728571D01*
X65528571Y-97785714D01*
X65528571Y-97842857D01*
X65557142Y-97928571D01*
X65900000Y-98271428D01*
X65528571Y-98271428D01*
%TO.C,C6*%
X54964285Y-103400000D02*
X54992857Y-103371428D01*
X55021428Y-103285714D01*
X55021428Y-103228571D01*
X54992857Y-103142857D01*
X54935714Y-103085714D01*
X54878571Y-103057142D01*
X54764285Y-103028571D01*
X54678571Y-103028571D01*
X54564285Y-103057142D01*
X54507142Y-103085714D01*
X54450000Y-103142857D01*
X54421428Y-103228571D01*
X54421428Y-103285714D01*
X54450000Y-103371428D01*
X54478571Y-103400000D01*
X54421428Y-103914285D02*
X54421428Y-103800000D01*
X54450000Y-103742857D01*
X54478571Y-103714285D01*
X54564285Y-103657142D01*
X54678571Y-103628571D01*
X54907142Y-103628571D01*
X54964285Y-103657142D01*
X54992857Y-103685714D01*
X55021428Y-103742857D01*
X55021428Y-103857142D01*
X54992857Y-103914285D01*
X54964285Y-103942857D01*
X54907142Y-103971428D01*
X54764285Y-103971428D01*
X54707142Y-103942857D01*
X54678571Y-103914285D01*
X54650000Y-103857142D01*
X54650000Y-103742857D01*
X54678571Y-103685714D01*
X54707142Y-103657142D01*
X54764285Y-103628571D01*
%TO.C,C3*%
X82714285Y-105400000D02*
X82742857Y-105371428D01*
X82771428Y-105285714D01*
X82771428Y-105228571D01*
X82742857Y-105142857D01*
X82685714Y-105085714D01*
X82628571Y-105057142D01*
X82514285Y-105028571D01*
X82428571Y-105028571D01*
X82314285Y-105057142D01*
X82257142Y-105085714D01*
X82200000Y-105142857D01*
X82171428Y-105228571D01*
X82171428Y-105285714D01*
X82200000Y-105371428D01*
X82228571Y-105400000D01*
X82171428Y-105600000D02*
X82171428Y-105971428D01*
X82400000Y-105771428D01*
X82400000Y-105857142D01*
X82428571Y-105914285D01*
X82457142Y-105942857D01*
X82514285Y-105971428D01*
X82657142Y-105971428D01*
X82714285Y-105942857D01*
X82742857Y-105914285D01*
X82771428Y-105857142D01*
X82771428Y-105685714D01*
X82742857Y-105628571D01*
X82714285Y-105600000D01*
%TO.C,U5*%
X92500000Y-105610000D02*
X90500000Y-105610000D01*
X91500000Y-103390000D02*
X90500000Y-103390000D01*
%TO.C,C8*%
X51140000Y-97892164D02*
X51140000Y-98107836D01*
X51860000Y-97892164D02*
X51860000Y-98107836D01*
%TO.C,R12*%
X66653641Y-92620000D02*
X66346359Y-92620000D01*
X66653641Y-93380000D02*
X66346359Y-93380000D01*
%TO.C,Ris2*%
X96090000Y-104727064D02*
X96090000Y-103272936D01*
X97910000Y-104727064D02*
X97910000Y-103272936D01*
%TO.C,C4*%
X81510000Y-95140580D02*
X81510000Y-94859420D01*
X80490000Y-95140580D02*
X80490000Y-94859420D01*
%TO.C,R20*%
X63120000Y-93153641D02*
X63120000Y-92846359D01*
X63880000Y-93153641D02*
X63880000Y-92846359D01*
%TO.C,R4*%
X70262742Y-92772500D02*
X70737258Y-92772500D01*
X70262742Y-91727500D02*
X70737258Y-91727500D01*
%TO.C,R15*%
X88737258Y-99977500D02*
X88262742Y-99977500D01*
X88737258Y-101022500D02*
X88262742Y-101022500D01*
%TO.C,D4*%
X86750000Y-100000000D02*
X86750000Y-102000000D01*
X86750000Y-100000000D02*
X82850000Y-100000000D01*
X86750000Y-102000000D02*
X82850000Y-102000000D01*
%TO.C,R1*%
X85762742Y-105977500D02*
X86237258Y-105977500D01*
X85762742Y-107022500D02*
X86237258Y-107022500D01*
%TO.C,C5*%
X68490000Y-94359420D02*
X68490000Y-94640580D01*
X69510000Y-94359420D02*
X69510000Y-94640580D01*
%TO.C,C10*%
X68640000Y-97107836D02*
X68640000Y-96892164D01*
X69360000Y-97107836D02*
X69360000Y-96892164D01*
%TO.C,U4*%
X88500000Y-94440000D02*
X90450000Y-94440000D01*
X88500000Y-99560000D02*
X85050000Y-99560000D01*
X88500000Y-99560000D02*
X90450000Y-99560000D01*
X88500000Y-94440000D02*
X86550000Y-94440000D01*
%TO.C,U3*%
X79000000Y-98440000D02*
X78200000Y-98440000D01*
X79000000Y-98440000D02*
X79800000Y-98440000D01*
X79000000Y-101560000D02*
X79800000Y-101560000D01*
X79000000Y-101560000D02*
X77200000Y-101560000D01*
%TO.C,D3*%
X68235000Y-97485000D02*
X66765000Y-97485000D01*
X66765000Y-97485000D02*
X66765000Y-95200000D01*
X68235000Y-95200000D02*
X68235000Y-97485000D01*
%TO.C,Q2*%
X105815000Y-91690000D02*
X105815000Y-97810000D01*
X106165000Y-97810000D02*
X105815000Y-97810000D01*
X110885000Y-91690000D02*
X111185000Y-91690000D01*
X106115000Y-91690000D02*
X105815000Y-91690000D01*
X111185000Y-91690000D02*
X111185000Y-97810000D01*
%TO.C,R18*%
X88346359Y-103620000D02*
X88653641Y-103620000D01*
X88346359Y-104380000D02*
X88653641Y-104380000D01*
%TO.C,C7*%
X78892164Y-101640000D02*
X79107836Y-101640000D01*
X78892164Y-102360000D02*
X79107836Y-102360000D01*
%TO.C,R9*%
X54880000Y-106653641D02*
X54880000Y-106346359D01*
X54120000Y-106653641D02*
X54120000Y-106346359D01*
%TO.C,C11*%
X63360000Y-95107836D02*
X63360000Y-94892164D01*
X62640000Y-95107836D02*
X62640000Y-94892164D01*
%TO.C,C14*%
X84010000Y-97140580D02*
X84010000Y-96859420D01*
X82990000Y-97140580D02*
X82990000Y-96859420D01*
%TO.C,R8*%
X81262742Y-98022500D02*
X81737258Y-98022500D01*
X81262742Y-96977500D02*
X81737258Y-96977500D01*
%TO.C,C17*%
X62860000Y-92892164D02*
X62860000Y-93107836D01*
X62140000Y-92892164D02*
X62140000Y-93107836D01*
%TO.C,L2*%
X77399622Y-102940000D02*
X76600378Y-102940000D01*
X77399622Y-104060000D02*
X76600378Y-104060000D01*
%TO.C,C13*%
X99640000Y-99392164D02*
X99640000Y-99607836D01*
X100360000Y-99392164D02*
X100360000Y-99607836D01*
%TO.C,U1*%
X54890000Y-102310000D02*
X53575000Y-102310000D01*
X55190000Y-95390000D02*
X54890000Y-95390000D01*
X61810000Y-95390000D02*
X62110000Y-95390000D01*
X54890000Y-102610000D02*
X54890000Y-102310000D01*
X55190000Y-102610000D02*
X54890000Y-102610000D01*
X54890000Y-95390000D02*
X54890000Y-95690000D01*
X62110000Y-102610000D02*
X62110000Y-102310000D01*
X61810000Y-102610000D02*
X62110000Y-102610000D01*
X62110000Y-95390000D02*
X62110000Y-95690000D01*
%TO.C,R10*%
X65653641Y-94380000D02*
X65346359Y-94380000D01*
X65653641Y-93620000D02*
X65346359Y-93620000D01*
%TO.C,R2*%
X52120000Y-99153641D02*
X52120000Y-98846359D01*
X52880000Y-99153641D02*
X52880000Y-98846359D01*
%TO.C,D1*%
X79000000Y-102750000D02*
X81000000Y-102750000D01*
X79000000Y-102750000D02*
X79000000Y-106650000D01*
X81000000Y-102750000D02*
X81000000Y-106650000D01*
%TO.C,C12*%
X63640000Y-95107836D02*
X63640000Y-94892164D01*
X64360000Y-95107836D02*
X64360000Y-94892164D01*
%TO.C,R19*%
X61380000Y-92653641D02*
X61380000Y-92346359D01*
X60620000Y-92653641D02*
X60620000Y-92346359D01*
%TO.C,C1*%
X50140000Y-99107836D02*
X50140000Y-98892164D01*
X50860000Y-99107836D02*
X50860000Y-98892164D01*
%TO.C,C2*%
X86010000Y-103359420D02*
X86010000Y-103640580D01*
X84990000Y-103359420D02*
X84990000Y-103640580D01*
%TO.C,Y1*%
X48850000Y-104000000D02*
X48850000Y-100000000D01*
X52150000Y-104000000D02*
X48850000Y-104000000D01*
%TO.C,R11*%
X53346359Y-104620000D02*
X53653641Y-104620000D01*
X53346359Y-105380000D02*
X53653641Y-105380000D01*
%TO.C,C16*%
X90360000Y-101892164D02*
X90360000Y-102107836D01*
X89640000Y-101892164D02*
X89640000Y-102107836D01*
%TO.C,L1*%
X83399622Y-102440000D02*
X82600378Y-102440000D01*
X83399622Y-103560000D02*
X82600378Y-103560000D01*
%TO.C,C9*%
X73260000Y-99859420D02*
X73260000Y-100140580D01*
X72240000Y-99859420D02*
X72240000Y-100140580D01*
%TO.C,R7*%
X70620000Y-98096359D02*
X70620000Y-98403641D01*
X71380000Y-98096359D02*
X71380000Y-98403641D01*
%TO.C,R5*%
X75380000Y-99653641D02*
X75380000Y-99346359D01*
X74620000Y-99653641D02*
X74620000Y-99346359D01*
%TO.C,Q3*%
X111060000Y-107385000D02*
X111060000Y-107685000D01*
X111060000Y-102315000D02*
X104940000Y-102315000D01*
X111060000Y-102615000D02*
X111060000Y-102315000D01*
X111060000Y-107685000D02*
X104940000Y-107685000D01*
X104940000Y-102665000D02*
X104940000Y-102315000D01*
%TO.C,C19*%
X88360000Y-105392164D02*
X88360000Y-105607836D01*
X87640000Y-105392164D02*
X87640000Y-105607836D01*
%TO.C,Ris1*%
X100410000Y-104727064D02*
X100410000Y-103272936D01*
X98590000Y-104727064D02*
X98590000Y-103272936D01*
%TO.C,C15*%
X93010000Y-100140580D02*
X93010000Y-99859420D01*
X91990000Y-100140580D02*
X91990000Y-99859420D01*
%TO.C,Q1*%
X50500000Y-104440000D02*
X49850000Y-104440000D01*
X50500000Y-107560000D02*
X51150000Y-107560000D01*
X50500000Y-107560000D02*
X49850000Y-107560000D01*
X50500000Y-104440000D02*
X52175000Y-104440000D01*
%TO.C,U2*%
X73590000Y-98410000D02*
X73590000Y-97150000D01*
X79600000Y-91590000D02*
X73590000Y-91590000D01*
X77350000Y-98410000D02*
X73590000Y-98410000D01*
X73590000Y-91590000D02*
X73590000Y-92850000D01*
%TO.C,R16*%
X91846359Y-102880000D02*
X92153641Y-102880000D01*
X91846359Y-102120000D02*
X92153641Y-102120000D01*
%TO.C,R6*%
X76880000Y-99653641D02*
X76880000Y-99346359D01*
X76120000Y-99653641D02*
X76120000Y-99346359D01*
%TO.C,R3*%
X81120000Y-99346359D02*
X81120000Y-99653641D01*
X81880000Y-99346359D02*
X81880000Y-99653641D01*
%TO.C,D2*%
X65265000Y-97485000D02*
X65265000Y-95200000D01*
X66735000Y-97485000D02*
X65265000Y-97485000D01*
X66735000Y-95200000D02*
X66735000Y-97485000D01*
%TO.C,C6*%
X54360000Y-103392164D02*
X54360000Y-103607836D01*
X53640000Y-103392164D02*
X53640000Y-103607836D01*
%TO.C,J5*%
X45940000Y-106500000D02*
X45940000Y-107560000D01*
X45940000Y-105500000D02*
X48060000Y-105500000D01*
X48060000Y-105500000D02*
X48060000Y-91440000D01*
X45940000Y-107560000D02*
X47000000Y-107560000D01*
X45940000Y-105500000D02*
X45940000Y-91440000D01*
X45940000Y-91440000D02*
X48060000Y-91440000D01*
%TO.C,C3*%
X82990000Y-105359420D02*
X82990000Y-105640580D01*
X84010000Y-105359420D02*
X84010000Y-105640580D01*
%TD*%
%LPC*%
D12*
%TO.C,U5*%
X92512500Y-103750000D03*
X92512500Y-104250000D03*
X92512500Y-104750000D03*
X92512500Y-105250000D03*
X90487500Y-105250000D03*
X90487500Y-104750000D03*
X90487500Y-104250000D03*
X90487500Y-103750000D03*
D13*
X91500000Y-104500000D03*
%TD*%
D14*
%TO.C,J6*%
X73500000Y-103500000D03*
D15*
X73500000Y-106040000D03*
X70960000Y-103500000D03*
X70960000Y-106040000D03*
X68420000Y-103500000D03*
X68420000Y-106040000D03*
X65880000Y-103500000D03*
X65880000Y-106040000D03*
X63340000Y-103500000D03*
X63340000Y-106040000D03*
%TD*%
D16*
%TO.C,C8*%
X51500000Y-97520000D03*
X51500000Y-98480000D03*
%TD*%
D17*
%TO.C,R12*%
X67010000Y-93000000D03*
X65990000Y-93000000D03*
%TD*%
D18*
%TO.C,Ris2*%
X97000000Y-105462500D03*
X97000000Y-102537500D03*
%TD*%
D19*
%TO.C,C4*%
X81000000Y-95775000D03*
X81000000Y-94225000D03*
%TD*%
D20*
%TO.C,R20*%
X63500000Y-93510000D03*
X63500000Y-92490000D03*
%TD*%
D21*
%TO.C,R4*%
X69675000Y-92250000D03*
X71325000Y-92250000D03*
%TD*%
D22*
%TO.C,R15*%
X89325000Y-100500000D03*
X87675000Y-100500000D03*
%TD*%
D23*
%TO.C,D4*%
X86150000Y-101000000D03*
X82850000Y-101000000D03*
%TD*%
D21*
%TO.C,R1*%
X85175000Y-106500000D03*
X86825000Y-106500000D03*
%TD*%
D24*
%TO.C,C5*%
X69000000Y-93725000D03*
X69000000Y-95275000D03*
%TD*%
D25*
%TO.C,C10*%
X69000000Y-97480000D03*
X69000000Y-96520000D03*
%TD*%
D26*
%TO.C,U4*%
X86025000Y-98905000D03*
X86025000Y-97635000D03*
X86025000Y-96365000D03*
X86025000Y-95095000D03*
X90975000Y-95095000D03*
X90975000Y-96365000D03*
X90975000Y-97635000D03*
X90975000Y-98905000D03*
%TD*%
D27*
%TO.C,U3*%
X77862500Y-100950000D03*
X77862500Y-100000000D03*
X77862500Y-99050000D03*
X80137500Y-99050000D03*
X80137500Y-100000000D03*
X80137500Y-100950000D03*
%TD*%
D28*
%TO.C,D3*%
X67500000Y-96787500D03*
X67500000Y-95212500D03*
%TD*%
D29*
%TO.C,Q2*%
X108500000Y-94100000D03*
D30*
X110405000Y-97650000D03*
X109135000Y-97650000D03*
X107865000Y-97650000D03*
X106595000Y-97650000D03*
%TD*%
D31*
%TO.C,R18*%
X87990000Y-104000000D03*
X89010000Y-104000000D03*
%TD*%
D32*
%TO.C,C7*%
X78520000Y-102000000D03*
X79480000Y-102000000D03*
%TD*%
D20*
%TO.C,R9*%
X54500000Y-107010000D03*
X54500000Y-105990000D03*
%TD*%
D25*
%TO.C,C11*%
X63000000Y-95480000D03*
X63000000Y-94520000D03*
%TD*%
D19*
%TO.C,C14*%
X83500000Y-97775000D03*
X83500000Y-96225000D03*
%TD*%
D21*
%TO.C,R8*%
X80675000Y-97500000D03*
X82325000Y-97500000D03*
%TD*%
D16*
%TO.C,C17*%
X62500000Y-92520000D03*
X62500000Y-93480000D03*
%TD*%
D33*
%TO.C,L2*%
X78062500Y-103500000D03*
X75937500Y-103500000D03*
%TD*%
D16*
%TO.C,C13*%
X100000000Y-99020000D03*
X100000000Y-99980000D03*
%TD*%
D34*
%TO.C,U1*%
X54325000Y-101800000D03*
X54325000Y-101000000D03*
X54325000Y-100200000D03*
X54325000Y-99400000D03*
X54325000Y-98600000D03*
X54325000Y-97800000D03*
X54325000Y-97000000D03*
X54325000Y-96200000D03*
D35*
X55700000Y-94825000D03*
X56500000Y-94825000D03*
X57300000Y-94825000D03*
X58100000Y-94825000D03*
X58900000Y-94825000D03*
X59700000Y-94825000D03*
X60500000Y-94825000D03*
X61300000Y-94825000D03*
D34*
X62675000Y-96200000D03*
X62675000Y-97000000D03*
X62675000Y-97800000D03*
X62675000Y-98600000D03*
X62675000Y-99400000D03*
X62675000Y-100200000D03*
X62675000Y-101000000D03*
X62675000Y-101800000D03*
D35*
X61300000Y-103175000D03*
X60500000Y-103175000D03*
X59700000Y-103175000D03*
X58900000Y-103175000D03*
X58100000Y-103175000D03*
X57300000Y-103175000D03*
X56500000Y-103175000D03*
X55700000Y-103175000D03*
%TD*%
D17*
%TO.C,R10*%
X66010000Y-94000000D03*
X64990000Y-94000000D03*
%TD*%
D20*
%TO.C,R2*%
X52500000Y-99510000D03*
X52500000Y-98490000D03*
%TD*%
D36*
%TO.C,D1*%
X80000000Y-103350000D03*
X80000000Y-106650000D03*
%TD*%
D25*
%TO.C,C12*%
X64000000Y-95480000D03*
X64000000Y-94520000D03*
%TD*%
D20*
%TO.C,R19*%
X61000000Y-93010000D03*
X61000000Y-91990000D03*
%TD*%
D25*
%TO.C,C1*%
X50500000Y-99480000D03*
X50500000Y-98520000D03*
%TD*%
D24*
%TO.C,C2*%
X85500000Y-102725000D03*
X85500000Y-104275000D03*
%TD*%
D37*
%TO.C,Y1*%
X49650000Y-103100000D03*
X49650000Y-100900000D03*
X51350000Y-100900000D03*
X51350000Y-103100000D03*
%TD*%
D31*
%TO.C,R11*%
X52990000Y-105000000D03*
X54010000Y-105000000D03*
%TD*%
D16*
%TO.C,C16*%
X90000000Y-101520000D03*
X90000000Y-102480000D03*
%TD*%
D33*
%TO.C,L1*%
X84062500Y-103000000D03*
X81937500Y-103000000D03*
%TD*%
D24*
%TO.C,C9*%
X72750000Y-99225000D03*
X72750000Y-100775000D03*
%TD*%
D38*
%TO.C,R7*%
X71000000Y-97740000D03*
X71000000Y-98760000D03*
%TD*%
D20*
%TO.C,R5*%
X75000000Y-100010000D03*
X75000000Y-98990000D03*
%TD*%
D39*
%TO.C,Q3*%
X108650000Y-105000000D03*
D40*
X105100000Y-106905000D03*
X105100000Y-105635000D03*
X105100000Y-104365000D03*
X105100000Y-103095000D03*
%TD*%
D16*
%TO.C,C19*%
X88000000Y-105020000D03*
X88000000Y-105980000D03*
%TD*%
D18*
%TO.C,Ris1*%
X99500000Y-105462500D03*
X99500000Y-102537500D03*
%TD*%
D19*
%TO.C,C15*%
X92500000Y-100775000D03*
X92500000Y-99225000D03*
%TD*%
D41*
%TO.C,Q1*%
X51437500Y-105050000D03*
X51437500Y-106950000D03*
X49562500Y-106000000D03*
%TD*%
D42*
%TO.C,U2*%
X78650000Y-92700000D03*
X78650000Y-95000000D03*
D43*
X72350000Y-95000000D03*
D42*
X78650000Y-97300000D03*
%TD*%
D31*
%TO.C,R16*%
X91490000Y-102500000D03*
X92510000Y-102500000D03*
%TD*%
D20*
%TO.C,R6*%
X76500000Y-100010000D03*
X76500000Y-98990000D03*
%TD*%
D38*
%TO.C,R3*%
X81500000Y-98990000D03*
X81500000Y-100010000D03*
%TD*%
D28*
%TO.C,D2*%
X66000000Y-96787500D03*
X66000000Y-95212500D03*
%TD*%
D16*
%TO.C,C6*%
X54000000Y-103020000D03*
X54000000Y-103980000D03*
%TD*%
D44*
%TO.C,J5*%
X47000000Y-106500000D03*
X47000000Y-104500000D03*
X47000000Y-102500000D03*
X47000000Y-100500000D03*
X47000000Y-98500000D03*
X47000000Y-96500000D03*
X47000000Y-94500000D03*
X47000000Y-92500000D03*
%TD*%
D24*
%TO.C,C3*%
X83500000Y-104725000D03*
X83500000Y-106275000D03*
%TD*%
G36*
X105017183Y-95768907D02*
G01*
X105028996Y-95778996D01*
X105471004Y-96221004D01*
X105498781Y-96275521D01*
X105500000Y-96291008D01*
X105500000Y-98734320D01*
X105507547Y-98757547D01*
X105988914Y-99238914D01*
X106010672Y-99250000D01*
X106984320Y-99250000D01*
X107007547Y-99242453D01*
X107488914Y-98761086D01*
X107500000Y-98739328D01*
X107500000Y-97291008D01*
X107518907Y-97232817D01*
X107528996Y-97221004D01*
X107721004Y-97028996D01*
X107775521Y-97001219D01*
X107791008Y-97000000D01*
X110708992Y-97000000D01*
X110767183Y-97018907D01*
X110778996Y-97028996D01*
X110971004Y-97221004D01*
X110998781Y-97275521D01*
X111000000Y-97291008D01*
X111000000Y-100484320D01*
X111007547Y-100507547D01*
X111471004Y-100971004D01*
X111498781Y-101025521D01*
X111500000Y-101041008D01*
X111500000Y-106958992D01*
X111481093Y-107017183D01*
X111471004Y-107028996D01*
X111278996Y-107221004D01*
X111224479Y-107248781D01*
X111208992Y-107250000D01*
X107041008Y-107250000D01*
X106982817Y-107231093D01*
X106971004Y-107221004D01*
X106778996Y-107028996D01*
X106751219Y-106974479D01*
X106750000Y-106958992D01*
X106750000Y-102515680D01*
X106742453Y-102492453D01*
X106511086Y-102261086D01*
X106489328Y-102250000D01*
X104041008Y-102250000D01*
X103982817Y-102231093D01*
X103971004Y-102221004D01*
X102528996Y-100778996D01*
X102501219Y-100724479D01*
X102500000Y-100708992D01*
X102500000Y-99265680D01*
X102492453Y-99242453D01*
X102011086Y-98761086D01*
X101989328Y-98750000D01*
X100515680Y-98750000D01*
X100492453Y-98757547D01*
X100070004Y-99179996D01*
X100015487Y-99207773D01*
X99955055Y-99198202D01*
X99929996Y-99179996D01*
X99511086Y-98761086D01*
X99489328Y-98750000D01*
X95541008Y-98750000D01*
X95482817Y-98731093D01*
X95471004Y-98721004D01*
X95278996Y-98528996D01*
X95251219Y-98474479D01*
X95250000Y-98458992D01*
X95250000Y-96041008D01*
X95268907Y-95982817D01*
X95278996Y-95971004D01*
X95471004Y-95778996D01*
X95525521Y-95751219D01*
X95541008Y-95750000D01*
X104958992Y-95750000D01*
X105017183Y-95768907D01*
G37*
G36*
X110517183Y-91268907D02*
G01*
X110528996Y-91278996D01*
X110721004Y-91471004D01*
X110748781Y-91525521D01*
X110750000Y-91541008D01*
X110750000Y-95708992D01*
X110731093Y-95767183D01*
X110721004Y-95778996D01*
X110528996Y-95971004D01*
X110474479Y-95998781D01*
X110458992Y-96000000D01*
X106541008Y-96000000D01*
X106482817Y-95981093D01*
X106471004Y-95971004D01*
X106278996Y-95778996D01*
X106251219Y-95724479D01*
X106250000Y-95708992D01*
X106250000Y-94765680D01*
X106242453Y-94742453D01*
X105761086Y-94261086D01*
X105739328Y-94250000D01*
X95541008Y-94250000D01*
X95482817Y-94231093D01*
X95471004Y-94221004D01*
X95278996Y-94028996D01*
X95251219Y-93974479D01*
X95250000Y-93958992D01*
X95250000Y-91541008D01*
X95268907Y-91482817D01*
X95278996Y-91471004D01*
X95471004Y-91278996D01*
X95525521Y-91251219D01*
X95541008Y-91250000D01*
X110458992Y-91250000D01*
X110517183Y-91268907D01*
G37*
G36*
X100044945Y-99801798D02*
G01*
X100070004Y-99820004D01*
X100488914Y-100238914D01*
X100510672Y-100250000D01*
X100958992Y-100250000D01*
X101017183Y-100268907D01*
X101028996Y-100278996D01*
X101221004Y-100471004D01*
X101248781Y-100525521D01*
X101250000Y-100541008D01*
X101250000Y-102958992D01*
X101231093Y-103017183D01*
X101221004Y-103028996D01*
X101028996Y-103221004D01*
X100974479Y-103248781D01*
X100958992Y-103250000D01*
X95541008Y-103250000D01*
X95482817Y-103231093D01*
X95471004Y-103221004D01*
X95278996Y-103028996D01*
X95251219Y-102974479D01*
X95250000Y-102958992D01*
X95250000Y-100541008D01*
X95268907Y-100482817D01*
X95278996Y-100471004D01*
X95471004Y-100278996D01*
X95525521Y-100251219D01*
X95541008Y-100250000D01*
X99484320Y-100250000D01*
X99507547Y-100242453D01*
X99929996Y-99820004D01*
X99984513Y-99792227D01*
X100044945Y-99801798D01*
G37*
G36*
X105517183Y-104018907D02*
G01*
X105528996Y-104028996D01*
X105721004Y-104221004D01*
X105748781Y-104275521D01*
X105750000Y-104291008D01*
X105750000Y-107208992D01*
X105731093Y-107267183D01*
X105721004Y-107278996D01*
X105278996Y-107721004D01*
X105224479Y-107748781D01*
X105208992Y-107750000D01*
X95541008Y-107750000D01*
X95482817Y-107731093D01*
X95471004Y-107721004D01*
X95278996Y-107528996D01*
X95251219Y-107474479D01*
X95250000Y-107458992D01*
X95250000Y-105041008D01*
X95268907Y-104982817D01*
X95278996Y-104971004D01*
X95471004Y-104778996D01*
X95525521Y-104751219D01*
X95541008Y-104750000D01*
X103484320Y-104750000D01*
X103507547Y-104742453D01*
X104221004Y-104028996D01*
X104275521Y-104001219D01*
X104291008Y-104000000D01*
X105458992Y-104000000D01*
X105517183Y-104018907D01*
G37*
M02*
