%TF.GenerationSoftware,KiCad,Pcbnew,(6.0.5)*%
%TF.CreationDate,2022-09-08T00:21:15+12:00*%
%TF.ProjectId,OpenEFCS_electronics,4f70656e-4546-4435-935f-656c65637472,rev?*%
%TF.SameCoordinates,Original*%
%TF.FileFunction,Copper,L1,Top*%
%TF.FilePolarity,Positive*%
%FSLAX46Y46*%
G04 Gerber Fmt 4.6, Leading zero omitted, Abs format (unit mm)*
G04 Created by KiCad (PCBNEW (6.0.5)) date 2022-09-08 00:21:15*
%MOMM*%
%LPD*%
G01*
G04 APERTURE LIST*
G04 Aperture macros list*
%AMRoundRect*
0 Rectangle with rounded corners*
0 $1 Rounding radius*
0 $2 $3 $4 $5 $6 $7 $8 $9 X,Y pos of 4 corners*
0 Add a 4 corners polygon primitive as box body*
4,1,4,$2,$3,$4,$5,$6,$7,$8,$9,$2,$3,0*
0 Add four circle primitives for the rounded corners*
1,1,$1+$1,$2,$3*
1,1,$1+$1,$4,$5*
1,1,$1+$1,$6,$7*
1,1,$1+$1,$8,$9*
0 Add four rect primitives between the rounded corners*
20,1,$1+$1,$2,$3,$4,$5,0*
20,1,$1+$1,$4,$5,$6,$7,0*
20,1,$1+$1,$6,$7,$8,$9,0*
20,1,$1+$1,$8,$9,$2,$3,0*%
%AMFreePoly0*
4,1,18,-0.500000,0.250000,-0.250000,0.500000,0.250000,0.500000,0.345671,0.480970,0.426777,0.426777,0.480970,0.345671,0.500000,0.250000,0.500000,-0.250000,0.480970,-0.345671,0.426777,-0.426777,0.345671,-0.480970,0.250000,-0.500000,-0.250000,-0.500000,-0.345671,-0.480970,-0.426777,-0.426777,-0.480970,-0.345671,-0.500000,-0.250000,-0.500000,0.250000,-0.500000,0.250000,$1*%
G04 Aperture macros list end*
%TA.AperFunction,SMDPad,CuDef*%
%ADD10RoundRect,0.200000X-0.200000X-0.275000X0.200000X-0.275000X0.200000X0.275000X-0.200000X0.275000X0*%
%TD*%
%TA.AperFunction,SMDPad,CuDef*%
%ADD11FreePoly0,0.000000*%
%TD*%
%TA.AperFunction,SMDPad,CuDef*%
%ADD12RoundRect,0.150000X-0.512500X-0.150000X0.512500X-0.150000X0.512500X0.150000X-0.512500X0.150000X0*%
%TD*%
%TA.AperFunction,SMDPad,CuDef*%
%ADD13RoundRect,0.225000X0.225000X0.250000X-0.225000X0.250000X-0.225000X-0.250000X0.225000X-0.250000X0*%
%TD*%
%TA.AperFunction,SMDPad,CuDef*%
%ADD14RoundRect,0.225000X-0.225000X-0.250000X0.225000X-0.250000X0.225000X0.250000X-0.225000X0.250000X0*%
%TD*%
%TA.AperFunction,SMDPad,CuDef*%
%ADD15R,1.700000X0.900000*%
%TD*%
%TA.AperFunction,ComponentPad*%
%ADD16RoundRect,0.291667X-0.608333X0.408333X-0.608333X-0.408333X0.608333X-0.408333X0.608333X0.408333X0*%
%TD*%
%TA.AperFunction,ComponentPad*%
%ADD17O,1.800000X1.400000*%
%TD*%
%TA.AperFunction,SMDPad,CuDef*%
%ADD18R,0.900000X1.200000*%
%TD*%
%TA.AperFunction,SMDPad,CuDef*%
%ADD19RoundRect,0.200000X0.200000X0.275000X-0.200000X0.275000X-0.200000X-0.275000X0.200000X-0.275000X0*%
%TD*%
%TA.AperFunction,SMDPad,CuDef*%
%ADD20R,1.000000X1.000000*%
%TD*%
%TA.AperFunction,SMDPad,CuDef*%
%ADD21R,0.500000X0.850000*%
%TD*%
%TA.AperFunction,SMDPad,CuDef*%
%ADD22R,4.410000X4.550000*%
%TD*%
%TA.AperFunction,SMDPad,CuDef*%
%ADD23RoundRect,0.200000X-0.275000X0.200000X-0.275000X-0.200000X0.275000X-0.200000X0.275000X0.200000X0*%
%TD*%
%TA.AperFunction,SMDPad,CuDef*%
%ADD24RoundRect,0.250000X-0.475000X0.250000X-0.475000X-0.250000X0.475000X-0.250000X0.475000X0.250000X0*%
%TD*%
%TA.AperFunction,SMDPad,CuDef*%
%ADD25RoundRect,0.218750X0.218750X0.256250X-0.218750X0.256250X-0.218750X-0.256250X0.218750X-0.256250X0*%
%TD*%
%TA.AperFunction,SMDPad,CuDef*%
%ADD26R,0.850000X0.500000*%
%TD*%
%TA.AperFunction,SMDPad,CuDef*%
%ADD27R,4.550000X4.410000*%
%TD*%
%TA.AperFunction,SMDPad,CuDef*%
%ADD28RoundRect,0.150000X-0.150000X0.512500X-0.150000X-0.512500X0.150000X-0.512500X0.150000X0.512500X0*%
%TD*%
%TA.AperFunction,ComponentPad*%
%ADD29O,3.800000X3.000000*%
%TD*%
%TA.AperFunction,SMDPad,CuDef*%
%ADD30R,3.800000X3.400000*%
%TD*%
%TA.AperFunction,SMDPad,CuDef*%
%ADD31RoundRect,0.150000X-0.587500X-0.150000X0.587500X-0.150000X0.587500X0.150000X-0.587500X0.150000X0*%
%TD*%
%TA.AperFunction,ViaPad*%
%ADD32C,3.000000*%
%TD*%
%TA.AperFunction,ViaPad*%
%ADD33C,0.800000*%
%TD*%
%TA.AperFunction,Conductor*%
%ADD34C,0.350000*%
%TD*%
%TA.AperFunction,Conductor*%
%ADD35C,1.000000*%
%TD*%
%TA.AperFunction,Conductor*%
%ADD36C,0.400000*%
%TD*%
%TA.AperFunction,Conductor*%
%ADD37C,0.250000*%
%TD*%
%TA.AperFunction,Conductor*%
%ADD38C,0.500000*%
%TD*%
G04 APERTURE END LIST*
D10*
%TO.P,R2,1*%
%TO.N,/RESET*%
X171675000Y20000000D03*
%TO.P,R2,2*%
%TO.N,+3V3*%
X173325000Y20000000D03*
%TD*%
D11*
%TO.P,TP6,1,1*%
%TO.N,/SWDIO*%
X166500000Y22000000D03*
%TD*%
%TO.P,TP8,1,1*%
%TO.N,/RESET*%
X168000000Y20500000D03*
%TD*%
D12*
%TO.P,U3,1,BST*%
%TO.N,Net-(C8-Pad1)*%
X158362500Y21450000D03*
%TO.P,U3,2,GND*%
%TO.N,GNDREF*%
X158362500Y20500000D03*
%TO.P,U3,3,FB*%
%TO.N,Net-(R5-Pad1)*%
X158362500Y19550000D03*
%TO.P,U3,4,EN*%
%TO.N,Net-(R4-Pad1)*%
X160637500Y19550000D03*
%TO.P,U3,5,VIN*%
%TO.N,Net-(C4-Pad1)*%
X160637500Y20500000D03*
%TO.P,U3,6,LX*%
%TO.N,Net-(C8-Pad2)*%
X160637500Y21450000D03*
%TD*%
D13*
%TO.P,C6,1*%
%TO.N,+3V3*%
X159975000Y10000000D03*
%TO.P,C6,2*%
%TO.N,GNDREF*%
X158425000Y10000000D03*
%TD*%
D14*
%TO.P,C8,1*%
%TO.N,Net-(C8-Pad1)*%
X158725000Y23000000D03*
%TO.P,C8,2*%
%TO.N,Net-(C8-Pad2)*%
X160275000Y23000000D03*
%TD*%
D15*
%TO.P,SW1,1,A*%
%TO.N,GNDREF*%
X182000000Y12700000D03*
%TO.P,SW1,2,B*%
%TO.N,/PREC*%
X182000000Y9300000D03*
%TD*%
D11*
%TO.P,TP9,1,1*%
%TO.N,/SWCLK*%
X165000000Y25250000D03*
%TD*%
D16*
%TO.P,J5,1,Pin_1*%
%TO.N,/Tracer-*%
X177550000Y24000000D03*
D17*
%TO.P,J5,2,Pin_2*%
%TO.N,+3V3*%
X177550000Y22000000D03*
%TO.P,J5,3,Pin_3*%
%TO.N,GNDREF*%
X177550000Y20000000D03*
%TO.P,J5,4,Pin_4*%
%TO.N,/AIN1*%
X177550000Y18000000D03*
%TO.P,J5,5,Pin_5*%
%TO.N,/AIN2*%
X177550000Y16000000D03*
%TO.P,J5,6,Pin_6*%
%TO.N,/D1{slash}Tx2*%
X177550000Y14000000D03*
%TO.P,J5,7,Pin_7*%
%TO.N,/D2{slash}Rx2*%
X177550000Y12000000D03*
%TO.P,J5,8,Pin_8*%
%TO.N,+15V*%
X177550000Y10000000D03*
%TD*%
D18*
%TO.P,D1,1,K*%
%TO.N,Net-(C8-Pad2)*%
X158850000Y25000000D03*
%TO.P,D1,2,A*%
%TO.N,GNDREF*%
X162150000Y25000000D03*
%TD*%
D15*
%TO.P,SW2,1,A*%
%TO.N,GNDREF*%
X182000000Y21300000D03*
%TO.P,SW2,2,B*%
%TO.N,/CONF*%
X182000000Y24700000D03*
%TD*%
D19*
%TO.P,R20,1*%
%TO.N,/ISENSE_RUN_LP*%
X169325000Y17000000D03*
%TO.P,R20,2*%
%TO.N,/ISENSE_RUN*%
X167675000Y17000000D03*
%TD*%
D10*
%TO.P,R13,1*%
%TO.N,Net-(D3-Pad2)*%
X163175000Y20000000D03*
%TO.P,R13,2*%
%TO.N,+3V3*%
X164825000Y20000000D03*
%TD*%
D14*
%TO.P,C1,1*%
%TO.N,/RESET*%
X168225000Y19000000D03*
%TO.P,C1,2*%
%TO.N,GNDREF*%
X169775000Y19000000D03*
%TD*%
D20*
%TO.P,TP4,1,1*%
%TO.N,/Tracer*%
X166500000Y25250000D03*
%TD*%
%TO.P,TP3,1,1*%
%TO.N,/PWMH*%
X169500000Y13000000D03*
%TD*%
D10*
%TO.P,R5,1*%
%TO.N,Net-(R5-Pad1)*%
X158425000Y16500000D03*
%TO.P,R5,2*%
%TO.N,+5V*%
X160075000Y16500000D03*
%TD*%
D13*
%TO.P,C12,1*%
%TO.N,+3V3*%
X173275000Y18500000D03*
%TO.P,C12,2*%
%TO.N,GNDREF*%
X171725000Y18500000D03*
%TD*%
D19*
%TO.P,R12,1*%
%TO.N,Net-(Q1-Pad1)*%
X169325000Y25500000D03*
%TO.P,R12,2*%
%TO.N,/Tracer*%
X167675000Y25500000D03*
%TD*%
%TO.P,R10,1*%
%TO.N,GNDREF*%
X169325000Y24000000D03*
%TO.P,R10,2*%
%TO.N,/Tracer*%
X167675000Y24000000D03*
%TD*%
D21*
%TO.P,Q3,1,S*%
%TO.N,GNDPWR*%
X139095000Y11100000D03*
%TO.P,Q3,2,S*%
X140365000Y11100000D03*
%TO.P,Q3,3,S*%
X141635000Y11100000D03*
%TO.P,Q3,4,G*%
%TO.N,Net-(Q3-Pad4)*%
X142905000Y11100000D03*
D22*
%TO.P,Q3,5,D*%
%TO.N,/M+*%
X141000000Y15050000D03*
%TD*%
D23*
%TO.P,R15,1*%
%TO.N,Net-(Q3-Pad4)*%
X145000000Y11825000D03*
%TO.P,R15,2*%
%TO.N,/HB_LOW*%
X145000000Y10175000D03*
%TD*%
D24*
%TO.P,C15,1*%
%TO.N,+15V*%
X156500000Y10700000D03*
%TO.P,C15,2*%
%TO.N,GNDPWR*%
X156500000Y8800000D03*
%TD*%
D20*
%TO.P,TP1,1,1*%
%TO.N,/NTC*%
X166500000Y13000000D03*
%TD*%
%TO.P,TP10,1,1*%
%TO.N,/BATT_SENSE*%
X165000000Y13000000D03*
%TD*%
D13*
%TO.P,C20,1*%
%TO.N,/ISENSE_RUN_LP*%
X169275000Y15500000D03*
%TO.P,C20,2*%
%TO.N,GNDREF*%
X167725000Y15500000D03*
%TD*%
D10*
%TO.P,R11,1*%
%TO.N,Net-(D2-Pad2)*%
X163175000Y15500000D03*
%TO.P,R11,2*%
%TO.N,+3V3*%
X164825000Y15500000D03*
%TD*%
%TO.P,R21,1*%
%TO.N,/BATT_SENSE*%
X166675000Y10000000D03*
%TO.P,R21,2*%
%TO.N,+15V*%
X168325000Y10000000D03*
%TD*%
D11*
%TO.P,TP7,1,1*%
%TO.N,/BOOT0*%
X168000000Y22000000D03*
%TD*%
D25*
%TO.P,D2,1,K*%
%TO.N,/LED0*%
X164787500Y17000000D03*
%TO.P,D2,2,A*%
%TO.N,Net-(D2-Pad2)*%
X163212500Y17000000D03*
%TD*%
D20*
%TO.P,TP11,1,1*%
%TO.N,/ISENSE_RUN_LP*%
X168000000Y13000000D03*
%TD*%
D26*
%TO.P,Q2,1,S*%
%TO.N,/M+*%
X149600000Y15905000D03*
%TO.P,Q2,2,S*%
X149600000Y14635000D03*
%TO.P,Q2,3,S*%
X149600000Y13365000D03*
%TO.P,Q2,4,G*%
%TO.N,Net-(Q2-Pad4)*%
X149600000Y12095000D03*
D27*
%TO.P,Q2,5,D*%
%TO.N,+15V*%
X153550000Y14000000D03*
%TD*%
D13*
%TO.P,C19,1*%
%TO.N,/BATT_SENSE*%
X165275000Y11500000D03*
%TO.P,C19,2*%
%TO.N,GNDREF*%
X163725000Y11500000D03*
%TD*%
D23*
%TO.P,R18,1*%
%TO.N,Net-(C17-Pad2)*%
X148000000Y11825000D03*
%TO.P,R18,2*%
%TO.N,Net-(D5-Pad1)*%
X148000000Y10175000D03*
%TD*%
D20*
%TO.P,TP5,1,1*%
%TO.N,/ISENSE_RUN*%
X166500000Y17000000D03*
%TD*%
D19*
%TO.P,R1,1*%
%TO.N,GNDREF*%
X163075000Y8750000D03*
%TO.P,R1,2*%
%TO.N,GNDPWR*%
X161425000Y8750000D03*
%TD*%
%TO.P,R8,1*%
%TO.N,GNDREF*%
X171325000Y22000000D03*
%TO.P,R8,2*%
%TO.N,/BOOT0*%
X169675000Y22000000D03*
%TD*%
D28*
%TO.P,U2,1,VIN*%
%TO.N,+5V*%
X160350000Y14137500D03*
%TO.P,U2,2,GND*%
%TO.N,GNDREF*%
X159400000Y14137500D03*
%TO.P,U2,3,EN*%
%TO.N,+5V*%
X158450000Y14137500D03*
%TO.P,U2,4,NC*%
%TO.N,unconnected-(U2-Pad4)*%
X158450000Y11862500D03*
%TO.P,U2,5,VOUT*%
%TO.N,+3V3*%
X160350000Y11862500D03*
%TD*%
D18*
%TO.P,D5,1,K*%
%TO.N,Net-(D5-Pad1)*%
X149600000Y10000000D03*
%TO.P,D5,2,A*%
%TO.N,+15V*%
X152900000Y10000000D03*
%TD*%
D29*
%TO.P,F1,1*%
%TO.N,+15V*%
X153850000Y20800000D03*
X153850000Y24200000D03*
D30*
X153850000Y22500000D03*
D29*
%TO.P,F1,2*%
%TO.N,+BATT*%
X140150000Y24200000D03*
X140150000Y20800000D03*
D30*
X140150000Y22500000D03*
%TD*%
D31*
%TO.P,Q1,1,G*%
%TO.N,Net-(Q1-Pad1)*%
X171562500Y25450000D03*
%TO.P,Q1,2,S*%
%TO.N,GNDREF*%
X171562500Y23550000D03*
%TO.P,Q1,3,D*%
%TO.N,/Tracer-*%
X173437500Y24500000D03*
%TD*%
D25*
%TO.P,D4,1,K*%
%TO.N,+15V*%
X150537500Y18000000D03*
%TO.P,D4,2,A*%
%TO.N,Net-(D4-Pad2)*%
X148962500Y18000000D03*
%TD*%
D20*
%TO.P,TP2,1,1*%
%TO.N,/PWML*%
X169500000Y11500000D03*
%TD*%
D25*
%TO.P,D3,1,K*%
%TO.N,/LED1*%
X164787500Y18500000D03*
%TO.P,D3,2,A*%
%TO.N,Net-(D3-Pad2)*%
X163212500Y18500000D03*
%TD*%
D23*
%TO.P,R14,1*%
%TO.N,Net-(Q2-Pad4)*%
X146500000Y11825000D03*
%TO.P,R14,2*%
%TO.N,/HB_HIGH*%
X146500000Y10175000D03*
%TD*%
D10*
%TO.P,R16,1*%
%TO.N,+BATT*%
X145925000Y18000000D03*
%TO.P,R16,2*%
%TO.N,Net-(D4-Pad2)*%
X147575000Y18000000D03*
%TD*%
D32*
%TO.N,*%
X173000000Y10500000D03*
D33*
%TO.N,+15V*%
X153000000Y15250000D03*
X152000000Y14250000D03*
X153000000Y17250000D03*
X153000000Y18250000D03*
X153000000Y13250000D03*
X155000000Y17250000D03*
X155000000Y18250000D03*
X154000000Y13250000D03*
X168500000Y8500000D03*
X154000000Y17250000D03*
X152000000Y15250000D03*
X154000000Y18250000D03*
X153000000Y14250000D03*
%TO.N,/M+*%
X147000000Y15500000D03*
X144000000Y15500000D03*
X145000000Y15500000D03*
X146000000Y14500000D03*
X151025000Y10500000D03*
X146000000Y15500000D03*
X147000000Y14500000D03*
X145000000Y14500000D03*
X144000000Y14500000D03*
X148000000Y15500000D03*
X148000000Y14500000D03*
%TO.N,+3V3*%
X165500000Y20000000D03*
X176000000Y22000000D03*
X147000000Y20000000D03*
X162500000Y14500000D03*
X174000000Y20000000D03*
%TO.N,/LED0*%
X165250000Y17000000D03*
%TO.N,/LED1*%
X165250000Y18500000D03*
%TO.N,/Tracer-*%
X176000000Y24000000D03*
%TO.N,/BOOT0*%
X168000000Y22000000D03*
%TO.N,/RESET*%
X168000000Y20500000D03*
X171000000Y20000000D03*
%TO.N,+5V*%
X161500000Y18500000D03*
X162000000Y21500000D03*
%TO.N,/CONF*%
X182000000Y25500000D03*
%TO.N,/HB_HIGH*%
X146750000Y9750000D03*
%TO.N,/HB_LOW*%
X145250000Y9750000D03*
%TO.N,/Tracer*%
X166500000Y25250000D03*
%TO.N,/ISENSE_RUN_LP*%
X170000000Y17000000D03*
X168000000Y13000000D03*
%TO.N,/BATT_SENSE*%
X166000000Y10500000D03*
X165000000Y13000000D03*
%TO.N,/SWDIO*%
X166500000Y22000000D03*
%TO.N,/SWCLK*%
X164997817Y25250000D03*
%TO.N,GNDPWR*%
X136500000Y9500000D03*
X139500000Y10750000D03*
X137500000Y9500000D03*
X141500000Y9500000D03*
X135250000Y10750000D03*
X135250000Y9500000D03*
X138500000Y9500000D03*
X141500000Y10750000D03*
X138500000Y10750000D03*
X140500000Y9500000D03*
X140500000Y10750000D03*
X137500000Y10750000D03*
X139500000Y9500000D03*
X161000000Y8500000D03*
X136250000Y10750000D03*
%TO.N,GNDREF*%
X173500000Y23000000D03*
X179500000Y24500000D03*
X170500000Y18250000D03*
X175500000Y13000000D03*
X182000000Y20500000D03*
X179500000Y9000000D03*
X163750000Y10250000D03*
X182000000Y13500000D03*
X175500000Y23000000D03*
X169750000Y9750000D03*
X163750000Y12500000D03*
X171000000Y24000000D03*
X179500000Y15000000D03*
X159000000Y9250000D03*
X173500000Y25500000D03*
X161500000Y16500000D03*
X173500000Y16000000D03*
X179500000Y21000000D03*
X166500000Y11500000D03*
X157500000Y15000000D03*
X163487701Y25012299D03*
X159400000Y13200000D03*
X176500000Y19500000D03*
X159250000Y18500000D03*
X149000000Y22000000D03*
X157500000Y25250000D03*
%TO.N,Net-(Q1-Pad1)*%
X170500000Y25500000D03*
%TO.N,Net-(R4-Pad1)*%
X160500000Y19503361D03*
%TO.N,/NTC*%
X161400000Y13200000D03*
X166500000Y13000000D03*
%TO.N,/ISENSE_RUN*%
X150250000Y19500000D03*
X166500000Y17000000D03*
%TO.N,/PWMH*%
X169500000Y13000000D03*
X154250000Y11000000D03*
%TO.N,/PWML*%
X169500000Y11500000D03*
X154250000Y10000000D03*
%TO.N,/PREC*%
X182000000Y8500000D03*
X171000000Y13000000D03*
%TO.N,Net-(R5-Pad1)*%
X159000000Y16500000D03*
%TO.N,Net-(C4-Pad1)*%
X159750000Y20500000D03*
%TO.N,Net-(C8-Pad2)*%
X161500000Y23000000D03*
%TO.N,Net-(C17-Pad2)*%
X148250000Y12000000D03*
%TD*%
D34*
%TO.N,+15V*%
X152750000Y18000000D02*
X153000000Y18250000D01*
D35*
X154550000Y13000000D02*
X153550000Y14000000D01*
D36*
X168325000Y8675000D02*
X168500000Y8500000D01*
D34*
X150537500Y18000000D02*
X152750000Y18000000D01*
D36*
X168325000Y10000000D02*
X168325000Y8675000D01*
D34*
%TO.N,+3V3*%
X173500000Y20000000D02*
X173500000Y18725000D01*
X161362500Y11862500D02*
X160350000Y11862500D01*
X173500000Y18725000D02*
X173275000Y18500000D01*
X173500000Y20000000D02*
X173500000Y21500000D01*
D37*
X174000000Y20000000D02*
X173500000Y20000000D01*
D34*
X162500000Y14500000D02*
X162500000Y13000000D01*
X164825000Y20000000D02*
X165500000Y20000000D01*
X160400000Y11812500D02*
X160400000Y10425000D01*
X174000000Y22000000D02*
X176000000Y22000000D01*
X162500000Y13000000D02*
X161362500Y11862500D01*
X160350000Y11862500D02*
X160400000Y11812500D01*
X163825000Y14500000D02*
X164825000Y15500000D01*
X160400000Y10425000D02*
X159975000Y10000000D01*
X159975000Y10000000D02*
X159775000Y10000000D01*
X162500000Y14500000D02*
X163825000Y14500000D01*
X173500000Y21500000D02*
X174000000Y22000000D01*
X177550000Y22000000D02*
X176000000Y22000000D01*
%TO.N,/LED0*%
X165250000Y17000000D02*
X164787500Y17000000D01*
%TO.N,/LED1*%
X164787500Y18500000D02*
X165250000Y18500000D01*
D37*
%TO.N,/Tracer-*%
X176000000Y24000000D02*
X175500000Y24000000D01*
X175500000Y24000000D02*
X175000000Y24500000D01*
X175000000Y24500000D02*
X173437500Y24500000D01*
X177550000Y24000000D02*
X176000000Y24000000D01*
%TO.N,/BOOT0*%
X168000000Y22000000D02*
X169675000Y22000000D01*
%TO.N,/RESET*%
X168225000Y20275000D02*
X168225000Y19000000D01*
X171000000Y20000000D02*
X168000000Y20000000D01*
X168000000Y20000000D02*
X168000000Y20500000D01*
X168000000Y20500000D02*
X168225000Y20275000D01*
X171000000Y20000000D02*
X171675000Y20000000D01*
D34*
%TO.N,+5V*%
X160350000Y14137500D02*
X160350000Y15200000D01*
X160075000Y16500000D02*
X160075000Y15875000D01*
X158900000Y15500000D02*
X160000000Y15500000D01*
X161500000Y18500000D02*
X160075000Y17075000D01*
X160000000Y15800000D02*
X160000000Y15500000D01*
X160075000Y17075000D02*
X160075000Y16500000D01*
X158450000Y15050000D02*
X158900000Y15500000D01*
X160075000Y15875000D02*
X160000000Y15800000D01*
X160350000Y15200000D02*
X160050000Y15500000D01*
X158450000Y14137500D02*
X158450000Y15050000D01*
X160050000Y15500000D02*
X160000000Y15500000D01*
D37*
%TO.N,/CONF*%
X182000000Y25500000D02*
X182000000Y24700000D01*
D34*
%TO.N,/HB_HIGH*%
X146500000Y10175000D02*
X146500000Y10000000D01*
X146500000Y10000000D02*
X146750000Y9750000D01*
%TO.N,/HB_LOW*%
X145250000Y9750000D02*
X145000000Y10000000D01*
X145000000Y10000000D02*
X145000000Y10175000D01*
D37*
%TO.N,/Tracer*%
X166500000Y25250000D02*
X166750000Y25500000D01*
X166750000Y25500000D02*
X167675000Y25500000D01*
X167675000Y25500000D02*
X167675000Y24000000D01*
%TO.N,/ISENSE_RUN_LP*%
X170000000Y17000000D02*
X169325000Y17000000D01*
X169325000Y17000000D02*
X169325000Y15550000D01*
X169325000Y15550000D02*
X169275000Y15500000D01*
D34*
%TO.N,/BATT_SENSE*%
X166500000Y10000000D02*
X166000000Y10500000D01*
D37*
X165000000Y13000000D02*
X165275000Y12725000D01*
X165275000Y12725000D02*
X165275000Y11500000D01*
D34*
X166000000Y10775000D02*
X165275000Y11500000D01*
X166675000Y10000000D02*
X166500000Y10000000D01*
X166000000Y10500000D02*
X166000000Y10775000D01*
D37*
X165325000Y11450000D02*
X165275000Y11500000D01*
D34*
%TO.N,Net-(D4-Pad2)*%
X147575000Y18000000D02*
X148962500Y18000000D01*
%TO.N,Net-(D3-Pad2)*%
X163212500Y19962500D02*
X163175000Y20000000D01*
X163212500Y18500000D02*
X163212500Y19962500D01*
D38*
%TO.N,GNDPWR*%
X161175000Y8500000D02*
X161425000Y8750000D01*
X156500000Y8250000D02*
X156500000Y8800000D01*
X161000000Y8500000D02*
X161175000Y8500000D01*
X160750000Y8250000D02*
X156500000Y8250000D01*
X161000000Y8500000D02*
X160750000Y8250000D01*
D36*
%TO.N,GNDREF*%
X163675000Y11450000D02*
X163725000Y11500000D01*
D34*
X182000000Y13500000D02*
X182000000Y12700000D01*
X163487701Y25012299D02*
X163475402Y25000000D01*
D37*
X171562500Y23550000D02*
X171450000Y23550000D01*
X170450000Y23550000D02*
X170000000Y24000000D01*
D36*
X170500000Y18250000D02*
X171475000Y18250000D01*
D37*
X170000000Y24000000D02*
X169325000Y24000000D01*
D36*
X171475000Y18250000D02*
X171725000Y18500000D01*
X169775000Y19000000D02*
X170300000Y18475000D01*
D34*
X159400000Y14137500D02*
X159400000Y13200000D01*
X159000000Y9250000D02*
X158975000Y9250000D01*
D36*
X171700000Y18475000D02*
X171725000Y18500000D01*
X170300000Y18475000D02*
X171700000Y18475000D01*
D37*
X171450000Y23550000D02*
X171000000Y24000000D01*
D34*
X182000000Y20500000D02*
X182000000Y21300000D01*
D37*
X171562500Y23550000D02*
X170450000Y23550000D01*
D34*
X158975000Y9250000D02*
X158225000Y10000000D01*
X163475402Y25000000D02*
X162150000Y25000000D01*
D37*
%TO.N,Net-(Q1-Pad1)*%
X170550000Y25450000D02*
X170500000Y25500000D01*
X169325000Y25500000D02*
X170500000Y25500000D01*
X171562500Y25450000D02*
X170550000Y25450000D01*
D34*
%TO.N,Net-(D5-Pad1)*%
X148175000Y10000000D02*
X148000000Y10175000D01*
X149600000Y10000000D02*
X148175000Y10000000D01*
%TO.N,Net-(D2-Pad2)*%
X163175000Y15500000D02*
X163175000Y16962500D01*
X163175000Y16962500D02*
X163212500Y17000000D01*
%TO.N,Net-(R4-Pad1)*%
X160500000Y19503361D02*
X160546639Y19550000D01*
X160546639Y19550000D02*
X160637500Y19550000D01*
D37*
%TO.N,/ISENSE_RUN*%
X166500000Y17000000D02*
X167675000Y17000000D01*
D34*
%TO.N,Net-(Q2-Pad4)*%
X149600000Y12095000D02*
X149600000Y11600000D01*
X149000000Y11000000D02*
X147325000Y11000000D01*
X149600000Y11600000D02*
X149000000Y11000000D01*
X147325000Y11000000D02*
X146500000Y11825000D01*
%TO.N,Net-(Q3-Pad4)*%
X145000000Y11825000D02*
X144575000Y11825000D01*
X144575000Y11825000D02*
X143850000Y11100000D01*
X143850000Y11100000D02*
X142905000Y11100000D01*
D37*
%TO.N,/PREC*%
X182000000Y8500000D02*
X182000000Y9300000D01*
D34*
%TO.N,Net-(R5-Pad1)*%
X159000000Y16500000D02*
X158425000Y16500000D01*
X158362500Y16562500D02*
X158362500Y19550000D01*
X158425000Y16500000D02*
X158362500Y16562500D01*
%TO.N,Net-(C4-Pad1)*%
X159750000Y20500000D02*
X160637500Y20500000D01*
%TO.N,Net-(C8-Pad1)*%
X158362500Y21450000D02*
X158362500Y22637500D01*
X158362500Y22637500D02*
X158725000Y23000000D01*
%TO.N,Net-(C8-Pad2)*%
X158850000Y24400000D02*
X160250000Y23000000D01*
X160250000Y23000000D02*
X160275000Y23000000D01*
X158850000Y25000000D02*
X158850000Y24400000D01*
X160750000Y23000000D02*
X160275000Y23000000D01*
X161500000Y23000000D02*
X160275000Y23000000D01*
X160637500Y21450000D02*
X160637500Y22887500D01*
X160637500Y22887500D02*
X160750000Y23000000D01*
%TO.N,Net-(C17-Pad2)*%
X148250000Y12000000D02*
X148075000Y11825000D01*
X148075000Y11825000D02*
X148000000Y11825000D01*
%TO.N,+BATT*%
X145925000Y18000000D02*
X145250000Y18000000D01*
X142450000Y20800000D02*
X140150000Y20800000D01*
X145250000Y18000000D02*
X142450000Y20800000D01*
%TD*%
%TA.AperFunction,Conductor*%
%TO.N,GNDPWR*%
G36*
X141765677Y11480315D02*
G01*
X141786319Y11463681D01*
X141963681Y11286319D01*
X141997166Y11224996D01*
X142000000Y11198638D01*
X142000000Y9000000D01*
X142250000Y8750000D01*
X156876000Y8750000D01*
X156943039Y8730315D01*
X156988794Y8677511D01*
X157000000Y8626000D01*
X157000000Y8301362D01*
X156980315Y8234323D01*
X156963681Y8213681D01*
X156786819Y8036819D01*
X156725496Y8003334D01*
X156699138Y8000500D01*
X142050862Y8000500D01*
X141983823Y8020185D01*
X141963181Y8036819D01*
X141500000Y8500000D01*
X135051362Y8500000D01*
X134984323Y8519685D01*
X134963681Y8536319D01*
X134536819Y8963181D01*
X134503334Y9024504D01*
X134500500Y9050862D01*
X134500500Y10949138D01*
X134520185Y11016177D01*
X134536819Y11036819D01*
X134963681Y11463681D01*
X135025004Y11497166D01*
X135051362Y11500000D01*
X141698638Y11500000D01*
X141765677Y11480315D01*
G37*
%TD.AperFunction*%
%TD*%
%TA.AperFunction,Conductor*%
%TO.N,/M+*%
G36*
X143015931Y17729998D02*
G01*
X143036905Y17713095D01*
X144500000Y16250000D01*
X149697810Y16250000D01*
X149765931Y16229998D01*
X149786905Y16213095D01*
X149963095Y16036905D01*
X149997121Y15974593D01*
X150000000Y15947810D01*
X150000000Y13302190D01*
X149979998Y13234069D01*
X149963095Y13213095D01*
X149786905Y13036905D01*
X149724593Y13002879D01*
X149697810Y13000000D01*
X148314211Y13000000D01*
X148301040Y13000690D01*
X148263147Y13004673D01*
X148263146Y13004673D01*
X148257019Y13005317D01*
X148207961Y13000852D01*
X148204298Y13000519D01*
X148192878Y13000000D01*
X144000000Y13000000D01*
X143786905Y12786905D01*
X143724593Y12752879D01*
X143697810Y12750000D01*
X138802190Y12750000D01*
X138734069Y12770002D01*
X138713095Y12786905D01*
X138536905Y12963095D01*
X138502879Y13025407D01*
X138500000Y13052190D01*
X138500000Y17447810D01*
X138520002Y17515931D01*
X138536905Y17536905D01*
X138713095Y17713095D01*
X138775407Y17747121D01*
X138802190Y17750000D01*
X142947810Y17750000D01*
X143015931Y17729998D01*
G37*
%TD.AperFunction*%
%TD*%
%TA.AperFunction,Conductor*%
%TO.N,GNDREF*%
G36*
X163779243Y13773089D02*
G01*
X163792386Y13771089D01*
X163792390Y13771089D01*
X163799508Y13770006D01*
X163827526Y13772285D01*
X163895941Y13758100D01*
X163945826Y13709179D01*
X163961344Y13641055D01*
X163960020Y13632589D01*
X163960364Y13632547D01*
X163949500Y13542772D01*
X163949500Y12457228D01*
X163960364Y12367453D01*
X163963296Y12360049D01*
X163963296Y12360047D01*
X164007930Y12247315D01*
X164015887Y12227217D01*
X164020997Y12220485D01*
X164020998Y12220483D01*
X164049770Y12182578D01*
X164074622Y12117278D01*
X164075000Y12107608D01*
X164075000Y10704325D01*
X164078980Y10690770D01*
X164092220Y10688786D01*
X164107618Y10692912D01*
X164232470Y10744627D01*
X164246432Y10752687D01*
X164279049Y10777715D01*
X164344218Y10802909D01*
X164412663Y10788870D01*
X164451443Y10756700D01*
X164493842Y10703588D01*
X164493847Y10703583D01*
X164498169Y10698169D01*
X164503583Y10693847D01*
X164507438Y10690770D01*
X164634140Y10589625D01*
X164640375Y10586611D01*
X164640378Y10586609D01*
X164704542Y10555591D01*
X164790779Y10513902D01*
X164797533Y10512343D01*
X164797535Y10512342D01*
X164960302Y10474765D01*
X164959822Y10472685D01*
X165015088Y10447500D01*
X165052910Y10388752D01*
X165057526Y10364097D01*
X165060592Y10327586D01*
X165062261Y10321766D01*
X165062261Y10321765D01*
X165107508Y10163971D01*
X165111971Y10148405D01*
X165114743Y10143011D01*
X165114744Y10143009D01*
X165186543Y10003305D01*
X165197176Y9982615D01*
X165312959Y9836532D01*
X165454912Y9715721D01*
X165460210Y9712760D01*
X165552278Y9661305D01*
X165617627Y9624783D01*
X165669849Y9607815D01*
X165727524Y9568377D01*
X165749154Y9529133D01*
X165790744Y9404471D01*
X165819901Y9357354D01*
X165879043Y9261780D01*
X165879046Y9261776D01*
X165882834Y9255655D01*
X165887931Y9250567D01*
X165996098Y9142589D01*
X166006689Y9132016D01*
X166155666Y9040186D01*
X166321772Y8985090D01*
X166376316Y8979502D01*
X166421987Y8974822D01*
X166421995Y8974822D01*
X166425134Y8974500D01*
X166924866Y8974500D01*
X167029519Y8985359D01*
X167035956Y8987507D01*
X167035958Y8987507D01*
X167188695Y9038464D01*
X167195529Y9040744D01*
X167291286Y9100000D01*
X167338220Y9129043D01*
X167338224Y9129046D01*
X167344345Y9132834D01*
X167349429Y9137927D01*
X167349438Y9137934D01*
X167362743Y9151263D01*
X167424037Y9184801D01*
X167493733Y9179877D01*
X167549703Y9138055D01*
X167574176Y9072612D01*
X167574500Y9063658D01*
X167574500Y8745284D01*
X167568696Y8707793D01*
X167565772Y8698576D01*
X167565096Y8692550D01*
X167565095Y8692545D01*
X167549217Y8550987D01*
X167544994Y8513335D01*
X167560592Y8327586D01*
X167562261Y8321765D01*
X167562263Y8321755D01*
X167594687Y8208679D01*
X167594244Y8138811D01*
X167556097Y8080274D01*
X167492359Y8051653D01*
X167475491Y8050500D01*
X163880966Y8050500D01*
X163813927Y8070185D01*
X163768172Y8122989D01*
X163758228Y8192147D01*
X163765674Y8220148D01*
X163811215Y8335171D01*
X163815103Y8350478D01*
X163818953Y8382301D01*
X163816595Y8396447D01*
X163803975Y8400000D01*
X162849000Y8400000D01*
X162781961Y8419685D01*
X162736206Y8472489D01*
X162725000Y8524000D01*
X162725000Y9117830D01*
X163425000Y9117830D01*
X163429404Y9102831D01*
X163430774Y9101644D01*
X163438332Y9100000D01*
X163803265Y9100000D01*
X163817027Y9104041D01*
X163819038Y9116999D01*
X163815103Y9149522D01*
X163811214Y9164832D01*
X163761786Y9289674D01*
X163753561Y9304270D01*
X163672675Y9410833D01*
X163660833Y9422675D01*
X163554270Y9503561D01*
X163539674Y9511786D01*
X163441576Y9550625D01*
X163427756Y9551892D01*
X163425000Y9547076D01*
X163425000Y9117830D01*
X162725000Y9117830D01*
X162725000Y9539358D01*
X162721090Y9552675D01*
X162715597Y9553465D01*
X162610326Y9511786D01*
X162595730Y9503561D01*
X162489167Y9422675D01*
X162477324Y9410832D01*
X162471659Y9403369D01*
X162415447Y9361872D01*
X162345724Y9357354D01*
X162284626Y9391248D01*
X162267447Y9413091D01*
X162261517Y9422675D01*
X162217166Y9494345D01*
X162143005Y9568377D01*
X162098409Y9612895D01*
X162098408Y9612895D01*
X162093311Y9617984D01*
X162083646Y9623942D01*
X162000596Y9675134D01*
X161944334Y9709814D01*
X161778228Y9764910D01*
X161723684Y9770498D01*
X161678013Y9775178D01*
X161678005Y9775178D01*
X161674866Y9775500D01*
X161175134Y9775500D01*
X161112298Y9768980D01*
X161043585Y9781641D01*
X160992624Y9829440D01*
X160975500Y9892318D01*
X160975500Y9936266D01*
X160995185Y10003305D01*
X161000759Y10010828D01*
X161003027Y10014229D01*
X161007692Y10019720D01*
X161010969Y10026139D01*
X161014062Y10030776D01*
X161016992Y10035520D01*
X161021466Y10041175D01*
X161033788Y10067539D01*
X161051005Y10104376D01*
X161052905Y10108263D01*
X161081350Y10163971D01*
X161081350Y10163972D01*
X161084627Y10170389D01*
X161086339Y10177386D01*
X161088287Y10182623D01*
X161090047Y10187914D01*
X161093096Y10194438D01*
X161101349Y10234113D01*
X161107306Y10262755D01*
X161108262Y10266977D01*
X161114041Y10290593D01*
X161124838Y10334717D01*
X161125500Y10345388D01*
X161125524Y10345387D01*
X161125783Y10349691D01*
X161126080Y10353015D01*
X161127547Y10360069D01*
X161125545Y10434056D01*
X161125500Y10437410D01*
X161125500Y10996062D01*
X161136486Y11047091D01*
X161139255Y11053223D01*
X161143127Y11059617D01*
X161144725Y11064717D01*
X161189663Y11117028D01*
X161257148Y11137000D01*
X161298093Y11137000D01*
X161316743Y11135589D01*
X161329886Y11133589D01*
X161329890Y11133589D01*
X161337008Y11132506D01*
X161339332Y11132695D01*
X162935481Y11132695D01*
X162938739Y11107951D01*
X162942910Y11092386D01*
X162994627Y10967530D01*
X163002685Y10953572D01*
X163084961Y10846348D01*
X163096348Y10834961D01*
X163203572Y10752685D01*
X163217530Y10744627D01*
X163342382Y10692912D01*
X163357527Y10688854D01*
X163371282Y10690999D01*
X163375000Y10703947D01*
X163375000Y11132170D01*
X163370596Y11147169D01*
X163369226Y11148356D01*
X163361668Y11150000D01*
X162951033Y11150000D01*
X162937478Y11146020D01*
X162935481Y11132695D01*
X161339332Y11132695D01*
X161387243Y11136592D01*
X161397296Y11137000D01*
X161404863Y11137000D01*
X161419416Y11138697D01*
X161431804Y11140141D01*
X161436112Y11140567D01*
X161498450Y11145637D01*
X161498452Y11145637D01*
X161505627Y11146221D01*
X161512475Y11148439D01*
X161517939Y11149531D01*
X161523381Y11150818D01*
X161530537Y11151652D01*
X161537306Y11154109D01*
X161537310Y11154110D01*
X161596101Y11175450D01*
X161600194Y11176855D01*
X161659715Y11196137D01*
X161659725Y11196141D01*
X161666567Y11198358D01*
X161672716Y11202089D01*
X161677777Y11204406D01*
X161682792Y11206918D01*
X161689561Y11209375D01*
X161747910Y11247631D01*
X161751520Y11249909D01*
X161811198Y11286122D01*
X161815333Y11289774D01*
X161815337Y11289777D01*
X161819212Y11293200D01*
X161819228Y11293181D01*
X161822451Y11296039D01*
X161825014Y11298182D01*
X161831040Y11302133D01*
X161881932Y11355856D01*
X161884272Y11358260D01*
X162393687Y11867675D01*
X162935530Y11867675D01*
X162937706Y11853719D01*
X162950657Y11850000D01*
X163357170Y11850000D01*
X163372169Y11854404D01*
X163373356Y11855774D01*
X163375000Y11863332D01*
X163375000Y12295675D01*
X163371020Y12309230D01*
X163357780Y12311214D01*
X163342382Y12307088D01*
X163217530Y12255373D01*
X163203572Y12247315D01*
X163096348Y12165039D01*
X163084961Y12153652D01*
X163002685Y12046428D01*
X162994627Y12032470D01*
X162942910Y11907614D01*
X162938739Y11892049D01*
X162935530Y11867675D01*
X162393687Y11867675D01*
X162967461Y12441449D01*
X162981643Y12453637D01*
X162998158Y12465791D01*
X163030795Y12504207D01*
X163037615Y12511603D01*
X163042961Y12516949D01*
X163059815Y12538251D01*
X163062526Y12541557D01*
X163069505Y12549771D01*
X163107692Y12594720D01*
X163110970Y12601139D01*
X163114062Y12605776D01*
X163116992Y12610520D01*
X163121466Y12616175D01*
X163124520Y12622709D01*
X163151005Y12679376D01*
X163152905Y12683263D01*
X163181350Y12738971D01*
X163181350Y12738972D01*
X163184627Y12745389D01*
X163186339Y12752386D01*
X163188287Y12757623D01*
X163190047Y12762914D01*
X163193096Y12769438D01*
X163207306Y12837757D01*
X163208262Y12841977D01*
X163209118Y12845476D01*
X163224838Y12909717D01*
X163225500Y12920388D01*
X163225524Y12920387D01*
X163225783Y12924691D01*
X163226080Y12928015D01*
X163227547Y12935069D01*
X163225545Y13009056D01*
X163225500Y13012410D01*
X163225500Y13650500D01*
X163245185Y13717539D01*
X163297989Y13763294D01*
X163349500Y13774500D01*
X163760593Y13774500D01*
X163779243Y13773089D01*
G37*
%TD.AperFunction*%
%TA.AperFunction,Conductor*%
G36*
X181042984Y25929815D02*
G01*
X181088739Y25877011D01*
X181098683Y25807853D01*
X181094140Y25788005D01*
X181087271Y25766352D01*
X181048237Y25708403D01*
X181014724Y25688555D01*
X180999740Y25682623D01*
X180885079Y25637226D01*
X180885078Y25637225D01*
X180877217Y25634113D01*
X180870483Y25629001D01*
X180870482Y25629001D01*
X180807474Y25581175D01*
X180757078Y25542922D01*
X180751968Y25536190D01*
X180684884Y25447810D01*
X180665887Y25422783D01*
X180662775Y25414922D01*
X180662774Y25414921D01*
X180635357Y25345672D01*
X180610364Y25282547D01*
X180609408Y25274643D01*
X180609407Y25274641D01*
X180605978Y25246305D01*
X180599500Y25192772D01*
X180599500Y24207228D01*
X180601077Y24194197D01*
X180609056Y24128264D01*
X180610364Y24117453D01*
X180613296Y24110049D01*
X180613296Y24110047D01*
X180647646Y24023290D01*
X180665887Y23977217D01*
X180670999Y23970483D01*
X180670999Y23970482D01*
X180734468Y23886865D01*
X180757078Y23857078D01*
X180763810Y23851968D01*
X180866529Y23774000D01*
X180877217Y23765887D01*
X180885078Y23762775D01*
X180885079Y23762774D01*
X181010047Y23713296D01*
X181010049Y23713296D01*
X181017453Y23710364D01*
X181025357Y23709408D01*
X181025359Y23709407D01*
X181078073Y23703028D01*
X181107228Y23699500D01*
X182892772Y23699500D01*
X182921927Y23703028D01*
X182974641Y23709407D01*
X182974643Y23709408D01*
X182982547Y23710364D01*
X182989951Y23713296D01*
X182989953Y23713296D01*
X183114921Y23762774D01*
X183114922Y23762775D01*
X183122783Y23765887D01*
X183133472Y23774000D01*
X183236190Y23851968D01*
X183242922Y23857078D01*
X183243295Y23856587D01*
X183299142Y23887082D01*
X183368834Y23882098D01*
X183424767Y23840226D01*
X183449184Y23774762D01*
X183449500Y23765916D01*
X183449500Y21000862D01*
X183429815Y20933823D01*
X183413181Y20913181D01*
X183400477Y20900477D01*
X183339154Y20866992D01*
X183269462Y20871976D01*
X183213529Y20913848D01*
X183197809Y20945251D01*
X183194226Y20948356D01*
X183186668Y20950000D01*
X180817831Y20950000D01*
X180802832Y20945596D01*
X180801645Y20944226D01*
X180800001Y20936668D01*
X180800001Y20821358D01*
X180800662Y20812336D01*
X180808722Y20757574D01*
X180814375Y20739378D01*
X180856961Y20652642D01*
X180868734Y20636197D01*
X180914748Y20590263D01*
X180948286Y20528969D01*
X180943363Y20459273D01*
X180914824Y20414824D01*
X180500000Y20000000D01*
X180500000Y14000000D01*
X180914802Y13585198D01*
X180948287Y13523875D01*
X180943303Y13454183D01*
X180914880Y13409913D01*
X180868359Y13363309D01*
X180856619Y13346850D01*
X180814177Y13260023D01*
X180808559Y13241848D01*
X180800649Y13187628D01*
X180800000Y13178680D01*
X180800000Y13067830D01*
X180804404Y13052831D01*
X180805774Y13051644D01*
X180813332Y13050000D01*
X183182169Y13050000D01*
X183197168Y13054404D01*
X183216079Y13076229D01*
X183227495Y13097137D01*
X183288817Y13130624D01*
X183358509Y13125642D01*
X183402860Y13097140D01*
X183413181Y13086819D01*
X183446666Y13025496D01*
X183449500Y12999138D01*
X183449500Y10234084D01*
X183429815Y10167045D01*
X183377011Y10121290D01*
X183307853Y10111346D01*
X183245156Y10139979D01*
X183242922Y10142922D01*
X183236190Y10148032D01*
X183129518Y10229001D01*
X183129517Y10229001D01*
X183122783Y10234113D01*
X183114922Y10237225D01*
X183114921Y10237226D01*
X182989953Y10286704D01*
X182989951Y10286704D01*
X182982547Y10289636D01*
X182974643Y10290592D01*
X182974641Y10290593D01*
X182921927Y10296972D01*
X182892772Y10300500D01*
X181107228Y10300500D01*
X181078073Y10296972D01*
X181025359Y10290593D01*
X181025357Y10290592D01*
X181017453Y10289636D01*
X181010049Y10286704D01*
X181010047Y10286704D01*
X180885079Y10237226D01*
X180885078Y10237225D01*
X180877217Y10234113D01*
X180870483Y10229001D01*
X180870482Y10229001D01*
X180763810Y10148032D01*
X180757078Y10142922D01*
X180751968Y10136190D01*
X180682692Y10044922D01*
X180665887Y10022783D01*
X180662775Y10014922D01*
X180662774Y10014921D01*
X180613296Y9889953D01*
X180610364Y9882547D01*
X180609408Y9874643D01*
X180609407Y9874641D01*
X180604320Y9832601D01*
X180599500Y9792772D01*
X180599500Y8807228D01*
X180600613Y8798034D01*
X180606091Y8752767D01*
X180610364Y8717453D01*
X180613296Y8710049D01*
X180613296Y8710047D01*
X180625400Y8679477D01*
X180665887Y8577217D01*
X180670999Y8570483D01*
X180670999Y8570482D01*
X180739218Y8480607D01*
X180757078Y8457078D01*
X180763810Y8451968D01*
X180813847Y8413988D01*
X180877217Y8365887D01*
X180885078Y8362775D01*
X180885079Y8362774D01*
X180916136Y8350478D01*
X181014957Y8311352D01*
X181070041Y8268373D01*
X181088506Y8230237D01*
X181094688Y8208676D01*
X181094243Y8138808D01*
X181056095Y8080272D01*
X180992356Y8051652D01*
X180975491Y8050500D01*
X169524156Y8050500D01*
X169457117Y8070185D01*
X169411362Y8122989D01*
X169401418Y8192147D01*
X169406496Y8213641D01*
X169429449Y8282640D01*
X169429451Y8282647D01*
X169431364Y8288399D01*
X169433378Y8304337D01*
X169448638Y8425134D01*
X169454727Y8473332D01*
X169455099Y8500000D01*
X169454384Y8507289D01*
X169437501Y8679477D01*
X169437501Y8679479D01*
X169436909Y8685513D01*
X169383033Y8863960D01*
X169372258Y8884226D01*
X169298371Y9023186D01*
X169298371Y9023187D01*
X169295522Y9028544D01*
X169177710Y9172995D01*
X169176737Y9173800D01*
X169144257Y9233778D01*
X169149484Y9303452D01*
X169159956Y9324780D01*
X169195236Y9382016D01*
X169209814Y9405666D01*
X169264910Y9571772D01*
X169271973Y9640707D01*
X169275178Y9671987D01*
X169275178Y9671995D01*
X169275500Y9675134D01*
X169275500Y10324866D01*
X169277018Y10324866D01*
X169291808Y10387027D01*
X169342162Y10435464D01*
X169399467Y10449500D01*
X170042772Y10449500D01*
X170071927Y10453028D01*
X170124641Y10459407D01*
X170124643Y10459408D01*
X170132547Y10460364D01*
X170139951Y10463296D01*
X170139953Y10463296D01*
X170264921Y10512774D01*
X170264922Y10512775D01*
X170272783Y10515887D01*
X170383354Y10599815D01*
X170386190Y10601968D01*
X170392922Y10607078D01*
X170484113Y10727217D01*
X170490895Y10744345D01*
X170536704Y10860047D01*
X170536704Y10860049D01*
X170539636Y10867453D01*
X170545341Y10914592D01*
X170546972Y10928073D01*
X170550500Y10957228D01*
X170550500Y11975922D01*
X170570185Y12042961D01*
X170622989Y12088716D01*
X170692147Y12098660D01*
X170712818Y12093853D01*
X170789139Y12069055D01*
X170794907Y12067181D01*
X170979998Y12045110D01*
X170986041Y12045575D01*
X170986043Y12045575D01*
X171043482Y12049995D01*
X171165851Y12059411D01*
X171243235Y12081017D01*
X171339547Y12107907D01*
X171339551Y12107909D01*
X171345387Y12109538D01*
X171350794Y12112269D01*
X171350801Y12112272D01*
X171390062Y12132105D01*
X171458776Y12144762D01*
X171523424Y12118261D01*
X171563482Y12061014D01*
X171566232Y11991199D01*
X171535919Y11936070D01*
X171416371Y11810092D01*
X171413909Y11806666D01*
X171413905Y11806661D01*
X171406627Y11796532D01*
X171253223Y11583048D01*
X171243506Y11564696D01*
X171133422Y11356782D01*
X171122398Y11335962D01*
X171104159Y11286122D01*
X171042280Y11117028D01*
X171026317Y11073408D01*
X171025420Y11069294D01*
X170976810Y10846348D01*
X170966757Y10800243D01*
X170966426Y10796039D01*
X170966426Y10796038D01*
X170961629Y10735079D01*
X170944822Y10521523D01*
X170960916Y10242404D01*
X170961729Y10238262D01*
X170961729Y10238259D01*
X171011884Y9982615D01*
X171014741Y9968052D01*
X171016107Y9964061D01*
X171016109Y9964055D01*
X171082899Y9768980D01*
X171105303Y9703543D01*
X171150894Y9612895D01*
X171221243Y9473023D01*
X171230925Y9453772D01*
X171271227Y9395132D01*
X171382123Y9233778D01*
X171389282Y9223361D01*
X171577444Y9016573D01*
X171791930Y8837235D01*
X172028771Y8688665D01*
X172217387Y8603501D01*
X172258189Y8585079D01*
X172283583Y8573613D01*
X172287624Y8572416D01*
X172547603Y8495406D01*
X172547608Y8495405D01*
X172551652Y8494207D01*
X172688071Y8473332D01*
X172823840Y8452556D01*
X172823845Y8452556D01*
X172828018Y8451917D01*
X172985931Y8449437D01*
X173103348Y8447592D01*
X173103352Y8447592D01*
X173107566Y8447526D01*
X173186500Y8457078D01*
X173380936Y8480607D01*
X173380941Y8480608D01*
X173385123Y8481114D01*
X173655554Y8552060D01*
X173913855Y8659052D01*
X173969068Y8691316D01*
X174151599Y8797978D01*
X174151604Y8797981D01*
X174155245Y8800109D01*
X174158563Y8802710D01*
X174158568Y8802714D01*
X174371933Y8970014D01*
X174375258Y8972621D01*
X174569823Y9173397D01*
X174735340Y9398720D01*
X174816651Y9548477D01*
X174866728Y9640707D01*
X174866728Y9640708D01*
X174868745Y9644422D01*
X174880624Y9675859D01*
X174966080Y9902012D01*
X174966081Y9902016D01*
X174967570Y9905956D01*
X174971235Y9921956D01*
X174980077Y9960562D01*
X176095066Y9960562D01*
X176105670Y9872935D01*
X176120547Y9750000D01*
X176121883Y9738956D01*
X176123508Y9733674D01*
X176183287Y9539358D01*
X176187519Y9525600D01*
X176190052Y9520693D01*
X176190053Y9520690D01*
X176284465Y9337772D01*
X176289901Y9327241D01*
X176308155Y9303452D01*
X176422430Y9154524D01*
X176422434Y9154520D01*
X176425790Y9150146D01*
X176590893Y8999914D01*
X176779990Y8881293D01*
X176785107Y8879236D01*
X176785111Y8879234D01*
X176918611Y8825568D01*
X176987105Y8798034D01*
X177205690Y8752767D01*
X177262349Y8749500D01*
X177806630Y8749500D01*
X177809373Y8749745D01*
X177809377Y8749745D01*
X177966839Y8763798D01*
X177966841Y8763798D01*
X177972339Y8764289D01*
X178187651Y8823192D01*
X178192630Y8825567D01*
X178192633Y8825568D01*
X178384148Y8916916D01*
X178384150Y8916917D01*
X178389129Y8919292D01*
X178466407Y8974822D01*
X178565920Y9046329D01*
X178565921Y9046330D01*
X178570405Y9049552D01*
X178725749Y9209854D01*
X178732725Y9220235D01*
X178847173Y9390552D01*
X178847176Y9390557D01*
X178850250Y9395132D01*
X178939974Y9599529D01*
X178992085Y9816585D01*
X179000818Y9968052D01*
X179004616Y10033921D01*
X179004616Y10033922D01*
X179004934Y10039438D01*
X178989087Y10170389D01*
X178978781Y10255560D01*
X178978780Y10255564D01*
X178978117Y10261044D01*
X178953920Y10339698D01*
X178914106Y10469119D01*
X178914104Y10469123D01*
X178912481Y10474400D01*
X178898551Y10501390D01*
X178812633Y10667850D01*
X178812632Y10667852D01*
X178810099Y10672759D01*
X178735064Y10770547D01*
X178677570Y10845476D01*
X178677566Y10845480D01*
X178674210Y10849854D01*
X178610850Y10907507D01*
X178574513Y10967184D01*
X178576209Y11037033D01*
X178605255Y11085514D01*
X178664084Y11146221D01*
X178725749Y11209854D01*
X178733512Y11221406D01*
X178847173Y11390552D01*
X178847176Y11390557D01*
X178850250Y11395132D01*
X178939974Y11599529D01*
X178992085Y11816585D01*
X178997928Y11917922D01*
X179004616Y12033921D01*
X179004616Y12033922D01*
X179004934Y12039438D01*
X178988198Y12177738D01*
X178982920Y12221358D01*
X180800001Y12221358D01*
X180800662Y12212336D01*
X180808722Y12157574D01*
X180814375Y12139378D01*
X180856961Y12052642D01*
X180868734Y12036197D01*
X180936691Y11968358D01*
X180953150Y11956619D01*
X181039977Y11914177D01*
X181058152Y11908559D01*
X181112372Y11900649D01*
X181121320Y11900000D01*
X181632170Y11900000D01*
X181647169Y11904404D01*
X181648356Y11905774D01*
X181650000Y11913332D01*
X181650000Y11917831D01*
X182350000Y11917831D01*
X182354404Y11902832D01*
X182355774Y11901645D01*
X182363332Y11900001D01*
X182878642Y11900001D01*
X182887664Y11900662D01*
X182942426Y11908722D01*
X182960622Y11914375D01*
X183047358Y11956961D01*
X183063803Y11968734D01*
X183131642Y12036691D01*
X183143381Y12053150D01*
X183185823Y12139977D01*
X183191441Y12158152D01*
X183199351Y12212372D01*
X183200000Y12221320D01*
X183200000Y12332170D01*
X183195596Y12347169D01*
X183194226Y12348356D01*
X183186668Y12350000D01*
X182367830Y12350000D01*
X182352831Y12345596D01*
X182351644Y12344226D01*
X182350000Y12336668D01*
X182350000Y11917831D01*
X181650000Y11917831D01*
X181650000Y12332170D01*
X181645596Y12347169D01*
X181644226Y12348356D01*
X181636668Y12350000D01*
X180817831Y12350000D01*
X180802832Y12345596D01*
X180801645Y12344226D01*
X180800001Y12336668D01*
X180800001Y12221358D01*
X178982920Y12221358D01*
X178978781Y12255560D01*
X178978780Y12255564D01*
X178978117Y12261044D01*
X178960226Y12319199D01*
X178914106Y12469119D01*
X178914104Y12469123D01*
X178912481Y12474400D01*
X178897097Y12504207D01*
X178812633Y12667850D01*
X178812632Y12667852D01*
X178810099Y12672759D01*
X178744821Y12757832D01*
X178677570Y12845476D01*
X178677566Y12845480D01*
X178674210Y12849854D01*
X178610850Y12907507D01*
X178574513Y12967184D01*
X178576209Y13037033D01*
X178605255Y13085514D01*
X178644142Y13125642D01*
X178725749Y13209854D01*
X178801685Y13322859D01*
X178847173Y13390552D01*
X178847176Y13390557D01*
X178850250Y13395132D01*
X178939974Y13599529D01*
X178992085Y13816585D01*
X178995615Y13877811D01*
X179004616Y14033921D01*
X179004616Y14033922D01*
X179004934Y14039438D01*
X178990940Y14155076D01*
X178978781Y14255560D01*
X178978780Y14255564D01*
X178978117Y14261044D01*
X178955789Y14333624D01*
X178914106Y14469119D01*
X178914104Y14469123D01*
X178912481Y14474400D01*
X178892898Y14512342D01*
X178812633Y14667850D01*
X178812632Y14667852D01*
X178810099Y14672759D01*
X178740992Y14762821D01*
X178677570Y14845476D01*
X178677566Y14845480D01*
X178674210Y14849854D01*
X178610850Y14907507D01*
X178574513Y14967184D01*
X178576209Y15037033D01*
X178605255Y15085514D01*
X178640373Y15121753D01*
X178725749Y15209854D01*
X178739125Y15229759D01*
X178847173Y15390552D01*
X178847176Y15390557D01*
X178850250Y15395132D01*
X178939974Y15599529D01*
X178992085Y15816585D01*
X178993050Y15833327D01*
X179004616Y16033921D01*
X179004616Y16033922D01*
X179004934Y16039438D01*
X178988513Y16175134D01*
X178978781Y16255560D01*
X178978780Y16255564D01*
X178978117Y16261044D01*
X178954603Y16337478D01*
X178914106Y16469119D01*
X178914104Y16469123D01*
X178912481Y16474400D01*
X178909394Y16480382D01*
X178812633Y16667850D01*
X178812632Y16667852D01*
X178810099Y16672759D01*
X178721366Y16788399D01*
X178677570Y16845476D01*
X178677566Y16845480D01*
X178674210Y16849854D01*
X178610850Y16907507D01*
X178574513Y16967184D01*
X178576209Y17037033D01*
X178605255Y17085514D01*
X178659595Y17141589D01*
X178725749Y17209854D01*
X178748231Y17243311D01*
X178847173Y17390552D01*
X178847176Y17390557D01*
X178850250Y17395132D01*
X178939974Y17599529D01*
X178992085Y17816585D01*
X178995602Y17877589D01*
X179004616Y18033921D01*
X179004616Y18033922D01*
X179004934Y18039438D01*
X178988501Y18175233D01*
X178978781Y18255560D01*
X178978780Y18255564D01*
X178978117Y18261044D01*
X178955630Y18334140D01*
X178914106Y18469119D01*
X178914104Y18469123D01*
X178912481Y18474400D01*
X178890175Y18517618D01*
X178812633Y18667850D01*
X178812632Y18667852D01*
X178810099Y18672759D01*
X178735064Y18770547D01*
X178677570Y18845476D01*
X178677566Y18845480D01*
X178674210Y18849854D01*
X178509107Y19000086D01*
X178504427Y19003022D01*
X178504424Y19003024D01*
X178472570Y19023006D01*
X178426240Y19075305D01*
X178415539Y19144351D01*
X178443866Y19208220D01*
X178460091Y19224142D01*
X178488745Y19247512D01*
X178497313Y19256019D01*
X178620841Y19405339D01*
X178627584Y19415336D01*
X178719754Y19585803D01*
X178724434Y19596936D01*
X178735588Y19632969D01*
X178735790Y19646846D01*
X178729142Y19650000D01*
X176376261Y19650000D01*
X176362944Y19646090D01*
X176361840Y19638416D01*
X176370034Y19610575D01*
X176374555Y19599386D01*
X176464338Y19427648D01*
X176470944Y19417553D01*
X176592373Y19266525D01*
X176600820Y19257900D01*
X176643103Y19222420D01*
X176681805Y19164249D01*
X176682913Y19094388D01*
X176646076Y19035018D01*
X176635756Y19026733D01*
X176541538Y18959030D01*
X176529595Y18950448D01*
X176374251Y18790146D01*
X176371173Y18785566D01*
X176371171Y18785563D01*
X176252827Y18609448D01*
X176252824Y18609443D01*
X176249750Y18604868D01*
X176160026Y18400471D01*
X176107915Y18183415D01*
X176107597Y18177900D01*
X176098200Y18014910D01*
X176095066Y17960562D01*
X176100512Y17915561D01*
X176121197Y17744627D01*
X176121883Y17738956D01*
X176123508Y17733674D01*
X176185167Y17533246D01*
X176187519Y17525600D01*
X176190052Y17520693D01*
X176190053Y17520690D01*
X176282973Y17340664D01*
X176289901Y17327241D01*
X176321129Y17286544D01*
X176422430Y17154524D01*
X176422434Y17154520D01*
X176425790Y17150146D01*
X176488570Y17093021D01*
X176489150Y17092493D01*
X176525487Y17032816D01*
X176523791Y16962967D01*
X176494745Y16914486D01*
X176374251Y16790146D01*
X176371173Y16785566D01*
X176371171Y16785563D01*
X176252827Y16609448D01*
X176252824Y16609443D01*
X176249750Y16604868D01*
X176160026Y16400471D01*
X176107915Y16183415D01*
X176107597Y16177900D01*
X176097600Y16004504D01*
X176095066Y15960562D01*
X176105177Y15877011D01*
X176118411Y15767651D01*
X176121883Y15738956D01*
X176123508Y15733674D01*
X176185227Y15533051D01*
X176187519Y15525600D01*
X176190052Y15520693D01*
X176190053Y15520690D01*
X176284459Y15337785D01*
X176289901Y15327241D01*
X176338488Y15263921D01*
X176422430Y15154524D01*
X176422434Y15154520D01*
X176425790Y15150146D01*
X176489150Y15092493D01*
X176525487Y15032816D01*
X176523791Y14962967D01*
X176494745Y14914486D01*
X176459627Y14878247D01*
X176374251Y14790146D01*
X176371173Y14785566D01*
X176371171Y14785563D01*
X176252827Y14609448D01*
X176252824Y14609443D01*
X176249750Y14604868D01*
X176160026Y14400471D01*
X176107915Y14183415D01*
X176107597Y14177900D01*
X176100252Y14050500D01*
X176095066Y13960562D01*
X176097982Y13936469D01*
X176118126Y13770006D01*
X176121883Y13738956D01*
X176123508Y13733674D01*
X176185167Y13533246D01*
X176187519Y13525600D01*
X176190052Y13520693D01*
X176190053Y13520690D01*
X176273942Y13358160D01*
X176289901Y13327241D01*
X176341479Y13260023D01*
X176422430Y13154524D01*
X176422434Y13154520D01*
X176425790Y13150146D01*
X176452720Y13125642D01*
X176489150Y13092493D01*
X176525487Y13032816D01*
X176523791Y12962967D01*
X176494745Y12914486D01*
X176469706Y12888648D01*
X176374251Y12790146D01*
X176371173Y12785566D01*
X176371171Y12785563D01*
X176252827Y12609448D01*
X176252824Y12609443D01*
X176249750Y12604868D01*
X176160026Y12400471D01*
X176107915Y12183415D01*
X176107597Y12177900D01*
X176096342Y11982685D01*
X176095066Y11960562D01*
X176106692Y11864491D01*
X176114916Y11796532D01*
X176121883Y11738956D01*
X176123508Y11733674D01*
X176176647Y11560942D01*
X176187519Y11525600D01*
X176190052Y11520693D01*
X176190053Y11520690D01*
X176286463Y11333902D01*
X176289901Y11327241D01*
X176321453Y11286122D01*
X176422430Y11154524D01*
X176422434Y11154520D01*
X176425790Y11150146D01*
X176462186Y11117028D01*
X176489150Y11092493D01*
X176525487Y11032816D01*
X176523791Y10962967D01*
X176494745Y10914486D01*
X176374251Y10790146D01*
X176371173Y10785566D01*
X176371171Y10785563D01*
X176252827Y10609448D01*
X176252824Y10609443D01*
X176249750Y10604868D01*
X176160026Y10400471D01*
X176107915Y10183415D01*
X176107597Y10177900D01*
X176096064Y9977863D01*
X176095066Y9960562D01*
X174980077Y9960562D01*
X175029044Y10174363D01*
X175029045Y10174368D01*
X175029987Y10178482D01*
X175045315Y10350228D01*
X175054623Y10454521D01*
X175054624Y10454531D01*
X175054840Y10456957D01*
X175054907Y10463296D01*
X175055074Y10479310D01*
X175055291Y10500000D01*
X175042270Y10690999D01*
X175036562Y10774726D01*
X175036562Y10774727D01*
X175036275Y10778935D01*
X174979579Y11052708D01*
X174977133Y11059617D01*
X174894908Y11291813D01*
X174886253Y11316254D01*
X174878122Y11332007D01*
X174759960Y11560942D01*
X174759957Y11560947D01*
X174758022Y11564696D01*
X174597261Y11793437D01*
X174528275Y11867675D01*
X174409822Y11995146D01*
X174409821Y11995147D01*
X174406944Y11998243D01*
X174190591Y12175325D01*
X173952208Y12321406D01*
X173948347Y12323101D01*
X173948343Y12323103D01*
X173784320Y12395104D01*
X173696205Y12433784D01*
X173506320Y12487874D01*
X173431374Y12509223D01*
X173431373Y12509223D01*
X173427319Y12510378D01*
X173150526Y12549771D01*
X173003846Y12550539D01*
X172875167Y12551213D01*
X172875166Y12551213D01*
X172870947Y12551235D01*
X172723389Y12531809D01*
X172597949Y12515295D01*
X172597947Y12515295D01*
X172593757Y12514743D01*
X172324083Y12440968D01*
X172320200Y12439312D01*
X172320195Y12439310D01*
X172134365Y12360047D01*
X172066917Y12331278D01*
X172063292Y12329109D01*
X172063291Y12329108D01*
X171923889Y12245678D01*
X171856256Y12228141D01*
X171789878Y12249953D01*
X171745830Y12304190D01*
X171738097Y12373630D01*
X171766345Y12433105D01*
X171766932Y12433784D01*
X171780454Y12449450D01*
X171786991Y12460956D01*
X171869530Y12606252D01*
X171872526Y12611526D01*
X171931364Y12788399D01*
X171932485Y12797268D01*
X171951836Y12950448D01*
X171954727Y12973332D01*
X171955099Y13000000D01*
X171948448Y13067830D01*
X171937501Y13179477D01*
X171937501Y13179479D01*
X171936909Y13185513D01*
X171883033Y13363960D01*
X171858600Y13409913D01*
X171798371Y13523186D01*
X171798371Y13523187D01*
X171795522Y13528544D01*
X171677710Y13672995D01*
X171623866Y13717539D01*
X171538760Y13787946D01*
X171538757Y13787948D01*
X171534085Y13791813D01*
X171464799Y13829276D01*
X171375447Y13877589D01*
X171375443Y13877591D01*
X171370116Y13880471D01*
X171192049Y13935591D01*
X171006668Y13955076D01*
X171000635Y13954527D01*
X171000631Y13954527D01*
X170827074Y13938732D01*
X170827073Y13938732D01*
X170821032Y13938182D01*
X170815213Y13936469D01*
X170815211Y13936469D01*
X170758565Y13919797D01*
X170642214Y13885552D01*
X170560607Y13842889D01*
X170492080Y13829276D01*
X170427068Y13854874D01*
X170404395Y13877807D01*
X170392922Y13892922D01*
X170272783Y13984113D01*
X170264922Y13987225D01*
X170264921Y13987226D01*
X170139953Y14036704D01*
X170139951Y14036704D01*
X170132547Y14039636D01*
X170124643Y14040592D01*
X170124641Y14040593D01*
X170071927Y14046972D01*
X170042772Y14050500D01*
X168957228Y14050500D01*
X168867453Y14039636D01*
X168860050Y14036705D01*
X168853019Y14033921D01*
X168795647Y14011206D01*
X168726070Y14004829D01*
X168704355Y14011205D01*
X168646981Y14033921D01*
X168639950Y14036705D01*
X168632547Y14039636D01*
X168542772Y14050500D01*
X167457228Y14050500D01*
X167367453Y14039636D01*
X167360050Y14036705D01*
X167353019Y14033921D01*
X167295647Y14011206D01*
X167226070Y14004829D01*
X167204355Y14011205D01*
X167146981Y14033921D01*
X167139950Y14036705D01*
X167132547Y14039636D01*
X167042772Y14050500D01*
X165957228Y14050500D01*
X165867453Y14039636D01*
X165860050Y14036705D01*
X165853019Y14033921D01*
X165795647Y14011206D01*
X165726070Y14004829D01*
X165704355Y14011205D01*
X165646981Y14033921D01*
X165639950Y14036705D01*
X165632547Y14039636D01*
X165542772Y14050500D01*
X164700873Y14050500D01*
X164633834Y14070185D01*
X164588079Y14122989D01*
X164578135Y14192147D01*
X164607160Y14255703D01*
X164613192Y14262181D01*
X164789192Y14438181D01*
X164850515Y14471666D01*
X164876873Y14474500D01*
X165074866Y14474500D01*
X165179519Y14485359D01*
X165185956Y14487507D01*
X165185958Y14487507D01*
X165338695Y14538464D01*
X165345529Y14540744D01*
X165440987Y14599815D01*
X165488220Y14629043D01*
X165488224Y14629046D01*
X165494345Y14632834D01*
X165567376Y14705993D01*
X165612895Y14751591D01*
X165612895Y14751592D01*
X165617984Y14756689D01*
X165627447Y14772040D01*
X165657056Y14820075D01*
X165709814Y14905666D01*
X165764910Y15071772D01*
X165771152Y15132695D01*
X166935481Y15132695D01*
X166938739Y15107951D01*
X166942910Y15092386D01*
X166994627Y14967530D01*
X167002685Y14953572D01*
X167084961Y14846348D01*
X167096348Y14834961D01*
X167203572Y14752685D01*
X167217530Y14744627D01*
X167342382Y14692912D01*
X167357527Y14688854D01*
X167371282Y14690999D01*
X167375000Y14703947D01*
X167375000Y15132170D01*
X167370596Y15147169D01*
X167369226Y15148356D01*
X167361668Y15150000D01*
X166951033Y15150000D01*
X166937478Y15146020D01*
X166935481Y15132695D01*
X165771152Y15132695D01*
X165771929Y15140283D01*
X165775178Y15171987D01*
X165775178Y15171995D01*
X165775500Y15175134D01*
X165775500Y15824866D01*
X165775419Y15825643D01*
X165791506Y15893177D01*
X165841873Y15941602D01*
X165914046Y15954725D01*
X165953525Y15949948D01*
X165953527Y15949948D01*
X165957228Y15949500D01*
X166816608Y15949500D01*
X166883647Y15929815D01*
X166929402Y15877011D01*
X166936268Y15854132D01*
X166950657Y15850000D01*
X167951000Y15850000D01*
X168018039Y15830315D01*
X168063794Y15777511D01*
X168075000Y15726000D01*
X168075000Y14704325D01*
X168078980Y14690770D01*
X168092220Y14688786D01*
X168107618Y14692912D01*
X168232470Y14744627D01*
X168246432Y14752687D01*
X168279049Y14777715D01*
X168344218Y14802909D01*
X168412663Y14788870D01*
X168451443Y14756700D01*
X168493842Y14703588D01*
X168493847Y14703583D01*
X168498169Y14698169D01*
X168503583Y14693847D01*
X168507438Y14690770D01*
X168634140Y14589625D01*
X168640375Y14586611D01*
X168640378Y14586609D01*
X168704542Y14555591D01*
X168790779Y14513902D01*
X168797533Y14512343D01*
X168797535Y14512342D01*
X168940615Y14479310D01*
X168960302Y14474765D01*
X168964898Y14474500D01*
X169585102Y14474500D01*
X169589698Y14474765D01*
X169609385Y14479310D01*
X169752465Y14512342D01*
X169752467Y14512343D01*
X169759221Y14513902D01*
X169845458Y14555591D01*
X169909622Y14586609D01*
X169909625Y14586611D01*
X169915860Y14589625D01*
X170042563Y14690770D01*
X170046417Y14693847D01*
X170051831Y14698169D01*
X170094477Y14751591D01*
X170156054Y14828727D01*
X170156054Y14828728D01*
X170160375Y14834140D01*
X170236098Y14990779D01*
X170243407Y15022435D01*
X170274054Y15155186D01*
X170274054Y15155187D01*
X170275235Y15160302D01*
X170275500Y15164898D01*
X170275500Y15835102D01*
X170275235Y15839698D01*
X170272304Y15852396D01*
X170266621Y15877011D01*
X170247614Y15959339D01*
X170251714Y16029086D01*
X170292871Y16085547D01*
X170335090Y16106663D01*
X170339546Y16107907D01*
X170339548Y16107908D01*
X170345387Y16109538D01*
X170511768Y16193583D01*
X170516547Y16197317D01*
X170516552Y16197320D01*
X170598206Y16261116D01*
X170658655Y16308344D01*
X170780454Y16449450D01*
X170801569Y16486618D01*
X170869530Y16606252D01*
X170872526Y16611526D01*
X170931364Y16788399D01*
X170936373Y16828044D01*
X170947293Y16914486D01*
X170954727Y16973332D01*
X170955002Y16993057D01*
X170955051Y16996538D01*
X170955051Y16996543D01*
X170955099Y17000000D01*
X170940741Y17146430D01*
X170937501Y17179477D01*
X170937501Y17179479D01*
X170936909Y17185513D01*
X170883033Y17363960D01*
X170871058Y17386483D01*
X170798371Y17523186D01*
X170798371Y17523187D01*
X170795522Y17528544D01*
X170677710Y17672995D01*
X170638256Y17705635D01*
X170538760Y17787946D01*
X170538757Y17787948D01*
X170534085Y17791813D01*
X170465814Y17828727D01*
X170375447Y17877589D01*
X170375443Y17877591D01*
X170370116Y17880471D01*
X170192049Y17935591D01*
X170153234Y17939671D01*
X170136945Y17941383D01*
X170072330Y17967968D01*
X170032346Y18025266D01*
X170029686Y18095085D01*
X170051881Y18132695D01*
X170935481Y18132695D01*
X170938739Y18107951D01*
X170942910Y18092386D01*
X170994627Y17967530D01*
X171002685Y17953572D01*
X171084961Y17846348D01*
X171096348Y17834961D01*
X171203572Y17752685D01*
X171217530Y17744627D01*
X171342382Y17692912D01*
X171357527Y17688854D01*
X171371282Y17690999D01*
X171375000Y17703947D01*
X171375000Y18132170D01*
X171370596Y18147169D01*
X171369226Y18148356D01*
X171361668Y18150000D01*
X170951033Y18150000D01*
X170937478Y18146020D01*
X170935481Y18132695D01*
X170051881Y18132695D01*
X170065196Y18155258D01*
X170133722Y18187643D01*
X170142042Y18188738D01*
X170157619Y18192912D01*
X170282470Y18244627D01*
X170296428Y18252685D01*
X170403652Y18334961D01*
X170415039Y18346348D01*
X170497315Y18453572D01*
X170505373Y18467530D01*
X170557090Y18592386D01*
X170561261Y18607951D01*
X170564470Y18632325D01*
X170562294Y18646281D01*
X170549343Y18650000D01*
X169549000Y18650000D01*
X169481961Y18669685D01*
X169436206Y18722489D01*
X169425000Y18774000D01*
X169425000Y19200500D01*
X169444685Y19267539D01*
X169497489Y19313294D01*
X169549000Y19324500D01*
X170281473Y19324500D01*
X170348512Y19304815D01*
X170361840Y19294931D01*
X170446546Y19222841D01*
X170454912Y19215721D01*
X170460210Y19212760D01*
X170499417Y19190848D01*
X170617627Y19124783D01*
X170683988Y19103221D01*
X170789063Y19069080D01*
X170794907Y19067181D01*
X170800928Y19066463D01*
X170837617Y19062088D01*
X170901855Y19034604D01*
X170941035Y18976753D01*
X170942710Y18906866D01*
X170938739Y18892046D01*
X170935530Y18867675D01*
X170937706Y18853719D01*
X170950657Y18850000D01*
X171951000Y18850000D01*
X172018039Y18830315D01*
X172063794Y18777511D01*
X172075000Y18726000D01*
X172075000Y17704325D01*
X172078980Y17690770D01*
X172092220Y17688786D01*
X172107618Y17692912D01*
X172232470Y17744627D01*
X172246432Y17752687D01*
X172279049Y17777715D01*
X172344218Y17802909D01*
X172412663Y17788870D01*
X172451443Y17756700D01*
X172493842Y17703588D01*
X172493847Y17703583D01*
X172498169Y17698169D01*
X172503583Y17693847D01*
X172603590Y17614013D01*
X172634140Y17589625D01*
X172640375Y17586611D01*
X172640378Y17586609D01*
X172696640Y17559411D01*
X172790779Y17513902D01*
X172797533Y17512343D01*
X172797535Y17512342D01*
X172955186Y17475946D01*
X172960302Y17474765D01*
X172964898Y17474500D01*
X173585102Y17474500D01*
X173589698Y17474765D01*
X173594814Y17475946D01*
X173752465Y17512342D01*
X173752467Y17512343D01*
X173759221Y17513902D01*
X173853360Y17559411D01*
X173909622Y17586609D01*
X173909625Y17586611D01*
X173915860Y17589625D01*
X173946411Y17614013D01*
X174046417Y17693847D01*
X174051831Y17698169D01*
X174093207Y17750000D01*
X174156054Y17828727D01*
X174156054Y17828728D01*
X174160375Y17834140D01*
X174182820Y17880568D01*
X174200956Y17918085D01*
X174236098Y17990779D01*
X174241112Y18012495D01*
X174274054Y18155186D01*
X174274054Y18155187D01*
X174275235Y18160302D01*
X174275500Y18164898D01*
X174275500Y18835102D01*
X174275235Y18839698D01*
X174247614Y18959339D01*
X174251714Y19029086D01*
X174292871Y19085547D01*
X174335090Y19106663D01*
X174339546Y19107907D01*
X174339548Y19107908D01*
X174345387Y19109538D01*
X174511768Y19193583D01*
X174516547Y19197317D01*
X174516552Y19197320D01*
X174606427Y19267539D01*
X174658655Y19308344D01*
X174780454Y19449450D01*
X174789286Y19464996D01*
X174869530Y19606252D01*
X174872526Y19611526D01*
X174931364Y19788399D01*
X174954727Y19973332D01*
X174955099Y20000000D01*
X174954384Y20007289D01*
X174937501Y20179477D01*
X174937501Y20179479D01*
X174936909Y20185513D01*
X174883033Y20363960D01*
X174873615Y20381674D01*
X174798371Y20523186D01*
X174798371Y20523187D01*
X174795522Y20528544D01*
X174677710Y20672995D01*
X174604603Y20733475D01*
X174538760Y20787946D01*
X174538757Y20787948D01*
X174534085Y20791813D01*
X174448968Y20837836D01*
X174375447Y20877589D01*
X174375443Y20877591D01*
X174370116Y20880471D01*
X174312832Y20898203D01*
X174254612Y20936832D01*
X174226518Y21000804D01*
X174225500Y21016658D01*
X174225500Y21148126D01*
X174245185Y21215165D01*
X174261819Y21235807D01*
X174264193Y21238181D01*
X174325516Y21271666D01*
X174351874Y21274500D01*
X175340223Y21274500D01*
X175407262Y21254815D01*
X175420589Y21244931D01*
X175450288Y21219656D01*
X175454912Y21215721D01*
X175460210Y21212760D01*
X175612327Y21127745D01*
X175617627Y21124783D01*
X175658428Y21111526D01*
X175755907Y21079853D01*
X175794907Y21067181D01*
X175979998Y21045110D01*
X175986041Y21045575D01*
X175986043Y21045575D01*
X176043482Y21049995D01*
X176165851Y21059411D01*
X176345387Y21109538D01*
X176350800Y21112272D01*
X176356453Y21114465D01*
X176357012Y21113024D01*
X176418288Y21124310D01*
X176482936Y21097808D01*
X176488929Y21092694D01*
X176590893Y20999914D01*
X176595573Y20996978D01*
X176595576Y20996976D01*
X176627430Y20976994D01*
X176673760Y20924695D01*
X176684461Y20855649D01*
X176656134Y20791780D01*
X176639909Y20775858D01*
X176611255Y20752488D01*
X176602687Y20743981D01*
X176479159Y20594661D01*
X176472416Y20584664D01*
X176380246Y20414197D01*
X176375566Y20403064D01*
X176364412Y20367031D01*
X176364210Y20353154D01*
X176370858Y20350000D01*
X178723739Y20350000D01*
X178737056Y20353910D01*
X178738160Y20361584D01*
X178729966Y20389425D01*
X178725445Y20400614D01*
X178635662Y20572352D01*
X178629056Y20582447D01*
X178507627Y20733475D01*
X178499180Y20742100D01*
X178456897Y20777580D01*
X178418195Y20835751D01*
X178417087Y20905612D01*
X178453924Y20964982D01*
X178464244Y20973267D01*
X178565920Y21046329D01*
X178565921Y21046330D01*
X178570405Y21049552D01*
X178725749Y21209854D01*
X178729318Y21215165D01*
X178847173Y21390552D01*
X178847176Y21390557D01*
X178850250Y21395132D01*
X178939974Y21599529D01*
X178956372Y21667830D01*
X180800000Y21667830D01*
X180804404Y21652831D01*
X180805774Y21651644D01*
X180813332Y21650000D01*
X181632170Y21650000D01*
X181647169Y21654404D01*
X181648356Y21655774D01*
X181650000Y21663332D01*
X181650000Y21667830D01*
X182350000Y21667830D01*
X182354404Y21652831D01*
X182355774Y21651644D01*
X182363332Y21650000D01*
X183182169Y21650000D01*
X183197168Y21654404D01*
X183198355Y21655774D01*
X183199999Y21663332D01*
X183199999Y21778642D01*
X183199338Y21787664D01*
X183191278Y21842426D01*
X183185625Y21860622D01*
X183143039Y21947358D01*
X183131266Y21963803D01*
X183063309Y22031642D01*
X183046850Y22043381D01*
X182960023Y22085823D01*
X182941848Y22091441D01*
X182887628Y22099351D01*
X182878680Y22100000D01*
X182367830Y22100000D01*
X182352831Y22095596D01*
X182351644Y22094226D01*
X182350000Y22086668D01*
X182350000Y21667830D01*
X181650000Y21667830D01*
X181650000Y22082169D01*
X181645596Y22097168D01*
X181644226Y22098355D01*
X181636668Y22099999D01*
X181121358Y22099999D01*
X181112336Y22099338D01*
X181057574Y22091278D01*
X181039378Y22085625D01*
X180952642Y22043039D01*
X180936197Y22031266D01*
X180868358Y21963309D01*
X180856619Y21946850D01*
X180814177Y21860023D01*
X180808559Y21841848D01*
X180800649Y21787628D01*
X180800000Y21778680D01*
X180800000Y21667830D01*
X178956372Y21667830D01*
X178992085Y21816585D01*
X178994482Y21858160D01*
X179004616Y22033921D01*
X179004616Y22033922D01*
X179004934Y22039438D01*
X178985903Y22196707D01*
X178978781Y22255560D01*
X178978780Y22255564D01*
X178978117Y22261044D01*
X178948552Y22357147D01*
X178914106Y22469119D01*
X178914104Y22469123D01*
X178912481Y22474400D01*
X178897080Y22504240D01*
X178812633Y22667850D01*
X178812632Y22667852D01*
X178810099Y22672759D01*
X178711957Y22800661D01*
X178686763Y22865830D01*
X178700802Y22934275D01*
X178732634Y22972785D01*
X178733315Y22973332D01*
X178757346Y22992654D01*
X178807678Y23055253D01*
X178867793Y23130021D01*
X178867793Y23130022D01*
X178872002Y23135256D01*
X178874988Y23141271D01*
X178874991Y23141276D01*
X178950375Y23293139D01*
X178953361Y23299154D01*
X178978093Y23398347D01*
X178996308Y23471402D01*
X178996309Y23471407D01*
X178997628Y23476698D01*
X179000500Y23518825D01*
X179000499Y24481174D01*
X178997628Y24523302D01*
X178953361Y24700846D01*
X178925641Y24756689D01*
X178874991Y24858724D01*
X178874988Y24858729D01*
X178872002Y24864744D01*
X178757346Y25007346D01*
X178655287Y25089404D01*
X178619979Y25117793D01*
X178619978Y25117793D01*
X178614744Y25122002D01*
X178608729Y25124988D01*
X178608724Y25124991D01*
X178479688Y25189044D01*
X178450846Y25203361D01*
X178353016Y25227753D01*
X178278598Y25246308D01*
X178278593Y25246309D01*
X178273302Y25247628D01*
X178231175Y25250500D01*
X177550486Y25250500D01*
X176868826Y25250499D01*
X176866729Y25250356D01*
X176866726Y25250356D01*
X176832155Y25248000D01*
X176832154Y25248000D01*
X176826698Y25247628D01*
X176649154Y25203361D01*
X176620312Y25189044D01*
X176491276Y25124991D01*
X176491271Y25124988D01*
X176485256Y25122002D01*
X176480022Y25117793D01*
X176480021Y25117793D01*
X176444713Y25089404D01*
X176342654Y25007346D01*
X176338449Y25002116D01*
X176318810Y24977690D01*
X176261462Y24937778D01*
X176197408Y24933932D01*
X176192049Y24935591D01*
X176186019Y24936225D01*
X176186018Y24936225D01*
X176153540Y24939639D01*
X176006668Y24955076D01*
X176000635Y24954527D01*
X176000631Y24954527D01*
X175827074Y24938732D01*
X175827073Y24938732D01*
X175821032Y24938182D01*
X175815213Y24936469D01*
X175815211Y24936469D01*
X175656857Y24889862D01*
X175586987Y24889818D01*
X175534165Y24921136D01*
X175497246Y24958055D01*
X175491485Y24964221D01*
X175460230Y25000049D01*
X175455317Y25005681D01*
X175405555Y25040655D01*
X175400354Y25044518D01*
X175385865Y25055878D01*
X175352497Y25082042D01*
X175345680Y25085120D01*
X175341664Y25087552D01*
X175331809Y25093174D01*
X175327669Y25095394D01*
X175321552Y25099693D01*
X175264889Y25121785D01*
X175258915Y25124296D01*
X175203486Y25149323D01*
X175196139Y25150685D01*
X175191645Y25152093D01*
X175180744Y25155198D01*
X175176188Y25156368D01*
X175169224Y25159083D01*
X175108920Y25167023D01*
X175102530Y25168034D01*
X175042726Y25179118D01*
X174987788Y25175950D01*
X174983554Y25175706D01*
X174976416Y25175500D01*
X174539771Y25175500D01*
X174472732Y25195185D01*
X174465081Y25200624D01*
X174460408Y25205297D01*
X174454008Y25209173D01*
X174321779Y25289254D01*
X174321775Y25289256D01*
X174315383Y25293127D01*
X174153594Y25343829D01*
X174080993Y25350500D01*
X174053442Y25350500D01*
X172974500Y25350499D01*
X172907461Y25370184D01*
X172861706Y25422987D01*
X172850500Y25474498D01*
X172850499Y25653150D01*
X172850499Y25655992D01*
X172843829Y25728594D01*
X172841862Y25734871D01*
X172825081Y25788419D01*
X172823817Y25858277D01*
X172860523Y25917729D01*
X172923543Y25947899D01*
X172943407Y25949500D01*
X180975945Y25949500D01*
X181042984Y25929815D01*
G37*
%TD.AperFunction*%
%TA.AperFunction,Conductor*%
G36*
X167295645Y11988795D02*
G01*
X167367453Y11960364D01*
X167457228Y11949500D01*
X168325500Y11949500D01*
X168392539Y11929815D01*
X168438294Y11877011D01*
X168449500Y11825500D01*
X168449500Y11149500D01*
X168429815Y11082461D01*
X168377011Y11036706D01*
X168325500Y11025500D01*
X168075134Y11025500D01*
X167970481Y11014641D01*
X167964044Y11012493D01*
X167964042Y11012493D01*
X167830632Y10967984D01*
X167804471Y10959256D01*
X167753727Y10927855D01*
X167661780Y10870957D01*
X167661776Y10870954D01*
X167655655Y10867166D01*
X167650567Y10862069D01*
X167650563Y10862066D01*
X167587770Y10799163D01*
X167526476Y10765624D01*
X167456780Y10770547D01*
X167412408Y10799009D01*
X167348413Y10862891D01*
X167343311Y10867984D01*
X167331347Y10875359D01*
X167279192Y10907507D01*
X167194334Y10959814D01*
X167028228Y11014910D01*
X166973684Y11020498D01*
X166928013Y11025178D01*
X166928005Y11025178D01*
X166924866Y11025500D01*
X166856884Y11025500D01*
X166789845Y11045185D01*
X166760791Y11071128D01*
X166758932Y11073408D01*
X166699710Y11146020D01*
X166681545Y11168293D01*
X166681544Y11168294D01*
X166677710Y11172995D01*
X166566904Y11264662D01*
X166538757Y11287948D01*
X166534085Y11291813D01*
X166528755Y11294695D01*
X166528746Y11294701D01*
X166495814Y11312507D01*
X166467110Y11333902D01*
X166311819Y11489193D01*
X166278334Y11550516D01*
X166275500Y11576874D01*
X166275500Y11825500D01*
X166295185Y11892539D01*
X166347989Y11938294D01*
X166399500Y11949500D01*
X167042772Y11949500D01*
X167132547Y11960364D01*
X167204353Y11988794D01*
X167273930Y11995171D01*
X167295645Y11988795D01*
G37*
%TD.AperFunction*%
%TA.AperFunction,Conductor*%
G36*
X159453543Y13532383D02*
G01*
X159505511Y13485681D01*
X159518326Y13457621D01*
X159556873Y13334617D01*
X159560744Y13328225D01*
X159560746Y13328221D01*
X159613056Y13241848D01*
X159644703Y13189592D01*
X159746614Y13087681D01*
X159780099Y13026358D01*
X159775115Y12956666D01*
X159746614Y12912319D01*
X159644703Y12810408D01*
X159640830Y12804013D01*
X159560746Y12671779D01*
X159560744Y12671775D01*
X159556873Y12665383D01*
X159533007Y12589228D01*
X159518326Y12542380D01*
X159479494Y12484295D01*
X159415424Y12456424D01*
X159346457Y12467617D01*
X159294489Y12514319D01*
X159281674Y12542380D01*
X159266993Y12589228D01*
X159243127Y12665383D01*
X159239256Y12671775D01*
X159239254Y12671779D01*
X159159170Y12804013D01*
X159155297Y12810408D01*
X159053386Y12912319D01*
X159019901Y12973642D01*
X159024885Y13043334D01*
X159053386Y13087681D01*
X159155297Y13189592D01*
X159186944Y13241848D01*
X159239254Y13328221D01*
X159239256Y13328225D01*
X159243127Y13334617D01*
X159281674Y13457620D01*
X159320506Y13515705D01*
X159384576Y13543576D01*
X159453543Y13532383D01*
G37*
%TD.AperFunction*%
%TA.AperFunction,Conductor*%
G36*
X157830841Y25929815D02*
G01*
X157876596Y25877011D01*
X157886540Y25807853D01*
X157879096Y25779858D01*
X157860364Y25732547D01*
X157859408Y25724643D01*
X157859407Y25724641D01*
X157854174Y25681394D01*
X157849500Y25642772D01*
X157849500Y24357228D01*
X157860364Y24267453D01*
X157863296Y24260049D01*
X157863296Y24260047D01*
X157911702Y24137788D01*
X157915887Y24127217D01*
X157920999Y24120483D01*
X157920999Y24120482D01*
X158007078Y24007078D01*
X158004758Y24005317D01*
X158031383Y23956557D01*
X158026399Y23886865D01*
X157987577Y23833290D01*
X157953586Y23806156D01*
X157953583Y23806153D01*
X157948169Y23801831D01*
X157943847Y23796417D01*
X157877493Y23713296D01*
X157839625Y23665860D01*
X157836611Y23659625D01*
X157836609Y23659622D01*
X157831716Y23649500D01*
X157763902Y23509221D01*
X157762343Y23502467D01*
X157762342Y23502465D01*
X157731602Y23369313D01*
X157724765Y23339698D01*
X157724500Y23335102D01*
X157724500Y23013495D01*
X157712828Y22960974D01*
X157711487Y22958106D01*
X157709595Y22954237D01*
X157681901Y22900000D01*
X157677873Y22892111D01*
X157676161Y22885114D01*
X157674213Y22879877D01*
X157672453Y22874586D01*
X157669404Y22868062D01*
X157667937Y22861011D01*
X157667937Y22861010D01*
X157655194Y22799745D01*
X157654241Y22795535D01*
X157637662Y22727783D01*
X157637000Y22717112D01*
X157636976Y22717113D01*
X157636717Y22712809D01*
X157636420Y22709485D01*
X157634953Y22702431D01*
X157636079Y22660833D01*
X157636955Y22628444D01*
X157637000Y22625090D01*
X157637000Y22357147D01*
X157617315Y22290108D01*
X157564715Y22244725D01*
X157559617Y22243127D01*
X157414592Y22155297D01*
X157294703Y22035408D01*
X157290830Y22029013D01*
X157210746Y21896779D01*
X157210744Y21896775D01*
X157206873Y21890383D01*
X157156171Y21728594D01*
X157149500Y21655993D01*
X157149501Y21244008D01*
X157149761Y21241178D01*
X157155347Y21180380D01*
X157156171Y21171406D01*
X157158138Y21165130D01*
X157158138Y21165129D01*
X157168259Y21132834D01*
X157206873Y21009617D01*
X157210744Y21003225D01*
X157210746Y21003221D01*
X157285086Y20880471D01*
X157294703Y20864592D01*
X157414592Y20744703D01*
X157420987Y20740830D01*
X157553221Y20660746D01*
X157553225Y20660744D01*
X157559617Y20656873D01*
X157669789Y20622347D01*
X157682620Y20618326D01*
X157740705Y20579494D01*
X157768576Y20515424D01*
X157757383Y20446457D01*
X157710681Y20394489D01*
X157682621Y20381674D01*
X157559617Y20343127D01*
X157553225Y20339256D01*
X157553221Y20339254D01*
X157483201Y20296848D01*
X157414592Y20255297D01*
X157294703Y20135408D01*
X157290830Y20129013D01*
X157210746Y19996779D01*
X157210744Y19996775D01*
X157206873Y19990383D01*
X157156171Y19828594D01*
X157149500Y19755993D01*
X157149501Y19344008D01*
X157149761Y19341178D01*
X157153121Y19304610D01*
X157156171Y19271406D01*
X157158138Y19265130D01*
X157158138Y19265129D01*
X157160993Y19256019D01*
X157206873Y19109617D01*
X157210744Y19103225D01*
X157210746Y19103221D01*
X157290830Y18970987D01*
X157294703Y18964592D01*
X157414592Y18844703D01*
X157559617Y18756873D01*
X157564719Y18755274D01*
X157617028Y18710338D01*
X157637000Y18642853D01*
X157637000Y17286544D01*
X157618558Y17221478D01*
X157540186Y17094334D01*
X157485090Y16928228D01*
X157481360Y16891819D01*
X157474826Y16828044D01*
X157474500Y16824866D01*
X157474500Y16175134D01*
X157485359Y16070481D01*
X157487507Y16064044D01*
X157487507Y16064042D01*
X157517381Y15974500D01*
X157540744Y15904471D01*
X157544534Y15898347D01*
X157629043Y15761780D01*
X157629046Y15761776D01*
X157632834Y15755655D01*
X157756689Y15632016D01*
X157762822Y15628236D01*
X157762824Y15628234D01*
X157792438Y15609980D01*
X157839178Y15558046D01*
X157850421Y15489087D01*
X157832903Y15439347D01*
X157828534Y15433825D01*
X157825482Y15427294D01*
X157825481Y15427293D01*
X157798995Y15370624D01*
X157797095Y15366737D01*
X157785040Y15343127D01*
X157765373Y15304611D01*
X157763661Y15297614D01*
X157761713Y15292377D01*
X157759953Y15287086D01*
X157756904Y15280562D01*
X157755437Y15273511D01*
X157755437Y15273510D01*
X157742694Y15212245D01*
X157741741Y15208035D01*
X157725162Y15140283D01*
X157724500Y15129612D01*
X157724476Y15129613D01*
X157724217Y15125309D01*
X157723920Y15121985D01*
X157722453Y15114931D01*
X157722648Y15107732D01*
X157723184Y15087926D01*
X157705294Y15020336D01*
X157660746Y14946779D01*
X157660744Y14946776D01*
X157656873Y14940383D01*
X157606171Y14778594D01*
X157599500Y14705993D01*
X157599501Y13569008D01*
X157606171Y13496406D01*
X157656873Y13334617D01*
X157660744Y13328225D01*
X157660746Y13328221D01*
X157713056Y13241848D01*
X157744703Y13189592D01*
X157846614Y13087681D01*
X157880099Y13026358D01*
X157875115Y12956666D01*
X157846614Y12912319D01*
X157744703Y12810408D01*
X157742907Y12807443D01*
X157687443Y12767827D01*
X157617657Y12764403D01*
X157559038Y12797268D01*
X156891819Y13464487D01*
X156858334Y13525810D01*
X156855500Y13552168D01*
X156855500Y25447810D01*
X156852032Y25512525D01*
X156849488Y25536190D01*
X156849369Y25537301D01*
X156849368Y25537309D01*
X156849153Y25539308D01*
X156843720Y25570485D01*
X156836597Y25611352D01*
X156836597Y25611353D01*
X156835551Y25617353D01*
X156778552Y25764785D01*
X156776602Y25768356D01*
X156774899Y25772027D01*
X156776405Y25772726D01*
X156762995Y25834328D01*
X156787402Y25899796D01*
X156843329Y25941675D01*
X156886680Y25949500D01*
X157763802Y25949500D01*
X157830841Y25929815D01*
G37*
%TD.AperFunction*%
%TA.AperFunction,Conductor*%
G36*
X162270010Y17803356D02*
G01*
X162320424Y17754980D01*
X162336681Y17687028D01*
X162324481Y17639353D01*
X162269639Y17525906D01*
X162263585Y17513382D01*
X162224763Y17345225D01*
X162224500Y17340664D01*
X162224500Y16659336D01*
X162224763Y16654775D01*
X162225944Y16649660D01*
X162225944Y16649659D01*
X162226817Y16645878D01*
X162263585Y16486618D01*
X162266597Y16480387D01*
X162266599Y16480382D01*
X162293251Y16425250D01*
X162338697Y16331241D01*
X162343020Y16325826D01*
X162346715Y16319958D01*
X162344247Y16318404D01*
X162365748Y16265776D01*
X162353010Y16197078D01*
X162347954Y16188052D01*
X162334275Y16165860D01*
X162290186Y16094334D01*
X162235090Y15928228D01*
X162232656Y15904471D01*
X162225367Y15833327D01*
X162224500Y15824866D01*
X162224500Y15501799D01*
X162204815Y15434760D01*
X162147178Y15387013D01*
X162142214Y15385552D01*
X162136842Y15382744D01*
X162136838Y15382742D01*
X162050843Y15337785D01*
X161977023Y15299193D01*
X161972295Y15295392D01*
X161972294Y15295391D01*
X161860976Y15205889D01*
X161831752Y15182392D01*
X161711935Y15039599D01*
X161690118Y14999914D01*
X161639317Y14907507D01*
X161622135Y14876254D01*
X161620303Y14870479D01*
X161568125Y14705992D01*
X161565772Y14698576D01*
X161564682Y14688854D01*
X161547813Y14538464D01*
X161544994Y14513335D01*
X161560592Y14327586D01*
X161562262Y14321762D01*
X161565706Y14309750D01*
X161565262Y14239882D01*
X161527115Y14181345D01*
X161463376Y14152725D01*
X161433548Y14152251D01*
X161421041Y14153565D01*
X161406668Y14155076D01*
X161400635Y14154527D01*
X161400631Y14154527D01*
X161335738Y14148621D01*
X161267191Y14162149D01*
X161216838Y14210589D01*
X161200500Y14272111D01*
X161200499Y14703150D01*
X161200499Y14705992D01*
X161193829Y14778594D01*
X161143127Y14940383D01*
X161139256Y14946776D01*
X161139254Y14946779D01*
X161093435Y15022435D01*
X161075500Y15086670D01*
X161075500Y15135593D01*
X161076911Y15154243D01*
X161078911Y15167386D01*
X161078911Y15167390D01*
X161079994Y15174508D01*
X161075908Y15224743D01*
X161075500Y15234796D01*
X161075500Y15242363D01*
X161073803Y15256916D01*
X161072359Y15269304D01*
X161071933Y15273612D01*
X161066863Y15335950D01*
X161066863Y15335952D01*
X161066279Y15343127D01*
X161064061Y15349975D01*
X161062969Y15355439D01*
X161061682Y15360881D01*
X161060848Y15368037D01*
X161058391Y15374806D01*
X161058390Y15374810D01*
X161037050Y15433601D01*
X161035645Y15437694D01*
X161016363Y15497215D01*
X161016359Y15497225D01*
X161014142Y15504067D01*
X161010411Y15510216D01*
X161008094Y15515277D01*
X161005582Y15520292D01*
X161003125Y15527061D01*
X160964869Y15585410D01*
X160962591Y15589020D01*
X160926378Y15648698D01*
X160922726Y15652833D01*
X160922723Y15652837D01*
X160919300Y15656712D01*
X160919319Y15656728D01*
X160916461Y15659951D01*
X160914318Y15662514D01*
X160910367Y15668540D01*
X160910364Y15668543D01*
X160883644Y15729885D01*
X160894802Y15798858D01*
X160901115Y15810437D01*
X160942151Y15877011D01*
X160959814Y15905666D01*
X161014910Y16071772D01*
X161024550Y16165860D01*
X161025178Y16171987D01*
X161025178Y16171995D01*
X161025500Y16175134D01*
X161025500Y16824866D01*
X161015178Y16924344D01*
X161027839Y16993057D01*
X161050835Y17024823D01*
X161546284Y17520272D01*
X161607607Y17553757D01*
X161624451Y17556225D01*
X161640718Y17557477D01*
X161665851Y17559411D01*
X161671686Y17561040D01*
X161671691Y17561041D01*
X161839547Y17607907D01*
X161839551Y17607909D01*
X161845387Y17609538D01*
X162011768Y17693583D01*
X162016547Y17697317D01*
X162016552Y17697320D01*
X162136499Y17791034D01*
X162201446Y17816796D01*
X162270010Y17803356D01*
G37*
%TD.AperFunction*%
%TA.AperFunction,Conductor*%
G36*
X159543334Y18975115D02*
G01*
X159587681Y18946614D01*
X159689592Y18844703D01*
X159834617Y18756873D01*
X159841749Y18754638D01*
X159841751Y18754637D01*
X159900969Y18736079D01*
X159942316Y18723121D01*
X159965721Y18713041D01*
X160117627Y18628144D01*
X160290870Y18571854D01*
X160348543Y18532418D01*
X160375742Y18468059D01*
X160363828Y18399213D01*
X160340231Y18366243D01*
X159607539Y17633551D01*
X159593357Y17621363D01*
X159576842Y17609209D01*
X159563875Y17593946D01*
X159544205Y17570793D01*
X159537385Y17563397D01*
X159532039Y17558051D01*
X159515185Y17536749D01*
X159512481Y17533451D01*
X159467308Y17480280D01*
X159464031Y17473862D01*
X159460935Y17469220D01*
X159458006Y17464477D01*
X159453534Y17458825D01*
X159450664Y17452685D01*
X159398821Y17406108D01*
X159329852Y17394925D01*
X159308627Y17399505D01*
X159234227Y17422535D01*
X159192049Y17435591D01*
X159186820Y17436141D01*
X159125356Y17468771D01*
X159091152Y17529696D01*
X159088000Y17557477D01*
X159088000Y18642853D01*
X159107685Y18709892D01*
X159160285Y18755275D01*
X159165383Y18756873D01*
X159310408Y18844703D01*
X159412319Y18946614D01*
X159473642Y18980099D01*
X159543334Y18975115D01*
G37*
%TD.AperFunction*%
%TA.AperFunction,Conductor*%
G36*
X149264871Y22624815D02*
G01*
X149285513Y22608181D01*
X149358181Y22535513D01*
X149391666Y22474190D01*
X149394500Y22447832D01*
X149394500Y22060638D01*
X149395222Y22031078D01*
X149395823Y22018782D01*
X149397098Y22001416D01*
X149396879Y21980658D01*
X149396775Y21979564D01*
X149396771Y21979512D01*
X149396685Y21978603D01*
X149396628Y21977696D01*
X149396626Y21977671D01*
X149396250Y21971682D01*
X149395693Y21962826D01*
X149394500Y21924829D01*
X149394500Y21302190D01*
X149395592Y21281810D01*
X149397770Y21241178D01*
X149397968Y21237475D01*
X149398144Y21235839D01*
X149400625Y21212760D01*
X149400847Y21210692D01*
X149401192Y21208714D01*
X149401193Y21208705D01*
X149411398Y21150151D01*
X149414449Y21132647D01*
X149471448Y20985215D01*
X149473395Y20981650D01*
X149473397Y20981645D01*
X149484081Y20962080D01*
X149505474Y20922903D01*
X149547199Y20867166D01*
X149606099Y20788485D01*
X149606104Y20788479D01*
X149608752Y20784942D01*
X149848980Y20544714D01*
X149882465Y20483391D01*
X149877481Y20413699D01*
X149835609Y20357766D01*
X149818763Y20347153D01*
X149727023Y20299193D01*
X149722295Y20295392D01*
X149722294Y20295391D01*
X149592851Y20191316D01*
X149581752Y20182392D01*
X149461935Y20039599D01*
X149372135Y19876254D01*
X149370303Y19870479D01*
X149320369Y19713066D01*
X149315772Y19698576D01*
X149315096Y19692548D01*
X149300682Y19564042D01*
X149294994Y19513335D01*
X149310592Y19327586D01*
X149312260Y19321768D01*
X149312261Y19321764D01*
X149351856Y19183679D01*
X149351412Y19113810D01*
X149313265Y19055273D01*
X149249526Y19026653D01*
X149232659Y19025500D01*
X148659336Y19025500D01*
X148654775Y19025237D01*
X148649660Y19024056D01*
X148649659Y19024056D01*
X148645891Y19023186D01*
X148486618Y18986415D01*
X148480387Y18983403D01*
X148480382Y18983401D01*
X148404285Y18946614D01*
X148331241Y18911303D01*
X148325826Y18906980D01*
X148319958Y18903285D01*
X148318404Y18905753D01*
X148265776Y18884252D01*
X148197078Y18896990D01*
X148188052Y18902046D01*
X148115961Y18946483D01*
X148094334Y18959814D01*
X147928228Y19014910D01*
X147873684Y19020498D01*
X147828013Y19025178D01*
X147828005Y19025178D01*
X147824866Y19025500D01*
X147656753Y19025500D01*
X147589714Y19045185D01*
X147543959Y19097989D01*
X147534015Y19167147D01*
X147563040Y19230703D01*
X147580411Y19247213D01*
X147606427Y19267539D01*
X147658655Y19308344D01*
X147780454Y19449450D01*
X147789286Y19464996D01*
X147869530Y19606252D01*
X147872526Y19611526D01*
X147931364Y19788399D01*
X147954727Y19973332D01*
X147955099Y20000000D01*
X147954384Y20007289D01*
X147937501Y20179477D01*
X147937501Y20179479D01*
X147936909Y20185513D01*
X147883033Y20363960D01*
X147873615Y20381674D01*
X147798371Y20523186D01*
X147798371Y20523187D01*
X147795522Y20528544D01*
X147781632Y20545575D01*
X147771536Y20557954D01*
X147744420Y20622347D01*
X147756423Y20691179D01*
X147808200Y20745155D01*
X147827097Y20755474D01*
X147899596Y20809747D01*
X147961515Y20856099D01*
X147961521Y20856104D01*
X147965058Y20858752D01*
X147968184Y20861878D01*
X147968191Y20861884D01*
X148390062Y21283756D01*
X148391248Y21284942D01*
X148423400Y21320734D01*
X148433444Y21331915D01*
X148433455Y21331927D01*
X148434551Y21333148D01*
X148451454Y21354122D01*
X148460435Y21366893D01*
X148493520Y21413944D01*
X148497024Y21418927D01*
X148560971Y21563481D01*
X148580973Y21631602D01*
X148581602Y21635980D01*
X148581604Y21635987D01*
X148604870Y21797810D01*
X148605500Y21802190D01*
X148605500Y21946320D01*
X148604969Y21971682D01*
X148604639Y21979564D01*
X148604554Y21981592D01*
X148604552Y21981636D01*
X148604527Y21982225D01*
X148604490Y21982817D01*
X148604487Y21982869D01*
X148603417Y21999867D01*
X148603605Y22018010D01*
X148603696Y22019100D01*
X148603771Y22019991D01*
X148604556Y22034036D01*
X148605241Y22058551D01*
X148605477Y22066986D01*
X148605477Y22067019D01*
X148605500Y22067826D01*
X148605500Y22447832D01*
X148625185Y22514871D01*
X148641819Y22535513D01*
X148714487Y22608181D01*
X148775810Y22641666D01*
X148802168Y22644500D01*
X149197832Y22644500D01*
X149264871Y22624815D01*
G37*
%TD.AperFunction*%
%TA.AperFunction,Conductor*%
G36*
X161349641Y25929815D02*
G01*
X161395396Y25877011D01*
X161405340Y25807853D01*
X161394005Y25771045D01*
X161364177Y25710023D01*
X161358559Y25691848D01*
X161350649Y25637628D01*
X161350000Y25628680D01*
X161350000Y25367830D01*
X161354404Y25352831D01*
X161355774Y25351644D01*
X161363332Y25350000D01*
X162932169Y25350000D01*
X162947168Y25354404D01*
X162948355Y25355774D01*
X162949999Y25363332D01*
X162949999Y25628642D01*
X162949338Y25637664D01*
X162941278Y25692426D01*
X162935624Y25710622D01*
X162906054Y25770851D01*
X162894178Y25839704D01*
X162921412Y25904047D01*
X162979110Y25943452D01*
X163017362Y25949500D01*
X163904576Y25949500D01*
X163971615Y25929815D01*
X164017370Y25877011D01*
X164027314Y25807853D01*
X164019220Y25778247D01*
X163979807Y25682623D01*
X163962267Y25640069D01*
X163949500Y25540406D01*
X163949501Y24912164D01*
X163949774Y24907411D01*
X163990173Y24732423D01*
X164068336Y24570734D01*
X164180380Y24430380D01*
X164320734Y24318336D01*
X164482423Y24240173D01*
X164489180Y24238613D01*
X164652295Y24200955D01*
X164652296Y24200955D01*
X164657411Y24199774D01*
X164662163Y24199500D01*
X164999714Y24199500D01*
X165337836Y24199501D01*
X165342589Y24199774D01*
X165459892Y24226855D01*
X165510821Y24238613D01*
X165510823Y24238614D01*
X165517577Y24240173D01*
X165597934Y24279019D01*
X165666857Y24290474D01*
X165711565Y24272395D01*
X165713117Y24275149D01*
X165720483Y24270999D01*
X165727217Y24265887D01*
X165735078Y24262775D01*
X165735079Y24262774D01*
X165860047Y24213296D01*
X165860049Y24213296D01*
X165867453Y24210364D01*
X165875357Y24209408D01*
X165875359Y24209407D01*
X165923951Y24203527D01*
X165957228Y24199500D01*
X166600500Y24199500D01*
X166667539Y24179815D01*
X166713294Y24127011D01*
X166724500Y24075500D01*
X166724500Y23675134D01*
X166735359Y23570481D01*
X166737507Y23564044D01*
X166737507Y23564042D01*
X166773725Y23455482D01*
X166790744Y23404471D01*
X166882834Y23255655D01*
X166887309Y23251187D01*
X166913389Y23186756D01*
X166900427Y23118099D01*
X166852404Y23067349D01*
X166789996Y23050500D01*
X166258425Y23050499D01*
X166209593Y23050499D01*
X166205597Y23049977D01*
X166205594Y23049977D01*
X166168898Y23045185D01*
X166108055Y23037240D01*
X166100466Y23034081D01*
X165976368Y22982425D01*
X165976365Y22982423D01*
X165968809Y22979278D01*
X165889309Y22917833D01*
X165582166Y22610690D01*
X165579715Y22607502D01*
X165579710Y22607497D01*
X165524749Y22536026D01*
X165519743Y22529516D01*
X165516615Y22521926D01*
X165516614Y22521925D01*
X165466163Y22399522D01*
X165462267Y22390069D01*
X165449500Y22290406D01*
X165449501Y21662164D01*
X165449774Y21657411D01*
X165490173Y21482423D01*
X165568336Y21320734D01*
X165680380Y21180380D01*
X165700347Y21164440D01*
X165740457Y21107234D01*
X165743272Y21037421D01*
X165707896Y20977168D01*
X165645561Y20945607D01*
X165610022Y20944213D01*
X165554961Y20950000D01*
X165506668Y20955076D01*
X165500635Y20954527D01*
X165500631Y20954527D01*
X165411011Y20946371D01*
X165348420Y20957295D01*
X165344334Y20959814D01*
X165178228Y21014910D01*
X165123684Y21020498D01*
X165078013Y21025178D01*
X165078005Y21025178D01*
X165074866Y21025500D01*
X164575134Y21025500D01*
X164470481Y21014641D01*
X164464044Y21012493D01*
X164464042Y21012493D01*
X164351152Y20974830D01*
X164304471Y20959256D01*
X164271305Y20938732D01*
X164161780Y20870957D01*
X164161776Y20870954D01*
X164155655Y20867166D01*
X164150567Y20862069D01*
X164150563Y20862066D01*
X164087770Y20799163D01*
X164026476Y20765624D01*
X163956780Y20770547D01*
X163912408Y20799009D01*
X163848413Y20862891D01*
X163843311Y20867984D01*
X163812035Y20887263D01*
X163760073Y20919292D01*
X163694334Y20959814D01*
X163528228Y21014910D01*
X163473684Y21020498D01*
X163428013Y21025178D01*
X163428005Y21025178D01*
X163424866Y21025500D01*
X163015840Y21025500D01*
X162948801Y21045185D01*
X162903046Y21097989D01*
X162893102Y21167147D01*
X162898179Y21188640D01*
X162929451Y21282647D01*
X162929452Y21282651D01*
X162931364Y21288399D01*
X162933315Y21303838D01*
X162944269Y21390552D01*
X162954727Y21473332D01*
X162954948Y21489180D01*
X162955051Y21496538D01*
X162955051Y21496543D01*
X162955099Y21500000D01*
X162954108Y21510103D01*
X162937501Y21679477D01*
X162937501Y21679479D01*
X162936909Y21685513D01*
X162883033Y21863960D01*
X162872777Y21883250D01*
X162798371Y22023186D01*
X162798371Y22023187D01*
X162795522Y22028544D01*
X162692144Y22155297D01*
X162681545Y22168293D01*
X162681544Y22168294D01*
X162677710Y22172995D01*
X162571278Y22261044D01*
X162538760Y22287946D01*
X162538757Y22287948D01*
X162534085Y22291813D01*
X162426471Y22350000D01*
X162382930Y22373543D01*
X162333322Y22422744D01*
X162318189Y22490955D01*
X162334091Y22543868D01*
X162369530Y22606252D01*
X162372526Y22611526D01*
X162431364Y22788399D01*
X162432248Y22795391D01*
X162443638Y22885552D01*
X162454727Y22973332D01*
X162455099Y23000000D01*
X162454431Y23006809D01*
X162437501Y23179477D01*
X162437501Y23179479D01*
X162436909Y23185513D01*
X162383033Y23363960D01*
X162376080Y23377038D01*
X162298371Y23523186D01*
X162298371Y23523187D01*
X162295522Y23528544D01*
X162177710Y23672995D01*
X162059245Y23770999D01*
X162038760Y23787946D01*
X162038757Y23787948D01*
X162034085Y23791813D01*
X161870116Y23880471D01*
X161864325Y23882263D01*
X161863413Y23882647D01*
X161809241Y23926773D01*
X161787524Y23993182D01*
X161795561Y24023992D01*
X161791628Y24024848D01*
X161800000Y24063332D01*
X161800000Y24067831D01*
X162500000Y24067831D01*
X162504404Y24052832D01*
X162505774Y24051645D01*
X162513332Y24050001D01*
X162628642Y24050001D01*
X162637664Y24050662D01*
X162692426Y24058722D01*
X162710622Y24064375D01*
X162797358Y24106961D01*
X162813803Y24118734D01*
X162881642Y24186691D01*
X162893381Y24203150D01*
X162935823Y24289977D01*
X162941441Y24308152D01*
X162949351Y24362372D01*
X162950000Y24371320D01*
X162950000Y24632170D01*
X162945596Y24647169D01*
X162944226Y24648356D01*
X162936668Y24650000D01*
X162517830Y24650000D01*
X162502831Y24645596D01*
X162501644Y24644226D01*
X162500000Y24636668D01*
X162500000Y24067831D01*
X161800000Y24067831D01*
X161800000Y24632170D01*
X161795596Y24647169D01*
X161794226Y24648356D01*
X161786668Y24650000D01*
X161367831Y24650000D01*
X161352832Y24645596D01*
X161351645Y24644226D01*
X161350001Y24636668D01*
X161350001Y24371358D01*
X161350662Y24362336D01*
X161358722Y24307574D01*
X161364375Y24289378D01*
X161406961Y24202642D01*
X161418736Y24186193D01*
X161450705Y24154280D01*
X161484243Y24092986D01*
X161479319Y24023290D01*
X161437497Y23967320D01*
X161374339Y23943033D01*
X161348623Y23940693D01*
X161327074Y23938732D01*
X161327073Y23938732D01*
X161321032Y23938182D01*
X161315213Y23936469D01*
X161315211Y23936469D01*
X161148030Y23887264D01*
X161148028Y23887263D01*
X161142214Y23885552D01*
X161136842Y23882744D01*
X161136838Y23882742D01*
X161095860Y23861319D01*
X161027330Y23847704D01*
X160961050Y23874300D01*
X160915860Y23910375D01*
X160759221Y23986098D01*
X160752467Y23987657D01*
X160752465Y23987658D01*
X160594814Y24024054D01*
X160594813Y24024054D01*
X160589698Y24025235D01*
X160585102Y24025500D01*
X160301874Y24025500D01*
X160234835Y24045185D01*
X160214193Y24061819D01*
X159886819Y24389193D01*
X159853334Y24450516D01*
X159850500Y24476874D01*
X159850500Y25642772D01*
X159845826Y25681394D01*
X159840593Y25724641D01*
X159840592Y25724643D01*
X159839636Y25732547D01*
X159820906Y25779854D01*
X159814529Y25849430D01*
X159846781Y25911411D01*
X159907422Y25946115D01*
X159936198Y25949500D01*
X161282602Y25949500D01*
X161349641Y25929815D01*
G37*
%TD.AperFunction*%
%TA.AperFunction,Conductor*%
G36*
X170919007Y24599500D02*
G01*
X170946558Y24599500D01*
X172025500Y24599501D01*
X172092539Y24579816D01*
X172138294Y24527013D01*
X172149500Y24475502D01*
X172149501Y24324001D01*
X172129817Y24256961D01*
X172077013Y24211206D01*
X172025501Y24200000D01*
X171880330Y24200000D01*
X171865331Y24195596D01*
X171864144Y24194226D01*
X171862500Y24186668D01*
X171862500Y23867830D01*
X171866904Y23852831D01*
X171868274Y23851644D01*
X171875832Y23850000D01*
X172307933Y23850000D01*
X172374972Y23830315D01*
X172395614Y23813681D01*
X172414592Y23794703D01*
X172420987Y23790830D01*
X172553221Y23710746D01*
X172553225Y23710744D01*
X172559617Y23706873D01*
X172721406Y23656171D01*
X172794007Y23649500D01*
X173437273Y23649500D01*
X174080992Y23649501D01*
X174089150Y23650250D01*
X174147042Y23655569D01*
X174147043Y23655569D01*
X174153594Y23656171D01*
X174315383Y23706873D01*
X174321775Y23710744D01*
X174321779Y23710746D01*
X174454008Y23790827D01*
X174460408Y23794703D01*
X174464134Y23798429D01*
X174528160Y23823955D01*
X174539771Y23824500D01*
X174668837Y23824500D01*
X174735876Y23804815D01*
X174756518Y23788181D01*
X175002754Y23541945D01*
X175008515Y23535779D01*
X175044683Y23494319D01*
X175094437Y23459351D01*
X175099646Y23455482D01*
X175147503Y23417958D01*
X175154320Y23414880D01*
X175158336Y23412448D01*
X175168191Y23406826D01*
X175172331Y23404606D01*
X175178448Y23400307D01*
X175185418Y23397590D01*
X175185417Y23397590D01*
X175235106Y23378217D01*
X175241093Y23375700D01*
X175281252Y23357567D01*
X175312273Y23335726D01*
X175312959Y23336532D01*
X175426132Y23240215D01*
X175454912Y23215721D01*
X175617627Y23124783D01*
X175636307Y23118714D01*
X175693981Y23079276D01*
X175721179Y23014917D01*
X175709264Y22946071D01*
X175662020Y22894595D01*
X175646363Y22886773D01*
X175642214Y22885552D01*
X175636834Y22882739D01*
X175636833Y22882739D01*
X175604489Y22865830D01*
X175477023Y22799193D01*
X175472295Y22795392D01*
X175472294Y22795391D01*
X175419399Y22752862D01*
X175354818Y22726196D01*
X175341700Y22725500D01*
X174064407Y22725500D01*
X174045757Y22726911D01*
X174032614Y22728911D01*
X174032610Y22728911D01*
X174025492Y22729994D01*
X173987586Y22726911D01*
X173975253Y22725908D01*
X173965201Y22725500D01*
X173957637Y22725500D01*
X173951559Y22724791D01*
X173930710Y22722361D01*
X173926403Y22721935D01*
X173867116Y22717113D01*
X173856873Y22716280D01*
X173850019Y22714060D01*
X173844551Y22712967D01*
X173839114Y22711682D01*
X173831963Y22710848D01*
X173825196Y22708392D01*
X173825193Y22708391D01*
X173766385Y22687044D01*
X173762291Y22685639D01*
X173702788Y22666363D01*
X173702786Y22666362D01*
X173695933Y22664142D01*
X173689778Y22660408D01*
X173684707Y22658086D01*
X173679707Y22655582D01*
X173672939Y22653125D01*
X173618263Y22617277D01*
X173614596Y22614873D01*
X173610980Y22612591D01*
X173551302Y22576378D01*
X173547167Y22572726D01*
X173547163Y22572723D01*
X173543288Y22569300D01*
X173543272Y22569319D01*
X173540049Y22566461D01*
X173537486Y22564318D01*
X173531460Y22560367D01*
X173485119Y22511448D01*
X173480568Y22506644D01*
X173478228Y22504240D01*
X173032539Y22058551D01*
X173018357Y22046363D01*
X173001842Y22034209D01*
X172989006Y22019100D01*
X172969205Y21995793D01*
X172962385Y21988397D01*
X172957039Y21983051D01*
X172940185Y21961749D01*
X172937481Y21958451D01*
X172892308Y21905280D01*
X172889030Y21898861D01*
X172885938Y21894224D01*
X172883008Y21889480D01*
X172878534Y21883825D01*
X172875481Y21877293D01*
X172875480Y21877291D01*
X172848995Y21820624D01*
X172847095Y21816737D01*
X172825273Y21774000D01*
X172815373Y21754611D01*
X172813661Y21747614D01*
X172811713Y21742377D01*
X172809953Y21737086D01*
X172806904Y21730562D01*
X172805437Y21723511D01*
X172805437Y21723510D01*
X172792694Y21662245D01*
X172791741Y21658035D01*
X172775162Y21590283D01*
X172774500Y21579612D01*
X172774476Y21579613D01*
X172774217Y21575309D01*
X172773920Y21571985D01*
X172772453Y21564931D01*
X172774117Y21503448D01*
X172774455Y21490944D01*
X172774500Y21487590D01*
X172774500Y21009798D01*
X172754815Y20942759D01*
X172715752Y20904355D01*
X172655655Y20867166D01*
X172650567Y20862069D01*
X172650563Y20862066D01*
X172587770Y20799163D01*
X172526476Y20765624D01*
X172456780Y20770547D01*
X172412408Y20799009D01*
X172348413Y20862891D01*
X172343311Y20867984D01*
X172312035Y20887263D01*
X172260073Y20919292D01*
X172194334Y20959814D01*
X172028228Y21014910D01*
X171973684Y21020498D01*
X171928013Y21025178D01*
X171928005Y21025178D01*
X171924866Y21025500D01*
X171881653Y21025500D01*
X171814614Y21045185D01*
X171768859Y21097989D01*
X171758915Y21167147D01*
X171787940Y21230703D01*
X171806682Y21248269D01*
X171910833Y21327325D01*
X171922675Y21339167D01*
X172003561Y21445730D01*
X172011786Y21460326D01*
X172061214Y21585168D01*
X172065103Y21600478D01*
X172068953Y21632301D01*
X172066595Y21646447D01*
X172053975Y21650000D01*
X171099000Y21650000D01*
X171031961Y21669685D01*
X170986206Y21722489D01*
X170975000Y21774000D01*
X170975000Y22367830D01*
X171675000Y22367830D01*
X171679404Y22352831D01*
X171680774Y22351644D01*
X171688332Y22350000D01*
X172053265Y22350000D01*
X172067027Y22354041D01*
X172069038Y22366999D01*
X172065103Y22399522D01*
X172061214Y22414832D01*
X172011786Y22539674D01*
X172003561Y22554270D01*
X171922675Y22660833D01*
X171910832Y22672676D01*
X171904830Y22677232D01*
X171863333Y22733444D01*
X171858815Y22803167D01*
X171892709Y22864265D01*
X171954254Y22897340D01*
X171979802Y22900000D01*
X172193972Y22900000D01*
X172200669Y22900363D01*
X172250744Y22905803D01*
X172265753Y22909371D01*
X172384311Y22953817D01*
X172399646Y22962212D01*
X172500124Y23037516D01*
X172512484Y23049876D01*
X172587788Y23150354D01*
X172596183Y23165689D01*
X172621532Y23233305D01*
X172622545Y23247147D01*
X172617341Y23250000D01*
X171880330Y23250000D01*
X171865331Y23245596D01*
X171864144Y23244226D01*
X171862500Y23236668D01*
X171862500Y22915412D01*
X171842815Y22848373D01*
X171790011Y22802618D01*
X171720853Y22792674D01*
X171692855Y22800119D01*
X171691577Y22800625D01*
X171677756Y22801892D01*
X171675000Y22797076D01*
X171675000Y22367830D01*
X170975000Y22367830D01*
X170975000Y22776000D01*
X170994685Y22843039D01*
X171047489Y22888794D01*
X171099000Y22900000D01*
X171244670Y22900000D01*
X171259669Y22904404D01*
X171260856Y22905774D01*
X171262500Y22913332D01*
X171262500Y23232170D01*
X171258096Y23247169D01*
X171256726Y23248356D01*
X171249168Y23250000D01*
X170515040Y23250000D01*
X170501723Y23246090D01*
X170500878Y23240215D01*
X170528817Y23165689D01*
X170537212Y23150354D01*
X170612516Y23049876D01*
X170624876Y23037516D01*
X170725354Y22962212D01*
X170740687Y22953818D01*
X170777060Y22940182D01*
X170832923Y22898217D01*
X170857231Y22832712D01*
X170842265Y22764464D01*
X170808502Y22725303D01*
X170739166Y22672674D01*
X170727324Y22660832D01*
X170721659Y22653369D01*
X170665447Y22611872D01*
X170595724Y22607354D01*
X170534626Y22641248D01*
X170517447Y22663091D01*
X170515423Y22666363D01*
X170467166Y22744345D01*
X170403423Y22807977D01*
X170348409Y22862895D01*
X170348408Y22862895D01*
X170343311Y22867984D01*
X170304170Y22892111D01*
X170262440Y22917833D01*
X170194334Y22959814D01*
X170028228Y23014910D01*
X169973684Y23020498D01*
X169928013Y23025178D01*
X169928005Y23025178D01*
X169924866Y23025500D01*
X169881653Y23025500D01*
X169814614Y23045185D01*
X169768859Y23097989D01*
X169758915Y23167147D01*
X169787940Y23230703D01*
X169806682Y23248269D01*
X169910833Y23327325D01*
X169922675Y23339167D01*
X170003561Y23445730D01*
X170011786Y23460326D01*
X170061214Y23585168D01*
X170065103Y23600478D01*
X170068953Y23632301D01*
X170066595Y23646447D01*
X170053975Y23650000D01*
X169099000Y23650000D01*
X169031961Y23669685D01*
X168986206Y23722489D01*
X168975000Y23774000D01*
X168975000Y23852853D01*
X170502455Y23852853D01*
X170507659Y23850000D01*
X171244670Y23850000D01*
X171259669Y23854404D01*
X171260856Y23855774D01*
X171262500Y23863332D01*
X171262500Y24182170D01*
X171258096Y24197169D01*
X171256726Y24198356D01*
X171249168Y24200000D01*
X170931028Y24200000D01*
X170924331Y24199637D01*
X170874256Y24194197D01*
X170859247Y24190629D01*
X170740689Y24146183D01*
X170725354Y24137788D01*
X170624876Y24062484D01*
X170612516Y24050124D01*
X170537212Y23949646D01*
X170528817Y23934311D01*
X170503468Y23866695D01*
X170502455Y23852853D01*
X168975000Y23852853D01*
X168975000Y24226000D01*
X168994685Y24293039D01*
X169047489Y24338794D01*
X169099000Y24350000D01*
X170053265Y24350000D01*
X170067027Y24354041D01*
X170069038Y24366999D01*
X170065103Y24399522D01*
X170061216Y24414826D01*
X170054493Y24431805D01*
X170048116Y24501383D01*
X170080368Y24563364D01*
X170141009Y24598069D01*
X170208103Y24595385D01*
X170283972Y24570734D01*
X170294907Y24567181D01*
X170479998Y24545110D01*
X170486041Y24545575D01*
X170486043Y24545575D01*
X170543482Y24549995D01*
X170665851Y24559411D01*
X170814593Y24600940D01*
X170859282Y24604988D01*
X170919007Y24599500D01*
G37*
%TD.AperFunction*%
%TD*%
%TA.AperFunction,Conductor*%
%TO.N,+15V*%
G36*
X155866431Y25879498D02*
G01*
X155887405Y25862595D01*
X156213095Y25536905D01*
X156247121Y25474593D01*
X156250000Y25447810D01*
X156250000Y13250000D01*
X157213095Y12286905D01*
X157247121Y12224593D01*
X157250000Y12197810D01*
X157250000Y10626000D01*
X157229998Y10557879D01*
X157176342Y10511386D01*
X157124000Y10500000D01*
X155876000Y10500000D01*
X155807879Y10520002D01*
X155761386Y10573658D01*
X155750000Y10626000D01*
X155750000Y11500000D01*
X155250000Y12000000D01*
X154314211Y12000000D01*
X154301040Y12000690D01*
X154263147Y12004673D01*
X154263146Y12004673D01*
X154257019Y12005317D01*
X154207961Y12000852D01*
X154204298Y12000519D01*
X154192878Y12000000D01*
X154000000Y12000000D01*
X153979346Y11979346D01*
X153925826Y11947568D01*
X153873393Y11932136D01*
X153867928Y11929279D01*
X153704972Y11844088D01*
X153704968Y11844085D01*
X153699512Y11841233D01*
X153694712Y11837373D01*
X153694711Y11837373D01*
X153660326Y11809727D01*
X153546600Y11718289D01*
X153420480Y11567984D01*
X153417516Y11562592D01*
X153417513Y11562588D01*
X153386028Y11505317D01*
X153325956Y11396046D01*
X153324095Y11390179D01*
X153324094Y11390177D01*
X153296292Y11302534D01*
X153266628Y11209022D01*
X153244757Y11014037D01*
X153261175Y10818517D01*
X153315258Y10629909D01*
X153318074Y10624430D01*
X153318075Y10624427D01*
X153351922Y10558569D01*
X153365270Y10488838D01*
X153350272Y10440276D01*
X153325956Y10396046D01*
X153266628Y10209022D01*
X153244757Y10014037D01*
X153261175Y9818517D01*
X153274878Y9770731D01*
X153306420Y9660731D01*
X153305970Y9589736D01*
X153267208Y9530254D01*
X153202441Y9501171D01*
X153185301Y9500000D01*
X152552190Y9500000D01*
X152484069Y9520002D01*
X152463095Y9536905D01*
X152286905Y9713095D01*
X152252879Y9775407D01*
X152250000Y9802190D01*
X152250000Y11250000D01*
X152000000Y11500000D01*
X151552190Y11500000D01*
X151484069Y11520002D01*
X151463095Y11536905D01*
X151036905Y11963095D01*
X151002879Y12025407D01*
X151000000Y12052190D01*
X151000000Y16197810D01*
X151020002Y16265931D01*
X151036905Y16286905D01*
X151500000Y16750000D01*
X151500000Y20250000D01*
X151000000Y20750000D01*
X150552190Y20750000D01*
X150484069Y20770002D01*
X150463095Y20786905D01*
X150036905Y21213095D01*
X150002879Y21275407D01*
X150000000Y21302190D01*
X150000000Y21924829D01*
X150000992Y21940606D01*
X150004949Y21971929D01*
X150005341Y22000000D01*
X150000601Y22048342D01*
X150000000Y22060638D01*
X150000000Y22750000D01*
X149500000Y23250000D01*
X148500000Y23250000D01*
X148000000Y22750000D01*
X148000000Y22067826D01*
X147999215Y22053781D01*
X147994757Y22014037D01*
X147995273Y22007893D01*
X147999558Y21956863D01*
X148000000Y21946320D01*
X148000000Y21802190D01*
X147979998Y21734069D01*
X147963095Y21713095D01*
X147536905Y21286905D01*
X147474593Y21252879D01*
X147447810Y21250000D01*
X144802190Y21250000D01*
X144734069Y21270002D01*
X144713095Y21286905D01*
X144286905Y21713095D01*
X144252879Y21775407D01*
X144250000Y21802190D01*
X144250000Y25447810D01*
X144270002Y25515931D01*
X144286905Y25536905D01*
X144612595Y25862595D01*
X144674907Y25896621D01*
X144701690Y25899500D01*
X155798310Y25899500D01*
X155866431Y25879498D01*
G37*
%TD.AperFunction*%
%TD*%
M02*
