%TF.GenerationSoftware,KiCad,Pcbnew,(6.0.5)*%
%TF.CreationDate,2022-09-08T00:21:15+12:00*%
%TF.ProjectId,OpenEFCS_electronics,4f70656e-4546-4435-935f-656c65637472,rev?*%
%TF.SameCoordinates,Original*%
%TF.FileFunction,Copper,L3,Inr*%
%TF.FilePolarity,Positive*%
%FSLAX46Y46*%
G04 Gerber Fmt 4.6, Leading zero omitted, Abs format (unit mm)*
G04 Created by KiCad (PCBNEW (6.0.5)) date 2022-09-08 00:21:15*
%MOMM*%
%LPD*%
G01*
G04 APERTURE LIST*
G04 Aperture macros list*
%AMRoundRect*
0 Rectangle with rounded corners*
0 $1 Rounding radius*
0 $2 $3 $4 $5 $6 $7 $8 $9 X,Y pos of 4 corners*
0 Add a 4 corners polygon primitive as box body*
4,1,4,$2,$3,$4,$5,$6,$7,$8,$9,$2,$3,0*
0 Add four circle primitives for the rounded corners*
1,1,$1+$1,$2,$3*
1,1,$1+$1,$4,$5*
1,1,$1+$1,$6,$7*
1,1,$1+$1,$8,$9*
0 Add four rect primitives between the rounded corners*
20,1,$1+$1,$2,$3,$4,$5,0*
20,1,$1+$1,$4,$5,$6,$7,0*
20,1,$1+$1,$6,$7,$8,$9,0*
20,1,$1+$1,$8,$9,$2,$3,0*%
G04 Aperture macros list end*
%TA.AperFunction,ComponentPad*%
%ADD10RoundRect,0.291667X-0.608333X0.408333X-0.608333X-0.408333X0.608333X-0.408333X0.608333X0.408333X0*%
%TD*%
%TA.AperFunction,ComponentPad*%
%ADD11O,1.800000X1.400000*%
%TD*%
%TA.AperFunction,ComponentPad*%
%ADD12O,3.800000X3.000000*%
%TD*%
%TA.AperFunction,ViaPad*%
%ADD13C,3.000000*%
%TD*%
%TA.AperFunction,ViaPad*%
%ADD14C,0.800000*%
%TD*%
%TA.AperFunction,Conductor*%
%ADD15C,0.250000*%
%TD*%
G04 APERTURE END LIST*
D10*
%TO.N,/Tracer-*%
%TO.C,J5*%
X177550000Y24000000D03*
D11*
%TO.N,+3V3*%
X177550000Y22000000D03*
%TO.N,GNDREF*%
X177550000Y20000000D03*
%TO.N,/AIN1*%
X177550000Y18000000D03*
%TO.N,/AIN2*%
X177550000Y16000000D03*
%TO.N,/D1{slash}Tx2*%
X177550000Y14000000D03*
%TO.N,/D2{slash}Rx2*%
X177550000Y12000000D03*
%TO.N,+15V*%
X177550000Y10000000D03*
%TD*%
D12*
%TO.N,+15V*%
%TO.C,F1*%
X153850000Y20800000D03*
X153850000Y24200000D03*
%TO.N,+BATT*%
X140150000Y24200000D03*
X140150000Y20800000D03*
%TD*%
D13*
%TO.N,*%
X173000000Y10500000D03*
D14*
%TO.N,+15V*%
X153000000Y15250000D03*
X152000000Y14250000D03*
X153000000Y17250000D03*
X153000000Y18250000D03*
X153000000Y13250000D03*
X155000000Y17250000D03*
X155000000Y18250000D03*
X154000000Y13250000D03*
X168500000Y8500000D03*
X154000000Y17250000D03*
X152000000Y15250000D03*
X154000000Y18250000D03*
X153000000Y14250000D03*
%TO.N,/M+*%
X147000000Y15500000D03*
X144000000Y15500000D03*
X145000000Y15500000D03*
X146000000Y14500000D03*
X151025000Y10500000D03*
X146000000Y15500000D03*
X147000000Y14500000D03*
X145000000Y14500000D03*
X144000000Y14500000D03*
X148000000Y15500000D03*
X148000000Y14500000D03*
%TO.N,+3V3*%
X165500000Y20000000D03*
X176000000Y22000000D03*
X147000000Y20000000D03*
X162500000Y14500000D03*
X174000000Y20000000D03*
%TO.N,/LED0*%
X165250000Y17000000D03*
%TO.N,/LED1*%
X165250000Y18500000D03*
%TO.N,/Tracer-*%
X176000000Y24000000D03*
%TO.N,/BOOT0*%
X168000000Y22000000D03*
%TO.N,/RESET*%
X168000000Y20500000D03*
X171000000Y20000000D03*
%TO.N,+5V*%
X161500000Y18500000D03*
X162000000Y21500000D03*
%TO.N,/CONF*%
X182000000Y25500000D03*
%TO.N,/HB_HIGH*%
X146750000Y9750000D03*
%TO.N,/HB_LOW*%
X145250000Y9750000D03*
%TO.N,/Tracer*%
X166500000Y25250000D03*
%TO.N,/ISENSE_RUN_LP*%
X170000000Y17000000D03*
X168000000Y13000000D03*
%TO.N,/BATT_SENSE*%
X166000000Y10500000D03*
X165000000Y13000000D03*
%TO.N,/SWDIO*%
X166500000Y22000000D03*
%TO.N,/SWCLK*%
X164997817Y25250000D03*
%TO.N,GNDPWR*%
X136500000Y9500000D03*
X139500000Y10750000D03*
X137500000Y9500000D03*
X141500000Y9500000D03*
X135250000Y10750000D03*
X135250000Y9500000D03*
X138500000Y9500000D03*
X141500000Y10750000D03*
X138500000Y10750000D03*
X140500000Y9500000D03*
X140500000Y10750000D03*
X137500000Y10750000D03*
X139500000Y9500000D03*
X161000000Y8500000D03*
X136250000Y10750000D03*
%TO.N,GNDREF*%
X173500000Y23000000D03*
X179500000Y24500000D03*
X170500000Y18250000D03*
X175500000Y13000000D03*
X182000000Y20500000D03*
X179500000Y9000000D03*
X163750000Y10250000D03*
X182000000Y13500000D03*
X175500000Y23000000D03*
X169750000Y9750000D03*
X163750000Y12500000D03*
X171000000Y24000000D03*
X179500000Y15000000D03*
X159000000Y9250000D03*
X173500000Y25500000D03*
X161500000Y16500000D03*
X173500000Y16000000D03*
X179500000Y21000000D03*
X166500000Y11500000D03*
X157500000Y15000000D03*
X163487701Y25012299D03*
X159400000Y13200000D03*
X176500000Y19500000D03*
X159250000Y18500000D03*
X149000000Y22000000D03*
X157500000Y25250000D03*
%TO.N,Net-(Q1-Pad1)*%
X170500000Y25500000D03*
%TO.N,Net-(R4-Pad1)*%
X160500000Y19503361D03*
%TO.N,/NTC*%
X161400000Y13200000D03*
X166500000Y13000000D03*
%TO.N,/ISENSE_RUN*%
X150250000Y19500000D03*
X166500000Y17000000D03*
%TO.N,/PWMH*%
X169500000Y13000000D03*
X154250000Y11000000D03*
%TO.N,/PWML*%
X169500000Y11500000D03*
X154250000Y10000000D03*
%TO.N,/PREC*%
X182000000Y8500000D03*
X171000000Y13000000D03*
%TO.N,Net-(R5-Pad1)*%
X159000000Y16500000D03*
%TO.N,Net-(C4-Pad1)*%
X159750000Y20500000D03*
%TO.N,Net-(C8-Pad2)*%
X161500000Y23000000D03*
%TO.N,Net-(C17-Pad2)*%
X148250000Y12000000D03*
%TD*%
D15*
%TO.N,/NTC*%
X166000000Y14500000D02*
X166500000Y14000000D01*
X163200000Y13200000D02*
X164500000Y14500000D01*
X166500000Y14000000D02*
X166500000Y13000000D01*
X161400000Y13200000D02*
X163200000Y13200000D01*
X164500000Y14500000D02*
X166000000Y14500000D01*
%TO.N,/ISENSE_RUN*%
X166500000Y16000000D02*
X166500000Y17000000D01*
X166000000Y15500000D02*
X166500000Y16000000D01*
X158500000Y15500000D02*
X166000000Y15500000D01*
X150250000Y19500000D02*
X150250000Y18000000D01*
X152000000Y16250000D02*
X157750000Y16250000D01*
X150250000Y18000000D02*
X152000000Y16250000D01*
X157750000Y16250000D02*
X158500000Y15500000D01*
%TO.N,/PWMH*%
X168000000Y10750000D02*
X168000000Y11500000D01*
X154250000Y11000000D02*
X161000000Y11000000D01*
X161000000Y11000000D02*
X163000000Y9000000D01*
X168000000Y11500000D02*
X169500000Y13000000D01*
X166250000Y9000000D02*
X168000000Y10750000D01*
X163000000Y9000000D02*
X166250000Y9000000D01*
%TO.N,/PWML*%
X154250000Y10000000D02*
X161000000Y10000000D01*
X166500000Y8500000D02*
X162500000Y8500000D01*
X169500000Y11500000D02*
X166500000Y8500000D01*
X162500000Y8500000D02*
X161000000Y10000000D01*
%TO.N,/PREC*%
X170750000Y9250000D02*
X170750000Y12750000D01*
X170750000Y12750000D02*
X171000000Y13000000D01*
X182000000Y8500000D02*
X181500000Y8000000D01*
X172000000Y8000000D02*
X170750000Y9250000D01*
X181500000Y8000000D02*
X172000000Y8000000D01*
%TD*%
%TA.AperFunction,Conductor*%
%TO.N,/M+*%
G36*
X147765677Y18230315D02*
G01*
X147786319Y18213681D01*
X149463681Y16536319D01*
X149497166Y16474996D01*
X149500000Y16448638D01*
X149500000Y13551362D01*
X149480315Y13484323D01*
X149463681Y13463681D01*
X149036319Y13036319D01*
X148974996Y13002834D01*
X148948638Y13000000D01*
X138551362Y13000000D01*
X138484323Y13019685D01*
X138463681Y13036319D01*
X138036319Y13463681D01*
X138002834Y13525004D01*
X138000000Y13551362D01*
X138000000Y16198638D01*
X138019685Y16265677D01*
X138036319Y16286319D01*
X138963681Y17213681D01*
X139025004Y17247166D01*
X139051362Y17250000D01*
X142500000Y17250000D01*
X143463681Y18213681D01*
X143525004Y18247166D01*
X143551362Y18250000D01*
X147698638Y18250000D01*
X147765677Y18230315D01*
G37*
%TD.AperFunction*%
%TD*%
%TA.AperFunction,Conductor*%
%TO.N,+15V*%
G36*
X155816431Y25929498D02*
G01*
X155837405Y25912595D01*
X156213095Y25536905D01*
X156247121Y25474593D01*
X156250000Y25447810D01*
X156250000Y24500000D01*
X157213095Y23536905D01*
X157247121Y23474593D01*
X157250000Y23447810D01*
X157250000Y17552190D01*
X157229998Y17484069D01*
X157213095Y17463095D01*
X156786905Y17036905D01*
X156724593Y17002879D01*
X156697810Y17000000D01*
X152257491Y17000000D01*
X152189370Y17020002D01*
X152168396Y17036905D01*
X151536905Y17668396D01*
X151502879Y17730708D01*
X151500000Y17757491D01*
X151500000Y20250000D01*
X151000000Y20750000D01*
X150552190Y20750000D01*
X150484069Y20770002D01*
X150463095Y20786905D01*
X150036905Y21213095D01*
X150002879Y21275407D01*
X150000000Y21302190D01*
X150000000Y22750000D01*
X149500000Y23250000D01*
X148500000Y23250000D01*
X148000000Y22750000D01*
X148000000Y21802190D01*
X147979998Y21734069D01*
X147963095Y21713095D01*
X147536905Y21286905D01*
X147474593Y21252879D01*
X147447810Y21250000D01*
X144802190Y21250000D01*
X144734069Y21270002D01*
X144713095Y21286905D01*
X144286905Y21713095D01*
X144252879Y21775407D01*
X144250000Y21802190D01*
X144250000Y25447810D01*
X144270002Y25515931D01*
X144286905Y25536905D01*
X144662595Y25912595D01*
X144724907Y25946621D01*
X144751690Y25949500D01*
X155748310Y25949500D01*
X155816431Y25929498D01*
G37*
%TD.AperFunction*%
%TD*%
%TA.AperFunction,Conductor*%
%TO.N,GNDREF*%
G36*
X170027953Y10620547D02*
G01*
X170068011Y10563301D01*
X170074500Y10523712D01*
X170074500Y9277697D01*
X170074213Y9269263D01*
X170071391Y9227863D01*
X170070472Y9214387D01*
X170078517Y9168293D01*
X170080928Y9154477D01*
X170081875Y9148059D01*
X170089181Y9087687D01*
X170091825Y9080689D01*
X170092948Y9076119D01*
X170095940Y9065183D01*
X170097295Y9060694D01*
X170098581Y9053325D01*
X170101586Y9046480D01*
X170101587Y9046476D01*
X170123022Y8997646D01*
X170125474Y8991638D01*
X170146973Y8934745D01*
X170151210Y8928581D01*
X170153393Y8924405D01*
X170158899Y8914511D01*
X170161296Y8910458D01*
X170164299Y8903617D01*
X170168850Y8897686D01*
X170201317Y8855374D01*
X170205132Y8850123D01*
X170233846Y8808344D01*
X170239579Y8800003D01*
X170279664Y8764289D01*
X170283850Y8760559D01*
X170289042Y8755657D01*
X170782518Y8262181D01*
X170816003Y8200858D01*
X170811019Y8131166D01*
X170769147Y8075233D01*
X170703683Y8050816D01*
X170694837Y8050500D01*
X169524156Y8050500D01*
X169457117Y8070185D01*
X169411362Y8122989D01*
X169401418Y8192147D01*
X169406496Y8213641D01*
X169429449Y8282640D01*
X169429451Y8282647D01*
X169431364Y8288399D01*
X169454727Y8473332D01*
X169455099Y8500000D01*
X169454309Y8508059D01*
X169437501Y8679477D01*
X169437501Y8679479D01*
X169436909Y8685513D01*
X169383033Y8863960D01*
X169377279Y8874783D01*
X169298371Y9023186D01*
X169298371Y9023187D01*
X169295522Y9028544D01*
X169199376Y9146430D01*
X169181545Y9168293D01*
X169181544Y9168294D01*
X169177710Y9172995D01*
X169111387Y9227863D01*
X169038760Y9287946D01*
X169038757Y9287948D01*
X169034085Y9291813D01*
X168959484Y9332150D01*
X168875447Y9377589D01*
X168875443Y9377591D01*
X168870116Y9380471D01*
X168692049Y9435591D01*
X168678082Y9437059D01*
X168613468Y9463643D01*
X168573482Y9520940D01*
X168570822Y9590759D01*
X168603362Y9648061D01*
X169469678Y10514377D01*
X169531001Y10547862D01*
X169547846Y10550331D01*
X169665851Y10559411D01*
X169743235Y10581017D01*
X169839547Y10607907D01*
X169839551Y10607909D01*
X169845387Y10609538D01*
X169850798Y10612271D01*
X169850805Y10612274D01*
X169894591Y10634392D01*
X169963304Y10647049D01*
X170027953Y10620547D01*
G37*
%TD.AperFunction*%
%TA.AperFunction,Conductor*%
G36*
X138369978Y25929815D02*
G01*
X138415733Y25877011D01*
X138425677Y25807853D01*
X138396652Y25744297D01*
X138389078Y25736303D01*
X138222461Y25575403D01*
X138045907Y25349425D01*
X138043742Y25345674D01*
X138043740Y25345672D01*
X138014146Y25294413D01*
X137902523Y25101075D01*
X137795097Y24835187D01*
X137794049Y24830985D01*
X137794049Y24830984D01*
X137728097Y24566463D01*
X137725721Y24556935D01*
X137695745Y24271736D01*
X137705753Y23985141D01*
X137755550Y23702728D01*
X137756887Y23698614D01*
X137756888Y23698609D01*
X137774954Y23643009D01*
X137844167Y23429994D01*
X137969879Y23172247D01*
X137972298Y23168660D01*
X137972299Y23168659D01*
X138086061Y23000000D01*
X138130238Y22934504D01*
X138133135Y22931287D01*
X138133137Y22931284D01*
X138192072Y22865830D01*
X138322125Y22721392D01*
X138325444Y22718607D01*
X138325445Y22718606D01*
X138471517Y22596037D01*
X138510219Y22537866D01*
X138511327Y22468005D01*
X138474490Y22408635D01*
X138464696Y22400730D01*
X138432258Y22377162D01*
X138432255Y22377159D01*
X138428746Y22374610D01*
X138222461Y22175403D01*
X138045907Y21949425D01*
X137902523Y21701075D01*
X137795097Y21435187D01*
X137794049Y21430985D01*
X137794049Y21430984D01*
X137728553Y21168293D01*
X137725721Y21156935D01*
X137695745Y20871736D01*
X137695896Y20867406D01*
X137695896Y20867400D01*
X137700389Y20738741D01*
X137705753Y20585141D01*
X137755550Y20302728D01*
X137756887Y20298614D01*
X137756888Y20298609D01*
X137841046Y20039599D01*
X137844167Y20029994D01*
X137846068Y20026096D01*
X137846069Y20026094D01*
X137871803Y19973332D01*
X137969879Y19772247D01*
X137972298Y19768660D01*
X137972299Y19768659D01*
X138122771Y19545575D01*
X138130238Y19534504D01*
X138133135Y19531287D01*
X138133137Y19531284D01*
X138201755Y19455076D01*
X138322125Y19321392D01*
X138325444Y19318607D01*
X138325445Y19318606D01*
X138494433Y19176808D01*
X138541803Y19137060D01*
X138784998Y18985095D01*
X139046975Y18868455D01*
X139051121Y18867266D01*
X139051127Y18867264D01*
X139130000Y18844648D01*
X139322636Y18789411D01*
X139326915Y18788810D01*
X139326918Y18788809D01*
X139602323Y18750103D01*
X139602326Y18750103D01*
X139606615Y18749500D01*
X140621604Y18749500D01*
X140836071Y18764497D01*
X140840308Y18765398D01*
X140840311Y18765398D01*
X141112332Y18823218D01*
X141112334Y18823218D01*
X141116575Y18824120D01*
X141120642Y18825600D01*
X141120648Y18825602D01*
X141274401Y18881564D01*
X141386050Y18922201D01*
X141639253Y19056831D01*
X141746520Y19134765D01*
X141867746Y19222841D01*
X141867749Y19222843D01*
X141871254Y19225390D01*
X142077539Y19424597D01*
X142254093Y19650575D01*
X142277345Y19690848D01*
X142337137Y19794413D01*
X142397477Y19898925D01*
X142504903Y20164813D01*
X142534283Y20282650D01*
X142573233Y20438868D01*
X142573234Y20438874D01*
X142574279Y20443065D01*
X142604255Y20728264D01*
X142603890Y20738741D01*
X142596978Y20936649D01*
X142594247Y21014859D01*
X142544450Y21297272D01*
X142540853Y21308344D01*
X142457173Y21565882D01*
X142455833Y21570006D01*
X142330121Y21827753D01*
X142248053Y21949425D01*
X142172183Y22061907D01*
X142172182Y22061909D01*
X142169762Y22065496D01*
X142152085Y22085129D01*
X142030959Y22219652D01*
X141977875Y22278608D01*
X141966747Y22287946D01*
X141828483Y22403963D01*
X141789781Y22462134D01*
X141788673Y22531995D01*
X141825510Y22591365D01*
X141835304Y22599270D01*
X141867742Y22622838D01*
X141867745Y22622841D01*
X141871254Y22625390D01*
X142077539Y22824597D01*
X142254093Y23050575D01*
X142259195Y23059411D01*
X142335349Y23191316D01*
X142397477Y23298925D01*
X142504903Y23564813D01*
X142514950Y23605108D01*
X142573233Y23838868D01*
X142573234Y23838874D01*
X142574279Y23843065D01*
X142604255Y24128264D01*
X142594247Y24414859D01*
X142544450Y24697272D01*
X142542029Y24704725D01*
X142457173Y24965882D01*
X142455833Y24970006D01*
X142330121Y25227753D01*
X142317606Y25246308D01*
X142172183Y25461907D01*
X142172182Y25461909D01*
X142169762Y25465496D01*
X142162707Y25473332D01*
X142020229Y25631569D01*
X141977875Y25678608D01*
X141947191Y25704355D01*
X141916020Y25730511D01*
X141877318Y25788682D01*
X141876210Y25858543D01*
X141913047Y25917913D01*
X141976134Y25947943D01*
X141995726Y25949500D01*
X143669826Y25949500D01*
X143736865Y25929815D01*
X143782620Y25877011D01*
X143792564Y25807853D01*
X143782940Y25774695D01*
X143737003Y25672432D01*
X143717001Y25604311D01*
X143694500Y25447810D01*
X143694500Y21802190D01*
X143694588Y21800557D01*
X143694588Y21800539D01*
X143695239Y21788399D01*
X143697682Y21742819D01*
X143700561Y21716036D01*
X143711584Y21650589D01*
X143765332Y21509178D01*
X143799358Y21446866D01*
X143802011Y21443322D01*
X143802013Y21443319D01*
X143807798Y21435591D01*
X143894107Y21320297D01*
X144320297Y20894107D01*
X144364522Y20854381D01*
X144365815Y20853339D01*
X144380770Y20841287D01*
X144385496Y20837478D01*
X144439570Y20798992D01*
X144471674Y20784571D01*
X144573698Y20738741D01*
X144573703Y20738739D01*
X144577568Y20737003D01*
X144645689Y20717001D01*
X144802190Y20694500D01*
X146087420Y20694500D01*
X146154459Y20674815D01*
X146200214Y20622011D01*
X146210158Y20552853D01*
X146196083Y20510764D01*
X146161229Y20447366D01*
X146127247Y20385552D01*
X146122135Y20376254D01*
X146120303Y20370479D01*
X146083354Y20254000D01*
X146065772Y20198576D01*
X146063280Y20176356D01*
X146046863Y20029994D01*
X146044994Y20013335D01*
X146060592Y19827586D01*
X146062261Y19821766D01*
X146062261Y19821765D01*
X146110273Y19654328D01*
X146111971Y19648405D01*
X146114743Y19643011D01*
X146114744Y19643009D01*
X146179661Y19516696D01*
X146197176Y19482615D01*
X146272433Y19387664D01*
X146308708Y19341896D01*
X146312959Y19336532D01*
X146317578Y19332601D01*
X146445872Y19223415D01*
X146454912Y19215721D01*
X146460210Y19212760D01*
X146531361Y19172995D01*
X146617627Y19124783D01*
X146794907Y19067181D01*
X146898745Y19054799D01*
X146916951Y19052628D01*
X146981188Y19025144D01*
X146996416Y19002660D01*
X147000089Y19010703D01*
X147058867Y19048477D01*
X147084289Y19053135D01*
X147165851Y19059411D01*
X147243235Y19081017D01*
X147339547Y19107907D01*
X147339551Y19107909D01*
X147345387Y19109538D01*
X147511768Y19193583D01*
X147516547Y19197317D01*
X147516552Y19197320D01*
X147620802Y19278770D01*
X147658655Y19308344D01*
X147780454Y19449450D01*
X147795573Y19476063D01*
X147869530Y19606252D01*
X147872526Y19611526D01*
X147931364Y19788399D01*
X147934464Y19812933D01*
X147954292Y19969891D01*
X147954727Y19973332D01*
X147955099Y20000000D01*
X147954384Y20007289D01*
X147937501Y20179477D01*
X147937501Y20179479D01*
X147936909Y20185513D01*
X147883033Y20363960D01*
X147879067Y20371420D01*
X147798371Y20523186D01*
X147798371Y20523187D01*
X147795522Y20528544D01*
X147739390Y20597369D01*
X147712273Y20661761D01*
X147724275Y20730592D01*
X147776054Y20784571D01*
X147803134Y20799358D01*
X147929703Y20894107D01*
X148355893Y21320297D01*
X148395619Y21364522D01*
X148406150Y21377589D01*
X148411361Y21384055D01*
X148411366Y21384061D01*
X148412522Y21385496D01*
X148451008Y21439570D01*
X148484055Y21513138D01*
X148511259Y21573698D01*
X148511261Y21573703D01*
X148512997Y21577568D01*
X148532999Y21645689D01*
X148555500Y21802190D01*
X148555500Y22468542D01*
X148575185Y22535581D01*
X148591819Y22556223D01*
X148693777Y22658181D01*
X148755100Y22691666D01*
X148781458Y22694500D01*
X149218542Y22694500D01*
X149285581Y22674815D01*
X149306223Y22658181D01*
X149408181Y22556223D01*
X149441666Y22494900D01*
X149444500Y22468542D01*
X149444500Y21302190D01*
X149444588Y21300557D01*
X149444588Y21300539D01*
X149444992Y21293005D01*
X149447682Y21242819D01*
X149447857Y21241187D01*
X149447858Y21241180D01*
X149447896Y21240832D01*
X149450561Y21216036D01*
X149461584Y21150589D01*
X149463748Y21144895D01*
X149463749Y21144892D01*
X149471392Y21124783D01*
X149515332Y21009178D01*
X149549358Y20946866D01*
X149644107Y20820297D01*
X149895414Y20568990D01*
X149928899Y20507667D01*
X149923915Y20437975D01*
X149882043Y20382042D01*
X149865183Y20371421D01*
X149727023Y20299193D01*
X149722295Y20295392D01*
X149722294Y20295391D01*
X149592851Y20191316D01*
X149581752Y20182392D01*
X149461935Y20039599D01*
X149459016Y20034289D01*
X149384599Y19898925D01*
X149372135Y19876254D01*
X149370303Y19870479D01*
X149327250Y19734758D01*
X149315772Y19698576D01*
X149315096Y19692548D01*
X149298639Y19545828D01*
X149294994Y19513335D01*
X149310592Y19327586D01*
X149312261Y19321766D01*
X149312261Y19321765D01*
X149353827Y19176808D01*
X149361971Y19148405D01*
X149364743Y19143011D01*
X149364744Y19143009D01*
X149441581Y18993502D01*
X149447176Y18982615D01*
X149531476Y18876254D01*
X149547678Y18855812D01*
X149573893Y18791046D01*
X149574500Y18778790D01*
X149574500Y18027697D01*
X149574213Y18019263D01*
X149571391Y17977863D01*
X149570472Y17964387D01*
X149578247Y17919838D01*
X149580928Y17904477D01*
X149581875Y17898059D01*
X149589181Y17837687D01*
X149591825Y17830689D01*
X149592948Y17826119D01*
X149595940Y17815183D01*
X149597295Y17810694D01*
X149598581Y17803325D01*
X149601586Y17796480D01*
X149601587Y17796476D01*
X149623022Y17747646D01*
X149625474Y17741638D01*
X149646973Y17684745D01*
X149651210Y17678581D01*
X149653393Y17674405D01*
X149658899Y17664511D01*
X149661296Y17660458D01*
X149664299Y17653617D01*
X149668850Y17647686D01*
X149701317Y17605374D01*
X149705132Y17600123D01*
X149735034Y17556616D01*
X149739579Y17550003D01*
X149769678Y17523186D01*
X149783850Y17510559D01*
X149789042Y17505657D01*
X151265348Y16029351D01*
X151298833Y15968028D01*
X151293849Y15898336D01*
X151272657Y15861965D01*
X151211935Y15789599D01*
X151122135Y15626254D01*
X151120303Y15620479D01*
X151090206Y15525600D01*
X151065772Y15448576D01*
X151065096Y15442548D01*
X151049107Y15300000D01*
X151044994Y15263335D01*
X151060592Y15077586D01*
X151062261Y15071766D01*
X151062261Y15071765D01*
X151095605Y14955482D01*
X151111971Y14898405D01*
X151159033Y14806832D01*
X151172169Y14738210D01*
X151157408Y14690415D01*
X151147702Y14672759D01*
X151122135Y14626254D01*
X151120303Y14620479D01*
X151072289Y14469119D01*
X151065772Y14448576D01*
X151065096Y14442548D01*
X151050311Y14310733D01*
X151044994Y14263335D01*
X151060592Y14077586D01*
X151062261Y14071766D01*
X151062261Y14071765D01*
X151103811Y13926864D01*
X151111971Y13898405D01*
X151114743Y13893011D01*
X151114744Y13893009D01*
X151193587Y13739599D01*
X151197176Y13732615D01*
X151244430Y13672995D01*
X151306664Y13594475D01*
X151312959Y13586532D01*
X151454912Y13465721D01*
X151460210Y13462760D01*
X151612327Y13377745D01*
X151617627Y13374783D01*
X151623399Y13372908D01*
X151623398Y13372908D01*
X151763946Y13327241D01*
X151794907Y13317181D01*
X151800928Y13316463D01*
X151942536Y13299577D01*
X152006773Y13272093D01*
X152045954Y13214243D01*
X152051419Y13186827D01*
X152060592Y13077586D01*
X152062261Y13071766D01*
X152062261Y13071765D01*
X152082815Y13000086D01*
X152111971Y12898405D01*
X152114743Y12893011D01*
X152114744Y12893009D01*
X152168507Y12788399D01*
X152197176Y12732615D01*
X152268196Y12643009D01*
X152306778Y12594331D01*
X152312959Y12586532D01*
X152357551Y12548581D01*
X152435062Y12482615D01*
X152454912Y12465721D01*
X152460210Y12462760D01*
X152577302Y12397320D01*
X152617627Y12374783D01*
X152650937Y12363960D01*
X152784388Y12320599D01*
X152794907Y12317181D01*
X152800928Y12316463D01*
X152872680Y12307907D01*
X152979998Y12295110D01*
X152986041Y12295575D01*
X152986043Y12295575D01*
X153043482Y12299995D01*
X153165851Y12309411D01*
X153250105Y12332935D01*
X153339547Y12357907D01*
X153339551Y12357909D01*
X153345387Y12359538D01*
X153436425Y12405525D01*
X153443861Y12409281D01*
X153512575Y12421937D01*
X153560263Y12406843D01*
X153617627Y12374783D01*
X153700235Y12347942D01*
X153784388Y12320599D01*
X153794907Y12317181D01*
X153800928Y12316463D01*
X153872680Y12307907D01*
X153979998Y12295110D01*
X153986041Y12295575D01*
X153986043Y12295575D01*
X154043482Y12299995D01*
X154165851Y12309411D01*
X154250105Y12332935D01*
X154339547Y12357907D01*
X154339551Y12357909D01*
X154345387Y12359538D01*
X154511768Y12443583D01*
X154516547Y12447317D01*
X154516552Y12447320D01*
X154624277Y12531485D01*
X154658655Y12558344D01*
X154780454Y12699450D01*
X154799295Y12732615D01*
X154869530Y12856252D01*
X154872526Y12861526D01*
X154931364Y13038399D01*
X154935072Y13067746D01*
X154953464Y13213335D01*
X154954727Y13223332D01*
X154955099Y13250000D01*
X154953849Y13262747D01*
X154937501Y13429477D01*
X154937501Y13429479D01*
X154936909Y13435513D01*
X154883033Y13613960D01*
X154866456Y13645138D01*
X154798371Y13773186D01*
X154798371Y13773187D01*
X154795522Y13778544D01*
X154707726Y13886192D01*
X154681545Y13918293D01*
X154681544Y13918294D01*
X154677710Y13922995D01*
X154590199Y13995391D01*
X154538760Y14037946D01*
X154538757Y14037948D01*
X154534085Y14041813D01*
X154478690Y14071765D01*
X154375447Y14127589D01*
X154375443Y14127591D01*
X154370116Y14130471D01*
X154192049Y14185591D01*
X154059588Y14199514D01*
X153994976Y14226098D01*
X153954991Y14283395D01*
X153949144Y14310733D01*
X153937501Y14429478D01*
X153937500Y14429481D01*
X153936909Y14435513D01*
X153883033Y14613960D01*
X153841964Y14691200D01*
X153827871Y14759633D01*
X153843631Y14810662D01*
X153855732Y14831964D01*
X153872526Y14861526D01*
X153931364Y15038399D01*
X153954727Y15223332D01*
X153955099Y15250000D01*
X153953792Y15263335D01*
X153936909Y15435513D01*
X153938949Y15435713D01*
X153944389Y15495987D01*
X153987294Y15551132D01*
X154059745Y15574500D01*
X157418837Y15574500D01*
X157485876Y15554815D01*
X157506518Y15538181D01*
X158002754Y15041945D01*
X158008515Y15035779D01*
X158044683Y14994319D01*
X158094437Y14959351D01*
X158099646Y14955482D01*
X158147503Y14917958D01*
X158154320Y14914880D01*
X158158336Y14912448D01*
X158168191Y14906826D01*
X158172331Y14904606D01*
X158178448Y14900307D01*
X158185418Y14897590D01*
X158185417Y14897590D01*
X158235111Y14878215D01*
X158241085Y14875704D01*
X158296514Y14850677D01*
X158303861Y14849315D01*
X158308355Y14847907D01*
X158319256Y14844802D01*
X158323812Y14843632D01*
X158330776Y14840917D01*
X158391080Y14832977D01*
X158397470Y14831966D01*
X158457274Y14820882D01*
X158516445Y14824294D01*
X158523584Y14824500D01*
X161441210Y14824500D01*
X161508249Y14804815D01*
X161554004Y14752011D01*
X161564437Y14686678D01*
X161555630Y14608160D01*
X161544994Y14513335D01*
X161560592Y14327586D01*
X161562262Y14321762D01*
X161565706Y14309750D01*
X161565262Y14239882D01*
X161527115Y14181345D01*
X161463376Y14152725D01*
X161433548Y14152251D01*
X161421041Y14153565D01*
X161406668Y14155076D01*
X161400635Y14154527D01*
X161400631Y14154527D01*
X161227074Y14138732D01*
X161227073Y14138732D01*
X161221032Y14138182D01*
X161215213Y14136469D01*
X161215211Y14136469D01*
X161179074Y14125833D01*
X161042214Y14085552D01*
X160877023Y13999193D01*
X160872295Y13995392D01*
X160872294Y13995391D01*
X160799010Y13936469D01*
X160731752Y13882392D01*
X160611935Y13739599D01*
X160585913Y13692266D01*
X160526760Y13584666D01*
X160522135Y13576254D01*
X160520303Y13570479D01*
X160494872Y13490309D01*
X160465772Y13398576D01*
X160463103Y13374783D01*
X160449107Y13250000D01*
X160444994Y13213335D01*
X160460592Y13027586D01*
X160462261Y13021766D01*
X160462261Y13021765D01*
X160508209Y12861526D01*
X160511971Y12848405D01*
X160514743Y12843011D01*
X160514744Y12843009D01*
X160590730Y12695158D01*
X160597176Y12682615D01*
X160669561Y12591287D01*
X160702938Y12549176D01*
X160712959Y12536532D01*
X160737925Y12515284D01*
X160844227Y12424815D01*
X160854912Y12415721D01*
X160860210Y12412760D01*
X161009888Y12329108D01*
X161017627Y12324783D01*
X161194907Y12267181D01*
X161379998Y12245110D01*
X161386041Y12245575D01*
X161386043Y12245575D01*
X161443482Y12249995D01*
X161565851Y12259411D01*
X161643235Y12281017D01*
X161739547Y12307907D01*
X161739551Y12307909D01*
X161745387Y12309538D01*
X161911768Y12393583D01*
X161916547Y12397317D01*
X161916552Y12397320D01*
X162045688Y12498213D01*
X162110635Y12523975D01*
X162122030Y12524500D01*
X163172303Y12524500D01*
X163180737Y12524213D01*
X163228158Y12520980D01*
X163228160Y12520980D01*
X163235613Y12520472D01*
X163295532Y12530929D01*
X163301941Y12531875D01*
X163362313Y12539181D01*
X163369311Y12541825D01*
X163373881Y12542948D01*
X163384817Y12545940D01*
X163389306Y12547295D01*
X163396675Y12548581D01*
X163403520Y12551586D01*
X163403524Y12551587D01*
X163452354Y12573022D01*
X163458363Y12575475D01*
X163492337Y12588313D01*
X163515255Y12596973D01*
X163521419Y12601210D01*
X163525595Y12603393D01*
X163535489Y12608899D01*
X163539542Y12611296D01*
X163546383Y12614299D01*
X163594626Y12651317D01*
X163599877Y12655132D01*
X163643837Y12685345D01*
X163643839Y12685347D01*
X163649997Y12689579D01*
X163689441Y12733850D01*
X163694343Y12739042D01*
X163851028Y12895727D01*
X163912351Y12929212D01*
X163982043Y12924228D01*
X164037976Y12882356D01*
X164060278Y12831328D01*
X164060592Y12827586D01*
X164062263Y12821759D01*
X164102162Y12682615D01*
X164111971Y12648405D01*
X164114743Y12643011D01*
X164114744Y12643009D01*
X164194191Y12488424D01*
X164197176Y12482615D01*
X164266536Y12395104D01*
X164303916Y12347942D01*
X164312959Y12336532D01*
X164335696Y12317181D01*
X164419834Y12245575D01*
X164454912Y12215721D01*
X164460210Y12212760D01*
X164612327Y12127745D01*
X164617627Y12124783D01*
X164794907Y12067181D01*
X164979998Y12045110D01*
X164986041Y12045575D01*
X164986043Y12045575D01*
X165043482Y12049995D01*
X165165851Y12059411D01*
X165243235Y12081017D01*
X165339547Y12107907D01*
X165339551Y12107909D01*
X165345387Y12109538D01*
X165511768Y12193583D01*
X165516547Y12197317D01*
X165516552Y12197320D01*
X165653875Y12304609D01*
X165653878Y12304611D01*
X165658655Y12308344D01*
X165662616Y12312933D01*
X165665802Y12315967D01*
X165727925Y12347942D01*
X165797474Y12341256D01*
X165831680Y12320599D01*
X165920380Y12245110D01*
X165954912Y12215721D01*
X165960210Y12212760D01*
X166112327Y12127745D01*
X166117627Y12124783D01*
X166294907Y12067181D01*
X166479998Y12045110D01*
X166486041Y12045575D01*
X166486043Y12045575D01*
X166543482Y12049995D01*
X166665851Y12059411D01*
X166743235Y12081017D01*
X166839547Y12107907D01*
X166839551Y12107909D01*
X166845387Y12109538D01*
X167011768Y12193583D01*
X167016547Y12197317D01*
X167016552Y12197320D01*
X167153875Y12304609D01*
X167153878Y12304611D01*
X167158655Y12308344D01*
X167162616Y12312933D01*
X167165802Y12315967D01*
X167227925Y12347942D01*
X167297474Y12341256D01*
X167331680Y12320599D01*
X167420380Y12245110D01*
X167454912Y12215721D01*
X167507149Y12186527D01*
X167556063Y12136641D01*
X167570243Y12068226D01*
X167545184Y12003005D01*
X167528167Y11984846D01*
X167499955Y11960235D01*
X167499949Y11960229D01*
X167494319Y11955317D01*
X167479196Y11933799D01*
X167459351Y11905563D01*
X167455482Y11900354D01*
X167417958Y11852497D01*
X167414880Y11845680D01*
X167412448Y11841664D01*
X167406826Y11831809D01*
X167404606Y11827669D01*
X167400307Y11821552D01*
X167397590Y11814583D01*
X167378215Y11764889D01*
X167375704Y11758915D01*
X167350677Y11703486D01*
X167349315Y11696139D01*
X167347907Y11691645D01*
X167344802Y11680744D01*
X167343632Y11676188D01*
X167340917Y11669224D01*
X167334827Y11622964D01*
X167332979Y11608930D01*
X167331966Y11602530D01*
X167320882Y11542726D01*
X167323018Y11505681D01*
X167324294Y11483554D01*
X167324500Y11476416D01*
X167324500Y11081163D01*
X167304815Y11014124D01*
X167288181Y10993482D01*
X167093456Y10798757D01*
X167032133Y10765272D01*
X166962441Y10770256D01*
X166906508Y10812128D01*
X166887067Y10850600D01*
X166884786Y10858155D01*
X166884784Y10858160D01*
X166883033Y10863960D01*
X166837047Y10950448D01*
X166798371Y11023186D01*
X166798371Y11023187D01*
X166795522Y11028544D01*
X166677710Y11172995D01*
X166556601Y11273186D01*
X166538760Y11287946D01*
X166538757Y11287948D01*
X166534085Y11291813D01*
X166459484Y11332150D01*
X166375447Y11377589D01*
X166375443Y11377591D01*
X166370116Y11380471D01*
X166192049Y11435591D01*
X166006668Y11455076D01*
X166000635Y11454527D01*
X166000631Y11454527D01*
X165827074Y11438732D01*
X165827073Y11438732D01*
X165821032Y11438182D01*
X165815213Y11436469D01*
X165815211Y11436469D01*
X165782577Y11426864D01*
X165642214Y11385552D01*
X165477023Y11299193D01*
X165472295Y11295392D01*
X165472294Y11295391D01*
X165342269Y11190848D01*
X165331752Y11182392D01*
X165211935Y11039599D01*
X165190118Y10999914D01*
X165139317Y10907507D01*
X165122135Y10876254D01*
X165120303Y10870479D01*
X165072534Y10719891D01*
X165065772Y10698576D01*
X165065096Y10692548D01*
X165047161Y10532650D01*
X165044994Y10513335D01*
X165060592Y10327586D01*
X165062261Y10321766D01*
X165062261Y10321765D01*
X165103349Y10178475D01*
X165111971Y10148405D01*
X165114743Y10143011D01*
X165114744Y10143009D01*
X165173572Y10028544D01*
X165197176Y9982615D01*
X165254676Y9910068D01*
X165281264Y9876522D01*
X165307479Y9811757D01*
X165294517Y9743100D01*
X165246494Y9692350D01*
X165184086Y9675500D01*
X163331163Y9675500D01*
X163264124Y9695185D01*
X163243482Y9711819D01*
X161497246Y11458055D01*
X161491485Y11464221D01*
X161460230Y11500049D01*
X161455317Y11505681D01*
X161405555Y11540655D01*
X161400354Y11544518D01*
X161379407Y11560942D01*
X161352497Y11582042D01*
X161345680Y11585120D01*
X161341664Y11587552D01*
X161331809Y11593174D01*
X161327669Y11595394D01*
X161321552Y11599693D01*
X161264889Y11621785D01*
X161258915Y11624296D01*
X161203486Y11649323D01*
X161196139Y11650685D01*
X161191645Y11652093D01*
X161180744Y11655198D01*
X161176188Y11656368D01*
X161169224Y11659083D01*
X161108920Y11667023D01*
X161102530Y11668034D01*
X161042726Y11679118D01*
X160987788Y11675950D01*
X160983554Y11675706D01*
X160976416Y11675500D01*
X154969325Y11675500D01*
X154902286Y11695185D01*
X154890284Y11703957D01*
X154788760Y11787946D01*
X154788757Y11787948D01*
X154784085Y11791813D01*
X154728071Y11822100D01*
X154625447Y11877589D01*
X154625443Y11877591D01*
X154620116Y11880471D01*
X154442049Y11935591D01*
X154256668Y11955076D01*
X154250635Y11954527D01*
X154250631Y11954527D01*
X154077074Y11938732D01*
X154077073Y11938732D01*
X154071032Y11938182D01*
X154065213Y11936469D01*
X154065211Y11936469D01*
X154008565Y11919797D01*
X153892214Y11885552D01*
X153727023Y11799193D01*
X153722295Y11795392D01*
X153722294Y11795391D01*
X153597663Y11695185D01*
X153581752Y11682392D01*
X153461935Y11539599D01*
X153445650Y11509977D01*
X153377247Y11385552D01*
X153372135Y11376254D01*
X153370303Y11370479D01*
X153319350Y11209854D01*
X153315772Y11198576D01*
X153313337Y11176864D01*
X153298461Y11044242D01*
X153294994Y11013335D01*
X153310592Y10827586D01*
X153312261Y10821766D01*
X153312261Y10821765D01*
X153351331Y10685513D01*
X153361971Y10648405D01*
X153409033Y10556832D01*
X153422169Y10488210D01*
X153407408Y10440415D01*
X153385449Y10400471D01*
X153372135Y10376254D01*
X153370303Y10370479D01*
X153337264Y10266326D01*
X153315772Y10198576D01*
X153294994Y10013335D01*
X153310592Y9827586D01*
X153312261Y9821766D01*
X153312261Y9821765D01*
X153351331Y9685513D01*
X153361971Y9648405D01*
X153364743Y9643011D01*
X153364744Y9643009D01*
X153440021Y9496538D01*
X153447176Y9482615D01*
X153562959Y9336532D01*
X153603527Y9302006D01*
X153685062Y9232615D01*
X153704912Y9215721D01*
X153710210Y9212760D01*
X153814496Y9154477D01*
X153867627Y9124783D01*
X153873399Y9122908D01*
X153873398Y9122908D01*
X154034388Y9070599D01*
X154044907Y9067181D01*
X154050928Y9066463D01*
X154137452Y9056146D01*
X154229998Y9045110D01*
X154236041Y9045575D01*
X154236043Y9045575D01*
X154293482Y9049995D01*
X154415851Y9059411D01*
X154498909Y9082601D01*
X154589547Y9107907D01*
X154589551Y9107909D01*
X154595387Y9109538D01*
X154761768Y9193583D01*
X154766547Y9197317D01*
X154766552Y9197320D01*
X154895688Y9298213D01*
X154960635Y9323975D01*
X154972030Y9324500D01*
X160185076Y9324500D01*
X160252115Y9304815D01*
X160297870Y9252011D01*
X160307814Y9182853D01*
X160280066Y9120795D01*
X160269252Y9107907D01*
X160211935Y9039599D01*
X160122135Y8876254D01*
X160120303Y8870479D01*
X160096395Y8795110D01*
X160065772Y8698576D01*
X160065096Y8692548D01*
X160048457Y8544206D01*
X160044994Y8513335D01*
X160060592Y8327586D01*
X160062261Y8321765D01*
X160062263Y8321755D01*
X160094687Y8208679D01*
X160094244Y8138811D01*
X160056097Y8080274D01*
X159992359Y8051653D01*
X159975491Y8050500D01*
X135044206Y8050500D01*
X135028020Y8051561D01*
X135008059Y8054189D01*
X135000000Y8055250D01*
X134997666Y8054943D01*
X134931260Y8075087D01*
X134931042Y8075233D01*
X134922285Y8081084D01*
X134903495Y8096505D01*
X134596505Y8403495D01*
X134581084Y8422285D01*
X134575087Y8431260D01*
X134554943Y8497666D01*
X134555250Y8500000D01*
X134551561Y8528020D01*
X134550500Y8544206D01*
X134550500Y8590667D01*
X134570185Y8657706D01*
X134622989Y8703461D01*
X134692147Y8713405D01*
X134734992Y8698910D01*
X134867627Y8624783D01*
X135044907Y8567181D01*
X135229998Y8545110D01*
X135236041Y8545575D01*
X135236043Y8545575D01*
X135293482Y8549995D01*
X135415851Y8559411D01*
X135493235Y8581017D01*
X135589547Y8607907D01*
X135589551Y8607909D01*
X135595387Y8609538D01*
X135761768Y8693583D01*
X135796338Y8720593D01*
X135861284Y8746353D01*
X135929849Y8732912D01*
X135945025Y8722704D01*
X135945310Y8723115D01*
X135950294Y8719652D01*
X135954912Y8715721D01*
X135960210Y8712760D01*
X136055900Y8659281D01*
X136117627Y8624783D01*
X136294907Y8567181D01*
X136479998Y8545110D01*
X136486041Y8545575D01*
X136486043Y8545575D01*
X136543482Y8549995D01*
X136665851Y8559411D01*
X136743235Y8581017D01*
X136839547Y8607907D01*
X136839551Y8607909D01*
X136845387Y8609538D01*
X136919864Y8647159D01*
X136943861Y8659281D01*
X137012575Y8671937D01*
X137060263Y8656843D01*
X137117627Y8624783D01*
X137294907Y8567181D01*
X137479998Y8545110D01*
X137486041Y8545575D01*
X137486043Y8545575D01*
X137543482Y8549995D01*
X137665851Y8559411D01*
X137743235Y8581017D01*
X137839547Y8607907D01*
X137839551Y8607909D01*
X137845387Y8609538D01*
X137919864Y8647159D01*
X137943861Y8659281D01*
X138012575Y8671937D01*
X138060263Y8656843D01*
X138117627Y8624783D01*
X138294907Y8567181D01*
X138479998Y8545110D01*
X138486041Y8545575D01*
X138486043Y8545575D01*
X138543482Y8549995D01*
X138665851Y8559411D01*
X138743235Y8581017D01*
X138839547Y8607907D01*
X138839551Y8607909D01*
X138845387Y8609538D01*
X138919864Y8647159D01*
X138943861Y8659281D01*
X139012575Y8671937D01*
X139060263Y8656843D01*
X139117627Y8624783D01*
X139294907Y8567181D01*
X139479998Y8545110D01*
X139486041Y8545575D01*
X139486043Y8545575D01*
X139543482Y8549995D01*
X139665851Y8559411D01*
X139743235Y8581017D01*
X139839547Y8607907D01*
X139839551Y8607909D01*
X139845387Y8609538D01*
X139919864Y8647159D01*
X139943861Y8659281D01*
X140012575Y8671937D01*
X140060263Y8656843D01*
X140117627Y8624783D01*
X140294907Y8567181D01*
X140479998Y8545110D01*
X140486041Y8545575D01*
X140486043Y8545575D01*
X140543482Y8549995D01*
X140665851Y8559411D01*
X140743235Y8581017D01*
X140839547Y8607907D01*
X140839551Y8607909D01*
X140845387Y8609538D01*
X140919864Y8647159D01*
X140943861Y8659281D01*
X141012575Y8671937D01*
X141060263Y8656843D01*
X141117627Y8624783D01*
X141294907Y8567181D01*
X141479998Y8545110D01*
X141486041Y8545575D01*
X141486043Y8545575D01*
X141543482Y8549995D01*
X141665851Y8559411D01*
X141743235Y8581017D01*
X141839547Y8607907D01*
X141839551Y8607909D01*
X141845387Y8609538D01*
X142011768Y8693583D01*
X142016547Y8697317D01*
X142016552Y8697320D01*
X142102267Y8764289D01*
X142158655Y8808344D01*
X142280454Y8949450D01*
X142289698Y8965721D01*
X142369530Y9106252D01*
X142372526Y9111526D01*
X142431364Y9288399D01*
X142432248Y9295391D01*
X142450070Y9436469D01*
X142454727Y9473332D01*
X142455099Y9500000D01*
X142450630Y9545575D01*
X142437501Y9679477D01*
X142437501Y9679479D01*
X142436909Y9685513D01*
X142413413Y9763335D01*
X144294994Y9763335D01*
X144310592Y9577586D01*
X144312261Y9571766D01*
X144312261Y9571765D01*
X144331851Y9503448D01*
X144361971Y9398405D01*
X144364743Y9393011D01*
X144364744Y9393009D01*
X144437208Y9252011D01*
X144447176Y9232615D01*
X144494430Y9172995D01*
X144553916Y9097942D01*
X144562959Y9086532D01*
X144704912Y8965721D01*
X144710210Y8962760D01*
X144816034Y8903617D01*
X144867627Y8874783D01*
X145044907Y8817181D01*
X145050928Y8816463D01*
X145137306Y8806163D01*
X145229998Y8795110D01*
X145236041Y8795575D01*
X145236043Y8795575D01*
X145294964Y8800109D01*
X145415851Y8809411D01*
X145493235Y8831017D01*
X145589547Y8857907D01*
X145589551Y8857909D01*
X145595387Y8859538D01*
X145761768Y8943583D01*
X145766547Y8947317D01*
X145766552Y8947320D01*
X145903875Y9054609D01*
X145903878Y9054611D01*
X145908655Y9058344D01*
X145912616Y9062933D01*
X145915802Y9065967D01*
X145977925Y9097942D01*
X146047474Y9091256D01*
X146081680Y9070599D01*
X146160364Y9003634D01*
X146204912Y8965721D01*
X146210210Y8962760D01*
X146316034Y8903617D01*
X146367627Y8874783D01*
X146544907Y8817181D01*
X146550928Y8816463D01*
X146637306Y8806163D01*
X146729998Y8795110D01*
X146736041Y8795575D01*
X146736043Y8795575D01*
X146794964Y8800109D01*
X146915851Y8809411D01*
X146993235Y8831017D01*
X147089547Y8857907D01*
X147089551Y8857909D01*
X147095387Y8859538D01*
X147261768Y8943583D01*
X147266547Y8947317D01*
X147266552Y8947320D01*
X147377866Y9034289D01*
X147408655Y9058344D01*
X147530454Y9199450D01*
X147534759Y9207027D01*
X147619530Y9356252D01*
X147622526Y9361526D01*
X147681364Y9538399D01*
X147684019Y9559411D01*
X147695218Y9648061D01*
X147704727Y9723332D01*
X147705003Y9743100D01*
X147705051Y9746538D01*
X147705051Y9746543D01*
X147705099Y9750000D01*
X147704384Y9757289D01*
X147687501Y9929477D01*
X147687501Y9929479D01*
X147686909Y9935513D01*
X147633033Y10113960D01*
X147617588Y10143009D01*
X147548371Y10273186D01*
X147548371Y10273187D01*
X147545522Y10278544D01*
X147465831Y10376254D01*
X147431545Y10418293D01*
X147431544Y10418294D01*
X147427710Y10422995D01*
X147386657Y10456957D01*
X147318509Y10513335D01*
X150069994Y10513335D01*
X150085592Y10327586D01*
X150087261Y10321766D01*
X150087261Y10321765D01*
X150128349Y10178475D01*
X150136971Y10148405D01*
X150139743Y10143011D01*
X150139744Y10143009D01*
X150198572Y10028544D01*
X150222176Y9982615D01*
X150337959Y9836532D01*
X150342578Y9832601D01*
X150466897Y9726798D01*
X150479912Y9715721D01*
X150642627Y9624783D01*
X150819907Y9567181D01*
X151004998Y9545110D01*
X151011041Y9545575D01*
X151011043Y9545575D01*
X151068482Y9549995D01*
X151190851Y9559411D01*
X151303128Y9590759D01*
X151364547Y9607907D01*
X151364551Y9607909D01*
X151370387Y9609538D01*
X151536768Y9693583D01*
X151541547Y9697317D01*
X151541552Y9697320D01*
X151633764Y9769365D01*
X151683655Y9808344D01*
X151805454Y9949450D01*
X151808652Y9955078D01*
X151894530Y10106252D01*
X151897526Y10111526D01*
X151956364Y10288399D01*
X151979727Y10473332D01*
X151980099Y10500000D01*
X151979384Y10507289D01*
X151962501Y10679477D01*
X151962501Y10679479D01*
X151961909Y10685513D01*
X151908033Y10863960D01*
X151862047Y10950448D01*
X151823371Y11023186D01*
X151823371Y11023187D01*
X151820522Y11028544D01*
X151702710Y11172995D01*
X151581601Y11273186D01*
X151563760Y11287946D01*
X151563757Y11287948D01*
X151559085Y11291813D01*
X151484484Y11332150D01*
X151400447Y11377589D01*
X151400443Y11377591D01*
X151395116Y11380471D01*
X151217049Y11435591D01*
X151031668Y11455076D01*
X151025635Y11454527D01*
X151025631Y11454527D01*
X150852074Y11438732D01*
X150852073Y11438732D01*
X150846032Y11438182D01*
X150840213Y11436469D01*
X150840211Y11436469D01*
X150807577Y11426864D01*
X150667214Y11385552D01*
X150502023Y11299193D01*
X150497295Y11295392D01*
X150497294Y11295391D01*
X150367269Y11190848D01*
X150356752Y11182392D01*
X150236935Y11039599D01*
X150215118Y10999914D01*
X150164317Y10907507D01*
X150147135Y10876254D01*
X150145303Y10870479D01*
X150097534Y10719891D01*
X150090772Y10698576D01*
X150090096Y10692548D01*
X150072161Y10532650D01*
X150069994Y10513335D01*
X147318509Y10513335D01*
X147288760Y10537946D01*
X147288757Y10537948D01*
X147284085Y10541813D01*
X147167468Y10604868D01*
X147125447Y10627589D01*
X147125443Y10627591D01*
X147120116Y10630471D01*
X146942049Y10685591D01*
X146756668Y10705076D01*
X146750635Y10704527D01*
X146750631Y10704527D01*
X146577074Y10688732D01*
X146577073Y10688732D01*
X146571032Y10688182D01*
X146565213Y10686469D01*
X146565211Y10686469D01*
X146518630Y10672759D01*
X146392214Y10635552D01*
X146227023Y10549193D01*
X146222295Y10545392D01*
X146222294Y10545391D01*
X146195331Y10523712D01*
X146081752Y10432392D01*
X146081088Y10433217D01*
X146024579Y10403119D01*
X145954943Y10408827D01*
X145920440Y10429009D01*
X145915354Y10433217D01*
X145862674Y10476798D01*
X145788760Y10537946D01*
X145788757Y10537948D01*
X145784085Y10541813D01*
X145667468Y10604868D01*
X145625447Y10627589D01*
X145625443Y10627591D01*
X145620116Y10630471D01*
X145442049Y10685591D01*
X145256668Y10705076D01*
X145250635Y10704527D01*
X145250631Y10704527D01*
X145077074Y10688732D01*
X145077073Y10688732D01*
X145071032Y10688182D01*
X145065213Y10686469D01*
X145065211Y10686469D01*
X145018630Y10672759D01*
X144892214Y10635552D01*
X144727023Y10549193D01*
X144722295Y10545392D01*
X144722294Y10545391D01*
X144586478Y10436192D01*
X144581752Y10432392D01*
X144461935Y10289599D01*
X144452912Y10273186D01*
X144384313Y10148405D01*
X144372135Y10126254D01*
X144370303Y10120479D01*
X144317723Y9954725D01*
X144315772Y9948576D01*
X144315096Y9942548D01*
X144299624Y9804610D01*
X144294994Y9763335D01*
X142413413Y9763335D01*
X142383033Y9863960D01*
X142362801Y9902012D01*
X142298371Y10023186D01*
X142298371Y10023187D01*
X142295522Y10028544D01*
X142291690Y10033242D01*
X142291687Y10033247D01*
X142281896Y10045251D01*
X142254779Y10109644D01*
X142266780Y10178475D01*
X142276576Y10194957D01*
X142280454Y10199450D01*
X142356676Y10333624D01*
X142369530Y10356252D01*
X142372526Y10361526D01*
X142431364Y10538399D01*
X142432248Y10545391D01*
X142448338Y10672759D01*
X142454727Y10723332D01*
X142455099Y10750000D01*
X142447492Y10827586D01*
X142437501Y10929477D01*
X142437501Y10929479D01*
X142436909Y10935513D01*
X142383033Y11113960D01*
X142377279Y11124783D01*
X142298371Y11273186D01*
X142298371Y11273187D01*
X142295522Y11278544D01*
X142212392Y11380471D01*
X142181545Y11418293D01*
X142181544Y11418294D01*
X142177710Y11422995D01*
X142108825Y11479982D01*
X142038760Y11537946D01*
X142038757Y11537948D01*
X142034085Y11541813D01*
X141941098Y11592091D01*
X141875447Y11627589D01*
X141875443Y11627591D01*
X141870116Y11630471D01*
X141692049Y11685591D01*
X141506668Y11705076D01*
X141500635Y11704527D01*
X141500631Y11704527D01*
X141327074Y11688732D01*
X141327073Y11688732D01*
X141321032Y11688182D01*
X141315213Y11686469D01*
X141315211Y11686469D01*
X141278643Y11675706D01*
X141142214Y11635552D01*
X141057522Y11591277D01*
X140988993Y11577663D01*
X140941098Y11592091D01*
X140875447Y11627589D01*
X140875443Y11627591D01*
X140870116Y11630471D01*
X140692049Y11685591D01*
X140506668Y11705076D01*
X140500635Y11704527D01*
X140500631Y11704527D01*
X140327074Y11688732D01*
X140327073Y11688732D01*
X140321032Y11688182D01*
X140315213Y11686469D01*
X140315211Y11686469D01*
X140278643Y11675706D01*
X140142214Y11635552D01*
X140057522Y11591277D01*
X139988993Y11577663D01*
X139941098Y11592091D01*
X139875447Y11627589D01*
X139875443Y11627591D01*
X139870116Y11630471D01*
X139692049Y11685591D01*
X139506668Y11705076D01*
X139500635Y11704527D01*
X139500631Y11704527D01*
X139327074Y11688732D01*
X139327073Y11688732D01*
X139321032Y11688182D01*
X139315213Y11686469D01*
X139315211Y11686469D01*
X139278643Y11675706D01*
X139142214Y11635552D01*
X139057522Y11591277D01*
X138988993Y11577663D01*
X138941098Y11592091D01*
X138875447Y11627589D01*
X138875443Y11627591D01*
X138870116Y11630471D01*
X138692049Y11685591D01*
X138506668Y11705076D01*
X138500635Y11704527D01*
X138500631Y11704527D01*
X138327074Y11688732D01*
X138327073Y11688732D01*
X138321032Y11688182D01*
X138315213Y11686469D01*
X138315211Y11686469D01*
X138278643Y11675706D01*
X138142214Y11635552D01*
X138057522Y11591277D01*
X137988993Y11577663D01*
X137941098Y11592091D01*
X137875447Y11627589D01*
X137875443Y11627591D01*
X137870116Y11630471D01*
X137692049Y11685591D01*
X137506668Y11705076D01*
X137500635Y11704527D01*
X137500631Y11704527D01*
X137327074Y11688732D01*
X137327073Y11688732D01*
X137321032Y11688182D01*
X137315213Y11686469D01*
X137315211Y11686469D01*
X137278643Y11675706D01*
X137142214Y11635552D01*
X136977023Y11549193D01*
X136972295Y11545392D01*
X136972288Y11545387D01*
X136953470Y11530257D01*
X136888889Y11503591D01*
X136820144Y11516073D01*
X136796730Y11531353D01*
X136788762Y11537945D01*
X136788754Y11537950D01*
X136784085Y11541813D01*
X136717782Y11577663D01*
X136625447Y11627589D01*
X136625443Y11627591D01*
X136620116Y11630471D01*
X136442049Y11685591D01*
X136256668Y11705076D01*
X136250635Y11704527D01*
X136250631Y11704527D01*
X136077074Y11688732D01*
X136077073Y11688732D01*
X136071032Y11688182D01*
X136065213Y11686469D01*
X136065211Y11686469D01*
X136028643Y11675706D01*
X135892214Y11635552D01*
X135807522Y11591277D01*
X135738993Y11577663D01*
X135691098Y11592091D01*
X135625447Y11627589D01*
X135625443Y11627591D01*
X135620116Y11630471D01*
X135442049Y11685591D01*
X135256668Y11705076D01*
X135250635Y11704527D01*
X135250631Y11704527D01*
X135077074Y11688732D01*
X135077073Y11688732D01*
X135071032Y11688182D01*
X135065213Y11686469D01*
X135065211Y11686469D01*
X135028643Y11675706D01*
X134892214Y11635552D01*
X134731946Y11551767D01*
X134663418Y11538153D01*
X134598406Y11563751D01*
X134557553Y11620433D01*
X134550500Y11661657D01*
X134550500Y12994328D01*
X134571398Y13063219D01*
X134581084Y13077715D01*
X134596505Y13096505D01*
X134903495Y13403495D01*
X134922285Y13418916D01*
X134988951Y13463461D01*
X135033651Y13481976D01*
X135112284Y13497617D01*
X135136475Y13500000D01*
X137000000Y13500000D01*
X137232819Y13732819D01*
X137294142Y13766304D01*
X137363834Y13761320D01*
X137419767Y13719448D01*
X137444184Y13653984D01*
X137444500Y13645138D01*
X137444500Y13551362D01*
X137444588Y13549727D01*
X137444588Y13549713D01*
X137447593Y13493649D01*
X137447683Y13491977D01*
X137450517Y13465619D01*
X137461537Y13400192D01*
X137463701Y13394498D01*
X137463702Y13394495D01*
X137471194Y13374783D01*
X137515284Y13258781D01*
X137548769Y13197458D01*
X137551426Y13193908D01*
X137551429Y13193904D01*
X137624341Y13096505D01*
X137643521Y13070883D01*
X138070883Y12643521D01*
X138115127Y12603780D01*
X138116418Y12602740D01*
X138116427Y12602732D01*
X138120047Y12599815D01*
X138135769Y12587146D01*
X138189819Y12548678D01*
X138195368Y12546185D01*
X138195372Y12546183D01*
X138323951Y12488424D01*
X138327816Y12486688D01*
X138394855Y12467003D01*
X138551362Y12444500D01*
X147224359Y12444500D01*
X147291398Y12424815D01*
X147337153Y12372011D01*
X147347097Y12302853D01*
X147342555Y12283006D01*
X147325151Y12228141D01*
X147315772Y12198576D01*
X147313630Y12179477D01*
X147298639Y12045828D01*
X147294994Y12013335D01*
X147310592Y11827586D01*
X147312261Y11821766D01*
X147312261Y11821765D01*
X147354143Y11675706D01*
X147361971Y11648405D01*
X147364743Y11643011D01*
X147364744Y11643009D01*
X147436396Y11503591D01*
X147447176Y11482615D01*
X147562959Y11336532D01*
X147704912Y11215721D01*
X147710210Y11212760D01*
X147822245Y11150146D01*
X147867627Y11124783D01*
X148044907Y11067181D01*
X148229998Y11045110D01*
X148236041Y11045575D01*
X148236043Y11045575D01*
X148293482Y11049995D01*
X148415851Y11059411D01*
X148509342Y11085514D01*
X148589547Y11107907D01*
X148589551Y11107909D01*
X148595387Y11109538D01*
X148761768Y11193583D01*
X148766547Y11197317D01*
X148766552Y11197320D01*
X148876531Y11283246D01*
X148908655Y11308344D01*
X149030454Y11449450D01*
X149035343Y11458055D01*
X149119530Y11606252D01*
X149122526Y11611526D01*
X149181364Y11788399D01*
X149182248Y11795391D01*
X149193854Y11887263D01*
X149204727Y11973332D01*
X149205019Y11994253D01*
X149205051Y11996538D01*
X149205051Y11996543D01*
X149205099Y12000000D01*
X149203835Y12012894D01*
X149187501Y12179477D01*
X149187501Y12179479D01*
X149186909Y12185513D01*
X149136600Y12352145D01*
X149136068Y12422013D01*
X149173394Y12481077D01*
X149211252Y12503894D01*
X149232510Y12511974D01*
X149237257Y12513778D01*
X149237259Y12513779D01*
X149241219Y12515284D01*
X149280132Y12536532D01*
X149298647Y12546642D01*
X149298649Y12546643D01*
X149302542Y12548769D01*
X149306092Y12551426D01*
X149306096Y12551429D01*
X149425565Y12640862D01*
X149429117Y12643521D01*
X149856479Y13070883D01*
X149859670Y13074435D01*
X149895109Y13113890D01*
X149895111Y13113892D01*
X149896220Y13115127D01*
X149912854Y13135769D01*
X149951322Y13189819D01*
X149953815Y13195368D01*
X149953817Y13195372D01*
X150011576Y13323951D01*
X150011577Y13323954D01*
X150013312Y13327816D01*
X150032997Y13394855D01*
X150055500Y13551362D01*
X150055500Y16448638D01*
X150054403Y16469119D01*
X150052407Y16506351D01*
X150052406Y16506365D01*
X150052317Y16508023D01*
X150049483Y16534381D01*
X150038463Y16599808D01*
X150035788Y16606848D01*
X150010736Y16672759D01*
X149984716Y16741219D01*
X149951231Y16802542D01*
X149932484Y16827586D01*
X149859138Y16925565D01*
X149856479Y16929117D01*
X148179117Y18606479D01*
X148134873Y18646220D01*
X148133582Y18647260D01*
X148133573Y18647268D01*
X148115679Y18661687D01*
X148114231Y18662854D01*
X148060181Y18701322D01*
X148054632Y18703815D01*
X148054628Y18703817D01*
X147926049Y18761576D01*
X147926046Y18761577D01*
X147922184Y18763312D01*
X147855145Y18782997D01*
X147698638Y18805500D01*
X147093802Y18805500D01*
X147026763Y18825185D01*
X146998153Y18858203D01*
X146985708Y18837772D01*
X146922871Y18807223D01*
X146902269Y18805500D01*
X143551362Y18805500D01*
X143549727Y18805412D01*
X143549713Y18805412D01*
X143493649Y18802407D01*
X143493635Y18802406D01*
X143491977Y18802317D01*
X143490322Y18802139D01*
X143490309Y18802138D01*
X143476733Y18800678D01*
X143465619Y18799483D01*
X143400192Y18788463D01*
X143394498Y18786299D01*
X143394495Y18786298D01*
X143339507Y18765398D01*
X143258781Y18734716D01*
X143197458Y18701231D01*
X143193908Y18698574D01*
X143193904Y18698571D01*
X143089056Y18620083D01*
X143070883Y18606479D01*
X142306223Y17841819D01*
X142244900Y17808334D01*
X142218542Y17805500D01*
X139051362Y17805500D01*
X139049727Y17805412D01*
X139049713Y17805412D01*
X138993649Y17802407D01*
X138993635Y17802406D01*
X138991977Y17802317D01*
X138990322Y17802139D01*
X138990309Y17802138D01*
X138976733Y17800678D01*
X138965619Y17799483D01*
X138900192Y17788463D01*
X138894498Y17786299D01*
X138894495Y17786298D01*
X138860379Y17773331D01*
X138758781Y17734716D01*
X138697458Y17701231D01*
X138693908Y17698574D01*
X138693904Y17698571D01*
X138592830Y17622908D01*
X138570883Y17606479D01*
X137711681Y16747277D01*
X137650358Y16713792D01*
X137580666Y16718776D01*
X137524733Y16760648D01*
X137500316Y16826112D01*
X137500000Y16834958D01*
X137500000Y20000000D01*
X137000000Y20500000D01*
X135136475Y20500000D01*
X135112284Y20502383D01*
X135033651Y20518024D01*
X134988951Y20536539D01*
X134964536Y20552853D01*
X134922285Y20581084D01*
X134903495Y20596505D01*
X134596505Y20903495D01*
X134581084Y20922285D01*
X134571398Y20936781D01*
X134550500Y21005672D01*
X134550500Y25455794D01*
X134551561Y25471980D01*
X134554189Y25491941D01*
X134555250Y25500000D01*
X134554943Y25502334D01*
X134575087Y25568740D01*
X134581084Y25577715D01*
X134596505Y25596505D01*
X134903495Y25903495D01*
X134922285Y25918916D01*
X134931260Y25924913D01*
X134997666Y25945057D01*
X135000000Y25944750D01*
X135028020Y25948439D01*
X135044206Y25949500D01*
X138302939Y25949500D01*
X138369978Y25929815D01*
G37*
%TD.AperFunction*%
%TA.AperFunction,Conductor*%
G36*
X164155024Y25929815D02*
G01*
X164200779Y25877011D01*
X164210723Y25807853D01*
X164196647Y25765763D01*
X164122873Y25631569D01*
X164122870Y25631561D01*
X164119952Y25626254D01*
X164118120Y25620479D01*
X164065879Y25455794D01*
X164063589Y25448576D01*
X164062913Y25442548D01*
X164044978Y25282650D01*
X164042811Y25263335D01*
X164058409Y25077586D01*
X164060078Y25071766D01*
X164060078Y25071765D01*
X164105729Y24912562D01*
X164109788Y24898405D01*
X164112560Y24893011D01*
X164112561Y24893009D01*
X164159331Y24802006D01*
X164194993Y24732615D01*
X164228097Y24690848D01*
X164293835Y24607907D01*
X164310776Y24586532D01*
X164452729Y24465721D01*
X164615444Y24374783D01*
X164792724Y24317181D01*
X164977815Y24295110D01*
X164983858Y24295575D01*
X164983860Y24295575D01*
X165041299Y24299995D01*
X165163668Y24309411D01*
X165241052Y24331017D01*
X165337364Y24357907D01*
X165337368Y24357909D01*
X165343204Y24359538D01*
X165509585Y24443583D01*
X165514364Y24447317D01*
X165514369Y24447320D01*
X165651693Y24554610D01*
X165651694Y24554611D01*
X165656472Y24558344D01*
X165660433Y24562933D01*
X165664652Y24566950D01*
X165726776Y24598924D01*
X165796325Y24592236D01*
X165830527Y24571581D01*
X165954912Y24465721D01*
X166117627Y24374783D01*
X166294907Y24317181D01*
X166479998Y24295110D01*
X166486041Y24295575D01*
X166486043Y24295575D01*
X166543482Y24299995D01*
X166665851Y24309411D01*
X166743235Y24331017D01*
X166839547Y24357907D01*
X166839551Y24357909D01*
X166845387Y24359538D01*
X167011768Y24443583D01*
X167016547Y24447317D01*
X167016552Y24447320D01*
X167127866Y24534289D01*
X167158655Y24558344D01*
X167280454Y24699450D01*
X167289698Y24715721D01*
X167369530Y24856252D01*
X167372526Y24861526D01*
X167431364Y25038399D01*
X167454727Y25223332D01*
X167454925Y25237527D01*
X167455051Y25246538D01*
X167455051Y25246543D01*
X167455099Y25250000D01*
X167454384Y25257289D01*
X167437501Y25429477D01*
X167437501Y25429479D01*
X167436909Y25435513D01*
X167383033Y25613960D01*
X167313732Y25744297D01*
X167301508Y25767286D01*
X167287416Y25835719D01*
X167312558Y25900909D01*
X167368954Y25942156D01*
X167410994Y25949500D01*
X169475945Y25949500D01*
X169542984Y25929815D01*
X169588739Y25877011D01*
X169598683Y25807853D01*
X169594141Y25788006D01*
X169565772Y25698576D01*
X169562383Y25668362D01*
X169547101Y25532115D01*
X169544994Y25513335D01*
X169560592Y25327586D01*
X169562261Y25321766D01*
X169562261Y25321765D01*
X169588190Y25231341D01*
X169611971Y25148405D01*
X169614743Y25143011D01*
X169614744Y25143009D01*
X169687154Y25002116D01*
X169697176Y24982615D01*
X169812959Y24836532D01*
X169817578Y24832601D01*
X169935062Y24732615D01*
X169954912Y24715721D01*
X169960210Y24712760D01*
X169993178Y24694335D01*
X170117627Y24624783D01*
X170294907Y24567181D01*
X170300928Y24566463D01*
X170380832Y24556935D01*
X170479998Y24545110D01*
X170486041Y24545575D01*
X170486043Y24545575D01*
X170543482Y24549995D01*
X170665851Y24559411D01*
X170748909Y24582601D01*
X170839547Y24607907D01*
X170839551Y24607909D01*
X170845387Y24609538D01*
X171011768Y24693583D01*
X171016547Y24697317D01*
X171016552Y24697320D01*
X171092171Y24756401D01*
X171158655Y24808344D01*
X171280454Y24949450D01*
X171292132Y24970006D01*
X171369530Y25106252D01*
X171372526Y25111526D01*
X171431364Y25288399D01*
X171438600Y25345672D01*
X171450838Y25442548D01*
X171454727Y25473332D01*
X171455099Y25500000D01*
X171454234Y25508820D01*
X171437501Y25679477D01*
X171437501Y25679479D01*
X171436909Y25685513D01*
X171405465Y25789661D01*
X171404933Y25859528D01*
X171442259Y25918592D01*
X171505592Y25948100D01*
X171524173Y25949500D01*
X180975945Y25949500D01*
X181042984Y25929815D01*
X181088739Y25877011D01*
X181098683Y25807853D01*
X181094141Y25788006D01*
X181065772Y25698576D01*
X181062383Y25668362D01*
X181047101Y25532115D01*
X181044994Y25513335D01*
X181060592Y25327586D01*
X181062261Y25321766D01*
X181062261Y25321765D01*
X181088190Y25231341D01*
X181111971Y25148405D01*
X181114743Y25143011D01*
X181114744Y25143009D01*
X181187154Y25002116D01*
X181197176Y24982615D01*
X181312959Y24836532D01*
X181317578Y24832601D01*
X181435062Y24732615D01*
X181454912Y24715721D01*
X181460210Y24712760D01*
X181493178Y24694335D01*
X181617627Y24624783D01*
X181794907Y24567181D01*
X181800928Y24566463D01*
X181880832Y24556935D01*
X181979998Y24545110D01*
X181986041Y24545575D01*
X181986043Y24545575D01*
X182043482Y24549995D01*
X182165851Y24559411D01*
X182248909Y24582601D01*
X182339547Y24607907D01*
X182339551Y24607909D01*
X182345387Y24609538D01*
X182511768Y24693583D01*
X182516547Y24697317D01*
X182516552Y24697320D01*
X182592171Y24756401D01*
X182658655Y24808344D01*
X182780454Y24949450D01*
X182792132Y24970006D01*
X182869530Y25106252D01*
X182872526Y25111526D01*
X182931364Y25288399D01*
X182938600Y25345672D01*
X182950838Y25442548D01*
X182954727Y25473332D01*
X182955099Y25500000D01*
X182954234Y25508820D01*
X182937501Y25679477D01*
X182937501Y25679479D01*
X182936909Y25685513D01*
X182916293Y25753797D01*
X182915761Y25823665D01*
X182953087Y25882729D01*
X183016420Y25912237D01*
X183085652Y25902820D01*
X183122682Y25877318D01*
X183403495Y25596505D01*
X183418916Y25577715D01*
X183424913Y25568740D01*
X183445057Y25502334D01*
X183444750Y25500000D01*
X183445811Y25491941D01*
X183448439Y25471980D01*
X183449500Y25455794D01*
X183449500Y21005672D01*
X183428602Y20936781D01*
X183418916Y20922285D01*
X183403495Y20903495D01*
X183096505Y20596505D01*
X183077715Y20581084D01*
X183035465Y20552853D01*
X183011049Y20536539D01*
X182966349Y20518024D01*
X182887716Y20502383D01*
X182863525Y20500000D01*
X181000000Y20500000D01*
X180500000Y20000000D01*
X180500000Y14000000D01*
X181000000Y13500000D01*
X182863525Y13500000D01*
X182887716Y13497617D01*
X182966349Y13481976D01*
X183011049Y13463461D01*
X183077715Y13418916D01*
X183096505Y13403495D01*
X183403495Y13096505D01*
X183418916Y13077715D01*
X183428602Y13063219D01*
X183449500Y12994328D01*
X183449500Y8544206D01*
X183448439Y8528020D01*
X183444750Y8500000D01*
X183445057Y8497666D01*
X183424913Y8431260D01*
X183418916Y8422285D01*
X183403495Y8403495D01*
X183124308Y8124308D01*
X183062985Y8090823D01*
X182993293Y8095807D01*
X182937360Y8137679D01*
X182912943Y8203143D01*
X182918967Y8251130D01*
X182929449Y8282641D01*
X182929450Y8282645D01*
X182931364Y8288399D01*
X182954727Y8473332D01*
X182955099Y8500000D01*
X182954309Y8508059D01*
X182937501Y8679477D01*
X182937501Y8679479D01*
X182936909Y8685513D01*
X182883033Y8863960D01*
X182877279Y8874783D01*
X182798371Y9023186D01*
X182798371Y9023187D01*
X182795522Y9028544D01*
X182699376Y9146430D01*
X182681545Y9168293D01*
X182681544Y9168294D01*
X182677710Y9172995D01*
X182611387Y9227863D01*
X182538760Y9287946D01*
X182538757Y9287948D01*
X182534085Y9291813D01*
X182459484Y9332150D01*
X182375447Y9377589D01*
X182375443Y9377591D01*
X182370116Y9380471D01*
X182192049Y9435591D01*
X182006668Y9455076D01*
X182000635Y9454527D01*
X182000631Y9454527D01*
X181827074Y9438732D01*
X181827073Y9438732D01*
X181821032Y9438182D01*
X181815213Y9436469D01*
X181815211Y9436469D01*
X181758565Y9419797D01*
X181642214Y9385552D01*
X181477023Y9299193D01*
X181472295Y9295392D01*
X181472294Y9295391D01*
X181347259Y9194860D01*
X181331752Y9182392D01*
X181211935Y9039599D01*
X181122135Y8876254D01*
X181120303Y8870479D01*
X181085893Y8762006D01*
X181046858Y8704057D01*
X180982691Y8676410D01*
X180967697Y8675500D01*
X178426010Y8675500D01*
X178358971Y8695185D01*
X178313216Y8747989D01*
X178303272Y8817147D01*
X178332297Y8880703D01*
X178372627Y8911421D01*
X178384148Y8916916D01*
X178384150Y8916917D01*
X178389129Y8919292D01*
X178393613Y8922514D01*
X178565920Y9046329D01*
X178565921Y9046330D01*
X178570405Y9049552D01*
X178725749Y9209854D01*
X178728829Y9214437D01*
X178847173Y9390552D01*
X178847176Y9390557D01*
X178850250Y9395132D01*
X178939974Y9599529D01*
X178992085Y9816585D01*
X178994482Y9858160D01*
X179004616Y10033921D01*
X179004616Y10033922D01*
X179004934Y10039438D01*
X178991043Y10154232D01*
X178978781Y10255560D01*
X178978780Y10255564D01*
X178978117Y10261044D01*
X178941041Y10381564D01*
X178914106Y10469119D01*
X178914104Y10469123D01*
X178912481Y10474400D01*
X178900202Y10498191D01*
X178812633Y10667850D01*
X178812632Y10667852D01*
X178810099Y10672759D01*
X178735287Y10770256D01*
X178677570Y10845476D01*
X178677566Y10845480D01*
X178674210Y10849854D01*
X178610850Y10907507D01*
X178574513Y10967184D01*
X178576209Y11037033D01*
X178605255Y11085514D01*
X178646180Y11127745D01*
X178725749Y11209854D01*
X178728829Y11214437D01*
X178847173Y11390552D01*
X178847176Y11390557D01*
X178850250Y11395132D01*
X178939974Y11599529D01*
X178992085Y11816585D01*
X178995602Y11877589D01*
X179004616Y12033921D01*
X179004616Y12033922D01*
X179004934Y12039438D01*
X178988223Y12177534D01*
X178978781Y12255560D01*
X178978780Y12255564D01*
X178978117Y12261044D01*
X178963238Y12309411D01*
X178914106Y12469119D01*
X178914104Y12469123D01*
X178912481Y12474400D01*
X178905457Y12488010D01*
X178812633Y12667850D01*
X178812632Y12667852D01*
X178810099Y12672759D01*
X178721366Y12788399D01*
X178677570Y12845476D01*
X178677566Y12845480D01*
X178674210Y12849854D01*
X178610850Y12907507D01*
X178574513Y12967184D01*
X178576209Y13037033D01*
X178605255Y13085514D01*
X178655418Y13137278D01*
X178725749Y13209854D01*
X178737135Y13226798D01*
X178847173Y13390552D01*
X178847176Y13390557D01*
X178850250Y13395132D01*
X178939974Y13599529D01*
X178992085Y13816585D01*
X178995611Y13877745D01*
X179004616Y14033921D01*
X179004616Y14033922D01*
X179004934Y14039438D01*
X178988665Y14173881D01*
X178978781Y14255560D01*
X178978780Y14255564D01*
X178978117Y14261044D01*
X178937021Y14394632D01*
X178914106Y14469119D01*
X178914104Y14469123D01*
X178912481Y14474400D01*
X178903495Y14491811D01*
X178812633Y14667850D01*
X178812632Y14667852D01*
X178810099Y14672759D01*
X178723542Y14785563D01*
X178677570Y14845476D01*
X178677566Y14845480D01*
X178674210Y14849854D01*
X178610850Y14907507D01*
X178574513Y14967184D01*
X178576209Y15037033D01*
X178605255Y15085514D01*
X178640373Y15121753D01*
X178725749Y15209854D01*
X178737135Y15226798D01*
X178847173Y15390552D01*
X178847176Y15390557D01*
X178850250Y15395132D01*
X178939974Y15599529D01*
X178992085Y15816585D01*
X178994314Y15855250D01*
X179004616Y16033921D01*
X179004616Y16033922D01*
X179004934Y16039438D01*
X178988469Y16175500D01*
X178978781Y16255560D01*
X178978780Y16255564D01*
X178978117Y16261044D01*
X178957562Y16327859D01*
X178914106Y16469119D01*
X178914104Y16469123D01*
X178912481Y16474400D01*
X178905457Y16488010D01*
X178812633Y16667850D01*
X178812632Y16667852D01*
X178810099Y16672759D01*
X178721366Y16788399D01*
X178677570Y16845476D01*
X178677566Y16845480D01*
X178674210Y16849854D01*
X178610850Y16907507D01*
X178574513Y16967184D01*
X178576209Y17037033D01*
X178605255Y17085514D01*
X178659595Y17141589D01*
X178725749Y17209854D01*
X178728829Y17214437D01*
X178847173Y17390552D01*
X178847176Y17390557D01*
X178850250Y17395132D01*
X178939974Y17599529D01*
X178992085Y17816585D01*
X178995602Y17877589D01*
X179004616Y18033921D01*
X179004616Y18033922D01*
X179004934Y18039438D01*
X178988501Y18175233D01*
X178978781Y18255560D01*
X178978780Y18255564D01*
X178978117Y18261044D01*
X178952043Y18345799D01*
X178914106Y18469119D01*
X178914104Y18469123D01*
X178912481Y18474400D01*
X178890175Y18517618D01*
X178812633Y18667850D01*
X178812632Y18667852D01*
X178810099Y18672759D01*
X178739706Y18764497D01*
X178677570Y18845476D01*
X178677566Y18845480D01*
X178674210Y18849854D01*
X178579398Y18936126D01*
X178543061Y18995803D01*
X178544757Y19065652D01*
X178573804Y19114133D01*
X178688739Y19232736D01*
X178695667Y19241291D01*
X178809780Y19411109D01*
X178815075Y19420742D01*
X178897313Y19608086D01*
X178900820Y19618507D01*
X178927267Y19728665D01*
X178926574Y19742526D01*
X178917834Y19746000D01*
X176182013Y19746000D01*
X176168696Y19742090D01*
X176167642Y19734758D01*
X176225402Y19547004D01*
X176229561Y19536813D01*
X176323395Y19355014D01*
X176329292Y19345723D01*
X176453840Y19183407D01*
X176461281Y19175316D01*
X176518743Y19123029D01*
X176555079Y19063351D01*
X176553383Y18993502D01*
X176524336Y18945022D01*
X176378099Y18794118D01*
X176378093Y18794111D01*
X176374251Y18790146D01*
X176371173Y18785566D01*
X176371171Y18785563D01*
X176252827Y18609448D01*
X176252824Y18609443D01*
X176249750Y18604868D01*
X176160026Y18400471D01*
X176107915Y18183415D01*
X176107597Y18177900D01*
X176096064Y17977863D01*
X176095066Y17960562D01*
X176102630Y17898054D01*
X176120607Y17749502D01*
X176121883Y17738956D01*
X176123508Y17733674D01*
X176185167Y17533246D01*
X176187519Y17525600D01*
X176190052Y17520693D01*
X176190053Y17520690D01*
X176273942Y17358160D01*
X176289901Y17327241D01*
X176314872Y17294698D01*
X176422430Y17154524D01*
X176422434Y17154520D01*
X176425790Y17150146D01*
X176464940Y17114522D01*
X176489150Y17092493D01*
X176525487Y17032816D01*
X176523791Y16962967D01*
X176494745Y16914486D01*
X176480051Y16899323D01*
X176374251Y16790146D01*
X176371173Y16785566D01*
X176371171Y16785563D01*
X176252827Y16609448D01*
X176252824Y16609443D01*
X176249750Y16604868D01*
X176160026Y16400471D01*
X176107915Y16183415D01*
X176107597Y16177900D01*
X176097600Y16004504D01*
X176095066Y15960562D01*
X176095730Y15955078D01*
X176118411Y15767651D01*
X176121883Y15738956D01*
X176123508Y15733674D01*
X176183649Y15538181D01*
X176187519Y15525600D01*
X176190052Y15520693D01*
X176190053Y15520690D01*
X176267581Y15370485D01*
X176289901Y15327241D01*
X176310804Y15300000D01*
X176422430Y15154524D01*
X176422434Y15154520D01*
X176425790Y15150146D01*
X176429874Y15146430D01*
X176489150Y15092493D01*
X176525487Y15032816D01*
X176523791Y14962967D01*
X176494745Y14914486D01*
X176478372Y14897590D01*
X176374251Y14790146D01*
X176371173Y14785566D01*
X176371171Y14785563D01*
X176252827Y14609448D01*
X176252824Y14609443D01*
X176249750Y14604868D01*
X176160026Y14400471D01*
X176107915Y14183415D01*
X176107597Y14177900D01*
X176097456Y14002006D01*
X176095066Y13960562D01*
X176097982Y13936469D01*
X176119177Y13761320D01*
X176121883Y13738956D01*
X176123508Y13733674D01*
X176185167Y13533246D01*
X176187519Y13525600D01*
X176190052Y13520693D01*
X176190053Y13520690D01*
X176273942Y13358160D01*
X176289901Y13327241D01*
X176338938Y13263335D01*
X176422430Y13154524D01*
X176422434Y13154520D01*
X176425790Y13150146D01*
X176465635Y13113890D01*
X176489150Y13092493D01*
X176525487Y13032816D01*
X176523791Y12962967D01*
X176494745Y12914486D01*
X176463609Y12882356D01*
X176374251Y12790146D01*
X176371173Y12785566D01*
X176371171Y12785563D01*
X176252827Y12609448D01*
X176252824Y12609443D01*
X176249750Y12604868D01*
X176160026Y12400471D01*
X176107915Y12183415D01*
X176107597Y12177900D01*
X176097009Y11994253D01*
X176095066Y11960562D01*
X176097982Y11936469D01*
X176119111Y11761865D01*
X176121883Y11738956D01*
X176123508Y11733674D01*
X176181644Y11544698D01*
X176187519Y11525600D01*
X176190052Y11520693D01*
X176190053Y11520690D01*
X176263914Y11377589D01*
X176289901Y11327241D01*
X176331379Y11273186D01*
X176422430Y11154524D01*
X176422434Y11154520D01*
X176425790Y11150146D01*
X176453664Y11124783D01*
X176489150Y11092493D01*
X176525487Y11032816D01*
X176523791Y10962967D01*
X176494745Y10914486D01*
X176459627Y10878247D01*
X176374251Y10790146D01*
X176371173Y10785566D01*
X176371171Y10785563D01*
X176252827Y10609448D01*
X176252824Y10609443D01*
X176249750Y10604868D01*
X176160026Y10400471D01*
X176107915Y10183415D01*
X176107597Y10177900D01*
X176096064Y9977863D01*
X176095066Y9960562D01*
X176101674Y9905956D01*
X176120547Y9750000D01*
X176121883Y9738956D01*
X176123508Y9733674D01*
X176183582Y9538399D01*
X176187519Y9525600D01*
X176190052Y9520693D01*
X176190053Y9520690D01*
X176272205Y9361526D01*
X176289901Y9327241D01*
X176334389Y9269263D01*
X176422430Y9154524D01*
X176422434Y9154520D01*
X176425790Y9150146D01*
X176590893Y8999914D01*
X176595567Y8996982D01*
X176595571Y8996979D01*
X176678656Y8944860D01*
X176727037Y8914511D01*
X176742927Y8904543D01*
X176789257Y8852243D01*
X176799957Y8783198D01*
X176771629Y8719328D01*
X176713268Y8680912D01*
X176677033Y8675500D01*
X174355429Y8675500D01*
X174288390Y8695185D01*
X174242635Y8747989D01*
X174232691Y8817147D01*
X174261716Y8880703D01*
X174278917Y8897080D01*
X174371933Y8970014D01*
X174375258Y8972621D01*
X174569823Y9173397D01*
X174735340Y9398720D01*
X174849805Y9609538D01*
X174866728Y9640707D01*
X174866728Y9640708D01*
X174868745Y9644422D01*
X174872452Y9654232D01*
X174966080Y9902012D01*
X174966081Y9902016D01*
X174967570Y9905956D01*
X174972957Y9929477D01*
X175029044Y10174363D01*
X175029045Y10174368D01*
X175029987Y10178482D01*
X175047638Y10376254D01*
X175054623Y10454521D01*
X175054624Y10454531D01*
X175054840Y10456957D01*
X175054968Y10469119D01*
X175055167Y10488210D01*
X175055291Y10500000D01*
X175042462Y10688182D01*
X175036562Y10774726D01*
X175036562Y10774727D01*
X175036275Y10778935D01*
X174979579Y11052708D01*
X174977206Y11059411D01*
X174887663Y11312272D01*
X174886253Y11316254D01*
X174880582Y11327241D01*
X174759960Y11560942D01*
X174759957Y11560947D01*
X174758022Y11564696D01*
X174738008Y11593174D01*
X174677605Y11679118D01*
X174597261Y11793437D01*
X174542379Y11852497D01*
X174409822Y11995146D01*
X174409821Y11995147D01*
X174406944Y11998243D01*
X174190591Y12175325D01*
X173952208Y12321406D01*
X173948347Y12323101D01*
X173948343Y12323103D01*
X173779272Y12397320D01*
X173696205Y12433784D01*
X173470025Y12498213D01*
X173431374Y12509223D01*
X173431373Y12509223D01*
X173427319Y12510378D01*
X173150526Y12549771D01*
X173003846Y12550539D01*
X172875167Y12551213D01*
X172875166Y12551213D01*
X172870947Y12551235D01*
X172729405Y12532601D01*
X172597949Y12515295D01*
X172597947Y12515295D01*
X172593757Y12514743D01*
X172324083Y12440968D01*
X172320200Y12439312D01*
X172320195Y12439310D01*
X172166210Y12373630D01*
X172066917Y12331278D01*
X172063292Y12329109D01*
X172063291Y12329108D01*
X171923889Y12245678D01*
X171856256Y12228141D01*
X171789878Y12249953D01*
X171745830Y12304190D01*
X171738097Y12373630D01*
X171766345Y12433105D01*
X171766932Y12433784D01*
X171780454Y12449450D01*
X171787321Y12461537D01*
X171869530Y12606252D01*
X171872526Y12611526D01*
X171931364Y12788399D01*
X171935579Y12821759D01*
X171947293Y12914486D01*
X171954727Y12973332D01*
X171955099Y13000000D01*
X171954761Y13003448D01*
X171937501Y13179477D01*
X171937501Y13179479D01*
X171936909Y13185513D01*
X171883033Y13363960D01*
X171877279Y13374783D01*
X171798371Y13523186D01*
X171798371Y13523187D01*
X171795522Y13528544D01*
X171677710Y13672995D01*
X171622182Y13718932D01*
X171538760Y13787946D01*
X171538757Y13787948D01*
X171534085Y13791813D01*
X171473632Y13824500D01*
X171375447Y13877589D01*
X171375443Y13877591D01*
X171370116Y13880471D01*
X171192049Y13935591D01*
X171006668Y13955076D01*
X171000635Y13954527D01*
X171000631Y13954527D01*
X170827074Y13938732D01*
X170827073Y13938732D01*
X170821032Y13938182D01*
X170815213Y13936469D01*
X170815211Y13936469D01*
X170782577Y13926864D01*
X170642214Y13885552D01*
X170477023Y13799193D01*
X170472295Y13795392D01*
X170472294Y13795391D01*
X170418843Y13752415D01*
X170331752Y13682392D01*
X170331088Y13683217D01*
X170274579Y13653119D01*
X170204943Y13658827D01*
X170170440Y13679009D01*
X170165354Y13683217D01*
X170111387Y13727863D01*
X170038760Y13787946D01*
X170038757Y13787948D01*
X170034085Y13791813D01*
X169973632Y13824500D01*
X169875447Y13877589D01*
X169875443Y13877591D01*
X169870116Y13880471D01*
X169692049Y13935591D01*
X169506668Y13955076D01*
X169500635Y13954527D01*
X169500631Y13954527D01*
X169327074Y13938732D01*
X169327073Y13938732D01*
X169321032Y13938182D01*
X169315213Y13936469D01*
X169315211Y13936469D01*
X169282577Y13926864D01*
X169142214Y13885552D01*
X168977023Y13799193D01*
X168972295Y13795392D01*
X168972294Y13795391D01*
X168918843Y13752415D01*
X168831752Y13682392D01*
X168831088Y13683217D01*
X168774579Y13653119D01*
X168704943Y13658827D01*
X168670440Y13679009D01*
X168665354Y13683217D01*
X168611387Y13727863D01*
X168538760Y13787946D01*
X168538757Y13787948D01*
X168534085Y13791813D01*
X168473632Y13824500D01*
X168375447Y13877589D01*
X168375443Y13877591D01*
X168370116Y13880471D01*
X168192049Y13935591D01*
X168006668Y13955076D01*
X168000635Y13954527D01*
X168000631Y13954527D01*
X167827074Y13938732D01*
X167827073Y13938732D01*
X167821032Y13938182D01*
X167815213Y13936469D01*
X167815211Y13936469D01*
X167782577Y13926864D01*
X167642214Y13885552D01*
X167477023Y13799193D01*
X167472295Y13795392D01*
X167472294Y13795391D01*
X167457189Y13783246D01*
X167377841Y13719448D01*
X167377199Y13718932D01*
X167312618Y13692266D01*
X167243873Y13704748D01*
X167192788Y13752415D01*
X167175500Y13815570D01*
X167175500Y13972302D01*
X167175787Y13980736D01*
X167179020Y14028158D01*
X167179020Y14028160D01*
X167179528Y14035613D01*
X167169071Y14095532D01*
X167168124Y14101946D01*
X167160819Y14162313D01*
X167158175Y14169311D01*
X167157052Y14173881D01*
X167154064Y14184805D01*
X167152705Y14189308D01*
X167151419Y14196675D01*
X167148414Y14203521D01*
X167148411Y14203530D01*
X167126968Y14252376D01*
X167124527Y14258357D01*
X167103027Y14315255D01*
X167098796Y14321411D01*
X167096630Y14325555D01*
X167091090Y14335509D01*
X167088705Y14339542D01*
X167085702Y14346382D01*
X167048679Y14394632D01*
X167044864Y14399883D01*
X167014658Y14443833D01*
X167014656Y14443836D01*
X167010421Y14449997D01*
X167004841Y14454969D01*
X167004838Y14454972D01*
X166966150Y14489441D01*
X166960958Y14494343D01*
X166542982Y14912319D01*
X166509497Y14973642D01*
X166514481Y15043334D01*
X166542982Y15087681D01*
X166958055Y15502754D01*
X166964221Y15508515D01*
X166984280Y15526014D01*
X167005681Y15544683D01*
X167040655Y15594445D01*
X167044518Y15599646D01*
X167077428Y15641619D01*
X167082042Y15647503D01*
X167085120Y15654320D01*
X167087552Y15658336D01*
X167093174Y15668191D01*
X167095394Y15672331D01*
X167099693Y15678448D01*
X167121783Y15735106D01*
X167124288Y15741066D01*
X167149324Y15796515D01*
X167150686Y15803861D01*
X167152082Y15808317D01*
X167155206Y15819288D01*
X167156367Y15823811D01*
X167159083Y15830776D01*
X167161930Y15852396D01*
X167167021Y15891067D01*
X167168036Y15897477D01*
X167177757Y15949928D01*
X167177757Y15949932D01*
X167179118Y15957274D01*
X167178611Y15966079D01*
X167175706Y16016452D01*
X167175500Y16023590D01*
X167175500Y16281743D01*
X167195185Y16348782D01*
X167205632Y16362767D01*
X167276492Y16444860D01*
X167280454Y16449450D01*
X167299295Y16482615D01*
X167369530Y16606252D01*
X167372526Y16611526D01*
X167431364Y16788399D01*
X167436129Y16826112D01*
X167446610Y16909083D01*
X167454727Y16973332D01*
X167455099Y17000000D01*
X167454384Y17007289D01*
X167453791Y17013335D01*
X169044994Y17013335D01*
X169060592Y16827586D01*
X169062261Y16821766D01*
X169062261Y16821765D01*
X169103165Y16679117D01*
X169111971Y16648405D01*
X169114743Y16643011D01*
X169114744Y16643009D01*
X169190021Y16496538D01*
X169197176Y16482615D01*
X169227100Y16444860D01*
X169298207Y16355145D01*
X169312959Y16336532D01*
X169454912Y16215721D01*
X169460210Y16212760D01*
X169487837Y16197320D01*
X169617627Y16124783D01*
X169794907Y16067181D01*
X169979998Y16045110D01*
X169986041Y16045575D01*
X169986043Y16045575D01*
X170043482Y16049995D01*
X170165851Y16059411D01*
X170243235Y16081017D01*
X170339547Y16107907D01*
X170339551Y16107909D01*
X170345387Y16109538D01*
X170511768Y16193583D01*
X170516547Y16197317D01*
X170516552Y16197320D01*
X170598206Y16261116D01*
X170658655Y16308344D01*
X170780454Y16449450D01*
X170799295Y16482615D01*
X170869530Y16606252D01*
X170872526Y16611526D01*
X170931364Y16788399D01*
X170936129Y16826112D01*
X170946610Y16909083D01*
X170954727Y16973332D01*
X170955099Y17000000D01*
X170954384Y17007289D01*
X170937501Y17179477D01*
X170937501Y17179479D01*
X170936909Y17185513D01*
X170883033Y17363960D01*
X170875787Y17377589D01*
X170798371Y17523186D01*
X170798371Y17523187D01*
X170795522Y17528544D01*
X170693514Y17653617D01*
X170681545Y17668293D01*
X170681544Y17668294D01*
X170677710Y17672995D01*
X170605560Y17732683D01*
X170538760Y17787946D01*
X170538757Y17787948D01*
X170534085Y17791813D01*
X170470638Y17826119D01*
X170375447Y17877589D01*
X170375443Y17877591D01*
X170370116Y17880471D01*
X170192049Y17935591D01*
X170006668Y17955076D01*
X170000635Y17954527D01*
X170000631Y17954527D01*
X169827074Y17938732D01*
X169827073Y17938732D01*
X169821032Y17938182D01*
X169815213Y17936469D01*
X169815211Y17936469D01*
X169758855Y17919882D01*
X169642214Y17885552D01*
X169477023Y17799193D01*
X169472295Y17795392D01*
X169472294Y17795391D01*
X169349694Y17696818D01*
X169331752Y17682392D01*
X169211935Y17539599D01*
X169204239Y17525600D01*
X169127247Y17385552D01*
X169122135Y17376254D01*
X169120303Y17370479D01*
X169069350Y17209854D01*
X169065772Y17198576D01*
X169063337Y17176864D01*
X169048461Y17044242D01*
X169044994Y17013335D01*
X167453791Y17013335D01*
X167437501Y17179477D01*
X167437501Y17179479D01*
X167436909Y17185513D01*
X167383033Y17363960D01*
X167375787Y17377589D01*
X167298371Y17523186D01*
X167298371Y17523187D01*
X167295522Y17528544D01*
X167193514Y17653617D01*
X167181545Y17668293D01*
X167181544Y17668294D01*
X167177710Y17672995D01*
X167105560Y17732683D01*
X167038760Y17787946D01*
X167038757Y17787948D01*
X167034085Y17791813D01*
X166970638Y17826119D01*
X166875447Y17877589D01*
X166875443Y17877591D01*
X166870116Y17880471D01*
X166692049Y17935591D01*
X166506668Y17955076D01*
X166500635Y17954527D01*
X166500631Y17954527D01*
X166327074Y17938732D01*
X166327073Y17938732D01*
X166321032Y17938182D01*
X166315213Y17936469D01*
X166315211Y17936469D01*
X166258855Y17919882D01*
X166188985Y17919838D01*
X166130183Y17957574D01*
X166101117Y18021111D01*
X166111017Y18090276D01*
X166116020Y18100074D01*
X166122526Y18111526D01*
X166181364Y18288399D01*
X166183211Y18303014D01*
X166201497Y18447767D01*
X166204727Y18473332D01*
X166205099Y18500000D01*
X166204384Y18507289D01*
X166187501Y18679477D01*
X166187501Y18679479D01*
X166186909Y18685513D01*
X166133033Y18863960D01*
X166087047Y18950448D01*
X166048371Y19023186D01*
X166048371Y19023187D01*
X166045522Y19028544D01*
X166030201Y19047330D01*
X166003084Y19111721D01*
X166015084Y19180553D01*
X166049951Y19223415D01*
X166052479Y19225390D01*
X166158655Y19308344D01*
X166280454Y19449450D01*
X166295573Y19476063D01*
X166369530Y19606252D01*
X166372526Y19611526D01*
X166431364Y19788399D01*
X166434464Y19812933D01*
X166454292Y19969891D01*
X166454727Y19973332D01*
X166455099Y20000000D01*
X166454384Y20007289D01*
X166437501Y20179477D01*
X166437501Y20179479D01*
X166436909Y20185513D01*
X166383033Y20363960D01*
X166379067Y20371420D01*
X166298371Y20523186D01*
X166298371Y20523187D01*
X166295522Y20528544D01*
X166177710Y20672995D01*
X166101783Y20735808D01*
X166038760Y20787946D01*
X166038757Y20787948D01*
X166034085Y20791813D01*
X165976051Y20823192D01*
X165875447Y20877589D01*
X165875443Y20877591D01*
X165870116Y20880471D01*
X165692049Y20935591D01*
X165506668Y20955076D01*
X165500635Y20954527D01*
X165500631Y20954527D01*
X165327074Y20938732D01*
X165327073Y20938732D01*
X165321032Y20938182D01*
X165315213Y20936469D01*
X165315211Y20936469D01*
X165267020Y20922285D01*
X165142214Y20885552D01*
X164977023Y20799193D01*
X164972295Y20795392D01*
X164972294Y20795391D01*
X164842851Y20691316D01*
X164831752Y20682392D01*
X164711935Y20539599D01*
X164702912Y20523186D01*
X164627247Y20385552D01*
X164622135Y20376254D01*
X164620303Y20370479D01*
X164583354Y20254000D01*
X164565772Y20198576D01*
X164563280Y20176356D01*
X164546863Y20029994D01*
X164544994Y20013335D01*
X164560592Y19827586D01*
X164562261Y19821766D01*
X164562261Y19821765D01*
X164610273Y19654328D01*
X164611971Y19648405D01*
X164614743Y19643011D01*
X164614744Y19643009D01*
X164679661Y19516696D01*
X164697176Y19482615D01*
X164721102Y19452427D01*
X164747315Y19387664D01*
X164734353Y19319007D01*
X164701621Y19278770D01*
X164648067Y19235711D01*
X164581752Y19182392D01*
X164461935Y19039599D01*
X164372135Y18876254D01*
X164370303Y18870479D01*
X164321338Y18716121D01*
X164315772Y18698576D01*
X164311634Y18661687D01*
X164299675Y18555064D01*
X164294994Y18513335D01*
X164310592Y18327586D01*
X164312261Y18321766D01*
X164312261Y18321765D01*
X164359586Y18156724D01*
X164361971Y18148405D01*
X164364743Y18143011D01*
X164364744Y18143009D01*
X164427392Y18021111D01*
X164447176Y17982615D01*
X164562959Y17836532D01*
X164565485Y17834382D01*
X164597453Y17773331D01*
X164591255Y17703737D01*
X164570836Y17669383D01*
X164516725Y17604896D01*
X164461935Y17539599D01*
X164454239Y17525600D01*
X164377247Y17385552D01*
X164372135Y17376254D01*
X164370303Y17370479D01*
X164319350Y17209854D01*
X164315772Y17198576D01*
X164313337Y17176864D01*
X164298461Y17044242D01*
X164294994Y17013335D01*
X164310592Y16827586D01*
X164312261Y16821766D01*
X164312261Y16821765D01*
X164353165Y16679117D01*
X164361971Y16648405D01*
X164364743Y16643011D01*
X164364744Y16643009D01*
X164440021Y16496538D01*
X164447176Y16482615D01*
X164512282Y16400471D01*
X164531264Y16376522D01*
X164557479Y16311757D01*
X164544517Y16243100D01*
X164496494Y16192350D01*
X164434086Y16175500D01*
X160057752Y16175500D01*
X159990713Y16195185D01*
X159944958Y16247989D01*
X159934730Y16315042D01*
X159951710Y16449450D01*
X159954727Y16473332D01*
X159955099Y16500000D01*
X159945312Y16599815D01*
X159937501Y16679477D01*
X159937501Y16679479D01*
X159936909Y16685513D01*
X159883033Y16863960D01*
X159879686Y16870256D01*
X159798371Y17023186D01*
X159798371Y17023187D01*
X159795522Y17028544D01*
X159713684Y17128887D01*
X159681545Y17168293D01*
X159681544Y17168294D01*
X159677710Y17172995D01*
X159627616Y17214437D01*
X159538760Y17287946D01*
X159538757Y17287948D01*
X159534085Y17291813D01*
X159467958Y17327568D01*
X159375447Y17377589D01*
X159375443Y17377591D01*
X159370116Y17380471D01*
X159192049Y17435591D01*
X159006668Y17455076D01*
X159000635Y17454527D01*
X159000631Y17454527D01*
X158827074Y17438732D01*
X158827073Y17438732D01*
X158821032Y17438182D01*
X158815213Y17436469D01*
X158815211Y17436469D01*
X158767869Y17422535D01*
X158642214Y17385552D01*
X158477023Y17299193D01*
X158472295Y17295392D01*
X158472294Y17295391D01*
X158336478Y17186192D01*
X158331752Y17182392D01*
X158211935Y17039599D01*
X158190165Y17000000D01*
X158153978Y16934176D01*
X158104432Y16884912D01*
X158036117Y16870256D01*
X157994289Y16880900D01*
X157953486Y16899323D01*
X157946139Y16900685D01*
X157941645Y16902093D01*
X157930744Y16905198D01*
X157926188Y16906368D01*
X157919224Y16909083D01*
X157858920Y16917023D01*
X157852530Y16918034D01*
X157792726Y16929118D01*
X157774594Y16928072D01*
X157760880Y16927282D01*
X157692819Y16943075D01*
X157644101Y16993158D01*
X157630193Y17061629D01*
X157657194Y17128885D01*
X157662522Y17135496D01*
X157701008Y17189570D01*
X157750251Y17299193D01*
X157761259Y17323698D01*
X157761261Y17323703D01*
X157762997Y17327568D01*
X157782999Y17395689D01*
X157805500Y17552190D01*
X157805500Y20513335D01*
X158794994Y20513335D01*
X158810592Y20327586D01*
X158812261Y20321766D01*
X158812261Y20321765D01*
X158851331Y20185513D01*
X158861971Y20148405D01*
X158864743Y20143011D01*
X158864744Y20143009D01*
X158940021Y19996538D01*
X158947176Y19982615D01*
X159062959Y19836532D01*
X159067578Y19832601D01*
X159182544Y19734758D01*
X159204912Y19715721D01*
X159367627Y19624783D01*
X159462286Y19594026D01*
X159519960Y19554590D01*
X159547532Y19486472D01*
X159560592Y19330947D01*
X159562261Y19325127D01*
X159562261Y19325126D01*
X159603717Y19180553D01*
X159611971Y19151766D01*
X159614743Y19146372D01*
X159614744Y19146370D01*
X159692126Y18995803D01*
X159697176Y18985976D01*
X159746110Y18924236D01*
X159805051Y18849871D01*
X159812959Y18839893D01*
X159817578Y18835962D01*
X159934941Y18736079D01*
X159954912Y18719082D01*
X159960210Y18716121D01*
X160089635Y18643788D01*
X160117627Y18628144D01*
X160123399Y18626269D01*
X160123398Y18626269D01*
X160246114Y18586396D01*
X160294907Y18570542D01*
X160300928Y18569824D01*
X160442251Y18552972D01*
X160506488Y18525488D01*
X160545669Y18467638D01*
X160551134Y18440222D01*
X160560592Y18327586D01*
X160562261Y18321766D01*
X160562261Y18321765D01*
X160609586Y18156724D01*
X160611971Y18148405D01*
X160614743Y18143011D01*
X160614744Y18143009D01*
X160677392Y18021111D01*
X160697176Y17982615D01*
X160735867Y17933799D01*
X160809189Y17841289D01*
X160812959Y17836532D01*
X160954912Y17715721D01*
X160960210Y17712760D01*
X161031361Y17672995D01*
X161117627Y17624783D01*
X161294907Y17567181D01*
X161479998Y17545110D01*
X161486041Y17545575D01*
X161486043Y17545575D01*
X161543586Y17550003D01*
X161665851Y17559411D01*
X161743235Y17581017D01*
X161839547Y17607907D01*
X161839551Y17607909D01*
X161845387Y17609538D01*
X162011768Y17693583D01*
X162016547Y17697317D01*
X162016552Y17697320D01*
X162092171Y17756401D01*
X162158655Y17808344D01*
X162280454Y17949450D01*
X162283652Y17955078D01*
X162369530Y18106252D01*
X162369533Y18106258D01*
X162372526Y18111526D01*
X162431364Y18288399D01*
X162433211Y18303014D01*
X162451497Y18447767D01*
X162454727Y18473332D01*
X162455099Y18500000D01*
X162454384Y18507289D01*
X162437501Y18679477D01*
X162437501Y18679479D01*
X162436909Y18685513D01*
X162383033Y18863960D01*
X162337047Y18950448D01*
X162298371Y19023186D01*
X162298371Y19023187D01*
X162295522Y19028544D01*
X162218560Y19122908D01*
X162181545Y19168293D01*
X162181544Y19168294D01*
X162177710Y19172995D01*
X162114376Y19225390D01*
X162038760Y19287946D01*
X162038757Y19287948D01*
X162034085Y19291813D01*
X161972474Y19325126D01*
X161875447Y19377589D01*
X161875443Y19377591D01*
X161870116Y19380471D01*
X161692049Y19435591D01*
X161559921Y19449479D01*
X161495309Y19476063D01*
X161455324Y19533360D01*
X161449477Y19560698D01*
X161437501Y19682839D01*
X161437500Y19682842D01*
X161436909Y19688874D01*
X161383033Y19867321D01*
X161336560Y19954725D01*
X161298371Y20026547D01*
X161298371Y20026548D01*
X161295522Y20031905D01*
X161187124Y20164813D01*
X161181545Y20171654D01*
X161181544Y20171655D01*
X161177710Y20176356D01*
X161138256Y20208996D01*
X161038760Y20291307D01*
X161038757Y20291309D01*
X161034085Y20295174D01*
X160984906Y20321765D01*
X160875447Y20380950D01*
X160875443Y20380952D01*
X160870116Y20383832D01*
X160790381Y20408514D01*
X160732161Y20447141D01*
X160703641Y20514868D01*
X160702826Y20523186D01*
X160689238Y20661761D01*
X160687501Y20679477D01*
X160687501Y20679479D01*
X160686909Y20685513D01*
X160633033Y20863960D01*
X160628899Y20871736D01*
X160548371Y21023186D01*
X160548371Y21023187D01*
X160545522Y21028544D01*
X160427710Y21172995D01*
X160345710Y21240832D01*
X160288760Y21287946D01*
X160288757Y21287948D01*
X160284085Y21291813D01*
X160228690Y21321765D01*
X160125447Y21377589D01*
X160125443Y21377591D01*
X160120116Y21380471D01*
X159942049Y21435591D01*
X159756668Y21455076D01*
X159750635Y21454527D01*
X159750631Y21454527D01*
X159577074Y21438732D01*
X159577073Y21438732D01*
X159571032Y21438182D01*
X159565213Y21436469D01*
X159565211Y21436469D01*
X159508565Y21419797D01*
X159392214Y21385552D01*
X159227023Y21299193D01*
X159222295Y21295392D01*
X159222294Y21295391D01*
X159095671Y21193583D01*
X159081752Y21182392D01*
X158961935Y21039599D01*
X158943166Y21005458D01*
X158877247Y20885552D01*
X158872135Y20876254D01*
X158870303Y20870479D01*
X158822514Y20719828D01*
X158815772Y20698576D01*
X158813337Y20676864D01*
X158797597Y20536539D01*
X158794994Y20513335D01*
X157805500Y20513335D01*
X157805500Y23013335D01*
X160544994Y23013335D01*
X160560592Y22827586D01*
X160562261Y22821766D01*
X160562261Y22821765D01*
X160608983Y22658827D01*
X160611971Y22648405D01*
X160614743Y22643011D01*
X160614744Y22643009D01*
X160692890Y22490955D01*
X160697176Y22482615D01*
X160812959Y22336532D01*
X160954912Y22215721D01*
X160960210Y22212760D01*
X161117627Y22124783D01*
X161116287Y22122385D01*
X161160793Y22085129D01*
X161181617Y22018434D01*
X161166297Y21956584D01*
X161122135Y21876254D01*
X161120303Y21870479D01*
X161067755Y21704826D01*
X161065772Y21698576D01*
X161065096Y21692548D01*
X161051351Y21570006D01*
X161044994Y21513335D01*
X161060592Y21327586D01*
X161062261Y21321766D01*
X161062261Y21321765D01*
X161108322Y21161132D01*
X161111971Y21148405D01*
X161114743Y21143011D01*
X161114744Y21143009D01*
X161186084Y21004198D01*
X161197176Y20982615D01*
X161235431Y20934349D01*
X161288494Y20867400D01*
X161312959Y20836532D01*
X161454912Y20715721D01*
X161460210Y20712760D01*
X161581478Y20644986D01*
X161617627Y20624783D01*
X161656135Y20612271D01*
X161752771Y20580872D01*
X161794907Y20567181D01*
X161979998Y20545110D01*
X161986041Y20545575D01*
X161986043Y20545575D01*
X162043482Y20549995D01*
X162165851Y20559411D01*
X162258006Y20585141D01*
X162339547Y20607907D01*
X162339551Y20607909D01*
X162345387Y20609538D01*
X162511768Y20693583D01*
X162516547Y20697317D01*
X162516552Y20697320D01*
X162628227Y20784571D01*
X162658655Y20808344D01*
X162780454Y20949450D01*
X162799295Y20982615D01*
X162869530Y21106252D01*
X162872526Y21111526D01*
X162931364Y21288399D01*
X162932248Y21295391D01*
X162945486Y21400185D01*
X162954727Y21473332D01*
X162955099Y21500000D01*
X162953811Y21513138D01*
X162937501Y21679477D01*
X162937501Y21679479D01*
X162936909Y21685513D01*
X162883033Y21863960D01*
X162837591Y21949425D01*
X162803609Y22013335D01*
X165544994Y22013335D01*
X165560592Y21827586D01*
X165562261Y21821766D01*
X165562261Y21821765D01*
X165601331Y21685513D01*
X165611971Y21648405D01*
X165614743Y21643011D01*
X165614744Y21643009D01*
X165690021Y21496538D01*
X165697176Y21482615D01*
X165735867Y21433799D01*
X165790775Y21364522D01*
X165812959Y21336532D01*
X165954912Y21215721D01*
X165960210Y21212760D01*
X166060702Y21156597D01*
X166117627Y21124783D01*
X166294907Y21067181D01*
X166300928Y21066463D01*
X166346381Y21061043D01*
X166479998Y21045110D01*
X166486041Y21045575D01*
X166486043Y21045575D01*
X166543482Y21049995D01*
X166665851Y21059411D01*
X166785037Y21092688D01*
X166839547Y21107907D01*
X166839551Y21107909D01*
X166845387Y21109538D01*
X167011768Y21193583D01*
X167016547Y21197317D01*
X167016552Y21197320D01*
X167039270Y21215070D01*
X167104217Y21240832D01*
X167172781Y21227392D01*
X167223195Y21179016D01*
X167239452Y21111064D01*
X167217925Y21047299D01*
X167215836Y21044248D01*
X167211935Y21039599D01*
X167159852Y20944860D01*
X167127247Y20885552D01*
X167122135Y20876254D01*
X167120303Y20870479D01*
X167072514Y20719828D01*
X167065772Y20698576D01*
X167063337Y20676864D01*
X167047597Y20536539D01*
X167044994Y20513335D01*
X167060592Y20327586D01*
X167062261Y20321766D01*
X167062261Y20321765D01*
X167101331Y20185513D01*
X167111971Y20148405D01*
X167114743Y20143011D01*
X167114744Y20143009D01*
X167190021Y19996538D01*
X167197176Y19982615D01*
X167312959Y19836532D01*
X167317578Y19832601D01*
X167432544Y19734758D01*
X167454912Y19715721D01*
X167617627Y19624783D01*
X167794907Y19567181D01*
X167979998Y19545110D01*
X167986041Y19545575D01*
X167986043Y19545575D01*
X168043482Y19549995D01*
X168165851Y19559411D01*
X168243235Y19581017D01*
X168339547Y19607907D01*
X168339551Y19607909D01*
X168345387Y19609538D01*
X168511768Y19693583D01*
X168516547Y19697317D01*
X168516552Y19697320D01*
X168592171Y19756401D01*
X168658655Y19808344D01*
X168780454Y19949450D01*
X168799295Y19982615D01*
X168816746Y20013335D01*
X170044994Y20013335D01*
X170060592Y19827586D01*
X170062261Y19821766D01*
X170062261Y19821765D01*
X170110273Y19654328D01*
X170111971Y19648405D01*
X170114743Y19643011D01*
X170114744Y19643009D01*
X170179661Y19516696D01*
X170197176Y19482615D01*
X170272433Y19387664D01*
X170308708Y19341896D01*
X170312959Y19336532D01*
X170317578Y19332601D01*
X170445872Y19223415D01*
X170454912Y19215721D01*
X170460210Y19212760D01*
X170531361Y19172995D01*
X170617627Y19124783D01*
X170794907Y19067181D01*
X170979998Y19045110D01*
X170986041Y19045575D01*
X170986043Y19045575D01*
X171043482Y19049995D01*
X171165851Y19059411D01*
X171243235Y19081017D01*
X171339547Y19107907D01*
X171339551Y19107909D01*
X171345387Y19109538D01*
X171511768Y19193583D01*
X171516547Y19197317D01*
X171516552Y19197320D01*
X171620802Y19278770D01*
X171658655Y19308344D01*
X171780454Y19449450D01*
X171795573Y19476063D01*
X171869530Y19606252D01*
X171872526Y19611526D01*
X171931364Y19788399D01*
X171934464Y19812933D01*
X171954292Y19969891D01*
X171954727Y19973332D01*
X171955099Y20000000D01*
X171954384Y20007289D01*
X171953791Y20013335D01*
X173044994Y20013335D01*
X173060592Y19827586D01*
X173062261Y19821766D01*
X173062261Y19821765D01*
X173110273Y19654328D01*
X173111971Y19648405D01*
X173114743Y19643011D01*
X173114744Y19643009D01*
X173179661Y19516696D01*
X173197176Y19482615D01*
X173272433Y19387664D01*
X173308708Y19341896D01*
X173312959Y19336532D01*
X173317578Y19332601D01*
X173445872Y19223415D01*
X173454912Y19215721D01*
X173460210Y19212760D01*
X173531361Y19172995D01*
X173617627Y19124783D01*
X173794907Y19067181D01*
X173979998Y19045110D01*
X173986041Y19045575D01*
X173986043Y19045575D01*
X174043482Y19049995D01*
X174165851Y19059411D01*
X174243235Y19081017D01*
X174339547Y19107907D01*
X174339551Y19107909D01*
X174345387Y19109538D01*
X174511768Y19193583D01*
X174516547Y19197317D01*
X174516552Y19197320D01*
X174620802Y19278770D01*
X174658655Y19308344D01*
X174780454Y19449450D01*
X174795573Y19476063D01*
X174869530Y19606252D01*
X174872526Y19611526D01*
X174931364Y19788399D01*
X174934464Y19812933D01*
X174954292Y19969891D01*
X174954727Y19973332D01*
X174955099Y20000000D01*
X174954384Y20007289D01*
X174937501Y20179477D01*
X174937501Y20179479D01*
X174936909Y20185513D01*
X174883033Y20363960D01*
X174879067Y20371420D01*
X174798371Y20523186D01*
X174798371Y20523187D01*
X174795522Y20528544D01*
X174677710Y20672995D01*
X174601783Y20735808D01*
X174538760Y20787946D01*
X174538757Y20787948D01*
X174534085Y20791813D01*
X174476051Y20823192D01*
X174375447Y20877589D01*
X174375443Y20877591D01*
X174370116Y20880471D01*
X174192049Y20935591D01*
X174006668Y20955076D01*
X174000635Y20954527D01*
X174000631Y20954527D01*
X173827074Y20938732D01*
X173827073Y20938732D01*
X173821032Y20938182D01*
X173815213Y20936469D01*
X173815211Y20936469D01*
X173767020Y20922285D01*
X173642214Y20885552D01*
X173477023Y20799193D01*
X173472295Y20795392D01*
X173472294Y20795391D01*
X173342851Y20691316D01*
X173331752Y20682392D01*
X173211935Y20539599D01*
X173202912Y20523186D01*
X173127247Y20385552D01*
X173122135Y20376254D01*
X173120303Y20370479D01*
X173083354Y20254000D01*
X173065772Y20198576D01*
X173063280Y20176356D01*
X173046863Y20029994D01*
X173044994Y20013335D01*
X171953791Y20013335D01*
X171937501Y20179477D01*
X171937501Y20179479D01*
X171936909Y20185513D01*
X171883033Y20363960D01*
X171879067Y20371420D01*
X171798371Y20523186D01*
X171798371Y20523187D01*
X171795522Y20528544D01*
X171677710Y20672995D01*
X171601783Y20735808D01*
X171538760Y20787946D01*
X171538757Y20787948D01*
X171534085Y20791813D01*
X171476051Y20823192D01*
X171375447Y20877589D01*
X171375443Y20877591D01*
X171370116Y20880471D01*
X171192049Y20935591D01*
X171006668Y20955076D01*
X171000635Y20954527D01*
X171000631Y20954527D01*
X170827074Y20938732D01*
X170827073Y20938732D01*
X170821032Y20938182D01*
X170815213Y20936469D01*
X170815211Y20936469D01*
X170767020Y20922285D01*
X170642214Y20885552D01*
X170477023Y20799193D01*
X170472295Y20795392D01*
X170472294Y20795391D01*
X170342851Y20691316D01*
X170331752Y20682392D01*
X170211935Y20539599D01*
X170202912Y20523186D01*
X170127247Y20385552D01*
X170122135Y20376254D01*
X170120303Y20370479D01*
X170083354Y20254000D01*
X170065772Y20198576D01*
X170063280Y20176356D01*
X170046863Y20029994D01*
X170044994Y20013335D01*
X168816746Y20013335D01*
X168869530Y20106252D01*
X168872526Y20111526D01*
X168931364Y20288399D01*
X168932248Y20295391D01*
X168943638Y20385552D01*
X168954727Y20473332D01*
X168955099Y20500000D01*
X168954044Y20510762D01*
X168937501Y20679477D01*
X168937501Y20679479D01*
X168936909Y20685513D01*
X168883033Y20863960D01*
X168878899Y20871736D01*
X168798371Y21023186D01*
X168798371Y21023187D01*
X168795522Y21028544D01*
X168677710Y21172995D01*
X168679861Y21174750D01*
X168652264Y21225722D01*
X168657496Y21295396D01*
X168679656Y21332673D01*
X168776487Y21444854D01*
X168776488Y21444855D01*
X168780454Y21449450D01*
X168799295Y21482615D01*
X168869530Y21606252D01*
X168872526Y21611526D01*
X168931364Y21788399D01*
X168933315Y21803837D01*
X168943134Y21881564D01*
X168954727Y21973332D01*
X168955099Y22000000D01*
X168954384Y22007289D01*
X168953791Y22013335D01*
X175044994Y22013335D01*
X175060592Y21827586D01*
X175062261Y21821766D01*
X175062261Y21821765D01*
X175101331Y21685513D01*
X175111971Y21648405D01*
X175114743Y21643011D01*
X175114744Y21643009D01*
X175190021Y21496538D01*
X175197176Y21482615D01*
X175235867Y21433799D01*
X175290775Y21364522D01*
X175312959Y21336532D01*
X175454912Y21215721D01*
X175460210Y21212760D01*
X175560702Y21156597D01*
X175617627Y21124783D01*
X175794907Y21067181D01*
X175800928Y21066463D01*
X175846381Y21061043D01*
X175979998Y21045110D01*
X175986041Y21045575D01*
X175986043Y21045575D01*
X176043482Y21049995D01*
X176165851Y21059411D01*
X176345387Y21109538D01*
X176350800Y21112272D01*
X176356453Y21114465D01*
X176357012Y21113024D01*
X176418288Y21124310D01*
X176482936Y21097808D01*
X176488935Y21092688D01*
X176509892Y21073619D01*
X176516968Y21067181D01*
X176520601Y21063875D01*
X176556939Y21004198D01*
X176555244Y20934349D01*
X176526196Y20885867D01*
X176411261Y20767264D01*
X176404333Y20758709D01*
X176290220Y20588891D01*
X176284925Y20579258D01*
X176202687Y20391914D01*
X176199180Y20381493D01*
X176172733Y20271335D01*
X176173426Y20257474D01*
X176182166Y20254000D01*
X178917987Y20254000D01*
X178931304Y20257910D01*
X178932358Y20265242D01*
X178874598Y20452996D01*
X178870439Y20463187D01*
X178776605Y20644986D01*
X178770708Y20654277D01*
X178646160Y20816593D01*
X178638719Y20824684D01*
X178581257Y20876971D01*
X178544921Y20936649D01*
X178546617Y21006498D01*
X178575664Y21054978D01*
X178721901Y21205882D01*
X178721907Y21205889D01*
X178725749Y21209854D01*
X178729254Y21215070D01*
X178847173Y21390552D01*
X178847176Y21390557D01*
X178850250Y21395132D01*
X178939974Y21599529D01*
X178992085Y21816585D01*
X178994482Y21858160D01*
X179004616Y22033921D01*
X179004616Y22033922D01*
X179004934Y22039438D01*
X178986406Y22192548D01*
X178978781Y22255560D01*
X178978780Y22255564D01*
X178978117Y22261044D01*
X178967095Y22296871D01*
X178914106Y22469119D01*
X178914104Y22469123D01*
X178912481Y22474400D01*
X178905457Y22488010D01*
X178812633Y22667850D01*
X178812632Y22667852D01*
X178810099Y22672759D01*
X178716751Y22794413D01*
X178711957Y22800661D01*
X178686763Y22865830D01*
X178700802Y22934275D01*
X178732634Y22972785D01*
X178733315Y22973332D01*
X178757346Y22992654D01*
X178807678Y23055253D01*
X178867793Y23130021D01*
X178867793Y23130022D01*
X178872002Y23135256D01*
X178874988Y23141271D01*
X178874991Y23141276D01*
X178950375Y23293139D01*
X178953361Y23299154D01*
X178985011Y23426094D01*
X178996308Y23471402D01*
X178996309Y23471407D01*
X178997628Y23476698D01*
X179000500Y23518825D01*
X179000499Y24481174D01*
X178997628Y24523302D01*
X178953361Y24700846D01*
X178904542Y24799193D01*
X178874991Y24858724D01*
X178874988Y24858729D01*
X178872002Y24864744D01*
X178757346Y25007346D01*
X178640772Y25101075D01*
X178619979Y25117793D01*
X178619978Y25117793D01*
X178614744Y25122002D01*
X178608729Y25124988D01*
X178608724Y25124991D01*
X178456861Y25200375D01*
X178456862Y25200375D01*
X178450846Y25203361D01*
X178353016Y25227753D01*
X178278598Y25246308D01*
X178278593Y25246309D01*
X178273302Y25247628D01*
X178231175Y25250500D01*
X177550486Y25250500D01*
X176868826Y25250499D01*
X176866729Y25250356D01*
X176866726Y25250356D01*
X176832155Y25248000D01*
X176832154Y25248000D01*
X176826698Y25247628D01*
X176649154Y25203361D01*
X176643138Y25200375D01*
X176643139Y25200375D01*
X176491276Y25124991D01*
X176491271Y25124988D01*
X176485256Y25122002D01*
X176480022Y25117793D01*
X176480021Y25117793D01*
X176459228Y25101075D01*
X176342654Y25007346D01*
X176338449Y25002116D01*
X176318810Y24977690D01*
X176261462Y24937778D01*
X176197408Y24933932D01*
X176192049Y24935591D01*
X176186019Y24936225D01*
X176186018Y24936225D01*
X176153540Y24939639D01*
X176006668Y24955076D01*
X176000635Y24954527D01*
X176000631Y24954527D01*
X175827074Y24938732D01*
X175827073Y24938732D01*
X175821032Y24938182D01*
X175815213Y24936469D01*
X175815211Y24936469D01*
X175758565Y24919797D01*
X175642214Y24885552D01*
X175477023Y24799193D01*
X175472295Y24795392D01*
X175472294Y24795391D01*
X175350259Y24697272D01*
X175331752Y24682392D01*
X175211935Y24539599D01*
X175122135Y24376254D01*
X175120303Y24370479D01*
X175096395Y24295110D01*
X175065772Y24198576D01*
X175044994Y24013335D01*
X175060592Y23827586D01*
X175062261Y23821766D01*
X175062261Y23821765D01*
X175103811Y23676864D01*
X175111971Y23648405D01*
X175114743Y23643011D01*
X175114744Y23643009D01*
X175185402Y23505525D01*
X175197176Y23482615D01*
X175312959Y23336532D01*
X175454912Y23215721D01*
X175617627Y23124783D01*
X175636307Y23118714D01*
X175693981Y23079276D01*
X175721179Y23014917D01*
X175709264Y22946071D01*
X175662020Y22894595D01*
X175646363Y22886773D01*
X175642214Y22885552D01*
X175477023Y22799193D01*
X175472295Y22795392D01*
X175472294Y22795391D01*
X175336478Y22686192D01*
X175331752Y22682392D01*
X175211935Y22539599D01*
X175122135Y22376254D01*
X175120303Y22370479D01*
X175087264Y22266326D01*
X175065772Y22198576D01*
X175044994Y22013335D01*
X168953791Y22013335D01*
X168937501Y22179477D01*
X168937501Y22179479D01*
X168936909Y22185513D01*
X168883033Y22363960D01*
X168878972Y22371599D01*
X168798371Y22523186D01*
X168798371Y22523187D01*
X168795522Y22528544D01*
X168677710Y22672995D01*
X168615315Y22724613D01*
X168538760Y22787946D01*
X168538757Y22787948D01*
X168534085Y22791813D01*
X168478690Y22821765D01*
X168375447Y22877589D01*
X168375443Y22877591D01*
X168370116Y22880471D01*
X168192049Y22935591D01*
X168006668Y22955076D01*
X168000635Y22954527D01*
X168000631Y22954527D01*
X167827074Y22938732D01*
X167827073Y22938732D01*
X167821032Y22938182D01*
X167815213Y22936469D01*
X167815211Y22936469D01*
X167758565Y22919797D01*
X167642214Y22885552D01*
X167477023Y22799193D01*
X167472295Y22795392D01*
X167472294Y22795391D01*
X167404388Y22740793D01*
X167331752Y22682392D01*
X167331088Y22683217D01*
X167274579Y22653119D01*
X167204943Y22658827D01*
X167170440Y22679009D01*
X167165354Y22683217D01*
X167115315Y22724613D01*
X167038760Y22787946D01*
X167038757Y22787948D01*
X167034085Y22791813D01*
X166978690Y22821765D01*
X166875447Y22877589D01*
X166875443Y22877591D01*
X166870116Y22880471D01*
X166692049Y22935591D01*
X166506668Y22955076D01*
X166500635Y22954527D01*
X166500631Y22954527D01*
X166327074Y22938732D01*
X166327073Y22938732D01*
X166321032Y22938182D01*
X166315213Y22936469D01*
X166315211Y22936469D01*
X166258565Y22919797D01*
X166142214Y22885552D01*
X165977023Y22799193D01*
X165972295Y22795392D01*
X165972294Y22795391D01*
X165836478Y22686192D01*
X165831752Y22682392D01*
X165711935Y22539599D01*
X165622135Y22376254D01*
X165620303Y22370479D01*
X165587264Y22266326D01*
X165565772Y22198576D01*
X165544994Y22013335D01*
X162803609Y22013335D01*
X162798371Y22023186D01*
X162798371Y22023187D01*
X162795522Y22028544D01*
X162677710Y22172995D01*
X162571278Y22261044D01*
X162538760Y22287946D01*
X162538757Y22287948D01*
X162534085Y22291813D01*
X162492552Y22314270D01*
X162382930Y22373543D01*
X162333322Y22422744D01*
X162318189Y22490955D01*
X162334091Y22543868D01*
X162369530Y22606252D01*
X162372526Y22611526D01*
X162431364Y22788399D01*
X162432248Y22795391D01*
X162443638Y22885552D01*
X162454727Y22973332D01*
X162455099Y23000000D01*
X162454384Y23007289D01*
X162437501Y23179477D01*
X162437501Y23179479D01*
X162436909Y23185513D01*
X162383033Y23363960D01*
X162307762Y23505525D01*
X162298371Y23523186D01*
X162298371Y23523187D01*
X162295522Y23528544D01*
X162177710Y23672995D01*
X162095722Y23740822D01*
X162038760Y23787946D01*
X162038757Y23787948D01*
X162034085Y23791813D01*
X161978690Y23821765D01*
X161875447Y23877589D01*
X161875443Y23877591D01*
X161870116Y23880471D01*
X161692049Y23935591D01*
X161506668Y23955076D01*
X161500635Y23954527D01*
X161500631Y23954527D01*
X161327074Y23938732D01*
X161327073Y23938732D01*
X161321032Y23938182D01*
X161315213Y23936469D01*
X161315211Y23936469D01*
X161258565Y23919797D01*
X161142214Y23885552D01*
X160977023Y23799193D01*
X160972295Y23795392D01*
X160972294Y23795391D01*
X160909051Y23744542D01*
X160831752Y23682392D01*
X160711935Y23539599D01*
X160622135Y23376254D01*
X160565772Y23198576D01*
X160544994Y23013335D01*
X157805500Y23013335D01*
X157805500Y23447810D01*
X157803890Y23477863D01*
X157802407Y23505525D01*
X157802406Y23505534D01*
X157802318Y23507181D01*
X157802142Y23508820D01*
X157799638Y23532115D01*
X157799637Y23532123D01*
X157799439Y23533964D01*
X157788416Y23599411D01*
X157767580Y23654232D01*
X157736173Y23736862D01*
X157734668Y23740822D01*
X157700642Y23803134D01*
X157605893Y23929703D01*
X156841819Y24693777D01*
X156808334Y24755100D01*
X156805500Y24781458D01*
X156805500Y25447810D01*
X156805266Y25452190D01*
X156802407Y25505525D01*
X156802406Y25505534D01*
X156802318Y25507181D01*
X156802142Y25508820D01*
X156799638Y25532115D01*
X156799637Y25532123D01*
X156799439Y25533964D01*
X156788416Y25599411D01*
X156780409Y25620479D01*
X156750215Y25699918D01*
X156734668Y25740822D01*
X156720880Y25766072D01*
X156706027Y25834344D01*
X156730443Y25899809D01*
X156786376Y25941681D01*
X156829711Y25949500D01*
X164087985Y25949500D01*
X164155024Y25929815D01*
G37*
%TD.AperFunction*%
%TD*%
M02*
