M48
; DRILL file {KiCad (6.0.5)} date Thu Sep  8 00:21:16 2022
; FORMAT={-:-/ absolute / metric / decimal}
; #@! TF.CreationDate,2022-09-08T00:21:16+12:00
; #@! TF.GenerationSoftware,Kicad,Pcbnew,(6.0.5)
; #@! TF.FileFunction,Plated,1,4,PTH
FMAT,2
METRIC
; #@! TA.AperFunction,Plated,PTH,ViaDrill
T1C0.400
; #@! TA.AperFunction,Plated,PTH,ComponentDrill
T2C0.750
; #@! TA.AperFunction,Plated,PTH,ComponentDrill
T3C1.500
; #@! TA.AperFunction,Plated,PTH,ViaDrill
T4C2.700
%
G90
G05
T1
X135.25Y10.75
X135.25Y9.5
X136.25Y10.75
X136.5Y9.5
X137.5Y10.75
X137.5Y9.5
X138.5Y10.75
X138.5Y9.5
X139.5Y10.75
X139.5Y9.5
X140.5Y10.75
X140.5Y9.5
X141.5Y10.75
X141.5Y9.5
X144.0Y15.5
X144.0Y14.5
X145.0Y15.5
X145.0Y14.5
X145.25Y9.75
X146.0Y15.5
X146.0Y14.5
X146.75Y9.75
X147.0Y20.0
X147.0Y15.5
X147.0Y14.5
X148.0Y15.5
X148.0Y14.5
X148.25Y12.0
X149.0Y22.0
X150.25Y19.5
X151.025Y10.5
X152.0Y15.25
X152.0Y14.25
X153.0Y18.25
X153.0Y17.25
X153.0Y15.25
X153.0Y14.25
X153.0Y13.25
X154.0Y18.25
X154.0Y17.25
X154.0Y13.25
X154.25Y11.0
X154.25Y10.0
X155.0Y18.25
X155.0Y17.25
X157.5Y25.25
X157.5Y15.0
X159.0Y16.5
X159.0Y9.25
X159.25Y18.5
X159.4Y13.2
X159.75Y20.5
X160.5Y19.503
X161.0Y8.5
X161.4Y13.2
X161.5Y23.0
X161.5Y18.5
X161.5Y16.5
X162.0Y21.5
X162.5Y14.5
X163.488Y25.012
X163.75Y12.5
X163.75Y10.25
X164.998Y25.25
X165.0Y13.0
X165.25Y18.5
X165.25Y17.0
X165.5Y20.0
X166.0Y10.5
X166.5Y25.25
X166.5Y22.0
X166.5Y17.0
X166.5Y13.0
X166.5Y11.5
X168.0Y22.0
X168.0Y20.5
X168.0Y13.0
X168.5Y8.5
X169.5Y13.0
X169.5Y11.5
X169.75Y9.75
X170.0Y17.0
X170.5Y25.5
X170.5Y18.25
X171.0Y24.0
X171.0Y20.0
X171.0Y13.0
X173.5Y25.5
X173.5Y23.0
X173.5Y16.0
X174.0Y20.0
X175.5Y23.0
X175.5Y13.0
X176.0Y24.0
X176.0Y22.0
X176.5Y19.5
X179.5Y24.5
X179.5Y21.0
X179.5Y15.0
X179.5Y9.0
X182.0Y25.5
X182.0Y20.5
X182.0Y13.5
X182.0Y8.5
T2
X177.55Y24.0
X177.55Y22.0
X177.55Y20.0
X177.55Y18.0
X177.55Y16.0
X177.55Y14.0
X177.55Y12.0
X177.55Y10.0
T4
X173.0Y10.5
T3
X139.75Y24.2G85X140.55Y24.2
G05
X139.75Y20.8G85X140.55Y20.8
G05
X153.45Y24.2G85X154.25Y24.2
G05
X153.45Y20.8G85X154.25Y20.8
G05
T0
M30
